<svg width="1211" height="680" viewBox="0 0 1211 680" fill="none" xmlns="http://www.w3.org/2000/svg">
<mask id="mask0" mask-type="alpha" maskUnits="userSpaceOnUse" x="0" y="0" width="1211" height="680">
<rect x="0.00195312" width="1210" height="680" fill="white"/>
</mask>
<g mask="url(#mask0)">
<path opacity="0.6" d="M1210 0H1175V680H1210V0Z" fill="#27334C"/>
<path opacity="0.5" d="M1210 680V191.577C1202.44 162.198 1190.68 134.144 1175 108.154V680H1210Z" fill="#212A3F"/>
<g opacity="0.5">
<path opacity="0.5" d="M1193.5 16.5273H1191.5V37.9973H1193.5V16.5273Z" fill="white"/>
</g>
<g opacity="0.5">
<path opacity="0.5" d="M1193.5 53.0254H1191.5V74.4963H1193.5V53.0254Z" fill="white"/>
</g>
<g opacity="0.5">
<path opacity="0.5" d="M1193.5 89.5254H1191.5V110.995H1193.5V89.5254Z" fill="white"/>
</g>
<g opacity="0.5">
<path opacity="0.5" d="M1193.5 126.023H1191.5V147.492H1193.5V126.023Z" fill="white"/>
</g>
<path opacity="0.3" d="M1210 0H1209V680H1210V0Z" fill="white"/>
<path opacity="0.3" d="M1176 0H1175V680H1176V0Z" fill="white"/>
<path d="M1175 270.875V680H1210V270.875C1210 189.173 1178.18 112.36 1120.41 54.5889C1098.3 32.4749 1073.39 14.18 1046.49 0H904.125C976.479 0 1044.5 28.1759 1095.66 79.3369C1146.82 130.498 1175 198.522 1175 270.875Z" fill="#334163"/>
<path opacity="0.1" d="M1175 270.875V680H1210V270.875C1210 189.173 1178.18 112.36 1120.41 54.5889C1098.3 32.4749 1073.39 14.18 1046.49 0H904.125C976.479 0 1044.5 28.1759 1095.66 79.3369C1146.82 130.498 1175 198.522 1175 270.875Z" fill="#27334C"/>
<path opacity="0.5" d="M1036.72 13.9539C1036.15 13.6759 1035.58 13.392 1035.01 13.105L1028.4 9.81592C1027.43 9.32892 1026.7 8.96587 1026.15 8.74487L1025.31 8.375L1024.5 10.2048L1025.37 10.5869C1025.87 10.7909 1026.57 11.137 1027.5 11.606L1034.12 14.895C1034.69 15.183 1035.26 15.4668 1035.83 15.7478C1037.63 16.6388 1039.33 17.48 1040.64 18.261L1043.57 19.8999L1044.55 18.156L1041.64 16.5288C1040.29 15.7218 1038.55 14.8639 1036.72 13.9539Z" fill="white"/>
<path opacity="0.5" d="M1061.31 28.1409L1057.56 25.7969L1056.5 27.4919L1060.26 29.8389C1061.79 30.7919 1063.69 31.9779 1065.49 33.2839L1074.31 39.4258L1075.45 37.7849L1066.65 31.6548C1064.81 30.3188 1062.87 29.1109 1061.31 28.1409Z" fill="white"/>
<path opacity="0.5" d="M1096.68 54.9451C1096.33 54.6431 1095.97 54.3391 1095.61 54.0261L1087.45 47.0312L1086.15 48.5513L1094.3 55.5391C1094.66 55.8521 1095.03 56.1622 1095.39 56.4692C1096.03 57.0192 1096.67 57.5602 1097.25 58.0972L1102.18 62.7803L1103.56 61.3311L1098.62 56.6392C1098.01 56.0742 1097.35 55.5131 1096.68 54.9451Z" fill="white"/>
<path opacity="0.5" d="M1118.92 76.9629C1118.37 76.3509 1117.82 75.779 1117.31 75.251C1117.04 74.97 1116.79 74.7009 1116.54 74.4399L1114.22 72.0078L1112.78 73.387L1115.09 75.814C1115.33 76.075 1115.6 76.3478 1115.87 76.6338C1116.36 77.1498 1116.9 77.7069 1117.42 78.2859L1126.41 88.6968C1126.75 89.1048 1126.94 89.3549 1126.95 89.3689L1128.56 88.1848C1128.56 88.1848 1128.35 87.8949 1127.94 87.4019L1118.92 76.9629Z" fill="white"/>
<path opacity="0.5" d="M1137.77 100.104L1136.14 101.256L1143.14 111.2L1148.13 119.025L1149.82 117.954L1145.37 110.929L1137.77 100.104Z" fill="white"/>
<path opacity="0.5" d="M1162.53 140.489C1162.09 139.624 1161.65 138.754 1161.23 137.913C1160.49 136.426 1159.79 135.02 1159.15 133.873L1157.49 130.951L1155.75 131.939L1157.4 134.852C1158.02 135.954 1158.71 137.339 1159.44 138.806C1159.86 139.653 1160.3 140.53 1160.75 141.394L1164.05 147.952L1165.42 151.019L1167.24 150.205L1165.85 147.095L1162.53 140.489Z" fill="white"/>
<path opacity="0.5" d="M1175.2 169.375C1174.9 168.604 1174.62 167.883 1174.37 167.223L1173.17 164.09L1171.3 164.809L1172.51 167.933C1172.75 168.592 1173.04 169.323 1173.34 170.103C1173.91 171.545 1174.54 173.179 1175.11 174.807L1178.47 185.013L1180.37 184.386L1177 174.168C1176.42 172.49 1175.77 170.834 1175.2 169.375Z" fill="white"/>
<path opacity="0.5" d="M1188.23 215.621C1188.11 214.907 1187.98 214.099 1187.79 213.273L1185.31 202.226C1184.9 200.235 1184.51 198.938 1184.5 198.883L1182.58 199.452C1182.58 199.465 1182.96 200.731 1183.36 202.649L1185.84 213.714C1186.01 214.485 1186.14 215.228 1186.26 215.945C1186.32 216.336 1186.38 216.71 1186.45 217.046L1187.02 220.357L1188.99 220.015L1188.41 216.691C1188.35 216.356 1188.29 215.996 1188.23 215.621Z" fill="white"/>
<path opacity="0.5" d="M1192.36 245.667C1192.32 245.196 1192.29 244.726 1192.26 244.258C1192.19 243.387 1192.13 242.528 1192.04 241.693L1191.22 234.941L1189.23 235.185L1190.06 241.92C1190.14 242.717 1190.2 243.551 1190.26 244.398C1190.29 244.873 1190.33 245.35 1190.36 245.821L1191.15 256.54L1193.14 256.394L1192.36 245.667Z" fill="white"/>
<path opacity="0.5" d="M1193.5 271.508H1191.5V293.002H1193.5V271.508Z" fill="white"/>
<path opacity="0.5" d="M1193.5 308.049H1191.5V329.543H1193.5V308.049Z" fill="white"/>
<path opacity="0.5" d="M1193.5 344.59H1191.5V366.084H1193.5V344.59Z" fill="white"/>
<path opacity="0.5" d="M1193.5 381.131H1191.5V402.625H1193.5V381.131Z" fill="white"/>
<path opacity="0.5" d="M1193.5 417.672H1191.5V439.166H1193.5V417.672Z" fill="white"/>
<path opacity="0.5" d="M1193.5 454.213H1191.5V475.707H1193.5V454.213Z" fill="white"/>
<path opacity="0.5" d="M1193.5 490.754H1191.5V512.248H1193.5V490.754Z" fill="white"/>
<path opacity="0.5" d="M1193.5 527.295H1191.5V548.789H1193.5V527.295Z" fill="white"/>
<path opacity="0.5" d="M1193.5 563.836H1191.5V585.33H1193.5V563.836Z" fill="white"/>
<path opacity="0.5" d="M1193.5 600.377H1191.5V621.871H1193.5V600.377Z" fill="white"/>
<path opacity="0.5" d="M1193.5 636.918H1191.5V658.412H1193.5V636.918Z" fill="white"/>
<path opacity="0.5" d="M999.367 0C999.806 0.15 1000.25 0.302984 1000.68 0.458984L1010.72 4.29785L1011.43 2.43091L1005.08 0H999.367Z" fill="white"/>
<path opacity="0.5" d="M1193.5 673.459H1191.5V680H1193.5V673.459Z" fill="white"/>
<path opacity="0.3" d="M1175 270.875V680H1176V270.875C1176 198.254 1147.72 129.98 1096.37 78.6299C1050.56 32.8229 991.289 5.393 927.477 0H904.125C976.479 0 1044.5 28.1759 1095.66 79.3369C1146.82 130.498 1175 198.522 1175 270.875Z" fill="white"/>
<path opacity="0.3" d="M1209 270.875V680H1210V270.875C1210 189.173 1178.18 112.36 1120.41 54.5889C1098.3 32.4749 1073.39 14.18 1046.49 0H1044.32C1071.78 14.254 1097.2 32.7889 1119.7 55.2959C1177.29 112.879 1209 189.44 1209 270.875Z" fill="white"/>
<path d="M838.323 265.383C839.734 264.439 841.159 263.504 842.591 262.644C854.694 255.377 869.314 256.58 880.024 265.383H882.847C871.415 254.78 855.062 252.977 841.631 261.043C839.371 262.399 837.139 263.915 834.977 265.383H838.323Z" fill="#2C3855"/>
<path d="M920.937 250.817C921.498 255.184 920.797 260.621 918.719 265.383H920.725C922.712 260.466 923.359 255.006 922.788 250.578C922.151 245.625 920.483 240.757 918.868 236.051C916.293 228.534 913.86 221.435 915.11 213.81C916.407 205.891 920.31 198.669 924.084 191.684C925.132 189.742 926.219 187.733 927.23 185.74C932.934 174.509 934.046 164.928 933.962 153.994C933.912 147.557 938.191 140.49 942.227 134.131L940.629 133.166C936.461 139.734 932.042 147.053 932.096 154.009C932.178 164.669 931.099 173.999 925.566 184.895C924.565 186.865 923.486 188.863 922.442 190.796C918.594 197.916 914.616 205.28 913.268 213.507C911.942 221.596 914.566 229.253 917.104 236.655C918.687 241.275 920.323 246.052 920.937 250.817Z" fill="#2C3855"/>
<path d="M996.984 129.22C996.423 129.27 994.105 129.476 993.921 129.495C993.736 129.515 993.194 129.537 992.735 129.532C992.276 129.528 989.885 129.509 989.619 129.508C989.355 129.506 989.147 129.501 988.75 129.476C988.407 129.454 981.656 129.026 979.928 128.918C979.672 128.9 979.524 128.891 979.524 128.891C977.795 128.782 971.044 128.352 970.698 128.33C970.303 128.306 970.099 128.284 969.835 128.253C969.57 128.222 967.197 127.939 966.74 127.883C966.284 127.827 965.75 127.738 965.57 127.696C965.389 127.654 963.114 127.154 962.567 127.034C962.018 126.913 961.92 126.682 961.935 126.449L961.361 135.473C961.349 135.664 961.49 135.865 961.679 135.913L965.463 136.882L965.482 136.883C965.495 137.058 965.618 137.214 965.792 137.241L965.972 137.269L965.532 163.312C965.532 163.312 960.23 169.917 960.067 172.495L959.332 184.039C959.298 184.563 959.329 185.246 959.815 185.533C961.093 186.345 963.542 187.119 966.7 187.732L968.872 201.499C969.158 203.219 968.099 203.472 967.222 203.416L966.048 203.344C965.855 203.331 965.688 203.48 965.675 203.672L965.521 206.091C965.508 206.285 965.657 206.451 965.851 206.463L963.625 206.321C963.43 206.307 963.264 206.458 963.251 206.652L962.488 218.652C962.476 218.846 962.623 219.013 962.818 219.023L965.657 219.205C965.853 219.219 966.019 219.071 966.032 218.876L966.123 217.45L966.68 217.485L966.617 218.472C966.605 218.667 966.754 218.834 966.948 218.847L971.402 219.129C971.595 219.141 971.881 219.243 972.039 219.355L972.142 219.431C972.301 219.543 972.587 219.643 972.78 219.656L975.129 219.805C975.321 219.818 975.62 219.753 975.79 219.662L975.901 219.6C976.073 219.509 976.371 219.441 976.562 219.455L981.017 219.738C981.211 219.753 981.379 219.603 981.391 219.408L981.454 218.422L982.012 218.457L981.92 219.884C981.908 220.077 982.057 220.243 982.25 220.257L985.092 220.437C985.285 220.451 985.453 220.304 985.465 220.108L986.227 208.109C986.24 207.915 986.092 207.747 985.899 207.737L983.671 207.593C983.865 207.606 984.033 207.458 984.045 207.267L984.199 204.847C984.212 204.654 984.062 204.486 983.87 204.474L982.697 204.399C981.82 204.345 980.798 203.957 981.302 202.286L985.2 188.907C988.41 188.699 990.936 188.243 992.308 187.596C992.826 187.375 992.943 186.702 992.975 186.177L993.709 174.632C993.874 172.054 989.449 164.83 989.449 164.83L992.312 138.942L992.494 138.939C992.67 138.933 992.812 138.795 992.847 138.621L992.867 138.623L996.742 138.142C996.934 138.119 997.102 137.938 997.114 137.747L997.688 128.721C997.671 128.953 997.542 129.169 996.984 129.22Z" fill="#212A3F"/>
<path d="M974.938 188.794C972.613 188.621 970.416 188.361 968.438 188.037L968.369 189.115C968.345 189.501 968.63 189.898 969.005 189.994L970.041 190.261L969.651 196.396C969.625 196.783 969.915 197.178 970.29 197.273L970.853 197.415L970.511 202.796C970.487 203.182 970.773 203.581 971.147 203.678C971.147 203.678 972.105 203.81 972.88 203.949C973.63 204.084 974.262 204.456 974.221 205.121L975.235 189.172C975.245 188.992 975.113 188.831 974.938 188.794Z" fill="url(#paint0_linear)"/>
<path d="M976.895 188.918C976.717 188.933 976.565 189.076 976.555 189.258L975.541 205.206C975.583 204.542 976.256 204.252 977.018 204.214C977.804 204.174 978.772 204.162 978.772 204.162C979.156 204.114 979.491 203.756 979.515 203.37L979.857 197.989L980.433 197.917C980.817 197.87 981.153 197.517 981.178 197.13L981.568 190.997L982.626 190.862C983.011 190.812 983.346 190.454 983.37 190.067L983.44 188.992C981.436 189.062 979.224 189.042 976.895 188.918Z" fill="url(#paint1_linear)"/>
<path d="M969.978 138.051L978.601 139.225C978.793 139.251 979.002 139.275 979.067 139.278C979.131 139.283 979.342 139.286 979.536 139.285L988.238 139.212C988.429 139.21 988.598 139.048 988.611 138.855L989.21 129.429C989.083 129.422 988.942 129.418 988.758 129.406C988.414 129.382 981.662 128.953 979.934 128.844C979.68 128.829 979.531 128.819 979.531 128.819C977.801 128.708 971.05 128.282 970.705 128.258C970.52 128.246 970.378 128.235 970.252 128.225L969.653 137.651C969.641 137.843 969.787 138.023 969.978 138.051Z" fill="url(#paint2_linear)"/>
<path opacity="0.8" d="M996.987 129.221C996.426 129.272 994.108 129.478 993.923 129.496C993.832 129.508 993.655 129.517 993.444 129.521L992.874 138.505L992.848 138.621L992.867 138.622L996.743 138.142C996.934 138.118 997.102 137.938 997.115 137.746L997.688 128.721C997.674 128.955 997.545 129.171 996.987 129.221Z" fill="url(#paint3_linear)"/>
<path d="M992.737 129.533C992.277 129.528 989.886 129.51 989.621 129.509C989.494 129.507 989.378 129.507 989.251 129.5L988.646 139.013L992.493 138.938C992.669 138.933 992.811 138.794 992.846 138.621L992.871 138.507L993.442 129.524H993.443C993.226 129.529 992.97 129.535 992.737 129.533Z" fill="url(#paint4_linear)"/>
<path opacity="0.8" d="M962.568 127.034C963.116 127.154 965.39 127.654 965.571 127.696C965.66 127.715 965.834 127.748 966.043 127.78L965.472 136.766L965.483 136.883L965.464 136.882L961.68 135.913C961.492 135.865 961.35 135.664 961.362 135.473L961.936 126.449C961.92 126.682 962.021 126.912 962.568 127.034Z" fill="url(#paint5_linear)"/>
<path d="M966.743 127.883C967.199 127.939 969.573 128.222 969.838 128.253C969.962 128.268 970.078 128.281 970.205 128.29L969.6 137.803L965.794 137.242C965.619 137.215 965.495 137.058 965.483 136.884L965.473 136.769L966.043 127.783H966.042C966.258 127.817 966.511 127.855 966.743 127.883Z" fill="url(#paint6_linear)"/>
<path d="M993.592 173.66C992.923 170.577 989.445 164.894 989.445 164.894L989.451 164.841H989.45C989.329 164.857 989.194 164.867 989.07 164.883C986.116 165.233 982.286 165.328 978.078 165.094L976.78 165.011C972.578 164.712 968.79 164.131 965.903 163.412C965.781 163.381 965.65 163.352 965.532 163.32H965.53L965.529 163.375C965.529 163.375 961.363 168.572 960.307 171.542L960.308 171.545C960.709 171.864 961.301 172.187 962.053 172.494L969.175 174.298C971.402 174.666 973.915 174.954 976.575 175.129L977 175.156C979.664 175.322 982.189 175.352 984.447 175.269L991.739 174.383C992.525 174.172 993.153 173.929 993.592 173.66Z" fill="url(#paint7_linear)"/>
<path d="M965.976 137.241L965.538 163.287C965.538 163.287 965.515 163.312 965.477 163.362L965.529 163.392C965.648 163.421 965.778 163.45 965.902 163.481C968.788 164.203 972.577 164.782 976.78 165.08L978.076 165.163C982.282 165.398 986.112 165.302 989.067 164.952C989.193 164.937 989.325 164.927 989.447 164.91L989.527 164.927C989.483 164.855 989.453 164.806 989.453 164.806L992.317 138.916L992.498 138.914C992.512 138.911 992.521 138.899 992.534 138.897C992.523 138.869 992.513 138.849 992.502 138.85L988.654 138.924L988.619 138.764C988.607 138.959 988.439 139.119 988.246 139.121L979.545 139.194C979.352 139.194 979.14 139.194 979.076 139.19C979.01 139.185 978.801 139.161 978.608 139.134L969.986 137.96C969.795 137.935 969.648 137.754 969.66 137.559L969.607 137.713L965.8 137.15C965.793 137.15 965.782 137.174 965.772 137.201C965.782 137.203 965.787 137.213 965.797 137.215L965.976 137.241Z" fill="url(#paint8_linear)"/>
<path d="M993.589 173.729C993.15 173.997 992.521 174.239 991.735 174.451L984.444 175.337C982.186 175.422 979.661 175.39 976.998 175.224L976.573 175.198C973.912 175.026 971.401 174.735 969.172 174.368L962.051 172.563C961.301 172.255 960.708 171.935 960.306 171.612L960.273 171.586C960.166 171.911 960.087 172.213 960.071 172.468L959.338 184.013C959.304 184.536 959.336 185.218 959.82 185.506C962.173 187.005 968.464 188.365 975.919 188.84H975.921C983.377 189.313 989.786 188.76 992.311 187.571C992.829 187.349 992.947 186.677 992.98 186.152L993.714 174.607C993.73 174.354 993.691 174.047 993.628 173.715L993.589 173.729Z" fill="url(#paint9_linear)"/>
<path opacity="0.8" d="M953.392 121.047C953.484 122.409 954.042 122.855 955.157 122.925L957.091 123.047L960.725 123.278C961.501 123.327 962.092 124 962.045 124.775L961.937 126.447C961.921 126.68 962.021 126.91 962.569 127.032C963.117 127.152 965.391 127.652 965.572 127.694C965.753 127.736 966.286 127.825 966.743 127.881C967.199 127.936 969.572 128.219 969.837 128.25C970.101 128.282 970.306 128.304 970.7 128.328C971.047 128.351 977.798 128.779 979.526 128.889C979.526 128.889 979.676 128.899 979.93 128.915C981.658 129.025 988.409 129.452 988.753 129.474C989.15 129.499 989.356 129.504 989.622 129.506C989.887 129.508 992.279 129.527 992.738 129.53C993.196 129.534 993.738 129.512 993.923 129.492C994.108 129.473 996.425 129.268 996.987 129.217C997.544 129.166 997.673 128.951 997.688 128.718L997.794 127.047C997.843 126.272 998.516 125.682 999.288 125.728L1002.92 125.96L1004.86 126.083C1005.97 126.154 1006.58 125.782 1006.84 124.443C1006.95 123.886 1008.09 114.652 1008.91 104.022C1009.87 91.4981 1010.89 73.0947 1010.89 73.0947C1010.9 72.8996 1010.8 72.6225 1010.67 72.4776L1008.61 70.143C1008.48 70.0004 1008.22 69.867 1008.02 69.8556L1002.57 69.5086L964.59 67.0952L959.134 66.7474C958.942 66.7337 958.665 66.8318 958.517 66.9596L956.171 69.0116C956.026 69.1404 955.895 69.4038 955.881 69.5977C955.881 69.5977 954.559 87.9805 953.932 100.529C953.4 111.177 953.357 120.482 953.392 121.047Z" fill="#FFA037"/>
<path d="M938.79 95.5049L938.168 105.29C938.653 105.321 940.895 105.441 940.798 106.977L941.613 94.1602C941.514 95.7 939.273 95.5368 938.79 95.5049Z" fill="#212A3F"/>
<path d="M938.464 95.1224L926.231 94.3458C924.033 94.2055 913.17 93.4001 911.247 94.9227C909.325 96.4489 908.043 101.811 909.859 103.807C911.673 105.807 913.46 105.48 914.702 104.909C915.944 104.343 937.799 105.583 937.799 105.583C937.991 105.595 938.159 105.449 938.172 105.257L938.792 95.4953C938.805 95.3014 938.658 95.135 938.464 95.1224Z" fill="#27334C"/>
<path opacity="0.7" d="M956.618 119.892C956.754 120.03 956.875 119.984 956.886 119.791L957.038 117.415C957.051 117.219 956.904 117.052 956.71 117.04L953.997 116.868C953.803 116.855 953.757 116.961 953.891 117.098L956.618 119.892Z" fill="#334163"/>
<path opacity="0.8" d="M953.936 100.532C954.06 98.0268 954.213 95.2929 954.377 92.519C954.401 92.1324 954.077 91.8062 953.689 91.7822L943.22 91.1161C942.448 91.0671 941.772 91.6602 941.725 92.4324L940.698 108.564C940.65 109.337 941.243 110.012 942.015 110.061L952.835 110.749C953.223 110.773 953.534 110.477 953.559 110.088V110.08C953.645 107.195 953.765 103.932 953.936 100.532Z" fill="#4B6696"/>
<path opacity="0.8" d="M952.834 110.745C953.221 110.769 953.533 110.473 953.558 110.084V110.075C953.642 107.192 953.762 103.928 953.933 100.529C954.057 98.0239 954.21 95.29 954.375 92.5161C954.399 92.1294 954.075 91.8032 953.687 91.7793L951.378 91.6309L950.174 110.575L952.834 110.745Z" fill="#27334C"/>
<path d="M926.229 94.3449L937.512 95.0622C937.57 94.1247 937.125 93.7392 936.198 93.4335V93.429C932.539 92.3512 922.275 90.2501 922.275 90.2501C921.895 90.168 921.513 90.4167 921.425 90.7942L920.67 94.0506C923.15 94.1304 925.363 94.289 926.229 94.3449Z" fill="#212A3F"/>
<path d="M1024.56 100.959L1023.94 110.743C1023.46 110.715 1021.22 110.546 1021.12 112.086L1021.93 99.2676C1021.84 100.807 1024.08 100.928 1024.56 100.959Z" fill="#212A3F"/>
<path d="M1024.94 100.616L1037.17 101.393C1039.37 101.534 1050.25 102.109 1051.96 103.865C1053.67 105.622 1054.27 111.103 1052.21 112.853C1050.16 114.609 1048.43 114.057 1047.27 113.334C1046.11 112.612 1024.27 111.077 1024.27 111.077C1024.08 111.066 1023.93 110.899 1023.94 110.706L1024.56 100.947C1024.58 100.752 1024.75 100.605 1024.94 100.616Z" fill="#27334C"/>
<path opacity="0.3" d="M938.469 95.0137L926.237 94.2357C924.039 94.0965 913.175 93.2902 911.253 94.8141C909.331 96.3402 908.049 101.702 909.865 103.698C911.679 105.699 913.465 105.371 914.708 104.802C915.95 104.234 937.805 105.475 937.805 105.475C937.998 105.488 938.165 105.341 938.178 105.148L938.797 95.3877C938.811 95.1961 938.663 95.0263 938.469 95.0137Z" fill="#212A3F"/>
<path opacity="0.3" d="M1024.94 100.511L1037.18 101.289C1039.38 101.429 1050.25 102.005 1051.97 103.76C1053.68 105.516 1054.27 110.999 1052.22 112.747C1050.17 114.503 1048.44 113.953 1047.28 113.229C1046.12 112.508 1024.28 110.972 1024.28 110.972C1024.09 110.959 1023.94 110.793 1023.95 110.599L1024.57 100.839C1024.58 100.647 1024.75 100.498 1024.94 100.511Z" fill="#212A3F"/>
<path opacity="0.7" d="M1003.79 122.89C1003.64 123.009 1003.53 122.949 1003.54 122.757L1003.69 120.379C1003.7 120.185 1003.87 120.037 1004.06 120.05L1006.78 120.222C1006.97 120.234 1007.01 120.344 1006.85 120.466L1003.79 122.89Z" fill="#334163"/>
<path opacity="0.8" d="M1008.91 104.024C1009.1 101.525 1009.29 98.7918 1009.48 96.0213C1009.51 95.6335 1009.87 95.3505 1010.26 95.3745L1020.73 96.0419C1021.5 96.0887 1022.1 96.7637 1022.05 97.537L1021.02 113.67C1020.97 114.442 1020.3 115.035 1019.52 114.987L1008.7 114.298C1008.32 114.274 1008.04 113.941 1008.07 113.553L1008.07 113.545C1008.35 110.67 1008.65 107.418 1008.91 104.024Z" fill="#4B6696"/>
<path opacity="0.8" d="M1008.7 114.295C1008.31 114.271 1008.04 113.938 1008.06 113.55L1008.07 113.542C1008.35 110.668 1008.64 107.417 1008.9 104.022C1009.1 101.523 1009.29 98.7899 1009.48 96.0194C1009.5 95.6316 1009.87 95.3486 1010.26 95.3725L1012.56 95.5209L1011.36 114.464L1008.7 114.295Z" fill="#27334C"/>
<path opacity="0.1" d="M938.462 95.1224L926.229 94.3458C924.031 94.2055 913.168 93.4001 911.245 94.9227C910.267 95.7006 909.458 97.4696 909.135 99.2855C913.225 97.9236 922.703 98.4699 938.535 99.4988L938.79 95.4953C938.803 95.3014 938.656 95.135 938.462 95.1224Z" fill="url(#paint10_linear)"/>
<path opacity="0.1" d="M1024.94 100.616C1024.75 100.604 1024.58 100.751 1024.56 100.945L1024.31 104.947C1040.14 105.933 1049.61 106.59 1053.5 108.46C1053.41 106.618 1052.83 104.759 1051.96 103.865C1050.25 102.109 1039.37 101.534 1037.17 101.394L1024.94 100.616Z" fill="url(#paint11_linear)"/>
<path d="M1010.8 74.7084H1010.8C1010.78 74.9 1010.64 75.168 1010.49 75.2946L1010.48 75.3004C1010.34 75.427 1010.12 75.4155 1009.99 75.2684L1008.49 73.5736C1008.36 73.4277 1008.1 73.301 1007.9 73.2885L1006.96 73.2245C1006.76 73.2108 1006.62 73.0432 1006.63 72.8505L1006.7 71.7441C1006.71 71.5525 1006.88 71.403 1007.07 71.4167L1009.46 71.5673C1009.51 71.5707 1009.69 71.591 1009.91 71.6241L1008.61 70.1449C1008.48 70.0023 1008.21 69.8689 1008.02 69.8575L1005.07 69.6704L1005.08 69.6921C1005.28 69.7024 1005.42 69.8711 1005.41 70.065L1004.15 86.7461C1004.13 86.9355 1003.96 87.0792 1003.77 87.0666L961.17 84.3577C960.977 84.3452 960.825 84.1799 960.836 83.9849L961.697 67.2843C961.707 67.0904 961.872 66.9443 962.066 66.9546L962.077 66.9353L959.132 66.7493C958.94 66.7356 958.663 66.8338 958.514 66.9615L957.029 68.2605C957.252 68.2583 957.433 68.2607 957.49 68.2642L959.876 68.417C960.068 68.4285 960.216 68.5983 960.205 68.7899L960.134 69.8951C960.122 70.0879 959.954 70.2374 959.761 70.2248L958.816 70.1678C958.623 70.1552 958.345 70.25 958.2 70.3777L956.497 71.8706C956.35 71.9972 956.125 71.9836 955.997 71.8399L955.993 71.8319C955.864 71.6881 955.752 71.4053 955.764 71.2114H955.763C955.539 74.4062 955.02 81.9205 954.545 89.6377C954.559 89.4472 954.673 89.1859 954.818 89.0593L955.036 88.8655C955.183 88.7366 955.459 88.6431 955.653 88.6533L958.496 88.8357C958.689 88.8471 958.837 89.0158 958.826 89.2086L958.61 92.6064C958.598 92.8026 958.43 92.9487 958.236 92.935L955.394 92.7559C955.199 92.7423 954.936 92.6145 954.808 92.4697L954.616 92.2483C954.487 92.1034 954.414 91.8287 954.425 91.6371C954.241 94.7121 954.068 97.7607 953.93 100.531C953.621 106.713 953.477 112.428 953.416 116.256C953.414 116.453 953.518 116.723 953.654 116.863L956.652 119.932C956.789 120.068 957.057 120.194 957.25 120.204L958.603 120.291C958.797 120.304 958.965 120.155 958.975 119.96L958.772 123.155L960.72 123.279C961.496 123.328 962.088 124.001 962.04 124.776L961.933 126.448C961.917 126.681 962.016 126.911 962.565 127.033C963.112 127.153 965.387 127.652 965.568 127.695C965.748 127.737 966.282 127.826 966.738 127.881C967.194 127.937 969.568 128.22 969.833 128.251C970.096 128.283 970.301 128.305 970.696 128.329C971.043 128.351 977.794 128.78 979.522 128.89C979.522 128.89 979.671 128.9 979.926 128.916C981.654 129.026 988.405 129.453 988.748 129.475C989.145 129.5 989.351 129.505 989.617 129.507C989.883 129.509 992.275 129.527 992.733 129.531C993.192 129.535 993.734 129.513 993.918 129.493C994.103 129.474 996.421 129.269 996.982 129.218C997.54 129.167 997.669 128.951 997.683 128.719L997.79 127.048C997.839 126.273 998.512 125.682 999.284 125.729L1001.23 125.854L1001.43 122.66C1001.42 122.853 1001.57 123.021 1001.76 123.033L1003.11 123.12C1003.31 123.132 1003.59 123.043 1003.74 122.922L1007.1 120.258C1007.26 120.137 1007.4 119.88 1007.42 119.684L1007.42 119.685C1007.85 115.88 1008.43 110.193 1008.9 104.021C1009.12 101.259 1009.33 98.2115 1009.54 95.1388C1009.53 95.3304 1009.42 95.5925 1009.27 95.7191L1009.05 95.9165C1008.91 96.042 1008.63 96.1378 1008.44 96.1276L1005.59 95.9449C1005.4 95.9335 1005.25 95.766 1005.26 95.5709L1005.48 92.1731C1005.49 91.9792 1005.66 91.8297 1005.85 91.8434L1008.7 92.0236C1008.89 92.035 1009.15 92.1653 1009.28 92.3101L1009.47 92.5312C1009.6 92.6738 1009.68 92.9511 1009.67 93.1438H1009.67C1010.18 85.4277 1010.62 77.9043 1010.8 74.7084Z" fill="#FFAA4C"/>
<path d="M1010.8 74.7668H1010.8C1010.78 74.9573 1010.64 75.2264 1010.49 75.3519L1010.48 75.3588C1010.34 75.4843 1010.12 75.4739 1009.99 75.3279L1008.49 73.6329C1008.36 73.4858 1008.1 73.3592 1007.9 73.3477L1006.96 73.2829C1006.76 73.2692 1006.62 73.1016 1006.63 72.91L1006.7 71.8034C1006.71 71.6095 1006.88 71.4614 1007.07 71.4751L1009.46 71.6254C1009.51 71.63 1009.69 71.6495 1009.91 71.6814L1008.61 70.2033C1008.48 70.0608 1008.21 69.9271 1008.02 69.9146L1005.07 69.7288L1005.08 69.7505C1005.28 69.762 1005.42 69.9307 1005.41 70.1223L1004.15 86.8056C1004.13 86.9938 1003.96 87.1376 1003.77 87.125L961.17 84.4161C960.977 84.4047 960.825 84.2395 960.836 84.0433L961.697 67.3438C961.707 67.1487 961.872 67.0015 962.066 67.0141L962.077 66.9937L959.132 66.8077C958.94 66.7952 958.663 66.8922 958.514 67.0199L957.029 68.3201C957.252 68.3178 957.433 68.32 957.49 68.3223L959.876 68.4741C960.068 68.4866 960.216 68.6567 960.205 68.8483L960.134 69.9535C960.122 70.1474 959.954 70.2967 959.761 70.283L958.816 70.2273C958.623 70.2136 958.345 70.307 958.2 70.4358L956.497 71.9301C956.35 72.0567 956.125 72.0418 955.997 71.8969L955.993 71.8903C955.864 71.7477 955.752 71.4637 955.764 71.271H955.763C955.539 74.4646 955.02 81.9797 954.545 89.6958C954.559 89.5053 954.673 89.2443 954.818 89.1177L955.036 88.9236C955.183 88.7959 955.459 88.7003 955.653 88.7117L958.496 88.8941C958.689 88.9055 958.837 89.0731 958.826 89.267L958.61 92.6659C958.598 92.8598 958.43 93.0071 958.236 92.9945L955.394 92.8143C955.199 92.7995 954.936 92.673 954.808 92.527L954.616 92.3067C954.487 92.1619 954.414 91.8871 954.425 91.6955C954.241 94.7694 954.068 97.8203 953.93 100.59C953.621 106.772 953.477 112.486 953.416 116.314C953.414 116.511 953.518 116.782 953.654 116.922L956.652 119.99C956.789 120.127 957.057 120.252 957.25 120.263L958.603 120.349C958.797 120.363 958.965 120.215 958.975 120.02L958.772 123.215L960.72 123.337C961.496 123.387 962.088 124.061 962.04 124.834L961.933 126.505C961.917 126.74 962.016 126.969 962.565 127.092C963.112 127.211 965.387 127.711 965.568 127.753C965.748 127.795 966.282 127.883 966.738 127.941C967.194 127.995 969.568 128.277 969.833 128.309C970.096 128.341 970.301 128.363 970.696 128.386C971.043 128.41 977.794 128.838 979.522 128.947C979.522 128.947 979.671 128.958 979.926 128.973C981.654 129.083 988.405 129.512 988.748 129.532C989.145 129.558 989.351 129.563 989.617 129.565C989.883 129.568 992.275 129.587 992.733 129.59C993.192 129.593 993.734 129.572 993.918 129.553C994.103 129.532 996.421 129.326 996.982 129.277C997.54 129.225 997.669 129.01 997.683 128.777L997.79 127.106C997.839 126.332 998.512 125.741 999.284 125.789L1001.23 125.912L1001.43 122.718C1001.42 122.911 1001.57 123.08 1001.76 123.092L1003.11 123.179C1003.31 123.191 1003.59 123.102 1003.74 122.982L1007.1 120.316C1007.26 120.197 1007.4 119.94 1007.42 119.744H1007.42C1007.85 115.939 1008.43 110.25 1008.9 104.081C1009.12 101.319 1009.33 98.2685 1009.54 95.1969C1009.53 95.3885 1009.42 95.6509 1009.27 95.7786L1009.05 95.976C1008.91 96.1015 1008.63 96.1974 1008.44 96.186L1005.59 96.0044C1005.4 95.9919 1005.25 95.8255 1005.26 95.6305L1005.48 92.2326C1005.49 92.0399 1005.66 91.8904 1005.85 91.9029L1008.7 92.0831C1008.89 92.0945 1009.15 92.2234 1009.28 92.3694L1009.47 92.5919C1009.6 92.7344 1009.68 93.0106 1009.67 93.2034H1009.67C1010.18 85.4861 1010.62 77.9627 1010.8 74.7668Z" fill="url(#paint12_linear)"/>
<path opacity="0.3" d="M1000.5 82.5549L1001.32 69.784C1001.33 69.5889 1001.18 69.4223 1000.98 69.4097L966.175 67.1959C965.981 67.1845 965.813 67.3328 965.801 67.5279L964.988 80.2977C964.952 80.8805 965.395 81.3859 965.976 81.4224L999.381 83.5462C999.961 83.5839 1000.47 83.1366 1000.5 82.5549Z" fill="#334163"/>
<g opacity="0.5">
<path d="M978.351 79.9758L979.082 68.4837C979.094 68.3007 978.955 68.1445 978.775 68.1327L976.465 67.9851C976.284 67.9733 976.126 68.1122 976.114 68.2953L975.384 79.7853C975.331 80.601 975.959 81.315 976.773 81.3674C977.59 81.4188 978.3 80.7883 978.351 79.9758Z" fill="#2D3C59"/>
<path d="M990.192 80.7297L990.922 69.2389C990.934 69.0559 990.796 68.8994 990.614 68.8877L988.305 68.739C988.122 68.7272 987.965 68.8675 987.954 69.0484L987.224 80.5402C987.172 81.3559 987.797 82.0689 988.613 82.1213C989.43 82.1716 990.139 81.5432 990.192 80.7297Z" fill="#2D3C59"/>
<path d="M984.273 80.352L985.004 68.8609C985.016 68.6779 984.876 68.5217 984.695 68.5099L982.385 68.362C982.204 68.3502 982.045 68.4894 982.033 68.6725L981.302 80.1625C981.25 80.9792 981.875 81.693 982.694 81.7433C983.511 81.7968 984.222 81.1676 984.273 80.352Z" fill="#2D3C59"/>
<path d="M973.063 69.6997L973.165 68.1069C973.177 67.927 973.04 67.7687 972.857 67.758L970.547 67.6103C970.366 67.5964 970.207 67.7367 970.195 67.9197L970.095 69.5113C970.042 70.328 970.669 71.0378 971.484 71.0902C972.301 71.1438 973.012 70.5153 973.063 69.6997Z" fill="#2D3C59"/>
<path d="M996.74 71.2044L996.841 69.6139C996.852 69.4309 996.713 69.2734 996.532 69.2627L994.222 69.114C994.04 69.1022 993.884 69.2425 993.872 69.4234L993.771 71.0139C993.718 71.8327 994.344 72.5425 995.16 72.5949C995.978 72.6474 996.688 72.0211 996.74 71.2044Z" fill="#2D3C59"/>
<path d="M971.344 73.2863C970.529 73.2338 969.816 73.8591 969.765 74.6758L969.464 79.4101C969.413 80.2258 970.038 80.9408 970.854 80.9912C971.67 81.0447 972.381 80.4152 972.433 79.6006L972.734 74.8639C972.785 74.0472 972.16 73.3366 971.344 73.2863Z" fill="#2D3C59"/>
<path d="M995.018 74.7902C994.203 74.7377 993.493 75.3638 993.44 76.1794L993.14 80.9161C993.088 81.7296 993.713 82.4447 994.529 82.4972C995.345 82.5496 996.055 81.9201 996.108 81.1066L996.409 76.3689C996.46 75.5522 995.835 74.8426 995.018 74.7902Z" fill="#2D3C59"/>
</g>
<path opacity="0.2" d="M971.01 116.262C971.023 116.071 970.875 115.901 970.681 115.888L965.22 115.541C962.764 115.383 960.887 113.346 960.852 110.927L959.454 110.838L958.983 119.96C958.973 120.153 959.123 120.323 959.317 120.334L965.079 120.699C965.853 120.748 966.446 121.424 966.397 122.197L966.04 127.797C966.255 127.833 966.506 127.869 966.739 127.899C967.194 127.954 969.569 128.236 969.833 128.267C969.974 128.285 970.099 128.298 970.243 128.31L971.01 116.262Z" fill="#27334C"/>
<path opacity="0.3" d="M1000.73 113.467C1000.39 115.863 998.268 117.644 995.811 117.489L990.346 117.141C990.152 117.128 989.983 117.279 989.97 117.47L989.205 129.518C989.351 129.526 989.479 129.527 989.621 129.53C989.888 129.532 992.279 129.55 992.739 129.555C992.972 129.556 993.226 129.549 993.445 129.542L993.798 123.99C993.847 123.216 994.519 122.624 995.294 122.671L1001.06 123.039C1001.25 123.051 1001.41 122.905 1001.43 122.717L1002.13 113.553L1000.73 113.467Z" fill="#27334C"/>
<path opacity="0.4" d="M1003.78 87.0036L961.175 84.2959C960.982 84.2822 960.832 84.1169 960.842 83.9219L959.455 110.841L960.853 110.93C960.887 113.349 962.764 115.386 965.221 115.543L970.682 115.891C970.876 115.904 971.023 116.074 971.012 116.264L970.251 128.235C970.377 128.245 970.519 128.256 970.704 128.268C971.05 128.291 977.802 128.718 979.529 128.829C979.529 128.829 979.679 128.837 979.933 128.853C981.662 128.962 988.412 129.393 988.757 129.414C988.94 129.425 989.081 129.431 989.208 129.438L989.969 117.469C989.981 117.277 990.151 117.126 990.345 117.139L995.81 117.487C998.267 117.642 1000.39 115.861 1000.73 113.465L1002.12 113.553L1004.15 86.682C1004.14 86.8736 1003.97 87.0162 1003.78 87.0036ZM965.871 113.233C965.858 113.428 965.735 113.58 965.597 113.571C965.459 113.562 965.346 113.554 965.346 113.554C963.798 113.456 962.612 112.109 962.71 110.563L963.9 91.8386L964.706 91.8899C965.265 91.9241 965.75 91.5581 965.781 91.0767C965.81 90.592 965.377 90.1653 964.817 90.1311L964.011 90.0798L964.069 89.1651C964.166 87.6207 965.514 86.4322 967.062 86.5303C967.062 86.5303 967.176 86.537 967.314 86.5461C967.452 86.5541 967.553 86.7195 967.542 86.9134L965.871 113.233ZM970.643 113.536C970.631 113.731 970.462 113.88 970.268 113.868L967.537 113.696C967.343 113.682 967.195 113.513 967.208 113.318L968.881 86.9992C968.894 86.8076 969.061 86.6569 969.255 86.6706L971.987 86.8438C972.181 86.8563 972.329 87.0241 972.318 87.2192L970.643 113.536ZM975.339 113.834C975.326 114.03 975.158 114.179 974.964 114.167L972.234 113.994C972.044 113.981 971.893 113.812 971.905 113.616L973.578 87.2991C973.59 87.1063 973.76 86.9546 973.953 86.9683L976.683 87.1418C976.875 87.1554 977.024 87.3229 977.012 87.5168L975.339 113.834ZM980.031 114.135C980.02 114.326 979.853 114.477 979.658 114.466L976.929 114.291C976.736 114.28 976.588 114.11 976.602 113.915L978.274 87.5979C978.286 87.404 978.454 87.2568 978.647 87.2671L981.376 87.4405C981.57 87.4542 981.716 87.6229 981.705 87.8134L980.031 114.135ZM984.728 114.431C984.716 114.626 984.547 114.777 984.353 114.763L981.625 114.592C981.431 114.577 981.284 114.409 981.295 114.215L982.968 87.8956C982.981 87.7028 983.149 87.5533 983.342 87.5681L986.071 87.7393C986.265 87.7519 986.414 87.9194 986.403 88.1133L984.728 114.431ZM989.424 114.729C989.413 114.924 989.244 115.074 989.05 115.062L986.321 114.888C986.129 114.876 985.979 114.705 985.992 114.51L987.664 88.1932C987.677 88.0016 987.845 87.8521 988.038 87.8647L990.768 88.0381C990.96 88.0495 991.109 88.2194 991.096 88.411L989.424 114.729ZM994.119 115.029C994.107 115.222 993.94 115.374 993.747 115.36L991.017 115.188C990.824 115.176 990.674 115.006 990.687 114.812L992.36 88.4931C992.372 88.2992 992.541 88.1509 992.735 88.1623L995.465 88.3358C995.657 88.3495 995.805 88.5171 995.793 88.7087L994.119 115.029ZM1000.23 92.3827L999.426 92.3312C998.866 92.2947 998.381 92.6621 998.351 93.1457C998.321 93.6293 998.754 94.0547 999.314 94.0878L1000.12 94.1404L998.931 112.865C998.833 114.412 997.487 115.598 995.937 115.501C995.937 115.501 995.824 115.492 995.687 115.485C995.549 115.475 995.445 115.307 995.458 115.116L997.13 88.7956C997.142 88.6028 997.267 88.4523 997.405 88.4614C997.542 88.4694 997.655 88.4773 997.655 88.4773C999.204 88.5754 1000.39 89.9225 1000.29 91.4669L1000.23 92.3827Z" fill="url(#paint13_linear)"/>
<path opacity="0.4" d="M1003.78 87.0407L961.175 84.3318C960.982 84.3193 960.832 84.154 960.842 83.959L959.455 110.878L960.853 110.966C960.887 113.386 962.764 115.423 965.221 115.579L970.682 115.927C970.876 115.941 971.023 116.11 971.012 116.301L970.251 128.271C970.377 128.282 970.519 128.294 970.704 128.304C971.05 128.327 977.802 128.755 979.529 128.865C979.529 128.865 979.679 128.875 979.933 128.89C981.662 129 988.412 129.43 988.757 129.451C988.94 129.464 989.081 129.468 989.208 129.474L989.969 117.506C989.981 117.314 990.151 117.164 990.345 117.178L995.81 117.525C998.267 117.68 1000.39 115.898 1000.73 113.502L1002.12 113.59L1004.15 86.7191C1004.14 86.9119 1003.97 87.0533 1003.78 87.0407ZM965.871 113.27C965.858 113.465 965.735 113.616 965.597 113.608C965.459 113.598 965.346 113.591 965.346 113.591C963.798 113.492 962.612 112.145 962.71 110.599L963.9 91.8746L964.706 91.927C965.265 91.96 965.75 91.5952 965.781 91.1127C965.81 90.6291 965.377 90.2024 964.817 90.1682L964.011 90.1158L964.069 89.2011C964.166 87.6567 965.514 86.4682 967.062 86.5662C967.062 86.5662 967.176 86.5732 967.314 86.5835C967.452 86.5904 967.553 86.7578 967.542 86.9505L965.871 113.27ZM970.643 113.574C970.631 113.769 970.462 113.918 970.268 113.905L967.537 113.733C967.343 113.72 967.195 113.55 967.208 113.356L968.881 87.0385C968.894 86.8446 969.061 86.6952 969.255 86.7077L971.987 86.8823C972.181 86.896 972.329 87.0624 972.318 87.2574L970.643 113.574ZM975.339 113.871C975.326 114.066 975.158 114.215 974.964 114.204L972.234 114.031C972.044 114.018 971.893 113.849 971.905 113.654L973.578 87.3362C973.59 87.1423 973.76 86.9928 973.953 87.0054L976.683 87.1778C976.875 87.1914 977.024 87.3589 977.012 87.5528L975.339 113.871ZM980.031 114.171C980.02 114.363 979.853 114.514 979.658 114.503L976.929 114.329C976.736 114.317 976.588 114.147 976.602 113.952L978.274 87.635C978.286 87.4411 978.454 87.2928 978.647 87.3031L981.376 87.4765C981.57 87.4914 981.716 87.6589 981.705 87.8505L980.031 114.171ZM984.728 114.469C984.716 114.664 984.547 114.814 984.353 114.8L981.625 114.628C981.431 114.615 981.284 114.445 981.295 114.251L982.968 87.9327C982.981 87.7399 983.149 87.5904 983.342 87.6041L986.071 87.7765C986.265 87.789 986.414 87.9579 986.403 88.1518L984.728 114.469ZM989.424 114.769C989.413 114.962 989.244 115.112 989.05 115.1L986.321 114.926C986.129 114.913 985.979 114.744 985.992 114.548L987.664 88.2315C987.677 88.0398 987.845 87.8904 988.038 87.9018L990.768 88.0752C990.96 88.0878 991.109 88.2579 991.096 88.4495L989.424 114.769ZM994.119 115.066C994.107 115.259 993.94 115.411 993.747 115.396L991.017 115.225C990.824 115.212 990.674 115.043 990.687 114.848L992.36 88.5303C992.372 88.3364 992.541 88.1871 992.735 88.2008L995.465 88.3718C995.657 88.3866 995.805 88.5533 995.793 88.7461L994.119 115.066ZM1000.23 92.4187L999.426 92.3683C998.866 92.3318 998.381 92.7004 998.351 93.1817C998.321 93.6653 998.754 94.0906 999.314 94.126L1000.12 94.1775L998.931 112.901C998.833 114.449 997.487 115.634 995.937 115.537C995.937 115.537 995.824 115.53 995.687 115.521C995.549 115.512 995.445 115.344 995.458 115.153L997.13 88.8316C997.142 88.6399 997.267 88.4894 997.405 88.4974C997.542 88.5054 997.655 88.5133 997.655 88.5133C999.204 88.6114 1000.39 89.9596 1000.29 91.5051L1000.23 92.4187Z" fill="url(#paint14_linear)"/>
<path opacity="0.5" d="M965.871 113.272C965.859 113.467 965.736 113.618 965.598 113.61C965.46 113.6 965.347 113.593 965.347 113.593C963.799 113.494 962.613 112.147 962.711 110.6L963.9 91.8765L964.707 91.9289C965.266 91.962 965.75 91.5971 965.781 91.1146C965.811 90.631 965.377 90.2043 964.817 90.1701L964.011 90.1177L964.069 89.203C964.166 87.6586 965.514 86.4701 967.062 86.5682C967.062 86.5682 967.176 86.5752 967.314 86.5854C967.452 86.5923 967.554 86.7597 967.542 86.9524L965.871 113.272ZM970.644 113.576C970.631 113.771 970.462 113.919 970.268 113.907L967.538 113.735C967.344 113.722 967.196 113.552 967.208 113.358L968.881 87.0404C968.894 86.8465 969.062 86.6971 969.255 86.7096L971.987 86.8842C972.181 86.8979 972.329 87.0643 972.318 87.2593L970.644 113.576ZM975.339 113.873C975.327 114.068 975.158 114.217 974.964 114.206L972.235 114.033C972.044 114.02 971.894 113.851 971.905 113.656L973.578 87.3381C973.591 87.1442 973.761 86.9948 973.954 87.0073L976.683 87.1797C976.876 87.1934 977.024 87.3609 977.013 87.5548L975.339 113.873ZM980.032 114.173C980.02 114.365 979.854 114.516 979.659 114.505L976.929 114.331C976.737 114.319 976.588 114.149 976.602 113.954L978.274 87.6369C978.287 87.443 978.454 87.2947 978.647 87.305L981.376 87.4785C981.57 87.4933 981.716 87.6608 981.705 87.8524L980.032 114.173ZM984.729 114.471C984.716 114.666 984.547 114.816 984.353 114.802L981.625 114.63C981.431 114.616 981.284 114.446 981.296 114.253L982.969 87.9346C982.981 87.7418 983.149 87.5923 983.343 87.606L986.071 87.7784C986.265 87.7909 986.415 87.9598 986.403 88.1537L984.729 114.471ZM989.425 114.77C989.413 114.964 989.244 115.114 989.05 115.102L986.321 114.928C986.129 114.915 985.98 114.746 985.992 114.55L987.665 88.2334C987.677 88.0418 987.846 87.8923 988.039 87.9037L990.768 88.0772C990.961 88.0897 991.109 88.2598 991.097 88.4514L989.425 114.77ZM994.119 115.068C994.108 115.261 993.94 115.413 993.747 115.398L991.018 115.227C990.824 115.214 990.675 115.045 990.687 114.85L992.36 88.5322C992.373 88.3383 992.542 88.1891 992.736 88.2027L995.465 88.3737C995.658 88.3886 995.805 88.5552 995.794 88.748L994.119 115.068ZM1000.23 92.4206L999.426 92.3702C998.866 92.3337 998.382 92.7023 998.352 93.1836C998.321 93.6672 998.755 94.0926 999.315 94.1279L1000.12 94.1794L998.931 112.903C998.833 114.451 997.487 115.636 995.937 115.539C995.937 115.539 995.824 115.532 995.687 115.523C995.549 115.514 995.446 115.346 995.458 115.155L997.13 88.8335C997.143 88.6418 997.267 88.4913 997.405 88.4993C997.542 88.5073 997.655 88.5152 997.655 88.5152C999.204 88.6133 1000.39 89.9615 1000.29 91.507L1000.23 92.4206Z" fill="url(#paint15_linear)"/>
<path d="M966.031 218.888C966.019 219.081 965.852 219.229 965.657 219.217L962.818 219.037C962.623 219.023 962.476 218.856 962.487 218.664L963.25 206.663C963.263 206.471 963.43 206.321 963.624 206.333L966.464 206.515C966.659 206.527 966.806 206.695 966.795 206.888L966.031 218.888Z" fill="#27334C"/>
<path d="M962.156 175.532C963.72 176.131 965.899 176.687 968.486 177.134C968.787 177.184 968.983 176.968 969.004 176.67L969.166 174.292L970.743 165.132C970.868 164.433 970.84 164.293 970.032 164.168C969.133 164.03 968.908 164.364 968.44 164.879L963.086 170.793C962.346 171.614 961.984 172.142 961.912 173.282L961.811 174.857C961.791 175.189 961.885 175.419 962.156 175.532Z" fill="#212A3F"/>
<path d="M962.164 174.828L967.883 174.366C968.076 174.351 968.244 174.18 968.256 173.987L968.863 164.434C968.726 164.554 968.597 164.705 968.441 164.88L963.087 170.793C962.347 171.614 961.984 172.142 961.912 173.282L961.835 174.506C961.821 174.699 961.972 174.842 962.164 174.828Z" fill="#27334C"/>
<path opacity="0.5" d="M972.878 203.951C972.104 203.812 971.146 203.679 971.146 203.679L966.048 203.354C965.856 203.342 965.688 203.49 965.674 203.684L965.52 206.103C965.508 206.296 965.656 206.462 965.85 206.474L973.746 206.974C973.939 206.987 974.109 206.842 974.12 206.649L974.217 205.122C974.261 204.457 973.629 204.085 972.878 203.951Z" fill="#27334C"/>
<path d="M979.526 139.427C979.333 139.43 979.121 139.427 979.057 139.425C978.991 139.422 978.782 139.394 978.59 139.369L977.557 139.227L976.803 164.587C976.794 164.78 976.777 165.096 976.765 165.29L976.565 175.924C976.56 176.118 976.627 176.28 976.714 176.283C976.8 176.288 976.886 176.14 976.907 175.945L978.052 165.37C978.066 165.177 978.088 164.861 978.103 164.667L980.568 139.418L979.526 139.427Z" fill="#212A3F"/>
<path d="M981.921 219.897C981.908 220.09 982.056 220.258 982.249 220.27L985.09 220.45C985.284 220.462 985.452 220.316 985.463 220.121L986.226 208.12C986.239 207.927 986.091 207.758 985.898 207.745L983.057 207.567C982.863 207.555 982.694 207.703 982.681 207.895L981.921 219.897Z" fill="#27334C"/>
<path d="M991.255 177.376C989.626 177.777 987.394 178.051 984.771 178.166C984.469 178.179 984.3 177.939 984.318 177.64L984.455 175.26L984.051 165.973C984.016 165.265 984.06 165.128 984.879 165.106C985.786 165.084 985.969 165.443 986.369 166.015L990.93 172.558C991.56 173.467 991.852 174.035 991.779 175.177L991.68 176.751C991.657 177.087 991.535 177.301 991.255 177.376Z" fill="#212A3F"/>
<path d="M991.331 176.683L985.717 175.501C985.527 175.46 985.382 175.272 985.393 175.078L986 165.525C986.121 165.661 986.23 165.825 986.364 166.019L990.925 172.562C991.555 173.471 991.847 174.039 991.774 175.18L991.696 176.404C991.685 176.597 991.519 176.72 991.331 176.683Z" fill="#27334C"/>
<path d="M959.815 185.536C962.169 187.034 968.459 188.395 975.913 188.868H975.915C983.371 189.343 989.78 188.791 992.306 187.6C992.822 187.379 992.941 186.706 992.973 186.184L993.11 184.026C993.077 184.55 992.959 185.223 992.441 185.445C989.917 186.632 983.507 187.183 976.051 186.708H976.049C968.594 186.235 962.305 184.877 959.951 183.379C959.465 183.092 959.435 182.409 959.468 181.885L959.331 184.041C959.299 184.568 959.329 185.249 959.815 185.536Z" fill="url(#paint16_linear)"/>
<g opacity="0.8">
<g opacity="0.8">
<path opacity="0.8" d="M974.938 188.794C972.613 188.621 970.416 188.361 968.438 188.037L968.369 189.115C968.345 189.501 968.63 189.898 969.005 189.994L970.041 190.263L969.651 196.396C969.625 196.783 969.915 197.178 970.29 197.273L973.965 198.205C974.342 198.299 974.669 198.064 974.693 197.677L975.125 190.883C975.129 190.822 975.139 190.65 975.153 190.433C975.173 190.112 975.202 189.668 975.234 189.172C975.245 188.992 975.113 188.831 974.938 188.794Z" fill="url(#paint17_linear)"/>
<path opacity="0.8" d="M976.896 188.918C976.718 188.933 976.566 189.076 976.556 189.258C976.524 189.755 976.496 190.197 976.475 190.519C976.461 190.736 976.451 190.908 976.446 190.97L976.015 197.761C975.991 198.149 976.284 198.425 976.669 198.378L980.434 197.918C980.818 197.871 981.153 197.518 981.178 197.131L981.567 190.998L982.627 190.864C983.011 190.813 983.347 190.456 983.371 190.069L983.44 188.993C981.436 189.062 979.225 189.042 976.896 188.918Z" fill="url(#paint18_linear)"/>
</g>
</g>
<path opacity="0.5" d="M977.018 204.216C977.804 204.176 978.772 204.164 978.772 204.164L983.868 204.488C984.061 204.502 984.211 204.669 984.198 204.863L984.044 207.281C984.033 207.474 983.864 207.62 983.67 207.609L975.774 207.105C975.579 207.092 975.432 206.928 975.444 206.734L975.541 205.208C975.583 204.545 976.256 204.255 977.018 204.216Z" fill="#27334C"/>
<path d="M942.865 110.113C942.477 110.089 942.17 110.386 942.183 110.774L942.524 123.025C942.533 123.412 942.379 123.999 942.178 124.332L938.234 130.875C938.037 131.207 938.143 131.642 938.475 131.84L944.659 135.572C944.991 135.773 945.426 135.663 945.627 135.332L950.681 126.946C950.881 126.615 951.067 126.026 951.092 125.638L952.023 111.397C952.048 111.014 951.751 110.676 951.364 110.653L942.865 110.113Z" fill="#212A3F"/>
<path opacity="0.5" d="M976.56 219.469C976.369 219.454 976.07 219.521 975.9 219.613L975.788 219.673C975.618 219.765 975.319 219.83 975.127 219.818L973.953 219.744L971.522 257.992L971.068 265.137L975.026 258.217L977.485 219.528L976.56 219.469Z" fill="white"/>
<path d="M981.796 207.491L967.728 206.596C967.534 206.584 967.366 206.732 967.354 206.926L966.618 218.487C966.605 218.681 966.755 218.849 966.949 218.86L971.403 219.145C971.595 219.156 971.882 219.26 972.039 219.37L972.142 219.444C972.3 219.557 972.587 219.659 972.778 219.671L975.128 219.82C975.321 219.833 975.618 219.768 975.789 219.676L975.901 219.615C976.071 219.524 976.37 219.457 976.562 219.472L981.017 219.754C981.211 219.765 981.378 219.619 981.391 219.425L982.127 207.865C982.137 207.672 981.99 207.503 981.796 207.491ZM977.416 216.032C977.308 217.745 975.829 219.059 974.132 218.951L973.879 218.935C972.182 218.827 970.884 217.335 970.992 215.623L971.245 211.623C971.355 209.912 972.831 208.601 974.529 208.706L974.782 208.723C976.479 208.831 977.779 210.322 977.67 212.032L977.416 216.032Z" fill="#27334C"/>
<path d="M974.938 188.794C972.613 188.621 970.416 188.361 968.438 188.037L968.369 189.115C968.345 189.501 968.63 189.898 969.005 189.994L974.399 191.395C974.776 191.491 975.102 191.261 975.125 190.884C975.135 190.734 975.18 190.004 975.234 189.173C975.245 188.992 975.113 188.831 974.938 188.794Z" fill="url(#paint19_linear)"/>
<path d="M976.893 188.918C979.222 189.041 981.434 189.062 983.437 188.991L983.367 190.066C983.343 190.453 983.009 190.811 982.624 190.861L977.098 191.568C976.712 191.611 976.419 191.346 976.443 190.969C976.452 190.818 976.499 190.089 976.552 189.257C976.564 189.076 976.715 188.933 976.893 188.918Z" fill="url(#paint20_linear)"/>
<path opacity="0.2" d="M972.779 219.659C972.586 219.645 972.3 219.545 972.141 219.434L972.039 219.357C971.88 219.244 971.594 219.143 971.401 219.132L970.479 219.072L970.475 219.087L968.016 257.774L971.067 265.141L971.521 257.996L973.951 219.748L973.948 219.733L972.779 219.659Z" fill="white"/>
<path d="M1058.94 248.839L1046.16 245.797L1021.58 224.867L997.489 231.316L986.903 253.462H981.183L975.951 265.387H1074.15L1058.94 248.839Z" fill="#212A3F"/>
<path d="M953.44 253.461L943.948 243.361H924.601L914.744 253.827H909.269L901.359 265.386H965.973L962.81 259.302L953.44 253.461Z" fill="#212A3F"/>
<path d="M1058.94 248.839L1031.56 255.288L1021.58 224.867L997.488 231.316L985.686 265.387H1074.15L1058.94 248.839Z" fill="#27334C"/>
<path d="M943.461 258.937L937.377 245.552L924.601 243.361L914.744 253.827H909.269L901.359 265.386H965.973L956.846 261.249L943.461 258.937Z" fill="#27334C"/>
<path d="M950.658 241.438L951.574 246.149L955.892 247.065L955.63 243.663L953.014 241.309L950.658 241.438Z" fill="#212A3F"/>
<path d="M950.658 241.44L951.574 246.152L952.36 243.142L955.63 243.663L953.014 241.309L950.658 241.44Z" fill="#27334C"/>
<path d="M956.803 250.265L963.62 257.405L964.92 246.369L961.348 242.473L958.751 245.556L956.803 250.265Z" fill="#212A3F"/>
<path d="M964.917 246.365L961.345 242.469L958.748 245.552L964.917 246.365Z" fill="#27334C"/>
</g>
<defs>
<linearGradient id="paint0_linear" x1="971.857" y1="188.254" x2="970.8" y2="204.905" gradientUnits="userSpaceOnUse">
<stop offset="0.6055" stop-color="#212A3F"/>
<stop offset="1" stop-color="#27334C"/>
</linearGradient>
<linearGradient id="paint1_linear" x1="980.018" y1="188.774" x2="978.96" y2="205.422" gradientUnits="userSpaceOnUse">
<stop offset="0.6055" stop-color="#212A3F"/>
<stop offset="1" stop-color="#27334C"/>
</linearGradient>
<linearGradient id="paint2_linear" x1="969.919" y1="133.449" x2="988.878" y2="134.654" gradientUnits="userSpaceOnUse">
<stop stop-color="#4B6696"/>
<stop offset="0.5" stop-color="#405684"/>
<stop offset="1" stop-color="#4B6696"/>
</linearGradient>
<linearGradient id="paint3_linear" x1="993.17" y1="133.538" x2="997.365" y2="133.804" gradientUnits="userSpaceOnUse">
<stop stop-color="#405684" stop-opacity="0.3"/>
<stop offset="1" stop-color="#4B6696"/>
</linearGradient>
<linearGradient id="paint4_linear" x1="988.956" y1="134.135" x2="993.134" y2="134.401" gradientUnits="userSpaceOnUse">
<stop stop-color="#405684" stop-opacity="0.3"/>
<stop offset="1" stop-color="#4B6696"/>
</linearGradient>
<linearGradient id="paint5_linear" x1="965.805" y1="131.799" x2="961.612" y2="131.532" gradientUnits="userSpaceOnUse">
<stop stop-color="#405684" stop-opacity="0.3"/>
<stop offset="1" stop-color="#4B6696"/>
</linearGradient>
<linearGradient id="paint6_linear" x1="969.911" y1="132.925" x2="965.732" y2="132.659" gradientUnits="userSpaceOnUse">
<stop stop-color="#405684" stop-opacity="0.3"/>
<stop offset="1" stop-color="#4B6696"/>
</linearGradient>
<linearGradient id="paint7_linear" x1="960.497" y1="168.554" x2="993.783" y2="170.668" gradientUnits="userSpaceOnUse">
<stop stop-color="#4B6696" stop-opacity="0"/>
<stop offset="0.5" stop-color="#4B6696" stop-opacity="0.7"/>
<stop offset="1" stop-color="#4B6696" stop-opacity="0"/>
</linearGradient>
<linearGradient id="paint8_linear" x1="964.913" y1="150.712" x2="991.674" y2="152.412" gradientUnits="userSpaceOnUse">
<stop stop-color="#4B6696" stop-opacity="0"/>
<stop offset="0.5" stop-color="#4B6696" stop-opacity="0.2"/>
<stop offset="1" stop-color="#4B6696" stop-opacity="0"/>
</linearGradient>
<linearGradient id="paint9_linear" x1="959.612" y1="179.673" x2="993.255" y2="181.81" gradientUnits="userSpaceOnUse">
<stop stop-color="#4B6696" stop-opacity="0"/>
<stop offset="0.5" stop-color="#4B6696" stop-opacity="0.2"/>
<stop offset="1" stop-color="#4B6696" stop-opacity="0"/>
</linearGradient>
<linearGradient id="paint10_linear" x1="923.783" y1="100.217" x2="924.164" y2="94.213" gradientUnits="userSpaceOnUse">
<stop stop-color="#4B6696" stop-opacity="0"/>
<stop offset="1" stop-color="#4B6696"/>
</linearGradient>
<linearGradient id="paint11_linear" x1="1038.85" y1="107.529" x2="1039.23" y2="101.523" gradientUnits="userSpaceOnUse">
<stop stop-color="#4B6696" stop-opacity="0"/>
<stop offset="1" stop-color="#4B6696"/>
</linearGradient>
<linearGradient id="paint12_linear" x1="974.949" y1="86.888" x2="1095.15" y2="203.442" gradientUnits="userSpaceOnUse">
<stop stop-color="#4B6696" stop-opacity="0"/>
<stop offset="1" stop-color="#4B6696" stop-opacity="0.7"/>
</linearGradient>
<linearGradient id="paint13_linear" x1="946" y1="128.042" x2="1003.46" y2="85.7528" gradientUnits="userSpaceOnUse">
<stop stop-color="white"/>
<stop offset="1" stop-color="#FFF064"/>
</linearGradient>
<linearGradient id="paint14_linear" x1="946" y1="128.078" x2="1003.46" y2="85.7891" gradientUnits="userSpaceOnUse">
<stop stop-color="white"/>
<stop offset="1" stop-color="#FFF064"/>
</linearGradient>
<linearGradient id="paint15_linear" x1="961.125" y1="74.8849" x2="1000.79" y2="125.826" gradientUnits="userSpaceOnUse">
<stop stop-color="#4B6696" stop-opacity="0.2"/>
<stop offset="1" stop-color="#27334C" stop-opacity="0.6"/>
</linearGradient>
<linearGradient id="paint16_linear" x1="959.281" y1="184.842" x2="992.924" y2="186.98" gradientUnits="userSpaceOnUse">
<stop stop-color="#4B6696" stop-opacity="0"/>
<stop offset="0.5" stop-color="#4B6696" stop-opacity="0.5"/>
<stop offset="1" stop-color="#4B6696" stop-opacity="0"/>
</linearGradient>
<linearGradient id="paint17_linear" x1="971.857" y1="188.254" x2="971.236" y2="198.043" gradientUnits="userSpaceOnUse">
<stop offset="0.3761" stop-color="#212A3F"/>
<stop offset="1" stop-color="#27334C"/>
</linearGradient>
<linearGradient id="paint18_linear" x1="980.018" y1="188.774" x2="979.396" y2="198.562" gradientUnits="userSpaceOnUse">
<stop offset="0.3761" stop-color="#212A3F"/>
<stop offset="1" stop-color="#27334C"/>
</linearGradient>
<linearGradient id="paint19_linear" x1="971.857" y1="188.254" x2="971.668" y2="191.234" gradientUnits="userSpaceOnUse">
<stop stop-color="#212A3F"/>
<stop offset="1" stop-color="#27334C"/>
</linearGradient>
<linearGradient id="paint20_linear" x1="980.016" y1="188.774" x2="979.827" y2="191.753" gradientUnits="userSpaceOnUse">
<stop stop-color="#212A3F"/>
<stop offset="1" stop-color="#27334C"/>
</linearGradient>
</defs>
</svg>
