<svg width="1210" height="880" viewBox="0 0 1210 880" fill="none" xmlns="http://www.w3.org/2000/svg">
<mask id="mask0" mask-type="alpha" maskUnits="userSpaceOnUse" x="0" y="0" width="1210" height="880">
<rect width="1210" height="880" fill="white"/>
</mask>
<g mask="url(#mask0)">
<path opacity="0.6" d="M1210 0H1175V880H1210V0Z" fill="#27334C"/>
<path opacity="0.5" d="M1210 880V191.577C1202.44 162.198 1190.68 134.144 1175 108.154V880H1210Z" fill="#212A3F"/>
<g opacity="0.5">
<path opacity="0.5" d="M1193.5 16.5273H1191.5V37.9973H1193.5V16.5273Z" fill="white"/>
</g>
<g opacity="0.5">
<path opacity="0.5" d="M1193.5 53.0254H1191.5V74.4963H1193.5V53.0254Z" fill="white"/>
</g>
<g opacity="0.5">
<path opacity="0.5" d="M1193.5 89.5254H1191.5V110.995H1193.5V89.5254Z" fill="white"/>
</g>
<g opacity="0.5">
<path opacity="0.5" d="M1193.5 126.023H1191.5V147.492H1193.5V126.023Z" fill="white"/>
</g>
<path opacity="0.3" d="M1210 0H1209V880H1210V0Z" fill="white"/>
<path opacity="0.3" d="M1176 0H1175V880H1176V0Z" fill="white"/>
<path d="M1175 270.875V880H1210V270.875C1210 189.173 1178.18 112.36 1120.41 54.5889C1098.3 32.4749 1073.39 14.18 1046.49 0H904.125C976.479 0 1044.5 28.1759 1095.66 79.3369C1146.82 130.498 1175 198.522 1175 270.875Z" fill="#334163"/>
<path opacity="0.1" d="M1175 270.875V880H1210V270.875C1210 189.173 1178.18 112.36 1120.41 54.5889C1098.3 32.4749 1073.39 14.18 1046.49 0H904.125C976.479 0 1044.5 28.1759 1095.66 79.3369C1146.82 130.498 1175 198.522 1175 270.875Z" fill="#27334C"/>
<path opacity="0.5" d="M1036.71 13.9539C1036.15 13.6759 1035.58 13.392 1035.01 13.105L1028.4 9.81592C1027.42 9.32892 1026.69 8.96587 1026.15 8.74487L1025.31 8.375L1024.5 10.2048L1025.37 10.5869C1025.87 10.7909 1026.57 11.137 1027.5 11.606L1034.11 14.895C1034.69 15.183 1035.26 15.4668 1035.83 15.7478C1037.63 16.6388 1039.33 17.48 1040.64 18.261L1043.57 19.8999L1044.55 18.156L1041.64 16.5288C1040.28 15.7218 1038.55 14.8639 1036.71 13.9539Z" fill="white"/>
<path opacity="0.5" d="M1061.31 28.1409L1057.56 25.7969L1056.5 27.4919L1060.25 29.8389C1061.79 30.7919 1063.69 31.9779 1065.49 33.2839L1074.31 39.4258L1075.45 37.7849L1066.65 31.6548C1064.81 30.3188 1062.87 29.1109 1061.31 28.1409Z" fill="white"/>
<path opacity="0.5" d="M1096.68 54.9451C1096.33 54.6431 1095.97 54.3391 1095.61 54.0261L1087.45 47.0312L1086.15 48.5513L1094.3 55.5391C1094.66 55.8521 1095.03 56.1622 1095.39 56.4692C1096.03 57.0192 1096.67 57.5602 1097.25 58.0972L1102.18 62.7803L1103.56 61.3311L1098.62 56.6392C1098.01 56.0742 1097.35 55.5131 1096.68 54.9451Z" fill="white"/>
<path opacity="0.5" d="M1118.92 76.9629C1118.36 76.3509 1117.82 75.779 1117.31 75.251C1117.04 74.97 1116.78 74.7009 1116.54 74.4399L1114.22 72.0078L1112.78 73.387L1115.09 75.814C1115.33 76.075 1115.59 76.3478 1115.87 76.6338C1116.36 77.1498 1116.9 77.7069 1117.42 78.2859L1126.41 88.6968C1126.75 89.1048 1126.94 89.3549 1126.95 89.3689L1128.56 88.1848C1128.56 88.1848 1128.35 87.8949 1127.93 87.4019L1118.92 76.9629Z" fill="white"/>
<path opacity="0.5" d="M1137.77 100.104L1136.14 101.256L1143.14 111.2L1148.13 119.025L1149.82 117.954L1145.37 110.929L1137.77 100.104Z" fill="white"/>
<path opacity="0.5" d="M1162.53 140.489C1162.08 139.624 1161.65 138.754 1161.23 137.913C1160.49 136.426 1159.78 135.02 1159.15 133.873L1157.49 130.951L1155.75 131.939L1157.4 134.852C1158.02 135.954 1158.71 137.339 1159.44 138.806C1159.86 139.653 1160.3 140.53 1160.74 141.394L1164.05 147.952L1165.41 151.019L1167.24 150.205L1165.85 147.095L1162.53 140.489Z" fill="white"/>
<path opacity="0.5" d="M1175.2 169.375C1174.9 168.604 1174.62 167.883 1174.37 167.223L1173.17 164.09L1171.3 164.809L1172.5 167.933C1172.75 168.592 1173.03 169.323 1173.34 170.103C1173.9 171.545 1174.54 173.179 1175.1 174.807L1178.47 185.013L1180.37 184.386L1177 174.168C1176.42 172.49 1175.77 170.834 1175.2 169.375Z" fill="white"/>
<path opacity="0.5" d="M1188.23 215.621C1188.11 214.907 1187.97 214.099 1187.78 213.273L1185.31 202.226C1184.89 200.235 1184.51 198.938 1184.49 198.883L1182.58 199.452C1182.58 199.465 1182.95 200.731 1183.36 202.649L1185.83 213.714C1186.01 214.485 1186.13 215.228 1186.25 215.945C1186.32 216.336 1186.38 216.71 1186.44 217.046L1187.02 220.357L1188.99 220.015L1188.41 216.691C1188.35 216.356 1188.29 215.996 1188.23 215.621Z" fill="white"/>
<path opacity="0.5" d="M1192.36 245.667C1192.32 245.196 1192.29 244.726 1192.25 244.258C1192.19 243.387 1192.13 242.528 1192.04 241.693L1191.21 234.941L1189.23 235.185L1190.06 241.92C1190.14 242.717 1190.2 243.551 1190.26 244.398C1190.29 244.873 1190.32 245.35 1190.36 245.821L1191.15 256.54L1193.14 256.394L1192.36 245.667Z" fill="white"/>
<path opacity="0.5" d="M1193.5 271.508H1191.5V293.002H1193.5V271.508Z" fill="white"/>
<path opacity="0.5" d="M1193.5 308.049H1191.5V329.543H1193.5V308.049Z" fill="white"/>
<path opacity="0.5" d="M1193.5 344.59H1191.5V366.084H1193.5V344.59Z" fill="white"/>
<path opacity="0.5" d="M1193.5 381.131H1191.5V402.625H1193.5V381.131Z" fill="white"/>
<path opacity="0.5" d="M1193.5 417.672H1191.5V439.166H1193.5V417.672Z" fill="white"/>
<path opacity="0.5" d="M1193.5 454.213H1191.5V475.707H1193.5V454.213Z" fill="white"/>
<path opacity="0.5" d="M1193.5 673.479H1191.5V694.972H1193.5V673.479Z" fill="white"/>
<path opacity="0.5" d="M1193.5 490.754H1191.5V512.248H1193.5V490.754Z" fill="white"/>
<path opacity="0.5" d="M1193.5 710.02H1191.5V731.513H1193.5V710.02Z" fill="white"/>
<path opacity="0.5" d="M1193.5 527.295H1191.5V548.789H1193.5V527.295Z" fill="white"/>
<path opacity="0.5" d="M1193.5 746.561H1191.5V768.054H1193.5V746.561Z" fill="white"/>
<path opacity="0.5" d="M1193.5 563.836H1191.5V585.33H1193.5V563.836Z" fill="white"/>
<path opacity="0.5" d="M1193.5 783.102H1191.5V804.595H1193.5V783.102Z" fill="white"/>
<path opacity="0.5" d="M1193.5 600.377H1191.5V621.871H1193.5V600.377Z" fill="white"/>
<path opacity="0.5" d="M1193.5 819.643H1191.5V841.136H1193.5V819.643Z" fill="white"/>
<path opacity="0.5" d="M1193.5 636.918H1191.5V658.412H1193.5V636.918Z" fill="white"/>
<path opacity="0.5" d="M1193.5 856.184H1191.5V877.677H1193.5V856.184Z" fill="white"/>
<path opacity="0.5" d="M999.365 0C999.804 0.15 1000.25 0.302984 1000.68 0.458984L1010.72 4.29785L1011.43 2.43091L1005.08 0H999.365Z" fill="white"/>
<path opacity="0.3" d="M1175 270.875V880H1176V270.875C1176 198.254 1147.72 129.98 1096.37 78.6299C1050.56 32.8229 991.287 5.393 927.475 0H904.123C976.477 0 1044.5 28.1759 1095.66 79.3369C1146.82 130.498 1175 198.522 1175 270.875Z" fill="white"/>
<path opacity="0.3" d="M1209 270.875V880H1210V270.875C1210 189.173 1178.18 112.36 1120.41 54.5889C1098.3 32.4749 1073.38 14.18 1046.48 0H1044.31C1071.78 14.254 1097.19 32.7889 1119.7 55.2959C1177.29 112.879 1209 189.44 1209 270.875Z" fill="white"/>
<path d="M838.321 265.383C839.732 264.439 841.157 263.504 842.589 262.644C854.692 255.377 869.312 256.58 880.022 265.383H882.845C871.413 254.78 855.06 252.977 841.629 261.043C839.369 262.399 837.137 263.915 834.975 265.383H838.321Z" fill="#2C3855"/>
<path d="M920.935 250.817C921.496 255.184 920.795 260.621 918.717 265.383H920.723C922.71 260.466 923.357 255.006 922.786 250.578C922.149 245.625 920.481 240.757 918.866 236.051C916.291 228.534 913.858 221.435 915.108 213.81C916.405 205.891 920.308 198.669 924.082 191.684C925.13 189.742 926.217 187.733 927.228 185.74C932.932 174.509 934.044 164.928 933.96 153.994C933.911 147.557 938.189 140.49 942.225 134.131L940.627 133.166C936.459 139.734 932.04 147.053 932.094 154.009C932.176 164.669 931.097 173.999 925.564 184.895C924.563 186.865 923.484 188.863 922.44 190.796C918.592 197.916 914.614 205.28 913.266 213.507C911.94 221.596 914.564 229.253 917.102 236.655C918.685 241.275 920.322 246.052 920.935 250.817Z" fill="#2C3855"/>
<path d="M996.982 129.22C996.421 129.27 994.103 129.476 993.919 129.495C993.734 129.515 993.192 129.537 992.733 129.532C992.274 129.528 989.883 129.509 989.617 129.508C989.353 129.506 989.145 129.501 988.748 129.476C988.405 129.454 981.654 129.026 979.926 128.918C979.67 128.9 979.522 128.891 979.522 128.891C977.793 128.782 971.042 128.352 970.696 128.33C970.302 128.306 970.097 128.284 969.833 128.253C969.568 128.222 967.195 127.939 966.738 127.883C966.282 127.827 965.748 127.738 965.568 127.696C965.387 127.654 963.112 127.154 962.565 127.034C962.016 126.913 961.918 126.682 961.933 126.449L961.359 135.473C961.347 135.664 961.488 135.865 961.678 135.913L965.461 136.882L965.48 136.883C965.493 137.058 965.616 137.214 965.791 137.241L965.97 137.269L965.53 163.312C965.53 163.312 960.228 169.917 960.065 172.495L959.33 184.039C959.296 184.563 959.327 185.246 959.813 185.533C961.091 186.345 963.54 187.119 966.698 187.732L968.87 201.499C969.156 203.219 968.097 203.472 967.22 203.416L966.046 203.344C965.853 203.331 965.686 203.48 965.673 203.672L965.519 206.091C965.506 206.285 965.655 206.451 965.849 206.463L963.623 206.321C963.428 206.307 963.262 206.458 963.249 206.652L962.486 218.652C962.474 218.846 962.621 219.013 962.816 219.023L965.655 219.205C965.851 219.219 966.017 219.071 966.03 218.876L966.121 217.45L966.678 217.485L966.615 218.472C966.603 218.667 966.752 218.834 966.946 218.847L971.4 219.129C971.593 219.141 971.879 219.243 972.038 219.355L972.14 219.431C972.299 219.543 972.585 219.643 972.778 219.656L975.127 219.805C975.319 219.818 975.618 219.753 975.788 219.662L975.9 219.6C976.071 219.509 976.369 219.441 976.56 219.455L981.015 219.738C981.209 219.753 981.377 219.603 981.389 219.408L981.452 218.422L982.01 218.457L981.918 219.884C981.906 220.077 982.055 220.243 982.248 220.257L985.09 220.437C985.283 220.451 985.451 220.304 985.463 220.108L986.225 208.109C986.238 207.915 986.09 207.747 985.897 207.737L983.669 207.593C983.863 207.606 984.031 207.458 984.043 207.267L984.197 204.847C984.21 204.654 984.06 204.486 983.868 204.474L982.695 204.399C981.818 204.345 980.796 203.957 981.3 202.286L985.198 188.907C988.408 188.699 990.934 188.243 992.306 187.596C992.824 187.375 992.941 186.702 992.973 186.177L993.708 174.632C993.872 172.054 989.447 164.83 989.447 164.83L992.31 138.942L992.492 138.939C992.668 138.933 992.81 138.795 992.845 138.621L992.865 138.623L996.74 138.142C996.932 138.119 997.1 137.938 997.112 137.747L997.686 128.721C997.669 128.953 997.54 129.169 996.982 129.22Z" fill="#212A3F"/>
<path d="M974.936 188.794C972.611 188.621 970.414 188.361 968.436 188.037L968.367 189.115C968.343 189.501 968.628 189.898 969.003 189.994L970.039 190.261L969.649 196.396C969.624 196.783 969.913 197.178 970.289 197.273L970.851 197.415L970.509 202.796C970.485 203.182 970.771 203.581 971.145 203.678C971.145 203.678 972.103 203.81 972.878 203.949C973.628 204.084 974.26 204.456 974.219 205.121L975.233 189.172C975.243 188.992 975.111 188.831 974.936 188.794Z" fill="url(#paint0_linear)"/>
<path d="M976.893 188.918C976.715 188.933 976.563 189.076 976.553 189.258L975.539 205.206C975.581 204.542 976.254 204.252 977.016 204.214C977.802 204.174 978.77 204.162 978.77 204.162C979.154 204.114 979.489 203.756 979.513 203.37L979.855 197.989L980.431 197.917C980.815 197.87 981.151 197.517 981.176 197.13L981.566 190.997L982.624 190.862C983.009 190.812 983.344 190.454 983.368 190.067L983.438 188.992C981.434 189.062 979.222 189.042 976.893 188.918Z" fill="url(#paint1_linear)"/>
<path d="M969.976 138.051L978.599 139.225C978.791 139.251 979.001 139.275 979.066 139.278C979.129 139.283 979.34 139.286 979.534 139.285L988.236 139.212C988.428 139.21 988.596 139.048 988.609 138.855L989.208 129.429C989.081 129.422 988.94 129.418 988.756 129.406C988.412 129.382 981.66 128.953 979.932 128.844C979.678 128.829 979.529 128.819 979.529 128.819C977.799 128.708 971.048 128.282 970.703 128.258C970.518 128.246 970.377 128.235 970.25 128.225L969.651 137.651C969.639 137.843 969.785 138.023 969.976 138.051Z" fill="url(#paint2_linear)"/>
<path opacity="0.8" d="M996.985 129.221C996.424 129.272 994.106 129.478 993.921 129.496C993.83 129.508 993.653 129.517 993.442 129.521L992.872 138.505L992.846 138.621L992.865 138.622L996.741 138.142C996.932 138.118 997.1 137.938 997.113 137.746L997.686 128.721C997.672 128.955 997.543 129.171 996.985 129.221Z" fill="url(#paint3_linear)"/>
<path d="M992.735 129.533C992.275 129.528 989.884 129.51 989.619 129.509C989.492 129.507 989.376 129.507 989.249 129.5L988.645 139.013L992.491 138.938C992.667 138.933 992.809 138.794 992.844 138.621L992.869 138.507L993.44 129.524H993.441C993.224 129.529 992.969 129.535 992.735 129.533Z" fill="url(#paint4_linear)"/>
<path opacity="0.8" d="M962.566 127.034C963.114 127.154 965.388 127.654 965.569 127.696C965.658 127.715 965.832 127.748 966.041 127.78L965.47 136.766L965.481 136.883L965.462 136.882L961.678 135.913C961.49 135.865 961.348 135.664 961.36 135.473L961.934 126.449C961.918 126.682 962.019 126.912 962.566 127.034Z" fill="url(#paint5_linear)"/>
<path d="M966.741 127.883C967.198 127.939 969.571 128.222 969.836 128.253C969.96 128.268 970.076 128.281 970.203 128.29L969.598 137.803L965.792 137.242C965.617 137.215 965.493 137.058 965.481 136.884L965.471 136.769L966.041 127.783H966.04C966.257 127.817 966.509 127.855 966.741 127.883Z" fill="url(#paint6_linear)"/>
<path d="M993.59 173.66C992.921 170.577 989.443 164.894 989.443 164.894L989.449 164.841H989.448C989.327 164.857 989.192 164.867 989.068 164.883C986.114 165.233 982.284 165.328 978.076 165.094L976.778 165.011C972.576 164.712 968.788 164.131 965.902 163.412C965.779 163.381 965.648 163.352 965.53 163.32H965.529L965.527 163.375C965.527 163.375 961.361 168.572 960.305 171.542L960.306 171.545C960.707 171.864 961.299 172.187 962.051 172.494L969.173 174.298C971.4 174.666 973.913 174.954 976.573 175.129L976.998 175.156C979.662 175.322 982.187 175.352 984.445 175.269L991.737 174.383C992.523 174.172 993.151 173.929 993.59 173.66Z" fill="url(#paint7_linear)"/>
<path d="M965.974 137.241L965.536 163.287C965.536 163.287 965.513 163.312 965.475 163.362L965.527 163.392C965.646 163.421 965.776 163.45 965.9 163.481C968.786 164.203 972.575 164.782 976.778 165.08L978.074 165.163C982.28 165.398 986.11 165.302 989.065 164.952C989.191 164.937 989.323 164.927 989.445 164.91L989.525 164.927C989.481 164.855 989.451 164.806 989.451 164.806L992.315 138.916L992.496 138.914C992.51 138.911 992.519 138.899 992.532 138.897C992.521 138.869 992.511 138.849 992.5 138.85L988.653 138.924L988.617 138.764C988.605 138.959 988.437 139.119 988.244 139.121L979.543 139.194C979.35 139.194 979.138 139.194 979.074 139.19C979.008 139.185 978.799 139.161 978.606 139.134L969.984 137.96C969.793 137.935 969.646 137.754 969.658 137.559L969.605 137.713L965.799 137.15C965.791 137.15 965.78 137.174 965.77 137.201C965.78 137.203 965.785 137.213 965.795 137.215L965.974 137.241Z" fill="url(#paint8_linear)"/>
<path d="M993.587 173.729C993.148 173.997 992.519 174.239 991.733 174.451L984.442 175.337C982.184 175.422 979.659 175.39 976.996 175.224L976.571 175.198C973.91 175.026 971.399 174.735 969.17 174.368L962.049 172.563C961.299 172.255 960.706 171.935 960.304 171.612L960.271 171.586C960.164 171.911 960.085 172.213 960.069 172.468L959.336 184.013C959.302 184.536 959.334 185.218 959.818 185.506C962.172 187.005 968.462 188.365 975.917 188.84H975.919C983.375 189.313 989.784 188.76 992.309 187.571C992.827 187.349 992.945 186.677 992.978 186.152L993.712 174.607C993.728 174.354 993.689 174.047 993.626 173.715L993.587 173.729Z" fill="url(#paint9_linear)"/>
<path opacity="0.8" d="M953.39 121.047C953.482 122.409 954.04 122.855 955.155 122.925L957.089 123.047L960.723 123.278C961.499 123.327 962.091 124 962.043 124.775L961.935 126.447C961.919 126.68 962.019 126.91 962.567 127.032C963.115 127.152 965.389 127.652 965.57 127.694C965.751 127.736 966.284 127.825 966.741 127.881C967.197 127.936 969.57 128.219 969.835 128.25C970.099 128.282 970.304 128.304 970.699 128.328C971.045 128.351 977.796 128.779 979.524 128.889C979.524 128.889 979.674 128.899 979.928 128.915C981.656 129.025 988.407 129.452 988.751 129.474C989.148 129.499 989.354 129.504 989.62 129.506C989.886 129.508 992.277 129.527 992.736 129.53C993.194 129.534 993.736 129.512 993.921 129.492C994.106 129.473 996.423 129.268 996.985 129.217C997.542 129.166 997.671 128.951 997.686 128.718L997.792 127.047C997.841 126.272 998.514 125.682 999.286 125.728L1002.92 125.96L1004.85 126.083C1005.97 126.154 1006.58 125.782 1006.84 124.443C1006.95 123.886 1008.09 114.652 1008.91 104.022C1009.87 91.4981 1010.89 73.0947 1010.89 73.0947C1010.9 72.8996 1010.8 72.6225 1010.67 72.4776L1008.61 70.143C1008.48 70.0004 1008.21 69.867 1008.02 69.8556L1002.57 69.5086L964.588 67.0952L959.132 66.7474C958.94 66.7337 958.663 66.8318 958.515 66.9596L956.169 69.0116C956.024 69.1404 955.893 69.4038 955.879 69.5977C955.879 69.5977 954.557 87.9805 953.93 100.529C953.398 111.177 953.355 120.482 953.39 121.047Z" fill="#FFA037"/>
<path d="M938.788 95.5049L938.166 105.29C938.651 105.321 940.893 105.441 940.796 106.977L941.611 94.1602C941.512 95.7 939.271 95.5368 938.788 95.5049Z" fill="#212A3F"/>
<path d="M938.462 95.1224L926.229 94.3458C924.031 94.2055 913.168 93.4001 911.245 94.9227C909.323 96.4489 908.041 101.811 909.857 103.807C911.672 105.807 913.458 105.48 914.7 104.909C915.942 104.343 937.797 105.583 937.797 105.583C937.99 105.595 938.157 105.449 938.17 105.257L938.79 95.4953C938.803 95.3014 938.656 95.135 938.462 95.1224Z" fill="#27334C"/>
<path opacity="0.7" d="M956.616 119.892C956.752 120.03 956.873 119.984 956.884 119.791L957.036 117.415C957.049 117.219 956.902 117.052 956.708 117.04L953.995 116.868C953.801 116.855 953.755 116.961 953.889 117.098L956.616 119.892Z" fill="#334163"/>
<path opacity="0.8" d="M953.934 100.532C954.058 98.0268 954.211 95.2929 954.375 92.519C954.399 92.1324 954.075 91.8062 953.687 91.7822L943.218 91.1161C942.446 91.0671 941.77 91.6602 941.723 92.4324L940.696 108.564C940.648 109.337 941.241 110.012 942.013 110.061L952.833 110.749C953.221 110.773 953.532 110.477 953.557 110.088V110.08C953.643 107.195 953.763 103.932 953.934 100.532Z" fill="#4B6696"/>
<path opacity="0.8" d="M952.832 110.745C953.219 110.769 953.531 110.473 953.556 110.084V110.075C953.64 107.192 953.76 103.928 953.931 100.529C954.056 98.0239 954.208 95.29 954.373 92.5161C954.397 92.1294 954.073 91.8032 953.685 91.7793L951.376 91.6309L950.172 110.575L952.832 110.745Z" fill="#27334C"/>
<path d="M926.227 94.3449L937.51 95.0622C937.568 94.1247 937.123 93.7392 936.196 93.4335V93.429C932.537 92.3512 922.273 90.2501 922.273 90.2501C921.893 90.168 921.511 90.4167 921.423 90.7942L920.668 94.0506C923.148 94.1304 925.361 94.289 926.227 94.3449Z" fill="#212A3F"/>
<path d="M1024.56 100.959L1023.94 110.743C1023.45 110.715 1021.22 110.546 1021.12 112.086L1021.93 99.2676C1021.83 100.807 1024.08 100.928 1024.56 100.959Z" fill="#212A3F"/>
<path d="M1024.94 100.616L1037.17 101.393C1039.37 101.534 1050.25 102.109 1051.96 103.865C1053.67 105.622 1054.26 111.103 1052.21 112.853C1050.16 114.609 1048.43 114.057 1047.27 113.334C1046.11 112.612 1024.27 111.077 1024.27 111.077C1024.08 111.066 1023.93 110.899 1023.94 110.706L1024.56 100.947C1024.57 100.752 1024.74 100.605 1024.94 100.616Z" fill="#27334C"/>
<path opacity="0.3" d="M938.468 95.0137L926.235 94.2357C924.037 94.0965 913.173 93.2902 911.251 94.8141C909.329 96.3402 908.047 101.702 909.863 103.698C911.677 105.699 913.464 105.371 914.706 104.802C915.948 104.234 937.803 105.475 937.803 105.475C937.996 105.488 938.163 105.341 938.176 105.148L938.795 95.3877C938.809 95.1961 938.661 95.0263 938.468 95.0137Z" fill="#212A3F"/>
<path opacity="0.3" d="M1024.94 100.511L1037.18 101.289C1039.37 101.429 1050.25 102.005 1051.97 103.76C1053.68 105.516 1054.27 110.999 1052.22 112.747C1050.16 114.503 1048.43 113.953 1047.27 113.229C1046.11 112.508 1024.28 110.972 1024.28 110.972C1024.08 110.959 1023.93 110.793 1023.95 110.599L1024.57 100.839C1024.58 100.647 1024.75 100.498 1024.94 100.511Z" fill="#212A3F"/>
<path opacity="0.7" d="M1003.79 122.89C1003.64 123.009 1003.52 122.949 1003.54 122.757L1003.69 120.379C1003.7 120.185 1003.87 120.037 1004.06 120.05L1006.77 120.222C1006.97 120.234 1007 120.344 1006.85 120.466L1003.79 122.89Z" fill="#334163"/>
<path opacity="0.8" d="M1008.91 104.024C1009.1 101.525 1009.29 98.7918 1009.48 96.0213C1009.51 95.6335 1009.87 95.3505 1010.26 95.3745L1020.73 96.0419C1021.5 96.0887 1022.09 96.7637 1022.04 97.537L1021.02 113.67C1020.97 114.442 1020.3 115.035 1019.52 114.987L1008.7 114.298C1008.32 114.274 1008.04 113.941 1008.07 113.553L1008.07 113.545C1008.35 110.67 1008.65 107.418 1008.91 104.024Z" fill="#4B6696"/>
<path opacity="0.8" d="M1008.7 114.295C1008.31 114.271 1008.04 113.938 1008.06 113.55L1008.06 113.542C1008.35 110.668 1008.64 107.417 1008.9 104.022C1009.09 101.523 1009.29 98.7899 1009.48 96.0194C1009.5 95.6316 1009.87 95.3486 1010.25 95.3725L1012.56 95.5209L1011.36 114.464L1008.7 114.295Z" fill="#27334C"/>
<path opacity="0.1" d="M938.46 95.1224L926.227 94.3458C924.029 94.2055 913.166 93.4001 911.243 94.9227C910.265 95.7006 909.456 97.4696 909.133 99.2855C913.223 97.9236 922.701 98.4699 938.533 99.4988L938.788 95.4953C938.801 95.3014 938.654 95.135 938.46 95.1224Z" fill="url(#paint10_linear)"/>
<path opacity="0.1" d="M1024.94 100.616C1024.74 100.604 1024.57 100.751 1024.56 100.945L1024.31 104.947C1040.14 105.933 1049.61 106.59 1053.5 108.46C1053.41 106.618 1052.83 104.759 1051.96 103.865C1050.25 102.109 1039.37 101.534 1037.17 101.394L1024.94 100.616Z" fill="url(#paint11_linear)"/>
<path d="M1010.79 74.7084H1010.79C1010.78 74.9 1010.64 75.168 1010.49 75.2946L1010.48 75.3004C1010.34 75.427 1010.11 75.4155 1009.99 75.2684L1008.49 73.5736C1008.36 73.4277 1008.09 73.301 1007.9 73.2885L1006.96 73.2245C1006.76 73.2108 1006.62 73.0432 1006.63 72.8505L1006.7 71.7441C1006.71 71.5525 1006.88 71.403 1007.07 71.4167L1009.46 71.5673C1009.51 71.5707 1009.69 71.591 1009.91 71.6241L1008.6 70.1449C1008.48 70.0023 1008.21 69.8689 1008.02 69.8575L1005.07 69.6704L1005.08 69.6921C1005.28 69.7024 1005.42 69.8711 1005.41 70.065L1004.15 86.7461C1004.13 86.9355 1003.96 87.0792 1003.77 87.0666L961.168 84.3577C960.975 84.3452 960.823 84.1799 960.834 83.9849L961.695 67.2843C961.705 67.0904 961.87 66.9443 962.064 66.9546L962.075 66.9353L959.13 66.7493C958.938 66.7356 958.661 66.8338 958.513 66.9615L957.027 68.2605C957.25 68.2583 957.431 68.2607 957.488 68.2642L959.874 68.417C960.066 68.4285 960.214 68.5983 960.203 68.7899L960.132 69.8951C960.12 70.0879 959.952 70.2374 959.759 70.2248L958.814 70.1678C958.621 70.1552 958.343 70.25 958.198 70.3777L956.495 71.8706C956.348 71.9972 956.123 71.9836 955.995 71.8399L955.991 71.8319C955.862 71.6881 955.75 71.4053 955.763 71.2114H955.761C955.537 74.4062 955.018 81.9205 954.543 89.6377C954.557 89.4472 954.671 89.1859 954.816 89.0593L955.034 88.8655C955.181 88.7366 955.457 88.6431 955.651 88.6533L958.494 88.8357C958.687 88.8471 958.835 89.0158 958.824 89.2086L958.608 92.6064C958.596 92.8026 958.428 92.9487 958.234 92.935L955.392 92.7559C955.197 92.7423 954.934 92.6145 954.806 92.4697L954.614 92.2483C954.485 92.1034 954.412 91.8287 954.424 91.6371C954.239 94.7121 954.067 97.7607 953.928 100.531C953.619 106.713 953.475 112.428 953.414 116.256C953.412 116.453 953.516 116.723 953.652 116.863L956.65 119.932C956.787 120.068 957.055 120.194 957.248 120.204L958.601 120.291C958.795 120.304 958.963 120.155 958.973 119.96L958.77 123.155L960.718 123.279C961.494 123.328 962.086 124.001 962.038 124.776L961.931 126.448C961.915 126.681 962.014 126.911 962.563 127.033C963.11 127.153 965.385 127.652 965.566 127.695C965.746 127.737 966.28 127.826 966.736 127.881C967.192 127.937 969.566 128.22 969.831 128.251C970.094 128.283 970.299 128.305 970.694 128.329C971.041 128.351 977.792 128.78 979.52 128.89C979.52 128.89 979.669 128.9 979.924 128.916C981.652 129.026 988.403 129.453 988.746 129.475C989.143 129.5 989.35 129.505 989.615 129.507C989.881 129.509 992.273 129.527 992.731 129.531C993.19 129.535 993.732 129.513 993.916 129.493C994.101 129.474 996.419 129.269 996.98 129.218C997.538 129.167 997.667 128.951 997.681 128.719L997.788 127.048C997.837 126.273 998.51 125.682 999.282 125.729L1001.23 125.854L1001.43 122.66C1001.42 122.853 1001.57 123.021 1001.76 123.033L1003.11 123.12C1003.31 123.132 1003.59 123.043 1003.74 122.922L1007.1 120.258C1007.26 120.137 1007.4 119.88 1007.42 119.684L1007.42 119.685C1007.85 115.88 1008.42 110.193 1008.9 104.021C1009.11 101.259 1009.33 98.2115 1009.54 95.1388C1009.52 95.3304 1009.41 95.5925 1009.27 95.7191L1009.05 95.9165C1008.9 96.042 1008.63 96.1378 1008.43 96.1276L1005.59 95.9449C1005.4 95.9335 1005.25 95.766 1005.26 95.5709L1005.48 92.1731C1005.49 91.9792 1005.66 91.8297 1005.85 91.8434L1008.7 92.0236C1008.89 92.035 1009.15 92.1653 1009.28 92.3101L1009.47 92.5312C1009.6 92.6738 1009.68 92.9511 1009.67 93.1438H1009.67C1010.18 85.4277 1010.61 77.9043 1010.79 74.7084Z" fill="#FFAA4C"/>
<path d="M1010.79 74.7668H1010.79C1010.78 74.9573 1010.64 75.2264 1010.49 75.3519L1010.48 75.3588C1010.34 75.4843 1010.11 75.4739 1009.99 75.3279L1008.49 73.6329C1008.36 73.4858 1008.09 73.3592 1007.9 73.3477L1006.96 73.2829C1006.76 73.2692 1006.62 73.1016 1006.63 72.91L1006.7 71.8034C1006.71 71.6095 1006.88 71.4614 1007.07 71.4751L1009.46 71.6254C1009.51 71.63 1009.69 71.6495 1009.91 71.6814L1008.6 70.2033C1008.48 70.0608 1008.21 69.9271 1008.02 69.9146L1005.07 69.7288L1005.08 69.7505C1005.28 69.762 1005.42 69.9307 1005.41 70.1223L1004.15 86.8056C1004.13 86.9938 1003.96 87.1376 1003.77 87.125L961.168 84.4161C960.975 84.4047 960.823 84.2395 960.834 84.0433L961.695 67.3438C961.705 67.1487 961.87 67.0015 962.064 67.0141L962.075 66.9937L959.13 66.8077C958.938 66.7952 958.661 66.8922 958.513 67.0199L957.027 68.3201C957.25 68.3178 957.431 68.32 957.488 68.3223L959.874 68.4741C960.066 68.4866 960.214 68.6567 960.203 68.8483L960.132 69.9535C960.12 70.1474 959.952 70.2967 959.759 70.283L958.814 70.2273C958.621 70.2136 958.343 70.307 958.198 70.4358L956.495 71.9301C956.348 72.0567 956.123 72.0418 955.995 71.8969L955.991 71.8903C955.862 71.7477 955.75 71.4637 955.763 71.271H955.761C955.537 74.4646 955.018 81.9797 954.543 89.6958C954.557 89.5053 954.671 89.2443 954.816 89.1177L955.034 88.9236C955.181 88.7959 955.457 88.7003 955.651 88.7117L958.494 88.8941C958.687 88.9055 958.835 89.0731 958.824 89.267L958.608 92.6659C958.596 92.8598 958.428 93.0071 958.234 92.9945L955.392 92.8143C955.197 92.7995 954.934 92.673 954.806 92.527L954.614 92.3067C954.485 92.1619 954.412 91.8871 954.424 91.6955C954.239 94.7694 954.067 97.8203 953.928 100.59C953.619 106.772 953.475 112.486 953.414 116.314C953.412 116.511 953.516 116.782 953.652 116.922L956.65 119.99C956.787 120.127 957.055 120.252 957.248 120.263L958.601 120.349C958.795 120.363 958.963 120.215 958.973 120.02L958.77 123.215L960.718 123.337C961.494 123.387 962.086 124.061 962.038 124.834L961.931 126.505C961.915 126.74 962.014 126.969 962.563 127.092C963.11 127.211 965.385 127.711 965.566 127.753C965.746 127.795 966.28 127.883 966.736 127.941C967.192 127.995 969.566 128.277 969.831 128.309C970.094 128.341 970.299 128.363 970.694 128.386C971.041 128.41 977.792 128.838 979.52 128.947C979.52 128.947 979.669 128.958 979.924 128.973C981.652 129.083 988.403 129.512 988.746 129.532C989.143 129.558 989.35 129.563 989.615 129.565C989.881 129.568 992.273 129.587 992.731 129.59C993.19 129.593 993.732 129.572 993.916 129.553C994.101 129.532 996.419 129.326 996.98 129.277C997.538 129.225 997.667 129.01 997.681 128.777L997.788 127.106C997.837 126.332 998.51 125.741 999.282 125.789L1001.23 125.912L1001.43 122.718C1001.42 122.911 1001.57 123.08 1001.76 123.092L1003.11 123.179C1003.31 123.191 1003.59 123.102 1003.74 122.982L1007.1 120.316C1007.26 120.197 1007.4 119.94 1007.42 119.744H1007.42C1007.85 115.939 1008.42 110.25 1008.9 104.081C1009.11 101.319 1009.33 98.2685 1009.54 95.1969C1009.52 95.3885 1009.41 95.6509 1009.27 95.7786L1009.05 95.976C1008.9 96.1015 1008.63 96.1974 1008.43 96.186L1005.59 96.0044C1005.4 95.9919 1005.25 95.8255 1005.26 95.6305L1005.48 92.2326C1005.49 92.0399 1005.66 91.8904 1005.85 91.9029L1008.7 92.0831C1008.89 92.0945 1009.15 92.2234 1009.28 92.3694L1009.47 92.5919C1009.6 92.7344 1009.68 93.0106 1009.67 93.2034H1009.67C1010.18 85.4861 1010.61 77.9627 1010.79 74.7668Z" fill="url(#paint12_linear)"/>
<path opacity="0.3" d="M1000.5 82.5549L1001.31 69.784C1001.33 69.5889 1001.18 69.4223 1000.98 69.4097L966.173 67.1959C965.979 67.1845 965.811 67.3328 965.799 67.5279L964.986 80.2977C964.95 80.8805 965.393 81.3859 965.974 81.4224L999.379 83.5462C999.959 83.5839 1000.46 83.1366 1000.5 82.5549Z" fill="#334163"/>
<g opacity="0.5">
<path d="M978.349 79.9758L979.08 68.4837C979.092 68.3007 978.953 68.1445 978.773 68.1327L976.463 67.9851C976.282 67.9733 976.124 68.1122 976.112 68.2953L975.382 79.7853C975.33 80.601 975.957 81.315 976.771 81.3674C977.588 81.4188 978.298 80.7883 978.349 79.9758Z" fill="#2D3C59"/>
<path d="M990.19 80.7297L990.92 69.2389C990.932 69.0559 990.794 68.8994 990.612 68.8877L988.303 68.739C988.12 68.7272 987.964 68.8675 987.952 69.0484L987.222 80.5402C987.17 81.3559 987.795 82.0689 988.611 82.1213C989.428 82.1716 990.138 81.5432 990.19 80.7297Z" fill="#2D3C59"/>
<path d="M984.271 80.352L985.002 68.8609C985.014 68.6779 984.874 68.5217 984.693 68.5099L982.383 68.362C982.202 68.3502 982.043 68.4894 982.031 68.6725L981.3 80.1625C981.248 80.9792 981.874 81.693 982.692 81.7433C983.509 81.7968 984.22 81.1676 984.271 80.352Z" fill="#2D3C59"/>
<path d="M973.061 69.6997L973.163 68.1069C973.175 67.927 973.038 67.7687 972.855 67.758L970.545 67.6103C970.364 67.5964 970.205 67.7367 970.194 67.9197L970.093 69.5113C970.04 70.328 970.667 71.0378 971.482 71.0902C972.299 71.1438 973.01 70.5153 973.061 69.6997Z" fill="#2D3C59"/>
<path d="M996.738 71.2044L996.839 69.6139C996.85 69.4309 996.711 69.2734 996.53 69.2627L994.22 69.114C994.038 69.1022 993.882 69.2425 993.87 69.4234L993.769 71.0139C993.716 71.8327 994.342 72.5425 995.158 72.5949C995.976 72.6474 996.686 72.0211 996.738 71.2044Z" fill="#2D3C59"/>
<path d="M971.342 73.2863C970.527 73.2338 969.814 73.8591 969.763 74.6758L969.462 79.4101C969.411 80.2258 970.036 80.9408 970.852 80.9912C971.668 81.0447 972.379 80.4152 972.431 79.6006L972.732 74.8639C972.784 74.0472 972.158 73.3366 971.342 73.2863Z" fill="#2D3C59"/>
<path d="M995.016 74.7902C994.201 74.7377 993.491 75.3638 993.438 76.1794L993.138 80.9161C993.086 81.7296 993.711 82.4447 994.527 82.4972C995.343 82.5496 996.053 81.9201 996.106 81.1066L996.407 76.3689C996.458 75.5522 995.833 74.8426 995.016 74.7902Z" fill="#2D3C59"/>
</g>
<path opacity="0.2" d="M971.009 116.262C971.021 116.071 970.873 115.901 970.679 115.888L965.218 115.541C962.762 115.383 960.885 113.346 960.85 110.927L959.452 110.838L958.981 119.96C958.971 120.153 959.121 120.323 959.315 120.334L965.077 120.699C965.851 120.748 966.444 121.424 966.395 122.197L966.038 127.797C966.253 127.833 966.504 127.869 966.737 127.899C967.192 127.954 969.567 128.236 969.831 128.267C969.972 128.285 970.097 128.298 970.241 128.31L971.009 116.262Z" fill="#27334C"/>
<path opacity="0.3" d="M1000.73 113.467C1000.39 115.863 998.266 117.644 995.809 117.489L990.344 117.141C990.15 117.128 989.981 117.279 989.968 117.47L989.203 129.518C989.349 129.526 989.477 129.527 989.619 129.53C989.886 129.532 992.277 129.55 992.737 129.555C992.97 129.556 993.224 129.549 993.443 129.542L993.796 123.99C993.845 123.216 994.517 122.624 995.292 122.671L1001.05 123.039C1001.25 123.051 1001.41 122.905 1001.43 122.717L1002.12 113.553L1000.73 113.467Z" fill="#27334C"/>
<path opacity="0.4" d="M1003.78 87.0036L961.173 84.2959C960.98 84.2822 960.83 84.1169 960.84 83.9219L959.453 110.841L960.852 110.93C960.885 113.349 962.762 115.386 965.219 115.543L970.68 115.891C970.874 115.904 971.021 116.074 971.01 116.264L970.249 128.235C970.375 128.245 970.517 128.256 970.702 128.268C971.048 128.291 977.8 128.718 979.528 128.829C979.528 128.829 979.677 128.837 979.931 128.853C981.66 128.962 988.41 129.393 988.755 129.414C988.939 129.425 989.079 129.431 989.207 129.438L989.967 117.469C989.979 117.277 990.149 117.126 990.343 117.139L995.808 117.487C998.265 117.642 1000.38 115.861 1000.72 113.465L1002.12 113.553L1004.15 86.682C1004.13 86.8736 1003.97 87.0162 1003.78 87.0036ZM965.869 113.233C965.856 113.428 965.733 113.58 965.595 113.571C965.457 113.562 965.344 113.554 965.344 113.554C963.797 113.456 962.61 112.109 962.708 110.563L963.898 91.8386L964.704 91.8899C965.263 91.9241 965.748 91.5581 965.779 91.0767C965.809 90.592 965.375 90.1653 964.815 90.1311L964.009 90.0798L964.067 89.1651C964.164 87.6207 965.512 86.4322 967.06 86.5303C967.06 86.5303 967.174 86.537 967.312 86.5461C967.45 86.5541 967.551 86.7195 967.54 86.9134L965.869 113.233ZM970.641 113.536C970.629 113.731 970.46 113.88 970.266 113.868L967.535 113.696C967.341 113.682 967.193 113.513 967.206 113.318L968.879 86.9992C968.892 86.8076 969.059 86.6569 969.253 86.6706L971.985 86.8438C972.179 86.8563 972.327 87.0241 972.316 87.2192L970.641 113.536ZM975.337 113.834C975.324 114.03 975.156 114.179 974.962 114.167L972.232 113.994C972.042 113.981 971.891 113.812 971.903 113.616L973.576 87.2991C973.588 87.1063 973.758 86.9546 973.951 86.9683L976.681 87.1418C976.873 87.1554 977.022 87.3229 977.01 87.5168L975.337 113.834ZM980.029 114.135C980.018 114.326 979.851 114.477 979.656 114.466L976.927 114.291C976.734 114.28 976.586 114.11 976.6 113.915L978.272 87.5979C978.284 87.404 978.452 87.2568 978.645 87.2671L981.374 87.4405C981.568 87.4542 981.714 87.6229 981.703 87.8134L980.029 114.135ZM984.726 114.431C984.714 114.626 984.545 114.777 984.351 114.763L981.623 114.592C981.429 114.577 981.282 114.409 981.293 114.215L982.966 87.8956C982.979 87.7028 983.147 87.5533 983.34 87.5681L986.069 87.7393C986.263 87.7519 986.412 87.9194 986.401 88.1133L984.726 114.431ZM989.422 114.729C989.411 114.924 989.242 115.074 989.048 115.062L986.319 114.888C986.127 114.876 985.978 114.705 985.99 114.51L987.662 88.1932C987.675 88.0016 987.844 87.8521 988.036 87.8647L990.766 88.0381C990.958 88.0495 991.107 88.2194 991.094 88.411L989.422 114.729ZM994.117 115.029C994.105 115.222 993.938 115.374 993.745 115.36L991.016 115.188C990.822 115.176 990.672 115.006 990.685 114.812L992.358 88.4931C992.371 88.2992 992.539 88.1509 992.733 88.1623L995.463 88.3358C995.655 88.3495 995.803 88.5171 995.791 88.7087L994.117 115.029ZM1000.23 92.3827L999.424 92.3312C998.864 92.2947 998.379 92.6621 998.35 93.1457C998.319 93.6293 998.752 94.0547 999.312 94.0878L1000.12 94.1404L998.929 112.865C998.831 114.412 997.485 115.598 995.935 115.501C995.935 115.501 995.822 115.492 995.685 115.485C995.547 115.475 995.443 115.307 995.456 115.116L997.128 88.7956C997.14 88.6028 997.265 88.4523 997.403 88.4614C997.54 88.4694 997.653 88.4773 997.653 88.4773C999.202 88.5754 1000.39 89.9225 1000.29 91.4669L1000.23 92.3827Z" fill="url(#paint13_linear)"/>
<path opacity="0.4" d="M1003.78 87.0407L961.173 84.3318C960.98 84.3193 960.83 84.154 960.84 83.959L959.453 110.878L960.852 110.966C960.885 113.386 962.762 115.423 965.219 115.579L970.68 115.927C970.874 115.941 971.021 116.11 971.01 116.301L970.249 128.271C970.375 128.282 970.517 128.294 970.702 128.304C971.048 128.327 977.8 128.755 979.528 128.865C979.528 128.865 979.677 128.875 979.931 128.89C981.66 129 988.41 129.43 988.755 129.451C988.939 129.464 989.079 129.468 989.207 129.474L989.967 117.506C989.979 117.314 990.149 117.164 990.343 117.178L995.808 117.525C998.265 117.68 1000.38 115.898 1000.72 113.502L1002.12 113.59L1004.15 86.7191C1004.13 86.9119 1003.97 87.0533 1003.78 87.0407ZM965.869 113.27C965.856 113.465 965.733 113.616 965.595 113.608C965.457 113.598 965.344 113.591 965.344 113.591C963.797 113.492 962.61 112.145 962.708 110.599L963.898 91.8746L964.704 91.927C965.263 91.96 965.748 91.5952 965.779 91.1127C965.809 90.6291 965.375 90.2024 964.815 90.1682L964.009 90.1158L964.067 89.2011C964.164 87.6567 965.512 86.4682 967.06 86.5662C967.06 86.5662 967.174 86.5732 967.312 86.5835C967.45 86.5904 967.551 86.7578 967.54 86.9505L965.869 113.27ZM970.641 113.574C970.629 113.769 970.46 113.918 970.266 113.905L967.535 113.733C967.341 113.72 967.193 113.55 967.206 113.356L968.879 87.0385C968.892 86.8446 969.059 86.6952 969.253 86.7077L971.985 86.8823C972.179 86.896 972.327 87.0624 972.316 87.2574L970.641 113.574ZM975.337 113.871C975.324 114.066 975.156 114.215 974.962 114.204L972.232 114.031C972.042 114.018 971.891 113.849 971.903 113.654L973.576 87.3362C973.588 87.1423 973.758 86.9928 973.951 87.0054L976.681 87.1778C976.873 87.1914 977.022 87.3589 977.01 87.5528L975.337 113.871ZM980.029 114.171C980.018 114.363 979.851 114.514 979.656 114.503L976.927 114.329C976.734 114.317 976.586 114.147 976.6 113.952L978.272 87.635C978.284 87.4411 978.452 87.2928 978.645 87.3031L981.374 87.4765C981.568 87.4914 981.714 87.6589 981.703 87.8505L980.029 114.171ZM984.726 114.469C984.714 114.664 984.545 114.814 984.351 114.8L981.623 114.628C981.429 114.615 981.282 114.445 981.293 114.251L982.966 87.9327C982.979 87.7399 983.147 87.5904 983.34 87.6041L986.069 87.7765C986.263 87.789 986.412 87.9579 986.401 88.1518L984.726 114.469ZM989.422 114.769C989.411 114.962 989.242 115.112 989.048 115.1L986.319 114.926C986.127 114.913 985.978 114.744 985.99 114.548L987.662 88.2315C987.675 88.0398 987.844 87.8904 988.036 87.9018L990.766 88.0752C990.958 88.0878 991.107 88.2579 991.094 88.4495L989.422 114.769ZM994.117 115.066C994.105 115.259 993.938 115.411 993.745 115.396L991.016 115.225C990.822 115.212 990.672 115.043 990.685 114.848L992.358 88.5303C992.371 88.3364 992.539 88.1871 992.733 88.2008L995.463 88.3718C995.655 88.3866 995.803 88.5533 995.791 88.7461L994.117 115.066ZM1000.23 92.4187L999.424 92.3683C998.864 92.3318 998.379 92.7004 998.35 93.1817C998.319 93.6653 998.752 94.0906 999.312 94.126L1000.12 94.1775L998.929 112.901C998.831 114.449 997.485 115.634 995.935 115.537C995.935 115.537 995.822 115.53 995.685 115.521C995.547 115.512 995.443 115.344 995.456 115.153L997.128 88.8316C997.14 88.6399 997.265 88.4894 997.403 88.4974C997.54 88.5054 997.653 88.5133 997.653 88.5133C999.202 88.6114 1000.39 89.9596 1000.29 91.5051L1000.23 92.4187Z" fill="url(#paint14_linear)"/>
<path opacity="0.5" d="M965.869 113.272C965.857 113.467 965.734 113.618 965.596 113.61C965.458 113.6 965.345 113.593 965.345 113.593C963.797 113.494 962.611 112.147 962.709 110.6L963.898 91.8765L964.705 91.9289C965.264 91.962 965.748 91.5971 965.779 91.1146C965.809 90.631 965.375 90.2043 964.815 90.1701L964.009 90.1177L964.067 89.203C964.164 87.6586 965.512 86.4701 967.06 86.5682C967.06 86.5682 967.174 86.5752 967.312 86.5854C967.45 86.5923 967.552 86.7597 967.54 86.9524L965.869 113.272ZM970.642 113.576C970.629 113.771 970.46 113.919 970.266 113.907L967.536 113.735C967.342 113.722 967.194 113.552 967.206 113.358L968.879 87.0404C968.892 86.8465 969.06 86.6971 969.254 86.7096L971.985 86.8842C972.179 86.8979 972.327 87.0643 972.316 87.2593L970.642 113.576ZM975.337 113.873C975.325 114.068 975.156 114.217 974.962 114.206L972.233 114.033C972.042 114.02 971.892 113.851 971.903 113.656L973.576 87.3381C973.589 87.1442 973.759 86.9948 973.952 87.0073L976.681 87.1797C976.874 87.1934 977.022 87.3609 977.011 87.5548L975.337 113.873ZM980.03 114.173C980.018 114.365 979.852 114.516 979.657 114.505L976.927 114.331C976.735 114.319 976.586 114.149 976.6 113.954L978.272 87.6369C978.285 87.443 978.452 87.2947 978.645 87.305L981.375 87.4785C981.568 87.4933 981.714 87.6608 981.703 87.8524L980.03 114.173ZM984.727 114.471C984.714 114.666 984.545 114.816 984.352 114.802L981.623 114.63C981.429 114.616 981.282 114.446 981.294 114.253L982.967 87.9346C982.979 87.7418 983.147 87.5923 983.341 87.606L986.069 87.7784C986.263 87.7909 986.413 87.9598 986.401 88.1537L984.727 114.471ZM989.423 114.77C989.411 114.964 989.242 115.114 989.048 115.102L986.319 114.928C986.127 114.915 985.978 114.746 985.99 114.55L987.663 88.2334C987.675 88.0418 987.844 87.8923 988.037 87.9037L990.766 88.0772C990.959 88.0897 991.107 88.2598 991.095 88.4514L989.423 114.77ZM994.117 115.068C994.106 115.261 993.938 115.413 993.745 115.398L991.016 115.227C990.822 115.214 990.673 115.045 990.685 114.85L992.358 88.5322C992.371 88.3383 992.54 88.1891 992.734 88.2027L995.463 88.3737C995.656 88.3886 995.803 88.5552 995.792 88.748L994.117 115.068ZM1000.23 92.4206L999.424 92.3702C998.864 92.3337 998.38 92.7023 998.35 93.1836C998.319 93.6672 998.753 94.0926 999.313 94.1279L1000.12 94.1794L998.929 112.903C998.831 114.451 997.485 115.636 995.935 115.539C995.935 115.539 995.822 115.532 995.686 115.523C995.548 115.514 995.444 115.346 995.456 115.155L997.128 88.8335C997.141 88.6418 997.265 88.4913 997.403 88.4993C997.54 88.5073 997.653 88.5152 997.653 88.5152C999.202 88.6133 1000.39 89.9615 1000.29 91.507L1000.23 92.4206Z" fill="url(#paint15_linear)"/>
<path d="M966.029 218.888C966.017 219.081 965.85 219.229 965.655 219.217L962.816 219.037C962.621 219.023 962.474 218.856 962.485 218.664L963.248 206.663C963.261 206.471 963.428 206.321 963.622 206.333L966.462 206.515C966.657 206.527 966.804 206.695 966.793 206.888L966.029 218.888Z" fill="#27334C"/>
<path d="M962.154 175.532C963.718 176.131 965.897 176.687 968.484 177.134C968.785 177.184 968.981 176.968 969.002 176.67L969.164 174.292L970.741 165.132C970.866 164.433 970.838 164.293 970.03 164.168C969.131 164.03 968.906 164.364 968.438 164.879L963.085 170.793C962.344 171.614 961.982 172.142 961.91 173.282L961.809 174.857C961.789 175.189 961.883 175.419 962.154 175.532Z" fill="#212A3F"/>
<path d="M962.163 174.828L967.881 174.366C968.074 174.351 968.242 174.18 968.254 173.987L968.861 164.434C968.724 164.554 968.595 164.705 968.439 164.88L963.085 170.793C962.345 171.614 961.982 172.142 961.91 173.282L961.833 174.506C961.819 174.699 961.97 174.842 962.163 174.828Z" fill="#27334C"/>
<path opacity="0.5" d="M972.876 203.951C972.102 203.812 971.144 203.679 971.144 203.679L966.046 203.354C965.854 203.342 965.686 203.49 965.672 203.684L965.518 206.103C965.506 206.296 965.654 206.462 965.848 206.474L973.744 206.974C973.937 206.987 974.107 206.842 974.118 206.649L974.215 205.122C974.259 204.457 973.627 204.085 972.876 203.951Z" fill="#27334C"/>
<path d="M979.524 139.427C979.331 139.43 979.119 139.427 979.055 139.425C978.989 139.422 978.78 139.394 978.588 139.369L977.555 139.227L976.801 164.587C976.792 164.78 976.775 165.096 976.763 165.29L976.563 175.924C976.558 176.118 976.625 176.28 976.712 176.283C976.798 176.288 976.884 176.14 976.905 175.945L978.05 165.37C978.064 165.177 978.087 164.861 978.101 164.667L980.566 139.418L979.524 139.427Z" fill="#212A3F"/>
<path d="M981.919 219.897C981.906 220.09 982.054 220.258 982.247 220.27L985.088 220.45C985.282 220.462 985.45 220.316 985.461 220.121L986.224 208.12C986.237 207.927 986.089 207.758 985.896 207.745L983.055 207.567C982.861 207.555 982.692 207.703 982.679 207.895L981.919 219.897Z" fill="#27334C"/>
<path d="M991.253 177.376C989.625 177.777 987.392 178.051 984.769 178.166C984.467 178.179 984.298 177.939 984.316 177.64L984.453 175.26L984.049 165.973C984.014 165.265 984.058 165.128 984.877 165.106C985.784 165.084 985.967 165.443 986.367 166.015L990.928 172.558C991.558 173.467 991.85 174.035 991.777 175.177L991.678 176.751C991.655 177.087 991.533 177.301 991.253 177.376Z" fill="#212A3F"/>
<path d="M991.329 176.683L985.715 175.501C985.525 175.46 985.38 175.272 985.391 175.078L985.998 165.525C986.119 165.661 986.228 165.825 986.362 166.019L990.923 172.562C991.553 173.471 991.845 174.039 991.772 175.18L991.694 176.404C991.683 176.597 991.517 176.72 991.329 176.683Z" fill="#27334C"/>
<path d="M959.813 185.536C962.167 187.034 968.457 188.395 975.911 188.868H975.913C983.37 189.343 989.778 188.791 992.304 187.6C992.82 187.379 992.939 186.706 992.971 186.184L993.108 184.026C993.075 184.55 992.957 185.223 992.439 185.445C989.915 186.632 983.505 187.183 976.049 186.708H976.047C968.592 186.235 962.303 184.877 959.949 183.379C959.463 183.092 959.433 182.409 959.466 181.885L959.329 184.041C959.297 184.568 959.327 185.249 959.813 185.536Z" fill="url(#paint16_linear)"/>
<g opacity="0.8">
<g opacity="0.8">
<path opacity="0.8" d="M974.936 188.794C972.611 188.621 970.414 188.361 968.436 188.037L968.367 189.115C968.343 189.501 968.628 189.898 969.003 189.994L970.039 190.263L969.649 196.396C969.624 196.783 969.913 197.178 970.289 197.273L973.963 198.205C974.34 198.299 974.667 198.064 974.691 197.677L975.124 190.883C975.127 190.822 975.137 190.65 975.151 190.433C975.171 190.112 975.2 189.668 975.232 189.172C975.243 188.992 975.111 188.831 974.936 188.794Z" fill="url(#paint17_linear)"/>
<path opacity="0.8" d="M976.894 188.918C976.716 188.933 976.564 189.076 976.554 189.258C976.522 189.755 976.494 190.197 976.473 190.519C976.459 190.736 976.449 190.908 976.444 190.97L976.013 197.761C975.989 198.149 976.282 198.425 976.667 198.378L980.432 197.918C980.816 197.871 981.151 197.518 981.177 197.131L981.565 190.998L982.625 190.864C983.009 190.813 983.345 190.456 983.369 190.069L983.438 188.993C981.434 189.062 979.223 189.042 976.894 188.918Z" fill="url(#paint18_linear)"/>
</g>
</g>
<path opacity="0.5" d="M977.016 204.216C977.802 204.176 978.77 204.164 978.77 204.164L983.867 204.488C984.059 204.502 984.209 204.669 984.196 204.863L984.042 207.281C984.031 207.474 983.862 207.62 983.668 207.609L975.772 207.105C975.577 207.092 975.43 206.928 975.442 206.734L975.539 205.208C975.581 204.545 976.254 204.255 977.016 204.216Z" fill="#27334C"/>
<path d="M942.863 110.113C942.475 110.089 942.168 110.386 942.181 110.774L942.522 123.025C942.531 123.412 942.377 123.999 942.176 124.332L938.232 130.875C938.035 131.207 938.141 131.642 938.473 131.84L944.657 135.572C944.989 135.773 945.424 135.663 945.625 135.332L950.679 126.946C950.879 126.615 951.065 126.026 951.09 125.638L952.021 111.397C952.046 111.014 951.749 110.676 951.362 110.653L942.863 110.113Z" fill="#212A3F"/>
<path opacity="0.5" d="M976.558 219.469C976.367 219.454 976.068 219.521 975.898 219.613L975.786 219.673C975.616 219.765 975.317 219.83 975.125 219.818L973.951 219.744L971.52 257.992L971.066 265.137L975.024 258.217L977.483 219.528L976.558 219.469Z" fill="white"/>
<path d="M981.794 207.491L967.726 206.596C967.532 206.584 967.364 206.732 967.352 206.926L966.616 218.487C966.603 218.681 966.753 218.849 966.947 218.86L971.401 219.145C971.594 219.156 971.88 219.26 972.037 219.37L972.14 219.444C972.298 219.557 972.585 219.659 972.776 219.671L975.126 219.82C975.319 219.833 975.616 219.768 975.787 219.676L975.899 219.615C976.069 219.524 976.368 219.457 976.56 219.472L981.015 219.754C981.209 219.765 981.376 219.619 981.389 219.425L982.125 207.865C982.135 207.672 981.988 207.503 981.794 207.491ZM977.414 216.032C977.306 217.745 975.827 219.059 974.13 218.951L973.877 218.935C972.18 218.827 970.882 217.335 970.99 215.623L971.243 211.623C971.353 209.912 972.829 208.601 974.527 208.706L974.78 208.723C976.478 208.831 977.777 210.322 977.668 212.032L977.414 216.032Z" fill="#27334C"/>
<path d="M974.936 188.794C972.611 188.621 970.414 188.361 968.436 188.037L968.367 189.115C968.343 189.501 968.628 189.898 969.003 189.994L974.397 191.395C974.774 191.491 975.1 191.261 975.124 190.884C975.133 190.734 975.178 190.004 975.232 189.173C975.243 188.992 975.111 188.831 974.936 188.794Z" fill="url(#paint19_linear)"/>
<path d="M976.891 188.918C979.22 189.041 981.432 189.062 983.435 188.991L983.365 190.066C983.341 190.453 983.007 190.811 982.622 190.861L977.096 191.568C976.71 191.611 976.417 191.346 976.441 190.969C976.45 190.818 976.497 190.089 976.55 189.257C976.562 189.076 976.713 188.933 976.891 188.918Z" fill="url(#paint20_linear)"/>
<path opacity="0.2" d="M972.777 219.659C972.584 219.645 972.298 219.545 972.139 219.434L972.037 219.357C971.878 219.244 971.592 219.143 971.399 219.132L970.477 219.072L970.473 219.087L968.014 257.774L971.065 265.141L971.519 257.996L973.949 219.748L973.946 219.733L972.777 219.659Z" fill="white"/>
<path d="M1058.94 248.839L1046.16 245.797L1021.58 224.867L997.487 231.316L986.901 253.462H981.181L975.949 265.387H1074.15L1058.94 248.839Z" fill="#212A3F"/>
<path d="M953.438 253.461L943.946 243.361H924.599L914.742 253.827H909.267L901.357 265.386H965.971L962.808 259.302L953.438 253.461Z" fill="#212A3F"/>
<path d="M1058.94 248.839L1031.56 255.288L1021.58 224.867L997.486 231.316L985.684 265.387H1074.15L1058.94 248.839Z" fill="#27334C"/>
<path d="M943.459 258.937L937.375 245.552L924.599 243.361L914.742 253.827H909.267L901.357 265.386H965.971L956.844 261.249L943.459 258.937Z" fill="#27334C"/>
<path d="M950.656 241.438L951.572 246.149L955.89 247.065L955.628 243.663L953.012 241.309L950.656 241.438Z" fill="#212A3F"/>
<path d="M950.656 241.44L951.572 246.152L952.358 243.142L955.628 243.663L953.012 241.309L950.656 241.44Z" fill="#27334C"/>
<path d="M956.801 250.265L963.618 257.405L964.918 246.369L961.346 242.473L958.749 245.556L956.801 250.265Z" fill="#212A3F"/>
<path d="M964.916 246.365L961.343 242.469L958.746 245.552L964.916 246.365Z" fill="#27334C"/>
</g>
<defs>
<linearGradient id="paint0_linear" x1="971.856" y1="188.254" x2="970.798" y2="204.905" gradientUnits="userSpaceOnUse">
<stop offset="0.6055" stop-color="#212A3F"/>
<stop offset="1" stop-color="#27334C"/>
</linearGradient>
<linearGradient id="paint1_linear" x1="980.016" y1="188.774" x2="978.958" y2="205.422" gradientUnits="userSpaceOnUse">
<stop offset="0.6055" stop-color="#212A3F"/>
<stop offset="1" stop-color="#27334C"/>
</linearGradient>
<linearGradient id="paint2_linear" x1="969.917" y1="133.449" x2="988.876" y2="134.654" gradientUnits="userSpaceOnUse">
<stop stop-color="#4B6696"/>
<stop offset="0.5" stop-color="#405684"/>
<stop offset="1" stop-color="#4B6696"/>
</linearGradient>
<linearGradient id="paint3_linear" x1="993.169" y1="133.538" x2="997.363" y2="133.804" gradientUnits="userSpaceOnUse">
<stop stop-color="#405684" stop-opacity="0.3"/>
<stop offset="1" stop-color="#4B6696"/>
</linearGradient>
<linearGradient id="paint4_linear" x1="988.954" y1="134.135" x2="993.132" y2="134.401" gradientUnits="userSpaceOnUse">
<stop stop-color="#405684" stop-opacity="0.3"/>
<stop offset="1" stop-color="#4B6696"/>
</linearGradient>
<linearGradient id="paint5_linear" x1="965.804" y1="131.799" x2="961.61" y2="131.532" gradientUnits="userSpaceOnUse">
<stop stop-color="#405684" stop-opacity="0.3"/>
<stop offset="1" stop-color="#4B6696"/>
</linearGradient>
<linearGradient id="paint6_linear" x1="969.909" y1="132.925" x2="965.73" y2="132.659" gradientUnits="userSpaceOnUse">
<stop stop-color="#405684" stop-opacity="0.3"/>
<stop offset="1" stop-color="#4B6696"/>
</linearGradient>
<linearGradient id="paint7_linear" x1="960.495" y1="168.554" x2="993.781" y2="170.668" gradientUnits="userSpaceOnUse">
<stop stop-color="#4B6696" stop-opacity="0"/>
<stop offset="0.5" stop-color="#4B6696" stop-opacity="0.7"/>
<stop offset="1" stop-color="#4B6696" stop-opacity="0"/>
</linearGradient>
<linearGradient id="paint8_linear" x1="964.911" y1="150.712" x2="991.672" y2="152.412" gradientUnits="userSpaceOnUse">
<stop stop-color="#4B6696" stop-opacity="0"/>
<stop offset="0.5" stop-color="#4B6696" stop-opacity="0.2"/>
<stop offset="1" stop-color="#4B6696" stop-opacity="0"/>
</linearGradient>
<linearGradient id="paint9_linear" x1="959.61" y1="179.673" x2="993.253" y2="181.81" gradientUnits="userSpaceOnUse">
<stop stop-color="#4B6696" stop-opacity="0"/>
<stop offset="0.5" stop-color="#4B6696" stop-opacity="0.2"/>
<stop offset="1" stop-color="#4B6696" stop-opacity="0"/>
</linearGradient>
<linearGradient id="paint10_linear" x1="923.781" y1="100.217" x2="924.162" y2="94.213" gradientUnits="userSpaceOnUse">
<stop stop-color="#4B6696" stop-opacity="0"/>
<stop offset="1" stop-color="#4B6696"/>
</linearGradient>
<linearGradient id="paint11_linear" x1="1038.85" y1="107.529" x2="1039.23" y2="101.523" gradientUnits="userSpaceOnUse">
<stop stop-color="#4B6696" stop-opacity="0"/>
<stop offset="1" stop-color="#4B6696"/>
</linearGradient>
<linearGradient id="paint12_linear" x1="974.947" y1="86.888" x2="1095.14" y2="203.442" gradientUnits="userSpaceOnUse">
<stop stop-color="#4B6696" stop-opacity="0"/>
<stop offset="1" stop-color="#4B6696" stop-opacity="0.7"/>
</linearGradient>
<linearGradient id="paint13_linear" x1="945.998" y1="128.042" x2="1003.45" y2="85.7528" gradientUnits="userSpaceOnUse">
<stop stop-color="white"/>
<stop offset="1" stop-color="#FFF064"/>
</linearGradient>
<linearGradient id="paint14_linear" x1="945.998" y1="128.078" x2="1003.45" y2="85.7891" gradientUnits="userSpaceOnUse">
<stop stop-color="white"/>
<stop offset="1" stop-color="#FFF064"/>
</linearGradient>
<linearGradient id="paint15_linear" x1="961.123" y1="74.8849" x2="1000.79" y2="125.826" gradientUnits="userSpaceOnUse">
<stop stop-color="#4B6696" stop-opacity="0.2"/>
<stop offset="1" stop-color="#27334C" stop-opacity="0.6"/>
</linearGradient>
<linearGradient id="paint16_linear" x1="959.28" y1="184.842" x2="992.922" y2="186.98" gradientUnits="userSpaceOnUse">
<stop stop-color="#4B6696" stop-opacity="0"/>
<stop offset="0.5" stop-color="#4B6696" stop-opacity="0.5"/>
<stop offset="1" stop-color="#4B6696" stop-opacity="0"/>
</linearGradient>
<linearGradient id="paint17_linear" x1="971.856" y1="188.254" x2="971.234" y2="198.043" gradientUnits="userSpaceOnUse">
<stop offset="0.3761" stop-color="#212A3F"/>
<stop offset="1" stop-color="#27334C"/>
</linearGradient>
<linearGradient id="paint18_linear" x1="980.016" y1="188.774" x2="979.395" y2="198.562" gradientUnits="userSpaceOnUse">
<stop offset="0.3761" stop-color="#212A3F"/>
<stop offset="1" stop-color="#27334C"/>
</linearGradient>
<linearGradient id="paint19_linear" x1="971.856" y1="188.254" x2="971.666" y2="191.234" gradientUnits="userSpaceOnUse">
<stop stop-color="#212A3F"/>
<stop offset="1" stop-color="#27334C"/>
</linearGradient>
<linearGradient id="paint20_linear" x1="980.014" y1="188.774" x2="979.825" y2="191.753" gradientUnits="userSpaceOnUse">
<stop stop-color="#212A3F"/>
<stop offset="1" stop-color="#27334C"/>
</linearGradient>
</defs>
</svg>
