<svg width="1211" height="680" viewBox="0 0 1211 680" fill="none" xmlns="http://www.w3.org/2000/svg">
<mask id="mask0" mask-type="alpha" maskUnits="userSpaceOnUse" x="0" y="0" width="1211" height="680">
<path d="M1210 0H0.00195312V680H1210V0Z" fill="#334163"/>
</mask>
<g mask="url(#mask0)">
<path opacity="0.2" d="M899.697 0C1071.08 0.0241951 1210 138.963 1210 310.348V0H899.697Z" fill="url(#paint0_radial)"/>
<path opacity="0.05" d="M978.267 129.166C987.906 129.166 995.72 121.351 995.72 111.712C995.72 102.072 987.906 94.2578 978.267 94.2578C968.627 94.2578 960.812 102.072 960.812 111.712C960.812 121.351 968.627 129.166 978.267 129.166Z" fill="#4B6696"/>
<path opacity="0.02" d="M1134.62 285.519C1144.26 285.519 1152.08 277.705 1152.08 268.065C1152.08 258.426 1144.26 250.611 1134.62 250.611C1124.98 250.611 1117.17 258.426 1117.17 268.065C1117.17 277.705 1124.98 285.519 1134.62 285.519Z" fill="#4B6696"/>
<path opacity="0.02" d="M821.911 285.519C831.551 285.519 839.365 277.705 839.365 268.065C839.365 258.426 831.551 250.611 821.911 250.611C812.271 250.611 804.457 258.426 804.457 268.065C804.457 277.705 812.271 285.519 821.911 285.519Z" fill="#4B6696"/>
<path opacity="0.03" d="M867.708 174.961C877.347 174.961 885.162 167.146 885.162 157.507C885.162 147.867 877.347 140.053 867.708 140.053C858.068 140.053 850.254 147.867 850.254 157.507C850.254 167.146 858.068 174.961 867.708 174.961Z" fill="#4B6696"/>
<path opacity="0.07" d="M1088.82 174.959C1098.46 174.959 1106.28 167.145 1106.28 157.506C1106.28 147.867 1098.46 140.053 1088.82 140.053C1079.19 140.053 1071.37 147.867 1071.37 157.506C1071.37 167.145 1079.19 174.959 1088.82 174.959Z" fill="#4B6696"/>
<path opacity="0.04" d="M917.802 141.328C927.441 141.328 935.256 133.513 935.256 123.874C935.256 114.234 927.441 106.42 917.802 106.42C908.162 106.42 900.348 114.234 900.348 123.874C900.348 133.513 908.162 141.328 917.802 141.328Z" fill="#4B6696"/>
<path opacity="0.05" d="M1122.46 225.052C1132.1 225.052 1139.91 217.239 1139.91 207.599C1139.91 197.96 1132.1 190.146 1122.46 190.146C1112.82 190.146 1105 197.96 1105 207.599C1105 217.239 1112.82 225.052 1122.46 225.052Z" fill="#4B6696"/>
<path opacity="0.02" d="M833.552 226.316C843.191 226.316 851.006 218.502 851.006 208.862C851.006 199.223 843.191 191.408 833.552 191.408C823.912 191.408 816.098 199.223 816.098 208.862C816.098 218.502 823.912 226.316 833.552 226.316Z" fill="#4B6696"/>
<path opacity="0.07" d="M1037.47 140.806C1047.11 140.806 1054.92 132.992 1054.92 123.352C1054.92 113.713 1047.11 105.898 1037.47 105.898C1027.83 105.898 1020.01 113.713 1020.01 123.352C1020.01 132.992 1027.83 140.806 1037.47 140.806Z" fill="#4B6696"/>
<path opacity="0.05" d="M978.265 54.3106C992.994 54.3106 1004.93 42.3705 1004.93 27.6417C1004.93 12.9128 992.994 0.972656 978.265 0.972656C963.536 0.972656 951.596 12.9128 951.596 27.6417C951.596 42.3705 963.536 54.3106 978.265 54.3106Z" fill="url(#paint1_linear)"/>
<path opacity="0.02" d="M1217.17 293.219C1231.9 293.219 1243.84 281.279 1243.84 266.55C1243.84 251.821 1231.9 239.881 1217.17 239.881C1202.45 239.881 1190.51 251.821 1190.51 266.55C1190.51 281.279 1202.45 293.219 1217.17 293.219Z" fill="url(#paint2_linear)"/>
<path opacity="0.02" d="M739.357 293.219C754.085 293.219 766.025 281.279 766.025 266.55C766.025 251.821 754.085 239.881 739.357 239.881C724.628 239.881 712.688 251.821 712.688 266.55C712.688 281.279 724.628 293.219 739.357 293.219Z" fill="#4B6696"/>
<path opacity="0.04" d="M809.333 124.285C824.062 124.285 836.002 112.345 836.002 97.6163C836.002 82.8874 824.062 70.9473 809.333 70.9473C794.604 70.9473 782.664 82.8874 782.664 97.6163C782.664 112.345 794.604 124.285 809.333 124.285Z" fill="#4B6696"/>
<path opacity="0.05" d="M1147.2 124.285C1161.93 124.285 1173.87 112.345 1173.87 97.6163C1173.87 82.8874 1161.93 70.9473 1147.2 70.9473C1132.47 70.9473 1120.53 82.8874 1120.53 97.6163C1120.53 112.345 1132.47 124.285 1147.2 124.285Z" fill="url(#paint3_linear)"/>
<path opacity="0.03" d="M885.876 72.8966C900.605 72.8966 912.545 60.9565 912.545 46.2276C912.545 31.4987 900.605 19.5586 885.876 19.5586C871.147 19.5586 859.207 31.4987 859.207 46.2276C859.207 60.9565 871.147 72.8966 885.876 72.8966Z" fill="#4B6696"/>
<path opacity="0.03" d="M1198.59 200.83C1213.32 200.83 1225.26 188.89 1225.26 174.161C1225.26 159.432 1213.32 147.492 1198.59 147.492C1183.86 147.492 1171.92 159.432 1171.92 174.161C1171.92 188.89 1183.86 200.83 1198.59 200.83Z" fill="url(#paint4_linear)"/>
<path opacity="0.03" d="M757.144 202.756C771.872 202.756 783.813 190.816 783.813 176.087C783.813 161.358 771.872 149.418 757.144 149.418C742.415 149.418 730.475 161.358 730.475 176.087C730.475 190.816 742.415 202.756 757.144 202.756Z" fill="#4B6696"/>
<path opacity="0.05" d="M1068.73 72.0978C1083.46 72.0978 1095.4 60.1577 1095.4 45.4288C1095.4 30.6999 1083.46 18.7598 1068.73 18.7598C1054 18.7598 1042.06 30.6999 1042.06 45.4288C1042.06 60.1577 1054 72.0978 1068.73 72.0978Z" fill="url(#paint5_linear)"/>
<path opacity="0.08" d="M940.163 97.9977C952.125 97.9977 961.822 88.3006 961.822 76.3387C961.822 64.3767 952.125 54.6797 940.163 54.6797C928.201 54.6797 918.504 64.3767 918.504 76.3387C918.504 88.3006 928.201 97.9977 940.163 97.9977Z" fill="#4B6696"/>
<path opacity="0.05" d="M1168.64 249.941C1180.6 249.941 1190.3 240.244 1190.3 228.283C1190.3 216.322 1180.6 206.625 1168.64 206.625C1156.68 206.625 1146.98 216.322 1146.98 228.283C1146.98 240.244 1156.68 249.941 1168.64 249.941Z" fill="#4B6696"/>
<path opacity="0.04" d="M828.866 141.076C838.826 147.698 841.529 161.143 834.906 171.103C828.281 181.064 814.838 183.769 804.879 177.145C794.918 170.521 792.213 157.078 798.838 147.117C805.459 137.156 818.904 134.451 828.866 141.076Z" fill="#4B6696"/>
<path opacity="0.1" d="M1085.87 126.65C1097.83 126.65 1107.53 116.953 1107.53 104.992C1107.53 93.0306 1097.83 83.334 1085.87 83.334C1073.91 83.334 1064.21 93.0306 1064.21 104.992C1064.21 116.953 1073.91 126.65 1085.87 126.65Z" fill="#4B6696"/>
<path opacity="0.06" d="M869.583 127.595C881.545 127.595 891.242 117.898 891.242 105.936C891.242 93.9744 881.545 84.2773 869.583 84.2773C857.621 84.2773 847.924 93.9744 847.924 105.936C847.924 117.898 857.621 127.595 869.583 127.595Z" fill="#4B6696"/>
<path opacity="0.07" d="M1139.04 179.361C1151 179.361 1160.7 169.664 1160.7 157.703C1160.7 145.742 1151 136.045 1139.04 136.045C1127.08 136.045 1117.38 145.742 1117.38 157.703C1117.38 169.664 1127.08 179.361 1139.04 179.361Z" fill="#4B6696"/>
<path opacity="0.02" d="M787.889 251.605C799.851 251.605 809.548 241.908 809.548 229.946C809.548 217.984 799.851 208.287 787.889 208.287C775.928 208.287 766.23 217.984 766.23 229.946C766.23 241.908 775.928 251.605 787.889 251.605Z" fill="#4B6696"/>
<path opacity="0.1" d="M1015.03 97.6715C1027 97.6715 1036.69 87.9744 1036.69 76.0125C1036.69 64.0506 1027 54.3535 1015.03 54.3535C1003.07 54.3535 993.375 64.0506 993.375 76.0125C993.375 87.9744 1003.07 97.6715 1015.03 97.6715Z" fill="#4B6696"/>
<path opacity="0.05" d="M953.001 154.779C960.933 154.779 967.363 148.349 967.363 140.417C967.363 132.485 960.933 126.055 953.001 126.055C945.069 126.055 938.639 132.485 938.639 140.417C938.639 148.349 945.069 154.779 953.001 154.779Z" fill="#4B6696"/>
<path opacity="0.05" d="M1104.51 255.536C1112.44 255.536 1118.87 249.106 1118.87 241.174C1118.87 233.243 1112.44 226.812 1104.51 226.812C1096.58 226.812 1090.15 233.243 1090.15 241.174C1090.15 249.106 1096.58 255.536 1104.51 255.536Z" fill="#4B6696"/>
<path opacity="0.03" d="M871.243 209.665C879.175 209.665 885.605 203.235 885.605 195.303C885.605 187.371 879.175 180.941 871.243 180.941C863.311 180.941 856.881 187.371 856.881 195.303C856.881 203.235 863.311 209.665 871.243 209.665Z" fill="#4B6696"/>
<path opacity="0.05" d="M1061.58 167.37C1057.19 173.974 1048.27 175.767 1041.67 171.376C1035.06 166.983 1033.27 158.069 1037.66 151.465C1042.05 144.858 1050.97 143.065 1057.57 147.457C1064.18 151.85 1065.97 160.764 1061.58 167.37Z" fill="#4B6696"/>
<path opacity="0.04" d="M906.198 174.406C914.13 174.406 920.56 167.976 920.56 160.044C920.56 152.112 914.13 145.682 906.198 145.682C898.266 145.682 891.836 152.112 891.836 160.044C891.836 167.976 898.266 174.406 906.198 174.406Z" fill="#4B6696"/>
<path opacity="0.05" d="M1084.88 208.732C1092.81 208.732 1099.24 202.302 1099.24 194.37C1099.24 186.438 1092.81 180.008 1084.88 180.008C1076.95 180.008 1070.52 186.438 1070.52 194.37C1070.52 202.302 1076.95 208.732 1084.88 208.732Z" fill="#4B6696"/>
<path opacity="0.02" d="M852.025 256.638C859.958 256.638 866.388 250.208 866.388 242.275C866.388 234.343 859.958 227.912 852.025 227.912C844.093 227.912 837.662 234.343 837.662 242.275C837.662 250.208 844.093 256.638 852.025 256.638Z" fill="#4B6696"/>
<path opacity="0.05" d="M1002.65 154.562C1010.58 154.562 1017.01 148.132 1017.01 140.2C1017.01 132.268 1010.58 125.838 1002.65 125.838C994.715 125.838 988.285 132.268 988.285 140.2C988.285 148.132 994.715 154.562 1002.65 154.562Z" fill="#4B6696"/>
<path d="M1085.96 111.568V91.7238C1085.96 88.094 1083.02 85.1504 1079.38 85.1504C1075.75 85.1504 1072.81 88.094 1072.81 91.7238V111.568C1070.41 113.495 1068.87 116.45 1068.87 119.77C1068.87 125.58 1073.58 130.288 1079.38 130.288C1085.19 130.288 1089.9 125.58 1089.9 119.77C1089.9 116.45 1088.36 113.495 1085.96 111.568ZM1079.38 127.34C1075.2 127.34 1071.81 123.952 1071.81 119.77C1071.81 116.897 1073.41 114.402 1075.77 113.118V91.7238C1075.77 89.7268 1077.39 88.1084 1079.38 88.1084C1081.38 88.1084 1083 89.7268 1083 91.7238V113.118C1085.36 114.402 1086.95 116.897 1086.95 119.77C1086.95 123.952 1083.57 127.34 1079.38 127.34Z" fill="#2B3753"/>
<path opacity="0.5" d="M1080.7 116.764V91.7268C1080.7 91.0011 1080.11 90.4121 1079.38 90.4121C1078.65 90.4121 1078.07 91.0011 1078.07 91.7268V116.764C1076.91 117.271 1076.09 118.427 1076.09 119.773C1076.09 121.589 1077.56 123.06 1079.38 123.06C1081.2 123.06 1082.67 121.589 1082.67 119.773C1082.67 118.427 1081.86 117.271 1080.7 116.764Z" fill="#6C97D3"/>
<path d="M1080.7 116.762V102.242C1080.7 101.515 1080.11 100.928 1079.38 100.928C1078.65 100.928 1078.07 101.515 1078.07 102.242V116.762C1076.91 117.269 1076.09 118.425 1076.09 119.771C1076.09 121.587 1077.56 123.058 1079.38 123.058C1081.2 123.058 1082.67 121.587 1082.67 119.771C1082.67 118.425 1081.86 117.269 1080.7 116.762Z" fill="url(#paint6_linear)"/>
<path opacity="0.5" d="M1092.96 91.5044H1089.51C1088.79 91.5044 1088.2 90.9154 1088.2 90.1897C1088.2 89.464 1088.79 88.875 1089.51 88.875H1092.96C1093.69 88.875 1094.28 89.464 1094.28 90.1897C1094.28 90.9154 1093.69 91.5044 1092.96 91.5044Z" fill="#6C97D3"/>
<path opacity="0.5" d="M1096.91 96.9848H1089.51C1088.79 96.9848 1088.2 96.3959 1088.2 95.6702C1088.2 94.9444 1088.79 94.3555 1089.51 94.3555H1096.91C1097.63 94.3555 1098.22 94.9444 1098.22 95.6702C1098.22 96.3959 1097.63 96.9848 1096.91 96.9848Z" fill="#6C97D3"/>
<path opacity="0.5" d="M1092.96 102.463H1089.51C1088.79 102.463 1088.2 101.876 1088.2 101.149C1088.2 100.422 1088.79 99.834 1089.51 99.834H1092.96C1093.69 99.834 1094.28 100.422 1094.28 101.149C1094.28 101.876 1093.69 102.463 1092.96 102.463Z" fill="#6C97D3"/>
<path opacity="0.5" d="M1096.91 107.938H1089.51C1088.79 107.938 1088.2 107.349 1088.2 106.623C1088.2 105.898 1088.79 105.309 1089.51 105.309H1096.91C1097.63 105.309 1098.22 105.898 1098.22 106.623C1098.22 107.349 1097.63 107.938 1096.91 107.938Z" fill="#6C97D3"/>
<g opacity="0.5">
<path d="M1069.32 75.6193C1070.04 74.8384 1070.56 74.1416 1070.87 73.5276C1071.19 72.9137 1071.35 72.3273 1071.35 71.7673C1071.35 70.8023 1071.03 70.045 1070.4 69.4981C1069.77 68.9512 1068.92 68.6777 1067.83 68.6777C1067.07 68.6777 1066.41 68.8289 1065.83 69.1326C1065.25 69.4363 1064.81 69.861 1064.49 70.4079C1064.18 70.9548 1064.03 71.57 1064.03 72.2524H1065.9C1065.9 71.6108 1066.07 71.1046 1066.4 70.7352C1066.74 70.3658 1067.21 70.1804 1067.81 70.1804C1068.32 70.1804 1068.72 70.3448 1069.03 70.6734C1069.33 71.0021 1069.48 71.4333 1069.48 71.9671C1069.48 72.3733 1069.36 72.7769 1069.13 73.1805C1068.9 73.5841 1068.52 74.0864 1067.98 74.6872L1064.25 78.7627V80.0498H1071.79V78.5537H1066.58L1069.32 75.6193Z" fill="#6C97D3"/>
<path d="M1078.54 74.2941C1079.05 74.068 1079.46 73.7327 1079.78 73.2883C1080.1 72.844 1080.26 72.3707 1080.26 71.8672C1080.26 70.8654 1079.94 70.0845 1079.3 69.5218C1078.67 68.9591 1077.79 68.6777 1076.67 68.6777C1075.99 68.6777 1075.38 68.8105 1074.83 69.0748C1074.28 69.339 1073.86 69.7071 1073.55 70.1804C1073.24 70.6537 1073.09 71.177 1073.09 71.7515H1074.96C1074.96 71.2848 1075.13 70.9048 1075.45 70.6156C1075.77 70.3264 1076.19 70.1804 1076.69 70.1804C1077.26 70.1804 1077.69 70.3277 1077.97 70.6235C1078.25 70.9193 1078.39 71.3334 1078.39 71.8672C1078.39 72.422 1078.22 72.8453 1077.89 73.1385C1077.55 73.4316 1077.09 73.5802 1076.52 73.5855H1075.38V75.0645H1076.48C1077.17 75.0645 1077.69 75.2236 1078.04 75.5417C1078.39 75.8599 1078.56 76.3148 1078.56 76.9051C1078.56 77.4901 1078.39 77.9371 1078.06 78.246C1077.73 78.555 1077.27 78.7088 1076.69 78.7088C1076.13 78.7088 1075.68 78.555 1075.35 78.246C1075.02 77.9371 1074.85 77.5374 1074.85 77.0444H1072.98C1072.98 78.0002 1073.33 78.7653 1074.01 79.3399C1074.7 79.9144 1075.59 80.2023 1076.66 80.2023C1077.79 80.2023 1078.7 79.9039 1079.39 79.3083C1080.08 78.7127 1080.42 77.9108 1080.42 76.9051C1080.42 76.2779 1080.26 75.7389 1079.94 75.288C1079.62 74.837 1079.15 74.5044 1078.54 74.2941Z" fill="#6C97D3"/>
<path d="M1098.6 70.5867C1098.57 70.0108 1098.39 69.5481 1098.05 69.1997C1097.72 68.8513 1097.28 68.6777 1096.73 68.6777C1096.37 68.6777 1096.04 68.7619 1095.76 68.9315C1095.48 69.0997 1095.26 69.343 1095.11 69.6585C1094.95 69.9727 1094.87 70.3277 1094.87 70.7208V70.7655C1094.87 71.3939 1095.04 71.8961 1095.38 72.2721C1095.72 72.6494 1096.18 72.8374 1096.74 72.8374C1097.11 72.8374 1097.44 72.752 1097.72 72.581C1098.01 72.4114 1098.22 72.1695 1098.38 71.858C1098.53 71.5464 1098.6 71.1927 1098.6 70.797L1098.6 70.5867ZM1097.45 71.762C1097.28 71.9986 1097.04 72.1183 1096.74 72.1183C1096.44 72.1183 1096.2 72.0013 1096.03 71.7686C1095.86 71.5346 1095.77 71.2111 1095.77 70.7983C1095.77 70.3342 1095.86 69.9845 1096.03 69.7518C1096.21 69.5178 1096.44 69.4008 1096.73 69.4008C1097.03 69.4008 1097.27 69.5191 1097.44 69.7571C1097.62 69.9937 1097.7 70.3145 1097.7 70.7194C1097.7 71.177 1097.62 71.524 1097.45 71.762Z" fill="#6C97D3"/>
<path d="M1087.41 71.1776C1087.87 70.5584 1088.52 70.2481 1089.36 70.2481C1090.09 70.2481 1090.65 70.4269 1091.02 70.7832C1091.4 71.1395 1091.64 71.7219 1091.73 72.5278H1093.67C1093.55 71.2999 1093.11 70.352 1092.35 69.6815C1091.6 69.011 1090.6 68.6758 1089.36 68.6758C1088.44 68.6758 1087.64 68.894 1086.93 69.3305C1086.23 69.767 1085.69 70.3888 1085.32 71.1947C1084.94 72.0006 1084.76 72.9327 1084.76 73.9911V75.0389C1084.77 76.0709 1084.96 76.978 1085.33 77.7576C1085.7 78.5373 1086.23 79.1407 1086.91 79.564C1087.59 79.9874 1088.38 80.199 1089.27 80.199C1090.55 80.199 1091.57 79.8638 1092.34 79.1933C1093.11 78.5228 1093.56 77.5894 1093.67 76.393H1091.73C1091.63 77.1936 1091.38 77.7668 1091 78.1113C1090.61 78.4557 1090.04 78.628 1089.27 78.628C1088.43 78.628 1087.8 78.3098 1087.37 77.6722C1086.93 77.0346 1086.71 76.109 1086.71 74.8969V73.9043C1086.72 72.7066 1086.96 71.7982 1087.41 71.1776Z" fill="#6C97D3"/>
</g>
<path d="M912.368 112.047H910.873V120.565H912.368V112.047Z" fill="url(#paint7_linear)"/>
<path opacity="0.8" d="M910.872 112.838H909.143V119.777H910.872V112.838Z" fill="#27334C"/>
<path opacity="0.4" d="M910.872 112.838H909.143V116.307H910.872V112.838Z" fill="#4B6696"/>
<path d="M913.549 111.109H912.367V121.504H913.549V111.109Z" fill="white"/>
<path d="M913.549 111.109H912.367V121.504H913.549V111.109Z" fill="url(#paint8_linear)"/>
<path opacity="0.7" d="M913.549 111.109H912.367V121.504H913.549V111.109Z" fill="#4B6696"/>
<path opacity="0.5" d="M908.98 112.654H908.919C908.21 112.654 907.629 113.235 907.629 113.945V118.664C907.629 119.373 908.21 119.954 908.919 119.954H908.98C909.068 119.954 909.141 119.882 909.141 119.793V112.816C909.141 112.727 909.068 112.654 908.98 112.654Z" fill="url(#paint9_linear)"/>
<path opacity="0.1" d="M908.98 112.654H908.919C908.21 112.654 907.629 113.235 907.629 113.945V118.664C907.629 119.373 908.21 119.954 908.919 119.954H908.98C909.068 119.954 909.141 119.882 909.141 119.793V112.816C909.141 112.727 909.068 112.654 908.98 112.654Z" fill="white"/>
<path d="M1051.9 112.045H1050.41V120.563H1051.9V112.045Z" fill="url(#paint10_linear)"/>
<path opacity="0.8" d="M1053.63 112.834H1051.9V119.773H1053.63V112.834Z" fill="#27334C"/>
<path opacity="0.4" d="M1053.63 112.834H1051.9V116.303H1053.63V112.834Z" fill="#4B6696"/>
<path d="M1050.41 111.109H1049.23V121.504H1050.41V111.109Z" fill="white"/>
<path d="M1050.41 111.109H1049.23V121.504H1050.41V111.109Z" fill="url(#paint11_linear)"/>
<path opacity="0.7" d="M1050.41 111.109H1049.23V121.504H1050.41V111.109Z" fill="#4B6696"/>
<path opacity="0.5" d="M1053.8 112.654H1053.86C1054.57 112.654 1055.15 113.235 1055.15 113.945V118.664C1055.15 119.373 1054.57 119.954 1053.86 119.954H1053.8C1053.71 119.954 1053.63 119.882 1053.63 119.793V112.816C1053.63 112.727 1053.71 112.654 1053.8 112.654Z" fill="url(#paint12_linear)"/>
<path opacity="0.1" d="M1053.8 112.654H1053.86C1054.57 112.654 1055.15 113.235 1055.15 113.945V118.664C1055.15 119.373 1054.57 119.954 1053.86 119.954H1053.8C1053.71 119.954 1053.63 119.882 1053.63 119.793V112.816C1053.63 112.727 1053.71 112.654 1053.8 112.654Z" fill="white"/>
<path d="M911.286 219.471H889.672V226.399H911.286V219.471Z" fill="url(#paint13_linear)"/>
<path d="M913.377 218.58H911.287V227.523H913.377V218.58Z" fill="url(#paint14_linear)"/>
<path opacity="0.4" d="M913.377 218.58H911.287V227.523H913.377V218.58Z" fill="#334163"/>
<path d="M889.67 219.588H849.223V226.517H889.67V219.588Z" fill="white"/>
<path d="M889.67 219.588H849.223V226.517H889.67V219.588Z" fill="url(#paint15_linear)"/>
<path d="M889.673 219.018H848.701V227.083H889.673V219.018Z" fill="url(#paint16_linear)"/>
<path d="M909.511 218.533H904.672V227.566H909.511V218.533Z" fill="#334163"/>
<path d="M894.511 218.533H889.672V227.566H894.511V218.533Z" fill="#334163"/>
<path opacity="0.8" d="M909.511 218.533H904.672V227.566H909.511V218.533Z" fill="#27334C"/>
<path opacity="0.8" d="M894.511 218.533H889.672V227.566H894.511V218.533Z" fill="#27334C"/>
<path opacity="0.8" d="M893.65 218.158H890.531V227.944H893.65V218.158Z" fill="#27334C"/>
<path opacity="0.5" d="M893.65 218.158H890.531V227.944H893.65V218.158Z" fill="#334163"/>
<path opacity="0.8" d="M908.654 218.158H905.535V227.944H908.654V218.158Z" fill="#27334C"/>
<path opacity="0.5" d="M908.654 218.158H905.535V227.944H908.654V218.158Z" fill="#334163"/>
<path opacity="0.4" d="M893.65 218.158H890.531V223.051H893.65V218.158Z" fill="#4B6696"/>
<path opacity="0.4" d="M908.654 218.158H905.535V223.051H908.654V218.158Z" fill="#4B6696"/>
<path d="M1073.03 219.471H1051.42V226.399H1073.03V219.471Z" fill="url(#paint17_linear)"/>
<path d="M1051.42 218.58H1049.33V227.523H1051.42V218.58Z" fill="url(#paint18_linear)"/>
<path opacity="0.4" d="M1051.42 218.58H1049.33V227.523H1051.42V218.58Z" fill="#334163"/>
<path d="M1113.48 219.588H1073.03V226.517H1113.48V219.588Z" fill="white"/>
<path d="M1113.48 219.588H1073.03V226.517H1113.48V219.588Z" fill="url(#paint19_linear)"/>
<path d="M1114 219.018H1073.03V227.083H1114V219.018Z" fill="url(#paint20_linear)"/>
<path d="M1058.03 218.533H1053.19V227.566H1058.03V218.533Z" fill="#334163"/>
<path d="M1073.03 218.533H1068.2V227.566H1073.03V218.533Z" fill="#334163"/>
<path opacity="0.8" d="M1058.03 218.533H1053.19V227.566H1058.03V218.533Z" fill="#27334C"/>
<path opacity="0.8" d="M1073.03 218.533H1068.2V227.566H1073.03V218.533Z" fill="#27334C"/>
<path opacity="0.8" d="M1072.17 218.158H1069.05V227.944H1072.17V218.158Z" fill="#27334C"/>
<path opacity="0.5" d="M1072.17 218.158H1069.05V227.944H1072.17V218.158Z" fill="#334163"/>
<path opacity="0.8" d="M1057.17 218.158H1054.05V227.944H1057.17V218.158Z" fill="#27334C"/>
<path opacity="0.5" d="M1057.17 218.158H1054.05V227.944H1057.17V218.158Z" fill="#334163"/>
<path opacity="0.4" d="M1072.17 218.158H1069.05V223.051H1072.17V218.158Z" fill="#4B6696"/>
<path opacity="0.4" d="M1057.17 218.158H1054.05V223.051H1057.17V218.158Z" fill="#4B6696"/>
<path d="M1047.58 105.428H915.185C914.298 105.428 913.572 106.154 913.572 107.041V112.844H1049.19V107.041C1049.19 106.154 1048.47 105.428 1047.58 105.428Z" fill="#27334C"/>
<path d="M1049.19 119.773H913.572V219.584H1049.19V119.773Z" fill="#27334C"/>
<path d="M913.572 237.485C913.572 238.372 914.298 239.098 915.185 239.098H1047.58C1048.47 239.098 1049.19 238.372 1049.19 237.485V226.512H913.572V237.485Z" fill="#27334C"/>
<path d="M933.576 237.486C933.576 238.374 932.85 239.099 931.963 239.099H915.187C914.3 239.099 913.574 238.374 913.574 237.486V107.043C913.574 106.156 914.3 105.43 915.187 105.43H931.963C932.85 105.43 933.576 106.156 933.576 107.043V237.486Z" fill="white"/>
<path d="M933.576 237.486C933.576 238.374 932.85 239.099 931.963 239.099H915.187C914.3 239.099 913.574 238.374 913.574 237.486V107.043C913.574 106.156 914.3 105.43 915.187 105.43H931.963C932.85 105.43 933.576 106.156 933.576 107.043V237.486Z" fill="url(#paint21_linear)"/>
<path d="M915.185 239.1H931.961C932.848 239.1 933.574 238.374 933.574 237.487V133.498C933.574 131.562 931.248 130.797 924.76 130.758H922.347C915.886 130.8 913.572 131.566 913.572 133.498V237.487C913.572 238.374 914.298 239.1 915.185 239.1Z" fill="#4B6696"/>
<path opacity="0.5" d="M915.185 239.1H931.961C932.848 239.1 933.574 238.374 933.574 237.487V133.498C933.574 131.562 931.248 130.797 924.76 130.758H922.347C915.886 130.8 913.572 131.566 913.572 133.498V237.487C913.572 238.374 914.298 239.1 915.185 239.1Z" fill="url(#paint22_linear)"/>
<path d="M933.574 133.493V132.526C933.574 130.688 931.543 129.906 925.727 129.797C925.19 129.753 924.76 129.428 924.76 128.717V126.328C924.76 126.151 924.614 126.006 924.435 126.006H922.671C922.493 126.006 922.347 126.151 922.347 126.328V128.717C922.347 129.434 921.908 129.759 921.365 129.799C915.587 129.911 913.572 130.694 913.572 132.526V133.493C913.572 131.561 915.886 130.796 922.347 130.753V137.596C922.347 138.348 921.865 138.671 921.285 138.683C915.562 138.801 913.572 139.585 913.572 141.408V237.483C913.572 238.37 914.298 239.096 915.185 239.096H931.961C932.848 239.096 933.574 238.37 933.574 237.483V141.408C933.574 139.58 931.568 138.796 925.806 138.682C925.233 138.664 924.76 138.341 924.76 137.596V130.753C931.248 130.792 933.574 131.557 933.574 133.493Z" fill="#4B6696"/>
<path d="M933.574 133.495V132.528C933.574 130.69 931.543 129.908 925.727 129.799C925.19 129.755 924.76 129.43 924.76 128.72V106.328C924.76 106.151 924.614 106.006 924.435 106.006H922.671C922.493 106.006 922.347 106.151 922.347 106.328V128.72C922.347 129.436 921.908 129.761 921.365 129.801C915.587 129.914 913.572 130.696 913.572 132.528V133.495C913.572 131.563 915.886 130.798 922.347 130.755V137.599C922.347 138.35 921.865 138.673 921.285 138.685C915.562 138.803 913.572 139.587 913.572 141.411V237.485C913.572 238.372 914.298 239.098 915.185 239.098H931.961C932.848 239.098 933.574 238.372 933.574 237.485V141.411C933.574 139.582 931.568 138.798 925.806 138.684C925.233 138.666 924.76 138.343 924.76 137.599V130.755C931.248 130.795 933.574 131.559 933.574 133.495Z" fill="url(#paint23_linear)"/>
<path opacity="0.2" d="M933.576 237.486C933.576 238.374 932.85 239.099 931.963 239.099H915.187C914.3 239.099 913.574 238.374 913.574 237.486V107.043C913.574 106.156 914.3 105.43 915.187 105.43H931.963C932.85 105.43 933.576 106.156 933.576 107.043V237.486Z" fill="#4B6696"/>
<path d="M956.697 237.484C956.697 238.372 955.972 239.097 955.084 239.097H938.308C937.421 239.097 936.695 238.372 936.695 237.484V107.041C936.695 106.154 937.421 105.428 938.308 105.428H955.084C955.972 105.428 956.697 106.154 956.697 107.041V237.484Z" fill="white"/>
<path d="M956.697 237.484C956.697 238.372 955.972 239.097 955.084 239.097H938.308C937.421 239.097 936.695 238.372 936.695 237.484V107.041C936.695 106.154 937.421 105.428 938.308 105.428H955.084C955.972 105.428 956.697 106.154 956.697 107.041V237.484Z" fill="url(#paint24_linear)"/>
<path d="M938.304 239.098H955.08C955.968 239.098 956.693 238.373 956.693 237.485V133.496C956.693 131.56 954.367 130.795 947.878 130.756H945.466C939.005 130.798 936.691 131.564 936.691 133.496V237.485C936.691 238.373 937.417 239.098 938.304 239.098Z" fill="#4B6696"/>
<path opacity="0.5" d="M938.304 239.098H955.08C955.968 239.098 956.693 238.373 956.693 237.485V133.496C956.693 131.56 954.367 130.795 947.878 130.756H945.466C939.005 130.798 936.691 131.564 936.691 133.496V237.485C936.691 238.373 937.417 239.098 938.304 239.098Z" fill="url(#paint25_linear)"/>
<path d="M956.693 133.495V132.528C956.693 130.69 954.662 129.908 948.846 129.799C948.309 129.755 947.878 129.429 947.878 128.719V126.33C947.878 126.153 947.733 126.008 947.554 126.008H945.79C945.612 126.008 945.466 126.153 945.466 126.33V128.719C945.466 129.436 945.027 129.761 944.484 129.8C938.706 129.913 936.691 130.696 936.691 132.528V133.495C936.691 131.563 939.005 130.798 945.466 130.755V137.598C945.466 138.35 944.984 138.673 944.404 138.685C938.681 138.803 936.691 139.587 936.691 141.41V237.485C936.691 238.372 937.417 239.098 938.304 239.098H955.08C955.968 239.098 956.693 238.372 956.693 237.485V141.41C956.693 139.581 954.687 138.798 948.925 138.684C948.352 138.666 947.878 138.343 947.878 137.598V130.755C954.367 130.794 956.693 131.559 956.693 133.495Z" fill="#4B6696"/>
<path d="M956.693 133.495V132.528C956.693 130.69 954.662 129.908 948.846 129.799C948.309 129.755 947.878 129.43 947.878 128.72V106.328C947.878 106.151 947.733 106.006 947.554 106.006H945.79C945.612 106.006 945.466 106.151 945.466 106.328V128.72C945.466 129.436 945.027 129.761 944.484 129.801C938.706 129.914 936.691 130.696 936.691 132.528V133.495C936.691 131.563 939.005 130.798 945.466 130.755V137.599C945.466 138.35 944.984 138.673 944.404 138.685C938.681 138.803 936.691 139.587 936.691 141.411V237.485C936.691 238.372 937.417 239.098 938.304 239.098H955.08C955.968 239.098 956.693 238.372 956.693 237.485V141.411C956.693 139.582 954.687 138.798 948.925 138.684C948.352 138.666 947.878 138.343 947.878 137.599V130.755C954.367 130.795 956.693 131.559 956.693 133.495Z" fill="url(#paint26_linear)"/>
<path opacity="0.2" d="M956.697 237.484C956.697 238.372 955.972 239.097 955.084 239.097H938.308C937.421 239.097 936.695 238.372 936.695 237.484V107.041C936.695 106.154 937.421 105.428 938.308 105.428H955.084C955.972 105.428 956.697 106.154 956.697 107.041V237.484Z" fill="#4B6696"/>
<path d="M979.826 237.484C979.826 238.372 979.1 239.097 978.213 239.097H961.437C960.55 239.097 959.824 238.372 959.824 237.484V107.041C959.824 106.154 960.55 105.428 961.437 105.428H978.213C979.1 105.428 979.826 106.154 979.826 107.041V237.484Z" fill="white"/>
<path d="M979.826 237.484C979.826 238.372 979.1 239.097 978.213 239.097H961.437C960.55 239.097 959.824 238.372 959.824 237.484V107.041C959.824 106.154 960.55 105.428 961.437 105.428H978.213C979.1 105.428 979.826 106.154 979.826 107.041V237.484Z" fill="url(#paint27_linear)"/>
<path d="M961.433 239.098H978.209C979.096 239.098 979.822 238.373 979.822 237.485V133.496C979.822 131.56 977.496 130.795 971.007 130.756H968.595C962.134 130.798 959.82 131.564 959.82 133.496V237.485C959.82 238.373 960.546 239.098 961.433 239.098Z" fill="#4B6696"/>
<path opacity="0.5" d="M961.433 239.098H978.209C979.096 239.098 979.822 238.373 979.822 237.485V133.496C979.822 131.56 977.496 130.795 971.007 130.756H968.595C962.134 130.798 959.82 131.564 959.82 133.496V237.485C959.82 238.373 960.546 239.098 961.433 239.098Z" fill="url(#paint28_linear)"/>
<path d="M979.822 133.493V132.526C979.822 130.688 977.791 129.906 971.974 129.797C971.438 129.753 971.007 129.428 971.007 128.717V126.328C971.007 126.151 970.861 126.006 970.683 126.006H968.919C968.741 126.006 968.595 126.151 968.595 126.328V128.717C968.595 129.434 968.156 129.759 967.613 129.799C961.835 129.911 959.82 130.694 959.82 132.526V133.493C959.82 131.561 962.134 130.796 968.595 130.753V137.596C968.595 138.348 968.113 138.671 967.533 138.683C961.81 138.801 959.82 139.585 959.82 141.408V237.483C959.82 238.37 960.546 239.096 961.433 239.096H978.209C979.097 239.096 979.822 238.37 979.822 237.483V141.408C979.822 139.58 977.816 138.796 972.054 138.682C971.482 138.664 971.008 138.341 971.008 137.596V130.753C977.496 130.792 979.822 131.557 979.822 133.493Z" fill="#4B6696"/>
<path d="M979.822 133.494V132.526C979.822 130.688 977.791 129.906 971.974 129.797C971.438 129.753 971.007 129.428 971.007 128.718V106.327C971.007 106.149 970.861 106.004 970.683 106.004H968.919C968.741 106.004 968.595 106.149 968.595 106.327V128.718C968.595 129.434 968.156 129.759 967.613 129.799C961.835 129.912 959.82 130.694 959.82 132.526V133.494C959.82 131.561 962.134 130.796 968.595 130.753V137.597C968.595 138.348 968.113 138.671 967.533 138.683C961.81 138.802 959.82 139.585 959.82 141.409V237.483C959.82 238.37 960.546 239.096 961.433 239.096H978.209C979.097 239.096 979.822 238.37 979.822 237.483V141.409C979.822 139.58 977.816 138.796 972.054 138.682C971.482 138.664 971.008 138.341 971.008 137.597V130.753C977.496 130.793 979.822 131.557 979.822 133.494Z" fill="url(#paint29_linear)"/>
<path opacity="0.2" d="M979.826 237.484C979.826 238.372 979.1 239.097 978.213 239.097H961.437C960.55 239.097 959.824 238.372 959.824 237.484V107.041C959.824 106.154 960.55 105.428 961.437 105.428H978.213C979.1 105.428 979.826 106.154 979.826 107.041V237.484Z" fill="#4B6696"/>
<path d="M1002.95 237.484C1002.95 238.372 1002.23 239.097 1001.34 239.097H984.562C983.675 239.097 982.949 238.372 982.949 237.484V107.041C982.949 106.154 983.675 105.428 984.562 105.428H1001.34C1002.23 105.428 1002.95 106.154 1002.95 107.041V237.484Z" fill="white"/>
<path d="M1002.95 237.484C1002.95 238.372 1002.23 239.097 1001.34 239.097H984.562C983.675 239.097 982.949 238.372 982.949 237.484V107.041C982.949 106.154 983.675 105.428 984.562 105.428H1001.34C1002.23 105.428 1002.95 106.154 1002.95 107.041V237.484Z" fill="url(#paint30_linear)"/>
<path d="M984.558 239.1H1001.33C1002.22 239.1 1002.95 238.374 1002.95 237.487V133.498C1002.95 131.562 1000.62 130.797 994.132 130.758H991.72C985.259 130.8 982.945 131.566 982.945 133.498V237.487C982.945 238.374 983.671 239.1 984.558 239.1Z" fill="#4B6696"/>
<path opacity="0.5" d="M984.558 239.1H1001.33C1002.22 239.1 1002.95 238.374 1002.95 237.487V133.498C1002.95 131.562 1000.62 130.797 994.132 130.758H991.72C985.259 130.8 982.945 131.566 982.945 133.498V237.487C982.945 238.374 983.671 239.1 984.558 239.1Z" fill="url(#paint31_linear)"/>
<path d="M1002.95 133.493V132.526C1002.95 130.688 1000.92 129.906 995.099 129.797C994.563 129.753 994.132 129.428 994.132 128.717V126.328C994.132 126.151 993.987 126.006 993.808 126.006H992.045C991.866 126.006 991.72 126.151 991.72 126.328V128.717C991.72 129.434 991.281 129.759 990.738 129.799C984.96 129.911 982.945 130.694 982.945 132.526V133.493C982.945 131.561 985.259 130.796 991.72 130.753V137.596C991.72 138.348 991.238 138.671 990.658 138.683C984.935 138.801 982.945 139.585 982.945 141.408V237.483C982.945 238.37 983.671 239.096 984.558 239.096H1001.33C1002.22 239.096 1002.95 238.37 1002.95 237.483V141.408C1002.95 139.58 1000.94 138.796 995.179 138.682C994.606 138.664 994.132 138.341 994.132 137.596V130.753C1000.62 130.792 1002.95 131.557 1002.95 133.493Z" fill="#4B6696"/>
<path d="M1002.95 133.495V132.528C1002.95 130.69 1000.92 129.908 995.099 129.799C994.563 129.755 994.132 129.43 994.132 128.72V106.328C994.132 106.151 993.987 106.006 993.808 106.006H992.045C991.866 106.006 991.72 106.151 991.72 106.328V128.72C991.72 129.436 991.281 129.761 990.738 129.801C984.96 129.914 982.945 130.696 982.945 132.528V133.495C982.945 131.563 985.259 130.798 991.72 130.755V137.599C991.72 138.35 991.238 138.673 990.658 138.685C984.935 138.803 982.945 139.587 982.945 141.411V237.485C982.945 238.372 983.671 239.098 984.558 239.098H1001.33C1002.22 239.098 1002.95 238.372 1002.95 237.485V141.411C1002.95 139.582 1000.94 138.798 995.179 138.684C994.606 138.666 994.132 138.343 994.132 137.599V130.755C1000.62 130.795 1002.95 131.559 1002.95 133.495Z" fill="url(#paint32_linear)"/>
<path opacity="0.2" d="M1002.95 237.484C1002.95 238.372 1002.23 239.097 1001.34 239.097H984.562C983.675 239.097 982.949 238.372 982.949 237.484V107.041C982.949 106.154 983.675 105.428 984.562 105.428H1001.34C1002.23 105.428 1002.95 106.154 1002.95 107.041V237.484Z" fill="#4B6696"/>
<path d="M1026.07 237.484C1026.07 238.372 1025.35 239.097 1024.46 239.097H1007.69C1006.8 239.097 1006.07 238.372 1006.07 237.484V107.041C1006.07 106.154 1006.8 105.428 1007.69 105.428H1024.46C1025.35 105.428 1026.07 106.154 1026.07 107.041V237.484Z" fill="white"/>
<path d="M1026.07 237.484C1026.07 238.372 1025.35 239.097 1024.46 239.097H1007.69C1006.8 239.097 1006.07 238.372 1006.07 237.484V107.041C1006.07 106.154 1006.8 105.428 1007.69 105.428H1024.46C1025.35 105.428 1026.07 106.154 1026.07 107.041V237.484Z" fill="url(#paint33_linear)"/>
<path d="M1007.68 239.1H1024.46C1025.35 239.1 1026.07 238.374 1026.07 237.487V133.498C1026.07 131.562 1023.75 130.797 1017.26 130.758H1014.85C1008.38 130.8 1006.07 131.566 1006.07 133.498V237.487C1006.07 238.374 1006.8 239.1 1007.68 239.1Z" fill="#4B6696"/>
<path opacity="0.5" d="M1007.68 239.1H1024.46C1025.35 239.1 1026.07 238.374 1026.07 237.487V133.498C1026.07 131.562 1023.75 130.797 1017.26 130.758H1014.85C1008.38 130.8 1006.07 131.566 1006.07 133.498V237.487C1006.07 238.374 1006.8 239.1 1007.68 239.1Z" fill="url(#paint34_linear)"/>
<path d="M1026.07 133.495V132.528C1026.07 130.69 1024.04 129.908 1018.23 129.799C1017.69 129.755 1017.26 129.429 1017.26 128.719V126.33C1017.26 126.153 1017.11 126.008 1016.93 126.008H1015.17C1014.99 126.008 1014.85 126.153 1014.85 126.33V128.719C1014.85 129.436 1014.41 129.761 1013.86 129.8C1008.08 129.913 1006.07 130.696 1006.07 132.528V133.495C1006.07 131.563 1008.38 130.798 1014.85 130.755V137.598C1014.85 138.35 1014.36 138.673 1013.78 138.685C1008.06 138.803 1006.07 139.587 1006.07 141.41V237.485C1006.07 238.372 1006.8 239.098 1007.68 239.098H1024.46C1025.35 239.098 1026.07 238.372 1026.07 237.485V141.41C1026.07 139.581 1024.07 138.798 1018.3 138.684C1017.73 138.666 1017.26 138.343 1017.26 137.598V130.755C1023.75 130.794 1026.07 131.559 1026.07 133.495Z" fill="#4B6696"/>
<path d="M1026.07 133.497V132.53C1026.07 130.692 1024.04 129.91 1018.23 129.801C1017.69 129.757 1017.26 129.432 1017.26 128.721V106.33C1017.26 106.153 1017.11 106.008 1016.93 106.008H1015.17C1014.99 106.008 1014.85 106.153 1014.85 106.33V128.721C1014.85 129.438 1014.41 129.763 1013.86 129.803C1008.08 129.915 1006.07 130.698 1006.07 132.53V133.497C1006.07 131.565 1008.38 130.8 1014.85 130.757V137.6C1014.85 138.352 1014.36 138.675 1013.78 138.687C1008.06 138.805 1006.07 139.589 1006.07 141.412V237.487C1006.07 238.374 1006.8 239.1 1007.68 239.1H1024.46C1025.35 239.1 1026.07 238.374 1026.07 237.487V141.412C1026.07 139.584 1024.07 138.8 1018.3 138.686C1017.73 138.668 1017.26 138.345 1017.26 137.6V130.757C1023.75 130.797 1026.07 131.561 1026.07 133.497Z" fill="url(#paint35_linear)"/>
<path opacity="0.2" d="M1026.07 237.484C1026.07 238.372 1025.35 239.097 1024.46 239.097H1007.69C1006.8 239.097 1006.07 238.372 1006.07 237.484V107.041C1006.07 106.154 1006.8 105.428 1007.69 105.428H1024.46C1025.35 105.428 1026.07 106.154 1026.07 107.041V237.484Z" fill="#4B6696"/>
<path d="M1049.2 237.486C1049.2 238.374 1048.47 239.099 1047.58 239.099H1030.81C1029.92 239.099 1029.2 238.374 1029.2 237.486V107.043C1029.2 106.156 1029.92 105.43 1030.81 105.43H1047.58C1048.47 105.43 1049.2 106.156 1049.2 107.043V237.486Z" fill="white"/>
<path d="M1049.2 237.486C1049.2 238.374 1048.47 239.099 1047.58 239.099H1030.81C1029.92 239.099 1029.2 238.374 1029.2 237.486V107.043C1029.2 106.156 1029.92 105.43 1030.81 105.43H1047.58C1048.47 105.43 1049.2 106.156 1049.2 107.043V237.486Z" fill="url(#paint36_linear)"/>
<path d="M1030.81 239.102H1047.58C1048.47 239.102 1049.2 238.376 1049.2 237.489V133.5C1049.2 131.564 1046.87 130.799 1040.38 130.76H1037.97C1031.51 130.802 1029.19 131.568 1029.19 133.5V237.489C1029.19 238.376 1029.92 239.102 1030.81 239.102Z" fill="#4B6696"/>
<path opacity="0.5" d="M1030.81 239.102H1047.58C1048.47 239.102 1049.2 238.376 1049.2 237.489V133.5C1049.2 131.564 1046.87 130.799 1040.38 130.76H1037.97C1031.51 130.802 1029.19 131.568 1029.19 133.5V237.489C1029.19 238.376 1029.92 239.102 1030.81 239.102Z" fill="url(#paint37_linear)"/>
<path d="M1049.2 133.495V132.528C1049.2 130.69 1047.16 129.908 1041.35 129.799C1040.81 129.755 1040.38 129.429 1040.38 128.719V126.33C1040.38 126.153 1040.23 126.008 1040.06 126.008H1038.29C1038.11 126.008 1037.97 126.153 1037.97 126.33V128.719C1037.97 129.436 1037.53 129.761 1036.99 129.8C1031.21 129.913 1029.19 130.696 1029.19 132.528V133.495C1029.19 131.563 1031.51 130.798 1037.97 130.755V137.598C1037.97 138.35 1037.49 138.673 1036.91 138.685C1031.18 138.803 1029.19 139.587 1029.19 141.41V237.485C1029.19 238.372 1029.92 239.098 1030.81 239.098H1047.58C1048.47 239.098 1049.2 238.372 1049.2 237.485V141.41C1049.2 139.581 1047.19 138.798 1041.43 138.684C1040.85 138.666 1040.38 138.343 1040.38 137.598V130.755C1046.87 130.794 1049.2 131.559 1049.2 133.495Z" fill="#4B6696"/>
<path d="M1049.2 133.497V132.53C1049.2 130.692 1047.16 129.91 1041.35 129.801C1040.81 129.757 1040.38 129.432 1040.38 128.721V106.33C1040.38 106.153 1040.23 106.008 1040.06 106.008H1038.29C1038.11 106.008 1037.97 106.153 1037.97 106.33V128.721C1037.97 129.438 1037.53 129.763 1036.99 129.803C1031.21 129.915 1029.19 130.698 1029.19 132.53V133.497C1029.19 131.565 1031.51 130.8 1037.97 130.757V137.6C1037.97 138.352 1037.49 138.675 1036.91 138.687C1031.18 138.805 1029.19 139.589 1029.19 141.412V237.487C1029.19 238.374 1029.92 239.1 1030.81 239.1H1047.58C1048.47 239.1 1049.2 238.374 1049.2 237.487V141.412C1049.2 139.584 1047.19 138.8 1041.43 138.686C1040.85 138.668 1040.38 138.345 1040.38 137.6V130.757C1046.87 130.797 1049.2 131.561 1049.2 133.497Z" fill="url(#paint38_linear)"/>
<path opacity="0.2" d="M1049.2 237.486C1049.2 238.374 1048.47 239.099 1047.58 239.099H1030.81C1029.92 239.099 1029.2 238.374 1029.2 237.486V107.043C1029.2 106.156 1029.92 105.43 1030.81 105.43H1047.58C1048.47 105.43 1049.2 106.156 1049.2 107.043V237.486Z" fill="#4B6696"/>
<g opacity="0.8">
<path opacity="0.8" d="M900.14 228.472C902.605 228.472 904.603 226.474 904.603 224.01C904.603 221.545 902.605 219.547 900.14 219.547C897.676 219.547 895.678 221.545 895.678 224.01C895.678 226.474 897.676 228.472 900.14 228.472Z" fill="#334163"/>
<path opacity="0.4" d="M900.14 228.472C902.605 228.472 904.603 226.474 904.603 224.01C904.603 221.545 902.605 219.547 900.14 219.547C897.676 219.547 895.678 221.545 895.678 224.01C895.678 226.474 897.676 228.472 900.14 228.472Z" fill="#4B6696"/>
<path opacity="0.8" d="M902.975 226.859C902.918 227.021 902.734 227.181 902.565 227.214L899.089 227.884C898.92 227.917 898.689 227.837 898.577 227.707L896.258 225.032C896.144 224.902 896.099 224.662 896.155 224.499L897.312 221.154C897.368 220.992 897.553 220.832 897.722 220.799L901.198 220.128C901.368 220.096 901.598 220.176 901.711 220.306L904.03 222.98C904.143 223.111 904.188 223.35 904.132 223.513L902.975 226.859Z" fill="#4B6696"/>
<path opacity="0.2" d="M902.975 226.859C902.918 227.021 902.734 227.181 902.565 227.214L899.089 227.884C898.92 227.917 898.689 227.837 898.577 227.707L896.258 225.032C896.144 224.902 896.099 224.662 896.155 224.499L897.312 221.154C897.368 220.992 897.553 220.832 897.722 220.799L901.198 220.128C901.368 220.096 901.598 220.176 901.711 220.306L904.03 222.98C904.143 223.111 904.188 223.35 904.132 223.513L902.975 226.859Z" fill="url(#paint39_linear)"/>
<path opacity="0.1" d="M902.975 226.859C902.918 227.021 902.734 227.181 902.565 227.214L899.089 227.884C898.92 227.917 898.689 227.837 898.577 227.707L896.258 225.032C896.144 224.902 896.099 224.662 896.155 224.499L897.312 221.154C897.368 220.992 897.553 220.832 897.722 220.799L901.198 220.128C901.368 220.096 901.598 220.176 901.711 220.306L904.03 222.98C904.143 223.111 904.188 223.35 904.132 223.513L902.975 226.859Z" fill="url(#paint40_radial)"/>
</g>
<g opacity="0.8">
<path opacity="0.8" d="M1064.03 228.474C1066.49 228.474 1068.49 226.476 1068.49 224.012C1068.49 221.547 1066.49 219.549 1064.03 219.549C1061.56 219.549 1059.57 221.547 1059.57 224.012C1059.57 226.476 1061.56 228.474 1064.03 228.474Z" fill="#334163"/>
<path opacity="0.4" d="M1064.03 228.474C1066.49 228.474 1068.49 226.476 1068.49 224.012C1068.49 221.547 1066.49 219.549 1064.03 219.549C1061.56 219.549 1059.57 221.547 1059.57 224.012C1059.57 226.476 1061.56 228.474 1064.03 228.474Z" fill="#4B6696"/>
<path opacity="0.8" d="M1066.86 226.859C1066.8 227.021 1066.62 227.181 1066.45 227.214L1062.98 227.884C1062.81 227.917 1062.58 227.837 1062.46 227.707L1060.14 225.032C1060.03 224.902 1059.99 224.662 1060.04 224.499L1061.2 221.154C1061.26 220.992 1061.44 220.832 1061.61 220.799L1065.08 220.128C1065.25 220.096 1065.48 220.176 1065.6 220.306L1067.92 222.98C1068.03 223.111 1068.07 223.35 1068.02 223.513L1066.86 226.859Z" fill="#4B6696"/>
<path opacity="0.2" d="M1066.86 226.859C1066.8 227.021 1066.62 227.181 1066.45 227.214L1062.98 227.884C1062.81 227.917 1062.58 227.837 1062.46 227.707L1060.14 225.032C1060.03 224.902 1059.99 224.662 1060.04 224.499L1061.2 221.154C1061.26 220.992 1061.44 220.832 1061.61 220.799L1065.08 220.128C1065.25 220.096 1065.48 220.176 1065.6 220.306L1067.92 222.98C1068.03 223.111 1068.07 223.35 1068.02 223.513L1066.86 226.859Z" fill="url(#paint41_linear)"/>
<path opacity="0.1" d="M1066.86 226.859C1066.8 227.021 1066.62 227.181 1066.45 227.214L1062.98 227.884C1062.81 227.917 1062.58 227.837 1062.46 227.707L1060.14 225.032C1060.03 224.902 1059.99 224.662 1060.04 224.499L1061.2 221.154C1061.26 220.992 1061.44 220.832 1061.61 220.799L1065.08 220.128C1065.25 220.096 1065.48 220.176 1065.6 220.306L1067.92 222.98C1068.03 223.111 1068.07 223.35 1068.02 223.513L1066.86 226.859Z" fill="url(#paint42_radial)"/>
</g>
<path opacity="0.3" d="M1047.58 105.43H915.185C914.298 105.43 913.572 106.156 913.572 107.043V237.486C913.572 238.374 914.298 239.099 915.185 239.099H1047.58C1048.47 239.099 1049.19 238.374 1049.19 237.486V107.043C1049.19 106.156 1048.47 105.43 1047.58 105.43Z" fill="#334163"/>
<path opacity="0.02" d="M1118.49 53.4606C1133.13 63.1926 1152.88 59.2206 1162.61 44.5856C1172.34 29.9506 1168.37 10.2006 1153.73 0.469607C1139.1 -9.26339 1119.35 -5.29142 1109.62 9.34558C1099.89 23.9776 1103.86 43.7296 1118.49 53.4606Z" fill="url(#paint43_linear)"/>
<path opacity="0.02" d="M1232.09 130.748C1246.64 120.892 1250.44 101.108 1240.58 86.558C1230.72 72.009 1210.94 68.21 1196.39 78.068C1181.84 87.93 1178.04 107.714 1187.9 122.261C1197.76 136.809 1217.54 140.61 1232.09 130.748Z" fill="url(#paint44_linear)"/>
<path opacity="0.02" d="M1026.04 15.6385C1043.3 18.9545 1059.98 7.65153 1063.29 -9.60647C1066.61 -26.8675 1055.31 -43.5435 1038.05 -46.8575C1020.79 -50.1755 1004.11 -38.8725 1000.8 -21.6135C997.48 -4.35549 1008.78 12.3245 1026.04 15.6385Z" fill="url(#paint45_linear)"/>
</g>
<defs>
<radialGradient id="paint0_radial" cx="0" cy="0" r="1" gradientUnits="userSpaceOnUse" gradientTransform="translate(898.878 307.689) scale(456.22)">
<stop offset="0.618394" stop-color="#334163"/>
<stop offset="0.8032" stop-color="#D51E3C" stop-opacity="0.8"/>
<stop offset="0.9495" stop-color="#FF9827"/>
</radialGradient>
<linearGradient id="paint1_linear" x1="963.953" y1="21.9867" x2="1453.29" y2="215.32" gradientUnits="userSpaceOnUse">
<stop stop-color="#D51E3C"/>
<stop offset="1" stop-color="#FFF064"/>
</linearGradient>
<linearGradient id="paint2_linear" x1="914.564" y1="146.991" x2="1403.9" y2="340.324" gradientUnits="userSpaceOnUse">
<stop stop-color="#D51E3C"/>
<stop offset="1" stop-color="#FFF064"/>
</linearGradient>
<linearGradient id="paint3_linear" x1="962.849" y1="24.7803" x2="1452.18" y2="218.114" gradientUnits="userSpaceOnUse">
<stop stop-color="#D51E3C"/>
<stop offset="1" stop-color="#FFF064"/>
</linearGradient>
<linearGradient id="paint4_linear" x1="943.629" y1="73.4296" x2="1432.96" y2="266.763" gradientUnits="userSpaceOnUse">
<stop stop-color="#D51E3C"/>
<stop offset="1" stop-color="#FFF064"/>
</linearGradient>
<linearGradient id="paint5_linear" x1="970.089" y1="6.45646" x2="1459.42" y2="199.79" gradientUnits="userSpaceOnUse">
<stop stop-color="#D51E3C"/>
<stop offset="1" stop-color="#FFF064"/>
</linearGradient>
<linearGradient id="paint6_linear" x1="1079.38" y1="123.058" x2="1079.38" y2="100.928" gradientUnits="userSpaceOnUse">
<stop stop-color="#ED3D5A"/>
<stop offset="1" stop-color="#ED3D5A" stop-opacity="0.44"/>
</linearGradient>
<linearGradient id="paint7_linear" x1="911.621" y1="120.565" x2="911.621" y2="112.047" gradientUnits="userSpaceOnUse">
<stop stop-color="#212A3F"/>
<stop offset="0.123" stop-color="#2A3752"/>
<stop offset="0.3504" stop-color="#394C70"/>
<stop offset="0.5751" stop-color="#435A85"/>
<stop offset="0.7939" stop-color="#496392"/>
<stop offset="1" stop-color="#4B6696"/>
</linearGradient>
<linearGradient id="paint8_linear" x1="912.958" y1="121.504" x2="912.958" y2="111.109" gradientUnits="userSpaceOnUse">
<stop stop-color="#4B6696" stop-opacity="0.7"/>
<stop offset="1" stop-color="white"/>
</linearGradient>
<linearGradient id="paint9_linear" x1="907.629" y1="116.304" x2="909.141" y2="116.304" gradientUnits="userSpaceOnUse">
<stop stop-color="white"/>
<stop offset="0.0831" stop-color="#E4E8EF"/>
<stop offset="0.2413" stop-color="#B5C0D4"/>
<stop offset="0.3998" stop-color="#8FA0BE"/>
<stop offset="0.5563" stop-color="#7187AC"/>
<stop offset="0.7098" stop-color="#5C75A0"/>
<stop offset="0.8593" stop-color="#4F6A99"/>
<stop offset="1" stop-color="#4B6696"/>
</linearGradient>
<linearGradient id="paint10_linear" x1="1051.16" y1="120.563" x2="1051.16" y2="112.045" gradientUnits="userSpaceOnUse">
<stop stop-color="#212A3F"/>
<stop offset="0.123" stop-color="#2A3752"/>
<stop offset="0.3504" stop-color="#394C70"/>
<stop offset="0.5751" stop-color="#435A85"/>
<stop offset="0.7939" stop-color="#496392"/>
<stop offset="1" stop-color="#4B6696"/>
</linearGradient>
<linearGradient id="paint11_linear" x1="1049.82" y1="121.504" x2="1049.82" y2="111.109" gradientUnits="userSpaceOnUse">
<stop stop-color="#4B6696" stop-opacity="0.7"/>
<stop offset="1" stop-color="white"/>
</linearGradient>
<linearGradient id="paint12_linear" x1="1055.15" y1="116.304" x2="1053.63" y2="116.304" gradientUnits="userSpaceOnUse">
<stop stop-color="white"/>
<stop offset="0.0831" stop-color="#E4E8EF"/>
<stop offset="0.2413" stop-color="#B5C0D4"/>
<stop offset="0.3998" stop-color="#8FA0BE"/>
<stop offset="0.5563" stop-color="#7187AC"/>
<stop offset="0.7098" stop-color="#5C75A0"/>
<stop offset="0.8593" stop-color="#4F6A99"/>
<stop offset="1" stop-color="#4B6696"/>
</linearGradient>
<linearGradient id="paint13_linear" x1="900.479" y1="226.399" x2="900.479" y2="219.471" gradientUnits="userSpaceOnUse">
<stop stop-color="#212A3F"/>
<stop offset="0.123" stop-color="#2A3752"/>
<stop offset="0.3504" stop-color="#394C70"/>
<stop offset="0.5751" stop-color="#435A85"/>
<stop offset="0.7939" stop-color="#496392"/>
<stop offset="1" stop-color="#4B6696"/>
</linearGradient>
<linearGradient id="paint14_linear" x1="912.332" y1="227.522" x2="912.332" y2="218.58" gradientUnits="userSpaceOnUse">
<stop stop-color="#4B6696" stop-opacity="0.7"/>
<stop offset="0.0922" stop-color="#465F8E" stop-opacity="0.8097"/>
<stop offset="0.2523" stop-color="#405684"/>
<stop offset="0.3326" stop-color="#475C88"/>
<stop offset="0.4487" stop-color="#5A6D95"/>
<stop offset="0.5864" stop-color="#7A89A9"/>
<stop offset="0.7408" stop-color="#A5B0C5"/>
<stop offset="0.907" stop-color="#DDE1E9"/>
<stop offset="1" stop-color="white"/>
</linearGradient>
<linearGradient id="paint15_linear" x1="869.461" y1="226.517" x2="869.461" y2="219.588" gradientUnits="userSpaceOnUse">
<stop stop-color="#4B6696" stop-opacity="0.7"/>
<stop offset="0.211" stop-color="#334163"/>
<stop offset="0.5505" stop-color="#4B6696"/>
<stop offset="1" stop-color="white"/>
</linearGradient>
<linearGradient id="paint16_linear" x1="848.701" y1="223.05" x2="889.673" y2="223.05" gradientUnits="userSpaceOnUse">
<stop stop-color="#334163"/>
<stop offset="1" stop-color="#334163" stop-opacity="0.5"/>
</linearGradient>
<linearGradient id="paint17_linear" x1="1062.23" y1="226.399" x2="1062.23" y2="219.471" gradientUnits="userSpaceOnUse">
<stop stop-color="#212A3F"/>
<stop offset="0.123" stop-color="#2A3752"/>
<stop offset="0.3504" stop-color="#394C70"/>
<stop offset="0.5751" stop-color="#435A85"/>
<stop offset="0.7939" stop-color="#496392"/>
<stop offset="1" stop-color="#4B6696"/>
</linearGradient>
<linearGradient id="paint18_linear" x1="1050.37" y1="227.522" x2="1050.37" y2="218.58" gradientUnits="userSpaceOnUse">
<stop stop-color="#4B6696" stop-opacity="0.7"/>
<stop offset="0.0922" stop-color="#465F8E" stop-opacity="0.8097"/>
<stop offset="0.2523" stop-color="#405684"/>
<stop offset="0.3326" stop-color="#475C88"/>
<stop offset="0.4487" stop-color="#5A6D95"/>
<stop offset="0.5864" stop-color="#7A89A9"/>
<stop offset="0.7408" stop-color="#A5B0C5"/>
<stop offset="0.907" stop-color="#DDE1E9"/>
<stop offset="1" stop-color="white"/>
</linearGradient>
<linearGradient id="paint19_linear" x1="1093.22" y1="226.517" x2="1093.22" y2="219.588" gradientUnits="userSpaceOnUse">
<stop stop-color="#4B6696" stop-opacity="0.7"/>
<stop offset="0.211" stop-color="#334163"/>
<stop offset="0.5505" stop-color="#4B6696"/>
<stop offset="1" stop-color="white"/>
</linearGradient>
<linearGradient id="paint20_linear" x1="1114" y1="223.05" x2="1073.03" y2="223.05" gradientUnits="userSpaceOnUse">
<stop stop-color="#334163"/>
<stop offset="1" stop-color="#334163" stop-opacity="0.5"/>
</linearGradient>
<linearGradient id="paint21_linear" x1="923.575" y1="239.099" x2="923.575" y2="105.43" gradientUnits="userSpaceOnUse">
<stop stop-color="white"/>
<stop offset="0.8532" stop-color="#405684" stop-opacity="0.7"/>
<stop offset="0.8807" stop-color="#4B6696" stop-opacity="0.6"/>
<stop offset="0.8894" stop-color="#7085AC" stop-opacity="0.629"/>
<stop offset="0.9" stop-color="#96A6C2" stop-opacity="0.6646"/>
<stop offset="0.9115" stop-color="#B6C1D5" stop-opacity="0.703"/>
<stop offset="0.9237" stop-color="#D1D8E4" stop-opacity="0.7442"/>
<stop offset="0.9371" stop-color="#E5E9F0" stop-opacity="0.7891"/>
<stop offset="0.9522" stop-color="#F4F6F9" stop-opacity="0.8398"/>
<stop offset="0.9704" stop-color="#FCFDFE" stop-opacity="0.9007"/>
<stop offset="1" stop-color="white"/>
</linearGradient>
<linearGradient id="paint22_linear" x1="923.573" y1="239.1" x2="923.573" y2="130.758" gradientUnits="userSpaceOnUse">
<stop stop-color="#4B6696" stop-opacity="0.5"/>
<stop offset="0.3996" stop-color="#4D6897" stop-opacity="0.6998"/>
<stop offset="0.5436" stop-color="#546D9B" stop-opacity="0.7718"/>
<stop offset="0.6462" stop-color="#5F77A2" stop-opacity="0.8231"/>
<stop offset="0.7292" stop-color="#7086AC" stop-opacity="0.8646"/>
<stop offset="0.8003" stop-color="#8698B9" stop-opacity="0.9002"/>
<stop offset="0.8632" stop-color="#A2B0C8" stop-opacity="0.9316"/>
<stop offset="0.9201" stop-color="#C2CBDB" stop-opacity="0.9601"/>
<stop offset="0.9707" stop-color="#E6EAF1" stop-opacity="0.9853"/>
<stop offset="1" stop-color="white"/>
</linearGradient>
<linearGradient id="paint23_linear" x1="923.573" y1="239.098" x2="923.573" y2="106.006" gradientUnits="userSpaceOnUse">
<stop stop-color="white" stop-opacity="0.5"/>
<stop offset="1" stop-color="white"/>
</linearGradient>
<linearGradient id="paint24_linear" x1="946.696" y1="239.097" x2="946.696" y2="105.428" gradientUnits="userSpaceOnUse">
<stop stop-color="white"/>
<stop offset="0.8532" stop-color="#405684" stop-opacity="0.7"/>
<stop offset="0.8807" stop-color="#4B6696" stop-opacity="0.6"/>
<stop offset="0.8894" stop-color="#7085AC" stop-opacity="0.629"/>
<stop offset="0.9" stop-color="#96A6C2" stop-opacity="0.6646"/>
<stop offset="0.9115" stop-color="#B6C1D5" stop-opacity="0.703"/>
<stop offset="0.9237" stop-color="#D1D8E4" stop-opacity="0.7442"/>
<stop offset="0.9371" stop-color="#E5E9F0" stop-opacity="0.7891"/>
<stop offset="0.9522" stop-color="#F4F6F9" stop-opacity="0.8398"/>
<stop offset="0.9704" stop-color="#FCFDFE" stop-opacity="0.9007"/>
<stop offset="1" stop-color="white"/>
</linearGradient>
<linearGradient id="paint25_linear" x1="946.692" y1="239.098" x2="946.692" y2="130.756" gradientUnits="userSpaceOnUse">
<stop stop-color="#4B6696" stop-opacity="0.5"/>
<stop offset="0.3996" stop-color="#4D6897" stop-opacity="0.6998"/>
<stop offset="0.5436" stop-color="#546D9B" stop-opacity="0.7718"/>
<stop offset="0.6462" stop-color="#5F77A2" stop-opacity="0.8231"/>
<stop offset="0.7292" stop-color="#7086AC" stop-opacity="0.8646"/>
<stop offset="0.8003" stop-color="#8698B9" stop-opacity="0.9002"/>
<stop offset="0.8632" stop-color="#A2B0C8" stop-opacity="0.9316"/>
<stop offset="0.9201" stop-color="#C2CBDB" stop-opacity="0.9601"/>
<stop offset="0.9707" stop-color="#E6EAF1" stop-opacity="0.9853"/>
<stop offset="1" stop-color="white"/>
</linearGradient>
<linearGradient id="paint26_linear" x1="946.692" y1="239.098" x2="946.692" y2="106.006" gradientUnits="userSpaceOnUse">
<stop stop-color="white" stop-opacity="0.5"/>
<stop offset="1" stop-color="white"/>
</linearGradient>
<linearGradient id="paint27_linear" x1="969.825" y1="239.097" x2="969.825" y2="105.428" gradientUnits="userSpaceOnUse">
<stop stop-color="white"/>
<stop offset="0.8532" stop-color="#405684" stop-opacity="0.7"/>
<stop offset="0.8807" stop-color="#4B6696" stop-opacity="0.6"/>
<stop offset="0.8894" stop-color="#7085AC" stop-opacity="0.629"/>
<stop offset="0.9" stop-color="#96A6C2" stop-opacity="0.6646"/>
<stop offset="0.9115" stop-color="#B6C1D5" stop-opacity="0.703"/>
<stop offset="0.9237" stop-color="#D1D8E4" stop-opacity="0.7442"/>
<stop offset="0.9371" stop-color="#E5E9F0" stop-opacity="0.7891"/>
<stop offset="0.9522" stop-color="#F4F6F9" stop-opacity="0.8398"/>
<stop offset="0.9704" stop-color="#FCFDFE" stop-opacity="0.9007"/>
<stop offset="1" stop-color="white"/>
</linearGradient>
<linearGradient id="paint28_linear" x1="969.821" y1="239.098" x2="969.821" y2="130.756" gradientUnits="userSpaceOnUse">
<stop stop-color="#4B6696" stop-opacity="0.5"/>
<stop offset="0.3996" stop-color="#4D6897" stop-opacity="0.6998"/>
<stop offset="0.5436" stop-color="#546D9B" stop-opacity="0.7718"/>
<stop offset="0.6462" stop-color="#5F77A2" stop-opacity="0.8231"/>
<stop offset="0.7292" stop-color="#7086AC" stop-opacity="0.8646"/>
<stop offset="0.8003" stop-color="#8698B9" stop-opacity="0.9002"/>
<stop offset="0.8632" stop-color="#A2B0C8" stop-opacity="0.9316"/>
<stop offset="0.9201" stop-color="#C2CBDB" stop-opacity="0.9601"/>
<stop offset="0.9707" stop-color="#E6EAF1" stop-opacity="0.9853"/>
<stop offset="1" stop-color="white"/>
</linearGradient>
<linearGradient id="paint29_linear" x1="969.821" y1="239.096" x2="969.821" y2="106.004" gradientUnits="userSpaceOnUse">
<stop stop-color="white" stop-opacity="0.5"/>
<stop offset="1" stop-color="white"/>
</linearGradient>
<linearGradient id="paint30_linear" x1="992.95" y1="239.097" x2="992.95" y2="105.428" gradientUnits="userSpaceOnUse">
<stop stop-color="white"/>
<stop offset="0.8532" stop-color="#405684" stop-opacity="0.7"/>
<stop offset="0.8807" stop-color="#4B6696" stop-opacity="0.6"/>
<stop offset="0.8894" stop-color="#7085AC" stop-opacity="0.629"/>
<stop offset="0.9" stop-color="#96A6C2" stop-opacity="0.6646"/>
<stop offset="0.9115" stop-color="#B6C1D5" stop-opacity="0.703"/>
<stop offset="0.9237" stop-color="#D1D8E4" stop-opacity="0.7442"/>
<stop offset="0.9371" stop-color="#E5E9F0" stop-opacity="0.7891"/>
<stop offset="0.9522" stop-color="#F4F6F9" stop-opacity="0.8398"/>
<stop offset="0.9704" stop-color="#FCFDFE" stop-opacity="0.9007"/>
<stop offset="1" stop-color="white"/>
</linearGradient>
<linearGradient id="paint31_linear" x1="992.946" y1="239.1" x2="992.946" y2="130.758" gradientUnits="userSpaceOnUse">
<stop stop-color="#4B6696" stop-opacity="0.5"/>
<stop offset="0.3996" stop-color="#4D6897" stop-opacity="0.6998"/>
<stop offset="0.5436" stop-color="#546D9B" stop-opacity="0.7718"/>
<stop offset="0.6462" stop-color="#5F77A2" stop-opacity="0.8231"/>
<stop offset="0.7292" stop-color="#7086AC" stop-opacity="0.8646"/>
<stop offset="0.8003" stop-color="#8698B9" stop-opacity="0.9002"/>
<stop offset="0.8632" stop-color="#A2B0C8" stop-opacity="0.9316"/>
<stop offset="0.9201" stop-color="#C2CBDB" stop-opacity="0.9601"/>
<stop offset="0.9707" stop-color="#E6EAF1" stop-opacity="0.9853"/>
<stop offset="1" stop-color="white"/>
</linearGradient>
<linearGradient id="paint32_linear" x1="992.946" y1="239.098" x2="992.946" y2="106.006" gradientUnits="userSpaceOnUse">
<stop stop-color="white" stop-opacity="0.5"/>
<stop offset="1" stop-color="white"/>
</linearGradient>
<linearGradient id="paint33_linear" x1="1016.07" y1="239.097" x2="1016.07" y2="105.428" gradientUnits="userSpaceOnUse">
<stop stop-color="white"/>
<stop offset="0.8532" stop-color="#405684" stop-opacity="0.7"/>
<stop offset="0.8807" stop-color="#4B6696" stop-opacity="0.6"/>
<stop offset="0.8894" stop-color="#7085AC" stop-opacity="0.629"/>
<stop offset="0.9" stop-color="#96A6C2" stop-opacity="0.6646"/>
<stop offset="0.9115" stop-color="#B6C1D5" stop-opacity="0.703"/>
<stop offset="0.9237" stop-color="#D1D8E4" stop-opacity="0.7442"/>
<stop offset="0.9371" stop-color="#E5E9F0" stop-opacity="0.7891"/>
<stop offset="0.9522" stop-color="#F4F6F9" stop-opacity="0.8398"/>
<stop offset="0.9704" stop-color="#FCFDFE" stop-opacity="0.9007"/>
<stop offset="1" stop-color="white"/>
</linearGradient>
<linearGradient id="paint34_linear" x1="1016.07" y1="239.1" x2="1016.07" y2="130.758" gradientUnits="userSpaceOnUse">
<stop stop-color="#4B6696" stop-opacity="0.5"/>
<stop offset="0.3996" stop-color="#4D6897" stop-opacity="0.6998"/>
<stop offset="0.5436" stop-color="#546D9B" stop-opacity="0.7718"/>
<stop offset="0.6462" stop-color="#5F77A2" stop-opacity="0.8231"/>
<stop offset="0.7292" stop-color="#7086AC" stop-opacity="0.8646"/>
<stop offset="0.8003" stop-color="#8698B9" stop-opacity="0.9002"/>
<stop offset="0.8632" stop-color="#A2B0C8" stop-opacity="0.9316"/>
<stop offset="0.9201" stop-color="#C2CBDB" stop-opacity="0.9601"/>
<stop offset="0.9707" stop-color="#E6EAF1" stop-opacity="0.9853"/>
<stop offset="1" stop-color="white"/>
</linearGradient>
<linearGradient id="paint35_linear" x1="1016.07" y1="239.1" x2="1016.07" y2="106.008" gradientUnits="userSpaceOnUse">
<stop stop-color="white" stop-opacity="0.5"/>
<stop offset="1" stop-color="white"/>
</linearGradient>
<linearGradient id="paint36_linear" x1="1039.2" y1="239.099" x2="1039.2" y2="105.43" gradientUnits="userSpaceOnUse">
<stop stop-color="white"/>
<stop offset="0.8532" stop-color="#405684" stop-opacity="0.7"/>
<stop offset="0.8807" stop-color="#4B6696" stop-opacity="0.6"/>
<stop offset="0.8894" stop-color="#7085AC" stop-opacity="0.629"/>
<stop offset="0.9" stop-color="#96A6C2" stop-opacity="0.6646"/>
<stop offset="0.9115" stop-color="#B6C1D5" stop-opacity="0.703"/>
<stop offset="0.9237" stop-color="#D1D8E4" stop-opacity="0.7442"/>
<stop offset="0.9371" stop-color="#E5E9F0" stop-opacity="0.7891"/>
<stop offset="0.9522" stop-color="#F4F6F9" stop-opacity="0.8398"/>
<stop offset="0.9704" stop-color="#FCFDFE" stop-opacity="0.9007"/>
<stop offset="1" stop-color="white"/>
</linearGradient>
<linearGradient id="paint37_linear" x1="1039.19" y1="239.102" x2="1039.19" y2="130.76" gradientUnits="userSpaceOnUse">
<stop stop-color="#4B6696" stop-opacity="0.5"/>
<stop offset="0.3996" stop-color="#4D6897" stop-opacity="0.6998"/>
<stop offset="0.5436" stop-color="#546D9B" stop-opacity="0.7718"/>
<stop offset="0.6462" stop-color="#5F77A2" stop-opacity="0.8231"/>
<stop offset="0.7292" stop-color="#7086AC" stop-opacity="0.8646"/>
<stop offset="0.8003" stop-color="#8698B9" stop-opacity="0.9002"/>
<stop offset="0.8632" stop-color="#A2B0C8" stop-opacity="0.9316"/>
<stop offset="0.9201" stop-color="#C2CBDB" stop-opacity="0.9601"/>
<stop offset="0.9707" stop-color="#E6EAF1" stop-opacity="0.9853"/>
<stop offset="1" stop-color="white"/>
</linearGradient>
<linearGradient id="paint38_linear" x1="1039.19" y1="239.1" x2="1039.19" y2="106.008" gradientUnits="userSpaceOnUse">
<stop stop-color="white" stop-opacity="0.5"/>
<stop offset="1" stop-color="white"/>
</linearGradient>
<linearGradient id="paint39_linear" x1="896.131" y1="224.006" x2="904.156" y2="224.006" gradientUnits="userSpaceOnUse">
<stop stop-color="#405684"/>
<stop offset="0.1074" stop-color="#475C88"/>
<stop offset="0.2626" stop-color="#5A6D95"/>
<stop offset="0.4469" stop-color="#7A89A9"/>
<stop offset="0.6534" stop-color="#A5B0C5"/>
<stop offset="0.8757" stop-color="#DDE1E9"/>
<stop offset="1" stop-color="white"/>
</linearGradient>
<radialGradient id="paint40_radial" cx="0" cy="0" r="1" gradientUnits="userSpaceOnUse" gradientTransform="translate(900.145 224.007) scale(3.94966)">
<stop stop-color="white"/>
<stop offset="0.1363" stop-color="#ECEEF3"/>
<stop offset="0.4136" stop-color="#BAC2D3"/>
<stop offset="0.8032" stop-color="#6B7C9F"/>
<stop offset="1" stop-color="#405684"/>
</radialGradient>
<linearGradient id="paint41_linear" x1="1060.02" y1="224.006" x2="1068.04" y2="224.006" gradientUnits="userSpaceOnUse">
<stop stop-color="#405684"/>
<stop offset="0.1074" stop-color="#475C88"/>
<stop offset="0.2626" stop-color="#5A6D95"/>
<stop offset="0.4469" stop-color="#7A89A9"/>
<stop offset="0.6534" stop-color="#A5B0C5"/>
<stop offset="0.8757" stop-color="#DDE1E9"/>
<stop offset="1" stop-color="white"/>
</linearGradient>
<radialGradient id="paint42_radial" cx="0" cy="0" r="1" gradientUnits="userSpaceOnUse" gradientTransform="translate(1064.04 224.007) scale(3.94951)">
<stop stop-color="white"/>
<stop offset="0.1363" stop-color="#ECEEF3"/>
<stop offset="0.4136" stop-color="#BAC2D3"/>
<stop offset="0.8032" stop-color="#6B7C9F"/>
<stop offset="1" stop-color="#405684"/>
</radialGradient>
<linearGradient id="paint43_linear" x1="1244.51" y1="334.582" x2="1133.52" y2="19.593" gradientUnits="userSpaceOnUse">
<stop stop-color="#D51E3C"/>
<stop offset="1" stop-color="#FFF064"/>
</linearGradient>
<linearGradient id="paint44_linear" x1="1289.73" y1="318.651" x2="1178.73" y2="3.657" gradientUnits="userSpaceOnUse">
<stop stop-color="#D51E3C"/>
<stop offset="1" stop-color="#FFF064"/>
</linearGradient>
<linearGradient id="paint45_linear" x1="1165.28" y1="362.491" x2="1054.29" y2="47.5119" gradientUnits="userSpaceOnUse">
<stop stop-color="#D51E3C"/>
<stop offset="1" stop-color="#FFF064"/>
</linearGradient>
</defs>
</svg>
