<svg width="1210" height="880" viewBox="0 0 1210 880" fill="none" xmlns="http://www.w3.org/2000/svg">
<mask id="mask0" mask-type="alpha" maskUnits="userSpaceOnUse" x="0" y="0" width="1210" height="880">
<path d="M1210 0H0V880H1210V0Z" fill="#334163"/>
</mask>
<g mask="url(#mask0)">
<path opacity="0.2" d="M899.695 0C1071.08 0.0241951 1210 138.963 1210 310.348V0H899.695Z" fill="url(#paint0_radial)"/>
<path opacity="0.05" d="M978.265 129.162C987.904 129.162 995.719 121.347 995.719 111.708C995.719 102.068 987.904 94.2539 978.265 94.2539C968.625 94.2539 960.811 102.068 960.811 111.708C960.811 121.347 968.625 129.162 978.265 129.162Z" fill="#4B6696"/>
<path opacity="0.02" d="M1134.62 285.517C1144.26 285.517 1152.07 277.703 1152.07 268.063C1152.07 258.424 1144.26 250.609 1134.62 250.609C1124.98 250.609 1117.17 258.424 1117.17 268.063C1117.17 277.703 1124.98 285.517 1134.62 285.517Z" fill="#4B6696"/>
<path opacity="0.02" d="M821.909 285.517C831.549 285.517 839.363 277.703 839.363 268.063C839.363 258.424 831.549 250.609 821.909 250.609C812.27 250.609 804.455 258.424 804.455 268.063C804.455 277.703 812.27 285.517 821.909 285.517Z" fill="#4B6696"/>
<path opacity="0.03" d="M867.706 174.959C877.346 174.959 885.16 167.144 885.16 157.505C885.16 147.865 877.346 140.051 867.706 140.051C858.066 140.051 850.252 147.865 850.252 157.505C850.252 167.144 858.066 174.959 867.706 174.959Z" fill="#4B6696"/>
<path opacity="0.07" d="M1088.82 174.957C1098.46 174.957 1106.28 167.143 1106.28 157.504C1106.28 147.865 1098.46 140.051 1088.82 140.051C1079.18 140.051 1071.37 147.865 1071.37 157.504C1071.37 167.143 1079.18 174.957 1088.82 174.957Z" fill="#4B6696"/>
<path opacity="0.04" d="M917.8 141.326C927.439 141.326 935.254 133.512 935.254 123.872C935.254 114.232 927.439 106.418 917.8 106.418C908.16 106.418 900.346 114.232 900.346 123.872C900.346 133.512 908.16 141.326 917.8 141.326Z" fill="#4B6696"/>
<path opacity="0.05" d="M1122.45 225.051C1132.09 225.051 1139.91 217.237 1139.91 207.598C1139.91 197.959 1132.09 190.145 1122.45 190.145C1112.82 190.145 1105 197.959 1105 207.598C1105 217.237 1112.82 225.051 1122.45 225.051Z" fill="#4B6696"/>
<path opacity="0.02" d="M833.55 226.31C843.189 226.31 851.004 218.496 851.004 208.856C851.004 199.217 843.189 191.402 833.55 191.402C823.91 191.402 816.096 199.217 816.096 208.856C816.096 218.496 823.91 226.31 833.55 226.31Z" fill="#4B6696"/>
<path opacity="0.07" d="M1037.47 140.802C1047.11 140.802 1054.92 132.988 1054.92 123.349C1054.92 113.709 1047.11 105.895 1037.47 105.895C1027.83 105.895 1020.01 113.709 1020.01 123.349C1020.01 132.988 1027.83 140.802 1037.47 140.802Z" fill="#4B6696"/>
<path opacity="0.05" d="M978.263 54.3067C992.992 54.3067 1004.93 42.3666 1004.93 27.6378C1004.93 12.9089 992.992 0.96875 978.263 0.96875C963.534 0.96875 951.594 12.9089 951.594 27.6378C951.594 42.3666 963.534 54.3067 978.263 54.3067Z" fill="url(#paint1_linear)"/>
<path opacity="0.02" d="M1217.17 293.213C1231.9 293.213 1243.84 281.273 1243.84 266.544C1243.84 251.815 1231.9 239.875 1217.17 239.875C1202.44 239.875 1190.5 251.815 1190.5 266.544C1190.5 281.273 1202.44 293.213 1217.17 293.213Z" fill="url(#paint2_linear)"/>
<path opacity="0.02" d="M739.355 293.213C754.083 293.213 766.024 281.273 766.024 266.544C766.024 251.815 754.083 239.875 739.355 239.875C724.626 239.875 712.686 251.815 712.686 266.544C712.686 281.273 724.626 293.213 739.355 293.213Z" fill="#4B6696"/>
<path opacity="0.04" d="M809.331 124.283C824.06 124.283 836 112.343 836 97.6143C836 82.8854 824.06 70.9453 809.331 70.9453C794.602 70.9453 782.662 82.8854 782.662 97.6143C782.662 112.343 794.602 124.283 809.331 124.283Z" fill="#4B6696"/>
<path opacity="0.05" d="M1147.2 124.279C1161.93 124.279 1173.87 112.339 1173.87 97.6104C1173.87 82.8815 1161.93 70.9414 1147.2 70.9414C1132.47 70.9414 1120.53 82.8815 1120.53 97.6104C1120.53 112.339 1132.47 124.279 1147.2 124.279Z" fill="url(#paint3_linear)"/>
<path opacity="0.03" d="M885.874 72.8927C900.603 72.8927 912.543 60.9526 912.543 46.2237C912.543 31.4948 900.603 19.5547 885.874 19.5547C871.145 19.5547 859.205 31.4948 859.205 46.2237C859.205 60.9526 871.145 72.8927 885.874 72.8927Z" fill="#4B6696"/>
<path opacity="0.03" d="M1198.59 200.826C1213.31 200.826 1225.25 188.886 1225.25 174.157C1225.25 159.428 1213.31 147.488 1198.59 147.488C1183.86 147.488 1171.92 159.428 1171.92 174.157C1171.92 188.886 1183.86 200.826 1198.59 200.826Z" fill="url(#paint4_linear)"/>
<path opacity="0.03" d="M757.142 202.752C771.871 202.752 783.811 190.812 783.811 176.083C783.811 161.354 771.871 149.414 757.142 149.414C742.413 149.414 730.473 161.354 730.473 176.083C730.473 190.812 742.413 202.752 757.142 202.752Z" fill="#4B6696"/>
<path opacity="0.05" d="M1068.73 72.0958C1083.45 72.0958 1095.39 60.1557 1095.39 45.4268C1095.39 30.6979 1083.45 18.7578 1068.73 18.7578C1054 18.7578 1042.06 30.6979 1042.06 45.4268C1042.06 60.1557 1054 72.0958 1068.73 72.0958Z" fill="url(#paint5_linear)"/>
<path opacity="0.08" d="M940.161 97.9899C952.123 97.9899 961.82 88.2928 961.82 76.3309C961.82 64.3689 952.123 54.6719 940.161 54.6719C928.199 54.6719 918.502 64.3689 918.502 76.3309C918.502 88.2928 928.199 97.9899 940.161 97.9899Z" fill="#4B6696"/>
<path opacity="0.05" d="M1168.64 249.937C1180.6 249.937 1190.3 240.24 1190.3 228.279C1190.3 216.318 1180.6 206.621 1168.64 206.621C1156.68 206.621 1146.98 216.318 1146.98 228.279C1146.98 240.24 1156.68 249.937 1168.64 249.937Z" fill="#4B6696"/>
<path opacity="0.04" d="M828.864 141.068C838.824 147.69 841.527 161.135 834.904 171.095C828.279 181.056 814.836 183.761 804.877 177.137C794.916 170.513 792.211 157.07 798.836 147.109C805.457 137.148 818.902 134.443 828.864 141.068Z" fill="#4B6696"/>
<path opacity="0.1" d="M1085.87 126.644C1097.83 126.644 1107.53 116.948 1107.53 104.986C1107.53 93.0248 1097.83 83.3281 1085.87 83.3281C1073.91 83.3281 1064.21 93.0248 1064.21 104.986C1064.21 116.948 1073.91 126.644 1085.87 126.644Z" fill="#4B6696"/>
<path opacity="0.06" d="M869.581 127.588C881.543 127.588 891.24 117.89 891.24 105.929C891.24 93.9666 881.543 84.2695 869.581 84.2695C857.619 84.2695 847.922 93.9666 847.922 105.929C847.922 117.89 857.619 127.588 869.581 127.588Z" fill="#4B6696"/>
<path opacity="0.07" d="M1139.04 179.355C1151 179.355 1160.7 169.658 1160.7 157.697C1160.7 145.736 1151 136.039 1139.04 136.039C1127.08 136.039 1117.38 145.736 1117.38 157.697C1117.38 169.658 1127.08 179.355 1139.04 179.355Z" fill="#4B6696"/>
<path opacity="0.02" d="M787.888 251.599C799.849 251.599 809.547 241.902 809.547 229.94C809.547 217.978 799.849 208.281 787.888 208.281C775.926 208.281 766.229 217.978 766.229 229.94C766.229 241.902 775.926 251.599 787.888 251.599Z" fill="#4B6696"/>
<path opacity="0.1" d="M1015.03 97.6656C1026.99 97.6656 1036.69 87.9686 1036.69 76.0067C1036.69 64.0447 1026.99 54.3477 1015.03 54.3477C1003.07 54.3477 993.373 64.0447 993.373 76.0067C993.373 87.9686 1003.07 97.6656 1015.03 97.6656Z" fill="#4B6696"/>
<path opacity="0.05" d="M952.999 154.779C960.931 154.779 967.361 148.349 967.361 140.417C967.361 132.485 960.931 126.055 952.999 126.055C945.067 126.055 938.637 132.485 938.637 140.417C938.637 148.349 945.067 154.779 952.999 154.779Z" fill="#4B6696"/>
<path opacity="0.05" d="M1104.51 255.533C1112.44 255.533 1118.87 249.103 1118.87 241.171C1118.87 233.239 1112.44 226.809 1104.51 226.809C1096.57 226.809 1090.14 233.239 1090.14 241.171C1090.14 249.103 1096.57 255.533 1104.51 255.533Z" fill="#4B6696"/>
<path opacity="0.03" d="M871.241 209.665C879.173 209.665 885.603 203.235 885.603 195.303C885.603 187.371 879.173 180.941 871.241 180.941C863.309 180.941 856.879 187.371 856.879 195.303C856.879 203.235 863.309 209.665 871.241 209.665Z" fill="#4B6696"/>
<path opacity="0.05" d="M1061.58 167.368C1057.18 173.972 1048.27 175.765 1041.67 171.374C1035.06 166.981 1033.27 158.067 1037.66 151.463C1042.05 144.856 1050.97 143.063 1057.57 147.455C1064.18 151.848 1065.97 160.762 1061.58 167.368Z" fill="#4B6696"/>
<path opacity="0.04" d="M906.196 174.404C914.128 174.404 920.558 167.974 920.558 160.042C920.558 152.11 914.128 145.68 906.196 145.68C898.264 145.68 891.834 152.11 891.834 160.042C891.834 167.974 898.264 174.404 906.196 174.404Z" fill="#4B6696"/>
<path opacity="0.05" d="M1084.88 208.732C1092.81 208.732 1099.24 202.302 1099.24 194.37C1099.24 186.438 1092.81 180.008 1084.88 180.008C1076.95 180.008 1070.52 186.438 1070.52 194.37C1070.52 202.302 1076.95 208.732 1084.88 208.732Z" fill="#4B6696"/>
<path opacity="0.02" d="M852.023 256.636C859.956 256.636 866.386 250.206 866.386 242.273C866.386 234.341 859.956 227.91 852.023 227.91C844.091 227.91 837.66 234.341 837.66 242.273C837.66 250.206 844.091 256.636 852.023 256.636Z" fill="#4B6696"/>
<path opacity="0.05" d="M1002.65 154.56C1010.58 154.56 1017.01 148.13 1017.01 140.198C1017.01 132.266 1010.58 125.836 1002.65 125.836C994.713 125.836 988.283 132.266 988.283 140.198C988.283 148.13 994.713 154.56 1002.65 154.56Z" fill="#4B6696"/>
<path d="M1085.96 111.562V91.718C1085.96 88.0881 1083.01 85.1445 1079.38 85.1445C1075.75 85.1445 1072.81 88.0881 1072.81 91.718V111.562C1070.41 113.489 1068.87 116.445 1068.87 119.764C1068.87 125.574 1073.57 130.282 1079.38 130.282C1085.19 130.282 1089.9 125.574 1089.9 119.764C1089.9 116.445 1088.36 113.489 1085.96 111.562ZM1079.38 127.334C1075.2 127.334 1071.81 123.946 1071.81 119.764C1071.81 116.892 1073.41 114.396 1075.77 113.112V91.718C1075.77 89.721 1077.39 88.1026 1079.38 88.1026C1081.38 88.1026 1083 89.721 1083 91.718V113.112C1085.36 114.396 1086.95 116.892 1086.95 119.764C1086.95 123.946 1083.56 127.334 1079.38 127.334Z" fill="#2B3753"/>
<path opacity="0.5" d="M1080.69 116.758V91.7209C1080.69 90.9952 1080.1 90.4062 1079.38 90.4062C1078.65 90.4062 1078.06 90.9952 1078.06 91.7209V116.758C1076.9 117.265 1076.09 118.421 1076.09 119.767C1076.09 121.583 1077.56 123.054 1079.38 123.054C1081.19 123.054 1082.67 121.583 1082.67 119.767C1082.67 118.421 1081.85 117.265 1080.69 116.758Z" fill="#6C97D3"/>
<path d="M1080.69 116.756V102.237C1080.69 101.51 1080.1 100.922 1079.38 100.922C1078.65 100.922 1078.06 101.51 1078.06 102.237V116.756C1076.9 117.263 1076.09 118.419 1076.09 119.765C1076.09 121.581 1077.56 123.052 1079.38 123.052C1081.19 123.052 1082.67 121.581 1082.67 119.765C1082.67 118.419 1081.85 117.263 1080.69 116.756Z" fill="url(#paint6_linear)"/>
<path opacity="0.5" d="M1092.96 91.5005H1089.51C1088.78 91.5005 1088.2 90.9115 1088.2 90.1858C1088.2 89.4601 1088.78 88.8711 1089.51 88.8711H1092.96C1093.69 88.8711 1094.28 89.4601 1094.28 90.1858C1094.28 90.9115 1093.69 91.5005 1092.96 91.5005Z" fill="#6C97D3"/>
<path opacity="0.5" d="M1096.91 96.9809H1089.51C1088.78 96.9809 1088.2 96.392 1088.2 95.6663C1088.2 94.9405 1088.78 94.3516 1089.51 94.3516H1096.91C1097.63 94.3516 1098.22 94.9405 1098.22 95.6663C1098.22 96.392 1097.63 96.9809 1096.91 96.9809Z" fill="#6C97D3"/>
<path opacity="0.5" d="M1092.96 102.458H1089.51C1088.78 102.458 1088.2 101.87 1088.2 101.143C1088.2 100.416 1088.78 99.8281 1089.51 99.8281H1092.96C1093.69 99.8281 1094.28 100.416 1094.28 101.143C1094.28 101.87 1093.69 102.458 1092.96 102.458Z" fill="#6C97D3"/>
<path opacity="0.5" d="M1096.91 107.934H1089.51C1088.78 107.934 1088.2 107.345 1088.2 106.619C1088.2 105.894 1088.78 105.305 1089.51 105.305H1096.91C1097.63 105.305 1098.22 105.894 1098.22 106.619C1098.22 107.345 1097.63 107.934 1096.91 107.934Z" fill="#6C97D3"/>
<g opacity="0.5">
<path d="M1069.32 75.6134C1070.04 74.8325 1070.56 74.1357 1070.87 73.5218C1071.19 72.9078 1071.35 72.3214 1071.35 71.7614C1071.35 70.7964 1071.03 70.0392 1070.4 69.4922C1069.77 68.9453 1068.91 68.6719 1067.83 68.6719C1067.07 68.6719 1066.4 68.8231 1065.83 69.1268C1065.25 69.4305 1064.8 69.8551 1064.49 70.402C1064.18 70.9489 1064.03 71.5642 1064.03 72.2465H1065.9C1065.9 71.6049 1066.07 71.0988 1066.4 70.7294C1066.73 70.3599 1067.2 70.1746 1067.81 70.1746C1068.32 70.1746 1068.72 70.3389 1069.02 70.6676C1069.32 70.9962 1069.47 71.4275 1069.47 71.9612C1069.47 72.3675 1069.36 72.7711 1069.13 73.1747C1068.9 73.5783 1068.52 74.0805 1067.98 74.6813L1064.24 78.7568V80.0439H1071.79V78.5478H1066.58L1069.32 75.6134Z" fill="#6C97D3"/>
<path d="M1078.54 74.2882C1079.05 74.0621 1079.46 73.7269 1079.78 73.2825C1080.1 72.8381 1080.26 72.3648 1080.26 71.8613C1080.26 70.8595 1079.94 70.0786 1079.3 69.5159C1078.66 68.9532 1077.78 68.6719 1076.66 68.6719C1075.99 68.6719 1075.37 68.8047 1074.83 69.0689C1074.28 69.3332 1073.85 69.7013 1073.55 70.1746C1073.24 70.6479 1073.09 71.1711 1073.09 71.7456H1074.96C1074.96 71.2789 1075.12 70.899 1075.45 70.6097C1075.77 70.3205 1076.18 70.1746 1076.69 70.1746C1077.26 70.1746 1077.69 70.3218 1077.97 70.6176C1078.25 70.9134 1078.39 71.3275 1078.39 71.8613C1078.39 72.4161 1078.22 72.8394 1077.88 73.1326C1077.55 73.4258 1077.09 73.5743 1076.52 73.5796H1075.38V75.0586H1076.48C1077.17 75.0586 1077.69 75.2177 1078.04 75.5359C1078.39 75.854 1078.56 76.3089 1078.56 76.8992C1078.56 77.4842 1078.39 77.9312 1078.06 78.2402C1077.72 78.5491 1077.27 78.7029 1076.69 78.7029C1076.13 78.7029 1075.68 78.5491 1075.35 78.2402C1075.02 77.9312 1074.85 77.5316 1074.85 77.0386H1072.98C1072.98 77.9943 1073.32 78.7595 1074.01 79.334C1074.7 79.9085 1075.58 80.1964 1076.66 80.1964C1077.79 80.1964 1078.7 79.898 1079.39 79.3024C1080.08 78.7069 1080.42 77.9049 1080.42 76.8992C1080.42 76.2721 1080.26 75.7331 1079.94 75.2821C1079.62 74.8312 1079.15 74.4986 1078.54 74.2882Z" fill="#6C97D3"/>
<path d="M1098.6 70.5808C1098.57 70.005 1098.39 69.5422 1098.05 69.1938C1097.71 68.8454 1097.27 68.6719 1096.73 68.6719C1096.37 68.6719 1096.04 68.756 1095.76 68.9256C1095.48 69.0939 1095.26 69.3371 1095.11 69.6526C1094.95 69.9668 1094.87 70.3218 1094.87 70.7149V70.7596C1094.87 71.388 1095.04 71.8902 1095.38 72.2662C1095.72 72.6435 1096.17 72.8315 1096.74 72.8315C1097.11 72.8315 1097.44 72.7461 1097.72 72.5752C1098 72.4056 1098.22 72.1637 1098.37 71.8521C1098.52 71.5405 1098.6 71.1869 1098.6 70.7912L1098.6 70.5808ZM1097.45 71.7561C1097.28 71.9928 1097.04 72.1124 1096.74 72.1124C1096.44 72.1124 1096.2 71.9954 1096.03 71.7627C1095.86 71.5287 1095.77 71.2053 1095.77 70.7925C1095.77 70.3284 1095.86 69.9787 1096.03 69.746C1096.21 69.512 1096.44 69.395 1096.73 69.395C1097.03 69.395 1097.27 69.5133 1097.44 69.7512C1097.62 69.9879 1097.7 70.3087 1097.7 70.7136C1097.7 71.1711 1097.62 71.5182 1097.45 71.7561Z" fill="#6C97D3"/>
<path d="M1087.41 71.1737C1087.86 70.5545 1088.51 70.2442 1089.36 70.2442C1090.09 70.2442 1090.65 70.423 1091.02 70.7793C1091.4 71.1356 1091.63 71.718 1091.73 72.5239H1093.67C1093.54 71.296 1093.1 70.3481 1092.35 69.6776C1091.6 69.0071 1090.6 68.6719 1089.36 68.6719C1088.44 68.6719 1087.63 68.8901 1086.93 69.3266C1086.23 69.7631 1085.69 70.3849 1085.32 71.1908C1084.94 71.9967 1084.75 72.9288 1084.75 73.9872V75.035C1084.77 76.067 1084.96 76.9741 1085.33 77.7537C1085.7 78.5333 1086.23 79.1368 1086.91 79.5601C1087.59 79.9835 1088.37 80.1951 1089.27 80.1951C1090.55 80.1951 1091.57 79.8599 1092.34 79.1894C1093.11 78.5189 1093.55 77.5855 1093.67 76.3891H1091.73C1091.62 77.1897 1091.38 77.7629 1090.99 78.1074C1090.61 78.4518 1090.04 78.6241 1089.27 78.6241C1088.43 78.6241 1087.8 78.3059 1087.36 77.6683C1086.93 77.0307 1086.71 76.1051 1086.71 74.893V73.9004C1086.72 72.7027 1086.96 71.7943 1087.41 71.1737Z" fill="#6C97D3"/>
</g>
<path d="M912.366 112.043H910.871V120.561H912.366V112.043Z" fill="url(#paint7_linear)"/>
<path opacity="0.8" d="M910.87 112.836H909.141V119.775H910.87V112.836Z" fill="#27334C"/>
<path opacity="0.4" d="M910.87 112.836H909.141V116.305H910.87V112.836Z" fill="#4B6696"/>
<path d="M913.547 111.105H912.365V121.5H913.547V111.105Z" fill="white"/>
<path d="M913.547 111.105H912.365V121.5H913.547V111.105Z" fill="url(#paint8_linear)"/>
<path opacity="0.7" d="M913.547 111.105H912.365V121.5H913.547V111.105Z" fill="#4B6696"/>
<path opacity="0.5" d="M908.978 112.652H908.917C908.208 112.652 907.627 113.233 907.627 113.943V118.662C907.627 119.371 908.208 119.952 908.917 119.952H908.978C909.066 119.952 909.139 119.88 909.139 119.791V112.814C909.139 112.725 909.066 112.652 908.978 112.652Z" fill="url(#paint9_linear)"/>
<path opacity="0.1" d="M908.978 112.652H908.917C908.208 112.652 907.627 113.233 907.627 113.943V118.662C907.627 119.371 908.208 119.952 908.917 119.952H908.978C909.066 119.952 909.139 119.88 909.139 119.791V112.814C909.139 112.725 909.066 112.652 908.978 112.652Z" fill="white"/>
<path d="M1051.9 112.039H1050.41V120.557H1051.9V112.039Z" fill="url(#paint10_linear)"/>
<path opacity="0.8" d="M1053.63 112.828H1051.9V119.767H1053.63V112.828Z" fill="#27334C"/>
<path opacity="0.4" d="M1053.63 112.828H1051.9V116.298H1053.63V112.828Z" fill="#4B6696"/>
<path d="M1050.41 111.105H1049.23V121.5H1050.41V111.105Z" fill="white"/>
<path d="M1050.41 111.105H1049.23V121.5H1050.41V111.105Z" fill="url(#paint11_linear)"/>
<path opacity="0.7" d="M1050.41 111.105H1049.23V121.5H1050.41V111.105Z" fill="#4B6696"/>
<path opacity="0.5" d="M1053.79 112.648H1053.85C1054.56 112.648 1055.15 113.229 1055.15 113.939V118.658C1055.15 119.368 1054.56 119.948 1053.85 119.948H1053.79C1053.71 119.948 1053.63 119.876 1053.63 119.787V112.81C1053.63 112.721 1053.71 112.648 1053.79 112.648Z" fill="url(#paint12_linear)"/>
<path opacity="0.1" d="M1053.79 112.648H1053.85C1054.56 112.648 1055.15 113.229 1055.15 113.939V118.658C1055.15 119.368 1054.56 119.948 1053.85 119.948H1053.79C1053.71 119.948 1053.63 119.876 1053.63 119.787V112.81C1053.63 112.721 1053.71 112.648 1053.79 112.648Z" fill="white"/>
<path d="M911.284 219.469H889.67V226.398H911.284V219.469Z" fill="url(#paint13_linear)"/>
<path d="M913.375 218.578H911.285V227.521H913.375V218.578Z" fill="url(#paint14_linear)"/>
<path opacity="0.4" d="M913.375 218.578H911.285V227.521H913.375V218.578Z" fill="#334163"/>
<path d="M889.668 219.586H849.221V226.515H889.668V219.586Z" fill="white"/>
<path d="M889.668 219.586H849.221V226.515H889.668V219.586Z" fill="url(#paint15_linear)"/>
<path d="M889.671 219.016H848.699V227.081H889.671V219.016Z" fill="url(#paint16_linear)"/>
<path d="M909.509 218.531H904.67V227.564H909.509V218.531Z" fill="#334163"/>
<path d="M894.509 218.531H889.67V227.564H894.509V218.531Z" fill="#334163"/>
<path opacity="0.8" d="M909.509 218.531H904.67V227.564H909.509V218.531Z" fill="#27334C"/>
<path opacity="0.8" d="M894.509 218.531H889.67V227.564H894.509V218.531Z" fill="#27334C"/>
<path opacity="0.8" d="M893.648 218.156H890.529V227.942H893.648V218.156Z" fill="#27334C"/>
<path opacity="0.5" d="M893.648 218.156H890.529V227.942H893.648V218.156Z" fill="#334163"/>
<path opacity="0.8" d="M908.652 218.156H905.533V227.942H908.652V218.156Z" fill="#27334C"/>
<path opacity="0.5" d="M908.652 218.156H905.533V227.942H908.652V218.156Z" fill="#334163"/>
<path opacity="0.4" d="M893.648 218.156H890.529V223.049H893.648V218.156Z" fill="#4B6696"/>
<path opacity="0.4" d="M908.652 218.156H905.533V223.049H908.652V218.156Z" fill="#4B6696"/>
<path d="M1073.03 219.469H1051.42V226.398H1073.03V219.469Z" fill="url(#paint17_linear)"/>
<path d="M1051.41 218.578H1049.32V227.521H1051.41V218.578Z" fill="url(#paint18_linear)"/>
<path opacity="0.4" d="M1051.41 218.578H1049.32V227.521H1051.41V218.578Z" fill="#334163"/>
<path d="M1113.48 219.586H1073.03V226.515H1113.48V219.586Z" fill="white"/>
<path d="M1113.48 219.586H1073.03V226.515H1113.48V219.586Z" fill="url(#paint19_linear)"/>
<path d="M1114 219.016H1073.03V227.081H1114V219.016Z" fill="url(#paint20_linear)"/>
<path d="M1058.03 218.531H1053.19V227.564H1058.03V218.531Z" fill="#334163"/>
<path d="M1073.03 218.531H1068.19V227.564H1073.03V218.531Z" fill="#334163"/>
<path opacity="0.8" d="M1058.03 218.531H1053.19V227.564H1058.03V218.531Z" fill="#27334C"/>
<path opacity="0.8" d="M1073.03 218.531H1068.19V227.564H1073.03V218.531Z" fill="#27334C"/>
<path opacity="0.8" d="M1072.17 218.156H1069.05V227.942H1072.17V218.156Z" fill="#27334C"/>
<path opacity="0.5" d="M1072.17 218.156H1069.05V227.942H1072.17V218.156Z" fill="#334163"/>
<path opacity="0.8" d="M1057.17 218.156H1054.05V227.942H1057.17V218.156Z" fill="#27334C"/>
<path opacity="0.5" d="M1057.17 218.156H1054.05V227.942H1057.17V218.156Z" fill="#334163"/>
<path opacity="0.4" d="M1072.17 218.156H1069.05V223.049H1072.17V218.156Z" fill="#4B6696"/>
<path opacity="0.4" d="M1057.17 218.156H1054.05V223.049H1057.17V218.156Z" fill="#4B6696"/>
<path d="M1047.58 105.426H915.183C914.296 105.426 913.57 106.152 913.57 107.039V112.842H1049.19V107.039C1049.19 106.152 1048.47 105.426 1047.58 105.426Z" fill="#27334C"/>
<path d="M1049.19 119.77H913.57V219.58H1049.19V119.77Z" fill="#27334C"/>
<path d="M913.57 237.485C913.57 238.372 914.296 239.098 915.183 239.098H1047.58C1048.47 239.098 1049.19 238.372 1049.19 237.485V226.512H913.57V237.485Z" fill="#27334C"/>
<path d="M933.574 237.482C933.574 238.37 932.848 239.096 931.961 239.096H915.185C914.298 239.096 913.572 238.37 913.572 237.482V107.039C913.572 106.152 914.298 105.426 915.185 105.426H931.961C932.848 105.426 933.574 106.152 933.574 107.039V237.482Z" fill="white"/>
<path d="M933.574 237.482C933.574 238.37 932.848 239.096 931.961 239.096H915.185C914.298 239.096 913.572 238.37 913.572 237.482V107.039C913.572 106.152 914.298 105.426 915.185 105.426H931.961C932.848 105.426 933.574 106.152 933.574 107.039V237.482Z" fill="url(#paint21_linear)"/>
<path d="M915.183 239.096H931.959C932.847 239.096 933.572 238.371 933.572 237.483V133.494C933.572 131.558 931.246 130.793 924.758 130.754H922.345C915.884 130.796 913.57 131.562 913.57 133.494V237.483C913.57 238.371 914.296 239.096 915.183 239.096Z" fill="#4B6696"/>
<path opacity="0.5" d="M915.183 239.096H931.959C932.847 239.096 933.572 238.371 933.572 237.483V133.494C933.572 131.558 931.246 130.793 924.758 130.754H922.345C915.884 130.796 913.57 131.562 913.57 133.494V237.483C913.57 238.371 914.296 239.096 915.183 239.096Z" fill="url(#paint22_linear)"/>
<path d="M933.572 133.488V132.52C933.572 130.682 931.541 129.9 925.725 129.791C925.188 129.747 924.758 129.422 924.758 128.712V126.323C924.758 126.145 924.612 126 924.433 126H922.669C922.491 126 922.345 126.145 922.345 126.323V128.712C922.345 129.428 921.906 129.753 921.363 129.793C915.585 129.906 913.57 130.688 913.57 132.52V133.488C913.57 131.555 915.884 130.79 922.345 130.747V137.591C922.345 138.342 921.863 138.665 921.283 138.677C915.56 138.796 913.57 139.579 913.57 141.403V237.477C913.57 238.364 914.296 239.09 915.183 239.09H931.959C932.847 239.09 933.572 238.364 933.572 237.477V141.403C933.572 139.574 931.566 138.79 925.804 138.676C925.232 138.658 924.758 138.335 924.758 137.591V130.747C931.246 130.787 933.572 131.551 933.572 133.488Z" fill="#4B6696"/>
<path d="M933.572 133.49V132.522C933.572 130.685 931.541 129.902 925.725 129.793C925.188 129.749 924.758 129.424 924.758 128.714V106.323C924.758 106.145 924.612 106 924.433 106H922.669C922.491 106 922.345 106.145 922.345 106.323V128.714C922.345 129.431 921.906 129.755 921.363 129.795C915.585 129.908 913.57 130.69 913.57 132.522V133.49C913.57 131.557 915.884 130.792 922.345 130.749V137.593C922.345 138.344 921.863 138.667 921.283 138.679C915.56 138.798 913.57 139.582 913.57 141.405V237.479C913.57 238.366 914.296 239.092 915.183 239.092H931.959C932.847 239.092 933.572 238.366 933.572 237.479V141.405C933.572 139.576 931.566 138.792 925.804 138.678C925.232 138.66 924.758 138.338 924.758 137.593V130.749C931.246 130.789 933.572 131.553 933.572 133.49Z" fill="url(#paint23_linear)"/>
<path opacity="0.2" d="M933.574 237.482C933.574 238.37 932.848 239.096 931.961 239.096H915.185C914.298 239.096 913.572 238.37 913.572 237.482V107.039C913.572 106.152 914.298 105.426 915.185 105.426H931.961C932.848 105.426 933.574 106.152 933.574 107.039V237.482Z" fill="#4B6696"/>
<path d="M956.695 237.482C956.695 238.37 955.97 239.096 955.082 239.096H938.306C937.419 239.096 936.693 238.37 936.693 237.482V107.039C936.693 106.152 937.419 105.426 938.306 105.426H955.082C955.97 105.426 956.695 106.152 956.695 107.039V237.482Z" fill="white"/>
<path d="M956.695 237.482C956.695 238.37 955.97 239.096 955.082 239.096H938.306C937.419 239.096 936.693 238.37 936.693 237.482V107.039C936.693 106.152 937.419 105.426 938.306 105.426H955.082C955.97 105.426 956.695 106.152 956.695 107.039V237.482Z" fill="url(#paint24_linear)"/>
<path d="M938.303 239.096H955.078C955.966 239.096 956.692 238.371 956.692 237.483V133.494C956.692 131.558 954.365 130.793 947.876 130.754H945.464C939.003 130.796 936.689 131.562 936.689 133.494V237.483C936.689 238.371 937.415 239.096 938.303 239.096Z" fill="#4B6696"/>
<path opacity="0.5" d="M938.303 239.096H955.078C955.966 239.096 956.692 238.371 956.692 237.483V133.494C956.692 131.558 954.365 130.793 947.876 130.754H945.464C939.003 130.796 936.689 131.562 936.689 133.494V237.483C936.689 238.371 937.415 239.096 938.303 239.096Z" fill="url(#paint25_linear)"/>
<path d="M956.692 133.495V132.528C956.692 130.69 954.66 129.908 948.844 129.799C948.307 129.755 947.876 129.429 947.876 128.719V126.33C947.876 126.153 947.731 126.008 947.552 126.008H945.788C945.61 126.008 945.464 126.153 945.464 126.33V128.719C945.464 129.436 945.025 129.761 944.482 129.8C938.704 129.913 936.689 130.696 936.689 132.528V133.495C936.689 131.563 939.003 130.798 945.464 130.755V137.598C945.464 138.35 944.982 138.673 944.402 138.685C938.679 138.803 936.689 139.587 936.689 141.41V237.485C936.689 238.372 937.415 239.098 938.303 239.098H955.078C955.966 239.098 956.692 238.372 956.692 237.485V141.41C956.692 139.581 954.685 138.798 948.923 138.684C948.35 138.666 947.876 138.343 947.876 137.598V130.755C954.365 130.794 956.692 131.559 956.692 133.495Z" fill="#4B6696"/>
<path d="M956.692 133.494V132.526C956.692 130.688 954.66 129.906 948.844 129.797C948.307 129.753 947.876 129.428 947.876 128.718V106.327C947.876 106.149 947.731 106.004 947.552 106.004H945.788C945.61 106.004 945.464 106.149 945.464 106.327V128.718C945.464 129.434 945.025 129.759 944.482 129.799C938.704 129.912 936.689 130.694 936.689 132.526V133.494C936.689 131.561 939.003 130.796 945.464 130.753V137.597C945.464 138.348 944.982 138.671 944.402 138.683C938.679 138.802 936.689 139.585 936.689 141.409V237.483C936.689 238.37 937.415 239.096 938.303 239.096H955.078C955.966 239.096 956.692 238.37 956.692 237.483V141.409C956.692 139.58 954.685 138.796 948.923 138.682C948.35 138.664 947.876 138.341 947.876 137.597V130.753C954.365 130.793 956.692 131.557 956.692 133.494Z" fill="url(#paint26_linear)"/>
<path opacity="0.2" d="M956.695 237.482C956.695 238.37 955.97 239.096 955.082 239.096H938.306C937.419 239.096 936.693 238.37 936.693 237.482V107.039C936.693 106.152 937.419 105.426 938.306 105.426H955.082C955.97 105.426 956.695 106.152 956.695 107.039V237.482Z" fill="#4B6696"/>
<path d="M979.824 237.482C979.824 238.37 979.098 239.096 978.211 239.096H961.435C960.548 239.096 959.822 238.37 959.822 237.482V107.039C959.822 106.152 960.548 105.426 961.435 105.426H978.211C979.098 105.426 979.824 106.152 979.824 107.039V237.482Z" fill="white"/>
<path d="M979.824 237.482C979.824 238.37 979.098 239.096 978.211 239.096H961.435C960.548 239.096 959.822 238.37 959.822 237.482V107.039C959.822 106.152 960.548 105.426 961.435 105.426H978.211C979.098 105.426 979.824 106.152 979.824 107.039V237.482Z" fill="url(#paint27_linear)"/>
<path d="M961.431 239.093H978.207C979.094 239.093 979.82 238.367 979.82 237.479V133.49C979.82 131.554 977.494 130.789 971.005 130.75H968.593C962.132 130.793 959.818 131.558 959.818 133.49V237.479C959.818 238.367 960.544 239.093 961.431 239.093Z" fill="#4B6696"/>
<path opacity="0.5" d="M961.431 239.093H978.207C979.094 239.093 979.82 238.367 979.82 237.479V133.49C979.82 131.554 977.494 130.789 971.005 130.75H968.593C962.132 130.793 959.818 131.558 959.818 133.49V237.479C959.818 238.367 960.544 239.093 961.431 239.093Z" fill="url(#paint28_linear)"/>
<path d="M979.82 133.491V132.524C979.82 130.686 977.789 129.904 971.973 129.795C971.436 129.751 971.005 129.426 971.005 128.715V126.327C971.005 126.149 970.86 126.004 970.681 126.004H968.917C968.739 126.004 968.593 126.149 968.593 126.327V128.715C968.593 129.432 968.154 129.757 967.611 129.797C961.833 129.909 959.818 130.692 959.818 132.524V133.491C959.818 131.559 962.132 130.794 968.593 130.751V137.594C968.593 138.346 968.111 138.669 967.531 138.681C961.808 138.799 959.818 139.583 959.818 141.406V237.481C959.818 238.368 960.544 239.094 961.431 239.094H978.207C979.095 239.094 979.82 238.368 979.82 237.481V141.406C979.82 139.578 977.814 138.794 972.052 138.68C971.48 138.662 971.006 138.339 971.006 137.594V130.751C977.494 130.791 979.82 131.555 979.82 133.491Z" fill="#4B6696"/>
<path d="M979.82 133.49V132.522C979.82 130.685 977.789 129.902 971.973 129.793C971.436 129.749 971.005 129.424 971.005 128.714V106.323C971.005 106.145 970.86 106 970.681 106H968.917C968.739 106 968.593 106.145 968.593 106.323V128.714C968.593 129.431 968.154 129.755 967.611 129.795C961.833 129.908 959.818 130.69 959.818 132.522V133.49C959.818 131.557 962.132 130.792 968.593 130.749V137.593C968.593 138.344 968.111 138.667 967.531 138.679C961.808 138.798 959.818 139.582 959.818 141.405V237.479C959.818 238.366 960.544 239.092 961.431 239.092H978.207C979.095 239.092 979.82 238.366 979.82 237.479V141.405C979.82 139.576 977.814 138.792 972.052 138.678C971.48 138.66 971.006 138.338 971.006 137.593V130.749C977.494 130.789 979.82 131.553 979.82 133.49Z" fill="url(#paint29_linear)"/>
<path opacity="0.2" d="M979.824 237.482C979.824 238.37 979.098 239.096 978.211 239.096H961.435C960.548 239.096 959.822 238.37 959.822 237.482V107.039C959.822 106.152 960.548 105.426 961.435 105.426H978.211C979.098 105.426 979.824 106.152 979.824 107.039V237.482Z" fill="#4B6696"/>
<path d="M1002.95 237.482C1002.95 238.37 1002.22 239.096 1001.34 239.096H984.56C983.673 239.096 982.947 238.37 982.947 237.482V107.039C982.947 106.152 983.673 105.426 984.56 105.426H1001.34C1002.22 105.426 1002.95 106.152 1002.95 107.039V237.482Z" fill="white"/>
<path d="M1002.95 237.482C1002.95 238.37 1002.22 239.096 1001.34 239.096H984.56C983.673 239.096 982.947 238.37 982.947 237.482V107.039C982.947 106.152 983.673 105.426 984.56 105.426H1001.34C1002.22 105.426 1002.95 106.152 1002.95 107.039V237.482Z" fill="url(#paint30_linear)"/>
<path d="M984.556 239.096H1001.33C1002.22 239.096 1002.95 238.371 1002.95 237.483V133.494C1002.95 131.558 1000.62 130.793 994.13 130.754H991.718C985.257 130.796 982.943 131.562 982.943 133.494V237.483C982.943 238.371 983.669 239.096 984.556 239.096Z" fill="#4B6696"/>
<path opacity="0.5" d="M984.556 239.096H1001.33C1002.22 239.096 1002.95 238.371 1002.95 237.483V133.494C1002.95 131.558 1000.62 130.793 994.13 130.754H991.718C985.257 130.796 982.943 131.562 982.943 133.494V237.483C982.943 238.371 983.669 239.096 984.556 239.096Z" fill="url(#paint31_linear)"/>
<path d="M1002.95 133.491V132.524C1002.95 130.686 1000.91 129.904 995.098 129.795C994.561 129.751 994.13 129.426 994.13 128.715V126.327C994.13 126.149 993.985 126.004 993.806 126.004H992.043C991.864 126.004 991.718 126.149 991.718 126.327V128.715C991.718 129.432 991.279 129.757 990.736 129.797C984.958 129.909 982.943 130.692 982.943 132.524V133.491C982.943 131.559 985.257 130.794 991.718 130.751V137.594C991.718 138.346 991.236 138.669 990.656 138.681C984.933 138.799 982.943 139.583 982.943 141.406V237.481C982.943 238.368 983.669 239.094 984.556 239.094H1001.33C1002.22 239.094 1002.95 238.368 1002.95 237.481V141.406C1002.95 139.578 1000.94 138.794 995.178 138.68C994.604 138.662 994.13 138.339 994.13 137.594V130.751C1000.62 130.791 1002.95 131.555 1002.95 133.491Z" fill="#4B6696"/>
<path d="M1002.95 133.494V132.526C1002.95 130.688 1000.91 129.906 995.098 129.797C994.561 129.753 994.13 129.428 994.13 128.718V106.327C994.13 106.149 993.985 106.004 993.806 106.004H992.043C991.864 106.004 991.718 106.149 991.718 106.327V128.718C991.718 129.434 991.279 129.759 990.736 129.799C984.958 129.912 982.943 130.694 982.943 132.526V133.494C982.943 131.561 985.257 130.796 991.718 130.753V137.597C991.718 138.348 991.236 138.671 990.656 138.683C984.933 138.802 982.943 139.585 982.943 141.409V237.483C982.943 238.37 983.669 239.096 984.556 239.096H1001.33C1002.22 239.096 1002.95 238.37 1002.95 237.483V141.409C1002.95 139.58 1000.94 138.796 995.178 138.682C994.604 138.664 994.13 138.341 994.13 137.597V130.753C1000.62 130.793 1002.95 131.557 1002.95 133.494Z" fill="url(#paint32_linear)"/>
<path opacity="0.2" d="M1002.95 237.482C1002.95 238.37 1002.22 239.096 1001.34 239.096H984.56C983.673 239.096 982.947 238.37 982.947 237.482V107.039C982.947 106.152 983.673 105.426 984.56 105.426H1001.34C1002.22 105.426 1002.95 106.152 1002.95 107.039V237.482Z" fill="#4B6696"/>
<path d="M1026.07 237.482C1026.07 238.37 1025.35 239.096 1024.46 239.096H1007.68C1006.8 239.096 1006.07 238.37 1006.07 237.482V107.039C1006.07 106.152 1006.8 105.426 1007.68 105.426H1024.46C1025.35 105.426 1026.07 106.152 1026.07 107.039V237.482Z" fill="white"/>
<path d="M1026.07 237.482C1026.07 238.37 1025.35 239.096 1024.46 239.096H1007.68C1006.8 239.096 1006.07 238.37 1006.07 237.482V107.039C1006.07 106.152 1006.8 105.426 1007.68 105.426H1024.46C1025.35 105.426 1026.07 106.152 1026.07 107.039V237.482Z" fill="url(#paint33_linear)"/>
<path d="M1007.68 239.096H1024.46C1025.34 239.096 1026.07 238.371 1026.07 237.483V133.494C1026.07 131.558 1023.74 130.793 1017.26 130.754H1014.84C1008.38 130.796 1006.07 131.562 1006.07 133.494V237.483C1006.07 238.371 1006.79 239.096 1007.68 239.096Z" fill="#4B6696"/>
<path opacity="0.5" d="M1007.68 239.096H1024.46C1025.34 239.096 1026.07 238.371 1026.07 237.483V133.494C1026.07 131.558 1023.74 130.793 1017.26 130.754H1014.84C1008.38 130.796 1006.07 131.562 1006.07 133.494V237.483C1006.07 238.371 1006.79 239.096 1007.68 239.096Z" fill="url(#paint34_linear)"/>
<path d="M1026.07 133.491V132.524C1026.07 130.686 1024.04 129.904 1018.22 129.795C1017.69 129.751 1017.26 129.426 1017.26 128.715V126.327C1017.26 126.149 1017.11 126.004 1016.93 126.004H1015.17C1014.99 126.004 1014.84 126.149 1014.84 126.327V128.715C1014.84 129.432 1014.4 129.757 1013.86 129.797C1008.08 129.909 1006.07 130.692 1006.07 132.524V133.491C1006.07 131.559 1008.38 130.794 1014.84 130.751V137.594C1014.84 138.346 1014.36 138.669 1013.78 138.681C1008.06 138.799 1006.07 139.583 1006.07 141.406V237.481C1006.07 238.368 1006.79 239.094 1007.68 239.094H1024.46C1025.34 239.094 1026.07 238.368 1026.07 237.481V141.406C1026.07 139.578 1024.06 138.794 1018.3 138.68C1017.73 138.662 1017.26 138.339 1017.26 137.594V130.751C1023.75 130.791 1026.07 131.555 1026.07 133.491Z" fill="#4B6696"/>
<path d="M1026.07 133.494V132.526C1026.07 130.688 1024.04 129.906 1018.22 129.797C1017.69 129.753 1017.26 129.428 1017.26 128.718V106.327C1017.26 106.149 1017.11 106.004 1016.93 106.004H1015.17C1014.99 106.004 1014.84 106.149 1014.84 106.327V128.718C1014.84 129.434 1014.4 129.759 1013.86 129.799C1008.08 129.912 1006.07 130.694 1006.07 132.526V133.494C1006.07 131.561 1008.38 130.796 1014.84 130.753V137.597C1014.84 138.348 1014.36 138.671 1013.78 138.683C1008.06 138.802 1006.07 139.585 1006.07 141.409V237.483C1006.07 238.37 1006.79 239.096 1007.68 239.096H1024.46C1025.34 239.096 1026.07 238.37 1026.07 237.483V141.409C1026.07 139.58 1024.06 138.796 1018.3 138.682C1017.73 138.664 1017.26 138.341 1017.26 137.597V130.753C1023.75 130.793 1026.07 131.557 1026.07 133.494Z" fill="url(#paint35_linear)"/>
<path opacity="0.2" d="M1026.07 237.482C1026.07 238.37 1025.35 239.096 1024.46 239.096H1007.68C1006.8 239.096 1006.07 238.37 1006.07 237.482V107.039C1006.07 106.152 1006.8 105.426 1007.68 105.426H1024.46C1025.35 105.426 1026.07 106.152 1026.07 107.039V237.482Z" fill="#4B6696"/>
<path d="M1049.2 237.486C1049.2 238.374 1048.47 239.099 1047.58 239.099H1030.81C1029.92 239.099 1029.19 238.374 1029.19 237.486V107.043C1029.19 106.156 1029.92 105.43 1030.81 105.43H1047.58C1048.47 105.43 1049.2 106.156 1049.2 107.043V237.486Z" fill="white"/>
<path d="M1049.2 237.486C1049.2 238.374 1048.47 239.099 1047.58 239.099H1030.81C1029.92 239.099 1029.19 238.374 1029.19 237.486V107.043C1029.19 106.156 1029.92 105.43 1030.81 105.43H1047.58C1048.47 105.43 1049.2 106.156 1049.2 107.043V237.486Z" fill="url(#paint36_linear)"/>
<path d="M1030.8 239.1H1047.58C1048.47 239.1 1049.19 238.374 1049.19 237.487V133.498C1049.19 131.562 1046.87 130.797 1040.38 130.758H1037.97C1031.5 130.8 1029.19 131.566 1029.19 133.498V237.487C1029.19 238.374 1029.92 239.1 1030.8 239.1Z" fill="#4B6696"/>
<path opacity="0.5" d="M1030.8 239.1H1047.58C1048.47 239.1 1049.19 238.374 1049.19 237.487V133.498C1049.19 131.562 1046.87 130.797 1040.38 130.758H1037.97C1031.5 130.8 1029.19 131.566 1029.19 133.498V237.487C1029.19 238.374 1029.92 239.1 1030.8 239.1Z" fill="url(#paint37_linear)"/>
<path d="M1049.19 133.495V132.528C1049.19 130.69 1047.16 129.908 1041.35 129.799C1040.81 129.755 1040.38 129.429 1040.38 128.719V126.33C1040.38 126.153 1040.23 126.008 1040.05 126.008H1038.29C1038.11 126.008 1037.97 126.153 1037.97 126.33V128.719C1037.97 129.436 1037.53 129.761 1036.98 129.8C1031.21 129.913 1029.19 130.696 1029.19 132.528V133.495C1029.19 131.563 1031.5 130.798 1037.97 130.755V137.598C1037.97 138.35 1037.48 138.673 1036.9 138.685C1031.18 138.803 1029.19 139.587 1029.19 141.41V237.485C1029.19 238.372 1029.92 239.098 1030.8 239.098H1047.58C1048.47 239.098 1049.19 238.372 1049.19 237.485V141.41C1049.19 139.581 1047.19 138.798 1041.42 138.684C1040.85 138.666 1040.38 138.343 1040.38 137.598V130.755C1046.87 130.794 1049.19 131.559 1049.19 133.495Z" fill="#4B6696"/>
<path d="M1049.19 133.497V132.53C1049.19 130.692 1047.16 129.91 1041.35 129.801C1040.81 129.757 1040.38 129.432 1040.38 128.721V106.33C1040.38 106.153 1040.23 106.008 1040.05 106.008H1038.29C1038.11 106.008 1037.97 106.153 1037.97 106.33V128.721C1037.97 129.438 1037.53 129.763 1036.98 129.803C1031.21 129.915 1029.19 130.698 1029.19 132.53V133.497C1029.19 131.565 1031.5 130.8 1037.97 130.757V137.6C1037.97 138.352 1037.48 138.675 1036.9 138.687C1031.18 138.805 1029.19 139.589 1029.19 141.412V237.487C1029.19 238.374 1029.92 239.1 1030.8 239.1H1047.58C1048.47 239.1 1049.19 238.374 1049.19 237.487V141.412C1049.19 139.584 1047.19 138.8 1041.42 138.686C1040.85 138.668 1040.38 138.345 1040.38 137.6V130.757C1046.87 130.797 1049.19 131.561 1049.19 133.497Z" fill="url(#paint38_linear)"/>
<path opacity="0.2" d="M1049.2 237.486C1049.2 238.374 1048.47 239.099 1047.58 239.099H1030.81C1029.92 239.099 1029.19 238.374 1029.19 237.486V107.043C1029.19 106.156 1029.92 105.43 1030.81 105.43H1047.58C1048.47 105.43 1049.2 106.156 1049.2 107.043V237.486Z" fill="#4B6696"/>
<g opacity="0.8">
<path opacity="0.8" d="M900.139 228.472C902.603 228.472 904.601 226.474 904.601 224.01C904.601 221.545 902.603 219.547 900.139 219.547C897.674 219.547 895.676 221.545 895.676 224.01C895.676 226.474 897.674 228.472 900.139 228.472Z" fill="#334163"/>
<path opacity="0.4" d="M900.139 228.472C902.603 228.472 904.601 226.474 904.601 224.01C904.601 221.545 902.603 219.547 900.139 219.547C897.674 219.547 895.676 221.545 895.676 224.01C895.676 226.474 897.674 228.472 900.139 228.472Z" fill="#4B6696"/>
<path opacity="0.8" d="M902.973 226.859C902.916 227.021 902.732 227.181 902.563 227.214L899.087 227.884C898.918 227.917 898.687 227.837 898.575 227.707L896.256 225.032C896.142 224.902 896.097 224.662 896.153 224.499L897.31 221.154C897.366 220.992 897.551 220.832 897.72 220.799L901.196 220.128C901.366 220.096 901.596 220.176 901.709 220.306L904.028 222.98C904.141 223.111 904.186 223.35 904.13 223.513L902.973 226.859Z" fill="#4B6696"/>
<path opacity="0.2" d="M902.973 226.859C902.916 227.021 902.732 227.181 902.563 227.214L899.087 227.884C898.918 227.917 898.687 227.837 898.575 227.707L896.256 225.032C896.142 224.902 896.097 224.662 896.153 224.499L897.31 221.154C897.366 220.992 897.551 220.832 897.72 220.799L901.196 220.128C901.366 220.096 901.596 220.176 901.709 220.306L904.028 222.98C904.141 223.111 904.186 223.35 904.13 223.513L902.973 226.859Z" fill="url(#paint39_linear)"/>
<path opacity="0.1" d="M902.973 226.859C902.916 227.021 902.732 227.181 902.563 227.214L899.087 227.884C898.918 227.917 898.687 227.837 898.575 227.707L896.256 225.032C896.142 224.902 896.097 224.662 896.153 224.499L897.31 221.154C897.366 220.992 897.551 220.832 897.72 220.799L901.196 220.128C901.366 220.096 901.596 220.176 901.709 220.306L904.028 222.98C904.141 223.111 904.186 223.35 904.13 223.513L902.973 226.859Z" fill="url(#paint40_radial)"/>
</g>
<g opacity="0.8">
<path opacity="0.8" d="M1064.03 228.472C1066.49 228.472 1068.49 226.474 1068.49 224.01C1068.49 221.545 1066.49 219.547 1064.03 219.547C1061.56 219.547 1059.56 221.545 1059.56 224.01C1059.56 226.474 1061.56 228.472 1064.03 228.472Z" fill="#334163"/>
<path opacity="0.4" d="M1064.03 228.472C1066.49 228.472 1068.49 226.474 1068.49 224.01C1068.49 221.545 1066.49 219.547 1064.03 219.547C1061.56 219.547 1059.56 221.545 1059.56 224.01C1059.56 226.474 1061.56 228.472 1064.03 228.472Z" fill="#4B6696"/>
<path opacity="0.8" d="M1066.86 226.859C1066.8 227.021 1066.62 227.181 1066.45 227.214L1062.97 227.884C1062.8 227.917 1062.57 227.837 1062.46 227.707L1060.14 225.032C1060.03 224.902 1059.98 224.662 1060.04 224.499L1061.2 221.154C1061.25 220.992 1061.44 220.832 1061.61 220.799L1065.08 220.128C1065.25 220.096 1065.48 220.176 1065.6 220.306L1067.91 222.98C1068.03 223.111 1068.07 223.35 1068.02 223.513L1066.86 226.859Z" fill="#4B6696"/>
<path opacity="0.2" d="M1066.86 226.859C1066.8 227.021 1066.62 227.181 1066.45 227.214L1062.97 227.884C1062.8 227.917 1062.57 227.837 1062.46 227.707L1060.14 225.032C1060.03 224.902 1059.98 224.662 1060.04 224.499L1061.2 221.154C1061.25 220.992 1061.44 220.832 1061.61 220.799L1065.08 220.128C1065.25 220.096 1065.48 220.176 1065.6 220.306L1067.91 222.98C1068.03 223.111 1068.07 223.35 1068.02 223.513L1066.86 226.859Z" fill="url(#paint41_linear)"/>
<path opacity="0.1" d="M1066.86 226.859C1066.8 227.021 1066.62 227.181 1066.45 227.214L1062.97 227.884C1062.8 227.917 1062.57 227.837 1062.46 227.707L1060.14 225.032C1060.03 224.902 1059.98 224.662 1060.04 224.499L1061.2 221.154C1061.25 220.992 1061.44 220.832 1061.61 220.799L1065.08 220.128C1065.25 220.096 1065.48 220.176 1065.6 220.306L1067.91 222.98C1068.03 223.111 1068.07 223.35 1068.02 223.513L1066.86 226.859Z" fill="url(#paint42_radial)"/>
</g>
<path opacity="0.3" d="M1047.58 105.426H915.183C914.296 105.426 913.57 106.152 913.57 107.039V237.482C913.57 238.37 914.296 239.096 915.183 239.096H1047.58C1048.47 239.096 1049.19 238.37 1049.19 237.482V107.039C1049.19 106.152 1048.47 105.426 1047.58 105.426Z" fill="#334163"/>
<path opacity="0.02" d="M1118.49 53.4606C1133.13 63.1926 1152.88 59.2206 1162.61 44.5856C1172.34 29.9506 1168.37 10.2006 1153.73 0.469607C1139.1 -9.26339 1119.35 -5.29142 1109.62 9.34558C1099.88 23.9776 1103.86 43.7296 1118.49 53.4606Z" fill="url(#paint43_linear)"/>
<path opacity="0.02" d="M1232.08 130.744C1246.63 120.888 1250.44 101.104 1240.58 86.5541C1230.72 72.0051 1210.93 68.2061 1196.38 78.0641C1181.84 87.9261 1178.04 107.71 1187.89 122.257C1197.76 136.805 1217.54 140.606 1232.08 130.744Z" fill="url(#paint44_linear)"/>
<path opacity="0.02" d="M1026.04 15.6366C1043.3 18.9526 1059.98 7.64957 1063.29 -9.60843C1066.61 -26.8694 1055.31 -43.5454 1038.05 -46.8594C1020.79 -50.1774 1004.11 -38.8744 1000.79 -21.6154C997.478 -4.35744 1008.78 12.3226 1026.04 15.6366Z" fill="url(#paint45_linear)"/>
</g>
<defs>
<radialGradient id="paint0_radial" cx="0" cy="0" r="1" gradientUnits="userSpaceOnUse" gradientTransform="translate(898.877 307.689) scale(456.22)">
<stop offset="0.618394" stop-color="#334163"/>
<stop offset="0.8032" stop-color="#D51E3C" stop-opacity="0.8"/>
<stop offset="0.9495" stop-color="#FF9827"/>
</radialGradient>
<linearGradient id="paint1_linear" x1="963.951" y1="21.9827" x2="1453.28" y2="215.316" gradientUnits="userSpaceOnUse">
<stop stop-color="#D51E3C"/>
<stop offset="1" stop-color="#FFF064"/>
</linearGradient>
<linearGradient id="paint2_linear" x1="914.562" y1="146.985" x2="1403.9" y2="340.318" gradientUnits="userSpaceOnUse">
<stop stop-color="#D51E3C"/>
<stop offset="1" stop-color="#FFF064"/>
</linearGradient>
<linearGradient id="paint3_linear" x1="962.847" y1="24.7744" x2="1452.18" y2="218.108" gradientUnits="userSpaceOnUse">
<stop stop-color="#D51E3C"/>
<stop offset="1" stop-color="#FFF064"/>
</linearGradient>
<linearGradient id="paint4_linear" x1="943.627" y1="73.4257" x2="1432.96" y2="266.759" gradientUnits="userSpaceOnUse">
<stop stop-color="#D51E3C"/>
<stop offset="1" stop-color="#FFF064"/>
</linearGradient>
<linearGradient id="paint5_linear" x1="970.087" y1="6.45451" x2="1459.42" y2="199.788" gradientUnits="userSpaceOnUse">
<stop stop-color="#D51E3C"/>
<stop offset="1" stop-color="#FFF064"/>
</linearGradient>
<linearGradient id="paint6_linear" x1="1079.38" y1="123.053" x2="1079.38" y2="100.922" gradientUnits="userSpaceOnUse">
<stop stop-color="#ED3D5A"/>
<stop offset="1" stop-color="#ED3D5A" stop-opacity="0.44"/>
</linearGradient>
<linearGradient id="paint7_linear" x1="911.619" y1="120.561" x2="911.619" y2="112.043" gradientUnits="userSpaceOnUse">
<stop stop-color="#212A3F"/>
<stop offset="0.123" stop-color="#2A3752"/>
<stop offset="0.3504" stop-color="#394C70"/>
<stop offset="0.5751" stop-color="#435A85"/>
<stop offset="0.7939" stop-color="#496392"/>
<stop offset="1" stop-color="#4B6696"/>
</linearGradient>
<linearGradient id="paint8_linear" x1="912.956" y1="121.5" x2="912.956" y2="111.106" gradientUnits="userSpaceOnUse">
<stop stop-color="#4B6696" stop-opacity="0.7"/>
<stop offset="1" stop-color="white"/>
</linearGradient>
<linearGradient id="paint9_linear" x1="907.627" y1="116.302" x2="909.139" y2="116.302" gradientUnits="userSpaceOnUse">
<stop stop-color="white"/>
<stop offset="0.0831" stop-color="#E4E8EF"/>
<stop offset="0.2413" stop-color="#B5C0D4"/>
<stop offset="0.3998" stop-color="#8FA0BE"/>
<stop offset="0.5563" stop-color="#7187AC"/>
<stop offset="0.7098" stop-color="#5C75A0"/>
<stop offset="0.8593" stop-color="#4F6A99"/>
<stop offset="1" stop-color="#4B6696"/>
</linearGradient>
<linearGradient id="paint10_linear" x1="1051.16" y1="120.557" x2="1051.16" y2="112.039" gradientUnits="userSpaceOnUse">
<stop stop-color="#212A3F"/>
<stop offset="0.123" stop-color="#2A3752"/>
<stop offset="0.3504" stop-color="#394C70"/>
<stop offset="0.5751" stop-color="#435A85"/>
<stop offset="0.7939" stop-color="#496392"/>
<stop offset="1" stop-color="#4B6696"/>
</linearGradient>
<linearGradient id="paint11_linear" x1="1049.82" y1="121.5" x2="1049.82" y2="111.106" gradientUnits="userSpaceOnUse">
<stop stop-color="#4B6696" stop-opacity="0.7"/>
<stop offset="1" stop-color="white"/>
</linearGradient>
<linearGradient id="paint12_linear" x1="1055.15" y1="116.298" x2="1053.63" y2="116.298" gradientUnits="userSpaceOnUse">
<stop stop-color="white"/>
<stop offset="0.0831" stop-color="#E4E8EF"/>
<stop offset="0.2413" stop-color="#B5C0D4"/>
<stop offset="0.3998" stop-color="#8FA0BE"/>
<stop offset="0.5563" stop-color="#7187AC"/>
<stop offset="0.7098" stop-color="#5C75A0"/>
<stop offset="0.8593" stop-color="#4F6A99"/>
<stop offset="1" stop-color="#4B6696"/>
</linearGradient>
<linearGradient id="paint13_linear" x1="900.477" y1="226.398" x2="900.477" y2="219.469" gradientUnits="userSpaceOnUse">
<stop stop-color="#212A3F"/>
<stop offset="0.123" stop-color="#2A3752"/>
<stop offset="0.3504" stop-color="#394C70"/>
<stop offset="0.5751" stop-color="#435A85"/>
<stop offset="0.7939" stop-color="#496392"/>
<stop offset="1" stop-color="#4B6696"/>
</linearGradient>
<linearGradient id="paint14_linear" x1="912.33" y1="227.521" x2="912.33" y2="218.578" gradientUnits="userSpaceOnUse">
<stop stop-color="#4B6696" stop-opacity="0.7"/>
<stop offset="0.0922" stop-color="#465F8E" stop-opacity="0.8097"/>
<stop offset="0.2523" stop-color="#405684"/>
<stop offset="0.3326" stop-color="#475C88"/>
<stop offset="0.4487" stop-color="#5A6D95"/>
<stop offset="0.5864" stop-color="#7A89A9"/>
<stop offset="0.7408" stop-color="#A5B0C5"/>
<stop offset="0.907" stop-color="#DDE1E9"/>
<stop offset="1" stop-color="white"/>
</linearGradient>
<linearGradient id="paint15_linear" x1="869.459" y1="226.515" x2="869.459" y2="219.586" gradientUnits="userSpaceOnUse">
<stop stop-color="#4B6696" stop-opacity="0.7"/>
<stop offset="0.211" stop-color="#334163"/>
<stop offset="0.5505" stop-color="#4B6696"/>
<stop offset="1" stop-color="white"/>
</linearGradient>
<linearGradient id="paint16_linear" x1="848.699" y1="223.048" x2="889.671" y2="223.048" gradientUnits="userSpaceOnUse">
<stop stop-color="#334163"/>
<stop offset="1" stop-color="#334163" stop-opacity="0.5"/>
</linearGradient>
<linearGradient id="paint17_linear" x1="1062.22" y1="226.398" x2="1062.22" y2="219.469" gradientUnits="userSpaceOnUse">
<stop stop-color="#212A3F"/>
<stop offset="0.123" stop-color="#2A3752"/>
<stop offset="0.3504" stop-color="#394C70"/>
<stop offset="0.5751" stop-color="#435A85"/>
<stop offset="0.7939" stop-color="#496392"/>
<stop offset="1" stop-color="#4B6696"/>
</linearGradient>
<linearGradient id="paint18_linear" x1="1050.37" y1="227.521" x2="1050.37" y2="218.578" gradientUnits="userSpaceOnUse">
<stop stop-color="#4B6696" stop-opacity="0.7"/>
<stop offset="0.0922" stop-color="#465F8E" stop-opacity="0.8097"/>
<stop offset="0.2523" stop-color="#405684"/>
<stop offset="0.3326" stop-color="#475C88"/>
<stop offset="0.4487" stop-color="#5A6D95"/>
<stop offset="0.5864" stop-color="#7A89A9"/>
<stop offset="0.7408" stop-color="#A5B0C5"/>
<stop offset="0.907" stop-color="#DDE1E9"/>
<stop offset="1" stop-color="white"/>
</linearGradient>
<linearGradient id="paint19_linear" x1="1093.22" y1="226.515" x2="1093.22" y2="219.586" gradientUnits="userSpaceOnUse">
<stop stop-color="#4B6696" stop-opacity="0.7"/>
<stop offset="0.211" stop-color="#334163"/>
<stop offset="0.5505" stop-color="#4B6696"/>
<stop offset="1" stop-color="white"/>
</linearGradient>
<linearGradient id="paint20_linear" x1="1114" y1="223.048" x2="1073.03" y2="223.048" gradientUnits="userSpaceOnUse">
<stop stop-color="#334163"/>
<stop offset="1" stop-color="#334163" stop-opacity="0.5"/>
</linearGradient>
<linearGradient id="paint21_linear" x1="923.573" y1="239.096" x2="923.573" y2="105.426" gradientUnits="userSpaceOnUse">
<stop stop-color="white"/>
<stop offset="0.8532" stop-color="#405684" stop-opacity="0.7"/>
<stop offset="0.8807" stop-color="#4B6696" stop-opacity="0.6"/>
<stop offset="0.8894" stop-color="#7085AC" stop-opacity="0.629"/>
<stop offset="0.9" stop-color="#96A6C2" stop-opacity="0.6646"/>
<stop offset="0.9115" stop-color="#B6C1D5" stop-opacity="0.703"/>
<stop offset="0.9237" stop-color="#D1D8E4" stop-opacity="0.7442"/>
<stop offset="0.9371" stop-color="#E5E9F0" stop-opacity="0.7891"/>
<stop offset="0.9522" stop-color="#F4F6F9" stop-opacity="0.8398"/>
<stop offset="0.9704" stop-color="#FCFDFE" stop-opacity="0.9007"/>
<stop offset="1" stop-color="white"/>
</linearGradient>
<linearGradient id="paint22_linear" x1="923.571" y1="239.096" x2="923.571" y2="130.754" gradientUnits="userSpaceOnUse">
<stop stop-color="#4B6696" stop-opacity="0.5"/>
<stop offset="0.3996" stop-color="#4D6897" stop-opacity="0.6998"/>
<stop offset="0.5436" stop-color="#546D9B" stop-opacity="0.7718"/>
<stop offset="0.6462" stop-color="#5F77A2" stop-opacity="0.8231"/>
<stop offset="0.7292" stop-color="#7086AC" stop-opacity="0.8646"/>
<stop offset="0.8003" stop-color="#8698B9" stop-opacity="0.9002"/>
<stop offset="0.8632" stop-color="#A2B0C8" stop-opacity="0.9316"/>
<stop offset="0.9201" stop-color="#C2CBDB" stop-opacity="0.9601"/>
<stop offset="0.9707" stop-color="#E6EAF1" stop-opacity="0.9853"/>
<stop offset="1" stop-color="white"/>
</linearGradient>
<linearGradient id="paint23_linear" x1="923.571" y1="239.092" x2="923.571" y2="106" gradientUnits="userSpaceOnUse">
<stop stop-color="white" stop-opacity="0.5"/>
<stop offset="1" stop-color="white"/>
</linearGradient>
<linearGradient id="paint24_linear" x1="946.694" y1="239.096" x2="946.694" y2="105.426" gradientUnits="userSpaceOnUse">
<stop stop-color="white"/>
<stop offset="0.8532" stop-color="#405684" stop-opacity="0.7"/>
<stop offset="0.8807" stop-color="#4B6696" stop-opacity="0.6"/>
<stop offset="0.8894" stop-color="#7085AC" stop-opacity="0.629"/>
<stop offset="0.9" stop-color="#96A6C2" stop-opacity="0.6646"/>
<stop offset="0.9115" stop-color="#B6C1D5" stop-opacity="0.703"/>
<stop offset="0.9237" stop-color="#D1D8E4" stop-opacity="0.7442"/>
<stop offset="0.9371" stop-color="#E5E9F0" stop-opacity="0.7891"/>
<stop offset="0.9522" stop-color="#F4F6F9" stop-opacity="0.8398"/>
<stop offset="0.9704" stop-color="#FCFDFE" stop-opacity="0.9007"/>
<stop offset="1" stop-color="white"/>
</linearGradient>
<linearGradient id="paint25_linear" x1="946.69" y1="239.096" x2="946.69" y2="130.754" gradientUnits="userSpaceOnUse">
<stop stop-color="#4B6696" stop-opacity="0.5"/>
<stop offset="0.3996" stop-color="#4D6897" stop-opacity="0.6998"/>
<stop offset="0.5436" stop-color="#546D9B" stop-opacity="0.7718"/>
<stop offset="0.6462" stop-color="#5F77A2" stop-opacity="0.8231"/>
<stop offset="0.7292" stop-color="#7086AC" stop-opacity="0.8646"/>
<stop offset="0.8003" stop-color="#8698B9" stop-opacity="0.9002"/>
<stop offset="0.8632" stop-color="#A2B0C8" stop-opacity="0.9316"/>
<stop offset="0.9201" stop-color="#C2CBDB" stop-opacity="0.9601"/>
<stop offset="0.9707" stop-color="#E6EAF1" stop-opacity="0.9853"/>
<stop offset="1" stop-color="white"/>
</linearGradient>
<linearGradient id="paint26_linear" x1="946.69" y1="239.096" x2="946.69" y2="106.004" gradientUnits="userSpaceOnUse">
<stop stop-color="white" stop-opacity="0.5"/>
<stop offset="1" stop-color="white"/>
</linearGradient>
<linearGradient id="paint27_linear" x1="969.823" y1="239.096" x2="969.823" y2="105.426" gradientUnits="userSpaceOnUse">
<stop stop-color="white"/>
<stop offset="0.8532" stop-color="#405684" stop-opacity="0.7"/>
<stop offset="0.8807" stop-color="#4B6696" stop-opacity="0.6"/>
<stop offset="0.8894" stop-color="#7085AC" stop-opacity="0.629"/>
<stop offset="0.9" stop-color="#96A6C2" stop-opacity="0.6646"/>
<stop offset="0.9115" stop-color="#B6C1D5" stop-opacity="0.703"/>
<stop offset="0.9237" stop-color="#D1D8E4" stop-opacity="0.7442"/>
<stop offset="0.9371" stop-color="#E5E9F0" stop-opacity="0.7891"/>
<stop offset="0.9522" stop-color="#F4F6F9" stop-opacity="0.8398"/>
<stop offset="0.9704" stop-color="#FCFDFE" stop-opacity="0.9007"/>
<stop offset="1" stop-color="white"/>
</linearGradient>
<linearGradient id="paint28_linear" x1="969.819" y1="239.093" x2="969.819" y2="130.75" gradientUnits="userSpaceOnUse">
<stop stop-color="#4B6696" stop-opacity="0.5"/>
<stop offset="0.3996" stop-color="#4D6897" stop-opacity="0.6998"/>
<stop offset="0.5436" stop-color="#546D9B" stop-opacity="0.7718"/>
<stop offset="0.6462" stop-color="#5F77A2" stop-opacity="0.8231"/>
<stop offset="0.7292" stop-color="#7086AC" stop-opacity="0.8646"/>
<stop offset="0.8003" stop-color="#8698B9" stop-opacity="0.9002"/>
<stop offset="0.8632" stop-color="#A2B0C8" stop-opacity="0.9316"/>
<stop offset="0.9201" stop-color="#C2CBDB" stop-opacity="0.9601"/>
<stop offset="0.9707" stop-color="#E6EAF1" stop-opacity="0.9853"/>
<stop offset="1" stop-color="white"/>
</linearGradient>
<linearGradient id="paint29_linear" x1="969.819" y1="239.092" x2="969.819" y2="106" gradientUnits="userSpaceOnUse">
<stop stop-color="white" stop-opacity="0.5"/>
<stop offset="1" stop-color="white"/>
</linearGradient>
<linearGradient id="paint30_linear" x1="992.948" y1="239.096" x2="992.948" y2="105.426" gradientUnits="userSpaceOnUse">
<stop stop-color="white"/>
<stop offset="0.8532" stop-color="#405684" stop-opacity="0.7"/>
<stop offset="0.8807" stop-color="#4B6696" stop-opacity="0.6"/>
<stop offset="0.8894" stop-color="#7085AC" stop-opacity="0.629"/>
<stop offset="0.9" stop-color="#96A6C2" stop-opacity="0.6646"/>
<stop offset="0.9115" stop-color="#B6C1D5" stop-opacity="0.703"/>
<stop offset="0.9237" stop-color="#D1D8E4" stop-opacity="0.7442"/>
<stop offset="0.9371" stop-color="#E5E9F0" stop-opacity="0.7891"/>
<stop offset="0.9522" stop-color="#F4F6F9" stop-opacity="0.8398"/>
<stop offset="0.9704" stop-color="#FCFDFE" stop-opacity="0.9007"/>
<stop offset="1" stop-color="white"/>
</linearGradient>
<linearGradient id="paint31_linear" x1="992.944" y1="239.096" x2="992.944" y2="130.754" gradientUnits="userSpaceOnUse">
<stop stop-color="#4B6696" stop-opacity="0.5"/>
<stop offset="0.3996" stop-color="#4D6897" stop-opacity="0.6998"/>
<stop offset="0.5436" stop-color="#546D9B" stop-opacity="0.7718"/>
<stop offset="0.6462" stop-color="#5F77A2" stop-opacity="0.8231"/>
<stop offset="0.7292" stop-color="#7086AC" stop-opacity="0.8646"/>
<stop offset="0.8003" stop-color="#8698B9" stop-opacity="0.9002"/>
<stop offset="0.8632" stop-color="#A2B0C8" stop-opacity="0.9316"/>
<stop offset="0.9201" stop-color="#C2CBDB" stop-opacity="0.9601"/>
<stop offset="0.9707" stop-color="#E6EAF1" stop-opacity="0.9853"/>
<stop offset="1" stop-color="white"/>
</linearGradient>
<linearGradient id="paint32_linear" x1="992.944" y1="239.096" x2="992.944" y2="106.004" gradientUnits="userSpaceOnUse">
<stop stop-color="white" stop-opacity="0.5"/>
<stop offset="1" stop-color="white"/>
</linearGradient>
<linearGradient id="paint33_linear" x1="1016.07" y1="239.096" x2="1016.07" y2="105.426" gradientUnits="userSpaceOnUse">
<stop stop-color="white"/>
<stop offset="0.8532" stop-color="#405684" stop-opacity="0.7"/>
<stop offset="0.8807" stop-color="#4B6696" stop-opacity="0.6"/>
<stop offset="0.8894" stop-color="#7085AC" stop-opacity="0.629"/>
<stop offset="0.9" stop-color="#96A6C2" stop-opacity="0.6646"/>
<stop offset="0.9115" stop-color="#B6C1D5" stop-opacity="0.703"/>
<stop offset="0.9237" stop-color="#D1D8E4" stop-opacity="0.7442"/>
<stop offset="0.9371" stop-color="#E5E9F0" stop-opacity="0.7891"/>
<stop offset="0.9522" stop-color="#F4F6F9" stop-opacity="0.8398"/>
<stop offset="0.9704" stop-color="#FCFDFE" stop-opacity="0.9007"/>
<stop offset="1" stop-color="white"/>
</linearGradient>
<linearGradient id="paint34_linear" x1="1016.07" y1="239.096" x2="1016.07" y2="130.754" gradientUnits="userSpaceOnUse">
<stop stop-color="#4B6696" stop-opacity="0.5"/>
<stop offset="0.3996" stop-color="#4D6897" stop-opacity="0.6998"/>
<stop offset="0.5436" stop-color="#546D9B" stop-opacity="0.7718"/>
<stop offset="0.6462" stop-color="#5F77A2" stop-opacity="0.8231"/>
<stop offset="0.7292" stop-color="#7086AC" stop-opacity="0.8646"/>
<stop offset="0.8003" stop-color="#8698B9" stop-opacity="0.9002"/>
<stop offset="0.8632" stop-color="#A2B0C8" stop-opacity="0.9316"/>
<stop offset="0.9201" stop-color="#C2CBDB" stop-opacity="0.9601"/>
<stop offset="0.9707" stop-color="#E6EAF1" stop-opacity="0.9853"/>
<stop offset="1" stop-color="white"/>
</linearGradient>
<linearGradient id="paint35_linear" x1="1016.07" y1="239.096" x2="1016.07" y2="106.004" gradientUnits="userSpaceOnUse">
<stop stop-color="white" stop-opacity="0.5"/>
<stop offset="1" stop-color="white"/>
</linearGradient>
<linearGradient id="paint36_linear" x1="1039.19" y1="239.099" x2="1039.19" y2="105.43" gradientUnits="userSpaceOnUse">
<stop stop-color="white"/>
<stop offset="0.8532" stop-color="#405684" stop-opacity="0.7"/>
<stop offset="0.8807" stop-color="#4B6696" stop-opacity="0.6"/>
<stop offset="0.8894" stop-color="#7085AC" stop-opacity="0.629"/>
<stop offset="0.9" stop-color="#96A6C2" stop-opacity="0.6646"/>
<stop offset="0.9115" stop-color="#B6C1D5" stop-opacity="0.703"/>
<stop offset="0.9237" stop-color="#D1D8E4" stop-opacity="0.7442"/>
<stop offset="0.9371" stop-color="#E5E9F0" stop-opacity="0.7891"/>
<stop offset="0.9522" stop-color="#F4F6F9" stop-opacity="0.8398"/>
<stop offset="0.9704" stop-color="#FCFDFE" stop-opacity="0.9007"/>
<stop offset="1" stop-color="white"/>
</linearGradient>
<linearGradient id="paint37_linear" x1="1039.19" y1="239.1" x2="1039.19" y2="130.758" gradientUnits="userSpaceOnUse">
<stop stop-color="#4B6696" stop-opacity="0.5"/>
<stop offset="0.3996" stop-color="#4D6897" stop-opacity="0.6998"/>
<stop offset="0.5436" stop-color="#546D9B" stop-opacity="0.7718"/>
<stop offset="0.6462" stop-color="#5F77A2" stop-opacity="0.8231"/>
<stop offset="0.7292" stop-color="#7086AC" stop-opacity="0.8646"/>
<stop offset="0.8003" stop-color="#8698B9" stop-opacity="0.9002"/>
<stop offset="0.8632" stop-color="#A2B0C8" stop-opacity="0.9316"/>
<stop offset="0.9201" stop-color="#C2CBDB" stop-opacity="0.9601"/>
<stop offset="0.9707" stop-color="#E6EAF1" stop-opacity="0.9853"/>
<stop offset="1" stop-color="white"/>
</linearGradient>
<linearGradient id="paint38_linear" x1="1039.19" y1="239.1" x2="1039.19" y2="106.008" gradientUnits="userSpaceOnUse">
<stop stop-color="white" stop-opacity="0.5"/>
<stop offset="1" stop-color="white"/>
</linearGradient>
<linearGradient id="paint39_linear" x1="896.129" y1="224.006" x2="904.154" y2="224.006" gradientUnits="userSpaceOnUse">
<stop stop-color="#405684"/>
<stop offset="0.1074" stop-color="#475C88"/>
<stop offset="0.2626" stop-color="#5A6D95"/>
<stop offset="0.4469" stop-color="#7A89A9"/>
<stop offset="0.6534" stop-color="#A5B0C5"/>
<stop offset="0.8757" stop-color="#DDE1E9"/>
<stop offset="1" stop-color="white"/>
</linearGradient>
<radialGradient id="paint40_radial" cx="0" cy="0" r="1" gradientUnits="userSpaceOnUse" gradientTransform="translate(900.143 224.007) scale(3.94966)">
<stop stop-color="white"/>
<stop offset="0.1363" stop-color="#ECEEF3"/>
<stop offset="0.4136" stop-color="#BAC2D3"/>
<stop offset="0.8032" stop-color="#6B7C9F"/>
<stop offset="1" stop-color="#405684"/>
</radialGradient>
<linearGradient id="paint41_linear" x1="1060.02" y1="224.006" x2="1068.04" y2="224.006" gradientUnits="userSpaceOnUse">
<stop stop-color="#405684"/>
<stop offset="0.1074" stop-color="#475C88"/>
<stop offset="0.2626" stop-color="#5A6D95"/>
<stop offset="0.4469" stop-color="#7A89A9"/>
<stop offset="0.6534" stop-color="#A5B0C5"/>
<stop offset="0.8757" stop-color="#DDE1E9"/>
<stop offset="1" stop-color="white"/>
</linearGradient>
<radialGradient id="paint42_radial" cx="0" cy="0" r="1" gradientUnits="userSpaceOnUse" gradientTransform="translate(1064.04 224.007) scale(3.94951)">
<stop stop-color="white"/>
<stop offset="0.1363" stop-color="#ECEEF3"/>
<stop offset="0.4136" stop-color="#BAC2D3"/>
<stop offset="0.8032" stop-color="#6B7C9F"/>
<stop offset="1" stop-color="#405684"/>
</radialGradient>
<linearGradient id="paint43_linear" x1="1244.51" y1="334.582" x2="1133.52" y2="19.593" gradientUnits="userSpaceOnUse">
<stop stop-color="#D51E3C"/>
<stop offset="1" stop-color="#FFF064"/>
</linearGradient>
<linearGradient id="paint44_linear" x1="1289.73" y1="318.647" x2="1178.73" y2="3.65309" gradientUnits="userSpaceOnUse">
<stop stop-color="#D51E3C"/>
<stop offset="1" stop-color="#FFF064"/>
</linearGradient>
<linearGradient id="paint45_linear" x1="1165.28" y1="362.489" x2="1054.29" y2="47.5099" gradientUnits="userSpaceOnUse">
<stop stop-color="#D51E3C"/>
<stop offset="1" stop-color="#FFF064"/>
</linearGradient>
</defs>
</svg>
