<svg width="1211" height="680" viewBox="0 0 1211 680" fill="none" xmlns="http://www.w3.org/2000/svg">
<mask id="mask0" mask-type="alpha" maskUnits="userSpaceOnUse" x="0" y="0" width="1211" height="680">
<path d="M1210 0H0.00195312V680H1210V0Z" fill="#334163"/>
</mask>
<g mask="url(#mask0)">
<path opacity="0.4" d="M985.248 39.1094C873.506 39.1094 782.918 129.695 782.918 241.438H1187.58C1187.58 129.695 1096.99 39.1094 985.248 39.1094Z" fill="url(#paint0_radial)"/>
<path opacity="0.2" d="M985.248 39.1094C873.506 39.1094 782.918 129.695 782.918 241.438H1187.58C1187.58 129.695 1096.99 39.1094 985.248 39.1094Z" fill="url(#paint1_radial)"/>
<path d="M1188 241.547H782.5V265.5H1188V241.547Z" fill="#334163"/>
<path d="M1188 241.547H782.5V265.5H1188V241.547Z" fill="url(#paint2_radial)"/>
<path opacity="0.4" d="M1078.02 253.467L1065.69 241.919C1065.48 241.716 1065.06 241.552 1064.77 241.552L905.731 241.551C905.437 241.551 905.023 241.716 904.81 241.919L892.481 253.467C892.268 253.668 892.095 254.07 892.094 254.363V254.462C892.094 254.756 892.334 254.995 892.629 254.995H1077.87C1078.16 254.995 1078.4 254.756 1078.4 254.462V254.363C1078.4 254.07 1078.23 253.668 1078.02 253.467Z" fill="#212A3F"/>
<path d="M906.488 253.529C906.703 253.327 906.877 252.921 906.877 252.629V225.35C906.877 225.056 906.635 224.816 906.342 224.816H902.333C902.038 224.816 901.799 225.056 901.799 225.35V254.453C901.799 254.748 902.038 254.987 902.333 254.987H904.417C904.71 254.987 905.125 254.822 905.337 254.62L906.488 253.529Z" fill="#212A3F"/>
<path d="M913.544 149.301C913.249 149.301 913.01 149.54 913.01 149.835V244.029C913.01 244.323 913.249 244.563 913.544 244.563H915.417C915.712 244.563 916.125 244.397 916.339 244.196L917.7 242.907C917.913 242.705 918.087 242.3 918.087 242.006V151.713C918.087 151.419 917.908 151.02 917.686 150.825L916.364 149.655C916.144 149.459 915.724 149.301 915.431 149.301H913.544Z" fill="#212A3F"/>
<path opacity="0.3" d="M915.964 149.423C915.784 149.348 915.588 149.301 915.43 149.301H913.544C913.249 149.301 913.01 149.54 913.01 149.835V244.029C913.01 244.323 913.249 244.563 913.544 244.563H915.417C915.573 244.563 915.763 244.515 915.938 244.44L915.964 149.423Z" fill="#405684"/>
<path opacity="0.3" d="M904.957 224.816H902.335C902.04 224.816 901.801 225.056 901.801 225.35V254.453C901.801 254.748 902.04 254.987 902.335 254.987H904.419C904.58 254.987 904.777 254.934 904.957 254.855V224.816Z" fill="#405684"/>
<path d="M1065.91 253.533C1065.7 253.331 1065.53 252.925 1065.53 252.632V225.354C1065.53 225.06 1065.77 224.82 1066.06 224.82H1070.07C1070.36 224.82 1070.6 225.06 1070.6 225.354V254.457C1070.6 254.752 1070.36 254.991 1070.07 254.991H1067.98C1067.69 254.991 1067.28 254.826 1067.06 254.624L1065.91 253.533Z" fill="#212A3F"/>
<path d="M1058.86 149.302C1059.15 149.302 1059.39 149.541 1059.39 149.836V244.03C1059.39 244.324 1059.15 244.564 1058.86 244.564H1056.99C1056.69 244.564 1056.28 244.398 1056.06 244.197L1054.7 242.907C1054.49 242.706 1054.32 242.301 1054.32 242.007V151.713C1054.32 151.42 1054.5 151.02 1054.71 150.825L1056.04 149.655C1056.26 149.459 1056.68 149.301 1056.97 149.301H1058.86V149.302Z" fill="#212A3F"/>
<path opacity="0.3" d="M1056.44 149.423C1056.62 149.348 1056.81 149.301 1056.97 149.301H1058.86C1059.15 149.301 1059.39 149.54 1059.39 149.835V244.029C1059.39 244.323 1059.15 244.563 1058.86 244.563H1056.99C1056.83 244.563 1056.64 244.515 1056.46 244.44L1056.44 149.423Z" fill="#405684"/>
<path opacity="0.3" d="M1067.45 224.82H1070.07C1070.36 224.82 1070.6 225.06 1070.6 225.354V254.457C1070.6 254.752 1070.36 254.991 1070.07 254.991H1067.98C1067.82 254.991 1067.63 254.938 1067.45 254.859V224.82Z" fill="#405684"/>
<path d="M1064.06 151.871H908.337C908.042 151.871 907.803 152.111 907.803 152.405L907.804 159.322C907.804 159.616 908.044 159.856 908.338 159.856H1064.06C1064.36 159.856 1064.6 159.616 1064.6 159.322L1064.6 152.405C1064.6 152.111 1064.36 151.871 1064.06 151.871Z" fill="#334163"/>
<path d="M1064.06 163.879H908.337C908.042 163.879 907.803 164.12 907.803 164.413L907.804 171.33C907.804 171.624 908.044 171.864 908.338 171.864H1064.06C1064.36 171.864 1064.6 171.625 1064.6 171.33L1064.6 164.413C1064.6 164.12 1064.36 163.879 1064.06 163.879Z" fill="#334163"/>
<path d="M1064.06 175.891H908.337C908.042 175.891 907.803 176.132 907.803 176.424L907.804 183.341C907.804 183.635 908.044 183.875 908.338 183.875H1064.06C1064.36 183.875 1064.6 183.636 1064.6 183.341L1064.6 176.424C1064.6 176.132 1064.36 175.891 1064.06 175.891Z" fill="#334163"/>
<path d="M1064.06 187.902H908.337C908.042 187.902 907.803 188.144 907.803 188.437L907.804 195.355C907.804 195.648 908.044 195.889 908.338 195.889H1064.06C1064.36 195.889 1064.6 195.649 1064.6 195.355L1064.6 188.438C1064.6 188.143 1064.36 187.902 1064.06 187.902Z" fill="#334163"/>
<path d="M1064.06 151.871H908.337C908.042 151.871 907.803 152.111 907.803 152.405L907.804 159.322C907.804 159.616 908.044 159.856 908.338 159.856H1064.06C1064.36 159.856 1064.6 159.616 1064.6 159.322L1064.6 152.405C1064.6 152.111 1064.36 151.871 1064.06 151.871Z" fill="#27334C"/>
<path d="M1064.06 163.879H908.337C908.042 163.879 907.803 164.12 907.803 164.413L907.804 171.33C907.804 171.624 908.044 171.864 908.338 171.864H1064.06C1064.36 171.864 1064.6 171.625 1064.6 171.33L1064.6 164.413C1064.6 164.12 1064.36 163.879 1064.06 163.879Z" fill="#27334C"/>
<path d="M1064.06 175.891H908.337C908.042 175.891 907.803 176.132 907.803 176.424L907.804 183.341C907.804 183.635 908.044 183.875 908.338 183.875H1064.06C1064.36 183.875 1064.6 183.636 1064.6 183.341L1064.6 176.424C1064.6 176.132 1064.36 175.891 1064.06 175.891Z" fill="#27334C"/>
<path d="M1064.06 187.902H908.337C908.042 187.902 907.803 188.144 907.803 188.437L907.804 195.355C907.804 195.648 908.044 195.889 908.338 195.889H1064.06C1064.36 195.889 1064.6 195.649 1064.6 195.355L1064.6 188.438C1064.6 188.143 1064.36 187.902 1064.06 187.902Z" fill="#27334C"/>
<path d="M1064.17 151.871H908.229C907.935 151.871 907.695 152.111 907.695 152.405L907.697 157.706C907.697 158 907.937 158.24 908.232 158.24H1064.17C1064.46 158.24 1064.7 158 1064.7 157.706L1064.71 152.405C1064.71 152.111 1064.47 151.871 1064.17 151.871Z" fill="#4B6696"/>
<path d="M1064.17 163.879H908.229C907.935 163.879 907.695 164.12 907.695 164.413L907.697 169.715C907.697 170.008 907.937 170.249 908.232 170.249H1064.17C1064.46 170.249 1064.7 170.008 1064.7 169.715L1064.71 164.413C1064.71 164.12 1064.47 163.879 1064.17 163.879Z" fill="#4B6696"/>
<path d="M1064.17 175.891H908.229C907.935 175.891 907.695 176.132 907.695 176.424L907.697 181.725C907.697 182.019 907.937 182.26 908.232 182.26H1064.17C1064.46 182.26 1064.7 182.019 1064.7 181.725L1064.71 176.424C1064.71 176.132 1064.47 175.891 1064.17 175.891Z" fill="#4B6696"/>
<path d="M1064.17 187.902H908.229C907.935 187.902 907.695 188.144 907.695 188.437L907.697 193.739C907.697 194.032 907.937 194.272 908.232 194.272H1064.17C1064.46 194.272 1064.7 194.032 1064.7 193.739L1064.71 188.438C1064.71 188.143 1064.47 187.902 1064.17 187.902Z" fill="#4B6696"/>
<path d="M1064.17 151.871H908.229C907.935 151.871 907.695 152.111 907.695 152.405L907.697 157.706C907.697 158 907.937 158.24 908.232 158.24H1064.17C1064.46 158.24 1064.7 158 1064.7 157.706L1064.71 152.405C1064.71 152.111 1064.47 151.871 1064.17 151.871Z" fill="url(#paint3_radial)"/>
<path d="M1064.17 163.879H908.229C907.935 163.879 907.695 164.12 907.695 164.413L907.697 169.715C907.697 170.008 907.937 170.249 908.232 170.249H1064.17C1064.46 170.249 1064.7 170.008 1064.7 169.715L1064.71 164.413C1064.71 164.12 1064.47 163.879 1064.17 163.879Z" fill="url(#paint4_radial)"/>
<path d="M1064.17 175.891H908.229C907.935 175.891 907.695 176.132 907.695 176.424L907.697 181.725C907.697 182.019 907.937 182.26 908.232 182.26H1064.17C1064.46 182.26 1064.7 182.019 1064.7 181.725L1064.71 176.424C1064.71 176.132 1064.47 175.891 1064.17 175.891Z" fill="url(#paint5_radial)"/>
<path d="M1064.17 187.902H908.229C907.935 187.902 907.695 188.144 907.695 188.437L907.697 193.739C907.697 194.032 907.937 194.272 908.232 194.272H1064.17C1064.46 194.272 1064.7 194.032 1064.7 193.739L1064.71 188.438C1064.71 188.143 1064.47 187.902 1064.17 187.902Z" fill="url(#paint6_radial)"/>
<path d="M1064.17 151.871H908.229C907.935 151.871 907.695 152.111 907.695 152.405L907.697 157.706C907.697 158 907.937 158.24 908.232 158.24H1064.17C1064.46 158.24 1064.7 158 1064.7 157.706L1064.71 152.405C1064.71 152.111 1064.47 151.871 1064.17 151.871Z" fill="url(#paint7_radial)"/>
<path d="M1064.17 163.879H908.229C907.935 163.879 907.695 164.12 907.695 164.413L907.697 169.715C907.697 170.008 907.937 170.249 908.232 170.249H1064.17C1064.46 170.249 1064.7 170.008 1064.7 169.715L1064.71 164.413C1064.71 164.12 1064.47 163.879 1064.17 163.879Z" fill="url(#paint8_radial)"/>
<path d="M1064.17 175.891H908.229C907.935 175.891 907.695 176.132 907.695 176.424L907.697 181.725C907.697 182.019 907.937 182.26 908.232 182.26H1064.17C1064.46 182.26 1064.7 182.019 1064.7 181.725L1064.71 176.424C1064.71 176.132 1064.47 175.891 1064.17 175.891Z" fill="url(#paint9_radial)"/>
<path d="M1064.17 187.902H908.229C907.935 187.902 907.695 188.144 907.695 188.437L907.697 193.739C907.697 194.032 907.937 194.272 908.232 194.272H1064.17C1064.46 194.272 1064.7 194.032 1064.7 193.739L1064.71 188.438C1064.71 188.143 1064.47 187.902 1064.17 187.902Z" fill="url(#paint10_radial)"/>
<path d="M1079.3 215.842H1079.05C1078.75 215.842 1078.51 215.603 1078.51 215.309V213.888C1078.51 213.595 1078.34 213.186 1078.13 212.979L1074.31 209.195C1074.1 208.989 1073.69 208.82 1073.4 208.82H1072.72C1072.43 208.82 1072.19 208.581 1072.19 208.286V207.631C1072.19 207.337 1072.02 206.929 1071.81 206.722L1069.05 203.99C1068.84 203.784 1068.46 203.615 1068.2 203.615C1067.95 203.615 1067.74 203.406 1067.74 203.153C1067.74 202.896 1067.56 202.52 1067.36 202.313L1065.41 200.387C1065.2 200.181 1064.79 200.012 1064.5 200.012H907.902C907.608 200.012 907.197 200.181 906.989 200.387L905.044 202.313C904.835 202.52 904.666 202.896 904.666 203.152C904.666 203.407 904.454 203.615 904.197 203.615C903.939 203.615 903.558 203.784 903.35 203.99L900.59 206.722C900.381 206.928 900.212 207.337 900.212 207.631V208.286C900.212 208.581 899.971 208.82 899.677 208.82H899.004C898.711 208.82 898.299 208.989 898.091 209.195L894.269 212.979C894.059 213.186 893.89 213.595 893.89 213.888V215.309C893.89 215.602 893.648 215.842 893.355 215.842H893.105C892.811 215.842 892.57 216.083 892.57 216.376V222.965C892.57 223.26 892.811 223.499 893.105 223.499H1079.3C1079.59 223.499 1079.83 223.26 1079.83 222.965V216.376C1079.83 216.083 1079.59 215.842 1079.3 215.842Z" fill="url(#paint11_linear)"/>
<path d="M897.48 223.501L897.481 227.724C897.481 228.017 897.722 228.257 898.015 228.257H1074.39C1074.68 228.257 1074.92 228.017 1074.92 227.723L1074.92 223.5H897.48V223.501Z" fill="url(#paint12_linear)"/>
<path opacity="0.1" d="M897.48 223.501L897.481 227.724C897.481 228.017 897.722 228.257 898.015 228.257H1074.39C1074.68 228.257 1074.92 228.017 1074.92 227.723L1074.92 223.5H897.48V223.501Z" fill="#4B6696"/>
<g opacity="0.3">
<path opacity="0.3" d="M1064.17 151.871H908.229C907.935 151.871 907.695 152.111 907.695 152.405L907.697 157.706C907.697 158 907.937 158.24 908.232 158.24H1064.17C1064.46 158.24 1064.7 158 1064.7 157.706L1064.71 152.405C1064.71 152.111 1064.47 151.871 1064.17 151.871Z" fill="#4B6696"/>
<path opacity="0.3" d="M1064.17 163.879H908.229C907.935 163.879 907.695 164.12 907.695 164.413L907.697 169.715C907.697 170.008 907.937 170.249 908.232 170.249H1064.17C1064.46 170.249 1064.7 170.008 1064.7 169.715L1064.71 164.413C1064.71 164.12 1064.47 163.879 1064.17 163.879Z" fill="#4B6696"/>
<path opacity="0.3" d="M1064.17 175.891H908.229C907.935 175.891 907.695 176.132 907.695 176.424L907.697 181.725C907.697 182.019 907.937 182.26 908.232 182.26H1064.17C1064.46 182.26 1064.7 182.019 1064.7 181.725L1064.71 176.424C1064.71 176.132 1064.47 175.891 1064.17 175.891Z" fill="#4B6696"/>
<path opacity="0.3" d="M1064.17 187.902H908.229C907.935 187.902 907.695 188.144 907.695 188.437L907.697 193.739C907.697 194.032 907.937 194.272 908.232 194.272H1064.17C1064.46 194.272 1064.7 194.032 1064.7 193.739L1064.71 188.438C1064.71 188.143 1064.47 187.902 1064.17 187.902Z" fill="#4B6696"/>
</g>
<path opacity="0.3" d="M1079.3 215.842H1079.05C1078.75 215.842 1078.51 215.603 1078.51 215.309V213.888C1078.51 213.595 1078.34 213.186 1078.13 212.979L1074.31 209.195C1074.1 208.989 1073.69 208.82 1073.4 208.82H1072.72C1072.43 208.82 1072.19 208.581 1072.19 208.286V207.631C1072.19 207.337 1072.02 206.929 1071.81 206.722L1069.05 203.99C1068.84 203.784 1068.46 203.615 1068.2 203.615C1067.95 203.615 1067.74 203.406 1067.74 203.153C1067.74 202.896 1067.56 202.52 1067.36 202.313L1065.41 200.387C1065.2 200.181 1064.79 200.012 1064.5 200.012H907.902C907.608 200.012 907.197 200.181 906.989 200.387L905.044 202.313C904.835 202.52 904.666 202.896 904.666 203.152C904.666 203.407 904.454 203.615 904.197 203.615C903.939 203.615 903.558 203.784 903.35 203.99L900.59 206.722C900.381 206.928 900.212 207.337 900.212 207.631V208.286C900.212 208.581 899.971 208.82 899.677 208.82H899.004C898.711 208.82 898.299 208.989 898.091 209.195L894.269 212.979C894.059 213.186 893.89 213.595 893.89 213.888V215.309C893.89 215.602 893.648 215.842 893.355 215.842H893.105C892.811 215.842 892.57 216.083 892.57 216.376V222.965C892.57 223.26 892.811 223.499 893.105 223.499H1079.3C1079.59 223.499 1079.83 223.26 1079.83 222.965V216.376C1079.83 216.083 1079.59 215.842 1079.3 215.842Z" fill="url(#paint13_linear)"/>
<path d="M1068.21 203.614C1067.95 203.614 1067.74 203.405 1067.74 203.152C1067.74 203.012 1067.69 202.843 1067.61 202.68H904.795C904.717 202.843 904.666 203.013 904.666 203.151C904.666 203.406 904.454 203.614 904.197 203.614H1068.21Z" fill="#27334C"/>
<path d="M1072.73 208.817C1072.43 208.817 1072.19 208.578 1072.19 208.283V207.628C1072.19 207.462 1072.13 207.263 1072.05 207.082H900.355C900.269 207.263 900.213 207.462 900.213 207.628V208.283C900.213 208.578 899.972 208.817 899.678 208.817H1072.73Z" fill="#27334C"/>
<path d="M1079.05 215.842C1078.75 215.842 1078.51 215.602 1078.51 215.308V213.887C1078.51 213.727 1078.46 213.533 1078.38 213.355H894.025C893.944 213.533 893.89 213.727 893.89 213.887V215.308C893.89 215.601 893.649 215.842 893.355 215.842H1079.05Z" fill="#27334C"/>
<path d="M1079.3 219.074H893.107C892.812 219.074 892.572 219.313 892.572 219.608L892.573 222.966C892.577 223.257 892.815 223.494 893.107 223.494H1079.3C1079.59 223.494 1079.83 223.257 1079.83 222.966V219.608C1079.83 219.313 1079.59 219.074 1079.3 219.074Z" fill="#27334C"/>
<path d="M908.709 157.862C908.892 157.276 909.152 156.71 909.403 156.151C909.752 155.372 910.12 154.601 910.495 153.836C910.683 153.451 910.874 153.069 911.067 152.687C911.156 152.509 911.478 151.952 911.43 151.903C911.383 151.854 911.291 151.939 911.252 151.966C910.999 152.136 910.745 152.304 910.489 152.469C910.143 152.692 909.795 152.909 909.44 153.118C909.371 153.158 909.304 153.203 909.233 153.242C909.21 153.254 909.155 153.286 909.131 153.262C909.095 153.226 909.149 153.17 909.172 153.144C909.215 153.094 909.254 153.042 909.293 152.99C910.653 151.192 914.88 145.184 916.168 142.795C917.54 140.249 918.581 139.718 919.998 139.984C920.923 140.156 921.507 140.604 921.802 141.042C922.319 141.102 922.779 141.28 923.175 141.508C922.928 141.654 922.522 141.831 921.914 141.989C921.602 142.414 920.794 142.846 920.884 143.437C920.994 144.168 921.681 144.941 921.681 145.917C921.681 146.847 921.149 149.858 916.678 151.474C915.78 151.798 914.865 152.116 913.926 152.291C913.735 152.326 913.544 152.355 913.352 152.369C913.15 152.384 912.879 152.315 912.792 152.551C912.693 152.816 912.589 153.078 912.48 153.339C912.278 153.817 912.059 154.288 911.823 154.75C911.507 155.366 911.172 155.988 910.764 156.549C910.75 156.566 910.621 156.762 910.588 156.742C910.528 156.706 910.432 156.573 910.405 156.292C910.396 156.199 910.357 156.137 910.293 156.218C910.208 156.329 910.134 156.458 910.052 156.574C909.897 156.793 909.739 157.012 909.582 157.229C909.361 157.529 909.14 157.836 908.889 158.112C908.856 158.148 908.728 158.317 908.663 158.293C908.563 158.255 908.692 157.918 908.709 157.862Z" fill="#212A3F"/>
<path opacity="0.2" d="M920.415 146.239C920.443 143.649 917.82 142.842 915.77 143.499C914.169 146.199 910.54 151.349 909.297 152.991C909.257 153.043 909.218 153.096 909.176 153.146C909.153 153.172 909.099 153.229 909.135 153.263C909.159 153.288 909.214 153.256 909.238 153.243C909.308 153.205 909.375 153.16 909.444 153.119C909.799 152.911 910.148 152.694 910.493 152.471C910.587 152.41 910.679 152.348 910.773 152.287L910.825 152.238C910.854 152.222 910.889 152.205 910.921 152.189C911.032 152.115 911.145 152.042 911.256 151.968C911.295 151.94 911.387 151.856 911.435 151.904C911.441 151.912 911.438 151.935 911.429 151.964C913.891 150.985 920.38 149.403 920.415 146.239Z" fill="url(#paint14_radial)"/>
<path opacity="0.2" d="M917.901 141.63C918.11 145.023 923.455 142.277 921.365 140.589C921.039 140.326 920.598 140.096 920.001 139.984C918.739 139.748 917.84 140.621 917.901 141.63Z" fill="url(#paint15_radial)"/>
<path opacity="0.5" d="M761.431 -14.5345C761.331 -5.88854 759.701 1.84548 763.861 9.79948C767.58 16.9075 774.613 21.7315 780.75 26.5815C791.582 35.1435 789.338 17.7625 787.781 10.9385C786.299 4.43546 783.367 -1.99454 778.011 -6.20254C774.687 -8.81454 771.24 -11.2595 767.55 -13.3165C766.89 -13.6675 761.456 -16.8385 761.431 -14.5345Z" fill="#0E9983"/>
<path opacity="0.5" d="M771.388 -13.9275C773.221 -9.62354 774.382 -5.11654 777.176 -1.27654C780.501 3.29146 786.665 3.32747 791.743 4.82447C792.867 5.15347 798.542 7.58148 797.677 4.51148C796.594 0.678484 793.387 -9.12152 787.848 -11.4245C782.294 -13.7235 770.494 -16.0305 771.388 -13.9275Z" fill="#3C507E"/>
<path opacity="0.5" d="M964.846 54.5415C965.75 53.9506 966.649 51.1455 967.009 50.4025C967.968 48.3385 968.944 46.2655 969.936 44.2135C971.795 40.3655 973.6 36.4125 975.88 32.7875C978.234 29.0576 977.215 23.7665 976.135 19.7935C975.6 17.7995 974.665 15.8815 973.969 13.9235C973.445 12.4735 971.676 8.09254 969.759 10.2735C967.946 12.3445 966.44 14.5775 964.442 16.5365C961.365 19.5675 957.417 22.6626 957.314 27.3536C957.259 29.8176 957.856 32.3476 958.392 34.7456C959.502 39.7376 960.94 44.6625 962.445 49.5445C962.883 50.9705 963.153 52.8805 963.904 54.1705C964.203 54.6905 964.524 54.7556 964.846 54.5415Z" fill="#455E99"/>
<path opacity="0.5" d="M930.269 25.2357C928.837 23.3207 934.08 17.9537 935.098 16.7007C937.68 13.5077 940.957 10.6567 945.12 9.87367C953.56 8.28667 959.871 6.98466 962.196 6.93766C964.151 6.89066 957.803 17.0817 957.139 17.9947C953.746 22.7287 949.489 23.8237 943.77 24.7087C941.234 25.0957 938.723 25.7917 936.136 25.8417C935.115 25.8707 931.101 26.0607 930.385 25.3767C930.347 25.3357 930.306 25.2927 930.269 25.2357Z" fill="white"/>
<path opacity="0.5" d="M998.657 24.0765C997.707 20.4685 999.222 14.0705 998.732 7.18147C998.244 0.460472 990.761 -5.71151 986.025 -9.71251C984.339 -11.1355 980.191 -15.3485 978.138 -13.1195C976.827 -11.7015 977.329 -8.61252 977.179 -6.86552C976.917 -4.04952 976.421 -1.25852 975.715 1.45448C973.714 9.17148 992.305 22.2165 994.644 23.7665C996.99 25.3225 999.594 27.7075 998.657 24.0765Z" fill="#0E9983"/>
<path opacity="0.5" d="M1185.06 198.45C1186.19 207.244 1185.64 215.33 1190.99 222.815C1195.78 229.505 1203.61 233.401 1210.53 237.454C1222.75 244.607 1218 227.277 1215.44 220.569C1213.01 214.176 1209.12 208.064 1203.08 204.552C1199.34 202.372 1195.49 200.38 1191.45 198.815C1190.73 198.554 1184.76 196.107 1185.06 198.45Z" fill="#0E9983"/>
<path opacity="0.5" d="M1218.52 239.221C1214 234.954 1210.2 230.083 1204.76 226.891C1198.28 223.093 1190.76 226.321 1183.79 227.195C1182.24 227.389 1174.05 227.444 1176.73 230.723C1180.08 234.815 1189.19 245.043 1197.15 244.906C1205.13 244.76 1220.72 241.306 1218.52 239.221Z" fill="#455E99"/>
<path opacity="0.5" d="M1215.25 248.692C1217.04 250.066 1213.73 256.309 1213.14 257.709C1211.65 261.284 1209.46 264.738 1205.9 266.536C1198.68 270.184 1193.33 273.015 1191.24 273.662C1189.49 274.216 1192.52 263.304 1192.87 262.295C1194.69 257.114 1198.24 255.007 1203.18 252.713C1205.37 251.695 1207.45 250.398 1209.77 249.677C1210.69 249.385 1214.27 248.165 1215.09 248.599C1215.15 248.626 1215.19 248.659 1215.25 248.692Z" fill="white"/>
<path opacity="0.5" d="M1103.21 165.711C1101.74 164.613 1104.37 159.512 1104.83 158.369C1106.01 155.452 1107.76 152.627 1110.62 151.132C1116.45 148.103 1120.77 145.752 1122.45 145.205C1123.88 144.739 1121.52 153.626 1121.24 154.451C1119.82 158.673 1116.95 160.42 1112.96 162.328C1111.2 163.176 1109.52 164.249 1107.64 164.857C1106.89 165.102 1104 166.128 1103.33 165.783C1103.29 165.763 1103.25 165.737 1103.21 165.711Z" fill="#0E9983"/>
<path opacity="0.5" d="M1126.23 36.9679C1124.18 37.2213 1122.34 31.0204 1121.83 29.7328C1120.51 26.4413 1119.73 22.7812 1120.9 19.3285C1123.27 12.3199 1124.95 7.04173 1125.9 5.281C1126.69 3.7925 1131.71 12.8593 1132.12 13.7461C1134.26 18.2898 1133.29 21.9452 1131.53 26.6095C1130.76 28.6745 1130.23 30.8587 1129.17 32.8163C1128.76 33.5983 1127.21 36.686 1126.39 36.9311C1126.34 36.9456 1126.29 36.9557 1126.23 36.9679Z" fill="white"/>
<path opacity="0.5" d="M1222.48 139.622C1217.9 140.429 1207.11 140.491 1204.82 147.313C1202.5 154.105 1197.28 159.211 1200.96 159.039C1204.62 158.832 1214.09 157.973 1217.2 153.572C1220.3 149.16 1224.56 139.252 1222.48 139.622Z" fill="#0E9983"/>
<path opacity="0.5" d="M1014.81 -5.74944C1015.21 -4.70067 1016.26 -3.55893 1016.64 -2.824C1019.13 1.97746 1020.72 7.17136 1023.5 11.8401C1027.51 18.5562 1038.55 21.0097 1045.59 22.6646C1048.09 23.2514 1054.62 25.4267 1055.61 22.0404C1056.24 19.877 1054.1 16.9298 1053.36 15.0508C1051.81 11.1465 1050.96 6.8473 1048.48 3.38154C1045.34 -0.986586 1040.47 -2.6739 1035.54 -4.13754C1030.2 -5.71871 1024.66 -6.89002 1019.13 -7.5238C1018.05 -7.64793 1015.99 -8.2539 1015.06 -7.40744C1014.56 -6.95754 1014.57 -6.3701 1014.81 -5.74944Z" fill="#455E99"/>
<path opacity="0.5" d="M1062.53 34.8419C1063.55 34.3671 1064.23 34.0574 1063.89 32.6488C1063.58 31.3748 1062.36 30.3887 1061.34 29.689C1052.9 23.9211 1042.45 24.6775 1034.18 30.0804C1031.86 31.5961 1029.66 33.3244 1027.53 35.0948C1024.1 37.9403 1020.8 41.747 1018.5 45.6285C1015.43 50.8213 1028.9 51.0166 1031.97 51.6815C1037.04 52.7813 1042.35 51.9078 1047.03 49.7574C1051.06 47.9048 1053.21 44.4895 1055.63 40.9351C1057.34 38.4178 1059.44 36.3336 1062.2 34.9983C1062.31 34.9436 1062.42 34.891 1062.53 34.8419Z" fill="white"/>
<path opacity="0.5" d="M1134.44 130.79C1138.83 136.352 1142.4 142.507 1147.64 147.36C1152.66 151.996 1158.65 153.737 1165.37 152.851C1168.42 152.455 1171.23 151.282 1174.18 150.506C1177.62 149.598 1183.82 148.738 1179.14 144.406C1175.68 141.211 1173.34 136.818 1169.66 133.907C1164.6 129.917 1158.5 126.855 1151.92 126.952C1147.85 127.016 1143.78 127.276 1139.77 127.982C1139.05 128.114 1133.06 129.04 1134.44 130.79Z" fill="#455E99"/>
<path opacity="0.5" d="M1097.85 112.212C1101.97 115.881 1109.82 125.845 1118 123.055C1126.17 120.27 1134.85 121.405 1132 118.133C1129.17 114.866 1121.48 106.723 1115.01 107.03C1108.54 107.343 1096 110.554 1097.85 112.212Z" fill="white"/>
<path opacity="0.5" d="M1130.47 138.803C1130.63 138.646 1130.8 138.512 1130.99 138.412C1133.07 137.265 1135.38 140.395 1136.77 141.66C1144.12 148.338 1145.78 155.853 1143.51 165.288C1142.72 168.648 1142.72 172.129 1141.95 175.489C1141.52 177.4 1141.68 180.42 1140.36 181.984C1138.47 184.215 1135.75 180.014 1134.56 178.363C1132.02 174.822 1128.54 171.744 1126.89 167.623C1125.18 163.333 1125.7 158.659 1126.44 154.215C1126.92 151.267 1127.06 148.225 1127.93 145.352C1128.44 143.659 1128.98 140.218 1130.47 138.803Z" fill="white"/>
<path opacity="0.5" d="M1135.27 125.301C1136.52 123.152 1136.54 121.119 1133.16 119.05C1129.88 117.043 1125.6 116.256 1121.84 115.82C1115.55 115.097 1110.27 117.249 1105.49 121.253C1101.49 124.611 1097.66 128.195 1093.95 131.888C1091.8 134.024 1087.77 138.919 1091.85 140.704C1095.1 142.123 1100.14 141.963 1103.62 142.498C1116.45 144.468 1124.55 138.323 1132.38 129.034C1133.48 127.734 1134.58 126.499 1135.27 125.301Z" fill="#0E9983"/>
<path opacity="0.5" d="M1175.58 34.7853C1176.83 32.6345 1176.85 30.6051 1173.47 28.534C1170.19 26.5256 1165.91 25.7394 1162.15 25.3026C1155.86 24.5805 1150.58 26.7329 1145.8 30.7407C1141.99 33.9301 1138.61 37.6044 1134.83 40.8021C1133.21 42.1772 1128.6 45.0001 1130.82 47.2251C1132.25 48.6464 1135.24 48.9763 1137.1 49.3115C1146.56 51.0145 1156.43 51.2671 1165.11 46.5224C1168.74 44.5341 1170.1 41.5966 1172.69 38.5213C1173.79 37.2168 1174.89 35.9828 1175.58 34.7853Z" fill="white"/>
<path opacity="0.5" d="M1176.36 88.0947C1177.41 88.6804 1178.47 88.7287 1179.39 87.7904C1180.15 87.0069 1180.38 84.1825 1180.66 83.1244C1182 78.1134 1184.96 73.7836 1186.74 68.9506C1189.12 62.5068 1188.94 55.7256 1186.83 49.2452C1186.1 46.9513 1184.9 44.7677 1183.98 42.5225C1183.28 40.8668 1180.97 35.8569 1178.86 38.4952C1174.02 44.5206 1168.16 50.8095 1166.64 58.686C1165.31 65.5605 1167.69 74.5352 1170.6 80.7574C1171.25 82.1551 1173.81 86.6847 1176.36 88.0947Z" fill="#455E99"/>
<path opacity="0.5" d="M1100.45 85.9411C1100.43 86.1235 1100.44 86.3193 1100.49 86.5279C1100.86 88.1572 1103.56 88.9498 1104.9 89.3144C1110.7 90.8986 1115.65 94.4704 1121.13 96.8082C1127.18 99.3871 1132.69 99.1614 1138.85 97.1435C1140.53 96.5924 1153.33 92.0928 1149.59 89.1437C1141.86 83.042 1133.95 75.1061 1123.25 76.3189C1116.44 77.0917 1110.24 80.4532 1104.08 83.2322C1102.84 83.7898 1100.59 84.4042 1100.45 85.9411Z" fill="#0E9983"/>
<path opacity="0.5" d="M1081.94 77.8608C1082.37 78.2072 1083.05 78.3735 1084.07 78.258C1085.73 78.0696 1087.01 77.1063 1088.52 76.5263C1095.49 73.837 1101.98 71.1989 1108.38 67.2789C1114.44 63.5674 1116.31 55.9836 1118.49 49.7464C1119.08 48.0536 1120.69 42.7877 1117.36 43.3537C1114.2 43.9058 1111.19 44.8216 1107.95 45.1245C1104.27 45.4676 1100.45 45.7794 1097.08 47.4102C1092.99 49.3851 1091.04 53.2931 1089.11 57.1753C1086.45 62.5092 1084.13 68.0307 1081.91 73.552C1081.29 75.0864 1080.88 77.0127 1081.94 77.8608Z" fill="#3C507E"/>
<path opacity="0.5" d="M1100.89 38.3587C1100.86 38.7619 1100.69 39.1553 1100.31 39.5219C1098.69 41.0835 1093.76 40.8067 1091.66 40.8567C1088.77 40.9255 1084.28 40.0888 1081.77 38.5402C1078.85 36.7395 1076.92 33.633 1074.24 31.5304C1072.27 29.9857 1068.48 27.5743 1072.71 26.2113C1075.07 25.4495 1077.74 24.9444 1080.21 24.6938C1085.37 24.1729 1088.62 26.3656 1092.6 29.6568C1094.38 31.1229 1096.34 32.393 1097.9 34.0725C1098.88 35.1219 1100.97 36.8206 1100.89 38.3587Z" fill="#455E99"/>
<path opacity="0.5" d="M1194.68 10.1463C1196.26 7.87111 1204.12 11.7378 1205.87 12.4012C1210.35 14.0988 1214.7 16.703 1217.1 21.0295C1221.98 29.7934 1225.74 36.3012 1226.65 38.856C1227.43 41.0053 1213.85 37.6703 1212.6 37.2717C1206.12 35.2179 1203.35 30.9145 1200.26 24.9017C1198.89 22.2388 1197.18 19.7058 1196.17 16.8665C1195.77 15.7459 1194.07 11.3653 1194.57 10.3308C1194.59 10.2714 1194.63 10.2066 1194.68 10.1463Z" fill="#3C507E"/>
<path opacity="0.5" d="M1151.04 91.7447C1149.33 93.9582 1141.62 89.8319 1139.89 89.1033C1135.48 87.2433 1131.21 84.5143 1129 80.1088C1127.22 76.5569 1125.41 73.0208 1123.65 69.4628C1122.24 66.6224 1119.24 60.9929 1124.93 61.6748C1128.02 62.0457 1131.36 62.9711 1134.3 64.011C1142.78 67.0095 1147.37 76.9758 1149.84 84.9697C1150.2 86.1108 1151.69 90.5393 1151.15 91.5568C1151.12 91.62 1151.08 91.6788 1151.04 91.7447Z" fill="white"/>
<path opacity="0.5" d="M1058.02 83.5093C1059.1 83.2449 1059.51 80.8938 1059.87 79.8432C1062.18 73.0889 1067.66 65.8791 1067.28 58.4293C1067.16 56.2064 1067.33 54.4758 1066.12 52.4969C1065.74 51.8772 1064.72 50.7845 1065.28 50.0374C1066.19 48.8375 1067.43 50.3193 1068.14 50.9456C1070.69 53.2017 1073.78 53.9019 1077.2 53.9623C1078.95 53.9924 1084.35 53.9709 1082.96 50.8471C1082.21 49.1647 1081.08 47.5589 1080.31 45.8476C1077.36 39.3529 1070.75 35.9984 1064.37 33.6468C1062.84 33.0826 1061.3 32.5953 1059.77 32.0178C1058.63 31.5833 1057.3 30.1571 1056.08 30.0841C1054.88 30.0128 1054.83 30.9887 1054.35 32.0662C1052.08 37.1827 1048.44 41.4804 1046.59 46.8157C1044.44 53.0244 1043.6 60.4342 1046.36 66.5976C1047.89 70.0202 1050.27 72.97 1052.46 75.9819C1053.44 77.3279 1054.35 78.7073 1055.42 79.9412C1055.99 80.5921 1057.47 83.6443 1058.02 83.5093Z" fill="#0E9983"/>
<path opacity="0.5" d="M1163.1 -2.16426C1159.21 -2.46251 1155 -2.30264 1151.56 -0.53226C1147.63 1.48611 1145.48 4.01252 1143.65 7.94584C1143.28 8.73874 1142.58 11.3269 1141.51 11.2605C1140.1 11.173 1140.4 8.68914 1140.53 7.88755C1141.32 2.79206 1140.01 -1.05981 1138.34 -5.80465C1136.26 -11.7326 1132.21 -15.9414 1127.25 -19.6429C1122.09 -23.492 1116.35 -26.429 1110.94 -29.8889C1109.43 -30.8572 1107.83 -32.2042 1106.02 -32.53C1102.83 -33.1018 1103.83 -25.4535 1103.98 -23.935C1104.82 -15.3871 1105.07 -6.57137 1107.5 1.71558C1108.29 4.40304 1109.17 7.20464 1111 9.38513C1112.84 11.5669 1116.68 12.0726 1117.96 14.5242C1119.94 18.315 1113.77 16.7701 1112.2 15.9909C1103.69 11.7686 1095.01 14.2653 1087.2 18.7412C1085.61 19.6522 1082.2 21.826 1081.98 23.9267C1081.84 25.376 1084.4 26.9141 1085.37 27.5018C1087.17 28.599 1088.91 29.8346 1090.76 30.8523C1094.69 33.0119 1099.31 34.553 1103.78 34.9427C1106.14 35.1474 1108.55 35.0279 1110.83 34.3629C1113.02 33.7263 1115.46 32.6206 1117.32 31.2907C1118.2 30.6572 1121.01 29.7434 1121.53 31.2507C1122.17 33.0892 1118.55 34.0874 1117.49 34.5154C1115 35.5153 1112.87 36.5154 1111.12 38.6501C1107.93 42.5657 1107.72 48.0838 1105.99 52.6592C1105.02 55.2245 1105.78 57.9465 1109.02 56.9355C1111.97 56.0132 1114.97 55.1988 1118.07 54.7591C1125.66 53.6908 1133.5 50.2565 1135.64 42.2506C1135.84 41.4714 1135.92 39.7932 1136.86 39.7063C1137.93 39.6079 1137.56 41.0302 1137.52 41.7803C1137.41 43.7413 1137.19 45.0723 1138.33 46.7359C1140.11 49.3536 1141.71 52.0901 1143.73 54.5467C1145.03 56.1349 1147.96 60.1302 1149.16 56.6243C1149.98 54.2585 1150.98 51.9515 1151.8 49.5751C1153.34 45.0579 1154.45 39.399 1151.03 35.4251C1148.56 32.5547 1145.53 29.0593 1143.81 25.6887C1142.27 22.6961 1145.86 22.0672 1148.01 21.2623C1151.5 19.9558 1154.89 18.6529 1157.51 15.8986C1160.3 12.9775 1162.23 9.35727 1163.43 5.51948C1164 3.71763 1164.64 1.70913 1164.83 -0.15593C1164.97 -1.59863 1164.92 -2.01431 1163.43 -2.13845C1163.32 -2.14665 1163.21 -2.1556 1163.1 -2.16426Z" fill="#0E9983"/>
<path opacity="0.5" d="M1169.88 25.9479C1167.3 23.9098 1162.17 18.2456 1157.49 20.2597C1152.82 22.2398 1147.66 21.8932 1149.49 23.7616C1151.33 25.5918 1156.25 30.1793 1160.04 29.7439C1163.83 29.2954 1171.06 26.867 1169.88 25.9479Z" fill="#0E9983"/>
<path opacity="0.5" d="M1201.47 83.7057C1201.17 83.6156 1200.79 83.5711 1200.32 83.5827C1196.27 83.6809 1190.22 86.0158 1186.92 88.3621C1180.75 92.755 1181.46 100.251 1178.59 106.467C1177.98 107.792 1177.61 109.945 1179.72 109.526C1183.96 108.681 1194.84 106.053 1197.78 100.268C1199.68 96.5205 1201.02 92.3645 1201.95 88.2762C1202.41 86.2432 1203.17 84.2187 1201.47 83.7057Z" fill="white"/>
<path opacity="0.5" d="M1120.24 -28.2796C1113.32 -22.8711 1105.73 -18.077 1100.4 -10.9487C1094.13 -2.54816 1095.47 6.84157 1097.91 16.3759C1098.91 20.2568 1099.84 27.2645 1104.72 22.0167C1110.27 16.0552 1116.62 10.4507 1120.59 3.23196C1124.96 -4.72665 1124.84 -13.5199 1123.37 -22.2537C1123.22 -23.0549 1122.21 -29.8221 1120.24 -28.2796Z" fill="#F1F2F2"/>
<path opacity="0.5" d="M1130.52 -17.2501C1130.79 -11.7276 1129.18 0.87626 1136.97 4.81579C1144.74 8.75424 1150.06 15.7945 1150.4 11.4701C1150.74 7.14897 1151.16 -4.05775 1146.37 -8.49472C1141.57 -12.9324 1130.4 -19.7315 1130.52 -17.2501Z" fill="#F1F2F2"/>
<path opacity="0.5" d="M1061.61 8.56797C1061.62 8.59171 1061.63 8.6149 1061.65 8.63789C1062.45 10.1342 1064.36 9.30346 1065.64 9.11851C1069.97 8.49325 1074.18 7.15541 1078.25 5.56769C1082.23 4.01829 1086.29 2.4529 1089.66 -0.219961C1093.27 -3.08237 1095.91 -7.04548 1097.85 -11.1869C1098.96 -13.5606 1099.61 -16.1785 1100.53 -18.6187C1101.2 -20.4407 1103.05 -26.1284 1099.44 -25.5515C1096 -25.0193 1092.73 -24.0716 1089.22 -23.7835C1083.79 -23.3465 1077.47 -23.5331 1073.56 -19.0744C1067.65 -12.3548 1065.42 -3.58427 1062.37 4.59874C1061.92 5.80528 1060.99 7.26896 1061.61 8.56797Z" fill="#455E99"/>
<path d="M1240.36 166.212C1240.35 166.159 1240.33 166.106 1240.32 166.053C1240.01 165.062 1239.69 164.069 1239.38 163.074C1238.48 160.159 1237.56 156.871 1237 153.956L1229.53 126.973C1227.04 118.321 1224.5 109.671 1221.83 101.069C1220.79 97.735 1219.83 94.3703 1218.97 90.9803C1218.43 88.8243 1217.89 86.6656 1217.34 84.5178C1216.86 82.6873 1216.1 80.7742 1215.95 78.8894C1215.84 77.5032 1215.3 76.1757 1215.29 74.7702C1215.28 73.2062 1216.22 71.7253 1216.87 70.3661C1217.53 68.9923 1218.01 67.5308 1218.76 66.199C1222.74 59.2037 1226.76 52.2281 1230.94 45.3494C1232.21 43.2536 1233.49 41.1667 1234.79 39.0867C1238.91 32.5342 1243.39 25.54 1248.41 19.1426C1249.14 18.2247 1250.34 16.7497 1249.28 15.5764C1248.63 14.8607 1247.74 14.5864 1246.82 14.8991C1246.01 15.1715 1245.6 16.153 1245.1 16.8053C1243.84 18.4484 1242.46 19.9981 1241.22 21.66C1237.61 26.5129 1234.25 31.5583 1230.93 36.6231C1226.66 43.1903 1222.83 49.3938 1219.59 54.7439C1217.45 58.2779 1215.26 61.7939 1213.24 65.3927C1212.31 67.0373 1211.32 66.8067 1210.15 65.392C1209.33 64.3888 1208.83 63.1629 1208.24 62.0242C1207 59.6169 1205.76 57.2123 1204.52 54.8068C1201.12 48.2019 1197.72 41.5946 1194.34 34.9736C1191.9 30.2075 1189.33 25.4886 1186.99 20.6808C1186.3 19.2851 1185.88 17.7677 1185.17 16.3859C1184.55 15.1824 1184.69 12.9022 1185.15 11.621C1186.22 8.5565 1187.66 3.99428 1189.27 -1.33314C1189.59 -2.38676 1189.97 -3.44824 1190.22 -4.5186C1190.4 -5.27369 1189.97 -5.95002 1189.32 -6.30997C1188.81 -6.58952 1188.05 -6.76737 1187.52 -6.43746C1187.07 -6.16174 1186.81 -5.61115 1186.67 -5.13885C1186.39 -4.21964 1186.11 -3.29999 1185.84 -2.38051C1184.98 0.448847 1184.08 3.26674 1183.15 6.08197C1182.84 7.02694 1182.6 9.11435 1181.21 8.32425C1180.35 7.8277 1180.05 6.53056 1179.64 5.70307C1178.94 4.28966 1178.24 2.87759 1177.55 1.46405C1176.16 -1.36812 1174.76 -4.18742 1173.42 -7.04225C1173.12 -7.67965 1172.81 -8.30966 1172.52 -8.94973C1172.28 -9.47504 1172.06 -10.0136 1171.67 -10.4503C1171.17 -10.9972 1170.48 -11.3925 1169.78 -11.6277C1169.23 -11.8128 1168.33 -12.1292 1167.91 -11.5193C1167.4 -10.7705 1167.81 -10.0503 1168.14 -9.34224C1168.75 -8.04828 1169.36 -6.75404 1169.95 -5.45197L1189.3 34.9762C1191.58 39.6463 1193.86 44.3228 1196.13 48.9938C1199.66 56.2356 1203.19 63.4793 1206.71 70.7279C1207.83 73.0107 1208.99 75.2606 1209.53 77.7344C1210.15 80.5567 1211.05 83.3441 1211.8 86.1358C1213.84 93.6629 1215.88 101.199 1217.92 108.728C1219.01 112.772 1220.11 116.82 1221.2 120.866C1221.96 123.664 1222.74 126.515 1222.68 129.435C1222.63 131.975 1220.93 131.335 1219.12 130.846C1217.58 130.424 1215.82 129.857 1214.5 128.99C1212.72 127.835 1211.07 126.492 1209.28 125.362C1208.14 124.641 1206.44 124.09 1205.63 122.974C1204.96 122.051 1204.15 120.787 1203.68 119.739C1203.24 118.761 1202.89 117.759 1202.48 116.768C1202.1 115.832 1202.18 114.38 1201.12 114.043C1200.18 113.749 1199.53 114.318 1199.69 115.25C1199.86 116.215 1200.03 117.174 1200.21 118.137C1200.4 119.161 1200.68 120.571 1199.41 121.021C1198.28 121.418 1196.6 120.274 1195.64 119.796C1194.39 119.18 1193.19 118.535 1191.88 118.029C1188.45 116.708 1185.17 115.126 1181.84 113.564C1179.58 112.501 1177.31 111.312 1175.01 110.328C1172.76 109.369 1170.56 108.444 1168.88 106.577C1165.32 102.598 1162.48 97.7651 1159.41 93.3894C1158.07 91.4825 1156.74 89.5812 1155.4 87.6785C1154.69 86.6551 1152.89 85.0416 1152.35 87.3177C1152.14 88.2031 1152.73 89.1139 1153.17 89.8241C1155.5 93.5793 1157.84 97.3335 1160.17 101.088C1161.32 102.931 1162.47 104.776 1163.61 106.623C1164.4 107.892 1164.9 108.822 1163.47 109.619C1156.86 113.295 1149.47 115.915 1142.54 119.119C1140.45 120.079 1138.37 121.061 1136.28 122.028C1132.85 123.617 1129.44 125.209 1126.01 126.787C1124.84 127.323 1123.45 127.707 1122.39 128.443C1121.36 129.157 1121.49 131.024 1123.08 130.67C1124.63 130.325 1126.22 129.834 1127.67 129.208C1131.04 127.745 1134.22 126.561 1137.6 125.098C1138.86 124.548 1142.17 122.924 1141.29 125.749C1140.78 127.407 1140.14 129.037 1139.57 130.678C1139.01 132.278 1137.78 134.406 1137.67 136.081C1137.55 138.031 1139.82 138.632 1140.72 137.022C1141.8 135.076 1142.33 132.78 1143.19 130.732C1144.28 128.144 1144.95 125.325 1146.58 122.99C1148.43 120.316 1151.36 119.318 1154.3 118.26C1156.59 117.435 1158.89 116.646 1161.19 115.849C1163.48 115.046 1165.83 113.919 1168.29 113.836C1170.5 113.756 1172.39 114.897 1174.33 115.782C1177.15 117.065 1180.04 118.156 1182.84 119.469C1185.98 120.944 1189.08 122.338 1192.05 123.825C1197.97 126.766 1203.5 129.518 1208.24 131.879C1211.54 133.579 1214.86 135.23 1218 137.194C1219.4 138.064 1220.62 139.121 1221.94 140.064C1223.35 141.071 1224.6 141.722 1225.36 143.41C1227.08 147.208 1227.65 150.922 1228.69 154.864C1229.87 159.265 1230.74 163.829 1232.12 168.163C1232.74 170.111 1233 172.08 1233.28 174.096C1233.47 175.393 1234.5 176.176 1235.89 175.733C1236.86 175.424 1237.8 174.533 1238.45 173.773C1239.28 172.789 1240.11 171.65 1240.6 170.451C1241.14 169.108 1240.77 167.571 1240.36 166.212Z" fill="white"/>
<path opacity="0.5" d="M829.116 21.3221C829.724 20.7141 830.414 20.1401 831.193 19.6121C835.004 17.0291 839.485 15.8411 843.706 14.1201C845.875 13.2351 847.935 13.4531 850 12.7461C855.761 10.7801 846.909 6.82911 847.799 3.95111C848.802 0.711107 851.839 -0.389885 854.688 -1.68988C858.71 -3.52188 862.714 -5.39489 866.768 -7.15989C880.189 -13.0029 894.129 -6.10189 906.093 0.0681114C910.559 2.37211 914.919 5.06413 918.97 8.04412C927.575 14.3721 913.418 14.2701 908.963 15.3101C901.781 17.0031 896.02 20.3221 888.453 20.9601C883.62 21.3721 880.053 18.8881 875.759 17.1101C874.369 16.5321 864.648 12.3391 864.378 14.2811C864.115 16.1791 866.425 17.1981 867.83 17.7951C876.867 21.6591 885.953 30.8631 885.146 41.4671C884.716 47.0181 883.265 52.4241 881.684 57.7361C880.77 60.8001 879.839 69.1741 876.258 70.3851C874.211 71.0821 874.019 69.6511 873.182 68.1971C870.668 63.8421 868.988 59.3411 866.767 54.8351C863.527 48.2661 858.867 42.3541 855.729 36.0111C854.12 32.7611 854.379 30.7201 855.56 27.5351C856.273 25.5951 858.449 20.7161 853.587 22.3591C848.613 24.0401 847.877 35.4691 844.791 39.1091C840.62 44.0151 834.774 47.2851 829.041 50.0301C827.546 50.7441 822.575 54.0151 821.085 53.2401C818.985 52.1351 820.54 47.5201 820.836 45.8461C821.74 40.6991 823.517 35.7611 824.661 30.6631C825.486 26.9851 826.628 23.8241 829.116 21.3221Z" fill="#0E9983"/>
<path opacity="0.5" d="M841.478 15.2623C842.631 17.3973 836.509 22.0013 835.289 23.1023C832.189 25.9243 828.435 28.2963 824.109 28.4593C815.338 28.7883 808.769 29.1483 806.413 28.8503C804.431 28.6033 812.408 19.3193 813.214 18.5033C817.378 14.2623 821.842 13.8023 827.753 13.7723C830.375 13.7573 833.028 13.4323 835.643 13.7703C836.678 13.9003 840.769 14.3073 841.384 15.1053C841.417 15.1503 841.453 15.2023 841.478 15.2623Z" fill="#577ACF"/>
<path opacity="0.5" d="M839.777 27.4454C837.117 30.0464 830.825 31.8694 825.101 35.6854C819.519 39.4144 817.892 48.9754 816.779 55.0774C816.433 56.9594 814.611 62.4924 817.202 63.2064C818.738 63.6274 822.553 61.1584 823.888 60.4534C829.855 57.3044 836.599 54.0124 838.965 47.2584C840.778 42.0844 841.152 36.5294 841.502 31.1004C841.682 28.2984 842.461 24.8404 839.777 27.4454Z" fill="#577ACF"/>
<path opacity="0.5" d="M878.724 24.3325C880.023 28.8935 881.145 39.7505 888.381 41.4655C895.608 43.1865 901.394 48.0005 900.836 44.3165C900.277 40.6385 898.441 31.1865 893.599 28.4425C888.745 25.7045 878.139 22.2805 878.724 24.3325Z" fill="white"/>
<path opacity="0.5" d="M901.165 -5.41033C901.118 -5.48733 901.06 -5.56534 900.991 -5.64434C900.217 -6.53334 898.309 -7.07933 897.226 -7.43133C894.323 -8.37533 891.245 -8.64933 888.221 -8.93633C883.657 -9.37033 879.012 -8.85234 875.075 -6.33734C873.745 -5.50434 872.558 -4.39733 871.294 -3.44433C870.352 -2.74033 867.571 -0.465323 869.583 0.431677C873.5 2.17668 877.504 4.51065 881.899 4.63965C885.81 4.75665 889.356 2.58667 892.656 0.757666C895.013 -0.547335 897.743 -1.17632 899.885 -2.87832C900.782 -3.59132 901.757 -4.44633 901.165 -5.41033Z" fill="#577ACF"/>
<path opacity="0.5" d="M867.667 48.9778C865.305 49.3648 862.98 42.0898 862.347 40.5778C860.716 36.7338 859.715 32.4218 860.981 28.2838C863.524 19.8868 865.311 13.5748 866.366 11.4438C867.237 9.64576 873.329 20.2108 873.833 21.2378C876.445 26.5408 875.424 30.8968 873.53 36.4978C872.69 38.9778 872.128 41.5978 870.973 43.9508C870.51 44.8928 868.793 48.6158 867.847 48.9348C867.798 48.9508 867.735 48.9678 867.667 48.9778Z" fill="white"/>
<path d="M879.548 13.5263C875.905 10.9303 872.351 8.22236 868.78 5.52436C865.612 3.13536 861.669 0.885336 859.161 -2.24666C858.77 -2.73366 858.479 -3.61965 857.989 -3.95565C857.414 -4.35165 856.343 -4.14564 855.717 -4.02764C855.054 -3.90264 854.021 -3.67664 853.686 -3.02364C853.462 -2.58864 853.582 -1.95465 853.558 -1.48565C853.523 -0.806647 853.459 -0.128665 853.374 0.546335C852.559 7.01534 851.542 13.2243 850.657 18.4513C850.139 21.5383 849.602 24.6224 849.055 27.7004C848.782 29.2434 848.504 30.7813 848.221 32.3223C848.049 33.2443 847.235 34.9984 848.032 35.8254C849.179 36.9964 850.444 35.2463 850.725 34.2623C851.122 32.8683 851.209 31.4204 851.469 30.0064C852.795 22.8604 854.135 15.7144 855.262 8.52735C855.412 7.57035 855.559 6.61834 855.701 5.66334C855.826 4.80334 855.769 3.50736 856.118 2.71736C856.701 1.42236 857.88 2.29936 858.767 2.90336C859.629 3.49136 860.496 4.07634 861.362 4.66834C866.53 8.18734 871.693 11.7063 876.869 15.2153C878.064 16.0303 882.826 20.5813 883.273 17.2593C883.369 16.5433 883.103 16.0463 882.578 15.5553C881.683 14.7153 880.544 14.2333 879.548 13.5263Z" fill="white"/>
</g>
<defs>
<radialGradient id="paint0_radial" cx="0" cy="0" r="1" gradientUnits="userSpaceOnUse" gradientTransform="translate(983.713 293.552) scale(203.517)">
<stop stop-color="#0E9983"/>
<stop offset="0.5853" stop-color="#25636F"/>
<stop offset="1" stop-color="#334163"/>
</radialGradient>
<radialGradient id="paint1_radial" cx="0" cy="0" r="1" gradientUnits="userSpaceOnUse" gradientTransform="translate(985.276 306.066) scale(203.517)">
<stop stop-color="#212A3F"/>
<stop offset="0.4807" stop-color="#2B3652"/>
<stop offset="1" stop-color="#334163"/>
</radialGradient>
<radialGradient id="paint2_radial" cx="0" cy="0" r="1" gradientUnits="userSpaceOnUse" gradientTransform="translate(985.2 366.434) scale(202.344 264.816)">
<stop stop-color="#5673B0"/>
<stop offset="1" stop-color="#334163" stop-opacity="0"/>
</radialGradient>
<radialGradient id="paint3_radial" cx="0" cy="0" r="1" gradientUnits="userSpaceOnUse" gradientTransform="translate(985.818 75.6225) scale(133.805)">
<stop stop-color="white"/>
<stop offset="1" stop-color="#334163"/>
</radialGradient>
<radialGradient id="paint4_radial" cx="0" cy="0" r="1" gradientUnits="userSpaceOnUse" gradientTransform="translate(985.818 77.317) scale(132.955 132.955)">
<stop stop-color="white"/>
<stop offset="1" stop-color="#334163"/>
</radialGradient>
<radialGradient id="paint5_radial" cx="0" cy="0" r="1" gradientUnits="userSpaceOnUse" gradientTransform="translate(985.818 79.0402) scale(132.215)">
<stop stop-color="white"/>
<stop offset="1" stop-color="#334163"/>
</radialGradient>
<radialGradient id="paint6_radial" cx="0" cy="0" r="1" gradientUnits="userSpaceOnUse" gradientTransform="translate(985.818 80.7814) scale(131.573)">
<stop stop-color="white"/>
<stop offset="1" stop-color="#334163"/>
</radialGradient>
<radialGradient id="paint7_radial" cx="0" cy="0" r="1" gradientUnits="userSpaceOnUse" gradientTransform="translate(980.605 119.733) scale(153.241)">
<stop stop-color="#FF9827"/>
<stop offset="0.1994" stop-color="#CC8236"/>
<stop offset="0.4803" stop-color="#8B6749"/>
<stop offset="0.7171" stop-color="#5B5257"/>
<stop offset="0.8975" stop-color="#3E4660"/>
<stop offset="1" stop-color="#334163"/>
</radialGradient>
<radialGradient id="paint8_radial" cx="0" cy="0" r="1" gradientUnits="userSpaceOnUse" gradientTransform="translate(980.605 121.442) scale(151.786 151.785)">
<stop stop-color="#FF9827"/>
<stop offset="0.1994" stop-color="#CC8236"/>
<stop offset="0.4803" stop-color="#8B6749"/>
<stop offset="0.7171" stop-color="#5B5257"/>
<stop offset="0.8975" stop-color="#3E4660"/>
<stop offset="1" stop-color="#334163"/>
</radialGradient>
<radialGradient id="paint9_radial" cx="0" cy="0" r="1" gradientUnits="userSpaceOnUse" gradientTransform="translate(980.605 123.165) scale(150.361)">
<stop stop-color="#FF9827"/>
<stop offset="0.1994" stop-color="#CC8236"/>
<stop offset="0.4803" stop-color="#8B6749"/>
<stop offset="0.7171" stop-color="#5B5257"/>
<stop offset="0.8975" stop-color="#3E4660"/>
<stop offset="1" stop-color="#334163"/>
</radialGradient>
<radialGradient id="paint10_radial" cx="0" cy="0" r="1" gradientUnits="userSpaceOnUse" gradientTransform="translate(980.605 124.899) scale(149.038)">
<stop stop-color="#FF9827"/>
<stop offset="0.1994" stop-color="#CC8236"/>
<stop offset="0.4803" stop-color="#8B6749"/>
<stop offset="0.7171" stop-color="#5B5257"/>
<stop offset="0.8975" stop-color="#3E4660"/>
<stop offset="1" stop-color="#334163"/>
</radialGradient>
<linearGradient id="paint11_linear" x1="986.201" y1="184.671" x2="986.201" y2="224.395" gradientUnits="userSpaceOnUse">
<stop stop-color="#FF9827"/>
<stop offset="0.1994" stop-color="#CC8236"/>
<stop offset="0.4803" stop-color="#8B6749"/>
<stop offset="0.7171" stop-color="#5B5257"/>
<stop offset="0.8975" stop-color="#3E4660"/>
<stop offset="1" stop-color="#334163"/>
</linearGradient>
<linearGradient id="paint12_linear" x1="986.202" y1="228.257" x2="986.202" y2="223.501" gradientUnits="userSpaceOnUse">
<stop stop-color="#212A3F"/>
<stop offset="1" stop-color="#27334C"/>
</linearGradient>
<linearGradient id="paint13_linear" x1="986.201" y1="184.671" x2="986.201" y2="224.395" gradientUnits="userSpaceOnUse">
<stop stop-color="#4B6696"/>
<stop offset="1" stop-color="#334163"/>
</linearGradient>
<radialGradient id="paint14_radial" cx="0" cy="0" r="1" gradientUnits="userSpaceOnUse" gradientTransform="translate(898.943 156.591) scale(24.2072 24.2104)">
<stop offset="0.6606" stop-color="#212A3F"/>
<stop offset="0.7382" stop-color="#232D43"/>
<stop offset="0.8094" stop-color="#28344E"/>
<stop offset="0.878" stop-color="#314160"/>
<stop offset="0.9447" stop-color="#3E537A"/>
<stop offset="1" stop-color="#4B6696"/>
</radialGradient>
<radialGradient id="paint15_radial" cx="0" cy="0" r="1" gradientUnits="userSpaceOnUse" gradientTransform="translate(914.35 144.342) scale(8.46024)">
<stop offset="0.6606" stop-color="#212A3F"/>
<stop offset="0.7382" stop-color="#232D43"/>
<stop offset="0.8094" stop-color="#28344E"/>
<stop offset="0.878" stop-color="#314160"/>
<stop offset="0.9447" stop-color="#3E537A"/>
<stop offset="1" stop-color="#4B6696"/>
</radialGradient>
</defs>
</svg>
