<svg width="1211" height="680" viewBox="0 0 1211 680" fill="none" xmlns="http://www.w3.org/2000/svg">
<mask id="mask0" mask-type="alpha" maskUnits="userSpaceOnUse" x="0" y="0" width="1211" height="680">
<path d="M1210 0H0.00195312V680H1210V0Z" fill="#334163"/>
</mask>
<g mask="url(#mask0)">
<path d="M977.266 46.5039C979.199 46.5039 980.766 44.9369 980.766 43.0039C980.766 41.0709 979.199 39.5039 977.266 39.5039C975.333 39.5039 973.766 41.0709 973.766 43.0039C973.766 44.9369 975.333 46.5039 977.266 46.5039Z" fill="#4B6696"/>
<path d="M1114.12 103.191C1116.05 103.191 1117.62 101.624 1117.62 99.6914C1117.62 97.7584 1116.05 96.1914 1114.12 96.1914C1112.18 96.1914 1110.62 97.7584 1110.62 99.6914C1110.62 101.624 1112.18 103.191 1114.12 103.191Z" fill="#4B6696"/>
<path d="M1155.74 165.197C1157.68 165.197 1159.24 163.631 1159.24 161.698C1159.24 159.766 1157.68 158.199 1155.74 158.199C1153.81 158.199 1152.24 159.766 1152.24 161.698C1152.24 163.631 1153.81 165.197 1155.74 165.197Z" fill="#4B6696"/>
<path d="M1050.55 60.9121C1052.48 60.9121 1054.05 59.3455 1054.05 57.4131C1054.05 55.4806 1052.48 53.9141 1050.55 53.9141C1048.62 53.9141 1047.05 55.4806 1047.05 57.4131C1047.05 59.3455 1048.62 60.9121 1050.55 60.9121Z" fill="#4B6696"/>
<path opacity="0.7" d="M977.966 101.246C886.516 101.246 812.379 174.844 812.379 265.631H1143.55C1143.55 174.843 1069.42 101.246 977.966 101.246Z" fill="url(#paint0_radial)"/>
<path d="M1039.92 171.381C1041.08 170.071 1042.08 168.589 1042.93 166.976C1046.01 161.137 1046.02 154.561 1045.56 147.361C1045.48 146.706 1045.29 146.371 1045.05 146.339L1043.43 145.91C1043.17 145.834 1042.83 146.123 1042.49 146.745L1042.49 146.734C1041.63 148.222 1040.1 151.509 1039.04 153.775C1038.29 155.396 1037.25 157.519 1036.37 159.207C1035.62 160.674 1034.82 161.879 1033.24 162.498C1031.35 163.231 1029.15 162.733 1027.31 162.13C1026.27 161.791 1025.26 161.358 1024.31 160.841C1021.6 159.375 1019.42 157.319 1017.84 154.918C1017.4 154.25 1017.07 153.202 1017.07 152.386C1017.05 151.053 1017.79 149.955 1018.4 148.824C1019.84 146.161 1022.99 140.323 1025.68 135.359C1025.69 135.332 1025.7 135.306 1025.72 135.277C1026.5 133.833 1025.95 133.139 1024.42 133.474C1023.78 133.614 1023.17 133.858 1022.57 134.129C1020.16 135.231 1017.89 136.63 1015.64 138.031C1013.41 139.417 1011.21 140.883 1009.26 142.652C1006.71 144.974 1004.24 148.414 1003.77 151.928C1003.59 153.308 1003.6 154.715 1003.62 156.103C1003.72 162.826 1004.3 168.443 990.38 182.21C990.38 182.21 910.452 262.138 910.452 262.139C909.362 263.229 908.544 264.925 908.804 266.506C909.113 268.389 909.992 270.195 911.445 271.648C912.898 273.101 914.705 273.978 916.588 274.289C918.151 274.545 919.861 273.73 920.955 272.638C920.955 272.637 1000.62 192.974 1000.62 192.974C1014.35 179.245 1019.61 177.671 1026.33 177.333C1027.72 177.264 1029.12 177.185 1030.48 176.911C1034.35 176.136 1037.48 174.15 1039.92 171.381Z" fill="#405684"/>
<path d="M1039.92 171.381C1041.08 170.071 1042.08 168.589 1042.93 166.976C1046.01 161.137 1046.02 154.561 1045.56 147.361C1045.48 146.706 1045.29 146.371 1045.05 146.339L1043.43 145.91C1043.17 145.834 1042.83 146.123 1042.49 146.745L1042.49 146.734C1041.63 148.222 1040.1 151.509 1039.04 153.775C1038.29 155.396 1037.25 157.519 1036.37 159.207C1035.62 160.674 1034.82 161.879 1033.24 162.498C1031.35 163.231 1029.15 162.733 1027.31 162.13C1026.27 161.791 1025.26 161.358 1024.31 160.841C1021.6 159.375 1019.42 157.319 1017.84 154.918C1017.4 154.25 1017.07 153.202 1017.07 152.386C1017.05 151.053 1017.79 149.955 1018.4 148.824C1019.84 146.161 1022.99 140.323 1025.68 135.359C1025.69 135.332 1025.7 135.306 1025.72 135.277C1026.5 133.833 1025.95 133.139 1024.42 133.474C1023.78 133.614 1023.17 133.858 1022.57 134.129C1020.16 135.231 1017.89 136.63 1015.64 138.031C1013.41 139.417 1011.21 140.883 1009.26 142.652C1006.71 144.974 1004.24 148.414 1003.77 151.928C1003.59 153.308 1003.6 154.715 1003.62 156.103C1003.72 162.826 1004.3 168.443 990.38 182.21C990.38 182.21 910.452 262.138 910.452 262.139C909.362 263.229 908.544 264.925 908.804 266.506C909.113 268.389 909.992 270.195 911.445 271.648C912.898 273.101 914.705 273.978 916.588 274.289C918.151 274.545 919.861 273.73 920.955 272.638C920.955 272.637 1000.62 192.974 1000.62 192.974C1014.35 179.245 1019.61 177.671 1026.33 177.333C1027.72 177.264 1029.12 177.185 1030.48 176.911C1034.35 176.136 1037.48 174.15 1039.92 171.381Z" fill="url(#paint1_linear)"/>
<path opacity="0.6" d="M1039.92 171.381C1041.08 170.071 1042.08 168.589 1042.93 166.976C1046.01 161.137 1046.02 154.561 1045.56 147.361C1045.48 146.706 1045.29 146.371 1045.05 146.339L1043.43 145.91C1043.17 145.834 1042.83 146.123 1042.49 146.745L1042.49 146.734C1041.63 148.222 1040.1 151.509 1039.04 153.775C1038.29 155.396 1037.25 157.519 1036.37 159.207C1035.62 160.674 1034.82 161.879 1033.24 162.498C1031.35 163.231 1029.15 162.733 1027.31 162.13C1026.27 161.791 1025.26 161.358 1024.31 160.841C1021.6 159.375 1019.42 157.319 1017.84 154.918C1017.4 154.25 1017.07 153.202 1017.07 152.386C1017.05 151.053 1017.79 149.955 1018.4 148.824C1019.84 146.161 1022.99 140.323 1025.68 135.359C1025.69 135.332 1025.7 135.306 1025.72 135.277C1026.5 133.833 1025.95 133.139 1024.42 133.474C1023.78 133.614 1023.17 133.858 1022.57 134.129C1020.16 135.231 1017.89 136.63 1015.64 138.031C1013.41 139.417 1011.21 140.883 1009.26 142.652C1006.71 144.974 1004.24 148.414 1003.77 151.928C1003.59 153.308 1003.6 154.715 1003.62 156.103C1003.72 162.826 1004.3 168.443 990.38 182.21C990.38 182.21 910.452 262.138 910.452 262.139C909.362 263.229 908.544 264.925 908.804 266.506C909.113 268.389 909.992 270.195 911.445 271.648C912.898 273.101 914.705 273.978 916.588 274.289C918.151 274.545 919.861 273.73 920.955 272.638C920.955 272.637 1000.62 192.974 1000.62 192.974C1014.35 179.245 1019.61 177.671 1026.33 177.333C1027.72 177.264 1029.12 177.185 1030.48 176.911C1034.35 176.136 1037.48 174.15 1039.92 171.381Z" fill="url(#paint2_radial)"/>
<path opacity="0.6" d="M1039.92 171.381C1041.08 170.071 1042.08 168.589 1042.93 166.976C1046.01 161.137 1046.02 154.561 1045.56 147.361C1045.48 146.706 1045.29 146.371 1045.05 146.339L1043.43 145.91C1043.17 145.834 1042.83 146.123 1042.49 146.745L1042.49 146.734C1041.63 148.222 1040.1 151.509 1039.04 153.775C1038.29 155.396 1037.25 157.519 1036.37 159.207C1035.62 160.674 1034.82 161.879 1033.24 162.498C1031.35 163.231 1029.15 162.733 1027.31 162.13C1026.27 161.791 1025.26 161.358 1024.31 160.841C1021.6 159.375 1019.42 157.319 1017.84 154.918C1017.4 154.25 1017.07 153.202 1017.07 152.386C1017.05 151.053 1017.79 149.955 1018.4 148.824C1019.84 146.161 1022.99 140.323 1025.68 135.359C1025.69 135.332 1025.7 135.306 1025.72 135.277C1026.5 133.833 1025.95 133.139 1024.42 133.474C1023.78 133.614 1023.17 133.858 1022.57 134.129C1020.16 135.231 1017.89 136.63 1015.64 138.031C1013.41 139.417 1011.21 140.883 1009.26 142.652C1006.71 144.974 1004.24 148.414 1003.77 151.928C1003.59 153.308 1003.6 154.715 1003.62 156.103C1003.72 162.826 1004.3 168.443 990.38 182.21C990.38 182.21 910.452 262.138 910.452 262.139C909.362 263.229 908.544 264.925 908.804 266.506C909.113 268.389 909.992 270.195 911.445 271.648C912.898 273.101 914.705 273.978 916.588 274.289C918.151 274.545 919.861 273.73 920.955 272.638C920.955 272.637 1000.62 192.974 1000.62 192.974C1014.35 179.245 1019.61 177.671 1026.33 177.333C1027.72 177.264 1029.12 177.185 1030.48 176.911C1034.35 176.136 1037.48 174.15 1039.92 171.381Z" fill="url(#paint3_radial)"/>
<path d="M1025.92 133.707C1025.94 133.724 1025.95 133.739 1025.96 133.756C1025.95 133.739 1025.93 133.723 1025.92 133.707Z" fill="#212A3F"/>
<path d="M1025.89 133.672C1025.9 133.683 1025.91 133.693 1025.92 133.703C1025.91 133.693 1025.9 133.683 1025.89 133.672Z" fill="#212A3F"/>
<path d="M1025.97 133.771C1025.97 133.765 1025.96 133.76 1025.96 133.754C1025.98 133.798 1026.01 133.843 1026.03 133.894C1026.01 133.85 1025.99 133.809 1025.97 133.771Z" fill="#212A3F"/>
<path d="M912.309 272.407C911.309 271.131 910.678 269.659 910.428 268.134C910.168 266.553 910.987 264.857 912.076 263.766L992.004 183.84C1005.92 170.07 1006.07 164.711 1005.97 157.987C1005.95 156.6 1005.93 155.192 1006.12 153.814C1006.45 151.326 1007.17 148.75 1008.64 146.631C1012.41 140.799 1020.17 135.895 1024.41 133.63L1024.41 133.636C1024.73 133.459 1025.54 133.309 1025.89 133.673C1025.65 133.396 1025.15 133.316 1024.42 133.475C1023.78 133.615 1023.16 133.859 1022.57 134.13C1020.15 135.232 1017.89 136.631 1015.64 138.032C1013.41 139.418 1011.21 140.884 1009.26 142.653C1006.7 144.975 1004.24 148.415 1003.77 151.929C1003.59 153.309 1003.6 154.716 1003.62 156.104C1003.72 162.827 1004.3 168.444 990.378 182.212C990.378 182.212 910.45 262.139 910.45 262.14C909.36 263.23 908.542 264.926 908.802 266.507C909.111 268.39 909.99 270.196 911.441 271.649C911.718 271.925 912.011 272.173 912.309 272.407Z" fill="#212A3F"/>
<path opacity="0.5" d="M1042.93 166.978C1046.01 161.139 1046.02 154.563 1045.55 147.363C1045.48 146.708 1045.29 146.373 1045.04 146.341L1043.43 145.912C1043.17 145.836 1042.83 146.125 1042.49 146.747L1042.49 146.736C1041.63 148.224 1040.1 151.511 1039.04 153.777C1038.28 155.398 1037.25 157.521 1036.37 159.209C1035.61 160.676 1034.82 161.881 1033.24 162.5C1031.35 163.233 1029.15 162.735 1027.31 162.132C1026.27 161.793 1025.26 161.36 1024.31 160.843C1021.6 159.377 1019.42 157.321 1017.84 154.92C1017.4 154.252 1017.07 153.204 1017.07 152.388C1017.05 151.055 1017.78 149.957 1018.4 148.826C1020.02 145.816 1023.11 140.096 1025.72 135.28L1025.72 135.279C1026.09 134.599 1026.15 134.089 1025.97 133.771C1025.68 133.286 1024.75 133.444 1024.41 133.637V133.631C1019.06 136.487 1008.1 143.545 1006.64 151.366C1005.3 158.537 1009.77 165.709 1014.48 169.644C1017.29 171.986 1021.42 174.041 1024.92 175.073C1034.98 178.035 1039.81 172.893 1042.93 166.978Z" fill="url(#paint4_linear)"/>
<path d="M1036.73 160.628C1036.97 160.297 1037.18 159.952 1037.37 159.609C1038.58 157.392 1041.49 152.056 1044.15 147.178L1044.15 147.18C1044.47 146.592 1044.79 146.303 1045.05 146.335L1043.43 145.906C1043.17 145.83 1042.83 146.119 1042.49 146.741L1042.49 146.73C1041.63 148.218 1040.1 151.505 1039.04 153.771C1038.29 155.392 1037.25 157.515 1036.37 159.203C1035.62 160.67 1034.82 161.875 1033.24 162.494C1032.2 162.898 1031.06 162.928 1029.94 162.771C1030.89 162.931 1031.85 163.02 1032.8 163.026C1034.47 163.037 1035.79 161.934 1036.73 160.628Z" fill="#212A3F"/>
<g opacity="0.15">
<path opacity="0.6" d="M1045.56 147.359C1045.49 146.757 1045.32 146.438 1045.1 146.363C1045.55 153.467 1045.5 159.961 1042.46 165.732C1041.61 167.345 1040.61 168.828 1039.45 170.137C1037.01 172.906 1033.88 174.892 1030.02 175.667C1028.65 175.94 1027.25 176.02 1025.86 176.089C1019.14 176.427 1013.88 178.001 1000.15 191.73L920.486 271.394C919.392 272.487 917.681 273.301 916.119 273.045C914.236 272.734 912.43 271.857 910.976 270.404C910.152 269.581 909.535 268.637 909.08 267.637C909.512 269.104 910.287 270.489 911.445 271.646C912.898 273.098 914.705 273.976 916.588 274.287C918.151 274.543 919.861 273.728 920.955 272.636C920.955 272.635 1000.62 192.972 1000.62 192.972C1014.35 179.243 1019.61 177.669 1026.33 177.331C1027.72 177.262 1029.12 177.183 1030.48 176.909C1034.35 176.134 1037.48 174.147 1039.92 171.379C1041.08 170.069 1042.08 168.587 1042.93 166.974C1046.01 161.135 1046.02 154.559 1045.56 147.359Z" fill="white"/>
<path opacity="0.6" d="M1025.25 134.034C1025.23 134.063 1025.22 134.089 1025.21 134.116C1022.52 139.08 1019.37 144.918 1017.93 147.581C1017.32 148.712 1016.59 149.81 1016.6 151.143C1016.6 151.855 1016.86 152.729 1017.21 153.388C1017.13 153.042 1017.07 152.697 1017.07 152.385C1017.05 151.052 1017.79 149.954 1018.4 148.823C1019.84 146.16 1022.99 140.322 1025.68 135.358C1025.69 135.331 1025.7 135.305 1025.72 135.276C1026.27 134.258 1026.15 133.624 1025.5 133.449C1025.44 133.628 1025.36 133.82 1025.25 134.034Z" fill="white"/>
</g>
<path opacity="0.8" d="M974.375 203.303C974.375 203.303 975.664 202.013 976.932 200.747L934.67 158.326L926.32 145.541L926.302 145.515C926.138 145.283 925.82 144.951 925.595 144.777L917.476 138.461C917.249 138.288 916.902 138.308 916.701 138.51L909.58 145.631C909.379 145.832 909.357 146.18 909.531 146.405L915.847 154.525C916.021 154.749 916.355 155.067 916.585 155.232L916.618 155.253L929.395 163.597L971.815 205.859C973.084 204.595 974.375 203.303 974.375 203.303Z" fill="#87AFE8"/>
<path opacity="0.8" d="M974.375 203.303C974.375 203.303 975.664 202.013 976.932 200.747L934.67 158.326L926.32 145.541L926.302 145.515C926.138 145.283 925.82 144.951 925.595 144.777L917.476 138.461C917.249 138.288 916.902 138.308 916.701 138.51L909.58 145.631C909.379 145.832 909.357 146.18 909.531 146.405L915.847 154.525C916.021 154.749 916.355 155.067 916.585 155.232L916.618 155.253L929.395 163.597L971.815 205.859C973.084 204.595 974.375 203.303 974.375 203.303Z" fill="url(#paint5_linear)"/>
<path d="M1041.64 270.066C1045.44 266.289 1046.23 264.842 1043.39 259.146C1040.55 253.45 1034.32 244.218 1024.03 233.85C1013.74 223.481 1002.49 218.946 996.703 214.317C990.924 209.687 986.49 203.13 985.715 201.529C985.401 200.881 984.844 199.921 984.178 199.004C983.692 198.332 982.963 197.685 982.123 198.232C981.793 198.447 981.465 198.678 981.137 198.92C980.36 198.246 978.824 198.857 978.026 199.655C977.19 200.492 974.376 203.303 974.376 203.303C974.376 203.303 971.563 206.116 970.73 206.953C969.931 207.749 969.32 209.285 969.994 210.062C969.752 210.389 969.519 210.72 969.305 211.05C968.76 211.889 969.407 212.618 970.078 213.105C970.996 213.771 971.955 214.328 972.603 214.641C974.205 215.416 980.761 219.851 985.39 225.63C990.019 231.41 994.554 242.661 1004.92 252.954C1015.29 263.248 1024.52 269.475 1030.22 272.316C1035.92 275.157 1037.36 274.37 1041.14 270.566L1041.64 270.066Z" fill="#212A3F"/>
<path d="M1041.64 270.066C1045.44 266.289 1046.23 264.842 1043.39 259.146C1040.55 253.45 1034.32 244.218 1024.03 233.85C1013.74 223.481 1002.49 218.946 996.704 214.317C990.925 209.687 986.49 203.13 985.715 201.529C985.402 200.881 984.845 199.921 984.179 199.004C983.693 198.332 982.964 197.685 982.124 198.232C979.546 199.91 976.939 202.612 975.258 204.249C973.623 205.929 970.984 208.473 969.304 211.053C968.759 211.892 969.406 212.621 970.077 213.108C970.995 213.774 971.954 214.331 972.602 214.644C974.204 215.419 980.76 219.854 985.389 225.633C990.018 231.413 994.553 242.664 1004.92 252.957C1015.29 263.251 1024.52 269.478 1030.22 272.319C1035.92 275.16 1037.36 274.373 1041.14 270.569L1041.64 270.066Z" fill="url(#paint6_linear)"/>
<path opacity="0.4" d="M1041.64 270.066C1045.44 266.289 1046.23 264.842 1043.39 259.146C1040.55 253.45 1034.32 244.218 1024.03 233.85C1013.74 223.481 1002.49 218.946 996.704 214.317C990.925 209.687 986.49 203.13 985.715 201.529C985.402 200.881 984.845 199.921 984.179 199.004C983.693 198.332 982.964 197.685 982.124 198.232C979.546 199.91 976.939 202.612 975.258 204.249C973.623 205.929 970.984 208.473 969.304 211.053C968.759 211.892 969.406 212.621 970.077 213.108C970.995 213.774 971.954 214.331 972.602 214.644C974.204 215.419 980.76 219.854 985.389 225.633C990.018 231.413 994.553 242.664 1004.92 252.957C1015.29 263.251 1024.52 269.478 1030.22 272.319C1035.92 275.16 1037.36 274.373 1041.14 270.569L1041.64 270.066Z" fill="url(#paint7_linear)"/>
<path opacity="0.4" d="M996.392 214.707C994.093 212.866 992.011 210.761 990.109 208.518C988.681 206.831 987.326 205.075 986.132 203.213C985.484 202.203 984.976 201.111 984.325 200.104C983.901 199.449 983.52 198.868 982.759 199.379C982.366 199.642 981.972 199.922 981.579 200.215L981.171 200.617C980.476 201.092 980.948 201.956 981.646 202.652L987.138 208.087C987.568 208.518 987.992 208.955 988.415 209.391C989.995 211.015 991.573 212.666 993.345 214.083C994.031 214.631 994.769 215.197 995.595 215.517C995.824 215.606 996.234 215.781 996.488 215.704C996.946 215.56 996.712 214.965 996.392 214.707Z" fill="url(#paint8_linear)"/>
<path opacity="0.4" d="M974.727 206.634L974.733 206.646C974.032 207.383 974.344 208.533 975.151 209.34L980.604 214.835C983.317 217.547 990.293 222.493 991.928 220.858C993.563 219.223 988.617 212.247 985.907 209.534L980.411 204.081C979.602 203.272 978.452 202.963 977.716 203.661L977.706 203.655C977.138 204.177 976.64 204.692 976.194 205.124C975.763 205.569 975.249 206.067 974.727 206.634Z" fill="url(#paint9_linear)"/>
<path opacity="0.4" d="M979.158 216.065C979.152 216.058 973.722 210.573 973.722 210.573C973.027 209.877 972.161 209.403 971.689 210.1L971.285 210.507C970.635 211.383 969.974 212.431 971.068 213.202C972.111 213.938 973.31 214.424 974.386 215.112C975.542 215.85 976.642 216.673 977.724 217.515C980.673 219.813 983.435 222.396 985.777 225.317C986.074 225.688 986.66 226.171 986.773 225.408C986.816 225.117 986.685 224.774 986.584 224.51C986.256 223.674 985.68 222.927 985.125 222.236C983.691 220.451 982.023 218.861 980.385 217.268C979.974 216.869 979.56 216.472 979.158 216.065Z" fill="url(#paint10_linear)"/>
<path opacity="0.6" d="M975.257 204.245C976.724 202.818 978.894 200.581 981.134 198.918C980.359 198.244 978.823 198.855 978.025 199.652C977.189 200.489 974.377 203.301 974.377 203.301C974.377 203.301 971.563 206.113 970.729 206.95C969.928 207.747 969.319 209.282 969.993 210.059C971.642 207.831 973.831 205.711 975.257 204.245Z" fill="#00AEEF"/>
<path opacity="0.3" d="M1043.39 259.145C1042.58 257.525 1041.71 256.052 1040.68 254.316C1037.67 256.962 1034.87 259.812 1032.81 261.837C1030.79 263.894 1028.03 266.611 1025.41 269.584C1027.15 270.658 1028.6 271.509 1030.22 272.317C1035.92 275.158 1037.36 274.371 1041.14 270.567L1041.64 270.066C1045.44 266.287 1046.23 264.841 1043.39 259.145Z" fill="url(#paint11_linear)"/>
<path d="M974.376 203.303C974.376 203.303 974.907 202.771 975.62 202.056L934.241 160.677C934.04 160.476 933.743 160.122 933.577 159.89L926.304 145.515C926.14 145.283 925.822 144.951 925.597 144.777L917.478 138.461C917.251 138.288 916.904 138.308 916.703 138.51L909.582 145.631C909.381 145.832 909.359 146.18 909.533 146.405L915.849 154.525C916.023 154.749 916.357 155.067 916.587 155.232L930.962 162.505C931.194 162.669 931.55 162.969 931.751 163.168L973.13 204.549C973.845 203.834 974.376 203.303 974.376 203.303Z" fill="url(#paint12_linear)"/>
<path opacity="0.4" d="M926.104 145.271C925.944 145.087 925.749 144.896 925.596 144.777L917.477 138.461C917.25 138.288 916.903 138.308 916.702 138.51L909.581 145.632C909.38 145.832 909.356 146.182 909.532 146.405L915.848 154.525C915.965 154.676 916.159 154.872 916.342 155.033L926.104 145.271Z" fill="white"/>
<g opacity="0.4">
<path d="M1138.64 149.078C1152.45 149.078 1163.64 137.885 1163.64 124.078C1163.64 110.271 1152.45 99.0781 1138.64 99.0781C1124.84 99.0781 1113.64 110.271 1113.64 124.078C1113.64 137.885 1124.84 149.078 1138.64 149.078Z" fill="#334163"/>
<path opacity="0.6" d="M1151.36 120.328C1151.03 119.692 1150.37 119.292 1149.65 119.292H1140.9L1143.34 107.464C1143.53 106.568 1143.06 105.663 1142.22 105.302C1141.37 104.94 1140.39 105.22 1139.87 105.972L1126.05 125.824C1125.64 126.414 1125.59 127.182 1125.92 127.819C1126.26 128.455 1126.92 128.855 1127.63 128.855H1136.39L1133.94 140.683C1133.75 141.579 1134.22 142.484 1135.07 142.846C1135.31 142.952 1135.57 143.002 1135.83 143.002C1136.44 143.002 1137.04 142.707 1137.41 142.175L1151.23 122.324C1151.64 121.736 1151.69 120.965 1151.36 120.328Z" fill="#FF9827"/>
<path opacity="0.4" d="M1151.36 120.329C1151.03 119.693 1150.37 119.293 1149.65 119.293H1141.7C1140.63 119.293 1139.76 120.157 1139.76 121.224C1139.76 122.287 1140.63 123.153 1141.7 123.153H1145.95L1134.24 139.971C1133.64 140.846 1133.85 142.049 1134.72 142.658C1135.06 142.891 1135.45 143.004 1135.83 143.004C1136.44 143.004 1137.04 142.715 1137.41 142.177L1151.23 122.326C1151.64 121.737 1151.69 120.966 1151.36 120.329Z" fill="#FFB94A"/>
<path opacity="0.4" d="M1137.52 126.925C1137.52 125.861 1136.65 124.996 1135.59 124.996H1131.33L1143.04 108.176C1143.65 107.302 1143.43 106.099 1142.56 105.49C1141.68 104.882 1140.48 105.097 1139.87 105.971L1126.05 125.823C1125.64 126.413 1125.59 127.181 1125.92 127.818C1126.26 128.454 1126.92 128.854 1127.63 128.854H1135.59C1136.65 128.855 1137.52 127.991 1137.52 126.925Z" fill="#FFB94A"/>
</g>
<g opacity="0.8">
<path d="M1060.47 71.875C1060.47 85.684 1071.66 96.875 1085.47 96.875C1099.28 96.875 1110.47 85.684 1110.47 71.875C1110.47 58.066 1099.28 46.875 1085.47 46.875C1071.66 46.875 1060.47 58.067 1060.47 71.875Z" fill="#334163"/>
<path opacity="0.5" d="M1102.41 65.5572H1094.45C1093.39 65.5572 1092.52 64.6982 1092.52 63.6332C1092.52 62.5592 1093.39 61.6992 1094.45 61.6992H1102.41C1103.47 61.6992 1104.34 62.5582 1104.34 63.6332C1104.34 64.6982 1103.47 65.5572 1102.41 65.5572Z" fill="#7EAEE8"/>
<path opacity="0.5" d="M1102.41 73.6432H1094.45C1093.39 73.6432 1092.52 72.7842 1092.52 71.7092C1092.52 70.6452 1093.39 69.7852 1094.45 69.7852H1102.41C1103.47 69.7852 1104.34 70.6442 1104.34 71.7092C1104.34 72.7842 1103.47 73.6432 1102.41 73.6432Z" fill="#7EAEE8"/>
<path opacity="0.5" d="M1102.41 57.5963H1094.45C1093.39 57.5963 1092.52 56.7273 1092.52 55.6623C1092.52 54.5973 1093.39 53.7383 1094.45 53.7383H1102.41C1103.47 53.7383 1104.34 54.5973 1104.34 55.6623C1104.34 56.7273 1103.47 57.5963 1102.41 57.5963Z" fill="#7EAEE8"/>
<path opacity="0.3" d="M1078.47 91.6018C1071.85 91.6018 1066.46 86.2208 1066.46 79.5898C1066.46 77.1678 1067.18 74.8538 1068.53 72.8608V61.4938C1068.53 56.1228 1072.9 51.7578 1078.27 51.7578H1078.66C1084.04 51.7578 1088.41 56.1228 1088.41 61.4938V72.8608C1089.76 74.8528 1090.47 77.1678 1090.47 79.5898C1090.47 86.2208 1085.09 91.6018 1078.47 91.6018ZM1078.27 55.6158C1075.03 55.6158 1072.39 58.2528 1072.39 61.4948V73.4868C1072.39 73.9068 1072.25 74.3168 1071.99 74.6588C1070.89 76.0848 1070.32 77.7938 1070.32 79.5908C1070.32 84.0928 1073.98 87.7448 1078.47 87.7448C1082.96 87.7448 1086.61 84.0928 1086.61 79.5908C1086.61 77.7938 1086.04 76.0848 1084.94 74.6588C1084.68 74.3168 1084.54 73.9068 1084.54 73.4868V61.4948C1084.54 58.2528 1081.91 55.6158 1078.66 55.6158H1078.27Z" fill="#212A3F"/>
<path opacity="0.5" d="M1080.4 76.2488V61.6488C1080.4 60.5848 1079.53 59.7148 1078.47 59.7148C1077.4 59.7148 1076.54 60.5838 1076.54 61.6488V76.2488C1075.34 76.9228 1074.53 78.2018 1074.53 79.6668C1074.53 81.8348 1076.3 83.6028 1078.47 83.6028C1080.64 83.6028 1082.4 81.8348 1082.4 79.6668C1082.4 78.2018 1081.59 76.9228 1080.4 76.2488Z" fill="#7EAEE8"/>
<path d="M1080.4 76.2518V67.8928C1080.4 66.8288 1079.53 65.9688 1078.47 65.9688C1077.4 65.9688 1076.54 66.8278 1076.54 67.8928V76.2518C1075.34 76.9258 1074.53 78.2048 1074.53 79.6698C1074.53 81.8378 1076.3 83.6058 1078.47 83.6058C1080.64 83.6058 1082.4 81.8378 1082.4 79.6698C1082.4 78.2048 1081.59 76.9258 1080.4 76.2518Z" fill="url(#paint13_linear)"/>
</g>
<g opacity="0.6">
<path d="M1014.75 67.4023C1028.56 67.4023 1039.75 56.2095 1039.75 42.4023C1039.75 28.5952 1028.56 17.4023 1014.75 17.4023C1000.94 17.4023 989.752 28.5952 989.752 42.4023C989.752 56.2095 1000.94 67.4023 1014.75 67.4023Z" fill="#334163"/>
<path opacity="0.15" d="M1025.85 38.7697C1024.32 36.2707 1022.15 33.0937 1019.88 30.0557C1016.05 24.9297 1015.72 24.9297 1014.75 24.9297C1014.73 24.9297 1014.72 24.9297 1014.7 24.9317C1013.77 24.9337 1013.38 25.0287 1009.63 30.0557C1007.36 33.0947 1005.18 36.2717 1003.65 38.7697C1000.42 44.0717 998.641 52.3637 1004.3 58.2827C1006.97 61.0767 1010.86 62.7497 1014.7 62.7607C1014.72 62.7617 1014.74 62.7617 1014.76 62.7617C1018.62 62.7617 1022.52 61.0887 1025.2 58.2827C1030.86 52.3637 1029.09 44.0717 1025.85 38.7697Z" fill="#00AEEF"/>
<path opacity="0.4" d="M1014.75 29.7305C1012.91 32.0345 1009.4 36.7695 1006.95 40.7835C1004.42 44.9165 1002.94 51.2805 1007.09 55.6175C1009.03 57.6445 1011.96 58.9035 1014.75 58.9035C1014.76 58.9035 1014.78 58.9045 1014.8 58.9045C1017.57 58.8945 1020.49 57.6365 1022.41 55.6195C1026.56 51.2815 1025.08 44.9165 1022.56 40.7835C1020.1 36.7675 1016.6 32.0345 1014.75 29.7305Z" fill="#00AEEF"/>
<path d="M1014.75 54.7752C1011.32 54.7752 1008.52 51.9892 1008.51 48.5592C1008.5 48.0552 1008.69 47.5482 1009.07 47.1632C1009.82 46.4092 1011.05 46.4092 1011.8 47.1632H1011.8C1012.16 47.5242 1012.36 48.0172 1012.36 48.5282C1012.36 49.8432 1013.44 50.9152 1014.75 50.9152C1015.82 50.9152 1016.68 51.7792 1016.68 52.8442C1016.68 53.9102 1015.82 54.7752 1014.75 54.7752Z" fill="#334163"/>
</g>
<g opacity="0.8">
<path d="M1169.96 221.164C1183.77 221.164 1194.96 209.971 1194.96 196.164C1194.96 182.357 1183.77 171.164 1169.96 171.164C1156.16 171.164 1144.96 182.357 1144.96 196.164C1144.96 209.971 1156.16 221.164 1169.96 221.164Z" fill="#334163"/>
<path d="M1163.96 214.421C1163.43 210.44 1164.86 207.053 1168.74 203.098C1171.5 200.28 1174.51 197.434 1175.6 193.51C1177.9 185.276 1171.97 177.46 1166.81 174.984C1166.52 174.842 1166.21 174.792 1165.9 174.804C1165.87 174.803 1165.83 174.793 1165.8 174.793C1164.73 174.793 1163.87 175.657 1163.87 176.724C1163.87 178.862 1161.35 181.668 1158.68 184.642C1156.16 187.444 1153.31 190.62 1151.45 194.35C1149.58 198.098 1149.48 202.831 1151.18 207.011C1152.97 211.429 1156.58 214.785 1161.35 216.472C1161.36 216.475 1161.36 216.477 1161.37 216.48C1161.38 216.484 1161.39 216.489 1161.41 216.494C1162.1 216.737 1163.07 216.542 1163.53 215.925C1163.82 215.521 1164.01 214.987 1163.96 214.484C1163.96 214.462 1163.96 214.442 1163.96 214.421Z" fill="url(#paint14_linear)"/>
<path d="M1183.63 193.799C1183.42 193.429 1183.09 193.15 1182.7 192.98C1182.6 192.936 1182.49 192.9 1182.38 192.876C1182.06 192.803 1181.7 192.81 1181.38 192.915C1181.37 192.918 1181.36 192.918 1181.36 192.92C1180.91 193.072 1180.51 193.374 1180.28 193.793C1180.15 194.046 1180.05 194.327 1180.03 194.62C1179.78 198.124 1177.52 200.102 1174.89 202.392C1171.7 205.175 1168.09 208.33 1168.03 214.592C1168.03 214.653 1168.04 214.709 1168.05 214.768C1168.09 215.198 1168.27 215.602 1168.57 215.914C1168.88 216.249 1169.3 216.453 1169.75 216.503C1169.82 216.509 1169.88 216.523 1169.94 216.523C1169.95 216.523 1169.96 216.523 1169.96 216.523C1176.68 216.523 1181.82 214.055 1184.43 209.573C1187.02 205.134 1186.72 199.24 1183.63 193.799Z" fill="url(#paint15_linear)"/>
<path d="M1154.75 205.558C1153.47 202.389 1153.52 198.841 1154.9 196.07C1156.53 192.809 1159.08 189.969 1161.55 187.223C1163.92 184.577 1166.06 182.188 1167.09 179.715C1170.34 182.32 1173.3 187.371 1171.88 192.473C1171.12 195.206 1168.88 197.462 1166.72 199.644C1166.47 199.897 1166.22 200.147 1165.98 200.398C1163.35 203.086 1160.47 206.69 1160.05 211.636C1157.06 209.881 1155.53 207.464 1154.75 205.558Z" fill="#2F3B5A"/>
<path d="M1181.09 207.629C1179.47 210.418 1176.32 212.127 1172.11 212.554C1172.79 209.359 1174.96 207.449 1177.43 205.299C1179.05 203.885 1180.79 202.362 1182.06 200.379C1182.6 203.04 1182.29 205.58 1181.09 207.629Z" fill="url(#paint16_linear)"/>
<path opacity="0.7" d="M1167.09 179.711C1166.06 182.186 1163.92 184.574 1161.55 187.22C1159.08 189.968 1156.53 192.808 1154.9 196.07C1154.02 197.833 1153.68 199.911 1153.88 202.005C1154.08 194.961 1162.63 191.824 1167.59 186.395C1169.71 190.022 1171.06 194.716 1167.62 198.667C1167.46 198.844 1167.32 199.015 1167.19 199.177C1169.2 197.14 1171.17 195.012 1171.88 192.474C1173.31 187.37 1170.34 182.319 1167.09 179.711Z" fill="url(#paint17_linear)"/>
<path opacity="0.4" d="M1163.43 203.333C1163.49 203.241 1163.56 203.149 1163.63 203.059C1167.14 198.552 1167.04 196.713 1166.26 193.094C1164.57 195.224 1160.03 196.724 1157.22 199.634C1155.11 201.835 1154.33 204.981 1155.91 207.748C1156.81 209.111 1158.13 210.509 1160.05 211.636C1160.32 208.45 1161.61 205.824 1163.2 203.638C1163.27 203.535 1163.35 203.435 1163.43 203.333Z" fill="url(#paint18_linear)"/>
</g>
<path opacity="0.07" d="M977.393 100.162C987.033 100.162 994.847 92.3475 994.847 82.7079C994.847 73.0683 987.033 65.2539 977.393 65.2539C967.754 65.2539 959.939 73.0683 959.939 82.7079C959.939 92.3475 967.754 100.162 977.393 100.162Z" fill="#4B6696"/>
<path opacity="0.02" d="M1133.75 256.517C1143.39 256.517 1151.2 248.703 1151.2 239.063C1151.2 229.424 1143.39 221.609 1133.75 221.609C1124.11 221.609 1116.29 229.424 1116.29 239.063C1116.29 248.703 1124.11 256.517 1133.75 256.517Z" fill="#4B6696"/>
<path opacity="0.02" d="M821.038 256.517C830.678 256.517 838.492 248.703 838.492 239.063C838.492 229.424 830.678 221.609 821.038 221.609C811.398 221.609 803.584 229.424 803.584 239.063C803.584 248.703 811.398 256.517 821.038 256.517Z" fill="#4B6696"/>
<path opacity="0.07" d="M866.835 145.959C876.474 145.959 884.289 138.144 884.289 128.505C884.289 118.865 876.474 111.051 866.835 111.051C857.195 111.051 849.381 118.865 849.381 128.505C849.381 138.144 857.195 145.959 866.835 145.959Z" fill="#4B6696"/>
<path opacity="0.07" d="M1087.95 145.957C1097.59 145.957 1105.41 138.143 1105.41 128.504C1105.41 118.865 1097.59 111.051 1087.95 111.051C1078.31 111.051 1070.5 118.865 1070.5 128.504C1070.5 138.143 1078.31 145.957 1087.95 145.957Z" fill="#4B6696"/>
<path opacity="0.07" d="M916.93 112.324C926.569 112.324 934.383 104.51 934.383 94.871C934.383 85.2319 926.569 77.418 916.93 77.418C907.291 77.418 899.477 85.2319 899.477 94.871C899.477 104.51 907.291 112.324 916.93 112.324Z" fill="#4B6696"/>
<path opacity="0.05" d="M1121.58 196.051C1131.22 196.051 1139.04 188.237 1139.04 178.598C1139.04 168.959 1131.22 161.145 1121.58 161.145C1111.94 161.145 1104.13 168.959 1104.13 178.598C1104.13 188.237 1111.94 196.051 1121.58 196.051Z" fill="#4B6696"/>
<path opacity="0.05" d="M832.681 197.314C842.32 197.314 850.135 189.5 850.135 179.86C850.135 170.221 842.32 162.406 832.681 162.406C823.041 162.406 815.227 170.221 815.227 179.86C815.227 189.5 823.041 197.314 832.681 197.314Z" fill="#4B6696"/>
<path opacity="0.07" d="M1036.6 111.803C1046.24 111.803 1054.05 103.988 1054.05 94.3485C1054.05 84.709 1046.24 76.8945 1036.6 76.8945C1026.96 76.8945 1019.14 84.709 1019.14 94.3485C1019.14 103.988 1026.96 111.803 1036.6 111.803Z" fill="#4B6696"/>
<path opacity="0.05" d="M1003.93 -1.36023C1003.93 13.3688 991.993 25.3087 977.266 25.3087C962.536 25.3087 950.594 13.3698 950.594 -1.36023C950.594 -16.0902 962.535 -28.0312 977.266 -28.0312C991.993 -28.0312 1003.93 -16.0912 1003.93 -1.36023Z" fill="#4B6696"/>
<path opacity="0.02" d="M1216.17 264.217C1230.9 264.217 1242.84 252.277 1242.84 237.548C1242.84 222.819 1230.9 210.879 1216.17 210.879C1201.45 210.879 1189.51 222.819 1189.51 237.548C1189.51 252.277 1201.45 264.217 1216.17 264.217Z" fill="#4B6696"/>
<path opacity="0.02" d="M738.356 264.217C753.085 264.217 765.025 252.277 765.025 237.548C765.025 222.819 753.085 210.879 738.356 210.879C723.628 210.879 711.688 222.819 711.688 237.548C711.688 252.277 723.628 264.217 738.356 264.217Z" fill="#4B6696"/>
<path opacity="0.05" d="M827.191 49.7573C837.607 60.1713 837.607 77.0583 827.191 87.4723C816.773 97.8883 799.888 97.8883 789.474 87.4743C779.058 77.0583 779.058 60.1713 789.474 49.7573C799.889 39.3413 816.773 39.3413 827.191 49.7573Z" fill="#4B6696"/>
<path opacity="0.05" d="M1146.2 95.2813C1160.93 95.2813 1172.87 83.3416 1172.87 68.6133C1172.87 53.885 1160.93 41.9453 1146.2 41.9453C1131.47 41.9453 1119.53 53.885 1119.53 68.6133C1119.53 83.3416 1131.47 95.2813 1146.2 95.2813Z" fill="#4B6696"/>
<path opacity="0.05" d="M909.471 6.91303C915.166 20.497 908.774 36.125 895.19 41.822C881.606 47.516 865.979 41.124 860.284 27.54C854.587 13.956 860.981 -1.67295 874.563 -7.36795C888.148 -13.0629 903.777 -6.66897 909.471 6.91303Z" fill="#4B6696"/>
<path opacity="0.03" d="M1197.59 171.826C1212.32 171.826 1224.26 159.886 1224.26 145.157C1224.26 130.428 1212.32 118.488 1197.59 118.488C1182.86 118.488 1170.92 130.428 1170.92 145.157C1170.92 159.886 1182.86 171.826 1197.59 171.826Z" fill="#4B6696"/>
<path opacity="0.03" d="M766.242 122.402C779.877 127.98 786.406 143.551 780.83 157.183C775.252 170.818 759.678 177.347 746.047 171.769C732.414 166.193 725.885 150.621 731.461 136.988C737.039 123.355 752.613 116.826 766.242 122.402Z" fill="#4B6696"/>
<path opacity="0.05" d="M1092.41 26.5241C1086.83 40.1571 1071.26 46.6872 1057.63 41.1092C1044 35.5332 1037.47 19.9621 1043.04 6.32914C1048.62 -7.30386 1064.19 -13.8349 1077.82 -8.25686C1091.46 -2.67886 1097.99 12.8911 1092.41 26.5241Z" fill="#4B6696"/>
<path opacity="0.1" d="M939.001 68.9938C950.963 68.9938 960.66 59.2967 960.66 47.3348C960.66 35.3728 950.963 25.6758 939.001 25.6758C927.039 25.6758 917.342 35.3728 917.342 47.3348C917.342 59.2967 927.039 68.9938 939.001 68.9938Z" fill="#4B6696"/>
<path opacity="0.07" d="M815.711 151.765C827.672 151.765 837.369 142.069 837.369 130.107C837.369 118.146 827.672 108.449 815.711 108.449C803.749 108.449 794.053 118.146 794.053 130.107C794.053 142.069 803.749 151.765 815.711 151.765Z" fill="#4B6696"/>
<path opacity="0.1" d="M868.421 98.5914C880.383 98.5914 890.08 88.8944 890.08 76.9324C890.08 64.9705 880.383 55.2734 868.421 55.2734C856.459 55.2734 846.762 64.9705 846.762 76.9324C846.762 88.8944 856.459 98.5914 868.421 98.5914Z" fill="#4B6696"/>
<path opacity="0.05" d="M786.727 222.599C798.689 222.599 808.386 212.902 808.386 200.94C808.386 188.978 798.689 179.281 786.727 179.281C774.765 179.281 765.068 188.978 765.068 200.94C765.068 212.902 774.765 222.599 786.727 222.599Z" fill="#4B6696"/>
<path opacity="0.05" d="M951.893 125.775C959.825 125.775 966.255 119.345 966.255 111.413C966.255 103.481 959.825 97.0508 951.893 97.0508C943.961 97.0508 937.531 103.481 937.531 111.413C937.531 119.345 943.961 125.775 951.893 125.775Z" fill="#4B6696"/>
<path opacity="0.05" d="M1103.4 226.533C1111.33 226.533 1117.76 220.103 1117.76 212.171C1117.76 204.239 1111.33 197.809 1103.4 197.809C1095.47 197.809 1089.04 204.239 1089.04 212.171C1089.04 220.103 1095.47 226.533 1103.4 226.533Z" fill="#4B6696"/>
<path opacity="0.05" d="M870.135 180.665C878.067 180.665 884.497 174.235 884.497 166.303C884.497 158.372 878.067 151.941 870.135 151.941C862.204 151.941 855.773 158.372 855.773 166.303C855.773 174.235 862.204 180.665 870.135 180.665Z" fill="#4B6696"/>
<path opacity="0.05" d="M1060.47 138.368C1056.08 144.972 1047.16 146.765 1040.56 142.374C1033.96 137.981 1032.16 129.067 1036.55 122.463C1040.95 115.856 1049.86 114.063 1056.46 118.455C1063.07 122.849 1064.86 131.764 1060.47 138.368Z" fill="#4B6696"/>
<path opacity="0.05" d="M905.089 145.404C913.02 145.404 919.451 138.974 919.451 131.042C919.451 123.11 913.02 116.68 905.089 116.68C897.157 116.68 890.727 123.11 890.727 131.042C890.727 138.974 897.157 145.404 905.089 145.404Z" fill="#4B6696"/>
<path opacity="0.05" d="M1083.77 179.732C1091.7 179.732 1098.13 173.302 1098.13 165.37C1098.13 157.438 1091.7 151.008 1083.77 151.008C1075.84 151.008 1069.41 157.438 1069.41 165.37C1069.41 173.302 1075.84 179.732 1083.77 179.732Z" fill="#4B6696"/>
<path opacity="0.05" d="M850.917 227.634C858.849 227.634 865.279 221.204 865.279 213.272C865.279 205.34 858.849 198.91 850.917 198.91C842.985 198.91 836.555 205.34 836.555 213.272C836.555 221.204 842.985 227.634 850.917 227.634Z" fill="#4B6696"/>
<path opacity="0.05" d="M1001.54 125.56C1009.47 125.56 1015.9 119.13 1015.9 111.198C1015.9 103.266 1009.47 96.8359 1001.54 96.8359C993.608 96.8359 987.178 103.266 987.178 111.198C987.178 119.13 993.608 125.56 1001.54 125.56Z" fill="#4B6696"/>
<path opacity="0.1" d="M899.697 0C1071.08 0.0241951 1210 138.963 1210 310.348V0H899.697Z" fill="url(#paint19_radial)"/>
</g>
<defs>
<radialGradient id="paint0_radial" cx="0" cy="0" r="1" gradientUnits="userSpaceOnUse" gradientTransform="translate(977.966 266.031) scale(166.561 165.353)">
<stop stop-color="#212A3F"/>
<stop offset="1" stop-color="#334163" stop-opacity="0.7"/>
</radialGradient>
<linearGradient id="paint1_linear" x1="908.756" y1="203.863" x2="1045.78" y2="203.863" gradientUnits="userSpaceOnUse">
<stop stop-color="#405684"/>
<stop offset="1" stop-color="#4B6696" stop-opacity="0"/>
</linearGradient>
<radialGradient id="paint2_radial" cx="0" cy="0" r="1" gradientUnits="userSpaceOnUse" gradientTransform="translate(1030.57 152.452) scale(168.388)">
<stop offset="0.133" stop-color="#212A3F"/>
<stop offset="0.5413" stop-color="#212A3F" stop-opacity="0.5"/>
<stop offset="0.6473" stop-color="#232C43" stop-opacity="0.4307"/>
<stop offset="0.7431" stop-color="#28344E" stop-opacity="0.368"/>
<stop offset="0.8351" stop-color="#314160" stop-opacity="0.3078"/>
<stop offset="0.9241" stop-color="#3D527A" stop-opacity="0.2496"/>
<stop offset="1" stop-color="#4B6696" stop-opacity="0.2"/>
</radialGradient>
<radialGradient id="paint3_radial" cx="0" cy="0" r="1" gradientUnits="userSpaceOnUse" gradientTransform="translate(1030.57 152.452) scale(168.388)">
<stop offset="0.2156" stop-color="#405684"/>
<stop offset="0.2413" stop-color="#425987"/>
<stop offset="0.3771" stop-color="#496392"/>
<stop offset="0.5229" stop-color="#4B6696"/>
<stop offset="0.5781" stop-color="#516B9A" stop-opacity="0.9075"/>
<stop offset="0.6527" stop-color="#627AA4" stop-opacity="0.7825"/>
<stop offset="0.7383" stop-color="#7F92B4" stop-opacity="0.6388"/>
<stop offset="0.8323" stop-color="#A6B4CB" stop-opacity="0.4812"/>
<stop offset="0.9318" stop-color="#D8DEE8" stop-opacity="0.3143"/>
<stop offset="1" stop-color="white" stop-opacity="0.2"/>
</radialGradient>
<linearGradient id="paint4_linear" x1="1009.14" y1="187.36" x2="1036.86" y2="136.397" gradientUnits="userSpaceOnUse">
<stop stop-color="#4B6696" stop-opacity="0"/>
<stop offset="0.1482" stop-color="#7388AD" stop-opacity="0.1482"/>
<stop offset="0.3545" stop-color="#A5B2CA" stop-opacity="0.3545"/>
<stop offset="0.5497" stop-color="#CCD4E1" stop-opacity="0.5497"/>
<stop offset="0.728" stop-color="#E8EBF2" stop-opacity="0.728"/>
<stop offset="0.8839" stop-color="#F9FAFB" stop-opacity="0.8839"/>
<stop offset="1" stop-color="white"/>
</linearGradient>
<linearGradient id="paint5_linear" x1="938.87" y1="177.577" x2="948.648" y2="167.799" gradientUnits="userSpaceOnUse">
<stop offset="0.0505" stop-color="#4B6696" stop-opacity="0"/>
<stop offset="0.1672" stop-color="#445C87" stop-opacity="0.2597"/>
<stop offset="0.3892" stop-color="#314261" stop-opacity="0.7536"/>
<stop offset="0.5" stop-color="#27334C"/>
<stop offset="0.5844" stop-color="#535D71" stop-opacity="0.816"/>
<stop offset="0.7682" stop-color="#AFB3BD" stop-opacity="0.4154"/>
<stop offset="0.8971" stop-color="#E9EAEC" stop-opacity="0.1344"/>
<stop offset="0.9587" stop-color="white" stop-opacity="0"/>
</linearGradient>
<linearGradient id="paint6_linear" x1="998.785" y1="246.821" x2="1017.89" y2="227.713" gradientUnits="userSpaceOnUse">
<stop stop-color="#405684"/>
<stop offset="0.5229" stop-color="#334163"/>
<stop offset="1" stop-color="#212A3F"/>
</linearGradient>
<linearGradient id="paint7_linear" x1="998.785" y1="246.821" x2="1017.89" y2="227.713" gradientUnits="userSpaceOnUse">
<stop offset="0.0046" stop-color="#18275B" stop-opacity="0.2"/>
<stop offset="0.5183" stop-color="#0075EF" stop-opacity="0.5"/>
<stop offset="0.6726" stop-color="#0088EF" stop-opacity="0.6601"/>
<stop offset="1" stop-color="#26A5FF"/>
</linearGradient>
<linearGradient id="paint8_linear" x1="982.475" y1="200.893" x2="996.996" y2="214.866" gradientUnits="userSpaceOnUse">
<stop stop-color="#122553"/>
<stop offset="0.5186" stop-color="#0D3269"/>
<stop offset="1" stop-color="#0D408C"/>
</linearGradient>
<linearGradient id="paint9_linear" x1="976.195" y1="205.125" x2="991.929" y2="220.859" gradientUnits="userSpaceOnUse">
<stop stop-color="#122553"/>
<stop offset="0.5186" stop-color="#0D3269"/>
<stop offset="1" stop-color="#0D408C"/>
</linearGradient>
<linearGradient id="paint10_linear" x1="972.169" y1="211.418" x2="986.273" y2="225.735" gradientUnits="userSpaceOnUse">
<stop stop-color="#122553"/>
<stop offset="0.5186" stop-color="#0D3269"/>
<stop offset="1" stop-color="#0D408C"/>
</linearGradient>
<linearGradient id="paint11_linear" x1="1029.5" y1="273.677" x2="1044.77" y2="258.407" gradientUnits="userSpaceOnUse">
<stop stop-color="#00AEEF" stop-opacity="0.5"/>
<stop offset="0.5229" stop-color="#00AEEF" stop-opacity="0.7"/>
<stop offset="1" stop-color="#00AEEF"/>
</linearGradient>
<linearGradient id="paint12_linear" x1="911.204" y1="140.132" x2="973.807" y2="202.735" gradientUnits="userSpaceOnUse">
<stop stop-color="#4B6696"/>
<stop offset="0.1605" stop-color="#4B6696"/>
<stop offset="0.3119" stop-color="#334163"/>
<stop offset="1" stop-color="#212A3F" stop-opacity="0"/>
</linearGradient>
<linearGradient id="paint13_linear" x1="1078.47" y1="83.6056" x2="1078.47" y2="65.9689" gradientUnits="userSpaceOnUse">
<stop stop-color="#ED3D5A"/>
<stop offset="1" stop-color="#ED3D5A" stop-opacity="0.5"/>
</linearGradient>
<linearGradient id="paint14_linear" x1="1166.5" y1="188.25" x2="1174.5" y2="283" gradientUnits="userSpaceOnUse">
<stop stop-color="#2F3B5A"/>
<stop offset="1" stop-color="#2F3B5A" stop-opacity="0"/>
</linearGradient>
<linearGradient id="paint15_linear" x1="1186.18" y1="200" x2="1161.75" y2="248.5" gradientUnits="userSpaceOnUse">
<stop stop-color="#2F3B5A"/>
<stop offset="1" stop-color="#2F3B5A" stop-opacity="0"/>
</linearGradient>
<linearGradient id="paint16_linear" x1="1177.21" y1="198.616" x2="1177.21" y2="216.987" gradientUnits="userSpaceOnUse">
<stop stop-color="#ED3D5A"/>
<stop offset="1" stop-color="#ED3D5A" stop-opacity="0.5"/>
</linearGradient>
<linearGradient id="paint17_linear" x1="1163.04" y1="175.992" x2="1163.04" y2="206.191" gradientUnits="userSpaceOnUse">
<stop stop-color="#ED3D5A"/>
<stop offset="1" stop-color="#ED3D5A" stop-opacity="0.5"/>
</linearGradient>
<linearGradient id="paint18_linear" x1="1166.97" y1="186.107" x2="1155.58" y2="213.117" gradientUnits="userSpaceOnUse">
<stop stop-color="#00AEEF"/>
<stop offset="0.2305" stop-color="#03ABEB"/>
<stop offset="0.4369" stop-color="#0CA2E1"/>
<stop offset="0.634" stop-color="#1C94CE"/>
<stop offset="0.8242" stop-color="#317FB5"/>
<stop offset="1" stop-color="#4B6696"/>
</linearGradient>
<radialGradient id="paint19_radial" cx="0" cy="0" r="1" gradientUnits="userSpaceOnUse" gradientTransform="translate(898.878 307.689) scale(456.22)">
<stop offset="0.684597" stop-color="#334163"/>
<stop offset="0.829264" stop-color="#647FC2"/>
<stop offset="0.9495" stop-color="#A8BCE3"/>
</radialGradient>
</defs>
</svg>
