<svg width="1210" height="880" viewBox="0 0 1210 880" fill="none" xmlns="http://www.w3.org/2000/svg">
<mask id="mask0" mask-type="alpha" maskUnits="userSpaceOnUse" x="0" y="0" width="1210" height="880">
<path d="M1210 0H0V880H1210V0Z" fill="#334163"/>
</mask>
<g mask="url(#mask0)">
<path d="M977.264 46.5039C979.197 46.5039 980.764 44.9369 980.764 43.0039C980.764 41.0709 979.197 39.5039 977.264 39.5039C975.331 39.5039 973.764 41.0709 973.764 43.0039C973.764 44.9369 975.331 46.5039 977.264 46.5039Z" fill="#4B6696"/>
<path d="M1114.11 103.191C1116.05 103.191 1117.61 101.624 1117.61 99.6914C1117.61 97.7584 1116.05 96.1914 1114.11 96.1914C1112.18 96.1914 1110.61 97.7584 1110.61 99.6914C1110.61 101.624 1112.18 103.191 1114.11 103.191Z" fill="#4B6696"/>
<path d="M1155.74 165.197C1157.67 165.197 1159.24 163.631 1159.24 161.698C1159.24 159.766 1157.67 158.199 1155.74 158.199C1153.81 158.199 1152.24 159.766 1152.24 161.698C1152.24 163.631 1153.81 165.197 1155.74 165.197Z" fill="#4B6696"/>
<path d="M1050.55 60.9121C1052.48 60.9121 1054.04 59.3455 1054.04 57.4131C1054.04 55.4806 1052.48 53.9141 1050.55 53.9141C1048.61 53.9141 1047.05 55.4806 1047.05 57.4131C1047.05 59.3455 1048.61 60.9121 1050.55 60.9121Z" fill="#4B6696"/>
<path opacity="0.7" d="M977.964 101.246C886.514 101.246 812.377 174.844 812.377 265.631H1143.55C1143.55 174.843 1069.41 101.246 977.964 101.246Z" fill="url(#paint0_radial)"/>
<path d="M1039.92 146.381C1041.07 145.071 1042.08 143.589 1042.93 141.976C1046.01 136.137 1046.02 129.561 1045.55 122.361C1045.48 121.706 1045.29 121.371 1045.04 121.339L1043.43 120.91C1043.17 120.834 1042.83 121.123 1042.49 121.745L1042.49 121.734C1041.63 123.222 1040.1 126.509 1039.04 128.775C1038.28 130.396 1037.25 132.519 1036.37 134.207C1035.61 135.674 1034.82 136.879 1033.23 137.498C1031.35 138.231 1029.15 137.733 1027.3 137.13C1026.27 136.791 1025.26 136.358 1024.3 135.841C1021.6 134.375 1019.42 132.319 1017.84 129.918C1017.39 129.25 1017.07 128.202 1017.06 127.386C1017.05 126.053 1017.78 124.955 1018.39 123.824C1019.83 121.161 1022.99 115.323 1025.67 110.359C1025.69 110.332 1025.7 110.306 1025.71 110.277C1026.5 108.833 1025.95 108.139 1024.42 108.474C1023.78 108.614 1023.16 108.858 1022.57 109.129C1020.15 110.231 1017.89 111.63 1015.64 113.031C1013.41 114.417 1011.21 115.883 1009.26 117.652C1006.7 119.974 1004.24 123.414 1003.77 126.928C1003.59 128.308 1003.6 129.715 1003.62 131.103C1003.72 137.826 1004.3 143.443 990.378 157.21C990.378 157.21 910.45 237.138 910.45 237.139C909.36 238.229 908.542 239.925 908.802 241.506C909.111 243.389 909.99 245.195 911.443 246.648C912.896 248.101 914.703 248.978 916.586 249.289C918.149 249.545 919.859 248.73 920.953 247.638C920.953 247.637 1000.62 167.974 1000.62 167.974C1014.34 154.245 1019.61 152.671 1026.33 152.333C1027.72 152.264 1029.12 152.185 1030.48 151.911C1034.34 151.136 1037.48 149.15 1039.92 146.381Z" fill="#405684"/>
<path d="M1039.92 146.381C1041.07 145.071 1042.08 143.589 1042.93 141.976C1046.01 136.137 1046.02 129.561 1045.55 122.361C1045.48 121.706 1045.29 121.371 1045.04 121.339L1043.43 120.91C1043.17 120.834 1042.83 121.123 1042.49 121.745L1042.49 121.734C1041.63 123.222 1040.1 126.509 1039.04 128.775C1038.28 130.396 1037.25 132.519 1036.37 134.207C1035.61 135.674 1034.82 136.879 1033.23 137.498C1031.35 138.231 1029.15 137.733 1027.3 137.13C1026.27 136.791 1025.26 136.358 1024.3 135.841C1021.6 134.375 1019.42 132.319 1017.84 129.918C1017.39 129.25 1017.07 128.202 1017.06 127.386C1017.05 126.053 1017.78 124.955 1018.39 123.824C1019.83 121.161 1022.99 115.323 1025.67 110.359C1025.69 110.332 1025.7 110.306 1025.71 110.277C1026.5 108.833 1025.95 108.139 1024.42 108.474C1023.78 108.614 1023.16 108.858 1022.57 109.129C1020.15 110.231 1017.89 111.63 1015.64 113.031C1013.41 114.417 1011.21 115.883 1009.26 117.652C1006.7 119.974 1004.24 123.414 1003.77 126.928C1003.59 128.308 1003.6 129.715 1003.62 131.103C1003.72 137.826 1004.3 143.443 990.378 157.21C990.378 157.21 910.45 237.138 910.45 237.139C909.36 238.229 908.542 239.925 908.802 241.506C909.111 243.389 909.99 245.195 911.443 246.648C912.896 248.101 914.703 248.978 916.586 249.289C918.149 249.545 919.859 248.73 920.953 247.638C920.953 247.637 1000.62 167.974 1000.62 167.974C1014.34 154.245 1019.61 152.671 1026.33 152.333C1027.72 152.264 1029.12 152.185 1030.48 151.911C1034.34 151.136 1037.48 149.15 1039.92 146.381Z" fill="url(#paint1_linear)"/>
<path opacity="0.6" d="M1039.92 146.381C1041.07 145.071 1042.08 143.589 1042.93 141.976C1046.01 136.137 1046.02 129.561 1045.55 122.361C1045.48 121.706 1045.29 121.371 1045.04 121.339L1043.43 120.91C1043.17 120.834 1042.83 121.123 1042.49 121.745L1042.49 121.734C1041.63 123.222 1040.1 126.509 1039.04 128.775C1038.28 130.396 1037.25 132.519 1036.37 134.207C1035.61 135.674 1034.82 136.879 1033.23 137.498C1031.35 138.231 1029.15 137.733 1027.3 137.13C1026.27 136.791 1025.26 136.358 1024.3 135.841C1021.6 134.375 1019.42 132.319 1017.84 129.918C1017.39 129.25 1017.07 128.202 1017.06 127.386C1017.05 126.053 1017.78 124.955 1018.39 123.824C1019.83 121.161 1022.99 115.323 1025.67 110.359C1025.69 110.332 1025.7 110.306 1025.71 110.277C1026.5 108.833 1025.95 108.139 1024.42 108.474C1023.78 108.614 1023.16 108.858 1022.57 109.129C1020.15 110.231 1017.89 111.63 1015.64 113.031C1013.41 114.417 1011.21 115.883 1009.26 117.652C1006.7 119.974 1004.24 123.414 1003.77 126.928C1003.59 128.308 1003.6 129.715 1003.62 131.103C1003.72 137.826 1004.3 143.443 990.378 157.21C990.378 157.21 910.45 237.138 910.45 237.139C909.36 238.229 908.542 239.925 908.802 241.506C909.111 243.389 909.99 245.195 911.443 246.648C912.896 248.101 914.703 248.978 916.586 249.289C918.149 249.545 919.859 248.73 920.953 247.638C920.953 247.637 1000.62 167.974 1000.62 167.974C1014.34 154.245 1019.61 152.671 1026.33 152.333C1027.72 152.264 1029.12 152.185 1030.48 151.911C1034.34 151.136 1037.48 149.15 1039.92 146.381Z" fill="url(#paint2_radial)"/>
<path opacity="0.6" d="M1039.92 146.381C1041.07 145.071 1042.08 143.589 1042.93 141.976C1046.01 136.137 1046.02 129.561 1045.55 122.361C1045.48 121.706 1045.29 121.371 1045.04 121.339L1043.43 120.91C1043.17 120.834 1042.83 121.123 1042.49 121.745L1042.49 121.734C1041.63 123.222 1040.1 126.509 1039.04 128.775C1038.28 130.396 1037.25 132.519 1036.37 134.207C1035.61 135.674 1034.82 136.879 1033.23 137.498C1031.35 138.231 1029.15 137.733 1027.3 137.13C1026.27 136.791 1025.26 136.358 1024.3 135.841C1021.6 134.375 1019.42 132.319 1017.84 129.918C1017.39 129.25 1017.07 128.202 1017.06 127.386C1017.05 126.053 1017.78 124.955 1018.39 123.824C1019.83 121.161 1022.99 115.323 1025.67 110.359C1025.69 110.332 1025.7 110.306 1025.71 110.277C1026.5 108.833 1025.95 108.139 1024.42 108.474C1023.78 108.614 1023.16 108.858 1022.57 109.129C1020.15 110.231 1017.89 111.63 1015.64 113.031C1013.41 114.417 1011.21 115.883 1009.26 117.652C1006.7 119.974 1004.24 123.414 1003.77 126.928C1003.59 128.308 1003.6 129.715 1003.62 131.103C1003.72 137.826 1004.3 143.443 990.378 157.21C990.378 157.21 910.45 237.138 910.45 237.139C909.36 238.229 908.542 239.925 908.802 241.506C909.111 243.389 909.99 245.195 911.443 246.648C912.896 248.101 914.703 248.978 916.586 249.289C918.149 249.545 919.859 248.73 920.953 247.638C920.953 247.637 1000.62 167.974 1000.62 167.974C1014.34 154.245 1019.61 152.671 1026.33 152.333C1027.72 152.264 1029.12 152.185 1030.48 151.911C1034.34 151.136 1037.48 149.15 1039.92 146.381Z" fill="url(#paint3_radial)"/>
<path d="M1025.92 108.707C1025.93 108.724 1025.94 108.739 1025.95 108.756C1025.94 108.739 1025.93 108.723 1025.92 108.707Z" fill="#212A3F"/>
<path d="M1025.89 108.672C1025.9 108.683 1025.91 108.693 1025.92 108.703C1025.91 108.693 1025.9 108.683 1025.89 108.672Z" fill="#212A3F"/>
<path d="M1025.97 108.771C1025.97 108.765 1025.96 108.76 1025.96 108.754C1025.98 108.798 1026.01 108.843 1026.02 108.894C1026.01 108.85 1025.99 108.809 1025.97 108.771Z" fill="#212A3F"/>
<path d="M912.308 247.407C911.308 246.131 910.677 244.659 910.427 243.134C910.167 241.553 910.986 239.857 912.075 238.766L992.003 158.84C1005.92 145.07 1006.07 139.711 1005.97 132.987C1005.95 131.6 1005.93 130.192 1006.12 128.814C1006.45 126.326 1007.17 123.75 1008.64 121.631C1012.41 115.799 1020.17 110.895 1024.4 108.63L1024.41 108.636C1024.73 108.459 1025.54 108.309 1025.89 108.673C1025.65 108.396 1025.15 108.316 1024.42 108.475C1023.78 108.615 1023.16 108.859 1022.57 109.13C1020.15 110.232 1017.89 111.631 1015.64 113.032C1013.41 114.418 1011.21 115.884 1009.26 117.653C1006.7 119.975 1004.24 123.415 1003.77 126.929C1003.58 128.309 1003.6 129.716 1003.62 131.104C1003.72 137.827 1004.3 143.444 990.377 157.212C990.377 157.212 910.449 237.139 910.449 237.14C909.359 238.23 908.541 239.926 908.801 241.507C909.11 243.39 909.989 245.196 911.44 246.649C911.717 246.925 912.01 247.173 912.308 247.407Z" fill="#212A3F"/>
<path opacity="0.5" d="M1042.93 141.978C1046.01 136.139 1046.02 129.563 1045.55 122.363C1045.48 121.708 1045.29 121.373 1045.04 121.341L1043.43 120.912C1043.17 120.836 1042.83 121.125 1042.49 121.747L1042.49 121.736C1041.63 123.224 1040.1 126.511 1039.04 128.777C1038.28 130.398 1037.25 132.521 1036.37 134.209C1035.61 135.676 1034.82 136.881 1033.23 137.5C1031.35 138.233 1029.15 137.735 1027.3 137.132C1026.27 136.793 1025.26 136.36 1024.3 135.843C1021.6 134.377 1019.42 132.321 1017.83 129.92C1017.39 129.252 1017.07 128.204 1017.06 127.388C1017.05 126.055 1017.78 124.957 1018.39 123.826C1020.02 120.816 1023.11 115.096 1025.72 110.28L1025.71 110.279C1026.08 109.599 1026.15 109.089 1025.97 108.771C1025.67 108.286 1024.75 108.444 1024.41 108.637V108.631C1019.06 111.487 1008.1 118.545 1006.64 126.366C1005.3 133.537 1009.77 140.709 1014.48 144.644C1017.28 146.986 1021.42 149.041 1024.92 150.073C1034.97 153.035 1039.81 147.893 1042.93 141.978Z" fill="url(#paint4_linear)"/>
<path d="M1036.73 135.628C1036.97 135.297 1037.18 134.952 1037.37 134.609C1038.58 132.392 1041.49 127.056 1044.15 122.178L1044.15 122.18C1044.47 121.592 1044.79 121.303 1045.04 121.335L1043.43 120.906C1043.17 120.83 1042.83 121.119 1042.49 121.741L1042.49 121.73C1041.63 123.218 1040.1 126.505 1039.04 128.771C1038.28 130.392 1037.25 132.515 1036.37 134.203C1035.61 135.67 1034.82 136.875 1033.23 137.494C1032.2 137.898 1031.06 137.928 1029.94 137.771C1030.89 137.931 1031.85 138.02 1032.8 138.026C1034.47 138.037 1035.79 136.934 1036.73 135.628Z" fill="#212A3F"/>
<g opacity="0.15">
<path opacity="0.6" d="M1045.55 122.359C1045.49 121.757 1045.32 121.438 1045.1 121.363C1045.55 128.467 1045.5 134.961 1042.46 140.732C1041.61 142.345 1040.61 143.828 1039.45 145.137C1037.01 147.906 1033.88 149.892 1030.01 150.667C1028.65 150.94 1027.25 151.02 1025.86 151.089C1019.14 151.427 1013.88 153.001 1000.15 166.73L920.484 246.394C919.39 247.487 917.679 248.301 916.117 248.045C914.234 247.734 912.428 246.857 910.974 245.404C910.15 244.581 909.533 243.637 909.078 242.637C909.51 244.104 910.285 245.489 911.443 246.646C912.896 248.098 914.703 248.976 916.586 249.287C918.149 249.543 919.859 248.728 920.953 247.636C920.953 247.635 1000.62 167.972 1000.62 167.972C1014.34 154.243 1019.61 152.669 1026.33 152.331C1027.72 152.262 1029.12 152.183 1030.48 151.909C1034.34 151.134 1037.48 149.147 1039.92 146.379C1041.07 145.069 1042.08 143.587 1042.93 141.974C1046.01 136.135 1046.02 129.559 1045.55 122.359Z" fill="white"/>
<path opacity="0.6" d="M1025.25 109.034C1025.23 109.063 1025.22 109.089 1025.2 109.116C1022.52 114.08 1019.36 119.918 1017.93 122.581C1017.31 123.712 1016.58 124.81 1016.6 126.143C1016.6 126.855 1016.86 127.729 1017.21 128.388C1017.13 128.042 1017.07 127.697 1017.06 127.385C1017.05 126.052 1017.78 124.954 1018.39 123.823C1019.83 121.16 1022.99 115.322 1025.67 110.358C1025.69 110.331 1025.7 110.305 1025.71 110.276C1026.27 109.258 1026.15 108.624 1025.5 108.449C1025.44 108.628 1025.36 108.82 1025.25 109.034Z" fill="white"/>
</g>
<path opacity="0.8" d="M974.373 178.303C974.373 178.303 975.662 177.013 976.93 175.747L934.668 133.326L926.318 120.541L926.3 120.515C926.136 120.283 925.818 119.951 925.593 119.777L917.474 113.461C917.247 113.288 916.9 113.308 916.699 113.51L909.578 120.631C909.377 120.832 909.355 121.18 909.529 121.405L915.845 129.525C916.019 129.749 916.353 130.067 916.583 130.232L916.616 130.253L929.393 138.597L971.813 180.859C973.082 179.595 974.373 178.303 974.373 178.303Z" fill="#87AFE8"/>
<path opacity="0.8" d="M974.373 178.303C974.373 178.303 975.662 177.013 976.93 175.747L934.668 133.326L926.318 120.541L926.3 120.515C926.136 120.283 925.818 119.951 925.593 119.777L917.474 113.461C917.247 113.288 916.9 113.308 916.699 113.51L909.578 120.631C909.377 120.832 909.355 121.18 909.529 121.405L915.845 129.525C916.019 129.749 916.353 130.067 916.583 130.232L916.616 130.253L929.393 138.597L971.813 180.859C973.082 179.595 974.373 178.303 974.373 178.303Z" fill="url(#paint5_linear)"/>
<path d="M1041.64 245.066C1045.44 241.289 1046.23 239.842 1043.39 234.146C1040.55 228.45 1034.32 219.218 1024.03 208.85C1013.73 198.481 1002.48 193.946 996.701 189.317C990.922 184.687 986.488 178.13 985.713 176.529C985.399 175.881 984.843 174.921 984.177 174.004C983.691 173.332 982.962 172.685 982.122 173.232C981.792 173.447 981.464 173.678 981.136 173.92C980.359 173.246 978.822 173.857 978.024 174.655C977.188 175.492 974.375 178.303 974.375 178.303C974.375 178.303 971.562 181.116 970.729 181.953C969.93 182.749 969.319 184.285 969.993 185.062C969.751 185.389 969.518 185.72 969.304 186.05C968.759 186.889 969.405 187.618 970.076 188.105C970.994 188.771 971.953 189.328 972.601 189.641C974.203 190.416 980.76 194.851 985.389 200.63C990.018 206.41 994.553 217.661 1004.92 227.954C1015.29 238.248 1024.52 244.475 1030.22 247.316C1035.92 250.157 1037.36 249.37 1041.14 245.566L1041.64 245.066Z" fill="#212A3F"/>
<path d="M1041.64 245.066C1045.44 241.289 1046.23 239.842 1043.39 234.146C1040.55 228.45 1034.32 219.218 1024.03 208.85C1013.73 198.481 1002.48 193.946 996.702 189.317C990.923 184.687 986.489 178.13 985.714 176.529C985.4 175.881 984.843 174.921 984.177 174.004C983.691 173.332 982.962 172.685 982.122 173.232C979.544 174.91 976.938 177.612 975.257 179.249C973.622 180.929 970.982 183.473 969.302 186.053C968.757 186.892 969.404 187.621 970.075 188.108C970.993 188.774 971.952 189.331 972.6 189.644C974.202 190.419 980.758 194.854 985.387 200.633C990.016 206.413 994.551 217.664 1004.92 227.957C1015.29 238.251 1024.52 244.478 1030.22 247.319C1035.91 250.16 1037.36 249.373 1041.14 245.569L1041.64 245.066Z" fill="url(#paint6_linear)"/>
<path opacity="0.4" d="M1041.64 245.066C1045.44 241.289 1046.23 239.842 1043.39 234.146C1040.55 228.45 1034.32 219.218 1024.03 208.85C1013.73 198.481 1002.48 193.946 996.702 189.317C990.923 184.687 986.489 178.13 985.714 176.529C985.4 175.881 984.843 174.921 984.177 174.004C983.691 173.332 982.962 172.685 982.122 173.232C979.544 174.91 976.938 177.612 975.257 179.249C973.622 180.929 970.982 183.473 969.302 186.053C968.757 186.892 969.404 187.621 970.075 188.108C970.993 188.774 971.952 189.331 972.6 189.644C974.202 190.419 980.758 194.854 985.387 200.633C990.016 206.413 994.551 217.664 1004.92 227.957C1015.29 238.251 1024.52 244.478 1030.22 247.319C1035.91 250.16 1037.36 249.373 1041.14 245.569L1041.64 245.066Z" fill="url(#paint7_linear)"/>
<path opacity="0.4" d="M996.39 189.707C994.091 187.866 992.009 185.761 990.107 183.518C988.679 181.831 987.324 180.075 986.13 178.213C985.482 177.203 984.974 176.111 984.323 175.104C983.899 174.449 983.518 173.868 982.757 174.379C982.364 174.642 981.97 174.922 981.577 175.215L981.169 175.617C980.474 176.092 980.946 176.956 981.644 177.652L987.136 183.087C987.566 183.518 987.99 183.955 988.413 184.391C989.993 186.015 991.571 187.666 993.343 189.083C994.029 189.631 994.767 190.197 995.593 190.517C995.822 190.606 996.232 190.781 996.486 190.704C996.944 190.56 996.71 189.965 996.39 189.707Z" fill="url(#paint8_linear)"/>
<path opacity="0.4" d="M974.725 181.634L974.731 181.646C974.03 182.383 974.342 183.533 975.149 184.34L980.602 189.835C983.315 192.547 990.291 197.493 991.926 195.858C993.561 194.223 988.615 187.247 985.905 184.534L980.409 179.081C979.6 178.272 978.45 177.963 977.714 178.661L977.704 178.655C977.136 179.177 976.638 179.692 976.192 180.124C975.761 180.569 975.247 181.067 974.725 181.634Z" fill="url(#paint9_linear)"/>
<path opacity="0.4" d="M979.156 191.065C979.15 191.058 973.72 185.573 973.72 185.573C973.025 184.877 972.159 184.403 971.687 185.1L971.283 185.507C970.633 186.383 969.972 187.431 971.066 188.202C972.109 188.938 973.308 189.424 974.384 190.112C975.54 190.85 976.64 191.673 977.722 192.515C980.671 194.813 983.433 197.396 985.775 200.317C986.072 200.688 986.658 201.171 986.771 200.408C986.814 200.117 986.683 199.774 986.582 199.51C986.254 198.674 985.678 197.927 985.123 197.236C983.689 195.451 982.021 193.861 980.383 192.268C979.972 191.869 979.558 191.472 979.156 191.065Z" fill="url(#paint10_linear)"/>
<path opacity="0.6" d="M975.255 179.245C976.722 177.818 978.892 175.581 981.132 173.918C980.357 173.244 978.821 173.855 978.023 174.652C977.187 175.489 974.375 178.301 974.375 178.301C974.375 178.301 971.561 181.113 970.727 181.95C969.926 182.747 969.317 184.282 969.991 185.059C971.64 182.831 973.829 180.711 975.255 179.245Z" fill="#00AEEF"/>
<path opacity="0.3" d="M1043.39 234.145C1042.58 232.525 1041.71 231.052 1040.68 229.316C1037.67 231.962 1034.87 234.812 1032.81 236.837C1030.79 238.894 1028.03 241.611 1025.41 244.584C1027.15 245.658 1028.6 246.509 1030.22 247.317C1035.91 250.158 1037.36 249.371 1041.14 245.567L1041.64 245.066C1045.44 241.287 1046.23 239.841 1043.39 234.145Z" fill="url(#paint11_linear)"/>
<path d="M974.374 178.303C974.374 178.303 974.905 177.771 975.618 177.056L934.239 135.677C934.038 135.476 933.741 135.122 933.575 134.89L926.302 120.515C926.138 120.283 925.82 119.951 925.595 119.777L917.476 113.461C917.249 113.288 916.902 113.308 916.701 113.51L909.58 120.631C909.379 120.832 909.357 121.18 909.531 121.405L915.847 129.525C916.021 129.749 916.355 130.067 916.585 130.232L930.96 137.505C931.192 137.669 931.548 137.969 931.749 138.168L973.128 179.549C973.843 178.834 974.374 178.303 974.374 178.303Z" fill="url(#paint12_linear)"/>
<path opacity="0.4" d="M926.102 120.271C925.942 120.087 925.747 119.896 925.594 119.777L917.475 113.461C917.248 113.288 916.901 113.308 916.7 113.51L909.579 120.632C909.378 120.832 909.354 121.182 909.53 121.405L915.846 129.525C915.963 129.676 916.157 129.872 916.34 130.033L926.102 120.271Z" fill="white"/>
<g opacity="0.4">
<path d="M1138.64 149.078C1152.45 149.078 1163.64 137.885 1163.64 124.078C1163.64 110.271 1152.45 99.0781 1138.64 99.0781C1124.83 99.0781 1113.64 110.271 1113.64 124.078C1113.64 137.885 1124.83 149.078 1138.64 149.078Z" fill="#334163"/>
<path opacity="0.6" d="M1151.36 120.328C1151.03 119.692 1150.37 119.292 1149.65 119.292H1140.9L1143.34 107.464C1143.53 106.568 1143.06 105.663 1142.21 105.302C1141.37 104.94 1140.39 105.22 1139.87 105.972L1126.05 125.824C1125.64 126.414 1125.59 127.182 1125.92 127.819C1126.26 128.455 1126.91 128.855 1127.63 128.855H1136.38L1133.94 140.683C1133.75 141.579 1134.22 142.484 1135.06 142.846C1135.31 142.952 1135.57 143.002 1135.83 143.002C1136.44 143.002 1137.04 142.707 1137.41 142.175L1151.23 122.324C1151.64 121.736 1151.69 120.965 1151.36 120.328Z" fill="#FF9827"/>
<path opacity="0.4" d="M1151.36 120.329C1151.02 119.693 1150.36 119.293 1149.65 119.293H1141.69C1140.63 119.293 1139.76 120.157 1139.76 121.224C1139.76 122.287 1140.63 123.153 1141.69 123.153H1145.95L1134.24 139.971C1133.63 140.846 1133.85 142.049 1134.72 142.658C1135.06 142.891 1135.44 143.004 1135.83 143.004C1136.43 143.004 1137.03 142.715 1137.41 142.177L1151.23 122.326C1151.64 121.737 1151.69 120.966 1151.36 120.329Z" fill="#FFB94A"/>
<path opacity="0.4" d="M1137.52 126.925C1137.52 125.861 1136.65 124.996 1135.59 124.996H1131.33L1143.03 108.176C1143.64 107.302 1143.43 106.099 1142.55 105.49C1141.68 104.882 1140.48 105.097 1139.87 105.971L1126.05 125.823C1125.64 126.413 1125.59 127.181 1125.92 127.818C1126.26 128.454 1126.91 128.854 1127.63 128.854H1135.59C1136.65 128.855 1137.52 127.991 1137.52 126.925Z" fill="#FFB94A"/>
</g>
<g opacity="0.8">
<path d="M1060.47 71.875C1060.47 85.684 1071.66 96.875 1085.47 96.875C1099.27 96.875 1110.47 85.684 1110.47 71.875C1110.47 58.066 1099.27 46.875 1085.47 46.875C1071.66 46.875 1060.47 58.067 1060.47 71.875Z" fill="#334163"/>
<path opacity="0.5" d="M1102.4 65.5572H1094.45C1093.39 65.5572 1092.52 64.6982 1092.52 63.6332C1092.52 62.5592 1093.39 61.6992 1094.45 61.6992H1102.4C1103.47 61.6992 1104.33 62.5582 1104.33 63.6332C1104.33 64.6982 1103.47 65.5572 1102.4 65.5572Z" fill="#7EAEE8"/>
<path opacity="0.5" d="M1102.4 73.6432H1094.45C1093.39 73.6432 1092.52 72.7842 1092.52 71.7092C1092.52 70.6452 1093.39 69.7852 1094.45 69.7852H1102.4C1103.47 69.7852 1104.33 70.6442 1104.33 71.7092C1104.33 72.7842 1103.47 73.6432 1102.4 73.6432Z" fill="#7EAEE8"/>
<path opacity="0.5" d="M1102.4 57.5963H1094.45C1093.39 57.5963 1092.52 56.7273 1092.52 55.6623C1092.52 54.5973 1093.39 53.7383 1094.45 53.7383H1102.4C1103.47 53.7383 1104.33 54.5973 1104.33 55.6623C1104.33 56.7273 1103.47 57.5963 1102.4 57.5963Z" fill="#7EAEE8"/>
<path opacity="0.3" d="M1078.47 91.6018C1071.85 91.6018 1066.46 86.2208 1066.46 79.5898C1066.46 77.1678 1067.17 74.8538 1068.53 72.8608V61.4938C1068.53 56.1228 1072.9 51.7578 1078.27 51.7578H1078.66C1084.03 51.7578 1088.4 56.1228 1088.4 61.4938V72.8608C1089.76 74.8528 1090.47 77.1678 1090.47 79.5898C1090.47 86.2208 1085.09 91.6018 1078.47 91.6018ZM1078.27 55.6158C1075.02 55.6158 1072.39 58.2528 1072.39 61.4948V73.4868C1072.39 73.9068 1072.25 74.3168 1071.99 74.6588C1070.89 76.0848 1070.32 77.7938 1070.32 79.5908C1070.32 84.0928 1073.97 87.7448 1078.47 87.7448C1082.96 87.7448 1086.61 84.0928 1086.61 79.5908C1086.61 77.7938 1086.03 76.0848 1084.94 74.6588C1084.68 74.3168 1084.54 73.9068 1084.54 73.4868V61.4948C1084.54 58.2528 1081.9 55.6158 1078.66 55.6158H1078.27Z" fill="#212A3F"/>
<path opacity="0.5" d="M1080.4 76.2488V61.6488C1080.4 60.5848 1079.53 59.7148 1078.47 59.7148C1077.4 59.7148 1076.54 60.5838 1076.54 61.6488V76.2488C1075.34 76.9228 1074.53 78.2018 1074.53 79.6668C1074.53 81.8348 1076.3 83.6028 1078.47 83.6028C1080.64 83.6028 1082.4 81.8348 1082.4 79.6668C1082.4 78.2018 1081.59 76.9228 1080.4 76.2488Z" fill="#7EAEE8"/>
<path d="M1080.4 76.2518V67.8928C1080.4 66.8288 1079.53 65.9688 1078.47 65.9688C1077.4 65.9688 1076.54 66.8278 1076.54 67.8928V76.2518C1075.34 76.9258 1074.53 78.2048 1074.53 79.6698C1074.53 81.8378 1076.3 83.6058 1078.47 83.6058C1080.64 83.6058 1082.4 81.8378 1082.4 79.6698C1082.4 78.2048 1081.59 76.9258 1080.4 76.2518Z" fill="url(#paint13_linear)"/>
</g>
<g opacity="0.6">
<path d="M1014.75 67.4023C1028.56 67.4023 1039.75 56.2095 1039.75 42.4023C1039.75 28.5952 1028.56 17.4023 1014.75 17.4023C1000.94 17.4023 989.75 28.5952 989.75 42.4023C989.75 56.2095 1000.94 67.4023 1014.75 67.4023Z" fill="#334163"/>
<path opacity="0.15" d="M1025.85 38.7697C1024.32 36.2707 1022.15 33.0937 1019.87 30.0557C1016.05 24.9297 1015.72 24.9297 1014.75 24.9297C1014.73 24.9297 1014.71 24.9297 1014.69 24.9317C1013.77 24.9337 1013.38 25.0287 1009.63 30.0557C1007.36 33.0947 1005.18 36.2717 1003.65 38.7697C1000.41 44.0717 998.639 52.3637 1004.3 58.2827C1006.97 61.0767 1010.85 62.7497 1014.7 62.7607C1014.72 62.7617 1014.74 62.7617 1014.75 62.7617C1018.62 62.7617 1022.52 61.0887 1025.2 58.2827C1030.86 52.3637 1029.09 44.0717 1025.85 38.7697Z" fill="#00AEEF"/>
<path opacity="0.4" d="M1014.75 29.7305C1012.9 32.0345 1009.4 36.7695 1006.94 40.7835C1004.42 44.9165 1002.94 51.2805 1007.09 55.6175C1009.03 57.6445 1011.96 58.9035 1014.74 58.9035C1014.76 58.9035 1014.78 58.9045 1014.79 58.9045C1017.57 58.8945 1020.48 57.6365 1022.41 55.6195C1026.56 51.2815 1025.08 44.9165 1022.56 40.7835C1020.1 36.7675 1016.6 32.0345 1014.75 29.7305Z" fill="#00AEEF"/>
<path d="M1014.75 54.7752C1011.32 54.7752 1008.52 51.9892 1008.5 48.5592C1008.5 48.0552 1008.69 47.5482 1009.07 47.1632C1009.82 46.4092 1011.04 46.4092 1011.8 47.1632H1011.8C1012.16 47.5242 1012.36 48.0172 1012.36 48.5282C1012.36 49.8432 1013.43 50.9152 1014.75 50.9152C1015.82 50.9152 1016.68 51.7792 1016.68 52.8442C1016.68 53.9102 1015.82 54.7752 1014.75 54.7752Z" fill="#334163"/>
</g>
<g opacity="0.8">
<path d="M1169.96 221.164C1183.77 221.164 1194.96 209.971 1194.96 196.164C1194.96 182.357 1183.77 171.164 1169.96 171.164C1156.16 171.164 1144.96 182.357 1144.96 196.164C1144.96 209.971 1156.16 221.164 1169.96 221.164Z" fill="#334163"/>
<path d="M1163.96 214.421C1163.43 210.44 1164.86 207.053 1168.73 203.098C1171.5 200.28 1174.5 197.434 1175.6 193.51C1177.89 185.276 1171.97 177.46 1166.81 174.984C1166.52 174.842 1166.2 174.792 1165.9 174.804C1165.86 174.803 1165.83 174.793 1165.8 174.793C1164.73 174.793 1163.87 175.657 1163.87 176.724C1163.87 178.862 1161.35 181.668 1158.67 184.642C1156.16 187.444 1153.3 190.62 1151.45 194.35C1149.58 198.098 1149.48 202.831 1151.18 207.011C1152.97 211.429 1156.58 214.785 1161.35 216.472C1161.35 216.475 1161.36 216.477 1161.37 216.48C1161.38 216.484 1161.39 216.489 1161.4 216.494C1162.1 216.737 1163.07 216.542 1163.52 215.925C1163.82 215.521 1164.01 214.987 1163.96 214.484C1163.96 214.462 1163.96 214.442 1163.96 214.421Z" fill="url(#paint14_linear)"/>
<path d="M1183.63 193.799C1183.42 193.429 1183.08 193.15 1182.7 192.98C1182.6 192.936 1182.49 192.9 1182.38 192.876C1182.06 192.803 1181.69 192.81 1181.38 192.915C1181.37 192.918 1181.36 192.918 1181.36 192.92C1180.91 193.072 1180.51 193.374 1180.28 193.793C1180.14 194.046 1180.05 194.327 1180.03 194.62C1179.78 198.124 1177.51 200.102 1174.89 202.392C1171.7 205.175 1168.08 208.33 1168.03 214.592C1168.03 214.653 1168.04 214.709 1168.05 214.768C1168.09 215.198 1168.27 215.602 1168.56 215.914C1168.88 216.249 1169.3 216.453 1169.75 216.503C1169.81 216.509 1169.88 216.523 1169.94 216.523C1169.95 216.523 1169.95 216.523 1169.96 216.523C1176.68 216.523 1181.82 214.055 1184.43 209.573C1187.01 205.134 1186.71 199.24 1183.63 193.799Z" fill="url(#paint15_linear)"/>
<path d="M1154.75 205.558C1153.46 202.389 1153.52 198.841 1154.9 196.07C1156.52 192.809 1159.08 189.969 1161.54 187.223C1163.92 184.577 1166.06 182.188 1167.09 179.715C1170.34 182.32 1173.3 187.371 1171.88 192.473C1171.12 195.206 1168.88 197.462 1166.72 199.644C1166.47 199.897 1166.22 200.147 1165.98 200.398C1163.35 203.086 1160.47 206.69 1160.05 211.636C1157.06 209.881 1155.53 207.464 1154.75 205.558Z" fill="#2F3B5A"/>
<path d="M1181.09 207.629C1179.47 210.418 1176.32 212.127 1172.11 212.554C1172.79 209.359 1174.96 207.449 1177.43 205.299C1179.05 203.885 1180.79 202.362 1182.06 200.379C1182.6 203.04 1182.29 205.58 1181.09 207.629Z" fill="url(#paint16_linear)"/>
<path opacity="0.7" d="M1167.09 179.711C1166.06 182.186 1163.92 184.574 1161.54 187.22C1159.08 189.968 1156.52 192.808 1154.9 196.07C1154.02 197.833 1153.68 199.911 1153.88 202.005C1154.07 194.961 1162.63 191.824 1167.59 186.395C1169.71 190.022 1171.05 194.716 1167.61 198.667C1167.46 198.844 1167.32 199.015 1167.18 199.177C1169.19 197.14 1171.17 195.012 1171.88 192.474C1173.3 187.37 1170.34 182.319 1167.09 179.711Z" fill="url(#paint17_linear)"/>
<path opacity="0.4" d="M1163.42 203.333C1163.49 203.241 1163.56 203.149 1163.63 203.059C1167.14 198.552 1167.04 196.713 1166.26 193.094C1164.57 195.224 1160.02 196.724 1157.22 199.634C1155.1 201.835 1154.32 204.981 1155.91 207.748C1156.81 209.111 1158.13 210.509 1160.05 211.636C1160.32 208.45 1161.61 205.824 1163.2 203.638C1163.27 203.535 1163.35 203.435 1163.42 203.333Z" fill="url(#paint18_linear)"/>
</g>
<path opacity="0.07" d="M977.392 100.162C987.031 100.162 994.846 92.3475 994.846 82.7079C994.846 73.0683 987.031 65.2539 977.392 65.2539C967.752 65.2539 959.938 73.0683 959.938 82.7079C959.938 92.3475 967.752 100.162 977.392 100.162Z" fill="#4B6696"/>
<path opacity="0.02" d="M1133.75 256.517C1143.39 256.517 1151.2 248.703 1151.2 239.063C1151.2 229.424 1143.39 221.609 1133.75 221.609C1124.11 221.609 1116.29 229.424 1116.29 239.063C1116.29 248.703 1124.11 256.517 1133.75 256.517Z" fill="#4B6696"/>
<path opacity="0.02" d="M821.036 256.517C830.676 256.517 838.49 248.703 838.49 239.063C838.49 229.424 830.676 221.609 821.036 221.609C811.396 221.609 803.582 229.424 803.582 239.063C803.582 248.703 811.396 256.517 821.036 256.517Z" fill="#4B6696"/>
<path opacity="0.07" d="M866.833 145.959C876.472 145.959 884.287 138.144 884.287 128.505C884.287 118.865 876.472 111.051 866.833 111.051C857.193 111.051 849.379 118.865 849.379 128.505C849.379 138.144 857.193 145.959 866.833 145.959Z" fill="#4B6696"/>
<path opacity="0.07" d="M1087.95 145.957C1097.59 145.957 1105.4 138.143 1105.4 128.504C1105.4 118.865 1097.59 111.051 1087.95 111.051C1078.31 111.051 1070.5 118.865 1070.5 128.504C1070.5 138.143 1078.31 145.957 1087.95 145.957Z" fill="#4B6696"/>
<path opacity="0.07" d="M916.928 112.324C926.567 112.324 934.381 104.51 934.381 94.871C934.381 85.2319 926.567 77.418 916.928 77.418C907.289 77.418 899.475 85.2319 899.475 94.871C899.475 104.51 907.289 112.324 916.928 112.324Z" fill="#4B6696"/>
<path opacity="0.05" d="M1121.58 196.051C1131.22 196.051 1139.03 188.237 1139.03 178.598C1139.03 168.959 1131.22 161.145 1121.58 161.145C1111.94 161.145 1104.13 168.959 1104.13 178.598C1104.13 188.237 1111.94 196.051 1121.58 196.051Z" fill="#4B6696"/>
<path opacity="0.05" d="M832.679 197.314C842.318 197.314 850.133 189.5 850.133 179.86C850.133 170.221 842.318 162.406 832.679 162.406C823.039 162.406 815.225 170.221 815.225 179.86C815.225 189.5 823.039 197.314 832.679 197.314Z" fill="#4B6696"/>
<path opacity="0.07" d="M1036.59 111.803C1046.23 111.803 1054.05 103.988 1054.05 94.3485C1054.05 84.709 1046.23 76.8945 1036.59 76.8945C1026.96 76.8945 1019.14 84.709 1019.14 94.3485C1019.14 103.988 1026.96 111.803 1036.59 111.803Z" fill="#4B6696"/>
<path opacity="0.05" d="M1003.93 -1.36023C1003.93 13.3688 991.991 25.3087 977.264 25.3087C962.534 25.3087 950.592 13.3698 950.592 -1.36023C950.592 -16.0902 962.533 -28.0312 977.264 -28.0312C991.991 -28.0312 1003.93 -16.0912 1003.93 -1.36023Z" fill="#4B6696"/>
<path opacity="0.02" d="M1216.17 264.217C1230.9 264.217 1242.84 252.277 1242.84 237.548C1242.84 222.819 1230.9 210.879 1216.17 210.879C1201.44 210.879 1189.5 222.819 1189.5 237.548C1189.5 252.277 1201.44 264.217 1216.17 264.217Z" fill="#4B6696"/>
<path opacity="0.02" d="M738.355 264.217C753.083 264.217 765.024 252.277 765.024 237.548C765.024 222.819 753.083 210.879 738.355 210.879C723.626 210.879 711.686 222.819 711.686 237.548C711.686 252.277 723.626 264.217 738.355 264.217Z" fill="#4B6696"/>
<path opacity="0.05" d="M827.189 49.7573C837.605 60.1713 837.605 77.0583 827.189 87.4723C816.771 97.8883 799.886 97.8883 789.472 87.4743C779.056 77.0583 779.056 60.1713 789.472 49.7573C799.887 39.3413 816.771 39.3413 827.189 49.7573Z" fill="#4B6696"/>
<path opacity="0.05" d="M1146.2 95.2813C1160.93 95.2813 1172.87 83.3416 1172.87 68.6133C1172.87 53.885 1160.93 41.9453 1146.2 41.9453C1131.47 41.9453 1119.53 53.885 1119.53 68.6133C1119.53 83.3416 1131.47 95.2813 1146.2 95.2813Z" fill="#4B6696"/>
<path opacity="0.05" d="M909.469 6.91303C915.164 20.497 908.772 36.125 895.188 41.822C881.604 47.516 865.977 41.124 860.282 27.54C854.585 13.956 860.979 -1.67295 874.561 -7.36795C888.146 -13.0629 903.775 -6.66897 909.469 6.91303Z" fill="#4B6696"/>
<path opacity="0.03" d="M1197.59 171.826C1212.31 171.826 1224.25 159.886 1224.25 145.157C1224.25 130.428 1212.31 118.488 1197.59 118.488C1182.86 118.488 1170.92 130.428 1170.92 145.157C1170.92 159.886 1182.86 171.826 1197.59 171.826Z" fill="#4B6696"/>
<path opacity="0.03" d="M766.24 122.402C779.875 127.98 786.404 143.551 780.828 157.183C775.25 170.818 759.676 177.347 746.045 171.769C732.412 166.193 725.883 150.621 731.459 136.988C737.037 123.355 752.611 116.826 766.24 122.402Z" fill="#4B6696"/>
<path opacity="0.05" d="M1092.41 26.5241C1086.83 40.1571 1071.26 46.6872 1057.63 41.1092C1043.99 35.5332 1037.46 19.9621 1043.04 6.32914C1048.62 -7.30386 1064.19 -13.8349 1077.82 -8.25686C1091.46 -2.67886 1097.98 12.8911 1092.41 26.5241Z" fill="#4B6696"/>
<path opacity="0.1" d="M938.999 68.9938C950.961 68.9938 960.658 59.2967 960.658 47.3348C960.658 35.3728 950.961 25.6758 938.999 25.6758C927.037 25.6758 917.34 35.3728 917.34 47.3348C917.34 59.2967 927.037 68.9938 938.999 68.9938Z" fill="#4B6696"/>
<path opacity="0.07" d="M815.709 151.765C827.67 151.765 837.367 142.069 837.367 130.107C837.367 118.146 827.67 108.449 815.709 108.449C803.747 108.449 794.051 118.146 794.051 130.107C794.051 142.069 803.747 151.765 815.709 151.765Z" fill="#4B6696"/>
<path opacity="0.1" d="M868.419 98.5914C880.381 98.5914 890.078 88.8944 890.078 76.9324C890.078 64.9705 880.381 55.2734 868.419 55.2734C856.457 55.2734 846.76 64.9705 846.76 76.9324C846.76 88.8944 856.457 98.5914 868.419 98.5914Z" fill="#4B6696"/>
<path opacity="0.05" d="M786.725 222.599C798.687 222.599 808.384 212.902 808.384 200.94C808.384 188.978 798.687 179.281 786.725 179.281C774.763 179.281 765.066 188.978 765.066 200.94C765.066 212.902 774.763 222.599 786.725 222.599Z" fill="#4B6696"/>
<path opacity="0.05" d="M951.891 125.775C959.823 125.775 966.253 119.345 966.253 111.413C966.253 103.481 959.823 97.0508 951.891 97.0508C943.959 97.0508 937.529 103.481 937.529 111.413C937.529 119.345 943.959 125.775 951.891 125.775Z" fill="#4B6696"/>
<path opacity="0.05" d="M1103.4 226.533C1111.33 226.533 1117.76 220.103 1117.76 212.171C1117.76 204.239 1111.33 197.809 1103.4 197.809C1095.47 197.809 1089.04 204.239 1089.04 212.171C1089.04 220.103 1095.47 226.533 1103.4 226.533Z" fill="#4B6696"/>
<path opacity="0.05" d="M870.133 180.665C878.065 180.665 884.495 174.235 884.495 166.303C884.495 158.372 878.065 151.941 870.133 151.941C862.202 151.941 855.771 158.372 855.771 166.303C855.771 174.235 862.202 180.665 870.133 180.665Z" fill="#4B6696"/>
<path opacity="0.05" d="M1060.47 138.368C1056.08 144.972 1047.16 146.765 1040.56 142.374C1033.95 137.981 1032.16 129.067 1036.55 122.463C1040.94 115.856 1049.86 114.063 1056.46 118.455C1063.07 122.849 1064.86 131.764 1060.47 138.368Z" fill="#4B6696"/>
<path opacity="0.05" d="M905.087 145.404C913.019 145.404 919.449 138.974 919.449 131.042C919.449 123.11 913.019 116.68 905.087 116.68C897.155 116.68 890.725 123.11 890.725 131.042C890.725 138.974 897.155 145.404 905.087 145.404Z" fill="#4B6696"/>
<path opacity="0.05" d="M1083.77 179.732C1091.7 179.732 1098.13 173.302 1098.13 165.37C1098.13 157.438 1091.7 151.008 1083.77 151.008C1075.84 151.008 1069.41 157.438 1069.41 165.37C1069.41 173.302 1075.84 179.732 1083.77 179.732Z" fill="#4B6696"/>
<path opacity="0.05" d="M850.915 227.634C858.847 227.634 865.277 221.204 865.277 213.272C865.277 205.34 858.847 198.91 850.915 198.91C842.983 198.91 836.553 205.34 836.553 213.272C836.553 221.204 842.983 227.634 850.915 227.634Z" fill="#4B6696"/>
<path opacity="0.05" d="M1001.54 125.56C1009.47 125.56 1015.9 119.13 1015.9 111.198C1015.9 103.266 1009.47 96.8359 1001.54 96.8359C993.606 96.8359 987.176 103.266 987.176 111.198C987.176 119.13 993.606 125.56 1001.54 125.56Z" fill="#4B6696"/>
<path opacity="0.1" d="M899.695 0C1071.08 0.0241951 1210 138.963 1210 310.348V0H899.695Z" fill="url(#paint19_radial)"/>
</g>
<defs>
<radialGradient id="paint0_radial" cx="0" cy="0" r="1" gradientUnits="userSpaceOnUse" gradientTransform="translate(977.964 266.031) scale(166.561 165.353)">
<stop stop-color="#212A3F"/>
<stop offset="1" stop-color="#334163" stop-opacity="0.7"/>
</radialGradient>
<linearGradient id="paint1_linear" x1="908.754" y1="178.863" x2="1045.77" y2="178.863" gradientUnits="userSpaceOnUse">
<stop stop-color="#405684"/>
<stop offset="1" stop-color="#4B6696" stop-opacity="0"/>
</linearGradient>
<radialGradient id="paint2_radial" cx="0" cy="0" r="1" gradientUnits="userSpaceOnUse" gradientTransform="translate(1030.57 127.452) scale(168.388)">
<stop offset="0.133" stop-color="#212A3F"/>
<stop offset="0.5413" stop-color="#212A3F" stop-opacity="0.5"/>
<stop offset="0.6473" stop-color="#232C43" stop-opacity="0.4307"/>
<stop offset="0.7431" stop-color="#28344E" stop-opacity="0.368"/>
<stop offset="0.8351" stop-color="#314160" stop-opacity="0.3078"/>
<stop offset="0.9241" stop-color="#3D527A" stop-opacity="0.2496"/>
<stop offset="1" stop-color="#4B6696" stop-opacity="0.2"/>
</radialGradient>
<radialGradient id="paint3_radial" cx="0" cy="0" r="1" gradientUnits="userSpaceOnUse" gradientTransform="translate(1030.57 127.452) scale(168.388)">
<stop offset="0.2156" stop-color="#405684"/>
<stop offset="0.2413" stop-color="#425987"/>
<stop offset="0.3771" stop-color="#496392"/>
<stop offset="0.5229" stop-color="#4B6696"/>
<stop offset="0.5781" stop-color="#516B9A" stop-opacity="0.9075"/>
<stop offset="0.6527" stop-color="#627AA4" stop-opacity="0.7825"/>
<stop offset="0.7383" stop-color="#7F92B4" stop-opacity="0.6388"/>
<stop offset="0.8323" stop-color="#A6B4CB" stop-opacity="0.4812"/>
<stop offset="0.9318" stop-color="#D8DEE8" stop-opacity="0.3143"/>
<stop offset="1" stop-color="white" stop-opacity="0.2"/>
</radialGradient>
<linearGradient id="paint4_linear" x1="1009.13" y1="162.36" x2="1036.86" y2="111.397" gradientUnits="userSpaceOnUse">
<stop stop-color="#4B6696" stop-opacity="0"/>
<stop offset="0.1482" stop-color="#7388AD" stop-opacity="0.1482"/>
<stop offset="0.3545" stop-color="#A5B2CA" stop-opacity="0.3545"/>
<stop offset="0.5497" stop-color="#CCD4E1" stop-opacity="0.5497"/>
<stop offset="0.728" stop-color="#E8EBF2" stop-opacity="0.728"/>
<stop offset="0.8839" stop-color="#F9FAFB" stop-opacity="0.8839"/>
<stop offset="1" stop-color="white"/>
</linearGradient>
<linearGradient id="paint5_linear" x1="938.868" y1="152.577" x2="948.646" y2="142.799" gradientUnits="userSpaceOnUse">
<stop offset="0.0505" stop-color="#4B6696" stop-opacity="0"/>
<stop offset="0.1672" stop-color="#445C87" stop-opacity="0.2597"/>
<stop offset="0.3892" stop-color="#314261" stop-opacity="0.7536"/>
<stop offset="0.5" stop-color="#27334C"/>
<stop offset="0.5844" stop-color="#535D71" stop-opacity="0.816"/>
<stop offset="0.7682" stop-color="#AFB3BD" stop-opacity="0.4154"/>
<stop offset="0.8971" stop-color="#E9EAEC" stop-opacity="0.1344"/>
<stop offset="0.9587" stop-color="white" stop-opacity="0"/>
</linearGradient>
<linearGradient id="paint6_linear" x1="998.783" y1="221.821" x2="1017.89" y2="202.713" gradientUnits="userSpaceOnUse">
<stop stop-color="#405684"/>
<stop offset="0.5229" stop-color="#334163"/>
<stop offset="1" stop-color="#212A3F"/>
</linearGradient>
<linearGradient id="paint7_linear" x1="998.783" y1="221.821" x2="1017.89" y2="202.713" gradientUnits="userSpaceOnUse">
<stop offset="0.0046" stop-color="#18275B" stop-opacity="0.2"/>
<stop offset="0.5183" stop-color="#0075EF" stop-opacity="0.5"/>
<stop offset="0.6726" stop-color="#0088EF" stop-opacity="0.6601"/>
<stop offset="1" stop-color="#26A5FF"/>
</linearGradient>
<linearGradient id="paint8_linear" x1="982.473" y1="175.893" x2="996.994" y2="189.866" gradientUnits="userSpaceOnUse">
<stop stop-color="#122553"/>
<stop offset="0.5186" stop-color="#0D3269"/>
<stop offset="1" stop-color="#0D408C"/>
</linearGradient>
<linearGradient id="paint9_linear" x1="976.193" y1="180.125" x2="991.927" y2="195.859" gradientUnits="userSpaceOnUse">
<stop stop-color="#122553"/>
<stop offset="0.5186" stop-color="#0D3269"/>
<stop offset="1" stop-color="#0D408C"/>
</linearGradient>
<linearGradient id="paint10_linear" x1="972.167" y1="186.418" x2="986.271" y2="200.735" gradientUnits="userSpaceOnUse">
<stop stop-color="#122553"/>
<stop offset="0.5186" stop-color="#0D3269"/>
<stop offset="1" stop-color="#0D408C"/>
</linearGradient>
<linearGradient id="paint11_linear" x1="1029.5" y1="248.677" x2="1044.77" y2="233.407" gradientUnits="userSpaceOnUse">
<stop stop-color="#00AEEF" stop-opacity="0.5"/>
<stop offset="0.5229" stop-color="#00AEEF" stop-opacity="0.7"/>
<stop offset="1" stop-color="#00AEEF"/>
</linearGradient>
<linearGradient id="paint12_linear" x1="911.202" y1="115.132" x2="973.805" y2="177.735" gradientUnits="userSpaceOnUse">
<stop stop-color="#4B6696"/>
<stop offset="0.1605" stop-color="#4B6696"/>
<stop offset="0.3119" stop-color="#334163"/>
<stop offset="1" stop-color="#212A3F" stop-opacity="0"/>
</linearGradient>
<linearGradient id="paint13_linear" x1="1078.47" y1="83.6056" x2="1078.47" y2="65.9689" gradientUnits="userSpaceOnUse">
<stop stop-color="#ED3D5A"/>
<stop offset="1" stop-color="#ED3D5A" stop-opacity="0.5"/>
</linearGradient>
<linearGradient id="paint14_linear" x1="1166.5" y1="188.25" x2="1174.5" y2="283" gradientUnits="userSpaceOnUse">
<stop stop-color="#2F3B5A"/>
<stop offset="1" stop-color="#2F3B5A" stop-opacity="0"/>
</linearGradient>
<linearGradient id="paint15_linear" x1="1186.18" y1="200" x2="1161.75" y2="248.5" gradientUnits="userSpaceOnUse">
<stop stop-color="#2F3B5A"/>
<stop offset="1" stop-color="#2F3B5A" stop-opacity="0"/>
</linearGradient>
<linearGradient id="paint16_linear" x1="1177.21" y1="198.616" x2="1177.21" y2="216.987" gradientUnits="userSpaceOnUse">
<stop stop-color="#ED3D5A"/>
<stop offset="1" stop-color="#ED3D5A" stop-opacity="0.5"/>
</linearGradient>
<linearGradient id="paint17_linear" x1="1163.04" y1="175.992" x2="1163.04" y2="206.191" gradientUnits="userSpaceOnUse">
<stop stop-color="#ED3D5A"/>
<stop offset="1" stop-color="#ED3D5A" stop-opacity="0.5"/>
</linearGradient>
<linearGradient id="paint18_linear" x1="1166.97" y1="186.107" x2="1155.57" y2="213.117" gradientUnits="userSpaceOnUse">
<stop stop-color="#00AEEF"/>
<stop offset="0.2305" stop-color="#03ABEB"/>
<stop offset="0.4369" stop-color="#0CA2E1"/>
<stop offset="0.634" stop-color="#1C94CE"/>
<stop offset="0.8242" stop-color="#317FB5"/>
<stop offset="1" stop-color="#4B6696"/>
</linearGradient>
<radialGradient id="paint19_radial" cx="0" cy="0" r="1" gradientUnits="userSpaceOnUse" gradientTransform="translate(898.877 307.689) scale(456.22)">
<stop offset="0.684597" stop-color="#334163"/>
<stop offset="0.829264" stop-color="#647FC2"/>
<stop offset="0.9495" stop-color="#A8BCE3"/>
</radialGradient>
</defs>
</svg>
