<svg width="1210" height="680" viewBox="0 0 1210 680" fill="none" xmlns="http://www.w3.org/2000/svg">
<mask id="mask0" mask-type="alpha" maskUnits="userSpaceOnUse" x="0" y="0" width="1210" height="680">
<rect width="1210" height="680" fill="white"/>
</mask>
<g mask="url(#mask0)">
<path opacity="0.5" d="M1000.24 66.7422L998.993 68.368L1006.29 73.9591H965.125V76.0067H1006.29L998.993 81.5988L1000.24 83.2247L1010.99 74.985L1000.24 66.7422Z" fill="white"/>
<path opacity="0.9" d="M985.289 48.6875C865.306 48.7213 768.045 145.998 768.045 265.992H985.289V48.6875Z" fill="url(#paint0_radial)"/>
<path opacity="0.7" d="M985.287 48.6875C1105.27 48.7213 1202.53 145.998 1202.53 265.992H985.287V48.6875Z" fill="url(#paint1_radial)"/>
<path d="M985.449 103.827C980.206 103.827 923.932 102.744 920.697 113.535C920.136 115.407 919.669 119.347 918.879 124.437L911.396 181.622C910.089 192.802 909.311 200.95 909.311 200.95L909.321 238.379L985.485 238.383L985.449 103.827Z" fill="#4B6696"/>
<path opacity="0.3" d="M985.449 103.827C980.206 103.827 923.932 102.744 920.697 113.535C920.136 115.407 919.669 119.347 918.879 124.437L911.396 181.622C910.089 192.802 909.311 200.95 909.311 200.95L909.321 238.379L985.485 238.383L985.449 103.827Z" fill="url(#paint2_linear)"/>
<path d="M985.478 211.947L909.314 211.941L909.322 238.372L985.486 238.376L985.478 211.947Z" fill="#FF9827"/>
<path d="M940.263 251.09C940.246 253.861 940.166 256.637 939.937 259.4C939.797 261.093 939.686 262.892 939.191 264.53C938.855 265.636 937.695 265.782 936.719 265.782C936.719 265.782 927.679 265.782 927.649 265.782C926.56 265.782 925.836 265.543 925.583 264.435C925.34 263.365 925.218 262.265 925.101 261.174C924.801 258.304 924.675 255.411 924.635 252.525C924.629 252.047 924.627 251.568 924.627 251.09H940.263Z" fill="#212A3F"/>
<path d="M933.382 251.082C933.382 251.327 933.376 251.571 933.378 251.815C933.389 253.548 933.437 255.283 933.528 257.012C933.639 259.15 933.794 261.297 934.142 263.41C934.164 263.551 934.188 263.691 934.214 263.832C934.245 264.009 934.308 264.319 934.204 264.483C933.969 264.855 933.425 264.775 933.064 264.775C932.692 264.775 932.538 264.598 932.464 264.249C932.42 264.043 932.382 263.835 932.347 263.627C932.019 261.691 931.872 259.698 931.752 257.759C931.646 256.03 931.583 254.295 931.557 252.561C931.551 252.069 931.551 251.577 931.551 251.083H933.382V251.082Z" fill="url(#paint3_linear)"/>
<path d="M936.29 251.082C936.29 251.327 936.284 251.571 936.286 251.815C936.296 253.548 936.344 255.283 936.435 257.012C936.547 259.15 936.701 261.297 937.049 263.41C937.071 263.551 937.096 263.691 937.121 263.832C937.153 264.009 937.213 264.319 937.111 264.483C936.876 264.855 936.333 264.775 935.969 264.775C935.6 264.775 935.445 264.598 935.371 264.249C935.327 264.043 935.289 263.835 935.254 263.627C934.926 261.691 934.78 259.698 934.66 257.759C934.553 256.03 934.488 254.295 934.464 252.561C934.456 252.069 934.456 251.577 934.458 251.083H936.29V251.082Z" fill="url(#paint4_linear)"/>
<path d="M930.478 251.082C930.478 251.327 930.47 251.571 930.472 251.815C930.484 253.548 930.532 255.283 930.622 257.012C930.733 259.15 930.888 261.297 931.236 263.41C931.257 263.551 931.282 263.691 931.307 263.832C931.339 264.009 931.402 264.319 931.299 264.483C931.064 264.855 930.521 264.775 930.158 264.775C929.788 264.775 929.632 264.598 929.56 264.249C929.514 264.043 929.476 263.835 929.442 263.627C929.114 261.691 928.966 259.698 928.846 257.759C928.74 256.03 928.676 254.295 928.653 252.561C928.645 252.069 928.645 251.577 928.645 251.083H930.478V251.082Z" fill="url(#paint5_linear)"/>
<path d="M927.566 251.082C927.566 251.327 927.559 251.571 927.561 251.815C927.573 253.548 927.621 255.283 927.713 257.012C927.824 259.15 927.979 261.297 928.325 263.41C928.348 263.551 928.373 263.691 928.396 263.832C928.43 264.009 928.491 264.319 928.388 264.483C928.153 264.855 927.609 264.775 927.247 264.775C926.877 264.775 926.72 264.598 926.649 264.249C926.605 264.043 926.565 263.835 926.531 263.627C926.205 261.691 926.057 259.698 925.935 257.759C925.829 256.03 925.765 254.295 925.742 252.561C925.733 252.069 925.733 251.577 925.736 251.083H927.566V251.082Z" fill="url(#paint6_linear)"/>
<path d="M908.839 169.258L905.782 169.221C903.8 169.195 902.209 167.562 902.233 165.58L902.566 139.218C902.592 137.26 904.208 135.668 906.166 135.668L909.214 135.708C910.172 135.72 911.069 136.106 911.742 136.796C912.414 137.486 912.778 138.393 912.766 139.349L912.431 165.71C912.405 167.666 910.796 169.258 908.839 169.258ZM906.196 136.692C904.765 136.692 903.61 137.83 903.59 139.23L903.256 165.591C903.238 167.009 904.378 168.177 905.795 168.196L908.804 168.234L908.839 168.746V168.234C910.237 168.234 911.389 167.095 911.406 165.696L911.741 139.335C911.749 138.651 911.489 138.003 911.007 137.51C910.525 137.016 909.884 136.739 909.201 136.731L906.196 136.692Z" fill="#1A2233"/>
<path d="M908.739 161.484C908.718 162.501 907.87 163.32 906.855 163.3L903.591 163.239C902.574 163.22 901.757 162.373 901.776 161.356L902.091 143.87C902.11 142.853 902.957 142.037 903.975 142.055L907.239 142.115C908.254 142.134 909.074 142.981 909.056 143.999L908.739 161.484Z" fill="#212A3F"/>
<path opacity="0.4" d="M908.739 161.484C908.718 162.501 907.87 163.32 906.855 163.3L903.591 163.239C902.574 163.22 901.757 162.373 901.776 161.356L902.091 143.87C902.11 142.853 902.957 142.037 903.975 142.055L907.239 142.115C908.254 142.134 909.074 142.981 909.056 143.999L908.739 161.484Z" fill="url(#paint7_linear)"/>
<path d="M985.489 238.383L908.468 238.379C908.128 238.379 907.85 238.656 907.85 238.994L907.853 250.448C907.853 250.788 908.13 251.066 908.47 251.066L985.492 251.07L985.489 238.383Z" fill="white"/>
<path d="M985.489 238.383L908.468 238.379C908.128 238.379 907.85 238.656 907.85 238.994L907.853 250.448C907.853 250.788 908.13 251.066 908.47 251.066L985.492 251.07L985.489 238.383Z" fill="url(#paint8_linear)"/>
<path d="M919.089 122.721C919.551 119.362 922.702 116.612 926.094 116.613L978.762 116.616C982.155 116.616 984.931 119.392 984.931 122.784L984.947 181.676C984.948 185.069 982.176 187.843 978.783 187.843L916.864 187.838C913.472 187.838 911.01 185.083 911.395 181.712L919.089 122.721Z" fill="#212A3F"/>
<path d="M926.091 118.477C923.624 118.477 921.255 120.542 920.921 122.975L913.231 181.935C913.105 183.035 913.411 184.059 914.089 184.821C914.771 185.583 915.755 186.003 916.86 186.003L978.779 186.006C981.159 186.006 983.095 184.071 983.095 181.689L983.079 122.797C983.079 120.417 981.141 118.481 978.761 118.481L926.091 118.477Z" fill="url(#paint9_linear)"/>
<path d="M963.748 183.332L962.004 170.793C961.98 170.625 961.939 170.35 961.912 170.183L961.214 165.852C961.187 165.684 961.14 165.412 961.11 165.245L958.697 151.975C958.667 151.809 958.505 151.672 958.336 151.672H958.171C957.885 151.672 957.648 151.977 957.692 152.255L959.716 165.522C959.742 165.69 959.785 165.962 959.814 166.13L960.012 167.371L928.345 189.579C927.914 189.882 927.81 190.476 928.113 190.909C928.415 191.34 929.089 191.687 929.713 191.223L960.232 168.742L960.511 170.462C960.536 170.63 960.581 170.904 960.612 171.07L962.741 183.612C962.77 183.779 962.932 183.916 963.101 183.916C963.52 183.915 963.748 183.786 963.748 183.332Z" fill="#212A3F"/>
<path d="M905.685 151.821C905.681 151.992 905.541 152.13 905.373 152.125L901.81 152.06C901.64 152.057 901.504 151.916 901.508 151.746L901.528 150.604C901.531 150.435 901.675 150.299 901.842 150.301L905.404 150.365C905.573 150.369 905.71 150.51 905.706 150.681L905.685 151.821Z" fill="#212A3F"/>
<path d="M911.537 146.58H916.02C916.156 145.511 916.292 144.453 916.426 143.402H911.536C911.365 143.402 911.225 143.542 911.225 143.711V146.271C911.226 146.442 911.366 146.58 911.537 146.58Z" fill="#212A3F"/>
<path d="M985.456 105.675C981.132 105.675 942.092 104.939 926.734 110.74C926.525 110.819 926.373 110.861 926.254 111.058C926.122 111.271 926.102 111.47 926.102 111.718V114.82C926.102 114.989 926.242 115.128 926.41 115.128L985.46 115.132L985.456 105.675Z" fill="#212A3F"/>
<path d="M1056.66 201.468C1056.66 174.802 1054.27 145.966 1049.05 111.282C1048.46 107.346 1045.3 105.934 1041.85 105.236C1038.53 104.568 1035.1 104.368 1031.73 104.154C1021.92 103.532 1012.07 103.35 1002.24 103.247C996.657 103.189 991.076 103.166 985.494 103.168V251.09H1052.32C1054.71 251.09 1056.66 249.136 1056.66 246.749V228.173C1056.66 227.838 1056.46 227.384 1056.22 227.146C1056.46 226.91 1056.66 226.454 1056.66 226.119V201.468H1056.66Z" fill="#1A2233"/>
<path d="M985.496 251.088H1052.32C1054.71 251.088 1056.66 249.134 1056.66 246.747V228.172C1056.66 227.85 1056.48 227.424 1056.25 227.18H985.496V251.088Z" fill="#405684"/>
<path opacity="0.5" d="M985.496 251.088H1052.32C1054.71 251.088 1056.66 249.134 1056.66 246.747V228.172C1056.66 227.85 1056.48 227.424 1056.25 227.18H985.496V251.088Z" fill="#00AEEF"/>
<path d="M1054.83 228.449L1050.48 232.501C1050.23 232.734 1049.75 232.923 1049.41 232.923H1030.72C1028.67 232.923 1027.94 231.531 1028.84 229.692C1029.03 229.3 1029.26 228.884 1029.52 228.449H985.496V251.095H1052.32C1054.71 251.095 1056.66 249.142 1056.66 246.754V228.449H1054.83Z" fill="url(#paint10_linear)"/>
<path d="M1052.64 206.04C1044.43 210.924 1031.95 223.327 1028.84 229.686C1027.94 231.525 1028.67 232.917 1030.72 232.917H1049.41C1049.75 232.917 1050.23 232.727 1050.48 232.496L1056.21 227.16C1056.46 226.929 1056.67 226.459 1056.67 226.118V207.202C1056.67 205.156 1054.86 204.722 1052.64 206.04Z" fill="url(#paint11_radial)"/>
<path d="M1054.65 206.102C1054.09 206.102 1053.4 206.332 1052.67 206.765C1044.68 211.512 1032.61 223.5 1029.6 229.673C1029.23 230.422 1029.18 231.07 1029.44 231.499C1029.69 231.895 1030.23 232.112 1030.98 232.112H1049.25C1049.46 232.112 1049.81 231.975 1049.96 231.833L1055.56 226.618C1055.71 226.487 1055.85 226.158 1055.85 225.966V207.472C1055.85 206.563 1055.44 206.102 1054.65 206.102Z" fill="url(#paint12_radial)"/>
<path d="M1048.06 113.076C1047.81 111.404 1047.01 110.004 1045.14 110.004H985.496V201.681H1053.5C1053.91 201.681 1054.33 201.601 1054.67 201.37C1055.31 200.936 1055.42 200.118 1055.41 199.403C1055.29 173.481 1052.95 145.937 1048.06 113.076Z" fill="url(#paint13_linear)"/>
<path d="M1027.62 251.086C1027.64 253.857 1027.72 256.633 1027.95 259.396C1028.09 261.089 1028.2 262.889 1028.69 264.526C1029.03 265.632 1030.19 265.778 1031.17 265.778C1031.17 265.778 1040.2 265.778 1040.23 265.778C1041.33 265.778 1042.05 265.539 1042.3 264.431C1042.54 263.362 1042.67 262.261 1042.78 261.171C1043.08 258.3 1043.21 255.407 1043.25 252.521C1043.25 252.043 1043.26 251.564 1043.26 251.086H1027.62Z" fill="#212A3F"/>
<g opacity="0.4">
<path opacity="0.4" d="M1034.5 251.086C1034.5 251.331 1034.51 251.575 1034.51 251.819C1034.5 253.552 1034.45 255.287 1034.36 257.016C1034.25 259.154 1034.09 261.301 1033.75 263.414C1033.72 263.555 1033.7 263.695 1033.67 263.836C1033.64 264.013 1033.58 264.323 1033.68 264.487C1033.92 264.859 1034.46 264.778 1034.82 264.778C1035.19 264.778 1035.35 264.602 1035.42 264.253C1035.47 264.046 1035.5 263.839 1035.54 263.631C1035.86 261.695 1036.01 259.702 1036.13 257.763C1036.24 256.034 1036.3 254.299 1036.33 252.565C1036.33 252.073 1036.33 251.58 1036.33 251.087H1034.5V251.086Z" fill="url(#paint14_linear)"/>
<path opacity="0.4" d="M1031.59 251.086C1031.59 251.331 1031.6 251.575 1031.6 251.819C1031.59 253.552 1031.54 255.287 1031.45 257.016C1031.34 259.154 1031.18 261.301 1030.84 263.414C1030.82 263.555 1030.79 263.695 1030.76 263.836C1030.73 264.013 1030.67 264.323 1030.78 264.487C1031.01 264.859 1031.55 264.778 1031.92 264.778C1032.28 264.778 1032.44 264.602 1032.51 264.253C1032.56 264.046 1032.59 263.839 1032.63 263.631C1032.96 261.695 1033.1 259.702 1033.22 257.763C1033.33 256.034 1033.39 254.299 1033.42 252.565C1033.43 252.073 1033.43 251.58 1033.43 251.087H1031.59V251.086Z" fill="url(#paint15_linear)"/>
<path opacity="0.4" d="M1037.41 251.086C1037.41 251.331 1037.42 251.575 1037.42 251.819C1037.41 253.552 1037.36 255.287 1037.27 257.016C1037.16 259.154 1037 261.301 1036.65 263.414C1036.63 263.555 1036.6 263.695 1036.58 263.836C1036.55 264.013 1036.49 264.323 1036.59 264.487C1036.82 264.859 1037.37 264.778 1037.73 264.778C1038.1 264.778 1038.26 264.602 1038.33 264.253C1038.37 264.046 1038.41 263.839 1038.45 263.631C1038.77 261.695 1038.92 259.702 1039.04 257.763C1039.15 256.034 1039.21 254.299 1039.24 252.565C1039.24 252.073 1039.24 251.58 1039.24 251.087H1037.41V251.086Z" fill="url(#paint16_linear)"/>
<path opacity="0.4" d="M1040.32 251.086C1040.32 251.331 1040.32 251.575 1040.32 251.819C1040.31 253.552 1040.26 255.287 1040.17 257.016C1040.06 259.154 1039.9 261.301 1039.56 263.414C1039.53 263.555 1039.51 263.695 1039.48 263.836C1039.45 264.013 1039.39 264.323 1039.5 264.487C1039.73 264.859 1040.27 264.778 1040.64 264.778C1041.01 264.778 1041.16 264.602 1041.24 264.253C1041.28 264.046 1041.32 263.839 1041.35 263.631C1041.68 261.695 1041.83 259.702 1041.95 257.763C1042.05 256.034 1042.12 254.299 1042.14 252.565C1042.15 252.073 1042.15 251.58 1042.15 251.087H1040.32V251.086Z" fill="url(#paint17_linear)"/>
</g>
<path opacity="0.5" d="M1044.27 248.112C1046.35 248.112 1048.04 246.423 1048.04 244.339C1048.04 242.256 1046.35 240.566 1044.27 240.566C1042.18 240.566 1040.49 242.256 1040.49 244.339C1040.49 246.423 1042.18 248.112 1044.27 248.112Z" fill="url(#paint18_linear)"/>
<path opacity="0.4" d="M1044.27 247.12C1045.81 247.12 1047.05 245.874 1047.05 244.336C1047.05 242.798 1045.81 241.551 1044.27 241.551C1042.73 241.551 1041.48 242.798 1041.48 244.336C1041.48 245.874 1042.73 247.12 1044.27 247.12Z" fill="url(#paint19_linear)"/>
<path d="M1066.92 147.066L1064.9 129.918C1064.7 128.225 1063.14 126.905 1061.44 126.984L1055.93 127.245C1054.23 127.325 1053 128.777 1053.2 130.47L1054.24 139.315C1053.97 139.326 1053.39 139.339 1052.8 139.348C1053.08 141.753 1053.34 144.135 1053.59 146.486C1054.05 146.463 1054.57 146.438 1055.07 146.415L1055.22 147.62C1055.42 149.312 1056.97 150.633 1058.68 150.552L1064.19 150.292C1065.89 150.211 1067.12 148.759 1066.92 147.066Z" fill="#1A2233"/>
<path opacity="0.4" d="M1066.92 147.066L1064.9 129.918C1064.7 128.225 1063.14 126.905 1061.44 126.984C1061.44 126.984 1055.94 127.245 1055.93 127.245C1055.46 127.266 1054.91 127.487 1054.65 127.898C1054.47 128.198 1054.48 128.5 1054.52 128.837C1054.63 129.753 1054.89 130.652 1055.15 131.535C1055.46 132.55 1055.79 133.556 1056.13 134.56C1056.38 135.322 1056.65 136.084 1056.85 136.864C1057.38 138.934 1056.42 139.212 1055.76 139.242C1055.65 139.248 1054.41 139.307 1052.8 139.383C1053.08 141.777 1053.34 144.145 1053.59 146.487C1055.34 146.404 1056.73 146.337 1056.87 146.331C1057.54 146.3 1057.77 146.425 1057.87 146.634C1057.95 146.818 1057.96 147.068 1057.7 147.338L1056.44 148.603C1055.9 149.256 1056.31 149.756 1056.96 150.142C1057.48 150.425 1058.07 150.582 1058.68 150.553L1064.19 150.293C1065.89 150.211 1067.12 148.759 1066.92 147.066Z" fill="url(#paint20_linear)"/>
<path d="M985.496 252.625H1028.12C1028.04 252.547 1027.97 252.463 1027.93 252.368L1023.15 241.545C1022.57 240.308 1020.99 239.293 1019.62 239.293H985.496V252.625Z" fill="#212A3F"/>
<path opacity="0.3" d="M1031.32 252.372L1026.6 239.055C1025.5 236.659 1022.21 234.336 1019.62 234.336H985.496V239.296H1019.62C1020.99 239.296 1022.57 240.311 1023.14 241.549L1027.93 252.372C1028.07 252.685 1028.46 252.941 1028.8 252.941H1030.95C1031.29 252.941 1031.46 252.685 1031.32 252.372Z" fill="url(#paint21_linear)"/>
<path opacity="0.2" d="M1044.35 204.312H985.496V225.58H1021.64C1023.01 225.58 1024.94 224.818 1025.93 223.887L1045.02 206.007C1046.02 205.074 1045.71 204.312 1044.35 204.312Z" fill="url(#paint22_linear)"/>
<path opacity="0.9" d="M1055.27 189.812C1055.26 189.865 1055.25 189.914 1055.25 189.968C1055.25 191.386 1054.66 191.921 1053.32 191.963H985.496V201.677H1053.5C1053.91 201.677 1054.33 201.597 1054.67 201.365C1055.31 200.932 1055.42 200.114 1055.41 199.399C1055.4 196.23 1055.35 193.037 1055.27 189.812Z" fill="#212A3F"/>
<path opacity="0.9" d="M1050.55 131.025C1049.81 125.212 1048.98 119.237 1048.06 113.076C1047.81 111.404 1047.01 110.004 1045.14 110.004H985.496V132.691H1049.09L1049.09 132.687C1050.14 132.687 1050.63 132.12 1050.55 131.025Z" fill="#212A3F"/>
<path d="M1045.38 204.186C1045.25 203.916 1044.99 203.676 1044.58 203.515L1027.85 196.83C1028.95 196.876 1030.03 196.926 1031.09 196.98C1031.51 197.001 1031.59 196.597 1031.6 196.26C1031.61 195.98 1031.6 195.705 1031.62 195.427C1031.64 195.012 1031.38 194.902 1031.01 194.883C1017.43 194.199 999.964 194.43 985.496 195.081V196.745C996.786 196.328 1009.89 196.279 1021.59 196.61L1042.1 206.328C1043.02 206.766 1044.34 206.62 1045.02 206.002C1045.58 205.491 1045.89 204.728 1045.38 204.186Z" fill="#212A3F"/>
<path opacity="0.6" d="M1055.16 213.923C1055.16 211.638 1053.31 209.785 1051.02 209.785C1048.14 209.785 1043.52 214.546 1045.9 217.027C1047.67 218.877 1051.94 218.65 1053.81 216.983C1054.61 216.271 1055.16 215.001 1055.16 213.923Z" fill="url(#paint23_linear)"/>
<path opacity="0.6" d="M1043.16 227.15C1043.16 225.177 1042.2 223.327 1040.36 222.652C1038.61 222.01 1036.42 222.474 1034.92 223.842C1033.49 225.143 1032.03 227.232 1032.52 229.305C1032.64 229.827 1033.01 230.379 1033.43 230.715C1033.79 231.008 1034.29 231.302 1034.74 231.439C1036.24 231.899 1038.37 231.986 1040.06 231.469C1042.03 230.866 1043.16 229.202 1043.16 227.15Z" fill="url(#paint24_linear)"/>
<path opacity="0.6" d="M1054.34 223.872C1054.34 221.375 1052.5 219.315 1050.1 218.969C1048 218.667 1046.01 219.858 1044.88 221.56C1043.83 223.154 1043.19 225.24 1044.45 226.947C1045.88 228.888 1049.4 229.299 1051.41 228.399C1053.14 227.625 1054.34 225.892 1054.34 223.872Z" fill="url(#paint25_linear)"/>
<path opacity="0.6" d="M1045.27 128.369L1043.3 114.318C1043.1 112.967 1041.83 111.863 1040.46 111.863H985.496V114.292H1035.11C1035.45 114.292 1035.73 114.571 1035.73 114.911V127.779C1035.73 128.121 1035.45 128.398 1035.11 128.398H985.496V130.827H1043.13C1044.49 130.83 1045.46 129.723 1045.27 128.369Z" fill="#334163"/>
<path opacity="0.4" d="M1044.58 203.516L1025.32 195.818C1027.3 195.875 1029.24 195.942 1031.1 196.022C1031.49 196.04 1031.59 195.685 1031.61 195.361C1031.6 195.008 1031.36 194.901 1031.01 194.883C1017.43 194.199 999.964 194.43 985.496 195.08V196.145C996.649 195.646 1009.58 195.491 1021.18 195.718L1042.15 205.657C1043.07 206.096 1044.39 205.948 1045.07 205.33C1045.75 204.713 1045.53 203.896 1044.58 203.516Z" fill="#4B6696"/>
<path d="M1047.75 111.858H1049.14C1049.11 111.665 1049.08 111.475 1049.05 111.282C1048.46 107.346 1045.3 105.934 1041.85 105.236C1038.53 104.568 1035.1 104.368 1031.73 104.154C1021.92 103.532 1012.07 103.35 1002.24 103.247C996.659 103.189 991.078 103.166 985.496 103.168V109.997H1045.14C1046.53 109.997 1047.33 110.774 1047.75 111.858Z" fill="#4B6696"/>
<path opacity="0.5" d="M1047.75 111.858H1049.14C1049.11 111.665 1049.08 111.475 1049.05 111.282C1048.46 107.346 1045.3 105.934 1041.85 105.236C1038.53 104.568 1035.1 104.368 1031.73 104.154C1021.92 103.532 1012.07 103.35 1002.24 103.247C996.659 103.189 991.078 103.166 985.496 103.168V109.997H1045.14C1046.53 109.997 1047.33 110.774 1047.75 111.858Z" fill="white"/>
<path d="M1031.32 252.372L1025.98 240.295C1024.88 237.901 1022.21 236.195 1019.62 236.195H985.496V239.295H1019.62C1020.99 239.295 1022.57 240.31 1023.14 241.548L1027.93 252.371C1028.07 252.684 1028.46 252.94 1028.8 252.94H1030.95C1031.29 252.941 1031.46 252.685 1031.32 252.372Z" fill="#334163"/>
<path opacity="0.3" d="M1031.32 252.372L1025.98 240.295C1024.88 237.901 1022.21 236.195 1019.62 236.195H985.496V239.295H1019.62C1020.99 239.295 1022.57 240.31 1023.14 241.548L1027.93 252.371C1028.07 252.684 1028.46 252.94 1028.8 252.94H1030.95C1031.29 252.941 1031.46 252.685 1031.32 252.372Z" fill="url(#paint26_linear)"/>
<path d="M1002.34 248.586C1002.34 248.929 1002.06 249.206 1001.72 249.206H969.268C968.928 249.206 968.648 248.928 968.648 248.586V242.384C968.648 242.044 968.928 241.766 969.268 241.766H1001.72C1002.06 241.766 1002.34 242.044 1002.34 242.384V248.586Z" fill="#4B6696"/>
<path d="M969.67 248.186H1001.32V242.793H969.67V248.186Z" fill="white"/>
<path d="M1051.84 216.836C1053.45 216.836 1054.76 215.53 1054.76 213.92C1054.76 212.309 1053.45 211.004 1051.84 211.004C1050.23 211.004 1048.93 212.309 1048.93 213.92C1048.93 215.53 1050.23 216.836 1051.84 216.836Z" fill="url(#paint27_linear)"/>
<path d="M1051.84 216.138C1053.06 216.138 1054.06 215.145 1054.06 213.919C1054.06 212.693 1053.06 211.699 1051.84 211.699C1050.61 211.699 1049.62 212.693 1049.62 213.919C1049.62 215.145 1050.61 216.138 1051.84 216.138Z" fill="url(#paint28_linear)"/>
<path d="M1049.38 227.643C1051.47 227.643 1053.16 225.954 1053.16 223.87C1053.16 221.787 1051.47 220.098 1049.38 220.098C1047.3 220.098 1045.61 221.787 1045.61 223.87C1045.61 225.954 1047.3 227.643 1049.38 227.643Z" fill="url(#paint29_linear)"/>
<path d="M1046.26 223.882C1046.18 225.528 1047.5 226.862 1049.22 226.862C1050.93 226.862 1052.38 225.526 1052.47 223.879C1052.55 222.231 1051.22 220.898 1049.51 220.898C1047.8 220.9 1046.35 222.235 1046.26 223.882Z" fill="url(#paint30_linear)"/>
<path d="M1038.66 230.362C1040.49 230.362 1041.97 228.881 1041.97 227.054C1041.97 225.227 1040.49 223.746 1038.66 223.746C1036.83 223.746 1035.35 225.227 1035.35 227.054C1035.35 228.881 1036.83 230.362 1038.66 230.362Z" fill="url(#paint31_linear)"/>
<path d="M1038.66 229.803C1040.18 229.803 1041.41 228.572 1041.41 227.054C1041.41 225.535 1040.18 224.305 1038.66 224.305C1037.14 224.305 1035.91 225.535 1035.91 227.054C1035.91 228.572 1037.14 229.803 1038.66 229.803Z" fill="url(#paint32_linear)"/>
<path d="M1051.84 215.545C1052.74 215.545 1053.46 214.817 1053.46 213.919C1053.46 213.021 1052.74 212.293 1051.84 212.293C1050.94 212.293 1050.21 213.021 1050.21 213.919C1050.21 214.817 1050.94 215.545 1051.84 215.545Z" fill="url(#paint33_radial)"/>
<path d="M1038.66 229.197C1039.85 229.197 1040.81 228.234 1040.81 227.046C1040.81 225.858 1039.85 224.895 1038.66 224.895C1037.47 224.895 1036.51 225.858 1036.51 227.046C1036.51 228.234 1037.47 229.197 1038.66 229.197Z" fill="url(#paint34_radial)"/>
<path d="M1046.98 223.872C1046.98 225.2 1048.05 226.276 1049.38 226.276C1050.71 226.276 1051.79 225.2 1051.79 223.872C1051.79 222.545 1050.71 221.469 1049.38 221.469C1048.05 221.47 1046.98 222.546 1046.98 223.872Z" fill="url(#paint35_radial)"/>
<path d="M1044.27 246.472C1045.45 246.472 1046.4 245.517 1046.4 244.338C1046.4 243.159 1045.45 242.203 1044.27 242.203C1043.09 242.203 1042.13 243.159 1042.13 244.338C1042.13 245.517 1043.09 246.472 1044.27 246.472Z" fill="url(#paint36_radial)"/>
<path d="M974.731 231.273H964.093C963.495 231.273 963.014 231.757 963.014 232.355C963.014 232.949 963.496 233.433 964.093 233.433L974.731 233.434C975.326 233.434 975.811 232.95 975.811 232.356C975.81 231.757 975.325 231.273 974.731 231.273Z" fill="#212A3F"/>
<path d="M985.488 231.274L979.769 231.273C979.174 231.273 978.691 231.758 978.691 232.356C978.691 232.95 979.174 233.434 979.772 233.434H985.489L985.488 231.274Z" fill="#212A3F"/>
<path d="M985.459 201.253L914.264 201.25C913.64 201.25 913.076 201.756 913.076 202.378V237.245C913.076 237.868 913.583 238.376 914.206 238.376H950.861C951.484 238.376 951.991 237.87 951.991 237.247L951.985 220.195C951.985 219.395 952.56 218.994 952.991 218.994L985.46 218.996V201.253H985.459Z" fill="#212A3F"/>
<path d="M914.714 237.439C914.376 237.439 914.096 237.16 914.096 236.821L914.092 219.59C914.092 219.251 914.369 218.973 914.709 218.973L950.325 218.975C950.664 218.975 950.942 219.252 950.942 219.593L950.946 236.824C950.946 237.162 950.669 237.44 950.33 237.44H914.714V237.439Z" fill="#27334C"/>
<path d="M914.162 217.398C914.163 217.736 914.44 218.015 914.781 218.015L950.243 218.017C950.582 218.017 950.859 217.74 950.859 217.4L950.855 202.908C950.855 202.569 950.578 202.29 950.24 202.29L914.777 202.289C914.436 202.289 914.158 202.567 914.158 202.905L914.162 217.398Z" fill="#27334C"/>
<path d="M985.475 202.291L951.889 202.289C951.55 202.289 951.271 202.567 951.271 202.907L951.276 217.399C951.277 217.737 951.553 218.016 951.893 218.016L985.479 218.018L985.475 202.291Z" fill="#27334C"/>
<path d="M983.742 203.641H978.847C978.505 203.64 978.229 203.918 978.229 204.258C978.229 204.598 978.505 204.876 978.847 204.876H983.742C984.082 204.876 984.357 204.599 984.357 204.258C984.357 203.917 984.081 203.641 983.742 203.641Z" fill="#212A3F"/>
<path d="M983.742 206H978.847C978.506 206 978.229 206.276 978.229 206.616C978.229 206.958 978.506 207.234 978.847 207.235H983.742C984.082 207.235 984.358 206.958 984.358 206.616C984.357 206.277 984.082 206 983.742 206Z" fill="#212A3F"/>
<path d="M983.744 208.356L978.849 208.355C978.508 208.355 978.23 208.632 978.23 208.974C978.23 209.313 978.508 209.589 978.849 209.589H983.744C984.083 209.589 984.359 209.314 984.359 208.974C984.358 208.632 984.083 208.356 983.744 208.356Z" fill="#212A3F"/>
<path d="M983.744 210.716L978.849 210.715C978.507 210.715 978.23 210.991 978.23 211.332C978.23 211.673 978.508 211.95 978.849 211.95H983.744C984.084 211.95 984.358 211.674 984.358 211.332C984.358 210.99 984.084 210.716 983.744 210.716Z" fill="#212A3F"/>
<path d="M983.744 213.074H978.849C978.507 213.073 978.23 213.351 978.23 213.691C978.23 214.031 978.508 214.309 978.849 214.309H983.745C984.084 214.309 984.36 214.033 984.359 213.692C984.359 213.351 984.085 213.074 983.744 213.074Z" fill="#212A3F"/>
<path d="M983.745 215.435L978.849 215.434C978.508 215.434 978.23 215.71 978.23 216.051C978.23 216.391 978.508 216.667 978.849 216.667H983.745C984.084 216.667 984.359 216.391 984.359 216.051C984.359 215.711 984.085 215.435 983.745 215.435Z" fill="#212A3F"/>
<path d="M975.379 203.637H970.484C970.143 203.637 969.865 203.914 969.865 204.255C969.865 204.594 970.143 204.872 970.484 204.872L975.379 204.873C975.72 204.873 975.996 204.596 975.996 204.255C975.996 203.914 975.719 203.637 975.379 203.637Z" fill="#212A3F"/>
<path d="M975.38 206.001L970.484 206C970.144 206 969.865 206.277 969.865 206.616C969.865 206.958 970.143 207.235 970.484 207.235H975.38C975.72 207.235 975.997 206.959 975.997 206.617C975.996 206.277 975.72 206.001 975.38 206.001Z" fill="#212A3F"/>
<path d="M975.381 208.355H970.486C970.145 208.355 969.867 208.632 969.867 208.974C969.867 209.314 970.145 209.59 970.486 209.59H975.381C975.721 209.59 975.998 209.314 975.998 208.975C975.997 208.631 975.721 208.355 975.381 208.355Z" fill="#212A3F"/>
<path d="M975.38 210.715H970.486C970.145 210.715 969.867 210.991 969.867 211.331C969.867 211.673 970.145 211.95 970.486 211.95H975.38C975.722 211.95 975.998 211.673 975.998 211.332C975.998 210.991 975.721 210.715 975.38 210.715Z" fill="#212A3F"/>
<path d="M975.38 213.074H970.486C970.146 213.074 969.867 213.352 969.867 213.692C969.868 214.033 970.145 214.31 970.486 214.31H975.381C975.722 214.31 975.999 214.033 975.999 213.692C975.998 213.352 975.722 213.074 975.38 213.074Z" fill="#212A3F"/>
<path d="M975.381 215.431L970.486 215.43C970.146 215.43 969.869 215.706 969.869 216.047C969.869 216.388 970.146 216.663 970.487 216.663L975.382 216.664C975.722 216.664 975.999 216.388 975.999 216.048C975.998 215.706 975.722 215.431 975.381 215.431Z" fill="#212A3F"/>
<path d="M967.015 203.637H962.119C961.778 203.637 961.502 203.913 961.502 204.254C961.502 204.593 961.779 204.871 962.12 204.871L967.015 204.872C967.355 204.872 967.632 204.595 967.632 204.255C967.631 203.914 967.354 203.637 967.015 203.637Z" fill="#212A3F"/>
<path d="M967.016 206.001L962.121 206C961.781 206 961.504 206.277 961.504 206.617C961.504 206.958 961.781 207.235 962.121 207.235L967.016 207.236C967.356 207.236 967.633 206.959 967.633 206.617C967.631 206.278 967.356 206.001 967.016 206.001Z" fill="#212A3F"/>
<path d="M967.016 208.356L962.121 208.355C961.78 208.355 961.504 208.632 961.504 208.974C961.504 209.313 961.78 209.589 962.121 209.589L967.016 209.59C967.355 209.59 967.631 209.314 967.631 208.974C967.63 208.632 967.355 208.356 967.016 208.356Z" fill="#212A3F"/>
<path d="M967.017 210.716L962.121 210.715C961.781 210.715 961.504 210.991 961.504 211.332C961.504 211.673 961.781 211.95 962.122 211.95L967.017 211.951C967.357 211.951 967.632 211.674 967.632 211.332C967.631 210.991 967.355 210.716 967.017 210.716Z" fill="#212A3F"/>
<path d="M967.017 213.071L962.122 213.07C961.782 213.07 961.504 213.348 961.504 213.689C961.505 214.029 961.781 214.306 962.122 214.306L967.017 214.307C967.357 214.307 967.634 214.03 967.634 213.689C967.632 213.349 967.357 213.071 967.017 213.071Z" fill="#212A3F"/>
<path d="M967.017 215.43H962.122C961.782 215.43 961.506 215.706 961.506 216.046C961.506 216.387 961.782 216.663 962.123 216.663H967.018C967.357 216.663 967.633 216.388 967.633 216.047C967.633 215.706 967.357 215.43 967.017 215.43Z" fill="#212A3F"/>
<path d="M958.648 203.637H953.754C953.413 203.637 953.137 203.914 953.137 204.254C953.137 204.594 953.414 204.872 953.755 204.872H958.649C958.992 204.872 959.267 204.595 959.267 204.255C959.267 203.914 958.992 203.637 958.648 203.637Z" fill="#212A3F"/>
<path d="M958.651 206H953.756C953.416 206 953.139 206.277 953.139 206.616C953.139 206.958 953.416 207.235 953.756 207.235H958.651C958.993 207.235 959.269 206.958 959.269 206.617C959.268 206.277 958.993 206 958.651 206Z" fill="#212A3F"/>
<path d="M958.65 208.355H953.755C953.415 208.355 953.139 208.632 953.139 208.974C953.139 209.314 953.415 209.589 953.755 209.589L958.65 209.59C958.993 209.59 959.268 209.314 959.268 208.975C959.267 208.631 958.993 208.355 958.65 208.355Z" fill="#212A3F"/>
<path d="M958.651 210.715H953.756C953.415 210.715 953.139 210.99 953.139 211.331C953.139 211.673 953.416 211.949 953.757 211.949L958.652 211.95C958.994 211.95 959.269 211.673 959.269 211.332C959.269 210.991 958.994 210.715 958.651 210.715Z" fill="#212A3F"/>
<path d="M958.652 213.07H953.757C953.416 213.07 953.139 213.347 953.139 213.688C953.14 214.029 953.416 214.305 953.757 214.305L958.652 214.306C958.994 214.306 959.27 214.029 959.269 213.689C959.268 213.348 958.994 213.07 958.652 213.07Z" fill="#212A3F"/>
<path d="M958.652 215.43H953.757C953.417 215.43 953.141 215.706 953.141 216.046C953.141 216.386 953.417 216.662 953.757 216.662H958.652C958.995 216.662 959.27 216.387 959.27 216.046C959.269 215.705 958.994 215.43 958.652 215.43Z" fill="#212A3F"/>
<path d="M943.004 204.946H948.516C948.857 204.946 949.134 204.669 949.134 204.329C949.134 203.987 948.857 203.712 948.516 203.712L943.004 203.711C942.663 203.711 942.387 203.987 942.387 204.328C942.388 204.667 942.663 204.946 943.004 204.946Z" fill="#212A3F"/>
<path d="M948.518 206.074H943.006C942.664 206.074 942.389 206.35 942.389 206.691C942.389 207.033 942.664 207.308 943.006 207.309H948.518C948.859 207.309 949.136 207.033 949.136 206.691C949.136 206.351 948.859 206.074 948.518 206.074Z" fill="#212A3F"/>
<path d="M948.518 208.43H943.005C942.663 208.43 942.389 208.705 942.389 209.046C942.389 209.386 942.663 209.663 943.005 209.664H948.518C948.858 209.664 949.135 209.387 949.135 209.048C949.135 208.706 948.858 208.43 948.518 208.43Z" fill="#212A3F"/>
<path d="M948.518 210.789H943.005C942.663 210.788 942.389 211.065 942.389 211.406C942.389 211.745 942.665 212.023 943.006 212.023L948.518 212.024C948.86 212.024 949.136 211.746 949.135 211.406C949.135 211.065 948.859 210.789 948.518 210.789Z" fill="#212A3F"/>
<path d="M948.519 213.148H943.007C942.666 213.147 942.39 213.425 942.391 213.767C942.391 214.106 942.666 214.383 943.008 214.383H948.52C948.861 214.383 949.138 214.108 949.138 213.767C949.137 213.427 948.861 213.148 948.519 213.148Z" fill="#212A3F"/>
<path d="M948.519 215.506L943.007 215.504C942.665 215.504 942.391 215.781 942.391 216.123C942.391 216.462 942.665 216.739 943.007 216.739H948.52C948.861 216.739 949.137 216.463 949.137 216.123C949.137 215.782 948.86 215.506 948.519 215.506Z" fill="#212A3F"/>
<path d="M939.679 203.712L934.166 203.711C933.827 203.711 933.551 203.987 933.551 204.328C933.551 204.668 933.827 204.946 934.166 204.946L939.679 204.947C940.02 204.947 940.296 204.669 940.296 204.329C940.296 203.987 940.02 203.712 939.679 203.712Z" fill="#212A3F"/>
<path d="M939.679 206.075L934.167 206.074C933.827 206.074 933.551 206.351 933.551 206.692C933.551 207.033 933.827 207.309 934.167 207.309H939.679C940.02 207.309 940.297 207.034 940.297 206.692C940.297 206.351 940.02 206.075 939.679 206.075Z" fill="#212A3F"/>
<path d="M939.68 208.431L934.167 208.43C933.828 208.43 933.551 208.706 933.551 209.046C933.551 209.387 933.828 209.664 934.167 209.664H939.68C940.021 209.664 940.297 209.387 940.297 209.047C940.297 208.706 940.021 208.431 939.68 208.431Z" fill="#212A3F"/>
<path d="M939.68 210.789H934.167C933.829 210.789 933.551 211.067 933.551 211.406C933.553 211.746 933.828 212.023 934.168 212.023L939.682 212.024C940.022 212.024 940.298 211.746 940.297 211.407C940.297 211.065 940.022 210.789 939.68 210.789Z" fill="#212A3F"/>
<path d="M939.682 213.148H934.168C933.829 213.148 933.553 213.426 933.553 213.767C933.553 214.107 933.829 214.384 934.169 214.384H939.682C940.022 214.384 940.299 214.107 940.299 213.768C940.298 213.425 940.022 213.148 939.682 213.148Z" fill="#212A3F"/>
<path d="M939.682 215.504H934.169C933.829 215.504 933.553 215.781 933.553 216.122C933.553 216.461 933.83 216.738 934.169 216.738L939.682 216.739C940.023 216.739 940.299 216.462 940.299 216.123C940.299 215.782 940.022 215.504 939.682 215.504Z" fill="#212A3F"/>
<path d="M930.84 203.712L925.329 203.711C924.987 203.711 924.711 203.987 924.711 204.329C924.711 204.669 924.988 204.946 925.329 204.946L930.84 204.947C931.18 204.947 931.458 204.669 931.458 204.329C931.458 203.987 931.18 203.712 930.84 203.712Z" fill="#212A3F"/>
<path d="M930.841 206.075L925.329 206.074C924.987 206.074 924.711 206.351 924.711 206.692C924.711 207.033 924.987 207.309 925.329 207.309H930.841C931.181 207.309 931.459 207.034 931.459 206.693C931.459 206.352 931.181 206.075 930.841 206.075Z" fill="#212A3F"/>
<path d="M930.841 208.427L925.329 208.426C924.988 208.426 924.711 208.702 924.711 209.043C924.711 209.383 924.988 209.661 925.329 209.661H930.841C931.182 209.661 931.459 209.384 931.459 209.043C931.458 208.703 931.182 208.427 930.841 208.427Z" fill="#212A3F"/>
<path d="M930.84 210.785H925.329C924.988 210.785 924.711 211.063 924.711 211.404C924.712 211.742 924.988 212.02 925.329 212.02H930.841C931.181 212.02 931.459 211.743 931.459 211.404C931.459 211.064 931.181 210.785 930.84 210.785Z" fill="#212A3F"/>
<path d="M930.842 213.148H925.33C924.989 213.148 924.712 213.426 924.713 213.767C924.713 214.107 924.989 214.384 925.331 214.384H930.843C931.184 214.384 931.461 214.108 931.461 213.768C931.459 213.426 931.182 213.148 930.842 213.148Z" fill="#212A3F"/>
<path d="M930.842 215.504H925.331C924.989 215.504 924.713 215.781 924.713 216.122C924.713 216.462 924.99 216.739 925.331 216.739H930.842C931.184 216.739 931.461 216.462 931.461 216.123C931.46 215.783 931.184 215.504 930.842 215.504Z" fill="#212A3F"/>
<path d="M922.003 203.711H916.49C916.149 203.711 915.873 203.987 915.873 204.329C915.873 204.668 916.149 204.946 916.49 204.946H922.003C922.344 204.946 922.62 204.668 922.62 204.329C922.619 203.986 922.344 203.711 922.003 203.711Z" fill="#212A3F"/>
<path d="M922.005 206.074H916.492C916.151 206.074 915.875 206.351 915.875 206.691C915.875 207.033 916.151 207.309 916.492 207.309H922.005C922.345 207.309 922.622 207.033 922.622 206.692C922.622 206.351 922.345 206.074 922.005 206.074Z" fill="#212A3F"/>
<path d="M922.005 208.426H916.493C916.151 208.426 915.875 208.702 915.875 209.042C915.875 209.383 916.151 209.661 916.493 209.661H922.005C922.345 209.661 922.623 209.383 922.623 209.042C922.622 208.702 922.345 208.426 922.005 208.426Z" fill="#212A3F"/>
<path d="M922.005 210.785H916.493C916.151 210.785 915.875 211.063 915.875 211.403C915.876 211.742 916.152 212.02 916.493 212.02H922.006C922.347 212.02 922.623 211.742 922.623 211.404C922.622 211.062 922.346 210.785 922.005 210.785Z" fill="#212A3F"/>
<path d="M922.006 213.148H916.493C916.152 213.148 915.876 213.425 915.877 213.767C915.877 214.107 916.153 214.383 916.494 214.383L922.007 214.384C922.346 214.384 922.624 214.107 922.624 213.767C922.622 213.425 922.346 213.148 922.006 213.148Z" fill="#212A3F"/>
<path d="M922.007 215.501L916.494 215.5C916.153 215.5 915.877 215.777 915.877 216.119C915.877 216.459 916.153 216.735 916.495 216.735L922.007 216.736C922.346 216.736 922.625 216.459 922.625 216.119C922.624 215.779 922.346 215.501 922.007 215.501Z" fill="#212A3F"/>
<path d="M935.657 235.53C939.702 235.53 942.981 232.251 942.981 228.206C942.981 224.162 939.702 220.883 935.657 220.883C931.613 220.883 928.334 224.162 928.334 228.206C928.334 232.251 931.613 235.53 935.657 235.53Z" fill="#212A3F"/>
<path d="M935.658 234.219C938.979 234.219 941.67 231.527 941.67 228.207C941.67 224.887 938.979 222.195 935.658 222.195C932.338 222.195 929.646 224.887 929.646 228.207C929.646 231.527 932.338 234.219 935.658 234.219Z" fill="url(#paint37_radial)"/>
<path d="M916.313 233.985C916.313 234.492 916.728 234.909 917.238 234.909H924.483C924.993 234.909 925.408 234.492 925.408 233.986L925.404 222.422C925.404 221.912 924.989 221.496 924.479 221.496H917.234C916.725 221.496 916.309 221.912 916.309 222.422L916.313 233.985Z" fill="#212A3F"/>
<path d="M917.546 227.891C917.206 227.891 916.928 227.613 916.928 227.272V222.726C916.927 222.386 917.205 222.109 917.544 222.109L924.173 222.11C924.513 222.11 924.791 222.386 924.792 222.726V227.272C924.792 227.612 924.515 227.891 924.175 227.891H917.546Z" fill="url(#paint38_radial)"/>
<path d="M924.174 228.517C924.514 228.517 924.792 228.795 924.792 229.135L924.793 233.682C924.793 234.02 924.515 234.298 924.176 234.298L917.546 234.297C917.207 234.297 916.929 234.02 916.929 233.682L916.928 229.134C916.928 228.795 917.205 228.516 917.545 228.516H924.174V228.517Z" fill="url(#paint39_radial)"/>
<path d="M933.351 110.458C933.351 110.289 933.215 110.182 933.051 110.224L927.624 111.739C927.462 111.79 927.33 111.972 927.33 112.141V113.583C927.33 113.753 927.47 113.892 927.64 113.892L933.043 113.893C933.214 113.893 933.353 113.754 933.353 113.583L933.351 110.458Z" fill="#27334C"/>
<path d="M949.927 109.078H985.454L985.453 107.844H949.927C949.587 107.844 949.311 108.121 949.311 108.461C949.311 108.801 949.587 109.078 949.927 109.078Z" fill="#27334C"/>
<path d="M935.593 111.437H985.454V110.203H935.593C935.252 110.203 934.975 110.481 934.975 110.819C934.976 111.16 935.252 111.437 935.593 111.437Z" fill="#27334C"/>
<path d="M985.453 112.566H935.592C935.252 112.566 934.975 112.843 934.975 113.185C934.975 113.525 935.252 113.8 935.592 113.8L985.453 113.801V112.566Z" fill="#27334C"/>
<path d="M928.143 189.3L959.809 167.093L959.611 165.852C959.583 165.684 959.539 165.412 959.513 165.244L957.489 151.977C957.463 151.809 957.581 151.672 957.751 151.672H957.912C958.084 151.672 958.248 151.809 958.278 151.975L960.688 165.245C960.719 165.412 960.767 165.684 960.794 165.852L961.492 170.183C961.518 170.35 961.559 170.625 961.582 170.793L963.327 183.332C963.349 183.498 963.231 183.637 963.061 183.637H962.897C962.728 183.637 962.568 183.499 962.537 183.332L960.408 170.791C960.379 170.625 960.334 170.35 960.307 170.183L960.028 168.463L929.254 190.853C929.25 190.857 929.241 190.861 929.239 190.863C928.807 191.166 928.211 191.06 927.909 190.629C927.606 190.197 927.712 189.603 928.143 189.3Z" fill="#405684"/>
<path d="M985.492 251.069L985.454 103.827C980.211 103.827 923.937 102.744 920.703 113.535C920.142 115.407 919.674 119.347 918.885 124.437L911.401 181.622C910.095 192.802 909.316 200.95 909.316 200.95L909.325 238.379H908.468C908.128 238.379 907.85 238.656 907.85 238.994L907.853 250.447C907.853 250.787 908.13 251.066 908.471 251.066L924.688 251.067L924.631 251.087C924.631 251.566 924.634 252.046 924.639 252.523C924.679 255.409 924.806 258.302 925.106 261.172C925.221 262.261 925.344 263.363 925.588 264.433C925.839 265.54 926.563 265.779 927.654 265.779C927.684 265.779 936.723 265.779 936.723 265.779C937.699 265.779 938.86 265.634 939.196 264.527C939.689 262.89 939.802 261.091 939.942 259.398C940.172 256.634 940.251 253.859 940.268 251.087L940.247 251.067L985.492 251.069Z" fill="url(#paint40_linear)"/>
<path d="M986.02 50.0078H984.02V64.9656H986.02V50.0078Z" fill="#99A0B1"/>
<path d="M986.021 87.0391H984.021V265.992H986.021V87.0391Z" fill="#99A0B1"/>
<path opacity="0.6" d="M1210 0H1175V680H1210V0Z" fill="#27334C"/>
<path opacity="0.5" d="M1210 679.999V191.575C1202.44 162.196 1190.68 134.142 1175 108.152V679.999H1210Z" fill="#212A3F"/>
<g opacity="0.5">
<path opacity="0.5" d="M1193.5 16.5273H1191.5V37.9973H1193.5V16.5273Z" fill="white"/>
</g>
<g opacity="0.5">
<path opacity="0.5" d="M1193.5 53.0273H1191.5V74.4983H1193.5V53.0273Z" fill="white"/>
</g>
<g opacity="0.5">
<path opacity="0.5" d="M1193.5 89.5234H1191.5V110.993H1193.5V89.5234Z" fill="white"/>
</g>
<g opacity="0.5">
<path opacity="0.5" d="M1193.5 126.023H1191.5V147.492H1193.5V126.023Z" fill="white"/>
</g>
<path opacity="0.3" d="M1210 0H1209V680H1210V0Z" fill="white"/>
<path opacity="0.3" d="M1176 0H1175V680H1176V0Z" fill="white"/>
<path d="M1175 270.875V680H1210V270.875C1210 189.173 1178.18 112.36 1120.41 54.5889C1098.3 32.4749 1073.39 14.18 1046.49 0H904.125C976.479 0 1044.5 28.1759 1095.66 79.3369C1146.82 130.498 1175 198.522 1175 270.875Z" fill="#334163"/>
<path opacity="0.1" d="M1175 270.875V680H1210V270.875C1210 189.173 1178.18 112.36 1120.41 54.5889C1098.3 32.4749 1073.39 14.18 1046.49 0H904.125C976.479 0 1044.5 28.1759 1095.66 79.3369C1146.82 130.498 1175 198.522 1175 270.875Z" fill="#27334C"/>
<path opacity="0.5" d="M1036.71 13.9539C1036.15 13.6759 1035.58 13.392 1035.01 13.105L1028.4 9.81592C1027.42 9.32892 1026.69 8.96587 1026.15 8.74487L1025.31 8.375L1024.5 10.2048L1025.37 10.5869C1025.87 10.7909 1026.57 11.137 1027.5 11.606L1034.11 14.895C1034.69 15.183 1035.26 15.4668 1035.83 15.7478C1037.63 16.6388 1039.33 17.48 1040.64 18.261L1043.57 19.8999L1044.55 18.156L1041.64 16.5288C1040.28 15.7218 1038.55 14.8639 1036.71 13.9539Z" fill="white"/>
<path opacity="0.5" d="M1061.31 28.1409L1057.56 25.7969L1056.5 27.4919L1060.25 29.8389C1061.79 30.7919 1063.69 31.9779 1065.49 33.2839L1074.31 39.4258L1075.45 37.7849L1066.65 31.6548C1064.81 30.3188 1062.87 29.1109 1061.31 28.1409Z" fill="white"/>
<path opacity="0.5" d="M1096.68 54.9451C1096.33 54.6431 1095.97 54.3391 1095.61 54.0261L1087.45 47.0312L1086.15 48.5513L1094.3 55.5391C1094.66 55.8521 1095.03 56.1622 1095.39 56.4692C1096.03 57.0192 1096.67 57.5602 1097.25 58.0972L1102.18 62.7803L1103.56 61.3311L1098.62 56.6392C1098.01 56.0742 1097.35 55.5131 1096.68 54.9451Z" fill="white"/>
<path opacity="0.5" d="M1118.92 76.9629C1118.36 76.3509 1117.82 75.779 1117.31 75.251C1117.04 74.97 1116.78 74.7009 1116.54 74.4399L1114.22 72.0078L1112.78 73.387L1115.09 75.814C1115.33 76.075 1115.59 76.3478 1115.87 76.6338C1116.36 77.1498 1116.9 77.7069 1117.42 78.2859L1126.41 88.6968C1126.75 89.1048 1126.94 89.3549 1126.95 89.3689L1128.56 88.1848C1128.56 88.1848 1128.35 87.8949 1127.93 87.4019L1118.92 76.9629Z" fill="white"/>
<path opacity="0.5" d="M1137.77 100.102L1136.14 101.254L1143.14 111.198L1148.13 119.023L1149.82 117.952L1145.37 110.927L1137.77 100.102Z" fill="white"/>
<path opacity="0.5" d="M1162.53 140.491C1162.08 139.626 1161.65 138.756 1161.23 137.915C1160.49 136.428 1159.78 135.022 1159.15 133.875L1157.49 130.953L1155.75 131.941L1157.4 134.854C1158.02 135.956 1158.71 137.341 1159.44 138.808C1159.86 139.655 1160.3 140.532 1160.74 141.396L1164.05 147.954L1165.41 151.021L1167.24 150.207L1165.85 147.097L1162.53 140.491Z" fill="white"/>
<path opacity="0.5" d="M1175.2 169.375C1174.9 168.604 1174.62 167.883 1174.37 167.223L1173.17 164.09L1171.3 164.809L1172.5 167.933C1172.75 168.592 1173.03 169.323 1173.34 170.103C1173.9 171.545 1174.54 173.179 1175.1 174.807L1178.47 185.013L1180.37 184.386L1177 174.168C1176.42 172.49 1175.77 170.834 1175.2 169.375Z" fill="white"/>
<path opacity="0.5" d="M1188.23 215.621C1188.11 214.907 1187.97 214.099 1187.78 213.273L1185.31 202.226C1184.89 200.235 1184.51 198.938 1184.49 198.883L1182.58 199.452C1182.58 199.465 1182.95 200.731 1183.36 202.649L1185.83 213.714C1186.01 214.485 1186.13 215.228 1186.25 215.945C1186.32 216.336 1186.38 216.71 1186.44 217.046L1187.02 220.357L1188.99 220.015L1188.41 216.691C1188.35 216.356 1188.29 215.996 1188.23 215.621Z" fill="white"/>
<path opacity="0.5" d="M1192.36 245.667C1192.32 245.196 1192.29 244.726 1192.25 244.258C1192.19 243.387 1192.13 242.528 1192.04 241.693L1191.21 234.941L1189.23 235.185L1190.06 241.92C1190.14 242.717 1190.2 243.551 1190.26 244.398C1190.29 244.873 1190.32 245.35 1190.36 245.821L1191.15 256.54L1193.14 256.394L1192.36 245.667Z" fill="white"/>
<path opacity="0.5" d="M1193.5 271.508H1191.5V293.002H1193.5V271.508Z" fill="white"/>
<path opacity="0.5" d="M1193.5 308.047H1191.5V329.541H1193.5V308.047Z" fill="white"/>
<path opacity="0.5" d="M1193.5 344.59H1191.5V366.084H1193.5V344.59Z" fill="white"/>
<path opacity="0.5" d="M1193.5 381.133H1191.5V402.627H1193.5V381.133Z" fill="white"/>
<path opacity="0.5" d="M1193.5 417.672H1191.5V439.166H1193.5V417.672Z" fill="white"/>
<path opacity="0.5" d="M1193.5 454.211H1191.5V475.705H1193.5V454.211Z" fill="white"/>
<path opacity="0.5" d="M1193.5 490.754H1191.5V512.248H1193.5V490.754Z" fill="white"/>
<path opacity="0.5" d="M1193.5 527.297H1191.5V548.791H1193.5V527.297Z" fill="white"/>
<path opacity="0.5" d="M1193.5 563.836H1191.5V585.33H1193.5V563.836Z" fill="white"/>
<path opacity="0.5" d="M1193.5 600.375H1191.5V621.869H1193.5V600.375Z" fill="white"/>
<path opacity="0.5" d="M1193.5 636.918H1191.5V658.412H1193.5V636.918Z" fill="white"/>
<path opacity="0.5" d="M999.365 0C999.804 0.15 1000.25 0.302984 1000.68 0.458984L1010.72 4.29785L1011.43 2.43091L1005.08 0H999.365Z" fill="white"/>
<path opacity="0.5" d="M1193.5 673.461H1191.5V680.002H1193.5V673.461Z" fill="white"/>
<path opacity="0.3" d="M1175 270.875V680H1176V270.875C1176 198.254 1147.72 129.98 1096.37 78.6299C1050.56 32.8229 991.287 5.393 927.475 0H904.123C976.477 0 1044.5 28.1759 1095.66 79.3369C1146.82 130.498 1175 198.522 1175 270.875Z" fill="white"/>
<path opacity="0.3" d="M1209 270.875V680H1210V270.875C1210 189.173 1178.18 112.36 1120.41 54.5889C1098.3 32.4749 1073.38 14.18 1046.48 0H1044.31C1071.78 14.254 1097.19 32.7889 1119.7 55.2959C1177.29 112.879 1209 189.44 1209 270.875Z" fill="white"/>
</g>
<defs>
<radialGradient id="paint0_radial" cx="0" cy="0" r="1" gradientUnits="userSpaceOnUse" gradientTransform="translate(985.192 328.105) scale(220.398)">
<stop stop-color="#212A3F" stop-opacity="0.7"/>
<stop offset="0.764466" stop-color="#334163" stop-opacity="0.2"/>
</radialGradient>
<radialGradient id="paint1_radial" cx="0" cy="0" r="1" gradientUnits="userSpaceOnUse" gradientTransform="translate(985.384 328.105) rotate(180) scale(220.398)">
<stop stop-color="#00AEEF" stop-opacity="0.4"/>
<stop offset="0.38647" stop-color="#1B73A4" stop-opacity="0.292276"/>
<stop offset="0.690769" stop-color="#334163" stop-opacity="0.2"/>
</radialGradient>
<linearGradient id="paint2_linear" x1="947.397" y1="238.384" x2="947.397" y2="103.797" gradientUnits="userSpaceOnUse">
<stop stop-color="white" stop-opacity="0.9"/>
<stop offset="1" stop-color="#4B6696"/>
</linearGradient>
<linearGradient id="paint3_linear" x1="932.907" y1="265.311" x2="932.907" y2="243.098" gradientUnits="userSpaceOnUse">
<stop stop-color="#212A3F" stop-opacity="0.9"/>
<stop offset="0.6422" stop-color="#334163" stop-opacity="0.9642"/>
<stop offset="0.7535" stop-color="#38496F" stop-opacity="0.9753"/>
<stop offset="0.9523" stop-color="#47608E" stop-opacity="0.9952"/>
<stop offset="1" stop-color="#4B6696"/>
</linearGradient>
<linearGradient id="paint4_linear" x1="935.813" y1="265.311" x2="935.813" y2="243.098" gradientUnits="userSpaceOnUse">
<stop stop-color="#212A3F" stop-opacity="0.9"/>
<stop offset="0.6422" stop-color="#334163" stop-opacity="0.9642"/>
<stop offset="0.7535" stop-color="#38496F" stop-opacity="0.9753"/>
<stop offset="0.9523" stop-color="#47608E" stop-opacity="0.9952"/>
<stop offset="1" stop-color="#4B6696"/>
</linearGradient>
<linearGradient id="paint5_linear" x1="930" y1="265.311" x2="930" y2="243.098" gradientUnits="userSpaceOnUse">
<stop stop-color="#212A3F" stop-opacity="0.9"/>
<stop offset="0.6422" stop-color="#334163" stop-opacity="0.9642"/>
<stop offset="0.7535" stop-color="#38496F" stop-opacity="0.9753"/>
<stop offset="0.9523" stop-color="#47608E" stop-opacity="0.9952"/>
<stop offset="1" stop-color="#4B6696"/>
</linearGradient>
<linearGradient id="paint6_linear" x1="927.091" y1="265.311" x2="927.091" y2="243.098" gradientUnits="userSpaceOnUse">
<stop stop-color="#212A3F" stop-opacity="0.9"/>
<stop offset="0.6422" stop-color="#334163" stop-opacity="0.9642"/>
<stop offset="0.7535" stop-color="#38496F" stop-opacity="0.9753"/>
<stop offset="0.9523" stop-color="#47608E" stop-opacity="0.9952"/>
<stop offset="1" stop-color="#4B6696"/>
</linearGradient>
<linearGradient id="paint7_linear" x1="916.927" y1="179.733" x2="904.983" y2="151.664" gradientUnits="userSpaceOnUse">
<stop stop-color="#4B6696" stop-opacity="0.9"/>
<stop offset="1" stop-color="#27334C" stop-opacity="0.9642"/>
</linearGradient>
<linearGradient id="paint8_linear" x1="988.362" y1="244.724" x2="906.425" y2="244.724" gradientUnits="userSpaceOnUse">
<stop stop-color="#818285" stop-opacity="0.3"/>
<stop offset="0.6881" stop-color="#818285" stop-opacity="0.7"/>
<stop offset="0.8072" stop-color="#7F8186" stop-opacity="0.8146"/>
<stop offset="0.8763" stop-color="#767C88" stop-opacity="0.8811"/>
<stop offset="0.9327" stop-color="#68758D" stop-opacity="0.9352"/>
<stop offset="0.9818" stop-color="#546B93" stop-opacity="0.9825"/>
<stop offset="1" stop-color="#4B6696"/>
</linearGradient>
<linearGradient id="paint9_linear" x1="992.672" y1="154.367" x2="895.409" y2="149.76" gradientUnits="userSpaceOnUse">
<stop stop-color="#212A3F" stop-opacity="0.9"/>
<stop offset="0.2611" stop-color="#252F47" stop-opacity="0.9218"/>
<stop offset="0.6583" stop-color="#2F3C5C" stop-opacity="0.9549"/>
<stop offset="0.7706" stop-color="#334163" stop-opacity="0.9642"/>
<stop offset="0.842" stop-color="#38496F" stop-opacity="0.9753"/>
<stop offset="0.9694" stop-color="#47608E" stop-opacity="0.9952"/>
<stop offset="1" stop-color="#4B6696"/>
</linearGradient>
<linearGradient id="paint10_linear" x1="1021.08" y1="251.095" x2="1021.08" y2="228.449" gradientUnits="userSpaceOnUse">
<stop offset="0.0092" stop-color="#212A3F" stop-opacity="0.3"/>
<stop offset="0.7156" stop-color="#334163" stop-opacity="0.3"/>
<stop offset="0.7481" stop-color="#394667" stop-opacity="0.2771"/>
<stop offset="0.7906" stop-color="#495674" stop-opacity="0.2473"/>
<stop offset="0.8385" stop-color="#646F88" stop-opacity="0.2136"/>
<stop offset="0.8905" stop-color="#8A92A4" stop-opacity="0.177"/>
<stop offset="0.9453" stop-color="#BABEC8" stop-opacity="0.1385"/>
<stop offset="1" stop-color="#F1F2F2" stop-opacity="0.1"/>
</linearGradient>
<radialGradient id="paint11_radial" cx="0" cy="0" r="1" gradientUnits="userSpaceOnUse" gradientTransform="translate(1029.57 225.986) scale(49.7214)">
<stop stop-color="#818285" stop-opacity="0.9642"/>
<stop offset="1" stop-color="#27334C" stop-opacity="0.9"/>
</radialGradient>
<radialGradient id="paint12_radial" cx="0" cy="0" r="1" gradientUnits="userSpaceOnUse" gradientTransform="translate(1032.18 228.583) scale(58.9678 58.9738)">
<stop stop-color="#818285" stop-opacity="0.9642"/>
<stop offset="1" stop-color="white" stop-opacity="0.9"/>
</radialGradient>
<linearGradient id="paint13_linear" x1="980.055" y1="156.321" x2="1064.52" y2="155.297" gradientUnits="userSpaceOnUse">
<stop stop-color="#212A3F" stop-opacity="0.9"/>
<stop offset="0.2537" stop-color="#253048" stop-opacity="0.9228"/>
<stop offset="0.6617" stop-color="#313F5F" stop-opacity="0.9594"/>
<stop offset="0.7156" stop-color="#334163" stop-opacity="0.9642"/>
<stop offset="0.8041" stop-color="#38496F" stop-opacity="0.9753"/>
<stop offset="0.9621" stop-color="#47608E" stop-opacity="0.9952"/>
<stop offset="1" stop-color="#4B6696"/>
</linearGradient>
<linearGradient id="paint14_linear" x1="1034.98" y1="267.96" x2="1034.98" y2="249.255" gradientUnits="userSpaceOnUse">
<stop stop-color="#212A3F" stop-opacity="0.9"/>
<stop offset="0.6422" stop-color="#334163" stop-opacity="0.9642"/>
<stop offset="0.7535" stop-color="#38496F" stop-opacity="0.9753"/>
<stop offset="0.9523" stop-color="#47608E" stop-opacity="0.9952"/>
<stop offset="1" stop-color="#4B6696"/>
</linearGradient>
<linearGradient id="paint15_linear" x1="1032.07" y1="267.96" x2="1032.07" y2="249.255" gradientUnits="userSpaceOnUse">
<stop stop-color="#212A3F" stop-opacity="0.9"/>
<stop offset="0.6422" stop-color="#334163" stop-opacity="0.9642"/>
<stop offset="0.7535" stop-color="#38496F" stop-opacity="0.9753"/>
<stop offset="0.9523" stop-color="#47608E" stop-opacity="0.9952"/>
<stop offset="1" stop-color="#4B6696"/>
</linearGradient>
<linearGradient id="paint16_linear" x1="1037.89" y1="267.96" x2="1037.89" y2="249.255" gradientUnits="userSpaceOnUse">
<stop stop-color="#212A3F" stop-opacity="0.9"/>
<stop offset="0.6422" stop-color="#334163" stop-opacity="0.9642"/>
<stop offset="0.7535" stop-color="#38496F" stop-opacity="0.9753"/>
<stop offset="0.9523" stop-color="#47608E" stop-opacity="0.9952"/>
<stop offset="1" stop-color="#4B6696"/>
</linearGradient>
<linearGradient id="paint17_linear" x1="1040.79" y1="267.96" x2="1040.79" y2="249.255" gradientUnits="userSpaceOnUse">
<stop stop-color="#212A3F" stop-opacity="0.9"/>
<stop offset="0.6422" stop-color="#334163" stop-opacity="0.9642"/>
<stop offset="0.7535" stop-color="#38496F" stop-opacity="0.9753"/>
<stop offset="0.9523" stop-color="#47608E" stop-opacity="0.9952"/>
<stop offset="1" stop-color="#4B6696"/>
</linearGradient>
<linearGradient id="paint18_linear" x1="1041.6" y1="247.007" x2="1046.94" y2="241.672" gradientUnits="userSpaceOnUse">
<stop stop-color="#334163" stop-opacity="0.9"/>
<stop offset="0.5" stop-color="#27334C" stop-opacity="0.96"/>
<stop offset="1" stop-color="#212A3F" stop-opacity="0.9642"/>
</linearGradient>
<linearGradient id="paint19_linear" x1="1045.66" y1="246.748" x2="1042.88" y2="241.922" gradientUnits="userSpaceOnUse">
<stop offset="0.5" stop-color="#212A3F"/>
<stop offset="0.51" stop-color="white" stop-opacity="0.9"/>
</linearGradient>
<linearGradient id="paint20_linear" x1="1099.98" y1="189.795" x2="1040.6" y2="114.033" gradientUnits="userSpaceOnUse">
<stop stop-color="#4B6696" stop-opacity="0.9"/>
<stop offset="1" stop-color="#27334C" stop-opacity="0.9642"/>
</linearGradient>
<linearGradient id="paint21_linear" x1="1008.43" y1="252.941" x2="1008.43" y2="234.336" gradientUnits="userSpaceOnUse">
<stop stop-color="#27334C" stop-opacity="0.9642"/>
<stop offset="1" stop-color="white" stop-opacity="0.9"/>
</linearGradient>
<linearGradient id="paint22_linear" x1="1015.55" y1="227.017" x2="1015.55" y2="203.97" gradientUnits="userSpaceOnUse">
<stop stop-color="#27334C" stop-opacity="0"/>
<stop offset="0.1753" stop-color="#2A3752" stop-opacity="0.1016"/>
<stop offset="0.4157" stop-color="#334364" stop-opacity="0.241"/>
<stop offset="0.6925" stop-color="#415781" stop-opacity="0.4015"/>
<stop offset="0.8625" stop-color="#4B6696" stop-opacity="0.5"/>
</linearGradient>
<linearGradient id="paint23_linear" x1="1050.2" y1="209.759" x2="1050.2" y2="220.161" gradientUnits="userSpaceOnUse">
<stop stop-color="#58595B" stop-opacity="0.9642"/>
<stop offset="0.1159" stop-color="#606162" stop-opacity="0.9568"/>
<stop offset="0.2921" stop-color="#757577" stop-opacity="0.9455"/>
<stop offset="0.5067" stop-color="#979899" stop-opacity="0.9317"/>
<stop offset="0.7513" stop-color="#C7C7C8" stop-opacity="0.916"/>
<stop offset="1" stop-color="white" stop-opacity="0.9"/>
</linearGradient>
<linearGradient id="paint24_linear" x1="1037.79" y1="225.535" x2="1037.79" y2="232.982" gradientUnits="userSpaceOnUse">
<stop stop-color="#58595B" stop-opacity="0.9642"/>
<stop offset="0.1242" stop-color="#646567" stop-opacity="0.9562"/>
<stop offset="0.3514" stop-color="#858688" stop-opacity="0.9417"/>
<stop offset="0.6559" stop-color="#BBBBBC" stop-opacity="0.9221"/>
<stop offset="1" stop-color="white" stop-opacity="0.9"/>
</linearGradient>
<linearGradient id="paint25_linear" x1="1049.05" y1="220.249" x2="1049.05" y2="230.475" gradientUnits="userSpaceOnUse">
<stop stop-color="#58595B" stop-opacity="0.9642"/>
<stop offset="0.1156" stop-color="#606163" stop-opacity="0.9568"/>
<stop offset="0.2997" stop-color="#78787A" stop-opacity="0.945"/>
<stop offset="0.5293" stop-color="#9D9E9F" stop-opacity="0.9302"/>
<stop offset="0.7928" stop-color="#D1D1D2" stop-opacity="0.9133"/>
<stop offset="1" stop-color="white" stop-opacity="0.9"/>
</linearGradient>
<linearGradient id="paint26_linear" x1="1008.43" y1="252.941" x2="1008.43" y2="236.196" gradientUnits="userSpaceOnUse">
<stop stop-color="#27334C" stop-opacity="0.9642"/>
<stop offset="1" stop-color="#00AEEF" stop-opacity="0.9"/>
</linearGradient>
<linearGradient id="paint27_linear" x1="1053.29" y1="216.421" x2="1050.44" y2="211.492" gradientUnits="userSpaceOnUse">
<stop offset="0.5" stop-color="#818285"/>
<stop offset="0.51" stop-color="white" stop-opacity="0.9"/>
</linearGradient>
<linearGradient id="paint28_linear" x1="1050.74" y1="212.014" x2="1052.91" y2="215.767" gradientUnits="userSpaceOnUse">
<stop offset="0.5" stop-color="#818285"/>
<stop offset="0.51" stop-color="white" stop-opacity="0.9"/>
</linearGradient>
<linearGradient id="paint29_linear" x1="1051.27" y1="227.139" x2="1047.5" y2="220.605" gradientUnits="userSpaceOnUse">
<stop offset="0.5" stop-color="#818285"/>
<stop offset="0.51" stop-color="white" stop-opacity="0.9"/>
</linearGradient>
<linearGradient id="paint30_linear" x1="1048.11" y1="220.982" x2="1050.91" y2="226.17" gradientUnits="userSpaceOnUse">
<stop offset="0.5" stop-color="#818285"/>
<stop offset="0.51" stop-color="white" stop-opacity="0.9"/>
</linearGradient>
<linearGradient id="paint31_linear" x1="1040.32" y1="229.918" x2="1037.01" y2="224.189" gradientUnits="userSpaceOnUse">
<stop offset="0.5" stop-color="#818285"/>
<stop offset="0.51" stop-color="white" stop-opacity="0.9"/>
</linearGradient>
<linearGradient id="paint32_linear" x1="1036.61" y1="224.674" x2="1039.36" y2="229.434" gradientUnits="userSpaceOnUse">
<stop offset="0.5" stop-color="#818285"/>
<stop offset="0.51" stop-color="white" stop-opacity="0.9"/>
</linearGradient>
<radialGradient id="paint33_radial" cx="0" cy="0" r="1" gradientUnits="userSpaceOnUse" gradientTransform="translate(1051.55 213.668) scale(2.71854)">
<stop stop-color="#FFF064"/>
<stop offset="0.0506" stop-color="#FFF386"/>
<stop offset="0.1247" stop-color="#FFF7B1"/>
<stop offset="0.1966" stop-color="#FFFBD3"/>
<stop offset="0.2646" stop-color="#FFFDEB"/>
<stop offset="0.3272" stop-color="#FFFFFA"/>
<stop offset="0.3792" stop-color="white"/>
<stop offset="0.467" stop-color="#F8F8F8"/>
<stop offset="0.597" stop-color="#E4E4E5"/>
<stop offset="0.7533" stop-color="#C3C3C5"/>
<stop offset="0.9285" stop-color="#969699"/>
<stop offset="1" stop-color="#818285"/>
</radialGradient>
<radialGradient id="paint34_radial" cx="0" cy="0" r="1" gradientUnits="userSpaceOnUse" gradientTransform="translate(1038.28 226.624) scale(3.1982)">
<stop stop-color="#FFF064"/>
<stop offset="0.0879" stop-color="#FFF381"/>
<stop offset="0.2775" stop-color="#FFFACB"/>
<stop offset="0.4021" stop-color="white"/>
<stop offset="0.4976" stop-color="#F2F2F2"/>
<stop offset="0.6752" stop-color="#CFCFD0"/>
<stop offset="0.9138" stop-color="#97989A"/>
<stop offset="1" stop-color="#818285"/>
</radialGradient>
<radialGradient id="paint35_radial" cx="0" cy="0" r="1" gradientUnits="userSpaceOnUse" gradientTransform="translate(1049.15 223.431) scale(3.44853)">
<stop stop-color="#FFF064"/>
<stop offset="0.0232" stop-color="#FFF16C"/>
<stop offset="0.2746" stop-color="#FFF8BB"/>
<stop offset="0.4533" stop-color="#FFFDEC"/>
<stop offset="0.5413" stop-color="white"/>
<stop offset="0.6061" stop-color="#F7F7F7"/>
<stop offset="0.7082" stop-color="#E0E0E1"/>
<stop offset="0.8347" stop-color="#BBBCBE"/>
<stop offset="0.9795" stop-color="#898A8D"/>
<stop offset="1" stop-color="#818285"/>
</radialGradient>
<radialGradient id="paint36_radial" cx="0" cy="0" r="1" gradientUnits="userSpaceOnUse" gradientTransform="translate(1044 243.937) scale(3.06441 3.06408)">
<stop stop-color="#FFF064"/>
<stop offset="0.0152" stop-color="#FFF16C"/>
<stop offset="0.1792" stop-color="#FFF8BB"/>
<stop offset="0.2958" stop-color="#FFFDEC"/>
<stop offset="0.3532" stop-color="white"/>
<stop offset="0.4211" stop-color="#F7F8FA"/>
<stop offset="0.528" stop-color="#E0E4EB"/>
<stop offset="0.6605" stop-color="#BBC3D3"/>
<stop offset="0.8135" stop-color="#8896B2"/>
<stop offset="0.9818" stop-color="#475D89"/>
<stop offset="1" stop-color="#405684"/>
</radialGradient>
<radialGradient id="paint37_radial" cx="0" cy="0" r="1" gradientUnits="userSpaceOnUse" gradientTransform="translate(935.695 227.601) scale(8.09933)">
<stop stop-color="#FFF064"/>
<stop offset="0.1254" stop-color="#FFF16E" stop-opacity="0.9122"/>
<stop offset="0.342" stop-color="#FFF48A" stop-opacity="0.7606"/>
<stop offset="0.6238" stop-color="#FFF8B8" stop-opacity="0.5633"/>
<stop offset="0.9568" stop-color="#FFFEF6" stop-opacity="0.3303"/>
<stop offset="1" stop-color="white" stop-opacity="0.3"/>
</radialGradient>
<radialGradient id="paint38_radial" cx="0" cy="0" r="1" gradientUnits="userSpaceOnUse" gradientTransform="translate(921.174 228.475) scale(7.93378)">
<stop stop-color="#F7941E"/>
<stop offset="1" stop-color="#FF9827" stop-opacity="0.5"/>
</radialGradient>
<radialGradient id="paint39_radial" cx="0" cy="0" r="1" gradientUnits="userSpaceOnUse" gradientTransform="translate(921.173 228.357) scale(8.19087)">
<stop stop-color="#FFB94A"/>
<stop offset="1" stop-color="white" stop-opacity="0.5"/>
</radialGradient>
<linearGradient id="paint40_linear" x1="907.849" y1="184.787" x2="985.492" y2="184.787" gradientUnits="userSpaceOnUse">
<stop offset="0.492042" stop-color="#334163" stop-opacity="0"/>
<stop offset="1" stop-color="#27334C"/>
</linearGradient>
</defs>
</svg>
