<svg width="1210" height="880" viewBox="0 0 1210 880" fill="none" xmlns="http://www.w3.org/2000/svg">
<mask id="mask0" mask-type="alpha" maskUnits="userSpaceOnUse" x="0" y="0" width="1210" height="880">
<rect width="1210" height="880" fill="#C4C4C4"/>
</mask>
<g mask="url(#mask0)">
<path d="M1040.71 193.314C1041 193.314 1041.27 193.081 1041.32 192.797L1043.65 175.95C1043.67 175.662 1043.46 175.428 1043.17 175.428H1041.27C1040.98 175.428 1040.73 175.663 1040.7 175.95L1038.38 192.797C1038.33 193.083 1038.53 193.314 1038.82 193.314H1040.71Z" fill="#212A3F"/>
<path d="M1038.37 192.894C1038.37 192.88 1038.39 192.876 1038.39 192.864L1040.75 175.472C1040.67 174.263 1039.37 172.317 1037.77 171.184C1035.57 171.353 1033.36 171.549 1031.16 171.789C1028.74 172.054 1026.44 172.502 1024.04 172.997C1023.93 173.02 1023.81 173.046 1023.7 173.068C1028.77 176.784 1037.83 190.249 1038.3 193.074C1038.33 193.03 1038.35 192.982 1038.37 192.894Z" fill="#212A3F"/>
<path opacity="0.8" d="M1038.37 192.894C1038.37 192.88 1038.39 192.876 1038.39 192.864L1040.75 175.472C1040.67 174.263 1039.37 172.317 1037.77 171.184C1035.57 171.353 1033.36 171.549 1031.16 171.789C1028.74 172.054 1026.44 172.502 1024.04 172.997C1023.93 173.02 1023.81 173.046 1023.7 173.068C1028.77 176.784 1037.83 190.249 1038.3 193.074C1038.33 193.03 1038.35 192.982 1038.37 192.894Z" fill="url(#paint0_linear)"/>
<path d="M1038.09 193.142C1038.19 193.191 1038.26 193.173 1038.31 193.071C1037.91 190.339 1028.85 176.844 1023.75 173.061C1014.23 175.024 1004.74 177.17 995.225 178.949C1007.85 181.282 1034.8 190.158 1038.09 193.142Z" fill="#212A3F"/>
<path d="M1053.77 167.476C1053.74 167.06 1053.54 164.01 1053.36 161.28C1053.17 158.346 1049.58 153.552 1049.07 151.482C1047.94 143.584 1046.12 135.779 1043.41 128.81C1033.66 103.739 1013.25 84.9628 978.617 86.0423C945.102 87.0821 921.971 110.034 913.79 134.309C909.451 147.175 910.161 160.656 911.639 170.914C909.266 171.071 898.138 173.264 891.797 175.627C886.566 177.579 885.461 179.644 885.658 182.933L885.767 185.85C886.029 187.271 886.651 187.876 887.66 188.91C890.743 192.07 895.892 192.803 900.253 193.211C905.795 193.731 911.383 193.591 916.871 192.799C929.37 190.992 941.78 188.362 954.218 186.18C966.949 183.948 979.68 181.714 991.614 179.62C1002.44 177.719 1013.22 175.219 1024.04 172.992C1026.44 172.498 1028.74 172.049 1031.16 171.784C1039.57 170.86 1048.04 170.582 1056.48 170.074L1056.5 167.324C1055.59 167.378 1054.68 167.424 1053.77 167.476Z" fill="#FF9F36"/>
<path opacity="0.2" d="M1043.41 128.812C1040.73 121.914 1037.23 115.498 1032.86 109.835C1021.18 97.3122 998.741 91.0437 976.282 95.7735C952.318 100.822 938.844 118.346 932.923 129.159C931.661 131.466 930.521 133.838 929.511 136.265C928.578 138.502 927.756 140.787 927.047 143.107C926.394 145.247 925.835 147.414 925.367 149.601C924.939 151.61 924.585 153.633 924.3 155.666C924.225 156.21 924.152 156.756 924.085 157.302C924.055 157.545 924.087 157.824 923.899 158.013C923.308 158.603 922.255 158.215 922.306 157.348C922.337 156.823 922.397 156.3 922.451 155.777C924.141 138.887 933.988 112.849 956.546 99.6141C973.44 89.704 992.689 87.1418 1009.94 91.6501C1001.14 87.7343 990.755 85.6657 978.617 86.0442C945.102 87.0839 921.971 110.036 913.789 134.311C909.449 147.177 910.161 160.658 911.639 170.916V170.91C914.403 174.517 924.891 181.586 960.017 177.852C995.141 174.118 1002.82 173.119 1002.82 173.119L1002.99 173.098C1003.14 173.243 1003.36 173.366 1003.7 173.519L1004.46 173.808C1005.04 174.051 1005.48 174.086 1005.87 174.054L1005.93 174.083C1011.97 172.819 1018.01 171.496 1024.06 170.251C1026.46 169.757 1028.76 169.308 1031.18 169.044C1037.59 168.341 1044.03 168.011 1050.46 167.671C1050.08 154.718 1047.99 140.573 1043.41 128.812Z" fill="url(#paint1_radial)"/>
<path d="M911.639 170.914C914.403 174.521 924.892 181.591 960.017 177.856C995.141 174.122 1002.82 173.124 1002.82 173.124" stroke="#F7941E" stroke-width="0.7807" stroke-miterlimit="10"/>
<path opacity="0.5" d="M966.203 156.206C967.281 156.206 968.155 155.332 968.155 154.253C968.155 153.175 967.281 152.301 966.203 152.301C965.124 152.301 964.25 153.175 964.25 154.253C964.25 155.332 965.124 156.206 966.203 156.206Z" fill="#334163"/>
<path d="M1032.83 109.789C1026.87 102.091 1019.29 95.801 1009.88 91.6261C992.648 87.1382 973.421 89.707 956.547 99.6063C933.99 112.841 924.142 138.879 922.452 155.769C922.398 156.292 922.339 156.814 922.306 157.339C922.256 158.204 923.31 158.595 923.9 158.002C924.088 157.815 924.056 157.536 924.086 157.293C924.154 156.746 924.226 156.201 924.301 155.657C924.587 153.624 924.94 151.603 925.368 149.593C925.836 147.406 926.393 145.237 927.048 143.097C927.757 140.778 928.579 138.494 929.511 136.254C930.521 133.828 931.662 131.455 932.924 129.15C938.845 118.336 952.318 100.814 976.282 95.7657C998.721 91.0413 1021.14 97.2903 1032.83 109.789Z" fill="url(#paint2_linear)"/>
<path d="M1043.41 128.812C1040.73 121.914 1037.23 115.498 1032.86 109.835C1021.18 97.3122 998.741 91.0437 976.282 95.7735C952.318 100.822 938.844 118.346 932.923 129.159C931.661 131.466 930.521 133.838 929.511 136.265C928.578 138.502 927.756 140.787 927.047 143.107C926.394 145.247 925.835 147.414 925.367 149.601C924.939 151.61 924.585 153.633 924.3 155.666C924.225 156.21 924.152 156.756 924.085 157.302C924.055 157.545 924.087 157.824 923.899 158.013C923.308 158.603 922.255 158.215 922.306 157.348C922.337 156.823 922.397 156.3 922.451 155.777C924.141 138.887 933.988 112.849 956.546 99.6141C973.44 89.704 992.689 87.1418 1009.94 91.6501C1001.14 87.7343 990.755 85.6657 978.617 86.0442C945.102 87.0839 921.971 110.036 913.789 134.311C909.449 147.177 910.161 160.658 911.639 170.916V170.91C914.403 174.517 924.891 181.586 960.017 177.852C995.141 174.118 1002.82 173.119 1002.82 173.119L1002.99 173.098C1003.14 173.243 1003.36 173.366 1003.7 173.519L1004.46 173.808C1005.04 174.051 1005.48 174.086 1005.87 174.054L1005.93 174.083C1011.97 172.819 1018.01 171.496 1024.06 170.251C1026.46 169.757 1028.76 169.308 1031.18 169.044C1037.59 168.341 1044.03 168.011 1050.46 167.671C1050.08 154.718 1047.99 140.573 1043.41 128.812Z" fill="url(#paint3_linear)"/>
<g opacity="0.5">
<path opacity="0.4" d="M1005.87 174.05C1005.48 174.081 1005.04 174.047 1004.46 173.804L1003.7 173.514C1003.36 173.362 1003.14 173.238 1002.99 173.094L1002.82 173.114C1002.82 173.114 995.141 174.114 960.018 177.848C924.933 181.577 914.429 174.529 911.65 170.92H911.639C909.267 171.076 898.139 173.268 891.797 175.633C886.525 177.601 885.441 179.68 885.661 183.014L885.657 182.926C885.92 184.347 886.672 185.554 887.679 186.587C890.763 189.746 895.911 190.479 900.272 190.889C905.816 191.408 911.402 190.846 916.89 190.053C929.389 188.247 941.8 185.618 954.238 183.436C966.969 181.202 979.699 178.969 991.634 176.874C996.407 176.037 1001.17 175.073 1005.93 174.078L1005.87 174.05Z" fill="#FFF9C1"/>
</g>
<path d="M1028.43 160.737C1028.43 160.715 1028.43 160.691 1028.42 160.668L1028.42 160.606L1028.41 160.607C1028.4 160.571 1028.39 160.538 1028.38 160.5C1028.25 160.204 1027.99 159.947 1027.41 159.986L1022.36 160.292C1022.47 160.087 1022.42 159.814 1022.27 159.509L1018.53 151.686C1017.84 150.246 1016.97 150.228 1016.08 150.325L1007.55 151.238C1006.91 151.329 1006.39 151.376 1006.24 151.989L1005.92 161.288L1003.12 161.456C1002.79 161.48 1002.64 161.598 1002.63 161.758L1002.61 161.76L1002.71 172.084C1002.72 172.909 1002.82 173.119 1003.71 173.511L1004.46 173.8C1005.35 174.172 1005.91 174.079 1006.48 173.957C1006.48 173.957 1017.85 171.524 1024.06 170.244C1025.86 169.874 1028.34 169.448 1028.34 169.448C1028.91 169.349 1029.33 168.799 1029.27 168.221L1028.43 160.737Z" fill="#FFB94A"/>
<path opacity="0.7" d="M1002.9 162.154C1002.7 162.002 1002.63 161.863 1002.63 161.742L1002.61 161.744L1002.71 172.068C1002.72 172.893 1002.82 173.103 1003.71 173.494L1004.46 173.784C1005.04 174.026 1005.48 174.064 1005.87 174.031L1005.77 164.067C1005.77 164.067 1005.75 164.011 1005.73 163.914C1005.48 163.826 1005.26 163.718 1005.08 163.584L1002.9 162.154Z" fill="#FF9827"/>
<path opacity="0.7" d="M1028.43 160.711C1028.43 160.903 1028.29 161.062 1027.89 161.129L1006.95 164.089C1006.59 164.137 1006.13 164.061 1005.73 163.913C1005.75 164.005 1005.76 164.056 1005.76 164.056L1005.87 174.028C1006.08 174.011 1006.28 173.982 1006.47 173.939C1006.47 173.939 1017.85 171.506 1024.06 170.227C1025.86 169.856 1028.34 169.431 1028.34 169.431C1028.91 169.332 1029.33 168.781 1029.27 168.205L1028.43 160.711Z" fill="url(#paint4_linear)"/>
<path opacity="0.7" d="M1007.8 153.14C1007.8 153.14 1007.61 151.476 1006.88 151.373C1006.57 151.463 1006.33 151.619 1006.24 151.992L1005.91 161.427C1005.9 161.927 1005.78 162.364 1006.44 162.445L1007.45 162.525C1007.77 162.591 1008.1 162.609 1008.5 162.595L1007.8 153.14Z" fill="#FF9827"/>
<path opacity="0.7" d="M1022.27 159.486L1018.53 151.662C1017.84 150.223 1016.97 150.205 1016.08 150.301L1007.55 151.215C1007.26 151.257 1006.99 151.294 1006.78 151.376C1006.82 151.38 1006.86 151.382 1006.88 151.377C1007.61 151.48 1007.8 153.143 1007.8 153.143L1008.5 162.57C1008.75 162.561 1009.02 162.542 1009.34 162.5L1021.67 160.614C1022.53 160.482 1022.53 160.033 1022.27 159.486Z" fill="url(#paint5_linear)"/>
<path opacity="0.3" d="M953.905 161.664C953.563 160.228 953.248 159.113 953.024 158.355H953.018C952.929 158.087 952.637 157.879 952.354 157.891L951.393 157.873L951.39 157.874L938.772 158.455C938.489 158.47 938.226 158.702 938.145 158.987C938.032 159.378 938 159.816 937.943 160.217C937.859 160.784 937.786 161.357 937.722 161.929C937.542 163.497 937.417 165.074 937.328 166.65C937.211 168.734 937.159 170.818 937.164 172.903C937.171 175.42 937.261 177.935 937.431 180.447C937.465 180.977 937.442 181.591 938.107 181.603C938.306 181.605 938.508 181.582 938.707 181.573C939.584 181.531 940.462 181.49 941.338 181.449C942.605 181.388 943.869 181.327 945.134 181.268C946.485 181.203 947.836 181.138 949.185 181.074C950.321 181.019 951.453 180.965 952.587 180.911C953.203 180.881 953.82 180.852 954.435 180.822C954.474 180.82 954.514 180.82 954.55 180.816C954.701 180.802 954.848 180.766 954.964 180.687L954.971 180.697C956.257 179.851 959.073 178.386 959.073 177.963C959.072 170.074 954.067 162.346 953.905 161.664Z" fill="#4B6696"/>
<path d="M955.166 180.22C954.853 169.043 952.913 161.204 952.059 158.353C951.969 158.085 951.677 157.876 951.394 157.889L938.772 158.472C938.489 158.485 938.226 158.719 938.145 159.003C938.032 159.393 938 159.831 937.943 160.232C937.859 160.801 937.786 161.373 937.722 161.944C937.542 163.513 937.417 165.09 937.328 166.665C937.211 168.749 937.159 170.834 937.164 172.92C937.171 175.436 937.261 177.952 937.431 180.462C937.465 180.993 937.442 181.606 938.107 181.619C938.306 181.621 938.508 181.598 938.707 181.59C939.584 181.548 940.462 181.505 941.338 181.464C942.605 181.404 943.869 181.342 945.134 181.283C946.485 181.218 947.836 181.153 949.185 181.089C950.321 181.034 951.453 180.981 952.587 180.926C953.203 180.897 953.82 180.868 954.435 180.838C954.474 180.836 954.514 180.836 954.55 180.832C954.864 180.799 955.18 180.695 955.166 180.22Z" fill="#FF9827"/>
<path opacity="0.4" d="M955.197 180.22C954.883 169.043 952.943 161.204 952.089 158.353C951.999 158.085 951.707 157.876 951.424 157.889L938.801 158.472C938.519 158.485 938.256 158.719 938.173 159.003C938.062 159.393 938.029 159.831 937.972 160.232C937.888 160.801 937.815 161.373 937.751 161.944C937.571 163.513 937.445 165.09 937.356 166.665C937.24 168.749 937.187 170.834 937.194 172.92C937.2 175.436 937.291 177.952 937.459 180.462C937.494 180.993 937.471 181.606 938.137 181.619C938.335 181.621 938.537 181.598 938.736 181.59C939.612 181.548 940.492 181.505 941.367 181.464C942.633 181.404 943.898 181.342 945.161 181.283C946.513 181.218 947.864 181.153 949.214 181.089C950.348 181.034 951.482 180.981 952.617 180.926C953.232 180.897 953.849 180.868 954.465 180.838C954.502 180.836 954.541 180.836 954.58 180.832C954.895 180.799 955.21 180.695 955.197 180.22Z" fill="url(#paint6_linear)"/>
<path opacity="0.2" d="M1030.57 180.397C1030.22 179.934 1029.83 180.017 1029.69 180.581L1028.1 187.399C1027.97 187.962 1028.3 188.59 1028.84 188.796L1031.86 189.975C1032.39 190.189 1032.94 189.907 1033.07 189.343L1033.8 186.238C1033.93 185.676 1033.77 184.825 1033.44 184.352L1030.57 180.397Z" fill="#405684"/>
<path opacity="0.2" d="M1038.05 192.159C1038.27 192.694 1037.93 193.036 1037.46 192.696L1035.25 191.464C1034.73 191.209 1034.41 190.54 1034.55 189.976L1034.99 188.061C1035.13 187.499 1035.41 187.486 1035.76 187.948C1036.16 188.477 1037.84 191.633 1038.05 192.159Z" fill="#405684"/>
<path opacity="0.2" d="M1028.16 177.488C1026.55 175.608 1025 174.019 1023.7 173.07L1023.51 173.109C1023.35 173.146 1022.8 173.698 1022.67 174.259L1020.24 184.662C1020.1 185.224 1020.44 185.838 1020.99 186.022L1025.37 187.529C1025.92 187.72 1026.47 187.417 1026.6 186.853L1028.44 179.026C1028.55 178.562 1028.42 177.94 1028.16 177.488Z" fill="#405684"/>
<path opacity="0.1" d="M951.493 129.912C952.032 128.902 952.328 127.938 952.195 127.172C951.081 120.693 943.126 126.29 941.94 129.788C940.887 132.886 941.439 137.772 945.845 135.817C947.375 135.139 950.169 132.392 951.493 129.912Z" fill="white"/>
<path opacity="0.1" d="M949.529 130.013C949.894 129.328 950.093 128.675 950.005 128.156C949.251 123.771 943.865 127.561 943.06 129.928C942.35 132.023 942.724 135.333 945.707 134.008C946.74 133.551 948.632 131.691 949.529 130.013Z" fill="white"/>
<g opacity="0.5">
<path opacity="0.5" d="M938.158 162.728C938.188 162.738 938.214 162.763 938.248 162.763H942.139C942.285 162.763 942.403 162.646 942.403 162.5C942.403 162.355 942.285 162.237 942.139 162.237H938.248C938.23 162.237 938.22 162.251 938.205 162.256C938.346 160.87 938.473 159.951 938.508 159.698C938.529 159.554 938.429 159.42 938.285 159.402C938.139 159.377 938.007 159.482 937.989 159.625C937.876 160.416 936.893 167.596 937.249 175.658C937.256 175.801 937.372 175.91 937.511 175.91C937.516 175.91 937.519 175.91 937.523 175.91C937.67 175.903 937.78 175.78 937.774 175.636C937.547 170.479 937.868 165.697 938.158 162.728Z" fill="white"/>
<path opacity="0.5" d="M949.376 180.539C947.841 180.65 939.466 181.064 938.036 181.064C937.891 181.064 937.773 181.182 937.773 181.328C937.773 181.471 937.891 181.591 938.036 181.591C939.473 181.591 947.874 181.174 949.411 181.064C949.557 181.053 949.665 180.928 949.655 180.785C949.646 180.638 949.515 180.519 949.376 180.539Z" fill="white"/>
<path opacity="0.5" d="M934.869 121.171C934.511 121.686 934.159 122.223 933.813 122.775C933.737 122.896 933.774 123.061 933.897 123.138C933.94 123.163 933.988 123.176 934.037 123.176C934.124 123.176 934.209 123.134 934.259 123.055C934.6 122.508 934.951 121.981 935.301 121.471C935.384 121.353 935.354 121.187 935.234 121.105C935.115 121.024 934.951 121.052 934.869 121.171Z" fill="white"/>
<path opacity="0.5" d="M932.307 125.354C929.687 130.099 927.561 135.404 926.803 137.546C926.753 137.682 926.825 137.833 926.962 137.881C926.99 137.892 927.021 137.897 927.049 137.897C927.158 137.897 927.259 137.831 927.296 137.722C928.051 135.594 930.165 130.325 932.766 125.609C932.837 125.482 932.789 125.32 932.663 125.252C932.537 125.181 932.379 125.228 932.307 125.354Z" fill="white"/>
</g>
<g opacity="0.8">
<path opacity="0.5" d="M985.744 145.878C985.19 145.878 984.654 145.587 984.366 145.071L979.979 137.178C979.555 136.418 979.829 135.458 980.588 135.036C981.351 134.611 982.307 134.885 982.732 135.647L987.12 143.537C987.544 144.299 987.27 145.259 986.508 145.68C986.266 145.816 986.005 145.878 985.744 145.878Z" fill="#334163"/>
</g>
<g opacity="0.8">
<path opacity="0.5" d="M971.922 152.985C971.366 152.985 970.827 152.69 970.54 152.168L969.11 149.57C968.69 148.808 968.968 147.85 969.729 147.429C970.492 147.012 971.45 147.285 971.871 148.05L973.301 150.648C973.722 151.41 973.444 152.369 972.681 152.788C972.439 152.922 972.179 152.985 971.922 152.985Z" fill="#334163"/>
</g>
<g opacity="0.8">
<path opacity="0.5" d="M981.137 148.248C980.583 148.248 980.046 147.956 979.76 147.438L976.355 141.31C975.932 140.549 976.206 139.589 976.967 139.167C977.726 138.745 978.688 139.018 979.109 139.78L982.513 145.907C982.936 146.668 982.661 147.628 981.9 148.05C981.659 148.184 981.396 148.248 981.137 148.248Z" fill="#334163"/>
</g>
<g opacity="0.8">
<path opacity="0.5" d="M976.531 150.615C975.977 150.615 975.441 150.323 975.151 149.804L972.733 145.44C972.311 144.68 972.586 143.719 973.347 143.298C974.108 142.879 975.066 143.151 975.489 143.913L977.908 148.275C978.331 149.036 978.055 149.994 977.294 150.416C977.051 150.553 976.79 150.615 976.531 150.615Z" fill="#334163"/>
</g>
<path opacity="0.6" d="M1210 0H1175V880H1210V0Z" fill="#27334C"/>
<path opacity="0.5" d="M1210 880V191.577C1202.44 162.198 1190.68 134.144 1175 108.154V880H1210Z" fill="#212A3F"/>
<g opacity="0.5">
<path opacity="0.5" d="M1193.5 16.5273H1191.5V37.9973H1193.5V16.5273Z" fill="white"/>
</g>
<g opacity="0.5">
<path opacity="0.5" d="M1193.5 53.0254H1191.5V74.4963H1193.5V53.0254Z" fill="white"/>
</g>
<g opacity="0.5">
<path opacity="0.5" d="M1193.5 89.5254H1191.5V110.995H1193.5V89.5254Z" fill="white"/>
</g>
<g opacity="0.5">
<path opacity="0.5" d="M1193.5 126.023H1191.5V147.492H1193.5V126.023Z" fill="white"/>
</g>
<path opacity="0.3" d="M1210 0H1209V880H1210V0Z" fill="white"/>
<path opacity="0.3" d="M1176 0H1175V880H1176V0Z" fill="white"/>
<path d="M1175 270.875V880H1210V270.875C1210 189.173 1178.18 112.36 1120.41 54.5889C1098.3 32.4749 1073.39 14.18 1046.49 0H904.125C976.479 0 1044.5 28.1759 1095.66 79.3369C1146.82 130.498 1175 198.522 1175 270.875Z" fill="#334163"/>
<path opacity="0.1" d="M1175 270.875V880H1210V270.875C1210 189.173 1178.18 112.36 1120.41 54.5889C1098.3 32.4749 1073.39 14.18 1046.49 0H904.125C976.479 0 1044.5 28.1759 1095.66 79.3369C1146.82 130.498 1175 198.522 1175 270.875Z" fill="#27334C"/>
<path opacity="0.5" d="M1036.72 13.9539C1036.15 13.6759 1035.58 13.392 1035.01 13.105L1028.4 9.81592C1027.43 9.32892 1026.7 8.96587 1026.15 8.74487L1025.31 8.375L1024.5 10.2048L1025.37 10.5869C1025.87 10.7909 1026.57 11.137 1027.5 11.606L1034.12 14.895C1034.69 15.183 1035.26 15.4668 1035.83 15.7478C1037.63 16.6388 1039.33 17.48 1040.64 18.261L1043.57 19.8999L1044.55 18.156L1041.64 16.5288C1040.29 15.7218 1038.55 14.8639 1036.72 13.9539Z" fill="white"/>
<path opacity="0.5" d="M1061.31 28.1409L1057.56 25.7969L1056.5 27.4919L1060.26 29.8389C1061.79 30.7919 1063.69 31.9779 1065.49 33.2839L1074.31 39.4258L1075.45 37.7849L1066.65 31.6548C1064.81 30.3188 1062.87 29.1109 1061.31 28.1409Z" fill="white"/>
<path opacity="0.5" d="M1096.68 54.9451C1096.33 54.6431 1095.97 54.3391 1095.61 54.0261L1087.45 47.0312L1086.15 48.5513L1094.3 55.5391C1094.66 55.8521 1095.03 56.1622 1095.39 56.4692C1096.03 57.0192 1096.67 57.5602 1097.25 58.0972L1102.18 62.7803L1103.56 61.3311L1098.62 56.6392C1098.01 56.0742 1097.35 55.5131 1096.68 54.9451Z" fill="white"/>
<path opacity="0.5" d="M1118.92 76.9629C1118.37 76.3509 1117.82 75.779 1117.31 75.251C1117.04 74.97 1116.79 74.7009 1116.54 74.4399L1114.22 72.0078L1112.78 73.387L1115.09 75.814C1115.33 76.075 1115.6 76.3478 1115.87 76.6338C1116.36 77.1498 1116.9 77.7069 1117.42 78.2859L1126.41 88.6968C1126.75 89.1048 1126.94 89.3549 1126.95 89.3689L1128.56 88.1848C1128.56 88.1848 1128.35 87.8949 1127.94 87.4019L1118.92 76.9629Z" fill="white"/>
<path opacity="0.5" d="M1137.77 100.104L1136.14 101.256L1143.14 111.2L1148.13 119.025L1149.82 117.954L1145.37 110.929L1137.77 100.104Z" fill="white"/>
<path opacity="0.5" d="M1162.53 140.489C1162.09 139.624 1161.65 138.754 1161.23 137.913C1160.49 136.426 1159.79 135.02 1159.15 133.873L1157.49 130.951L1155.75 131.939L1157.4 134.852C1158.02 135.954 1158.71 137.339 1159.44 138.806C1159.86 139.653 1160.3 140.53 1160.75 141.394L1164.05 147.952L1165.42 151.019L1167.24 150.205L1165.85 147.095L1162.53 140.489Z" fill="white"/>
<path opacity="0.5" d="M1175.2 169.375C1174.9 168.604 1174.62 167.883 1174.37 167.223L1173.17 164.09L1171.3 164.809L1172.51 167.933C1172.75 168.592 1173.04 169.323 1173.34 170.103C1173.91 171.545 1174.54 173.179 1175.11 174.807L1178.47 185.013L1180.37 184.386L1177 174.168C1176.42 172.49 1175.77 170.834 1175.2 169.375Z" fill="white"/>
<path opacity="0.5" d="M1188.23 215.621C1188.11 214.907 1187.98 214.099 1187.79 213.273L1185.31 202.226C1184.9 200.235 1184.51 198.938 1184.5 198.883L1182.58 199.452C1182.58 199.465 1182.96 200.731 1183.36 202.649L1185.84 213.714C1186.01 214.485 1186.14 215.228 1186.26 215.945C1186.32 216.336 1186.38 216.71 1186.45 217.046L1187.02 220.357L1188.99 220.015L1188.41 216.691C1188.35 216.356 1188.29 215.996 1188.23 215.621Z" fill="white"/>
<path opacity="0.5" d="M1192.36 245.667C1192.32 245.196 1192.29 244.726 1192.26 244.258C1192.19 243.387 1192.13 242.528 1192.04 241.693L1191.22 234.941L1189.23 235.185L1190.06 241.92C1190.14 242.717 1190.2 243.551 1190.26 244.398C1190.29 244.873 1190.33 245.35 1190.36 245.821L1191.15 256.54L1193.14 256.394L1192.36 245.667Z" fill="white"/>
<path opacity="0.5" d="M1193.5 271.508H1191.5V293.002H1193.5V271.508Z" fill="white"/>
<path opacity="0.5" d="M1193.5 308.049H1191.5V329.543H1193.5V308.049Z" fill="white"/>
<path opacity="0.5" d="M1193.5 344.59H1191.5V366.084H1193.5V344.59Z" fill="white"/>
<path opacity="0.5" d="M1193.5 381.131H1191.5V402.625H1193.5V381.131Z" fill="white"/>
<path opacity="0.5" d="M1193.5 417.672H1191.5V439.166H1193.5V417.672Z" fill="white"/>
<path opacity="0.5" d="M1193.5 454.213H1191.5V475.707H1193.5V454.213Z" fill="white"/>
<path opacity="0.5" d="M1193.5 673.479H1191.5V694.972H1193.5V673.479Z" fill="white"/>
<path opacity="0.5" d="M1193.5 490.754H1191.5V512.248H1193.5V490.754Z" fill="white"/>
<path opacity="0.5" d="M1193.5 710.02H1191.5V731.513H1193.5V710.02Z" fill="white"/>
<path opacity="0.5" d="M1193.5 527.295H1191.5V548.789H1193.5V527.295Z" fill="white"/>
<path opacity="0.5" d="M1193.5 746.561H1191.5V768.054H1193.5V746.561Z" fill="white"/>
<path opacity="0.5" d="M1193.5 563.836H1191.5V585.33H1193.5V563.836Z" fill="white"/>
<path opacity="0.5" d="M1193.5 783.102H1191.5V804.595H1193.5V783.102Z" fill="white"/>
<path opacity="0.5" d="M1193.5 600.377H1191.5V621.871H1193.5V600.377Z" fill="white"/>
<path opacity="0.5" d="M1193.5 819.643H1191.5V841.136H1193.5V819.643Z" fill="white"/>
<path opacity="0.5" d="M1193.5 636.918H1191.5V658.412H1193.5V636.918Z" fill="white"/>
<path opacity="0.5" d="M1193.5 856.184H1191.5V877.677H1193.5V856.184Z" fill="white"/>
<path opacity="0.5" d="M999.367 0C999.806 0.15 1000.25 0.302984 1000.68 0.458984L1010.72 4.29785L1011.43 2.43091L1005.08 0H999.367Z" fill="white"/>
<path opacity="0.3" d="M1175 270.875V880H1176V270.875C1176 198.254 1147.72 129.98 1096.37 78.6299C1050.56 32.8229 991.289 5.393 927.477 0H904.125C976.479 0 1044.5 28.1759 1095.66 79.3369C1146.82 130.498 1175 198.522 1175 270.875Z" fill="white"/>
<path opacity="0.3" d="M1209 270.875V880H1210V270.875C1210 189.173 1178.18 112.36 1120.41 54.5889C1098.3 32.4749 1073.39 14.18 1046.49 0H1044.32C1071.78 14.254 1097.2 32.7889 1119.7 55.2959C1177.29 112.879 1209 189.44 1209 270.875Z" fill="white"/>
</g>
<defs>
<linearGradient id="paint0_linear" x1="1020.71" y1="164.507" x2="1038.96" y2="182.983" gradientUnits="userSpaceOnUse">
<stop stop-color="#212A3F" stop-opacity="0.9"/>
<stop offset="1" stop-color="#405684"/>
</linearGradient>
<radialGradient id="paint1_radial" cx="0" cy="0" r="1" gradientUnits="userSpaceOnUse" gradientTransform="translate(950.609 106.451) scale(71.443)">
<stop stop-color="white"/>
<stop offset="1" stop-color="#FFAA00"/>
</radialGradient>
<linearGradient id="paint2_linear" x1="922.305" y1="123.891" x2="1032.83" y2="123.891" gradientUnits="userSpaceOnUse">
<stop stop-color="#4B6696" stop-opacity="0.2"/>
<stop offset="1" stop-color="#334163"/>
</linearGradient>
<linearGradient id="paint3_linear" x1="910.499" y1="132.455" x2="1050.46" y2="132.455" gradientUnits="userSpaceOnUse">
<stop stop-color="#4B6696" stop-opacity="0"/>
<stop offset="1" stop-color="#4B6696"/>
</linearGradient>
<linearGradient id="paint4_linear" x1="1045.13" y1="162.837" x2="997.977" y2="170.199" gradientUnits="userSpaceOnUse">
<stop stop-color="#27334C"/>
<stop offset="0.4862" stop-color="#4B6696"/>
<stop offset="1" stop-color="#4B6696" stop-opacity="0"/>
</linearGradient>
<linearGradient id="paint5_linear" x1="1043.35" y1="151.426" x2="996.195" y2="158.788" gradientUnits="userSpaceOnUse">
<stop stop-color="#27334C"/>
<stop offset="0.4862" stop-color="#4B6696"/>
<stop offset="1" stop-color="#4B6696" stop-opacity="0"/>
</linearGradient>
<linearGradient id="paint6_linear" x1="946.196" y1="181.619" x2="946.196" y2="157.889" gradientUnits="userSpaceOnUse">
<stop stop-color="#FFB94A" stop-opacity="0.9"/>
<stop offset="0.6514" stop-color="#FFB94A" stop-opacity="0.9248"/>
<stop offset="0.8073" stop-color="#FFF064" stop-opacity="0.7"/>
<stop offset="1" stop-color="#405684" stop-opacity="0.8"/>
</linearGradient>
</defs>
</svg>
