<svg width="1211" height="680" viewBox="0 0 1211 680" fill="none" xmlns="http://www.w3.org/2000/svg">
<mask id="mask0" mask-type="alpha" maskUnits="userSpaceOnUse" x="0" y="0" width="1211" height="680">
<rect x="0.00195312" width="1210" height="680" fill="white"/>
</mask>
<g mask="url(#mask0)">
<path d="M990.676 223.834H974.676V265.696H990.676V223.834Z" fill="url(#paint0_linear)"/>
<path opacity="0.05" d="M990.676 223.695H974.676V265.557H990.676V223.695Z" fill="url(#paint1_linear)"/>
<path opacity="0.4" d="M990.676 223.695H974.676V265.557H990.676V223.695Z" fill="url(#paint2_linear)"/>
<path d="M1053.5 216.354C1053.5 220.434 1050.16 223.773 1046.08 223.773H918.911C914.833 223.773 911.494 220.434 911.494 216.354V89.186C911.494 85.106 914.833 81.7676 918.911 81.7676H1046.08C1050.16 81.7676 1053.5 85.106 1053.5 89.186V216.354Z" fill="#405684"/>
<path opacity="0.5" d="M1053.5 216.275C1053.5 220.355 1050.16 223.694 1046.08 223.694H918.911C914.833 223.694 911.494 220.355 911.494 216.275V89.1058C911.494 85.0259 914.833 81.6875 918.911 81.6875H1046.08C1050.16 81.6875 1053.5 85.0259 1053.5 89.1058V216.275Z" fill="url(#paint3_linear)"/>
<g opacity="0.7">
<g opacity="0.7">
<path opacity="0.7" d="M1046.08 219.005H918.909C917.474 219.005 916.26 217.792 916.26 216.356V89.1875C916.26 87.7499 917.474 86.5371 918.909 86.5371H1046.08C1047.52 86.5371 1048.73 87.7499 1048.73 89.1875V216.356C1048.73 217.792 1047.52 219.005 1046.08 219.005ZM919.439 215.825H1045.55V89.7177H919.439V215.825Z" fill="white"/>
</g>
</g>
<path opacity="0.7" d="M1039.67 194.337L985.022 99.6764C983.632 97.2725 981.36 97.2714 979.972 99.6764L925.319 194.337C923.93 196.742 925.067 198.711 927.845 198.711H1037.15C1039.93 198.711 1041.06 196.742 1039.67 194.337Z" fill="white"/>
<path d="M1002.22 186.068L997.374 166.218C997.245 165.684 996.821 164.929 996.434 164.538L987.367 155.423C986.979 155.035 986.663 154.266 986.663 153.716V133.502C986.663 132.954 986.272 132.28 985.795 132.008L979.962 128.668C979.485 128.395 978.705 128.395 978.229 128.667L963.457 137.119C962.981 137.39 962.59 138.064 962.59 138.612V153.481C962.59 155.053 963.864 156.328 965.437 156.328C967.009 156.328 968.282 155.053 968.282 153.481V141.801C968.282 141.252 968.673 140.58 969.15 140.306L973.71 137.697C974.187 137.423 974.578 137.65 974.578 138.199V153.238C974.578 153.786 974.893 154.554 975.282 154.945L989.698 169.438C990.085 169.83 990.509 170.584 990.638 171.118L994.735 187.896C995.165 189.657 996.74 190.837 998.474 190.837C998.778 190.837 999.084 190.802 999.391 190.726C1001.46 190.22 1002.72 188.134 1002.22 186.068Z" fill="#334163"/>
<path d="M988.91 143.21V149.232C988.91 149.78 989.229 150.546 989.619 150.933L996.04 157.303C996.594 157.853 997.321 158.129 998.045 158.129C998.779 158.129 999.508 157.848 1000.06 157.287C1001.17 156.172 1001.17 154.369 1000.05 153.262L989.618 142.913C989.229 142.525 988.91 142.66 988.91 143.21Z" fill="#334163"/>
<path d="M976.151 159.099C975.762 158.708 975.22 158.778 974.941 159.252L959.84 185.038C958.767 186.873 959.382 189.232 961.219 190.31C961.831 190.668 962.501 190.838 963.161 190.838C964.485 190.838 965.774 190.155 966.493 188.931L980.565 164.905C980.842 164.431 980.752 163.724 980.365 163.333L976.151 159.099Z" fill="#334163"/>
<path d="M983.965 129.212C986.662 130.311 990.957 128.113 990.557 123.918C990.157 119.723 988.06 118.124 985.263 117.127C982.467 116.126 979.114 116.899 977.873 120.621C976.475 124.814 981.269 128.113 983.965 129.212Z" fill="#334163"/>
<path d="M986.595 180.429C986.558 180.153 986.298 179.93 986.019 179.93H978.977C978.699 179.93 978.441 180.153 978.401 180.429L976.786 191.97C976.747 192.244 976.942 192.469 977.221 192.469H987.776C988.054 192.469 988.25 192.244 988.212 191.97L986.595 180.429Z" fill="#334163"/>
<path d="M950.518 192.469C950.796 192.469 951.11 192.257 951.213 192.001L955.923 180.398C956.027 180.137 955.885 179.93 955.608 179.93H947.828C947.55 179.93 947.198 180.12 947.047 180.352L939.397 192.048C939.244 192.279 939.348 192.469 939.625 192.469H950.518Z" fill="#334163"/>
<path d="M1017.94 180.352C1017.79 180.12 1017.44 179.93 1017.16 179.93H1009.38C1009.11 179.93 1008.97 180.139 1009.07 180.398L1013.78 192.004C1013.88 192.26 1014.19 192.47 1014.47 192.47H1025.37C1025.65 192.47 1025.75 192.281 1025.6 192.048L1017.94 180.352Z" fill="#334163"/>
<path d="M1175 270.926V680.051H1210V270.926C1210 189.224 1178.19 112.411 1120.41 54.6398C1098.3 32.5258 1073.39 14.2308 1046.49 0.0507812H904.127C976.481 0.0507812 1044.5 28.2268 1095.66 79.3878C1146.83 130.549 1175 198.573 1175 270.926Z" fill="#334163"/>
<path opacity="0.6" d="M1085.42 0.0507812H1046.49C1073.39 14.2308 1098.3 32.5258 1120.41 54.6398C1177.48 111.71 1209.2 187.366 1209.97 267.956V157.968C1193.89 114.348 1168.41 74.3518 1134.56 40.4968C1119.35 25.2878 1102.89 11.7858 1085.42 0.0507812Z" fill="#27334C"/>
<path opacity="0.3" d="M1086.39 0.0507812H1084.58C1102.25 11.8748 1118.84 25.4838 1134.2 40.8508C1168.3 74.9498 1193.76 114.811 1209.97 159.43V156.536C1193.67 112.81 1168.46 73.6948 1134.91 40.1428C1119.86 25.0928 1103.65 11.7148 1086.39 0.0507812Z" fill="white"/>
<path opacity="0.2" d="M1102.81 0.0507812C1116.45 10.0958 1129.43 21.2268 1141.63 33.4268C1170.53 62.3318 1193.51 95.5828 1209.97 131.7V0.0507812H1102.81Z" fill="#0E9983"/>
<path opacity="0.6" d="M1102.81 0C1116.45 10.045 1129.43 21.176 1141.63 33.376C1170.53 62.281 1193.51 95.532 1209.97 131.649V0H1102.81Z" fill="url(#paint4_radial)"/>
<g opacity="0.5">
<path opacity="0.5" d="M999.367 0.0507812C999.806 0.200781 1000.25 0.353766 1000.68 0.509766L1010.72 4.34875L1011.44 2.48175L1005.08 0.0507812H999.367Z" fill="white"/>
<path opacity="0.5" d="M1036.71 13.9998C1036.15 13.7238 1035.58 13.4417 1035.01 13.1567L1028.4 9.86774C1027.46 9.39874 1026.71 9.02075 1026.16 8.79675L1025.31 8.42578L1024.51 10.2578L1025.37 10.6387C1025.88 10.8457 1026.61 11.2058 1027.5 11.6578L1034.12 14.9468C1034.68 15.2318 1035.26 15.5148 1035.82 15.7938C1037.62 16.6878 1039.33 17.5307 1040.64 18.3127L1043.57 19.9518L1044.55 18.2078L1041.64 16.5807C1040.28 15.7717 1038.55 14.9118 1036.71 13.9998Z" fill="white"/>
<path opacity="0.5" d="M1061.31 28.1926L1057.56 25.8477L1056.5 27.5427L1060.26 29.8906C1061.79 30.8436 1063.7 32.0297 1065.49 33.3347L1074.31 39.4766L1075.45 37.8356L1066.65 31.7056C1064.81 30.3696 1062.87 29.1626 1061.31 28.1926Z" fill="white"/>
<path opacity="0.5" d="M1096.69 55.003C1096.33 54.699 1095.97 54.393 1095.61 54.077L1087.45 47.082L1086.15 48.602L1094.3 55.59C1094.66 55.906 1095.03 56.218 1095.4 56.527C1096.04 57.074 1096.67 57.613 1097.25 58.148L1102.18 62.831L1103.56 61.382L1098.62 56.69C1098.01 56.127 1097.36 55.57 1096.69 55.003Z" fill="white"/>
<path opacity="0.5" d="M1162.53 140.541C1162.09 139.685 1161.66 138.823 1161.25 137.99C1160.5 136.493 1159.79 135.079 1159.15 133.925L1157.49 131.004L1155.75 131.99L1157.41 134.904C1158.02 136.012 1158.72 137.407 1159.46 138.883C1159.88 139.723 1160.31 140.591 1160.75 141.447L1164.05 148.004L1165.42 151.07L1167.24 150.257L1165.86 147.146L1162.53 140.541Z" fill="white"/>
<path opacity="0.5" d="M1175.2 169.418C1174.9 168.65 1174.62 167.932 1174.38 167.273L1173.17 164.139L1171.3 164.86L1172.51 167.983C1172.75 168.639 1173.04 169.368 1173.34 170.146C1173.9 171.589 1174.55 173.226 1175.11 174.857L1178.48 185.063L1180.37 184.436L1177 174.218C1176.42 172.538 1175.77 170.88 1175.2 169.418Z" fill="white"/>
<path opacity="0.5" d="M1188.23 215.661C1188.11 214.95 1187.98 214.144 1187.79 213.324L1185.31 202.277C1184.9 200.286 1184.51 198.988 1184.5 198.934L1182.58 199.504C1182.58 199.517 1182.96 200.783 1183.36 202.699L1185.84 213.766C1186.01 214.532 1186.14 215.272 1186.26 215.987C1186.32 216.382 1186.38 216.758 1186.45 217.097L1187.02 220.408L1188.99 220.066L1188.42 216.741C1188.35 216.402 1188.29 216.04 1188.23 215.661Z" fill="white"/>
<path opacity="0.5" d="M1192.36 245.717C1192.32 245.246 1192.29 244.776 1192.26 244.308C1192.2 243.437 1192.14 242.578 1192.05 241.742L1191.22 234.992L1189.23 235.234L1190.06 241.97C1190.15 242.767 1190.2 243.601 1190.26 244.448C1190.3 244.923 1190.33 245.4 1190.37 245.871L1191.15 256.59L1193.15 256.444L1192.36 245.717Z" fill="white"/>
<path opacity="0.5" d="M1193.5 271.559H1191.5V293.053H1193.5V271.559Z" fill="white"/>
<path opacity="0.5" d="M1193.5 308.1H1191.5V329.594H1193.5V308.1Z" fill="white"/>
<path opacity="0.5" d="M1193.5 344.641H1191.5V366.135H1193.5V344.641Z" fill="white"/>
<path opacity="0.5" d="M1193.5 381.182H1191.5V402.676H1193.5V381.182Z" fill="white"/>
<path opacity="0.5" d="M1193.5 417.723H1191.5V439.217H1193.5V417.723Z" fill="white"/>
<path opacity="0.5" d="M1193.5 454.264H1191.5V475.758H1193.5V454.264Z" fill="white"/>
<path opacity="0.5" d="M1193.5 490.805H1191.5V512.299H1193.5V490.805Z" fill="white"/>
<path opacity="0.5" d="M1193.5 527.346H1191.5V548.84H1193.5V527.346Z" fill="white"/>
<path opacity="0.5" d="M1193.5 563.887H1191.5V585.381H1193.5V563.887Z" fill="white"/>
<path opacity="0.5" d="M1193.5 600.428H1191.5V621.922H1193.5V600.428Z" fill="white"/>
<path opacity="0.5" d="M1193.5 636.969H1191.5V658.463H1193.5V636.969Z" fill="white"/>
<path opacity="0.5" d="M1144.78 113.816L1148.14 119.074L1149.83 118.003L1146.47 112.707L1144.78 113.816Z" fill="white"/>
</g>
<path opacity="0.4" d="M1133.05 63.4779L1100.74 90.4883L1117.41 110.422L1149.71 83.4113L1133.05 63.4779Z" fill="#FFB94A"/>
<g opacity="0.7">
<path opacity="0.7" d="M1109.03 78.9776L1107.22 76.8105L1103.92 79.5694L1105.73 81.7365L1109.03 78.9776Z" fill="white"/>
<path opacity="0.7" d="M1101.78 85.0401L1099.97 82.873L1096.67 85.6313L1098.48 87.7984L1101.78 85.0401Z" fill="white"/>
<path opacity="0.7" d="M1116.28 72.9151L1114.47 70.748L1111.17 73.5069L1112.98 75.6739L1116.28 72.9151Z" fill="white"/>
<path opacity="0.7" d="M1130.85 60.7951L1129.03 58.627L1125.73 61.385L1127.55 63.5531L1130.85 60.7951Z" fill="white"/>
<path opacity="0.7" d="M1123.53 66.8546L1121.72 64.6875L1118.42 67.4464L1120.23 69.6134L1123.53 66.8546Z" fill="white"/>
<path opacity="0.7" d="M1144.76 92.1545L1141.46 94.9121L1143.32 97.1442L1146.62 94.3866L1144.76 92.1545Z" fill="white"/>
<path opacity="0.7" d="M1123.04 110.343L1119.74 113.1L1121.61 115.332L1124.91 112.575L1123.04 110.343Z" fill="white"/>
<path opacity="0.7" d="M1151.96 86.0638L1148.66 88.8223L1150.53 91.053L1153.83 88.2946L1151.96 86.0638Z" fill="white"/>
<path opacity="0.7" d="M1137.46 98.1888L1134.16 100.947L1136.03 103.178L1139.33 100.42L1137.46 98.1888Z" fill="white"/>
<path opacity="0.7" d="M1130.21 104.253L1126.91 107.012L1128.78 109.242L1132.08 106.484L1130.21 104.253Z" fill="white"/>
</g>
<g opacity="0.6">
<path opacity="0.6" d="M1120.74 107.666L1104.07 87.7363L1100.77 90.4948L1117.44 110.425L1120.74 107.666Z" fill="white"/>
<path opacity="0.6" d="M1111.34 81.6061L1108.05 84.3633L1124.71 104.293L1128.01 101.536L1111.34 81.6061Z" fill="white"/>
<path opacity="0.6" d="M1133.07 63.4314L1129.77 66.1895L1146.43 86.1221L1149.73 83.364L1133.07 63.4314Z" fill="white"/>
<path opacity="0.6" d="M1118.55 75.5315L1115.26 78.2891L1131.92 98.2157L1135.22 95.4581L1118.55 75.5315Z" fill="white"/>
<path opacity="0.6" d="M1125.78 69.4818L1122.48 72.2402L1139.14 92.1695L1142.44 89.411L1125.78 69.4818Z" fill="white"/>
</g>
<path opacity="0.3" d="M904.127 0.0498657C976.391 0.0498657 1044.33 28.1578 1095.47 79.1978L1096.24 78.5529C1050.46 32.8229 991.231 5.43683 927.477 0.0488281H904.127V0.0498657Z" fill="white"/>
<path opacity="0.3" d="M1046.49 0.0507812H1044.32C1071.78 14.3048 1097.2 32.8397 1119.71 55.3467C1120.36 55.9977 1120.99 56.6648 1121.64 57.3228L1122.41 56.6788C1121.74 55.9998 1121.09 55.3128 1120.42 54.6398C1098.3 32.5258 1073.39 14.2308 1046.49 0.0507812Z" fill="white"/>
<path opacity="0.3" d="M1153.82 94.1445L1153.05 94.7875C1189.4 145.926 1209 206.917 1209 270.927V680.052H1210V270.927C1210 206.68 1190.32 145.463 1153.82 94.1445Z" fill="white"/>
<path opacity="0.3" d="M1126.87 116.68C1158.15 161.649 1175 214.989 1175 270.924V680.049H1176V270.924C1176 214.75 1159.07 161.186 1127.64 116.035L1126.87 116.68Z" fill="white"/>
</g>
<defs>
<linearGradient id="paint0_linear" x1="974.676" y1="244.765" x2="990.676" y2="244.765" gradientUnits="userSpaceOnUse">
<stop stop-color="#4B6696" stop-opacity="0.2"/>
<stop offset="1" stop-color="#4B6696" stop-opacity="0.6"/>
</linearGradient>
<linearGradient id="paint1_linear" x1="990.676" y1="244.626" x2="974.676" y2="244.626" gradientUnits="userSpaceOnUse">
<stop stop-color="#4B6696" stop-opacity="0"/>
<stop offset="0.0903" stop-color="#7D90B3" stop-opacity="0.1252"/>
<stop offset="0.1873" stop-color="#ABB8CE" stop-opacity="0.2599"/>
<stop offset="0.2802" stop-color="#D0D7E3" stop-opacity="0.3888"/>
<stop offset="0.3666" stop-color="#EAEDF3" stop-opacity="0.5086"/>
<stop offset="0.4439" stop-color="#F9FAFC" stop-opacity="0.6158"/>
<stop offset="0.5046" stop-color="white" stop-opacity="0.7"/>
<stop offset="0.5581" stop-color="#F9F9FA" stop-opacity="0.6892"/>
<stop offset="0.6292" stop-color="#E8EAEE" stop-opacity="0.6748"/>
<stop offset="0.7102" stop-color="#CDD0D8" stop-opacity="0.6585"/>
<stop offset="0.7986" stop-color="#A6ACBB" stop-opacity="0.6407"/>
<stop offset="0.8928" stop-color="#757E95" stop-opacity="0.6216"/>
<stop offset="0.9907" stop-color="#394768" stop-opacity="0.6019"/>
<stop offset="1" stop-color="#334163" stop-opacity="0.6"/>
</linearGradient>
<linearGradient id="paint2_linear" x1="982.677" y1="265.558" x2="982.677" y2="223.697" gradientUnits="userSpaceOnUse">
<stop stop-color="#4B6696" stop-opacity="0"/>
<stop offset="0.6997" stop-color="#324363" stop-opacity="0.4898"/>
<stop offset="1" stop-color="#27334C" stop-opacity="0.7"/>
</linearGradient>
<linearGradient id="paint3_linear" x1="917.015" y1="61.8705" x2="1088.98" y2="300.38" gradientUnits="userSpaceOnUse">
<stop stop-color="#27AAE1" stop-opacity="0"/>
<stop offset="1" stop-color="#27AAE1" stop-opacity="0.6"/>
</linearGradient>
<radialGradient id="paint4_radial" cx="0" cy="0" r="1" gradientUnits="userSpaceOnUse" gradientTransform="translate(1320.5 -99.2827) scale(393.033 393.033)">
<stop offset="0.453" stop-color="#0E9983" stop-opacity="0"/>
<stop offset="1" stop-color="#0E9983"/>
</radialGradient>
</defs>
</svg>
