<svg width="1211" height="680" viewBox="0 0 1211 680" fill="none" xmlns="http://www.w3.org/2000/svg">
<mask id="mask0" mask-type="alpha" maskUnits="userSpaceOnUse" x="0" y="0" width="1211" height="680">
<rect x="0.00195312" width="1210" height="680" fill="white"/>
</mask>
<g mask="url(#mask0)">
<path opacity="0.5" d="M1039.36 105.28C1038.42 105.471 1036.32 108.779 1035.76 109.621C1034.36 111.704 1033.5 114.109 1032.4 116.352C1030.15 120.913 1028.84 124.661 1029.92 129.243C1028.36 127.665 1026.89 126.297 1025.91 125.386C1017.94 117.971 1008.31 111.961 997.413 110.223C987.127 108.578 976.93 108.621 966.566 108.463C962.932 108.406 956.937 106.612 960.077 111.993C965.281 120.91 974.83 127.856 982.74 134.302C985.216 136.318 987.744 138.296 990.368 140.115C992.082 141.303 994.137 141.845 995.818 143.108C996.826 143.865 999.814 145.679 1000.09 146.843C1000.56 148.873 998.557 148.724 997.317 149.185C989.041 152.266 983.043 160.04 980.811 168.655C979.636 173.19 985.731 172.049 988.816 172.53C993.629 173.28 998.46 173.094 1003.14 171.734C1005.89 170.937 1010.03 169.161 1011.02 173.209C1011.98 177.107 1010.54 182.004 1010.5 185.986C1010.47 189.293 1011.09 196.189 1015.65 194.46C1019.29 193.069 1023.11 189.088 1026.24 186.837C1034.25 181.087 1037.42 174.013 1038.29 165.821C1038.64 166.213 1038.97 166.652 1039.37 166.968C1044.94 171.292 1057.58 177.498 1057.23 174.798C1056.44 168.802 1057.06 154.891 1048.32 151.432C1044.84 150.055 1041.7 148.051 1038.53 146.085C1037.35 145.349 1036.13 144.84 1035.98 143.274C1035.86 141.943 1036.71 140.629 1037.23 139.446C1039.23 134.823 1041.35 130.255 1043.43 125.661C1045.14 121.908 1044.72 117.702 1043.62 113.863C1043.2 112.352 1041.86 105.184 1039.36 105.28Z" fill="#0E9983"/>
<path opacity="0.5" d="M1061.76 132.71C1058.22 132.047 1050.39 129.169 1046.89 133.485C1043.37 137.77 1038.21 140.05 1040.92 140.929C1043.63 141.767 1050.71 143.709 1054.15 141.371C1057.6 139.014 1063.36 133.002 1061.76 132.71Z" fill="#0E9983"/>
<path opacity="0.5" d="M1106.35 255.867C1106.46 256.053 1106.64 256.228 1106.82 256.409C1107.73 257.32 1108.59 258.268 1109.47 259.205C1111.62 261.494 1113.81 263.755 1116.29 265.691C1118.72 267.593 1121.51 269.263 1124.6 269.754C1126.2 270.008 1127.85 269.912 1129.4 269.443C1139.08 266.535 1149.18 268.235 1145.99 264.287C1142.81 260.344 1134.18 250.492 1126.6 250.575C1123.34 250.614 1120.08 251.074 1116.88 251.657C1113.95 252.191 1110.93 252.799 1108.17 253.94C1107.58 254.182 1106.86 254.407 1106.45 254.92C1106.15 255.292 1106.18 255.591 1106.35 255.867Z" fill="#577ACF"/>
<path opacity="0.5" d="M1152.88 274.663C1153.09 274.499 1153.3 274.359 1153.53 274.261C1156.07 273.139 1158.45 277.025 1159.93 278.637C1170.13 289.72 1166.72 305.555 1162.51 318.61C1161.9 320.53 1161.84 322.623 1161 324.473C1160.01 326.629 1158.76 325.774 1157.26 324.383C1151.62 319.145 1145.68 311.41 1144.92 303.426C1144.24 296.235 1146.59 288.627 1149.25 282.037C1150.03 280.117 1151 276.16 1152.88 274.663Z" fill="white"/>
<path opacity="0.5" d="M1149.51 273.233C1151.06 270.773 1151.17 268.396 1147.31 265.831C1143.56 263.341 1138.58 262.238 1134.21 261.567C1126.88 260.451 1120.61 262.743 1114.85 267.223C1110.02 270.978 1105.4 275.004 1100.9 279.164C1098.3 281.57 1093.37 287.122 1098.06 289.382C1101.8 291.18 1107.7 291.212 1111.75 291.986C1126.68 294.84 1136.41 288.003 1145.97 277.477C1147.31 276 1148.65 274.604 1149.51 273.233Z" fill="#0E9983"/>
<path opacity="0.5" d="M1142.07 124.335C1140.29 123.623 1141.57 117.747 1141.72 116.466C1142.13 113.195 1143.13 109.862 1145.63 107.57C1150.7 102.924 1154.44 99.3755 1155.99 98.3645C1157.31 97.5075 1157.33 107.139 1157.27 108.05C1156.98 112.709 1154.55 115.253 1151.03 118.267C1149.47 119.604 1148.06 121.146 1146.33 122.269C1145.64 122.719 1143 124.54 1142.22 124.374C1142.17 124.365 1142.12 124.35 1142.07 124.335Z" fill="#0E9983"/>
<g opacity="0.5">
<path opacity="0.5" d="M1216.53 178.918C1224.73 171.573 1233.39 166.449 1237.27 155.701C1240.74 146.096 1239.21 135.349 1238.48 125.417C1237.2 107.887 1222.82 124.947 1217.76 132.277C1212.93 139.264 1209.42 147.547 1210.08 156.193C1210.49 161.558 1211.16 166.897 1212.4 172.127C1212.65 173.051 1214.34 180.875 1216.53 178.918Z" fill="#0E9983"/>
</g>
<path opacity="0.5" d="M1214.49 179.814C1216.95 174.391 1220.18 169.425 1221.38 163.499C1222.8 156.449 1217.53 150.636 1214.57 144.583C1213.91 143.244 1211.31 135.831 1209.17 139.285C1206.5 143.598 1200.07 155.038 1202.68 162.216C1205.29 169.406 1213.28 182.462 1214.49 179.814Z" fill="#577ACF"/>
<path d="M1271.15 157.492C1271.32 156.553 1270.6 156.409 1269.49 156.108C1268.43 155.819 1267.35 155.586 1267.14 156.534C1267.14 156.534 1245.8 243.655 1245.8 243.659C1245.35 245.464 1244.66 245.036 1243.71 242.899L1218.67 186.794C1218.32 186.043 1217.54 186.328 1216.75 186.718C1215.95 187.115 1215.14 187.436 1215.49 188.36L1237.25 246.467C1238.75 250.484 1240.55 256.896 1240.09 264.296C1239.85 266.509 1239.52 268.708 1239.15 270.588C1239.06 270.959 1238.99 271.31 1238.93 271.649C1238.87 271.917 1238.81 272.185 1238.75 272.433C1238.75 272.433 1226.48 322.508 1226.48 322.527C1225.52 326.416 1225 328.533 1221.17 320.705C1209.99 297.806 1181.08 238.663 1173.77 224.02C1172.04 220.553 1162.13 203.901 1161.03 200.773C1159.15 195.461 1159.68 193.297 1159.95 189.261C1160.1 187.646 1160.26 185.958 1160.41 184.228C1161.33 176.104 1163.72 171.882 1166.94 167.97L1189.45 142.12L1212.3 120.705C1212.77 120.237 1212.39 119.77 1211.92 119.293C1210.88 118.222 1210.42 118.314 1210.1 118.584L1186.55 138.337C1186.55 138.337 1167.62 158.939 1167.61 158.948C1163.47 163.457 1163.14 158.201 1163.47 152.352C1165.68 129 1168.12 103.438 1169.7 86.9787C1169.7 86.9567 1169.7 86.9347 1169.7 86.9127C1170.06 83.2217 1170.37 79.9937 1170.62 77.3497C1171.26 72.8967 1172.48 68.8487 1175.46 66.5187C1175.47 66.5087 1175.48 66.5017 1175.5 66.4917L1215.78 35.0507C1216.19 34.6927 1215.88 34.1437 1215.49 33.5867C1215.12 33.0587 1214.64 32.5957 1214.25 32.8807L1174.55 61.6817C1170.24 64.8067 1169.93 62.6877 1168.92 57.6507L1156.59 -3.51531C1156.41 -4.35931 1155.88 -4.20429 1155.45 -4.17529C1155.02 -4.14629 1154.29 -4.14929 1154.43 -3.35629L1165.51 61.1427C1166.81 68.6797 1166.26 74.1097 1165.51 81.4177C1165.41 82.3707 1165.36 83.1767 1165.34 83.8707L1153.72 182.365C1152.7 190.963 1150.69 192.317 1146.19 186.348C1146.19 186.348 1085.01 105.182 1085 105.169C1080.67 99.4237 1080.24 95.4127 1080.81 90.0237L1084.3 56.8897C1084.42 55.6257 1083.74 55.5767 1083 55.4247C1082.14 55.2467 1081.24 55.1147 1081.09 55.8787L1076 87.5427C1075.15 92.8177 1072.79 90.1367 1068.59 85.5997L1008.6 20.8657C1007.54 19.7277 1007.09 19.9777 1006.05 20.5667C1005.01 21.1557 1004.83 21.6877 1005.35 22.2827C1016.19 34.6237 1027.04 46.9647 1037.88 59.3047C1041.48 63.4087 1056.95 80.1607 1074.31 102.487C1084.35 115.414 1095.3 129.822 1105.69 143.655C1107.84 146.51 1106.02 147.069 1103.54 145.83L1073.31 130.713C1073.3 130.711 1073.3 130.709 1073.3 130.707C1068.38 128.249 1063.81 125.424 1060.35 120.267C1057.04 115.328 1052.43 108.457 1049.56 104.196C1048.47 102.585 1048 102.936 1047.46 103.19C1046.93 103.444 1046.11 103.708 1046.79 104.939L1056.95 123.416C1059.21 127.54 1057.45 128.223 1053.01 129.946L1009.19 146.955C1007.99 147.422 1008.58 148.255 1008.79 148.962C1009 149.669 1009.15 150.245 1011.16 149.553L1028.11 143.709C1031.27 142.622 1030.82 143.791 1029.99 145.963C1029.99 145.965 1029.99 145.966 1029.99 145.968C1028.84 148.989 1027.43 152.697 1026.5 155.215C1026.08 156.364 1027.13 156.405 1027.68 156.53C1028.23 156.655 1029.01 156.787 1029.62 155.499L1034.49 145.147C1035.71 142.546 1037.59 140.442 1041.4 139.127L1055.19 134.372C1059.27 132.967 1062.97 132.024 1068.28 134.775L1068.28 134.776L1110.93 156.904C1110.93 156.907 1110.94 156.91 1110.94 156.913C1119.28 161.241 1123.95 168.973 1127.48 172.838C1141.27 191.44 1151.01 204.782 1151.01 204.783C1157.18 213.106 1162.45 221.946 1167.15 231.173C1173.51 243.678 1183.45 266.234 1183.45 266.241C1186.06 271.857 1183.53 272.202 1178.35 270.431L1162.29 264.964C1161.4 264.638 1160.96 265.741 1160.65 266.828C1160.35 267.927 1160.3 268.973 1161.08 269.348L1180.45 277.685C1187.52 280.731 1191.57 283.713 1195.96 293.14L1210.17 323.722C1216.77 337.913 1218.76 349.991 1221.53 361.019L1246.91 507.263C1246.94 507.429 1247.06 507.566 1247.22 507.62C1247.26 507.636 1247.31 507.643 1247.36 507.643C1247.48 507.643 1247.59 507.601 1247.67 507.522L1262.38 494.041C1262.5 493.932 1262.56 493.766 1262.52 493.605C1262.52 493.605 1236.2 371.621 1236.2 371.62C1230.43 335.589 1236.38 319.711 1237.81 313.107L1271.15 157.492Z" fill="white"/>
<path opacity="0.5" d="M931.422 206.914C931.036 208.903 931.565 210.476 934.722 211.168C937.785 211.84 941.297 211.301 944.311 210.632C949.351 209.51 952.849 206.438 955.462 202.072C957.651 198.414 959.642 194.63 961.513 190.79C962.6 188.569 964.4 183.719 960.784 183.433C957.896 183.21 954.055 184.678 951.227 185.197C940.806 187.11 936.209 194.009 932.652 203.262C932.154 204.559 931.634 205.806 931.422 206.914Z" fill="#0E9983"/>
<path opacity="0.5" d="M1213.03 213.169C1215.8 212.299 1217.42 210.562 1216.15 206.106C1214.91 201.781 1211.83 197.716 1208.94 194.367C1204.08 188.77 1197.82 186.45 1190.53 186.125C1184.42 185.855 1178.29 185.921 1172.17 186.174C1168.62 186.317 1161.27 187.352 1163.38 192.111C1165.06 195.908 1169.53 199.756 1172.12 202.97C1181.63 214.821 1193.47 215.922 1207.58 214.106C1209.56 213.849 1211.48 213.655 1213.03 213.169Z" fill="#0E9983"/>
<path opacity="0.5" d="M1114.05 66.845C1113.42 70.362 1119.92 76.472 1122.25 78.705C1127.33 83.577 1132.15 82.101 1138.44 82.652C1140.04 82.792 1153.09 84.857 1150.73 80.827C1148.2 76.481 1141.18 65.515 1133.72 64.469C1128.72 63.767 1120.63 62.886 1115.85 64.869C1114.75 65.325 1114.2 66.012 1114.05 66.845Z" fill="#577ACF"/>
<path opacity="0.5" d="M1152.92 90.9691C1154.81 88.7821 1155.27 86.4641 1151.86 83.3691C1148.55 80.3661 1143.82 78.5421 1139.62 77.2321C1132.59 75.0451 1126.1 76.3631 1119.77 79.9061C1114.46 82.8761 1109.32 86.1421 1104.28 89.5601C1101.37 91.5371 1095.7 96.2571 1099.97 99.1751C1103.38 101.5 1109.17 102.408 1113.03 103.771C1127.27 108.796 1137.85 103.527 1148.81 94.6111C1150.34 93.3591 1151.87 92.1881 1152.92 90.9691Z" fill="white"/>
<path opacity="0.5" d="M1206.25 72.2089C1205.16 72.0319 1204.06 71.7479 1202.93 71.3369C1197.43 69.3269 1192.86 65.5849 1187.94 62.5129C1185.41 60.9329 1184.1 58.6449 1181.83 57.0389C1175.51 52.5569 1178.03 64.6369 1174.4 65.8629C1170.31 67.2409 1166.91 64.9269 1163.44 62.9549C1158.56 60.1669 1153.64 57.4309 1148.8 54.5609C1132.77 45.0609 1129.5 25.5299 1126.96 8.58291C1126.01 2.25591 1125.54 -4.2491 1125.6 -10.6511C1125.72 -24.2471 1136.16 -9.55807 1140.55 -5.73407C1147.65 0.415928 1155.37 3.89191 1161.66 11.2249C1165.69 15.9089 1165.79 21.4399 1167.15 27.1979C1167.59 29.0619 1170.5 42.2229 1172.71 41.0529C1174.86 39.9089 1174.19 36.7679 1173.76 34.8719C1171.02 22.6659 1173.75 6.4279 1185.3 -0.639102C1191.35 -4.3301 1198.01 -6.85909 1204.67 -9.18509C1208.51 -10.5251 1217.85 -15.8021 1221.77 -13.0081C1224.01 -11.4151 1222.68 -10.1511 1221.8 -8.20407C1219.18 -2.36307 1215.78 2.72491 1212.79 8.3749C1208.42 16.6119 1205.79 25.8269 1201.58 33.7919C1199.43 37.8749 1197.12 39.1259 1192.96 40.2829C1190.42 40.9909 1183.77 42.3819 1189.09 46.1749C1194.52 50.0549 1206.87 42.2999 1212.93 42.7749C1221.1 43.4259 1228.83 47.0229 1235.93 50.8969C1237.79 51.9079 1244.87 54.6019 1245.18 56.7179C1245.6 59.7069 1239.68 61.5409 1237.73 62.4829C1231.74 65.3839 1225.32 67.2299 1219.21 69.8469C1214.8 71.7349 1210.68 72.9109 1206.25 72.2089Z" fill="#0E9983"/>
<path opacity="0.5" d="M1190.78 63.9588C1192.13 61.1788 1201.44 64.0688 1203.48 64.5078C1208.71 65.6048 1213.95 67.7128 1217.34 72.0568C1224.22 80.8658 1229.48 87.3778 1230.93 90.0318C1232.15 92.2618 1216.62 90.9438 1215.18 90.7208C1207.7 89.5818 1203.9 85.3158 1199.47 79.2378C1197.5 76.5418 1195.19 74.0458 1193.59 71.0958C1192.95 69.9288 1190.32 65.4048 1190.69 64.1748C1190.71 64.1068 1190.74 64.0298 1190.78 63.9588Z" fill="white"/>
<path opacity="0.5" d="M1185.29 236.247C1186.43 236.393 1189.08 234.73 1189.89 234.356C1192.1 233.336 1194.31 232.326 1196.53 231.337C1200.69 229.482 1204.88 227.5 1209.23 226.113C1213.71 224.687 1216.52 219.69 1218.38 215.716C1219.32 213.717 1219.88 211.512 1220.66 209.45C1221.23 207.909 1222.81 203.129 1219.76 203.588C1216.86 204.024 1214.09 204.813 1211.12 205.036C1206.54 205.389 1201.2 205.2 1197.88 208.952C1196.14 210.921 1194.89 213.387 1193.67 215.707C1191.13 220.526 1188.92 225.523 1186.78 230.535C1186.15 231.99 1185.06 233.732 1184.78 235.299C1184.66 235.922 1184.88 236.195 1185.29 236.247Z" fill="#577ACF"/>
<path opacity="0.5" d="M1204.81 191.333C1203.81 193.254 1197.37 191.155 1195.95 190.836C1192.33 190.016 1188.7 188.516 1186.42 185.456C1181.78 179.242 1178.23 174.654 1177.27 172.792C1176.46 171.223 1187.26 172.283 1188.27 172.452C1193.46 173.308 1196.04 176.32 1199.02 180.604C1200.34 182.5 1201.91 184.255 1202.98 186.326C1203.41 187.149 1205.15 190.323 1204.87 191.174C1204.86 191.228 1204.83 191.278 1204.81 191.333Z" fill="white"/>
<path opacity="0.5" d="M959.28 125.234C956.05 122.597 953.233 115.815 948.265 109.915C943.412 104.165 932.557 103.548 925.619 103.071C923.48 102.924 917.088 101.583 916.618 104.56C916.339 106.324 919.568 110.264 920.519 111.663C924.773 117.917 929.286 125.018 937.105 126.809C943.097 128.181 949.332 127.901 955.423 127.614C958.569 127.463 962.517 127.899 959.28 125.234Z" fill="#0E9983"/>
<path opacity="0.5" d="M1204.63 56.6377C1209.29 57.4457 1215.86 62.5827 1224.07 65.6477C1232.07 68.6307 1243.15 63.1877 1250.28 59.7907C1252.48 58.7437 1259.55 56.5037 1258.36 53.2977C1257.65 51.3977 1252.26 49.2997 1250.54 48.4467C1242.84 44.6337 1234.42 40.1247 1225.68 42.7137C1218.99 44.6977 1212.98 48.4517 1207.11 52.1337C1204.09 54.0357 1199.94 55.8067 1204.63 56.6377Z" fill="white"/>
<path opacity="0.5" d="M988.97 150.733C996.096 145.754 981.456 140.239 978.547 139.17C972.047 136.782 965.848 137.685 959.688 140.679C954.531 143.197 949.499 145.998 944.569 148.949C942.003 150.471 937.301 153.282 940.587 156.172C946.484 161.361 954.965 164.041 962.696 164.569C971.905 165.2 981.927 155.654 988.97 150.733Z" fill="#577ACF"/>
<path opacity="0.5" d="M1017.15 34.6442C1017.19 34.3972 1017.23 34.1682 1017.33 33.9522C1018.31 31.5532 1022.42 32.6412 1024.47 32.7642C1035.29 33.4262 1041.84 38.6962 1046.36 48.2762C1047.99 51.6772 1050.37 54.6452 1052.01 58.0292C1052.95 59.9522 1055.15 62.4142 1055.1 64.6462C1055.01 67.8372 1049.82 66.1252 1047.68 65.5312C1043.1 64.2512 1038.03 64.0102 1033.81 61.6282C1029.41 59.1492 1026.67 54.8072 1024.26 50.5212C1022.65 47.6762 1020.69 44.9982 1019.47 41.9552C1018.74 40.1602 1016.84 36.8642 1017.15 34.6442Z" fill="white"/>
<path opacity="0.5" d="M1053.52 72.7811C1055.3 70.7281 1055.73 68.5511 1052.53 65.6441C1049.42 62.8231 1044.98 61.1111 1041.04 59.8801C1034.44 57.8261 1028.34 59.0641 1022.39 62.3911C1017.41 65.1801 1012.58 68.2481 1007.85 71.4571C1005.11 73.3121 999.793 77.7461 1003.8 80.4861C1007 82.6701 1012.44 83.5231 1016.07 84.8041C1029.44 89.5221 1039.38 84.5751 1049.67 76.2011C1051.11 75.0261 1052.54 73.9261 1053.52 72.7811Z" fill="#577ACF"/>
<path opacity="0.5" d="M947.973 40.8943C948.17 42.2543 950.924 44.7963 951.59 45.6133C953.457 47.8273 955.327 50.0663 957.163 52.3113C960.607 56.5233 964.202 60.7283 967.162 65.3053C970.206 70.0243 976.861 71.6873 982.025 72.5733C984.615 73.0243 987.33 72.9753 989.964 73.2223C991.919 73.3953 997.924 73.7043 996.436 70.3223C995.018 67.1183 993.249 64.1803 992.06 60.8223C990.213 55.6453 988.759 49.4243 983.399 46.7903C980.584 45.4043 977.344 44.7363 974.287 44.0683C967.93 42.6703 961.473 41.6873 955.029 40.8033C953.148 40.5433 950.798 39.8323 948.905 40.0053C948.146 40.0713 947.9 40.4063 947.973 40.8943Z" fill="white"/>
<path opacity="0.5" d="M1000.36 16.707C1003.34 16.082 1006.72 25.013 1007.62 26.862C1009.92 31.556 1011.45 36.869 1010.12 42.095C1007.43 52.689 1005.54 60.673 1004.35 63.382C1003.35 65.6651 994.996 52.8681 994.298 51.6131C990.655 45.1561 991.675 39.6521 993.724 32.5771C994.637 29.4411 995.182 26.1701 996.512 23.1581C997.027 21.9641 998.961 17.2271 1000.13 16.7691C1000.2 16.7441 1000.28 16.719 1000.36 16.707Z" fill="#577ACF"/>
<path opacity="0.5" d="M1040.74 -28.2867C1039.72 -27.1177 1039.57 -22.8937 1039.36 -21.7187C1038.84 -18.4967 1038.31 -15.2317 1037.73 -12.0097C1036.67 -5.96768 1035.72 0.217333 1033.98 6.13033C1032.18 12.2103 1035.69 19.1303 1038.78 24.2263C1040.3 26.7803 1042.36 29.0683 1044.12 31.5113C1045.41 33.3173 1049.61 38.6923 1051.42 34.9253C1053.12 31.3503 1054.34 27.6653 1056.36 24.1893C1059.43 18.7843 1063.72 12.9583 1062 6.42632C1061.11 2.98732 1059.28 -0.270674 1057.58 -3.38767C1054.06 -9.86367 1050.09 -16.1277 1046.07 -22.2997C1044.89 -24.1127 1043.77 -26.6417 1042.2 -28.1447C1041.58 -28.7437 1041.11 -28.7137 1040.74 -28.2867Z" fill="#0E9983"/>
<path opacity="0.5" d="M1107.53 4.28889C1110.09 5.44489 1107.63 13.9309 1107.28 15.7849C1106.37 20.5299 1104.55 25.3149 1100.65 28.4759C1092.73 34.9079 1086.9 39.7999 1084.49 41.1729C1082.48 42.3229 1083.39 28.2599 1083.56 26.9549C1084.44 20.1769 1088.27 16.6449 1093.73 12.4889C1096.18 10.6529 1098.4 8.49989 1101.06 6.99589C1102.12 6.39089 1106.21 3.91089 1107.33 4.21989C1107.38 4.23189 1107.46 4.25089 1107.53 4.28889Z" fill="#577ACF"/>
<path opacity="0.5" d="M994.098 211.489C994.757 211.461 995.386 210.989 995.949 209.893C1001.34 199.367 1008.03 189.103 1008.64 176.618C1008.92 170.96 1007.24 165.431 1007.01 159.799C1006.94 158.136 1006.81 155.431 1005.86 153.968C1004.93 152.53 1003.43 153.123 1002.06 153.702C996.418 156.091 990.89 161.659 987.22 166.441C979.658 176.293 982.504 191.139 987.04 201.552C987.997 203.749 991.311 211.607 994.098 211.489Z" fill="white"/>
<path opacity="0.5" d="M983.822 35.8877C984.582 31.3416 988.083 21.246 982.47 16.8656C976.894 12.4669 973.85 5.91141 972.797 9.40946C971.781 12.8943 969.465 22.0169 972.545 26.3657C975.641 30.7158 983.485 37.9483 983.822 35.8877Z" fill="#0E9983"/>
<path opacity="0.5" d="M1064.08 25.6836C1063.72 25.6976 1063.37 25.7876 1063.02 25.9646C1059.51 27.7536 1057.25 39.2676 1057.46 42.8716C1057.8 48.5376 1061.93 54.1606 1064.49 58.9856C1065.16 60.2406 1067.19 65.9056 1069.06 62.8726C1071.55 58.8396 1077.54 48.1476 1075.1 41.4986C1073.8 37.9776 1068.66 25.5006 1064.08 25.6836Z" fill="white"/>
<path opacity="0.5" d="M1172.4 18.755C1176.14 14.018 1186.51 4.76898 1182.89 -3.97602C1179.28 -12.72 1179.94 -22.278 1176.55 -18.958C1173.17 -15.641 1164.78 -6.70403 1165.56 0.337973C1166.35 7.38897 1170.71 20.888 1172.4 18.755Z" fill="white"/>
<path opacity="0.5" d="M1031.73 157.362C1030.31 163.231 1024.75 175.941 1031.69 182.463C1038.62 188.986 1042.02 198 1043.71 193.573C1045.4 189.152 1049.29 177.537 1045.64 171.417C1041.98 165.288 1032.37 154.725 1031.73 157.362Z" fill="white"/>
<path opacity="0.5" d="M977.273 135.869C978.948 138.041 983.819 135.317 986.663 134.01C993.291 130.962 1000.69 127.818 1005.93 122.602C1010.24 118.319 1012.77 113.877 1014.65 108.103C1015.54 105.383 1015.9 102.461 1016.57 99.6928C1017.06 97.626 1018.31 91.2176 1014.47 92.3239C1010.81 93.3591 1007.4 94.8192 1003.63 95.5992C997.8 96.7945 990.924 97.4332 987.28 102.784C985.365 105.594 984.159 108.969 982.973 112.143C980.513 118.729 977.536 125.543 976.751 132.594C976.572 134.198 976.789 135.24 977.273 135.869Z" fill="white"/>
<path opacity="0.5" d="M969.588 99.1277C974.264 99.9677 980.836 105.151 989.052 108.281C997.072 111.324 1008.21 105.999 1015.37 102.677C1017.92 101.496 1025.01 98.9667 1023.54 95.4037C1022.6 93.1277 1018.77 92.0517 1016.83 90.9387C1013.72 89.1257 1010.77 87.0557 1008.01 84.7847C1000.18 78.3347 975.143 92.7937 972.098 94.6617C969.044 96.5357 964.895 98.2617 969.588 99.1277Z" fill="#0E9983"/>
<path opacity="0.5" d="M1124.98 17.7501C1124.93 17.8561 1124.9 17.9731 1124.87 18.1021C1124.52 19.5641 1125.38 21.9401 1125.83 23.3211C1127.01 27.0201 1129.02 30.4031 1130.98 33.7371C1133.93 38.7731 1137.93 43.1811 1143.46 45.3721C1145.31 46.1241 1147.34 46.5231 1149.26 47.1201C1150.69 47.5681 1155.11 48.7431 1154.54 45.9961C1153.42 40.6551 1152.85 34.7821 1149.71 30.1491C1146.91 26.0241 1142.03 23.9801 1137.68 21.9371C1134.58 20.4781 1131.9 18.1271 1128.54 17.1861C1127.14 16.7891 1125.53 16.4201 1124.98 17.7501Z" fill="white"/>
<path opacity="0.5" d="M1206.07 11.8072C1208.23 13.9572 1202.45 21.7782 1201.36 23.5592C1198.61 28.1052 1194.91 32.3512 1189.69 34.1272C1179.13 37.7602 1171.28 40.6162 1168.3 41.1162C1165.79 41.5562 1172.16 27.3982 1172.84 26.1122C1176.37 19.4652 1181.63 17.2732 1188.82 15.0562C1192.01 14.0742 1195.13 12.7042 1198.42 12.1422C1199.74 11.9182 1204.86 10.9152 1205.89 11.6542C1205.95 11.6922 1206.01 11.7452 1206.07 11.8072Z" fill="#577ACF"/>
</g>
</svg>
