<svg width="1211" height="680" viewBox="0 0 1211 680" fill="none" xmlns="http://www.w3.org/2000/svg">
<mask id="mask0" mask-type="alpha" maskUnits="userSpaceOnUse" x="0" y="0" width="1211" height="680">
<rect x="0.00195312" width="1210" height="680" fill="white"/>
</mask>
<g mask="url(#mask0)">
<path d="M971.024 106.793C973.673 105.075 977.961 101.699 975.23 98.1494C974.883 97.7694 974.483 97.3904 974.044 97.0094C970.74 94.1444 966.756 91.9374 963.033 89.6644C958.773 87.0634 954.444 84.5804 950.109 82.1084L949.951 82.0174C944.934 79.1594 942.365 78.8004 938.96 80.4994C931.308 84.3304 931.022 85.6044 931.386 86.7354C932.538 90.8074 939.227 97.7504 952.57 105.146C957.83 108.06 963.587 109.243 967.557 108.474C968.578 108.259 969.723 107.639 971.024 106.793Z" fill="white"/>
<path opacity="0.2" d="M990.299 83.4997C986.643 80.4147 982.327 78.3217 981.433 77.9677C976.212 75.8737 967.327 72.2247 962.558 70.4197C956.062 67.9617 948.264 65.8937 940.982 67.4347C932.711 69.1917 930.841 71.7247 929.29 73.4947C928.757 74.0987 927.307 75.9857 926.584 77.5387C926.034 78.7267 926.068 79.9597 926.646 81.1297C926.961 81.7677 927.412 82.4147 927.929 83.0627C927.929 83.0627 929.626 84.9987 930.147 85.6787C930.525 86.1717 930.811 86.4827 931.386 86.7397C932.538 90.8117 939.226 97.7547 952.569 105.151C957.829 108.065 963.587 109.248 967.557 108.479L968.174 108.849C971.249 109.486 1010.58 114.752 1010.58 114.752L1013 112.023V105.098C1013 105.097 993.732 86.3947 990.299 83.4997Z" fill="white"/>
<path opacity="0.1" d="M980.625 110.674C993.183 112.422 1010.58 114.751 1010.58 114.751L1011.98 113.165C1011.98 113.166 1011.98 113.165 1011.98 113.165L989.61 102.463L980.625 110.674Z" fill="white"/>
<path opacity="0.8" d="M927.381 77.0177C929.487 75.1877 932.474 73.7107 934.215 72.8057C938.403 70.6297 944.836 70.0677 951.159 72.8767C957.482 75.6867 988.558 91.3627 990.949 93.1907C993.319 95.0027 1012.73 111.778 1013 112.009V105.095C1013 105.095 993.734 86.3927 990.301 83.4977C986.645 80.4127 982.329 78.3197 981.435 77.9657C976.214 75.8717 967.329 72.2227 962.56 70.4177C956.064 67.9597 948.266 65.8917 940.984 67.4327C932.713 69.1897 930.843 71.7227 929.292 73.4927C928.759 74.0967 927.309 75.9837 926.586 77.5367C926.4 77.9367 926.305 78.3447 926.252 78.7497C926.389 78.1517 926.741 77.5707 927.381 77.0177Z" fill="white"/>
<path opacity="0.3" d="M990.947 93.1906C988.557 91.3626 957.481 75.6856 951.157 72.8766C944.833 70.0666 938.401 70.6296 934.213 72.8056C932.471 73.7106 929.485 75.1876 927.379 77.0176C926.738 77.5716 926.386 78.1536 926.249 78.7506C925.904 80.2586 926.98 81.9796 927.934 83.0656C927.947 83.0796 928.268 83.4476 928.668 83.9116C928.535 83.2786 928.822 82.3536 931.01 80.9626C932.413 80.0686 938.339 76.9676 939.125 76.6086C939.783 76.3076 940.839 75.9066 942.372 75.9066C945.761 75.9066 950.481 77.8796 956.802 81.9376C962.707 85.7296 968.777 89.2916 974.581 93.2376C980.15 96.8826 986.623 101.032 989.609 102.462L1011.98 113.164C1012.51 112.56 1013 112.015 1013 112.01C1012.73 111.778 993.317 95.0026 990.947 93.1906Z" fill="white"/>
<path opacity="0.3" d="M971.024 106.793C973.673 105.075 977.961 101.699 975.23 98.1494C974.883 97.7694 974.483 97.3904 974.044 97.0094C970.74 94.1444 966.756 91.9374 963.033 89.6644C958.773 87.0634 954.444 84.5804 950.109 82.1084L949.951 82.0174C944.934 79.1594 942.365 78.8004 938.96 80.4994C931.308 84.3304 931.022 85.6044 931.386 86.7354C932.538 90.8074 939.227 97.7504 952.57 105.146C957.83 108.06 963.587 109.243 967.557 108.474C968.578 108.259 969.723 107.639 971.024 106.793Z" fill="#FFAA00"/>
<path d="M1154.72 347.28H1158.29V243.089C1158.29 188.863 1123.42 168.518 1106.66 158.74C1094.16 151.447 1022.67 112.1 1013 106.781V110.857C1027.39 118.775 1092.89 154.842 1104.86 161.825C1122.95 172.377 1154.72 191.662 1154.72 243.089C1154.72 250.932 1154.72 291.471 1154.72 347.28Z" fill="white"/>
<path d="M1160.84 349.322H1152.17V623.468H1160.84V349.322Z" fill="white"/>
<path opacity="0.3" d="M964.517 104.077C968.589 103.92 972.307 101.674 975.433 98.4574C975.366 98.3554 975.311 98.2534 975.233 98.1494C974.886 97.7694 974.485 97.3904 974.046 97.0094C970.742 94.1444 966.759 91.9374 963.036 89.6644C958.776 87.0634 954.446 84.5804 950.111 82.1084L949.954 82.0174C944.937 79.1594 942.368 78.8004 938.963 80.4994C936.134 81.9164 934.317 82.9814 933.162 83.8194C928.949 88.6114 951.257 104.587 964.517 104.077Z" fill="#FFF064"/>
<path d="M1163.9 680V625.508H1160.84H1152.17H1149.11V680H1163.9Z" fill="white"/>
<path opacity="0.4" d="M1151.15 243.089V349.268H1148.6V625.507H1145.54V679.999H1163.9V625.507H1160.84V349.268H1158.29V243.089C1158.29 188.863 1123.42 168.518 1106.66 158.74C1094.15 151.447 1022.67 112.1 1013 106.781V112.019L1011.26 113.977C1025.63 121.884 1091.2 157.988 1103.06 164.909C1119.86 174.714 1151.15 192.966 1151.15 243.089Z" fill="white"/>
<path opacity="0.05" d="M1112.53 680L976.087 100.263C976.063 99.9304 975.983 99.5914 975.849 99.2514L975.829 99.1634L975.81 99.1574C975.669 98.8244 975.491 98.4894 975.231 98.1494C974.884 97.7694 974.483 97.3904 974.044 97.0094C970.74 94.1444 966.757 91.9374 963.034 89.6644C958.774 87.0634 954.444 84.5804 950.109 82.1084L949.952 82.0174C944.935 79.1594 942.366 78.8004 938.961 80.4994C934.018 82.9744 932.15 84.3814 931.544 85.3734L452.516 680H1112.53Z" fill="white"/>
</g>
</svg>
