<svg width="1210" height="880" viewBox="0 0 1210 880" fill="none" xmlns="http://www.w3.org/2000/svg">
<mask id="mask0" mask-type="alpha" maskUnits="userSpaceOnUse" x="0" y="0" width="1210" height="880">
<rect width="1210" height="880" fill="white"/>
</mask>
<g mask="url(#mask0)">
<path d="M971.023 106.793C973.672 105.075 977.96 101.699 975.229 98.1494C974.882 97.7694 974.481 97.3904 974.042 97.0094C970.738 94.1444 966.755 91.9374 963.032 89.6644C958.772 87.0634 954.442 84.5804 950.107 82.1084L949.95 82.0174C944.933 79.1594 942.364 78.8004 938.959 80.4994C931.307 84.3304 931.021 85.6044 931.385 86.7354C932.537 90.8074 939.225 97.7504 952.568 105.146C957.828 108.06 963.586 109.243 967.556 108.474C968.577 108.259 969.722 107.639 971.023 106.793Z" fill="white"/>
<path opacity="0.2" d="M990.297 83.4997C986.641 80.4147 982.325 78.3217 981.431 77.9677C976.21 75.8737 967.325 72.2247 962.556 70.4197C956.06 67.9617 948.262 65.8937 940.98 67.4347C932.709 69.1917 930.839 71.7247 929.288 73.4947C928.755 74.0987 927.305 75.9857 926.582 77.5387C926.032 78.7267 926.066 79.9597 926.644 81.1297C926.959 81.7677 927.41 82.4147 927.927 83.0627C927.927 83.0627 929.624 84.9987 930.145 85.6787C930.523 86.1717 930.809 86.4827 931.384 86.7397C932.536 90.8117 939.224 97.7547 952.567 105.151C957.827 108.065 963.585 109.248 967.555 108.479L968.172 108.849C971.247 109.486 1010.57 114.752 1010.57 114.752L1012.99 112.023V105.098C1012.99 105.097 993.73 86.3947 990.297 83.4997Z" fill="white"/>
<path opacity="0.1" d="M980.623 110.674C993.181 112.422 1010.58 114.751 1010.58 114.751L1011.98 113.165C1011.98 113.166 1011.98 113.165 1011.98 113.165L989.608 102.463L980.623 110.674Z" fill="white"/>
<path opacity="0.8" d="M927.379 77.0177C929.485 75.1877 932.472 73.7107 934.213 72.8057C938.401 70.6297 944.834 70.0677 951.157 72.8767C957.48 75.6867 988.556 91.3627 990.947 93.1907C993.317 95.0027 1012.73 111.778 1012.99 112.009V105.095C1012.99 105.095 993.732 86.3927 990.299 83.4977C986.643 80.4127 982.327 78.3197 981.433 77.9657C976.212 75.8717 967.327 72.2227 962.558 70.4177C956.062 67.9597 948.264 65.8917 940.982 67.4327C932.711 69.1897 930.841 71.7227 929.29 73.4927C928.757 74.0967 927.307 75.9837 926.584 77.5367C926.398 77.9367 926.303 78.3447 926.25 78.7497C926.387 78.1517 926.739 77.5707 927.379 77.0177Z" fill="white"/>
<path opacity="0.3" d="M990.946 93.1906C988.556 91.3626 957.479 75.6856 951.155 72.8766C944.831 70.0666 938.4 70.6296 934.212 72.8056C932.47 73.7106 929.484 75.1876 927.378 77.0176C926.737 77.5716 926.385 78.1536 926.248 78.7506C925.903 80.2586 926.979 81.9796 927.933 83.0656C927.946 83.0796 928.267 83.4476 928.667 83.9116C928.534 83.2786 928.821 82.3536 931.009 80.9626C932.412 80.0686 938.338 76.9676 939.124 76.6086C939.782 76.3076 940.837 75.9066 942.37 75.9066C945.76 75.9066 950.48 77.8796 956.801 81.9376C962.706 85.7296 968.776 89.2916 974.58 93.2376C980.149 96.8826 986.621 101.032 989.607 102.462L1011.98 113.164C1012.51 112.56 1012.99 112.015 1012.99 112.01C1012.73 111.778 993.316 95.0026 990.946 93.1906Z" fill="white"/>
<path opacity="0.3" d="M971.023 106.793C973.672 105.075 977.96 101.699 975.229 98.1494C974.882 97.7694 974.481 97.3904 974.042 97.0094C970.738 94.1444 966.755 91.9374 963.032 89.6644C958.772 87.0634 954.442 84.5804 950.107 82.1084L949.95 82.0174C944.933 79.1594 942.364 78.8004 938.959 80.4994C931.307 84.3304 931.021 85.6044 931.385 86.7354C932.537 90.8074 939.225 97.7504 952.568 105.146C957.828 108.06 963.586 109.243 967.556 108.474C968.577 108.259 969.722 107.639 971.023 106.793Z" fill="#FFAA00"/>
<path d="M1154.72 347.28H1158.29V243.089C1158.29 188.863 1123.42 168.518 1106.66 158.74C1094.15 151.447 1022.67 112.1 1013 106.781V110.857C1027.38 118.775 1092.89 154.842 1104.86 161.825C1122.94 172.377 1154.72 191.662 1154.72 243.089C1154.72 250.932 1154.72 291.471 1154.72 347.28Z" fill="white"/>
<path d="M1160.84 349.322H1152.17V623.468H1160.84V349.322Z" fill="white"/>
<path opacity="0.3" d="M964.515 104.077C968.587 103.92 972.305 101.674 975.431 98.4574C975.364 98.3554 975.309 98.2534 975.231 98.1494C974.884 97.7694 974.483 97.3904 974.044 97.0094C970.74 94.1444 966.757 91.9374 963.034 89.6644C958.774 87.0634 954.444 84.5804 950.109 82.1084L949.952 82.0174C944.935 79.1594 942.366 78.8004 938.961 80.4994C936.132 81.9164 934.315 82.9814 933.16 83.8194C928.947 88.6114 951.255 104.587 964.515 104.077Z" fill="#FFF064"/>
<path d="M1163.9 880V625.508H1160.84H1152.17H1149.11V880H1163.9Z" fill="white"/>
<path opacity="0.4" d="M1151.14 243.089V349.268H1148.59V625.507H1145.53V880H1163.9V625.507H1160.84V349.268H1158.29V243.089C1158.29 188.863 1123.41 168.518 1106.65 158.74C1094.15 151.447 1022.66 112.1 1012.99 106.781V112.019L1011.26 113.977C1025.63 121.884 1091.2 157.988 1103.06 164.909C1119.86 174.714 1151.14 192.966 1151.14 243.089Z" fill="white"/>
<path opacity="0.05" d="M1112.53 880L976.085 100.263C976.061 99.9304 975.981 99.5914 975.847 99.2514L975.827 99.1634L975.808 99.1574C975.667 98.8244 975.489 98.4894 975.229 98.1494C974.882 97.7694 974.481 97.3904 974.042 97.0094C970.738 94.1444 966.755 91.9374 963.032 89.6644C958.772 87.0634 954.442 84.5804 950.107 82.1084L949.95 82.0174C944.933 79.1594 942.364 78.8004 938.959 80.4994C934.016 82.9744 932.148 84.3814 931.542 85.3734L340.998 880H1112.53Z" fill="white"/>
</g>
</svg>
