<svg width="1210" height="680" viewBox="0 0 1210 680" fill="none" xmlns="http://www.w3.org/2000/svg">
<mask id="mask0" mask-type="alpha" maskUnits="userSpaceOnUse" x="0" y="0" width="1210" height="680">
<rect width="1210" height="680" fill="white"/>
</mask>
<g mask="url(#mask0)">
<path opacity="0.15" d="M1210 167.657C1195.12 130.266 1172.64 95.9426 1143.33 66.6305C1114.04 37.3417 1079.75 14.8807 1042.4 0H934.152C1007.53 0.718719 1076.42 29.6112 1128.38 81.5788C1181.01 134.207 1210 204.181 1210 278.609H1210V167.657Z" fill="#D51E3C"/>
<path opacity="0.12" d="M1210 119.155C1196 94.7798 1178.69 72.0968 1158.28 51.6852C1137.93 31.3412 1115.33 14.0824 1091.05 0.105469H1042.66C1079.91 14.9861 1114.11 37.4123 1143.33 66.6324C1172.64 95.9435 1195.12 130.267 1210 167.657V119.155Z" fill="#FFF064"/>
<path opacity="0.2" d="M1210 80.1063C1199.06 64.8124 1186.79 50.3006 1173.23 36.7379C1159.72 23.2324 1145.27 11.0141 1130.05 0.105469H1091.05C1115.33 14.0824 1137.94 31.3423 1158.28 51.6862C1178.69 72.0979 1196 94.7798 1210 119.155V80.1063Z" fill="#0E9983"/>
<path opacity="0.35" d="M1210 45.6427C1203.11 37.4292 1195.85 29.4609 1188.18 21.7907C1180.56 14.1712 1172.64 6.95549 1164.49 0.105469H1130.05C1145.27 11.0141 1159.72 23.2324 1173.23 36.7379C1186.79 50.3006 1199.06 64.8124 1210 80.1052V45.6427H1210Z" fill="#405684"/>
<path opacity="0.8" d="M1093.29 247.202C1092.47 247.073 1091.36 246.959 1090.05 246.859C1097.87 244.817 1097.6 232.933 1089.21 231.622C1088.38 231.49 1087.28 231.377 1086.01 231.279C1093.22 229.324 1092.95 218.103 1085.2 216.847C1084.3 216.699 1083.17 216.576 1081.91 216.474C1087.99 213.887 1087.4 204.076 1080.12 202.931C1079.6 202.85 1079.05 202.783 1078.5 202.719C1079.21 202.528 1079.91 202.265 1080.43 201.908C1082.09 200.717 1082.7 198.422 1081.76 195.821C1081.76 195.821 1077.38 183.537 1076.19 180.272C1075.47 178.363 1073.86 177.365 1071.89 177.365H1071.87H1071.81C1069.84 177.365 1068.24 178.363 1067.52 180.272C1066.35 183.537 1061.95 195.821 1061.95 195.821C1061.03 198.422 1061.64 200.719 1063.3 201.908C1063.81 202.264 1064.51 202.526 1065.22 202.717C1064.66 202.783 1064.11 202.85 1063.58 202.931C1056.31 204.075 1055.72 213.886 1061.8 216.474C1060.54 216.577 1059.41 216.7 1058.51 216.847C1050.76 218.103 1050.49 229.329 1057.7 231.281C1056.43 231.378 1055.35 231.492 1054.52 231.622C1046.11 232.934 1045.83 244.812 1053.68 246.857C1052.36 246.958 1051.24 247.072 1050.42 247.202C1040.39 248.779 1040.39 263.416 1050.42 264.993C1057.63 266.126 1086.08 266.127 1093.29 264.993C1103.32 263.416 1103.32 248.779 1093.29 247.202Z" fill="#405684"/>
<path opacity="0.3" d="M1080.12 202.931C1079.6 202.85 1079.05 202.782 1078.5 202.719C1078 202.854 1077.49 202.959 1077.05 203.015C1073.89 203.401 1069.81 203.401 1066.68 203.015C1066.23 202.958 1065.72 202.853 1065.22 202.717C1064.66 202.782 1064.11 202.85 1063.58 202.931C1055.66 204.178 1055.66 215.717 1063.58 216.989C1068.54 217.764 1075.16 217.764 1080.12 216.989C1088.05 215.717 1088.05 204.178 1080.12 202.931Z" fill="#405684"/>
<path opacity="0.3" d="M1085.2 216.845C1084.3 216.696 1083.18 216.573 1081.91 216.471C1081.37 216.704 1080.78 216.883 1080.12 216.987C1075.17 217.762 1068.54 217.762 1063.58 216.987C1062.93 216.882 1062.34 216.703 1061.79 216.471C1060.53 216.574 1059.41 216.697 1058.51 216.845C1050.48 218.146 1050.48 230.156 1058.51 231.456C1064.38 232.421 1079.32 232.421 1085.2 231.456C1093.23 230.156 1093.23 218.147 1085.2 216.845Z" fill="#FFF064"/>
<path opacity="0.3" d="M1089.21 231.621C1088.38 231.489 1087.28 231.375 1086.01 231.277C1085.74 231.349 1085.48 231.411 1085.19 231.457C1079.32 232.422 1064.38 232.422 1058.51 231.457C1058.23 231.411 1057.96 231.349 1057.7 231.279C1056.43 231.376 1055.35 231.49 1054.52 231.621C1045.82 232.978 1045.82 245.651 1054.52 247.035C1061 248.06 1082.7 248.06 1089.21 247.035C1097.89 245.65 1097.89 232.977 1089.21 231.621Z" fill="#0E9983"/>
<path opacity="0.3" d="M1093.29 247.2C1092.47 247.072 1091.36 246.958 1090.05 246.858C1089.78 246.927 1089.5 246.988 1089.21 247.035C1082.7 248.059 1061 248.059 1054.52 247.035C1054.23 246.988 1053.95 246.926 1053.67 246.855C1052.36 246.957 1051.24 247.071 1050.42 247.2C1040.39 248.777 1040.39 263.414 1050.42 264.991C1057.62 266.125 1086.08 266.126 1093.29 264.991C1103.32 263.414 1103.32 248.777 1093.29 247.2Z" fill="#D51E3C"/>
<path opacity="0.3" d="M1066.68 203.014C1069.82 203.4 1073.89 203.4 1077.05 203.014C1078.13 202.877 1079.54 202.515 1080.43 201.906C1082.09 200.716 1082.7 198.42 1081.76 195.819C1081.76 195.819 1077.38 183.535 1076.19 180.27C1075.47 178.361 1073.86 177.363 1071.89 177.363H1071.87H1071.81C1069.84 177.363 1068.24 178.361 1067.52 180.27C1066.35 183.535 1061.95 195.819 1061.95 195.819C1061.03 198.42 1061.64 200.717 1063.3 201.906C1064.16 202.515 1065.6 202.877 1066.68 203.014Z" fill="#D51E3C"/>
<path opacity="0.2" d="M1075.38 196.522C1075.07 191.916 1073.56 185.328 1072.57 181.468C1071.89 178.73 1070.53 178.405 1069.68 178.764C1069.04 179.166 1068.55 179.761 1068.26 180.55C1067.1 183.802 1062.69 196.087 1062.69 196.087C1061.93 198.258 1062.34 200.242 1063.76 201.265C1064.63 201.875 1065.75 202.103 1066.78 202.231C1067.63 202.335 1068.56 202.404 1069.53 202.448C1072.09 202.282 1075.5 201.385 1075.38 196.522Z" fill="#D51E3C"/>
<path opacity="0.05" d="M1082.46 234.506C1081.24 233.48 1079.3 233.397 1077.94 233.49L1077.93 233.487C1076.04 233.599 1074 233.664 1071.86 233.664C1066.83 233.664 1062.32 233.322 1059.12 232.777C1056.66 232.356 1053.05 232.218 1051.07 234.016C1050.92 234.152 1050.78 234.299 1050.64 234.448C1050.64 234.448 1050.65 234.47 1050.65 234.472C1049.71 235.752 1049.28 239.104 1051.64 240.711C1052.46 241.201 1053.42 241.563 1054.51 241.738C1059.69 242.556 1074.56 242.721 1083.66 242.231L1083.67 242.23C1084.13 241.389 1084.4 240.401 1084.4 239.261C1084.4 237.537 1083.76 235.663 1082.46 234.506Z" fill="white"/>
<path opacity="0.2" d="M1082.46 234.506C1081.24 233.48 1079.31 233.397 1077.94 233.49L1077.94 233.487C1076.04 233.599 1074 233.664 1071.86 233.664C1066.84 233.664 1062.32 233.322 1059.13 232.777C1056.67 232.356 1053.05 232.218 1051.07 234.016C1049.6 235.352 1048.79 237.317 1048.78 239.304C1048.78 242.298 1050.59 245.607 1054.64 246.253C1056.2 246.499 1058.66 246.686 1061.57 246.812C1067.14 247.055 1073.08 246.77 1078.55 245.609C1081.8 244.919 1084.41 242.828 1084.4 239.261C1084.4 237.537 1083.76 235.663 1082.46 234.506Z" fill="#0E9983"/>
<path opacity="0.2" d="M1084.78 250.232C1083.34 249.11 1080.07 248.773 1078.81 248.834C1076.6 248.938 1074.28 248.998 1071.86 248.998C1065.37 248.998 1059.49 248.594 1055.07 247.939C1055.04 247.937 1055.02 247.936 1054.99 247.934C1048.69 247.462 1046.73 249.424 1045.95 250.182L1045.95 250.152C1044.42 251.746 1043.68 253.887 1043.68 255.921C1043.68 259.424 1045.8 263.29 1050.54 264.035C1053.32 264.472 1059.27 264.74 1065.94 264.838C1068.75 264.796 1071.55 264.816 1074.35 264.529C1077.19 264.24 1080.13 263.892 1082.81 262.867C1083.51 262.597 1084.21 262.254 1084.79 261.763C1086.43 260.369 1087.32 258.16 1087.32 255.876C1087.32 253.366 1086.38 251.535 1084.78 250.232Z" fill="#D51E3C"/>
<path opacity="0.1" d="M1074.44 218.31C1073.46 218.345 1072.45 218.366 1071.4 218.366C1066.54 218.366 1062.28 217.956 1059.85 217.341C1059.34 217.33 1058.84 217.321 1058.35 217.312C1056.91 217.467 1055.57 217.899 1054.48 219.008C1053.24 220.262 1052.59 222.038 1052.59 223.797C1052.59 226.613 1054.24 229.722 1057.95 230.321C1060.09 230.673 1062.93 230.892 1066.32 230.985C1070.05 230.893 1073.86 230.589 1077.25 229.13C1079.49 228.166 1080.6 226.196 1080.6 223.77C1080.6 222.415 1080.2 220.964 1079.36 219.867C1078.2 218.352 1075.63 218.256 1074.44 218.31Z" fill="#FFF064"/>
<path opacity="0.05" d="M1074.44 218.31C1073.46 218.345 1072.45 218.366 1071.4 218.366C1066.54 218.366 1062.27 217.956 1059.85 217.341C1059.34 217.33 1058.84 217.321 1058.35 217.312C1056.96 217.463 1055.67 217.874 1054.6 218.899C1053.04 220.666 1053.42 224.503 1057.82 225.333C1062.58 226.115 1073.28 226.264 1080.3 225.779C1080.49 225.156 1080.6 224.487 1080.6 223.772C1080.6 222.417 1080.19 220.966 1079.36 219.869C1078.2 218.352 1075.63 218.256 1074.44 218.31Z" fill="white"/>
<path opacity="0.05" d="M1077 206.122C1076.02 205.024 1074.67 204.576 1073.27 204.354C1072.81 204.366 1072.34 204.373 1071.86 204.373C1069.69 204.373 1067.7 204.253 1066.11 204.054C1065.94 204.032 1065.76 204.021 1065.59 203.987C1064.35 203.746 1063.15 203.902 1062.48 204.073C1059.72 205.056 1058.43 207.583 1058.43 209.937C1058.42 212.636 1060.05 215.621 1063.7 216.207C1066.45 216.647 1069.03 216.486 1071.75 215.968C1073.29 215.676 1074.89 215.339 1076.2 214.42C1077.61 213.422 1078.33 211.602 1078.33 209.89C1078.33 208.53 1077.9 207.147 1077 206.122Z" fill="white"/>
<path opacity="0.05" d="M1076.99 206.122C1076.02 205.024 1074.66 204.576 1073.26 204.354C1072.81 204.366 1072.34 204.373 1071.86 204.373C1069.69 204.373 1067.7 204.253 1066.11 204.054C1065.94 204.044 1065.76 204.02 1065.59 203.988C1064.15 203.706 1062.74 203.964 1062.19 204.157C1061.53 204.43 1060.95 204.796 1060.47 205.23C1059.55 206.293 1059.05 207.86 1061.52 209.313C1062.13 209.608 1062.82 209.826 1063.58 209.949C1067.96 210.633 1073.63 210.712 1078.32 210.187C1078.32 210.088 1078.33 209.989 1078.33 209.892C1078.33 208.53 1077.9 207.147 1076.99 206.122Z" fill="white"/>
<g opacity="0.2">
<path opacity="0.2" d="M1077.12 253.39C1073.69 253.39 1070.84 253.281 1069.8 253.19C1069.22 253.139 1068.79 252.627 1068.84 252.047C1068.9 251.468 1069.4 251.033 1069.99 251.09C1077.07 251.718 1089.82 251.076 1092.7 250.029C1092.67 249.769 1092.73 249.499 1092.89 249.274C1093.24 248.807 1093.9 248.706 1094.36 249.05C1095.28 249.733 1095.06 250.545 1094.98 250.778C1094.16 252.909 1084.35 253.39 1077.12 253.39Z" fill="white"/>
</g>
<g opacity="0.2">
<path opacity="0.2" d="M1073.84 237.893C1070.89 237.893 1068.55 237.806 1067.92 237.78C1067.34 237.757 1066.89 237.266 1066.91 236.684C1066.94 236.102 1067.42 235.635 1068.01 235.674C1074.57 235.941 1085.94 235.784 1088.51 234.201C1089 233.893 1089.65 234.049 1089.96 234.544C1090.26 235.04 1090.11 235.69 1089.61 235.994C1087.03 237.586 1079.37 237.893 1073.84 237.893Z" fill="white"/>
</g>
<g opacity="0.2">
<path opacity="0.2" d="M1074.73 223.086C1072.59 223.086 1070.41 223.015 1068.49 222.888C1067.91 222.849 1067.47 222.346 1067.51 221.766C1067.54 221.185 1068.04 220.757 1068.63 220.784C1074.8 221.195 1081.6 220.948 1084.11 220.225C1084.67 220.07 1085.25 220.386 1085.42 220.947C1085.58 221.506 1085.25 222.09 1084.69 222.251C1082.65 222.839 1078.74 223.086 1074.73 223.086Z" fill="white"/>
</g>
<g opacity="0.2">
<path opacity="0.2" d="M1074.47 207.935C1072.6 207.935 1070.85 207.841 1070.08 207.769C1069.5 207.714 1069.08 207.199 1069.14 206.62C1069.19 206.04 1069.7 205.588 1070.29 205.671C1073.45 205.973 1078.7 205.818 1079.49 205.398C1079.97 205.069 1080.62 205.196 1080.95 205.677C1081.28 206.157 1081.15 206.82 1080.67 207.149C1079.77 207.766 1077 207.935 1074.47 207.935Z" fill="white"/>
</g>
<g opacity="0.2">
<path opacity="0.2" d="M1073.64 187.331C1073.17 187.331 1072.74 187.009 1072.62 186.528C1072.32 185.322 1072.06 184.272 1071.83 183.401C1071.68 182.838 1072.02 182.262 1072.58 182.114C1073.15 181.968 1073.72 182.305 1073.87 182.868C1074.1 183.747 1074.37 184.808 1074.67 186.025C1074.81 186.59 1074.46 187.162 1073.9 187.301C1073.81 187.322 1073.73 187.331 1073.64 187.331Z" fill="white"/>
</g>
<g opacity="0.2">
<path opacity="0.2" d="M1070.63 199.009C1070.05 199.009 1069.58 198.537 1069.58 197.954C1069.58 197.371 1070.05 196.9 1070.63 196.9C1072.26 196.9 1073.11 196.669 1073.57 196.104C1074.2 195.308 1074.24 193.538 1073.66 190.987C1073.54 190.419 1073.89 189.856 1074.46 189.728C1075.03 189.597 1075.59 189.957 1075.72 190.526C1076.47 193.862 1076.31 196.054 1075.21 197.423C1074.09 198.821 1072.27 199.009 1070.63 199.009Z" fill="white"/>
</g>
<path opacity="0.05" d="M1074.48 190.024C1073.89 186.866 1073.14 183.709 1072.57 181.468C1071.89 178.73 1070.53 178.405 1069.68 178.764C1069.04 179.166 1068.56 179.761 1068.26 180.55C1067.53 182.579 1065.55 188.113 1064.16 191.995C1063.63 193.605 1063.62 195.37 1066.02 196.185C1068.35 196.613 1070.99 196.83 1073.11 195.524C1074.15 194.642 1075.11 193.144 1074.48 190.024Z" fill="white"/>
<path opacity="0.05" d="M1084.78 250.232C1083.34 249.11 1080.07 248.773 1078.82 248.839L1078.81 248.834C1076.6 248.938 1074.28 248.998 1071.86 248.998C1065.37 248.998 1059.49 248.595 1055.07 247.939C1055.04 247.937 1055.02 247.936 1054.99 247.934C1051.28 247.656 1049.09 248.22 1047.74 248.887C1047.52 248.992 1047.31 249.106 1047.12 249.231C1047.11 249.239 1047.1 249.246 1047.09 249.253C1045.71 250.177 1045.11 251.57 1044.96 252.614C1044.65 254.704 1045.72 256.666 1047.59 257.77C1048.42 258.195 1049.36 258.519 1050.42 258.686C1056.16 259.589 1075.41 259.773 1086.63 259.235C1087.08 258.202 1087.32 257.05 1087.32 255.875C1087.32 253.366 1086.38 251.535 1084.78 250.232Z" fill="white"/>
<path opacity="0.2" d="M1093.29 247.202C1092.47 247.073 1091.36 246.959 1090.05 246.859C1097.87 244.817 1097.6 232.933 1089.21 231.622C1088.38 231.49 1087.28 231.377 1086.01 231.279C1093.22 229.324 1092.95 218.103 1085.2 216.847C1084.3 216.699 1083.17 216.576 1081.91 216.474C1087.99 213.887 1087.4 204.076 1080.12 202.931C1079.6 202.85 1079.05 202.783 1078.5 202.719C1079.21 202.528 1079.91 202.265 1080.43 201.908C1082.09 200.717 1082.7 198.422 1081.76 195.821C1081.76 195.821 1077.38 183.537 1076.19 180.272C1075.47 178.363 1073.86 177.365 1071.89 177.365H1071.87H1071.81C1069.84 177.365 1068.24 178.363 1067.52 180.272C1066.35 183.537 1061.95 195.821 1061.95 195.821C1061.03 198.422 1061.64 200.719 1063.3 201.908C1063.81 202.264 1064.51 202.526 1065.22 202.717C1064.66 202.783 1064.11 202.85 1063.58 202.931C1056.31 204.075 1055.72 213.886 1061.8 216.474C1060.54 216.577 1059.41 216.7 1058.51 216.847C1050.76 218.103 1050.49 229.329 1057.7 231.281C1056.43 231.378 1055.35 231.492 1054.52 231.622C1046.11 232.934 1045.83 244.812 1053.68 246.857C1052.36 246.958 1051.24 247.072 1050.42 247.202C1040.39 248.779 1040.39 263.416 1050.42 264.993C1057.63 266.126 1086.08 266.127 1093.29 264.993C1103.32 263.416 1103.32 248.779 1093.29 247.202Z" fill="#405684"/>
<path d="M897.607 265.842C914.745 265.842 928.639 251.948 928.639 234.81C928.639 217.671 914.745 203.777 897.607 203.777C880.468 203.777 866.574 217.671 866.574 234.81C866.574 251.948 880.468 265.842 897.607 265.842Z" fill="#405684"/>
<path opacity="0.4" d="M897.131 263.062C913.543 263.062 926.847 249.758 926.847 233.346C926.847 216.934 913.543 203.629 897.131 203.629C880.719 203.629 867.414 216.934 867.414 233.346C867.414 249.758 880.719 263.062 897.131 263.062Z" fill="url(#paint0_radial)"/>
<path opacity="0.4" d="M921.415 214.908C920.744 215.97 918.992 217.843 916.549 220.209C915.95 219.587 915.275 219.187 914.64 218.917C914.392 218.812 914.122 218.747 913.847 218.717C911.244 211.98 907.552 207.227 902.519 204.165C900.919 203.911 899.279 203.777 897.605 203.777C884.642 203.777 873.536 211.728 868.895 223.018C873.421 217.563 887.717 210.257 911.305 220.167C911.165 220.621 911.147 221.182 911.316 221.865C911.504 222.627 911.922 223.38 912.469 224.04C899.976 235.476 878.754 252.834 874.258 255.25C879.947 261.741 888.297 265.841 897.605 265.841C899.059 265.841 900.489 265.739 901.889 265.546C910.971 264.045 922.024 250.059 916.056 225.892C917.175 225.741 918.096 224.908 918.052 223.497C923.211 226.707 926.592 230.953 928.627 235.628C928.635 235.356 928.638 235.083 928.638 234.81C928.639 227.236 925.923 220.296 921.415 214.908Z" fill="#334163"/>
<path opacity="0.05" d="M919.164 221.519C918.043 219.056 916.259 217.842 914.647 217.158C912.25 216.144 908.535 217.33 909.599 221.636C910.125 223.766 911.806 225.865 913.791 227.09C916.991 229.066 921.574 226.813 919.164 221.519ZM914.373 223.752C913.774 223.382 913.267 222.748 913.108 222.105C912.787 220.806 913.908 220.449 914.631 220.754C915.117 220.96 915.656 221.327 915.994 222.07C916.722 223.668 915.339 224.347 914.373 223.752Z" fill="white"/>
<path d="M867.365 265.276C867.365 265.59 867.11 265.843 866.798 265.843H852.646C852.335 265.843 852.08 265.59 852.08 265.276V251.124C852.08 250.812 852.335 250.557 852.646 250.557H866.798C867.11 250.557 867.365 250.812 867.365 251.124V265.276Z" fill="#334163"/>
<g opacity="0.8">
<g opacity="0.8">
<path opacity="0.8" d="M866.295 265.315C866.295 265.605 866.057 265.842 865.768 265.842H852.605C852.316 265.842 852.078 265.605 852.078 265.315V252.152C852.078 251.862 852.316 251.625 852.605 251.625H865.768C866.057 251.625 866.295 251.862 866.295 252.152V265.315Z" fill="#405684"/>
</g>
</g>
<g opacity="0.3">
<g opacity="0.3">
<path opacity="0.3" d="M866.295 265.315C866.295 265.605 866.057 265.842 865.768 265.842H852.605C852.316 265.842 852.078 265.605 852.078 265.315V252.152C852.078 251.862 852.316 251.625 852.605 251.625H865.768C866.057 251.625 866.295 251.862 866.295 252.152V265.315Z" fill="#D51E3C"/>
</g>
</g>
<path opacity="0.2" d="M864.808 265.44C864.658 257.896 860.334 253.265 852.478 253.113C852.254 253.149 852.078 253.336 852.078 253.57V265.316C852.078 265.606 852.316 265.843 852.605 265.843H864.35C864.584 265.842 864.772 265.665 864.808 265.44Z" fill="#D51E3C"/>
<path opacity="0.2" d="M859.187 265.618C859.103 261.406 856.688 258.82 852.302 258.734C852.176 258.755 852.078 258.859 852.078 258.99V265.316C852.078 265.606 852.316 265.843 852.605 265.843H858.932C859.062 265.843 859.167 265.744 859.187 265.618Z" fill="#D51E3C"/>
<g opacity="0.2">
<path opacity="0.2" d="M867.365 265.276C867.365 265.59 867.11 265.843 866.798 265.843H852.646C852.335 265.843 852.08 265.59 852.08 265.276V251.124C852.08 250.812 852.335 250.557 852.646 250.557H866.798C867.11 250.557 867.365 250.812 867.365 251.124V265.276Z" fill="#405684"/>
</g>
<path d="M882.65 265.276C882.65 265.59 882.395 265.843 882.084 265.843H867.932C867.62 265.843 867.365 265.59 867.365 265.276V251.124C867.365 250.812 867.62 250.557 867.932 250.557H882.084C882.395 250.557 882.65 250.812 882.65 251.124V265.276Z" fill="#334163"/>
<g opacity="0.8">
<g opacity="0.8">
<path opacity="0.8" d="M881.582 265.315C881.582 265.605 881.344 265.842 881.054 265.842H867.892C867.602 265.842 867.365 265.605 867.365 265.315V252.152C867.365 251.862 867.602 251.625 867.892 251.625H881.054C881.344 251.625 881.582 251.862 881.582 252.152V265.315Z" fill="#405684"/>
</g>
</g>
<g opacity="0.3">
<path opacity="0.3" d="M881.582 265.315C881.582 265.605 881.344 265.842 881.054 265.842H867.892C867.602 265.842 867.365 265.605 867.365 265.315V252.152C867.365 251.862 867.602 251.625 867.892 251.625H881.054C881.344 251.625 881.582 251.862 881.582 252.152V265.315Z" fill="#FFF064"/>
</g>
<path opacity="0.1" d="M880.095 265.44C879.944 257.896 875.62 253.265 867.764 253.113C867.54 253.149 867.365 253.336 867.365 253.57V265.316C867.365 265.606 867.602 265.843 867.892 265.843H879.638C879.871 265.842 880.059 265.665 880.095 265.44Z" fill="#FFF064"/>
<path opacity="0.1" d="M874.474 265.618C874.391 261.406 871.975 258.82 867.588 258.734C867.463 258.755 867.365 258.859 867.365 258.99V265.316C867.365 265.606 867.602 265.843 867.892 265.843H874.218C874.348 265.843 874.453 265.744 874.474 265.618Z" fill="#FFF064"/>
<g opacity="0.2">
<path opacity="0.2" d="M882.65 265.276C882.65 265.59 882.395 265.843 882.084 265.843H867.932C867.62 265.843 867.365 265.59 867.365 265.276V251.124C867.365 250.812 867.62 250.557 867.932 250.557H882.084C882.395 250.557 882.65 250.812 882.65 251.124V265.276Z" fill="#405684"/>
</g>
<path d="M867.365 249.989C867.365 250.303 867.11 250.556 866.798 250.556H852.646C852.335 250.556 852.08 250.303 852.08 249.989V235.837C852.08 235.525 852.335 235.27 852.646 235.27H866.798C867.11 235.27 867.365 235.525 867.365 235.837V249.989Z" fill="#334163"/>
<g opacity="0.8">
<g opacity="0.8">
<path opacity="0.8" d="M866.295 250.028C866.295 250.318 866.057 250.555 865.768 250.555H852.605C852.316 250.555 852.078 250.318 852.078 250.028V236.865C852.078 236.575 852.316 236.338 852.605 236.338H865.768C866.057 236.338 866.295 236.575 866.295 236.865V250.028Z" fill="#405684"/>
</g>
</g>
<g opacity="0.3">
<g opacity="0.3">
<path opacity="0.3" d="M866.295 250.028C866.295 250.318 866.057 250.555 865.768 250.555H852.605C852.316 250.555 852.078 250.318 852.078 250.028V236.865C852.078 236.575 852.316 236.338 852.605 236.338H865.768C866.057 236.338 866.295 236.575 866.295 236.865V250.028Z" fill="#405684"/>
</g>
</g>
<path opacity="0.05" d="M864.808 250.155C864.658 242.611 860.334 237.98 852.478 237.828C852.254 237.864 852.078 238.051 852.078 238.285V250.031C852.078 250.321 852.316 250.558 852.605 250.558H864.35C864.584 250.557 864.772 250.38 864.808 250.155Z" fill="white"/>
<path opacity="0.05" d="M859.187 250.333C859.103 246.121 856.688 243.535 852.302 243.449C852.176 243.47 852.078 243.574 852.078 243.704V250.031C852.078 250.321 852.316 250.558 852.605 250.558H858.932C859.062 250.558 859.167 250.459 859.187 250.333Z" fill="white"/>
<g opacity="0.2">
<path opacity="0.2" d="M867.365 249.989C867.365 250.303 867.11 250.556 866.798 250.556H852.646C852.335 250.556 852.08 250.303 852.08 249.989V235.837C852.08 235.525 852.335 235.27 852.646 235.27H866.798C867.11 235.27 867.365 235.525 867.365 235.837V249.989Z" fill="#405684"/>
</g>
<path d="M882.65 249.989C882.65 250.303 882.395 250.556 882.084 250.556H867.932C867.62 250.556 867.365 250.303 867.365 249.989V235.837C867.365 235.525 867.62 235.27 867.932 235.27H882.084C882.395 235.27 882.65 235.525 882.65 235.837V249.989Z" fill="#334163"/>
<g opacity="0.8">
<g opacity="0.8">
<path opacity="0.8" d="M881.582 250.028C881.582 250.318 881.344 250.555 881.054 250.555H867.892C867.602 250.555 867.365 250.318 867.365 250.028V236.865C867.365 236.575 867.602 236.338 867.892 236.338H881.054C881.344 236.338 881.582 236.575 881.582 236.865V250.028Z" fill="#405684"/>
</g>
</g>
<g opacity="0.3">
<path opacity="0.3" d="M881.582 250.028C881.582 250.318 881.344 250.555 881.054 250.555H867.892C867.602 250.555 867.365 250.318 867.365 250.028V236.865C867.365 236.575 867.602 236.338 867.892 236.338H881.054C881.344 236.338 881.582 236.575 881.582 236.865V250.028Z" fill="#0E9983"/>
</g>
<path opacity="0.2" d="M880.095 250.155C879.944 242.611 875.62 237.98 867.764 237.828C867.54 237.864 867.365 238.051 867.365 238.285V250.031C867.365 250.321 867.602 250.558 867.892 250.558H879.638C879.871 250.557 880.059 250.38 880.095 250.155Z" fill="#0E9983"/>
<path opacity="0.2" d="M874.474 250.333C874.391 246.121 871.975 243.535 867.588 243.449C867.463 243.47 867.365 243.574 867.365 243.704V250.031C867.365 250.321 867.602 250.558 867.892 250.558H874.218C874.348 250.558 874.453 250.459 874.474 250.333Z" fill="#0E9983"/>
<g opacity="0.2">
<path opacity="0.2" d="M882.65 249.989C882.65 250.303 882.395 250.556 882.084 250.556H867.932C867.62 250.556 867.365 250.303 867.365 249.989V235.837C867.365 235.525 867.62 235.27 867.932 235.27H882.084C882.395 235.27 882.65 235.525 882.65 235.837V249.989Z" fill="#405684"/>
</g>
<g opacity="0.2">
<path opacity="0.2" d="M864.759 260.433C864.323 260.433 863.969 260.079 863.969 259.643V258.562C863.969 258.126 864.323 257.771 864.759 257.771C865.196 257.771 865.55 258.126 865.55 258.562V259.643C865.55 260.079 865.196 260.433 864.759 260.433Z" fill="white"/>
</g>
<g opacity="0.2">
<path opacity="0.2" d="M864.76 256.665C864.324 256.665 863.97 256.311 863.97 255.875V253.855H855.668C855.231 253.855 854.877 253.501 854.877 253.064C854.877 252.628 855.231 252.273 855.668 252.273H864.76C865.197 252.273 865.551 252.628 865.551 253.064V255.875C865.551 256.311 865.197 256.665 864.76 256.665Z" fill="white"/>
</g>
<g opacity="0.2">
<path opacity="0.2" d="M880.044 256.665C879.607 256.665 879.253 256.311 879.253 255.875V253.855H870.951C870.514 253.855 870.16 253.501 870.16 253.064C870.16 252.628 870.514 252.273 870.951 252.273H880.044C880.48 252.273 880.834 252.628 880.834 253.064V255.875C880.834 256.311 880.48 256.665 880.044 256.665Z" fill="white"/>
</g>
<g opacity="0.2">
<path opacity="0.2" d="M880.045 260.236C879.608 260.236 879.254 259.882 879.254 259.445V258.365C879.254 257.928 879.608 257.574 880.045 257.574C880.481 257.574 880.835 257.928 880.835 258.365V259.445C880.835 259.882 880.481 260.236 880.045 260.236Z" fill="white"/>
</g>
<g opacity="0.2">
<path opacity="0.2" d="M864.76 241.378C864.324 241.378 863.97 241.024 863.97 240.588V238.568H855.668C855.231 238.568 854.877 238.213 854.877 237.777C854.877 237.341 855.231 236.986 855.668 236.986H864.76C865.197 236.986 865.551 237.341 865.551 237.777V240.588C865.551 241.024 865.197 241.378 864.76 241.378Z" fill="white"/>
</g>
<g opacity="0.2">
<path opacity="0.2" d="M864.759 244.949C864.323 244.949 863.969 244.595 863.969 244.158V243.078C863.969 242.641 864.323 242.287 864.759 242.287C865.196 242.287 865.55 242.641 865.55 243.078V244.158C865.55 244.595 865.196 244.949 864.759 244.949Z" fill="white"/>
</g>
<g opacity="0.2">
<path opacity="0.2" d="M880.044 241.378C879.607 241.378 879.253 241.024 879.253 240.588V238.568H870.951C870.514 238.568 870.16 238.213 870.16 237.777C870.16 237.341 870.514 236.986 870.951 236.986H880.044C880.48 236.986 880.834 237.341 880.834 237.777V240.588C880.834 241.024 880.48 241.378 880.044 241.378Z" fill="white"/>
</g>
<g opacity="0.2">
<path opacity="0.2" d="M880.045 244.949C879.608 244.949 879.254 244.595 879.254 244.158V243.078C879.254 242.641 879.608 242.287 880.045 242.287C880.481 242.287 880.835 242.641 880.835 243.078V244.158C880.835 244.595 880.481 244.949 880.045 244.949Z" fill="white"/>
</g>
<path d="M1067.48 230.297C1065.91 228.48 1060.82 226.719 1056.1 230.186C1051.54 233.775 1046.36 236.969 1040.68 239.745C1040.68 239.738 1040.68 239.732 1040.68 239.725C1042.69 238.457 1040.58 235.877 1039.37 233.905C1037.23 230.412 1031 220.371 1028.59 214.443C1025.72 207.363 1028.38 204.578 1029.38 202.704C1030.39 200.831 1036.57 194.819 1034.39 177.929C1032.61 164.175 1037.03 161.95 1039.43 160.898L1039.44 160.896C1042.2 163.588 1046.22 165.036 1047.06 167.024C1047.65 168.428 1047.94 169.089 1046.96 171.845C1045.99 174.598 1050.99 177.465 1051.72 176.889C1052.45 176.315 1052.54 176.89 1054.35 177.693C1056.16 178.491 1058.65 176.688 1061.39 173.214C1063.18 170.946 1061.89 168.892 1061.44 163.524C1061.12 159.715 1060.57 156.553 1060.29 150.566C1060.25 149.688 1060.15 148.841 1060.02 148.013L1060.05 148.024C1062.31 146.717 1063.42 146.717 1065.38 145.733C1066.53 145.152 1066.98 144.639 1067.02 143.896C1067.04 143.302 1065.34 135.558 1058.91 129.621C1044.79 116.591 1025.63 123.134 1018.3 130.265C1005.97 142.266 1004.88 155.487 1001.73 161.429C1001.38 162.004 1001.01 162.559 1000.61 163.1C1000.42 162.441 999.91 162.205 998.74 163.101C998.178 163.531 997.663 164.03 997.467 164.172C992.456 167.768 984.704 168.866 979.539 169.314C972.529 169.92 966.468 167.723 962.046 166.234C960.561 165.756 959.674 166.325 959.492 167.371C956.257 166.511 952.574 166.28 946.638 167.876C942.932 168.872 940.02 170.55 937.743 172.66L937.737 172.657C937.737 172.657 931.858 159.603 926.814 156.293C925.027 155.121 922.917 155.301 921.138 156.387C919.857 157.165 918.796 158.282 917.976 159.529C917.489 160.271 916.782 161.346 916.858 162.277C916.897 162.767 917.077 163.334 916.821 163.795C916.592 164.209 916.136 164.154 915.756 164.312C915.044 164.604 914.918 165.532 914.876 166.204C914.784 167.653 914.806 169.441 916.05 170.424C917.066 171.226 918.341 171.693 919.608 171.915C927.447 173.286 931.559 173.884 934.498 176.549L934.504 176.556C930.047 183.563 929.938 192.898 931.134 199.393C932.788 208.385 923.339 223.157 919.424 229.248C918.925 230.024 918.512 230.666 918.227 231.13C918.155 231.246 918.104 231.356 918.04 231.469C916.305 234.183 914.881 236.159 917.152 237.642C913.044 235.386 909.235 232.9 905.785 230.184C900.958 226.635 895.735 228.565 894.299 230.423C892.853 231.816 891.949 233.769 891.949 235.937C891.949 240.164 895.379 243.597 899.611 243.597C901.464 243.597 903.163 242.938 904.487 241.843C907.16 240.996 912.631 244.659 919.712 249.299C936.245 259.254 958.2 265.84 980.942 265.84C1003.68 265.84 1025.64 259.254 1042.17 249.299C1049.32 244.613 1054.83 240.929 1057.47 241.872C1058.79 242.949 1060.48 243.597 1062.31 243.597C1066.54 243.597 1069.97 240.164 1069.97 235.937C1069.97 233.702 1069.01 231.697 1067.48 230.297ZM980.942 252.272C959.837 252.273 940.322 248.34 924.408 241.236C927.211 241.837 928.87 239.735 930.553 238.429C932.407 236.988 946.556 223.735 952.892 217.86C961.407 221.409 979.556 228.637 1005.35 219.299C1009.51 224.228 1025.88 240.03 1027.53 241.632C1028.13 242.223 1028.76 242.807 1029.41 243.346C1029.73 243.618 1030.1 243.898 1030.54 243.909C1030.71 243.912 1030.93 243.895 1031.09 243.835C1016.46 249.286 999.306 252.272 980.942 252.272Z" fill="#405684"/>
<path opacity="0.4" d="M1067.48 230.297C1065.91 228.48 1060.82 226.719 1056.1 230.186C1051.54 233.775 1046.36 236.969 1040.68 239.745C1040.68 239.738 1040.68 239.732 1040.68 239.725C1042.69 238.457 1040.58 235.877 1039.37 233.905C1037.23 230.412 1031 220.371 1028.59 214.443C1025.72 207.363 1028.38 204.578 1029.38 202.704C1030.39 200.831 1036.57 194.819 1034.39 177.929C1032.61 164.175 1037.03 161.95 1039.43 160.898L1039.44 160.896C1042.2 163.588 1046.22 165.036 1047.06 167.024C1047.65 168.428 1047.94 169.089 1046.96 171.845C1045.99 174.598 1050.99 177.465 1051.72 176.889C1052.45 176.315 1052.54 176.89 1054.35 177.693C1056.16 178.491 1058.65 176.688 1061.39 173.214C1063.18 170.946 1061.89 168.892 1061.44 163.524C1061.12 159.715 1060.57 156.553 1060.29 150.566C1060.25 149.688 1060.15 148.841 1060.02 148.013L1060.05 148.024C1062.31 146.717 1063.42 146.717 1065.38 145.733C1066.53 145.152 1066.98 144.639 1067.02 143.896C1067.04 143.302 1065.34 135.558 1058.91 129.621C1044.79 116.591 1025.63 123.134 1018.3 130.265C1005.97 142.266 1004.88 155.487 1001.73 161.429C1001.38 162.004 1001.01 162.559 1000.61 163.1C1000.42 162.441 999.91 162.205 998.74 163.101C998.178 163.531 997.663 164.03 997.467 164.172C992.456 167.768 984.704 168.866 979.539 169.314C972.529 169.92 966.468 167.723 962.046 166.234C960.561 165.756 959.674 166.325 959.492 167.371C956.257 166.511 952.574 166.28 946.638 167.876C942.932 168.872 940.02 170.55 937.743 172.66L937.737 172.657C937.737 172.657 931.858 159.603 926.814 156.293C925.027 155.121 922.917 155.301 921.138 156.387C919.857 157.165 918.796 158.282 917.976 159.529C917.489 160.271 916.782 161.346 916.858 162.277C916.897 162.767 917.077 163.334 916.821 163.795C916.592 164.209 916.136 164.154 915.756 164.312C915.044 164.604 914.918 165.532 914.876 166.204C914.784 167.653 914.806 169.441 916.05 170.424C917.066 171.226 918.341 171.693 919.608 171.915C927.447 173.286 931.559 173.884 934.498 176.549L934.504 176.556C930.047 183.563 929.938 192.898 931.134 199.393C932.788 208.385 923.339 223.157 919.424 229.248C918.925 230.024 918.512 230.666 918.227 231.13C918.155 231.246 918.104 231.356 918.04 231.469C916.305 234.183 914.881 236.159 917.152 237.642C913.044 235.386 909.235 232.9 905.785 230.184C900.958 226.635 895.735 228.565 894.299 230.423C892.853 231.816 891.949 233.769 891.949 235.937C891.949 240.164 895.379 243.597 899.611 243.597C901.464 243.597 903.163 242.938 904.487 241.843C907.16 240.996 912.631 244.659 919.712 249.299C936.245 259.254 958.2 265.84 980.942 265.84C1003.68 265.84 1025.64 259.254 1042.17 249.299C1049.32 244.613 1054.83 240.929 1057.47 241.872C1058.79 242.949 1060.48 243.597 1062.31 243.597C1066.54 243.597 1069.97 240.164 1069.97 235.937C1069.97 233.702 1069.01 231.697 1067.48 230.297ZM980.942 252.272C959.837 252.273 940.322 248.34 924.408 241.236C927.211 241.837 928.87 239.735 930.553 238.429C932.407 236.988 946.556 223.735 952.892 217.86C961.407 221.409 979.556 228.637 1005.35 219.299C1009.51 224.228 1025.88 240.03 1027.53 241.632C1028.13 242.223 1028.76 242.807 1029.41 243.346C1029.73 243.618 1030.1 243.898 1030.54 243.909C1030.71 243.912 1030.93 243.895 1031.09 243.835C1016.46 249.286 999.306 252.272 980.942 252.272Z" fill="white"/>
<path opacity="0.8" d="M916.05 170.424C917.067 171.226 918.341 171.693 919.608 171.915C927.448 173.286 931.559 173.884 934.498 176.549L934.508 176.552C935.402 175.147 936.473 173.838 937.742 172.661L937.737 172.657C937.737 172.657 931.858 159.604 926.814 156.293C925.027 155.121 922.918 155.301 921.138 156.387C919.857 157.165 918.797 158.283 917.976 159.53C917.489 160.271 916.782 161.346 916.858 162.277C916.897 162.767 917.077 163.334 916.821 163.795C916.592 164.209 916.137 164.155 915.756 164.313C915.045 164.605 914.918 165.533 914.876 166.204C914.785 167.654 914.806 169.442 916.05 170.424Z" fill="#405684"/>
<path opacity="0.3" d="M920.515 162.605C919.649 162.145 918.773 161.693 917.94 161.175C917.65 160.994 917.343 160.634 917.107 161.044C916.896 161.412 916.827 161.86 916.86 162.277C916.899 162.768 917.08 163.335 916.823 163.795C916.717 163.987 916.298 164.113 916.409 164.299C916.489 164.433 916.792 164.48 916.926 164.507C917.479 164.621 918.078 164.619 918.646 164.714C919.239 164.812 919.827 164.954 920.408 165.101C922.82 165.711 925.403 166.553 927.401 168.086C927.611 168.265 927.815 168.447 928.009 168.63C928.267 168.874 928.617 168.708 928.816 168.466C928.884 168.383 928.909 168.308 928.905 168.235C928.898 168.108 928.802 167.995 928.688 167.888C926.435 165.75 923.033 163.943 920.515 162.605Z" fill="white"/>
<g opacity="0.8">
<path opacity="0.8" d="M1061.44 163.524C1061.12 159.715 1060.57 156.553 1060.29 150.566C1059.96 143.521 1056.68 138.103 1051.6 134.67C1053.02 133.08 1053.47 130.25 1053.29 128.277C1053.08 126.024 1051.81 125.688 1051.08 125.688C1050.42 125.688 1049.64 125.942 1048.74 126.443C1046.7 127.584 1045.01 129.62 1044.09 131.394C1042.1 130.886 1039.99 130.56 1037.77 130.487C1022.72 130 1011.77 142.945 1006.01 153.363C1004.06 156.892 1002.71 160.252 1000.61 163.105C1000.42 162.442 999.913 162.204 998.74 163.101C998.178 163.531 997.664 164.03 997.468 164.172C992.457 167.768 984.704 168.866 979.54 169.314C972.53 169.92 966.468 167.723 962.047 166.234C960.561 165.756 959.675 166.325 959.492 167.371C956.258 166.51 952.575 166.28 946.639 167.876C932.295 171.732 929.721 185.724 930.656 195.895C930.798 197.442 931.239 198.906 931.64 200.381C932.614 203.973 932.843 207.966 931.631 211.537C930.984 213.446 930.033 215.313 929.054 217.068C927.774 219.362 926.384 221.595 924.874 223.745C924.12 224.818 923.336 225.869 922.523 226.896C922.231 227.265 921.713 227.741 921.908 228.259C922.062 228.664 922.459 229.033 922.755 229.342C924.217 230.87 926.047 232.055 927.895 233.062C932.914 235.797 934.128 235.241 934.952 234.501C940.144 229.744 948.442 221.984 952.892 217.859C949.801 216.606 950.369 215.437 950.654 214.692C950.764 214.401 950.935 214.068 951.125 213.82C951.727 213.034 952.805 213.473 953.52 213.81C954.645 214.34 955.751 214.928 956.891 215.425C963.013 218.097 969.222 220.16 975.866 221.076C976.537 221.169 977.21 221.249 977.883 221.318C985.13 222.085 1001.56 220.016 1012.18 214.836C1012.55 214.654 1013.01 214.763 1013.22 215.129C1013.4 215.435 1013.3 216.056 1012.98 216.234C1012.47 216.511 1011.93 216.739 1011.41 216.972C1010.28 217.47 1009.14 217.922 1007.99 218.354C1007.11 218.681 1006.23 218.987 1005.35 219.3C1008.13 222.592 1016.35 230.729 1022 236.251C1022.72 237.096 1024.97 236.598 1029.28 234.556C1034.22 232.209 1037.18 230.668 1036.47 229.134C1033.76 224.625 1030.26 218.548 1028.59 214.442C1025.98 208.017 1027.94 205.128 1029.07 203.25C1030.43 200.995 1031.28 198.396 1032.03 195.888C1033.44 191.212 1033.32 186.246 1032.72 181.449C1032.37 178.658 1031.67 175.935 1031.44 173.125C1031.22 170.415 1031.2 167.577 1031.96 164.942C1032.33 163.663 1032.84 162.442 1033.56 161.42C1034.38 160.207 1036.2 159.189 1036.39 157.646C1036.5 156.842 1036.27 156.016 1036.25 155.213C1036.21 154.156 1036.39 153.109 1036.63 152.083C1036.87 151.069 1037.35 150.049 1037.78 149.074C1037.95 148.68 1038.43 148.688 1038.66 148.855C1038.98 149.101 1038.84 149.418 1038.72 149.697C1038.25 150.86 1037.9 152.182 1037.78 153.434C1037.42 157.014 1039.34 159.79 1042.21 161.582C1044.89 163.261 1049.24 164.734 1049.11 168.57C1049.08 169.437 1048.81 170.124 1048.53 170.716C1048.04 171.785 1047.42 172.996 1047.96 174.186C1048.23 174.767 1048.74 175.328 1049.37 175.503C1049.8 175.62 1050.27 175.536 1050.49 175.114C1050.69 174.738 1050.71 174.282 1050.82 173.876C1050.97 173.273 1051.1 172.638 1051.32 172.058C1051.53 171.531 1051.84 171.044 1052.23 170.636C1052.42 170.441 1052.73 170.436 1052.92 170.623C1053.26 170.946 1052.94 171.292 1052.78 171.596C1052.39 172.317 1052.24 173.178 1052.27 173.991C1052.32 175.109 1052.7 176.388 1053.57 177.148C1053.81 177.356 1054.08 177.529 1054.35 177.693C1056.16 178.491 1058.65 176.688 1061.39 173.214C1063.18 170.946 1061.89 168.893 1061.44 163.524ZM1050.85 134.044C1050.08 134.874 1048.7 135.016 1048.3 133.772C1047.68 131.816 1049.86 129.313 1051.56 128.618C1052.59 128.201 1052.25 130.43 1052.17 130.89C1051.99 131.945 1051.62 133.209 1050.85 134.044Z" fill="white"/>
</g>
<path opacity="0.4" d="M1067.48 230.297C1065.91 228.481 1060.82 226.719 1056.1 230.186C1038.33 244.174 1011.26 252.272 980.944 252.272C950.624 252.273 923.559 244.173 905.787 230.186C900.96 226.638 895.737 228.567 894.301 230.426C892.855 231.818 891.951 233.772 891.951 235.939C891.951 240.167 895.381 243.599 899.613 243.599C901.466 243.599 903.165 242.94 904.489 241.845C907.162 240.998 912.633 244.661 919.714 249.302C936.247 259.257 958.202 265.842 980.944 265.842C1003.69 265.842 1025.64 259.257 1042.17 249.302C1049.32 244.616 1054.83 240.931 1057.47 241.875C1058.79 242.951 1060.48 243.599 1062.31 243.599C1066.54 243.599 1069.97 240.167 1069.97 235.939C1069.97 233.702 1069.01 231.697 1067.48 230.297Z" fill="#0E9983"/>
<path opacity="0.5" d="M907.268 235.939C907.268 240.167 903.841 243.6 899.611 243.6C895.379 243.6 891.949 240.167 891.949 235.939C891.949 231.704 895.379 228.277 899.611 228.277C903.841 228.277 907.268 231.706 907.268 235.939Z" fill="white"/>
<path opacity="0.5" d="M1069.97 235.939C1069.97 240.167 1066.54 243.6 1062.31 243.6C1058.08 243.6 1054.65 240.167 1054.65 235.939C1054.65 231.704 1058.08 228.277 1062.31 228.277C1066.54 228.277 1069.97 231.706 1069.97 235.939Z" fill="white"/>
<path opacity="0.8" d="M1058.91 129.623C1044.79 116.593 1025.64 123.136 1018.3 130.267C1005.97 142.268 1004.89 155.489 1001.73 161.431C1003.24 158.973 1004.43 156.224 1006.01 153.366C1011.77 142.947 1022.72 130.002 1037.77 130.49C1039.99 130.562 1042.12 130.861 1044.11 131.362C1045.03 129.595 1046.71 127.579 1048.74 126.445C1049.64 125.944 1050.43 125.689 1051.08 125.689C1051.82 125.689 1053.08 126.026 1053.29 128.279C1053.47 130.25 1053.02 133.075 1051.61 134.666C1056.05 137.675 1059.11 142.206 1060.02 148.016L1060.05 148.027C1062.31 146.72 1063.43 146.72 1065.38 145.736C1066.53 145.155 1066.98 144.642 1067.02 143.899C1067.05 143.303 1065.34 135.56 1058.91 129.623Z" fill="#405684"/>
<path opacity="0.7" d="M901.923 235.939C901.923 237.216 900.887 238.249 899.611 238.249C898.333 238.249 897.297 237.216 897.297 235.939C897.297 234.658 898.333 233.624 899.611 233.625C900.887 233.624 901.923 234.661 901.923 235.939Z" fill="#0E9983"/>
<path opacity="0.7" d="M1064.62 235.939C1064.62 237.216 1063.59 238.249 1062.31 238.249C1061.03 238.249 1060 237.216 1060 235.939C1060 234.658 1061.03 233.624 1062.31 233.625C1063.59 233.624 1064.62 234.661 1064.62 235.939Z" fill="#0E9983"/>
<path opacity="0.3" d="M917.152 237.642C919.476 238.919 921.897 240.117 924.408 241.236C927.212 241.837 928.871 239.735 930.553 238.429C931.106 238 932.753 236.518 934.954 234.501C934.128 235.242 932.914 235.796 927.896 233.063C923.344 230.582 920.807 227.765 921.325 226.26C920.616 227.395 919.967 228.406 919.426 229.249C918.927 230.024 918.514 230.666 918.23 231.13C918.158 231.246 918.106 231.357 918.043 231.47C916.307 234.183 914.882 236.16 917.152 237.642Z" fill="white"/>
<path opacity="0.3" d="M1029.41 243.347C1029.73 243.619 1030.1 243.899 1030.54 243.91C1030.71 243.913 1030.92 243.895 1031.08 243.84C1034.41 242.598 1037.62 241.238 1040.68 239.746C1040.68 239.739 1040.68 239.733 1040.68 239.726C1042.69 238.457 1040.58 235.878 1039.37 233.906C1038.71 232.832 1037.67 231.137 1036.47 229.135C1037.19 230.669 1034.22 232.21 1029.28 234.558C1024.97 236.601 1022.72 237.098 1022 236.253C1024.81 238.998 1026.98 241.101 1027.53 241.633C1028.13 242.223 1028.76 242.808 1029.41 243.347Z" fill="white"/>
<g opacity="0.8">
<g opacity="0.8">
<path opacity="0.8" d="M1052.28 149.514C1051.92 150.195 1051.9 151.084 1052.33 151.849C1053.19 153.381 1055.59 153.279 1056.27 151.654C1056.91 150.153 1055.75 148.411 1054.12 148.424C1053.26 148.43 1052.62 148.881 1052.28 149.514ZM1055.04 151.007C1054.85 151.03 1054.66 150.987 1054.51 150.853C1054.06 150.446 1054.27 149.75 1054.86 149.661C1055.3 149.593 1055.58 149.753 1055.68 150.196C1055.77 150.624 1055.42 150.957 1055.04 151.007Z" fill="#405684"/>
<path opacity="0.8" d="M1060.27 169.142C1060.16 168.814 1059.86 168.047 1059.38 168.248C1058.78 168.495 1058.47 169.306 1058.38 169.899C1058.34 170.137 1058.44 170.418 1058.51 170.644C1058.6 171.005 1058.26 171.361 1058.62 171.656C1058.71 171.733 1058.82 171.77 1058.94 171.77C1059.36 171.77 1059.63 171.338 1059.86 171.038C1060.27 170.506 1060.5 169.804 1060.27 169.142Z" fill="#405684"/>
</g>
</g>
<g opacity="0.3">
<path opacity="0.3" d="M1056.03 131.214C1056.6 130.993 1057.19 130.823 1057.79 130.698C1057.96 130.663 1058.13 130.63 1058.3 130.602C1058.83 130.516 1059.34 130.509 1059.86 130.562C1059.56 130.245 1059.24 129.93 1058.91 129.622C1058.54 129.279 1058.16 128.956 1057.78 128.639C1057.31 128.915 1056.86 129.212 1056.48 129.45C1055.98 129.755 1055.5 130.078 1055.03 130.418C1054.8 130.582 1054.63 130.655 1054.67 130.955C1054.8 131.773 1055.58 131.388 1056.03 131.214Z" fill="white"/>
<path opacity="0.3" d="M1064.7 137.349C1064.24 136.44 1063.69 135.485 1063.05 134.516C1062.98 134.416 1062.15 134.546 1062.02 134.559C1061.67 134.594 1061.31 134.647 1060.96 134.716C1060.07 134.89 1059.18 135.136 1058.31 135.414C1057.9 135.547 1056.83 135.82 1056.83 136.407C1056.83 137.157 1058 136.782 1058.39 136.675C1060.34 136.138 1062.89 136.437 1064.7 137.349Z" fill="white"/>
</g>
<path d="M998.135 171.836C994.545 177.55 987.501 179.779 981.094 179.958C974.661 180.139 967.264 179.072 962.592 174.193C961.973 173.547 961.451 172.865 961.014 172.155V187.531C961.308 198.036 970.062 206.312 980.568 206.018C991.07 205.725 999.348 196.971 999.056 186.467V170.174C998.778 170.741 998.475 171.297 998.135 171.836Z" fill="white"/>
<path opacity="0.4" d="M998.135 171.836C994.545 177.55 987.501 179.779 981.094 179.958C974.661 180.139 967.264 179.072 962.592 174.193C961.973 173.547 961.451 172.865 961.014 172.155V187.531C961.308 198.036 970.062 206.312 980.568 206.018C991.07 205.725 999.348 196.971 999.056 186.467V170.174C998.778 170.741 998.475 171.297 998.135 171.836Z" fill="#0E9983"/>
<path d="M981.093 179.959C977.42 180.063 973.434 179.755 969.82 178.567V187.287C969.98 192.915 974.69 197.369 980.32 197.213C985.951 197.057 990.405 192.347 990.248 186.715V178.146H990.232C987.333 179.317 984.143 179.873 981.093 179.959Z" fill="white"/>
<path opacity="0.7" d="M998.742 163.102C998.18 163.532 997.665 164.031 997.469 164.173C992.458 167.769 984.705 168.867 979.541 169.315C972.531 169.921 966.469 167.724 962.048 166.235C960.203 165.642 959.262 166.649 959.478 168.199C959.917 170.399 960.898 172.425 962.593 174.194C967.265 179.073 974.662 180.141 981.095 179.959C987.501 179.78 994.545 177.551 998.136 171.838C999.408 169.814 1000.26 167.599 1000.59 165.234C1000.82 163.608 1000.89 161.46 998.742 163.102Z" fill="#0E9983"/>
<path opacity="0.4" d="M981.093 179.959C977.42 180.063 973.434 179.755 969.82 178.567V187.287C969.98 192.915 974.69 197.369 980.32 197.213C985.951 197.057 990.405 192.347 990.248 186.715V178.146H990.232C987.333 179.317 984.143 179.873 981.093 179.959Z" fill="#FFAA00"/>
<path opacity="0.4" d="M946.507 195.889C952.08 195.889 956.598 191.371 956.598 185.798C956.598 180.225 952.08 175.707 946.507 175.707C940.934 175.707 936.416 180.225 936.416 185.798C936.416 191.371 940.934 195.889 946.507 195.889Z" fill="#405684"/>
<path opacity="0.4" d="M1006.01 153.362C1005.66 154.003 1005.33 154.636 1005 155.264C1006.76 156.894 1009.1 157.897 1011.69 157.897C1017.11 157.897 1021.52 153.496 1021.52 148.066C1021.52 144.397 1019.5 141.203 1016.52 139.514C1012.08 143.715 1008.54 148.782 1006.01 153.362Z" fill="#405684"/>
<path opacity="0.4" d="M1019.52 189.442C1023.82 189.442 1027.3 185.962 1027.3 181.668C1027.3 177.374 1023.82 173.893 1019.52 173.893C1015.23 173.893 1011.75 177.374 1011.75 181.668C1011.75 185.962 1015.23 189.442 1019.52 189.442Z" fill="#405684"/>
<path opacity="0.4" d="M1036.71 144.98C1039.59 144.98 1041.92 142.65 1041.92 139.775C1041.92 136.901 1039.59 134.57 1036.71 134.57C1033.84 134.57 1031.51 136.901 1031.51 139.775C1031.51 142.65 1033.84 144.98 1036.71 144.98Z" fill="#405684"/>
<path opacity="0.3" d="M981.014 261.545C998.634 261.545 1023.44 257.36 1042.16 245.321C1042.54 245.102 1042.67 244.619 1042.45 244.24C1042.25 243.887 1041.81 243.751 1041.45 243.909L1041.09 244.066C1027.04 250.505 1007.49 256.976 981.152 256.976H980.873C954.538 256.976 934.981 250.505 920.937 244.066L920.577 243.909C920.212 243.752 919.775 243.887 919.572 244.24C919.354 244.619 919.486 245.102 919.864 245.321C938.587 257.36 963.391 261.545 981.011 261.545H981.014Z" fill="#334163"/>
</g>
<defs>
<radialGradient id="paint0_radial" cx="0" cy="0" r="1" gradientUnits="userSpaceOnUse" gradientTransform="translate(894.064 221.628) scale(32.4632)">
<stop stop-color="white" stop-opacity="0.3"/>
<stop offset="1" stop-color="white" stop-opacity="0"/>
</radialGradient>
</defs>
</svg>
