<svg width="1211" height="680" viewBox="0 0 1211 680" fill="none" xmlns="http://www.w3.org/2000/svg">
<mask id="mask0" mask-type="alpha" maskUnits="userSpaceOnUse" x="0" y="0" width="1211" height="680">
<rect x="0.00195312" width="1210" height="680" fill="white"/>
</mask>
<g mask="url(#mask0)">
<path opacity="0.8" d="M1108.64 116.811C1108.63 115.768 1108.66 115.02 1108.31 113.868C1107.96 112.714 1106.51 108.092 1105.94 106.616C1105.54 105.556 1103.18 105.136 1102.76 105.084V105.086C1102.74 105.082 1102.71 105.078 1102.69 105.076C1102.3 105.028 1101.1 104.951 1100.95 105.518C1100.27 108.107 1098.8 113.512 1097.44 120.115C1095.84 127.859 1094.34 137.115 1093.68 143.34L1094.26 143.919C1093.09 152.246 1089.41 180.875 1087.8 193.444C1087.2 198.168 1087.33 203.972 1087.28 206.689V206.69L1087.32 215.256C1087.48 216.095 1088.21 216.148 1088.94 216.237C1089.68 216.33 1090.4 216.456 1090.76 215.681L1092.87 207.378V207.377C1093.48 204.731 1095.02 199.132 1095.58 194.403C1097.07 181.818 1100.45 153.154 1101.33 144.788L1102.03 144.369C1102.9 138.168 1103.69 128.827 1104.02 120.928C1104.15 117.764 1104.2 114.862 1104.2 112.386C1104.44 114.083 1106.47 114.636 1106.46 117.037C1106.21 121.126 1105.25 131.801 1105.19 132.368C1105.11 132.996 1105.05 133.233 1104.6 133.766C1103.67 134.862 1103.36 134.95 1103.6 135.494L1104.08 136.427C1104.4 136.988 1104.6 136.966 1104.85 136.685L1106.45 134.825C1107.14 133.767 1107.18 133.674 1107.34 132.356C1107.5 131.038 1108.64 117.857 1108.64 116.811Z" fill="#405684"/>
<path opacity="0.3" d="M1108.64 116.811C1108.63 115.768 1108.66 115.02 1108.31 113.868C1107.96 112.714 1106.51 108.092 1105.94 106.616C1105.54 105.556 1103.18 105.136 1102.76 105.084V105.086C1102.74 105.082 1102.71 105.078 1102.69 105.076C1102.3 105.028 1101.1 104.951 1100.95 105.518C1100.27 108.107 1098.8 113.512 1097.44 120.115C1095.84 127.859 1094.34 137.115 1093.68 143.34L1094.26 143.919C1093.09 152.246 1089.41 180.875 1087.8 193.444C1087.2 198.168 1087.33 203.972 1087.28 206.689V206.69L1087.32 215.256C1087.48 216.095 1088.21 216.148 1088.94 216.237C1089.68 216.33 1090.4 216.456 1090.76 215.681L1092.87 207.378V207.377C1093.48 204.731 1095.02 199.132 1095.58 194.403C1097.07 181.818 1100.45 153.154 1101.33 144.788L1102.03 144.369C1102.9 138.168 1103.69 128.827 1104.02 120.928C1104.15 117.764 1104.2 114.862 1104.2 112.386C1104.44 114.083 1106.47 114.636 1106.46 117.037C1106.21 121.126 1105.25 131.801 1105.19 132.368C1105.11 132.996 1105.05 133.233 1104.6 133.766C1103.67 134.862 1103.36 134.95 1103.6 135.494L1104.08 136.427C1104.4 136.988 1104.6 136.966 1104.85 136.685L1106.45 134.825C1107.14 133.767 1107.18 133.674 1107.34 132.356C1107.5 131.038 1108.64 117.857 1108.64 116.811Z" fill="#D51E3C"/>
<path opacity="0.3" d="M1097.82 143.85C1096.54 143.696 1094.82 143.607 1094.23 143.914C1093.05 152.241 1089.38 180.87 1087.77 193.44C1087.17 198.163 1087.3 203.967 1087.25 206.684V206.685L1087.28 215.252C1087.44 216.091 1088.17 216.143 1088.91 216.232C1089.65 216.325 1090.37 216.451 1090.73 215.677L1092.84 207.373V207.372C1093.45 204.726 1094.98 199.127 1095.54 194.398C1097.03 181.814 1100.41 153.149 1101.29 144.784C1100.79 144.342 1099.1 144.01 1097.82 143.85Z" fill="url(#paint0_linear)"/>
<path opacity="0.3" d="M1104.12 105.907L1104.16 105.394C1103.53 105.187 1102.92 105.08 1102.73 105.057V105.059C1102.71 105.055 1102.68 105.051 1102.66 105.049C1102.27 105 1101.07 104.923 1100.92 105.491C1100.92 105.494 1100.91 105.497 1100.91 105.499L1100.92 105.515C1100.24 108.104 1098.77 113.508 1097.4 120.112C1095.81 127.855 1094.31 137.11 1093.65 143.336C1094.41 142.729 1096.97 142.925 1097.92 143.04C1098.88 143.16 1101.41 143.592 1102 144.364C1102.87 138.163 1103.66 128.822 1103.99 120.923C1104.27 114.184 1104.15 108.585 1104.12 105.907Z" fill="url(#paint1_linear)"/>
<path opacity="0.2" d="M1097.81 143.849C1096.53 143.694 1094.81 143.605 1094.22 143.912C1093.04 152.24 1089.37 180.869 1087.76 193.439C1087.16 198.162 1087.29 203.966 1087.24 206.682V206.683L1087.27 215.251C1087.43 216.09 1088.16 216.141 1088.9 216.231C1089.64 216.324 1090.36 216.449 1090.72 215.675L1092.83 207.372V207.371C1093.44 204.724 1094.97 199.126 1095.53 194.396C1097.02 181.812 1100.4 153.148 1101.28 144.783C1100.78 144.341 1099.09 144.009 1097.81 143.849Z" fill="url(#paint2_linear)"/>
<path opacity="0.2" d="M1104.11 105.906L1104.15 105.391C1103.52 105.186 1102.91 105.079 1102.72 105.056V105.058C1102.7 105.054 1102.67 105.05 1102.65 105.046C1102.26 104.999 1101.06 104.921 1100.91 105.488C1100.91 105.492 1100.91 105.495 1100.9 105.498L1100.91 105.513C1100.23 108.103 1098.76 113.506 1097.39 120.11C1095.8 127.854 1094.3 137.109 1093.64 143.335C1094.4 142.728 1096.96 142.924 1097.91 143.039C1098.87 143.159 1101.4 143.589 1101.99 144.362C1102.85 138.162 1103.65 128.821 1103.98 120.921C1104.26 114.183 1104.14 108.583 1104.11 105.906Z" fill="url(#paint3_linear)"/>
<path opacity="0.3" d="M1097.92 143.038C1096.97 142.924 1094.41 142.727 1093.65 143.334L1094.23 143.913C1094.82 143.606 1096.54 143.694 1097.82 143.848C1099.1 144.009 1100.79 144.341 1101.29 144.781L1102 144.362C1101.41 143.59 1098.88 143.159 1097.92 143.038Z" fill="#212A3F"/>
<path opacity="0.3" d="M1095.74 192.79C1095.8 192.285 1095.86 191.76 1095.92 191.221C1095.22 191.359 1093.14 191.185 1092.05 191.052C1090.93 190.911 1088.8 190.565 1088.2 190.256L1088.18 190.26C1088.11 190.796 1088.04 191.313 1087.98 191.815L1088 191.828C1088.61 192.137 1090.74 192.483 1091.85 192.624C1092.95 192.754 1095.04 192.93 1095.74 192.79Z" fill="#212A3F"/>
<path opacity="0.2" d="M1097.92 143.022C1096.97 142.908 1094.41 142.711 1093.65 143.318L1094.23 143.897C1094.82 143.59 1096.54 143.679 1097.82 143.833C1099.1 143.993 1100.79 144.325 1101.29 144.766L1102 144.346C1101.41 143.573 1098.88 143.142 1097.92 143.022Z" fill="#D51E3C"/>
<path opacity="0.2" d="M1095.74 192.775C1095.8 192.27 1095.86 191.745 1095.92 191.205C1095.22 191.344 1093.14 191.169 1092.05 191.036C1090.93 190.896 1088.8 190.55 1088.2 190.24L1088.18 190.245C1088.11 190.78 1088.05 191.298 1087.98 191.799L1088.01 191.812C1088.61 192.121 1090.74 192.468 1091.85 192.608C1092.95 192.739 1095.04 192.915 1095.74 192.775Z" fill="#D51E3C"/>
<path opacity="0.8" d="M1088.91 216.272C1088.51 216.224 1088.11 216.182 1087.81 216.025C1087.74 217.293 1087.49 221.808 1088.16 221.891L1088.26 221.904C1088.94 221.987 1089.79 217.543 1090.03 216.3C1089.7 216.379 1089.31 216.323 1088.91 216.272Z" fill="#405684"/>
<g opacity="0.05">
<path opacity="0.05" d="M1104.37 108.492C1104.44 108.516 1104.45 108.714 1104.46 108.776C1104.47 109 1104.51 109.227 1104.55 109.449C1104.73 110.438 1105.48 111.127 1106.13 111.835C1106.96 112.732 1107.26 113.993 1107.34 115.179C1107.36 115.576 1107.36 115.973 1107.34 116.37C1107.35 117.23 1107.21 118.082 1107.15 118.949C1107.07 119.821 1106.99 120.704 1106.9 121.588C1106.57 125.123 1106.28 128.66 1105.99 131.309C1105.91 131.966 1105.89 132.582 1105.72 133.132C1105.53 133.689 1105.19 134.06 1104.93 134.346C1104.76 134.532 1104.59 134.711 1104.43 134.898C1104.2 135.154 1104.1 134.977 1104.3 134.742C1104.45 134.556 1104.61 134.379 1104.77 134.202C1105.02 133.914 1105.33 133.556 1105.48 133.065C1105.63 132.564 1105.64 131.945 1105.71 131.284C1105.93 128.629 1106.23 125.093 1106.52 121.555C1106.59 120.669 1106.67 119.784 1106.74 118.914C1106.8 118.042 1106.93 117.188 1106.91 116.361C1106.97 114.875 1106.79 113.306 1105.78 112.144C1105.44 111.753 1105.07 111.383 1104.8 110.94C1104.52 110.498 1104.38 109.992 1104.31 109.476C1104.28 109.243 1104.27 109.009 1104.25 108.775C1104.25 108.72 1104.22 108.592 1104.27 108.547C1104.31 108.499 1104.35 108.484 1104.37 108.492Z" fill="white"/>
</g>
<path opacity="0.05" d="M1101.37 109.143C1101.37 109.143 1101.09 111.181 1100.67 114.236C1100.22 117.286 1099.62 121.353 1099.02 125.418C1098.42 129.474 1097.81 133.531 1097.36 136.572C1096.89 139.611 1096.54 141.632 1096.54 141.632L1096.54 141.642C1096.51 141.807 1096.35 141.918 1096.18 141.889C1096.03 141.861 1095.92 141.716 1095.93 141.559C1095.93 141.559 1095.99 141.048 1096.08 140.153C1096.18 139.26 1096.29 137.977 1096.49 136.449C1096.69 134.919 1096.89 133.13 1097.19 131.222C1097.48 129.315 1097.73 127.27 1098.09 125.244C1098.44 123.221 1098.8 121.197 1099.13 119.301C1099.49 117.409 1099.83 115.646 1100.12 114.133C1100.42 112.621 1100.7 111.369 1100.88 110.488C1101.07 109.608 1101.17 109.106 1101.17 109.106C1101.19 109.052 1101.24 109.021 1101.29 109.031C1101.34 109.043 1101.37 109.092 1101.37 109.143Z" fill="white"/>
<path opacity="0.2" d="M1088.91 216.241C1088.51 216.192 1088.11 216.151 1087.81 215.994C1087.75 217.262 1087.49 221.777 1088.17 221.86L1088.27 221.873C1088.94 221.956 1089.79 217.513 1090.04 216.268C1089.7 216.347 1089.31 216.292 1088.91 216.241Z" fill="url(#paint4_linear)"/>
<path opacity="0.3" d="M1106.46 117.033C1106.49 116.594 1106.51 116.224 1106.52 115.955C1106.62 113.175 1105.33 112.479 1105.03 112.147C1104.73 111.817 1104.32 111.57 1104.3 110.884C1104.3 110.458 1104.23 108.804 1104.19 107.57L1104.18 107.571L1104.19 112.347C1104.4 114.075 1106.46 114.615 1106.46 117.033H1106.46Z" fill="#212A3F"/>
<path opacity="0.05" d="M1090.51 189.801C1090.51 189.801 1090.48 190.196 1090.42 190.884C1090.36 191.572 1090.25 192.552 1090.12 193.729C1089.79 196.606 1089.55 199.471 1089.36 202.36C1089.15 205.502 1089.01 208.656 1088.88 211.02C1088.81 212.199 1088.82 213.175 1088.79 213.862C1088.77 214.549 1088.76 214.943 1088.76 214.943L1088.76 214.981C1088.76 215.093 1088.67 215.18 1088.56 215.179C1088.45 215.175 1088.36 215.089 1088.36 214.981C1088.36 214.981 1088.35 214.583 1088.33 213.887C1088.33 213.194 1088.28 212.185 1088.29 210.996C1088.34 208.628 1088.44 205.47 1088.58 202.3C1088.71 199.404 1088.86 196.496 1089.32 193.631C1089.5 192.459 1089.65 191.484 1089.78 190.804C1089.9 190.123 1089.97 189.733 1089.97 189.728C1090 189.579 1090.14 189.479 1090.29 189.504C1090.43 189.531 1090.52 189.661 1090.51 189.801Z" fill="white"/>
<path d="M1175.4 115.954L1171.39 111.951L1171.51 111.831L1171.5 111.818C1190.75 91.5853 1190.4 59.292 1170.6 39.4873C1150.8 19.6814 1118.5 19.339 1098.27 38.5903L1098.14 38.6904L1094.14 34.6918C1093.4 33.9548 1092.2 33.9538 1091.47 34.6918L1078.51 47.6493C1077.77 48.3873 1077.77 49.5858 1078.51 50.3217L1159.77 131.585C1160.5 132.321 1161.7 132.321 1162.44 131.585L1175.4 118.625C1176.13 117.888 1176.13 116.69 1175.4 115.954ZM1156.23 96.7912L1141.56 82.1172C1141.54 82.0919 1141.51 82.0677 1141.5 82.0487C1141.53 82.0076 1141.56 81.9665 1141.59 81.9275C1141.65 81.8516 1141.71 81.7769 1141.76 81.7031C1144.51 77.872 1144.08 72.6725 1140.75 69.339C1137.42 66.0056 1132.22 65.5817 1128.39 68.3311C1128.27 68.4144 1128.15 68.4998 1128.04 68.5852C1128.02 68.5736 1128 68.5578 1127.99 68.5399L1113.3 53.8566C1113.2 53.748 1113.25 53.5603 1113.28 53.5297C1125.4 42.4202 1144 42.8283 1155.63 54.4606C1167.26 66.0899 1167.67 84.6705 1156.58 96.7899C1156.5 96.8469 1156.33 96.8903 1156.23 96.7912Z" fill="#405684"/>
<path opacity="0.8" d="M1174.6 116.756L1170.21 112.37C1170.21 112.368 1170.21 112.365 1170.2 112.364C1169.86 112.021 1169.94 111.818 1170.2 111.559L1170.19 111.546C1189.58 91.7259 1189.46 59.945 1169.8 40.2888C1150.14 20.6327 1118.36 20.5095 1098.54 39.8989L1098.53 39.8958C1098.28 40.1531 1098.07 40.2279 1097.73 39.8853C1097.73 39.8853 1097.73 39.885 1097.73 39.884L1093.34 35.4933C1093.04 35.1992 1092.56 35.1992 1092.27 35.4933L1079.31 48.4509C1079.01 48.7429 1079.01 49.2246 1079.31 49.5208L1160.57 130.783C1160.86 131.076 1161.34 131.076 1161.64 130.783L1174.59 117.824C1174.89 117.53 1174.89 117.05 1174.6 116.756ZM1133.22 75.3822C1133.63 74.9721 1134.3 74.9731 1134.71 75.3822C1135.12 75.7933 1135.12 76.4574 1134.71 76.8665C1134.3 77.2776 1133.63 77.2766 1133.22 76.8655C1132.82 76.4564 1132.81 75.7923 1133.22 75.3822ZM1155.43 97.5928L1140.76 82.9178C1140.32 82.4781 1140.16 82.0218 1140.5 81.4957C1140.6 81.3397 1140.73 81.1932 1140.84 81.0435C1143.21 77.7364 1142.92 73.1125 1139.95 70.1396C1136.98 67.1698 1132.35 66.8776 1129.05 69.2485C1128.89 69.3634 1128.73 69.4796 1128.58 69.604C1128.06 69.9266 1127.61 69.7674 1127.18 69.3414L1112.49 54.6486C1111.94 54.0793 1112.02 53.1853 1112.51 52.6941C1124.98 41.262 1144.36 41.5815 1156.43 53.6567C1168.51 65.7413 1168.82 85.1358 1157.37 97.6031C1156.87 98.0743 1155.99 98.1505 1155.43 97.5928Z" fill="#435A86"/>
<path d="M1103.3 45.4558C1120.24 28.5206 1147.7 28.5206 1164.63 45.4558C1181.57 62.392 1181.57 89.8526 1164.63 106.789L1164.63 106.792L1169.8 111.959C1189.59 92.1698 1189.59 60.081 1169.8 40.2899C1150.01 20.4999 1117.92 20.4999 1098.13 40.2889L1098.14 40.2912L1103.3 45.4599L1103.3 45.4558Z" fill="#3D5078"/>
<g opacity="0.8">
<path opacity="0.8" d="M1159.33 50.7641C1158.97 50.4067 1158.39 50.4067 1158.03 50.7641C1157.77 51.0256 1157.71 51.4051 1157.83 51.7309L1156.18 53.383L1156.71 53.9173L1158.36 52.2665C1158.69 52.3877 1159.07 52.3233 1159.33 52.0608C1159.69 51.7034 1159.69 51.1215 1159.33 50.7641Z" fill="#7B8BAA"/>
<path opacity="0.8" d="M1137.6 42.0095C1137.79 41.8535 1137.91 41.632 1137.93 41.3864C1137.97 40.9004 1137.58 40.4356 1137.1 40.3944C1136.85 40.3723 1136.61 40.4471 1136.43 40.6042C1136.24 40.7623 1136.12 40.9838 1136.1 41.2263C1136.08 41.4962 1136.18 41.7618 1136.37 41.9547C1136.43 42.0127 1136.5 42.0539 1136.57 42.0939L1136.36 44.4289L1137.12 44.4953L1137.32 42.1655C1137.42 42.1296 1137.52 42.0812 1137.6 42.0095Z" fill="#7B8BAA"/>
<path opacity="0.8" d="M1131.63 41.8983C1131.78 41.7096 1131.86 41.4735 1131.84 41.2279C1131.8 40.7419 1131.33 40.3517 1130.85 40.396C1130.6 40.4181 1130.38 40.5331 1130.22 40.7219C1130.06 40.9116 1129.99 41.1465 1130.01 41.388C1130.03 41.6009 1130.12 41.8044 1130.28 41.9573C1130.38 42.0564 1130.49 42.1281 1130.62 42.1735L1130.82 44.4969L1131.58 44.4315L1131.37 42.1006C1131.47 42.049 1131.55 41.9827 1131.63 41.8983Z" fill="#7B8BAA"/>
<path opacity="0.8" d="M1125.72 42.8271C1125.84 42.6163 1125.87 42.3676 1125.81 42.1304C1125.68 41.657 1125.16 41.3555 1124.69 41.4821C1124.45 41.5464 1124.25 41.6992 1124.13 41.9132C1124.01 42.124 1123.98 42.3729 1124.04 42.6027C1124.08 42.7577 1124.16 42.9022 1124.28 43.016C1124.41 43.1541 1124.59 43.2331 1124.78 43.2636L1125.38 45.525L1126.11 45.3299L1125.51 43.0696C1125.59 43.0021 1125.66 42.9231 1125.72 42.8271Z" fill="#7B8BAA"/>
<path opacity="0.8" d="M1120.06 44.7649C1120.15 44.534 1120.13 44.2862 1120.03 44.0627C1119.82 43.6168 1119.26 43.4111 1118.81 43.6177C1118.59 43.7231 1118.42 43.9088 1118.34 44.1407C1118.25 44.3716 1118.27 44.6193 1118.37 44.8344C1118.41 44.9334 1118.48 45.022 1118.55 45.0979C1118.73 45.275 1118.97 45.3584 1119.2 45.3563L1120.19 47.4805L1120.88 47.16L1119.89 45.041C1119.96 44.9588 1120.02 44.8682 1120.06 44.7649Z" fill="#7B8BAA"/>
<path opacity="0.8" d="M1114.82 47.6563C1114.87 47.416 1114.81 47.1705 1114.67 46.9702C1114.38 46.5527 1113.81 46.4588 1113.4 46.7444C1113.19 46.8878 1113.06 47.1009 1113.02 47.3434C1112.98 47.5848 1113.03 47.8261 1113.17 48.019C1113.2 48.0654 1113.24 48.1066 1113.28 48.1456C1113.5 48.3649 1113.8 48.4418 1114.09 48.3901L1115.43 50.3079L1116.05 49.8745L1114.71 47.959C1114.76 47.8652 1114.81 47.7649 1114.82 47.6563Z" fill="#7B8BAA"/>
<path opacity="0.8" d="M1161.95 96.8214C1161.99 96.8583 1162.03 96.8922 1162.08 96.9259C1162.49 97.2116 1163.06 97.1093 1163.35 96.6982C1163.64 96.287 1163.53 95.7093 1163.12 95.4236C1162.92 95.2813 1162.68 95.2254 1162.44 95.2697C1162.33 95.2897 1162.23 95.3341 1162.14 95.3878L1160.22 94.0469L1159.79 94.6646L1161.71 96.0086C1161.65 96.2975 1161.73 96.6032 1161.95 96.8214Z" fill="#7B8BAA"/>
<path opacity="0.8" d="M1165 91.5447C1165.07 91.6195 1165.16 91.6818 1165.26 91.7292C1165.72 91.9358 1166.26 91.7365 1166.48 91.2821C1166.68 90.8341 1166.47 90.269 1166.03 90.0655C1165.81 89.9611 1165.56 89.9516 1165.33 90.0349C1165.22 90.0728 1165.13 90.1352 1165.05 90.2037L1162.94 89.2148L1162.62 89.8979L1164.74 90.8909C1164.74 91.1313 1164.82 91.3686 1165 91.5447Z" fill="#7B8BAA"/>
<path opacity="0.8" d="M1167.08 85.8198C1167.19 85.9326 1167.33 86.0149 1167.49 86.0581C1167.98 86.1835 1168.48 85.8937 1168.61 85.4077C1168.74 84.9343 1168.43 84.4093 1167.96 84.2871C1167.72 84.2206 1167.48 84.2553 1167.26 84.3787C1167.17 84.4324 1167.09 84.5085 1167.02 84.5908L1164.77 83.9844L1164.57 84.714L1166.83 85.3202C1166.86 85.5078 1166.94 85.6827 1167.08 85.8198Z" fill="#7B8BAA"/>
<path opacity="0.8" d="M1168.71 80.0881C1169.21 80.126 1169.65 79.7529 1169.7 79.2511C1169.74 78.764 1169.35 78.2991 1168.86 78.2612C1168.49 78.2296 1168.16 78.4225 1167.99 78.724L1165.66 78.5196L1165.6 79.2712L1167.92 79.4768C1167.97 79.6033 1168.04 79.7234 1168.14 79.8204C1168.29 79.9722 1168.49 80.067 1168.71 80.0881Z" fill="#7B8BAA"/>
<path opacity="0.8" d="M1168.71 72.1656C1168.46 72.1877 1168.24 72.3027 1168.08 72.4914C1168.01 72.5758 1167.96 72.6728 1167.93 72.7751L1165.6 72.9774L1165.66 73.7302L1168 73.5266C1168.04 73.5972 1168.08 73.6689 1168.14 73.7258C1168.33 73.9177 1168.59 74.0149 1168.87 73.9927C1169.38 73.9432 1169.74 73.5098 1169.7 72.9974C1169.65 72.5072 1169.19 72.1213 1168.71 72.1656Z" fill="#7B8BAA"/>
<path opacity="0.8" d="M1168.61 66.84C1168.48 66.3688 1167.96 66.0672 1167.49 66.1958C1167.25 66.2601 1167.06 66.4129 1166.93 66.6248C1166.88 66.7197 1166.85 66.8231 1166.83 66.9306L1164.57 67.5337L1164.77 68.2644L1167.03 67.6593C1167.05 67.6814 1167.06 67.7067 1167.08 67.7267C1167.31 67.9576 1167.65 68.0483 1167.97 67.9671C1168.46 67.8311 1168.74 67.3397 1168.61 66.84Z" fill="#7B8BAA"/>
<path opacity="0.8" d="M1166.48 60.9641C1166.26 60.514 1165.7 60.3158 1165.26 60.5245C1165.04 60.6279 1164.87 60.8103 1164.78 61.039C1164.74 61.1445 1164.73 61.254 1164.73 61.3636L1162.62 62.3504L1162.93 63.0337L1165.06 62.0446C1165.33 62.2713 1165.71 62.3346 1166.04 62.1839C1166.49 61.9699 1166.69 61.4238 1166.48 60.9641Z" fill="#7B8BAA"/>
<path opacity="0.8" d="M1163.35 55.5529C1163.05 55.1291 1162.48 55.0427 1162.07 55.3295C1161.87 55.4718 1161.74 55.6836 1161.69 55.9261C1161.68 56.0336 1161.68 56.1411 1161.7 56.2476L1159.79 57.5864L1160.22 58.2075L1162.14 56.8632C1162.44 57.0382 1162.82 57.0403 1163.13 56.8305C1163.54 56.5385 1163.64 55.9683 1163.35 55.5529Z" fill="#7B8BAA"/>
<path opacity="0.8" d="M1136.41 74.3047L1135.88 73.7715L1134.51 75.1429L1135.04 75.6761L1136.41 74.3047Z" fill="#7B8BAA"/>
<path opacity="0.8" d="M1131.58 78.0666L1132.12 78.5996L1133.49 77.2267L1132.95 76.6937L1131.58 78.0666Z" fill="#7B8BAA"/>
<path opacity="0.8" d="M1134.39 77.0641L1135.76 78.4336L1136.3 77.8996L1134.92 76.5301L1134.39 77.0641Z" fill="#7B8BAA"/>
<path opacity="0.8" d="M1131.5 74.1762L1132.87 75.5488L1133.41 75.014L1132.04 73.6414L1131.5 74.1762Z" fill="#7B8BAA"/>
<path opacity="0.8" d="M1169.57 101.515L1170.59 102.229L1171.02 101.611L1170.01 100.901C1171.32 98.9935 1172.45 96.9968 1173.42 94.9369L1174.57 95.4745L1174.89 94.7891L1173.74 94.2558C1174.69 92.159 1175.46 89.9966 1176.06 87.7943L1177.31 88.1297L1177.51 87.401L1176.26 87.068C1176.83 84.8467 1177.22 82.5845 1177.44 80.3084L1178.74 80.4221L1178.8 79.6693L1177.51 79.5566C1177.69 77.2742 1177.69 74.9822 1177.51 72.6956L1178.8 72.5839L1178.74 71.8313L1177.45 71.943C1177.24 69.669 1176.85 67.4066 1176.28 65.179L1177.51 64.8511L1177.31 64.1217L1176.09 64.4483C1175.49 62.2503 1174.71 60.0902 1173.76 57.987L1174.89 57.4641L1174.57 56.7789L1173.45 57.3029C1172.47 55.2525 1171.33 53.26 1170.02 51.3497L1171.03 50.6422L1170.59 50.0234L1169.58 50.7317C1169.42 50.5051 1169.26 50.2732 1169.1 50.0497L1168.49 50.4998C1168.65 50.7202 1168.8 50.9458 1168.96 51.1672L1168 51.8418L1168.43 52.4608L1169.4 51.7839C1170.69 53.6583 1171.81 55.6119 1172.76 57.6234L1171.7 58.1199L1172.02 58.804L1173.08 58.3085C1174.01 60.3716 1174.77 62.4896 1175.37 64.6445L1174.25 64.9417L1174.45 65.6724L1175.56 65.3762C1176.11 67.5606 1176.5 69.7797 1176.7 72.0094L1175.58 72.1075L1175.65 72.859L1176.76 72.762C1176.93 75.0043 1176.93 77.2541 1176.76 79.4912L1175.65 79.3931L1175.58 80.147L1176.69 80.244C1176.47 82.4769 1176.09 84.6938 1175.53 86.8729L1174.45 86.582L1174.25 87.3114L1175.33 87.6015C1174.74 89.7606 1173.99 91.8817 1173.06 93.9374L1172.02 93.4502L1171.7 94.1356L1172.74 94.6195C1171.78 96.6405 1170.67 98.5982 1169.39 100.47L1168.43 99.7936L1168 100.415L1168.95 101.084C1167.67 102.897 1166.23 104.628 1164.63 106.251L1163.8 105.418L1163.26 105.954L1165.5 108.193L1166.04 107.658L1165.16 106.785C1166.79 105.128 1168.26 103.364 1169.57 101.515Z" fill="#7B8BAA"/>
<path opacity="0.8" d="M1100.72 42.3664L1098.47 40.127L1097.94 40.6616L1100.18 42.9011L1100.72 42.3664Z" fill="#7B8BAA"/>
<path opacity="0.8" d="M1111.76 53.3852L1110.11 51.731C1110.15 51.6298 1110.17 51.5264 1110.17 51.4147C1110.17 51.169 1110.08 50.9382 1109.9 50.7632C1109.55 50.4069 1108.97 50.4069 1108.61 50.7643C1108.25 51.1216 1108.25 51.6995 1108.61 52.0558L1108.61 52.062C1108.79 52.2359 1109.02 52.331 1109.26 52.3289C1109.37 52.3289 1109.48 52.3045 1109.58 52.2666L1111.23 53.9197L1111.76 53.3852Z" fill="#7B8BAA"/>
<path opacity="0.8" d="M1167.22 109.887L1169.46 112.125L1169.99 111.591L1167.75 109.353L1167.22 109.887Z" fill="#7B8BAA"/>
<path opacity="0.8" d="M1159.33 100.192C1159.07 99.928 1158.69 99.8626 1158.36 99.9849L1156.71 98.332L1156.18 98.8664L1157.83 100.52C1157.71 100.844 1157.77 101.225 1158.03 101.486L1158.03 101.487L1158.03 101.488C1158.39 101.843 1158.97 101.841 1159.33 101.487C1159.5 101.313 1159.6 101.082 1159.6 100.84C1159.6 100.594 1159.5 100.363 1159.33 100.192Z" fill="#7B8BAA"/>
<path opacity="0.8" d="M1161.45 37.3287L1163.27 34.7344L1162.65 34.3008L1160.83 36.8951L1161.45 37.3287Z" fill="#7B8BAA"/>
<path opacity="0.8" d="M1158.93 41.1353C1159.15 41.2924 1159.38 41.4432 1159.6 41.6066L1160.05 41.0004C1159.82 40.8318 1159.59 40.6779 1159.36 40.5145L1160.07 39.5035L1159.45 39.0701L1158.75 40.079C1156.84 38.7623 1154.85 37.6207 1152.8 36.6466L1153.32 35.527L1152.63 35.2065L1152.11 36.3303C1150.01 35.3772 1147.85 34.5993 1145.65 33.9984L1145.98 32.7838L1145.25 32.5867L1144.92 33.8095C1142.69 33.2413 1140.43 32.8482 1138.16 32.6374L1138.27 31.3574L1137.51 31.291L1137.4 32.5771C1135.12 32.4053 1132.82 32.4023 1130.54 32.5826L1130.43 31.291L1129.68 31.3574L1129.79 32.6541C1127.51 32.8723 1125.25 33.2603 1123.03 33.8285L1122.7 32.5877L1121.97 32.7828L1122.3 34.0298C1120.1 34.6339 1117.94 35.4024 1115.84 36.348L1115.31 35.2065L1114.63 35.527L1115.16 36.6728C1113.1 37.6448 1111.1 38.776 1109.2 40.079L1108.49 39.0691L1107.87 39.5025L1108.58 40.5186C1106.73 41.8311 1104.97 43.2998 1103.31 44.9265L1102.44 44.0579L1101.91 44.5932L1104.15 46.8293L1104.68 46.2937L1103.85 45.4598C1105.47 43.8648 1107.2 42.4259 1109.01 41.1376L1109.69 42.0948L1110.31 41.6604L1109.63 40.6967C1111.5 39.419 1113.46 38.31 1115.48 37.3559L1115.96 38.3934L1116.65 38.073L1116.16 37.0314C1118.22 36.1026 1120.34 35.3499 1122.5 34.7574L1122.79 35.841L1123.52 35.6438L1123.23 34.5579C1125.41 33.9992 1127.62 33.6197 1129.85 33.4046L1129.95 34.5106L1130.7 34.4442L1130.61 33.3331C1132.84 33.156 1135.09 33.1582 1137.33 33.329L1137.24 34.4442L1137.99 34.5085L1138.09 33.3879C1140.32 33.5956 1142.54 33.9815 1144.72 34.5371L1144.42 35.6449L1145.15 35.842L1145.45 34.7268C1147.61 35.3172 1149.73 36.0803 1151.79 37.0144L1151.29 38.0761L1151.98 38.3945L1152.48 37.3307C1154.49 38.2848 1156.44 39.4064 1158.31 40.6957L1157.64 41.6624L1158.26 42.0948L1158.93 41.1353Z" fill="#7B8BAA"/>
<path opacity="0.8" d="M1153.85 48.3917C1154.19 48.4549 1154.55 48.3252 1154.77 48.0205C1155.05 47.6115 1154.96 47.0402 1154.54 46.7439C1154.34 46.6037 1154.1 46.5488 1153.85 46.5931C1153.61 46.6363 1153.4 46.7694 1153.26 46.9686C1153.05 47.267 1153.05 47.6495 1153.23 47.9521L1151.89 49.8729L1152.51 50.304L1153.85 48.3917Z" fill="#7B8BAA"/>
<path opacity="0.8" d="M1154.37 33.1381L1155.71 30.2676L1155.02 29.9486L1153.68 32.8191L1154.37 33.1381Z" fill="#7B8BAA"/>
<path opacity="0.8" d="M1148.73 45.3579C1148.84 45.3579 1148.95 45.3451 1149.05 45.3072C1149.28 45.2239 1149.47 45.0574 1149.57 44.8339C1149.78 44.389 1149.57 43.823 1149.13 43.6185C1148.91 43.5131 1148.66 43.5036 1148.42 43.5879C1148.2 43.6701 1148.01 43.8388 1147.91 44.0592C1147.76 44.386 1147.82 44.7676 1148.05 45.0375L1147.06 47.1596L1147.74 47.479L1148.73 45.3579Z" fill="#7B8BAA"/>
<path opacity="0.8" d="M1146.52 30.3278L1147.34 27.2676L1146.61 27.072L1145.79 30.1323L1146.52 30.3278Z" fill="#7B8BAA"/>
<path opacity="0.8" d="M1143.17 43.2631C1143.27 43.2452 1143.38 43.2147 1143.47 43.1599C1143.68 43.0376 1143.84 42.8394 1143.9 42.6022C1144.03 42.132 1143.72 41.606 1143.25 41.4805C1143.02 41.4173 1142.77 41.4509 1142.56 41.5721C1142.34 41.6955 1142.19 41.8928 1142.13 42.1268C1142.04 42.4431 1142.14 42.7826 1142.37 43.0145C1142.39 43.0356 1142.41 43.048 1142.44 43.068L1141.83 45.3284L1142.56 45.5245L1143.17 43.2631Z" fill="#7B8BAA"/>
<path opacity="0.8" d="M1138.48 28.8414L1138.75 25.6855L1138 25.6197L1137.73 28.7756L1138.48 28.8414Z" fill="#7B8BAA"/>
<path opacity="0.8" d="M1130.13 28.8045L1129.86 25.6465L1129.1 25.7126L1129.38 28.8706L1130.13 28.8045Z" fill="#7B8BAA"/>
<path opacity="0.8" d="M1121.99 30.0756L1121.17 27.0156L1120.44 27.2111L1121.26 30.2711L1121.99 30.0756Z" fill="#7B8BAA"/>
<path opacity="0.8" d="M1114.3 32.9291L1112.96 30.0586L1112.27 30.3782L1113.61 33.2487L1114.3 32.9291Z" fill="#7B8BAA"/>
<path opacity="0.8" d="M1104.59 34.8039L1106.41 37.3984L1107.03 36.9647L1105.21 34.3701L1104.59 34.8039Z" fill="#7B8BAA"/>
<path opacity="0.8" d="M1175.71 104.909L1173.11 103.096L1172.68 103.714L1175.27 105.527L1175.71 104.909Z" fill="#7B8BAA"/>
<path opacity="0.8" d="M1176.88 96.524L1179.75 97.8594L1180.07 97.1751L1177.2 95.8398L1176.88 96.524Z" fill="#7B8BAA"/>
<path opacity="0.8" d="M1179.73 88.6916L1182.79 89.5078L1182.98 88.7784L1179.92 87.9622L1179.73 88.6916Z" fill="#7B8BAA"/>
<path opacity="0.8" d="M1184.31 80.9436L1184.38 80.1895L1181.22 79.9159L1181.16 80.6701L1184.31 80.9436Z" fill="#7B8BAA"/>
<path opacity="0.8" d="M1184.54 72.0663L1184.47 71.3145L1181.32 71.593L1181.38 72.3448L1184.54 72.0663Z" fill="#7B8BAA"/>
<path opacity="0.8" d="M1183.09 63.277L1182.9 62.5469L1179.84 63.366L1180.04 64.0961L1183.09 63.277Z" fill="#7B8BAA"/>
<path opacity="0.8" d="M1180.07 55.1349L1179.75 54.4492L1176.88 55.7906L1177.21 56.4762L1180.07 55.1349Z" fill="#7B8BAA"/>
<path opacity="0.8" d="M1175.73 47.2553L1175.3 46.6367L1172.71 48.4559L1173.14 49.0745L1175.73 47.2553Z" fill="#7B8BAA"/>
<path opacity="0.8" d="M1170.03 40.4308L1169.5 39.8965L1167.26 42.1376L1167.79 42.6719L1170.03 40.4308Z" fill="#7B8BAA"/>
<path opacity="0.8" d="M1166.31 37.0939L1165.29 38.3066L1165.87 38.7927L1166.89 37.5799L1166.31 37.0939Z" fill="#7B8BAA"/>
<path opacity="0.8" d="M1158.9 33.8406L1159.69 32.4707L1159.04 32.0924L1158.25 33.4622L1158.9 33.8406Z" fill="#7B8BAA"/>
<path opacity="0.8" d="M1151.14 30.012L1151.69 28.5254L1150.98 28.2664L1150.43 29.7531L1151.14 30.012Z" fill="#7B8BAA"/>
<path opacity="0.8" d="M1142.94 27.8239L1143.22 26.2637L1142.47 26.1322L1142.2 27.6925L1142.94 27.8239Z" fill="#7B8BAA"/>
<path opacity="0.8" d="M1134.34 25.4434H1133.58V27.0281H1134.34V25.4434Z" fill="#7B8BAA"/>
<path opacity="0.8" d="M1125.79 27.7015L1125.52 26.1387L1124.77 26.2691L1125.04 27.832L1125.79 27.7015Z" fill="#7B8BAA"/>
<path opacity="0.8" d="M1117.54 29.94L1117 28.4492L1116.29 28.7067L1116.83 30.1975L1117.54 29.94Z" fill="#7B8BAA"/>
<path opacity="0.8" d="M1109.79 33.5348L1108.99 32.1621L1108.34 32.5397L1109.13 33.9123L1109.79 33.5348Z" fill="#7B8BAA"/>
<path opacity="0.8" d="M1102.64 38.305L1101.63 37.0898L1101.05 37.575L1102.06 38.7901L1102.64 38.305Z" fill="#7B8BAA"/>
<path opacity="0.8" d="M1171.42 107.915L1172.63 108.936L1173.12 108.357L1171.9 107.337L1171.42 107.915Z" fill="#7B8BAA"/>
<path opacity="0.8" d="M1176.34 101.131L1177.71 101.926L1178.08 101.272L1176.71 100.477L1176.34 101.131Z" fill="#7B8BAA"/>
<path opacity="0.8" d="M1181.42 93.8963L1181.68 93.1875L1180.19 92.643L1179.94 93.3518L1181.42 93.8963Z" fill="#7B8BAA"/>
<path opacity="0.8" d="M1183.75 85.2638L1183.88 84.5195L1182.33 84.2428L1182.2 84.9871L1183.75 85.2638Z" fill="#7B8BAA"/>
<path opacity="0.8" d="M1184.65 75.7539H1183.07V76.5098H1184.65V75.7539Z" fill="#7B8BAA"/>
<path opacity="0.8" d="M1183.98 67.6733L1183.85 66.9297L1182.29 67.2015L1182.42 67.9451L1183.98 67.6733Z" fill="#7B8BAA"/>
<path opacity="0.8" d="M1181.78 59.2076L1181.53 58.498L1180.04 59.0374L1180.3 59.747L1181.78 59.2076Z" fill="#7B8BAA"/>
<path opacity="0.8" d="M1178.12 51.1627L1177.74 50.5078L1176.37 51.2979L1176.75 51.9528L1178.12 51.1627Z" fill="#7B8BAA"/>
<path opacity="0.8" d="M1171.31 44.1583L1171.79 44.7383L1173 43.7242L1172.52 43.1442L1171.31 44.1583Z" fill="#7B8BAA"/>
<path opacity="0.8" d="M1082.01 52.1872L1082.55 52.7227L1087.29 47.9821L1086.76 47.4467L1082.01 52.1872Z" fill="#7B8BAA"/>
<path opacity="0.8" d="M1085.88 56.1486L1086.41 56.6836L1089.21 53.8948L1088.67 53.3598L1085.88 56.1486Z" fill="#7B8BAA"/>
<path opacity="0.8" d="M1089.69 59.997L1090.23 60.5312L1094.97 55.7859L1094.43 55.2517L1089.69 59.997Z" fill="#7B8BAA"/>
<path opacity="0.8" d="M1093.41 63.6569L1093.95 64.1914L1096.74 61.3991L1096.21 60.8646L1093.41 63.6569Z" fill="#7B8BAA"/>
<path opacity="0.8" d="M1097.2 67.4382L1097.73 67.9727L1102.47 63.2301L1101.94 62.6956L1097.2 67.4382Z" fill="#7B8BAA"/>
<path opacity="0.8" d="M1101.04 71.3427L1101.57 71.877L1104.36 69.084L1103.83 68.5497L1101.04 71.3427Z" fill="#7B8BAA"/>
<path opacity="0.8" d="M1104.79 75.0568L1105.32 75.5918L1110.07 70.8532L1109.54 70.3181L1104.79 75.0568Z" fill="#7B8BAA"/>
<path opacity="0.8" d="M1108.51 78.7148L1109.04 79.25L1111.84 76.4622L1111.31 75.9269L1108.51 78.7148Z" fill="#7B8BAA"/>
<path opacity="0.8" d="M1112.32 82.567L1112.86 83.1016L1117.6 78.3583L1117.07 77.8237L1112.32 82.567Z" fill="#7B8BAA"/>
<path opacity="0.8" d="M1116.1 86.3464L1116.64 86.8809L1119.43 84.0883L1118.9 83.5539L1116.1 86.3464Z" fill="#7B8BAA"/>
<path opacity="0.8" d="M1119.89 90.1296L1120.42 90.6641L1125.16 85.9208L1124.63 85.3863L1119.89 90.1296Z" fill="#7B8BAA"/>
<path opacity="0.8" d="M1123.67 93.9088L1124.2 94.4434L1126.99 91.6518L1126.46 91.1172L1123.67 93.9088Z" fill="#7B8BAA"/>
<path opacity="0.8" d="M1127.39 97.5695L1127.92 98.1035L1132.67 93.3631L1132.13 92.8292L1127.39 97.5695Z" fill="#7B8BAA"/>
<path opacity="0.8" d="M1131.17 101.351L1131.71 101.885L1134.5 99.0942L1133.96 98.5602L1131.17 101.351Z" fill="#7B8BAA"/>
<path opacity="0.8" d="M1134.98 105.185L1135.51 105.721L1140.26 100.984L1139.73 100.449L1134.98 105.185Z" fill="#7B8BAA"/>
<path opacity="0.8" d="M1138.79 109.038L1139.33 109.572L1142.12 106.78L1141.59 106.245L1138.79 109.038Z" fill="#7B8BAA"/>
<path opacity="0.8" d="M1142.58 112.819L1143.11 113.354L1147.85 108.61L1147.32 108.076L1142.58 112.819Z" fill="#7B8BAA"/>
<path opacity="0.8" d="M1146.36 116.6L1146.89 117.135L1149.68 114.343L1149.15 113.809L1146.36 116.6Z" fill="#7B8BAA"/>
<path opacity="0.8" d="M1150.14 120.383L1150.67 120.918L1155.42 116.175L1154.88 115.64L1150.14 120.383Z" fill="#7B8BAA"/>
<path opacity="0.8" d="M1153.95 124.223L1154.48 124.758L1157.28 121.969L1156.74 121.434L1153.95 124.223Z" fill="#7B8BAA"/>
<path opacity="0.8" d="M1162.57 123.112L1157.83 127.855L1158.36 128.39L1163.11 123.647L1162.57 123.112Z" fill="#7B8BAA"/>
</g>
<g opacity="0.8">
<path opacity="0.8" d="M1163.83 44.7408C1163.48 44.7502 1163.19 44.6416 1162.97 44.4139C1162.7 44.1472 1162.58 43.8393 1162.61 43.4945C1162.64 43.1498 1162.8 42.8232 1163.11 42.5196C1163.31 42.3193 1163.53 42.1758 1163.77 42.0957C1164.02 42.0134 1164.26 42.0008 1164.5 42.0609C1164.74 42.1189 1164.95 42.2463 1165.15 42.4413C1165.46 42.7481 1165.59 43.1056 1165.54 43.5125C1165.49 43.9205 1165.27 44.3159 1164.89 44.6985L1164.75 44.8398C1164.2 45.3891 1163.66 45.6831 1163.12 45.7242C1162.59 45.7643 1162.07 45.5408 1161.57 45.0527L1161.51 44.9927L1161.93 44.5732L1162.01 44.6468C1162.31 44.9409 1162.61 45.1002 1162.91 45.1181C1163.21 45.1392 1163.52 45.0127 1163.83 44.7408ZM1163.47 44.1241C1163.57 44.2263 1163.69 44.2917 1163.84 44.3223C1163.99 44.3518 1164.14 44.3413 1164.29 44.2875L1164.49 44.088C1164.71 43.8656 1164.85 43.6381 1164.89 43.4104C1164.94 43.1816 1164.89 42.994 1164.74 42.8485C1164.59 42.703 1164.42 42.6469 1164.21 42.6807C1164 42.7144 1163.81 42.8221 1163.62 43.0055C1163.43 43.1963 1163.32 43.3934 1163.29 43.599C1163.26 43.8046 1163.32 43.9786 1163.47 44.1241Z" fill="#7B8BAA"/>
<path opacity="0.8" d="M1166.81 47.7069C1166.37 48.1434 1165.96 48.392 1165.58 48.449C1165.19 48.508 1164.83 48.369 1164.5 48.0359C1164.17 47.708 1164.03 47.3528 1164.08 46.969C1164.13 46.5853 1164.37 46.1794 1164.79 45.7524L1165.31 45.2273C1165.75 44.7898 1166.16 44.5443 1166.54 44.4884C1166.92 44.4325 1167.28 44.5748 1167.62 44.909C1167.95 45.241 1168.09 45.5953 1168.04 45.9727C1167.99 46.348 1167.76 46.7518 1167.34 47.1798L1166.81 47.7069ZM1166.87 46.6306C1167.16 46.3449 1167.33 46.0971 1167.38 45.8862C1167.44 45.6754 1167.38 45.4867 1167.21 45.3148C1167.04 45.1504 1166.86 45.0924 1166.65 45.1398C1166.45 45.1873 1166.21 45.3421 1165.94 45.6057L1165.25 46.2942C1164.97 46.5788 1164.8 46.8288 1164.74 47.048C1164.68 47.2663 1164.73 47.4613 1164.9 47.631C1165.07 47.7934 1165.25 47.8492 1165.46 47.7986C1165.66 47.7469 1165.91 47.5866 1166.18 47.3178L1166.87 46.6306Z" fill="#7B8BAA"/>
</g>
<path d="M1159.33 214.698C1159.13 214.377 1158.67 214.206 1158.31 214.317L1139.9 219.989C1139.54 220.1 1139.25 220.499 1139.27 220.876L1139.43 224.694C1139.44 225.071 1139.55 225.673 1139.66 226.034L1149.94 259.424C1150.05 259.785 1150.44 259.989 1150.8 259.878L1171.74 253.427C1172.1 253.316 1172.31 252.931 1172.2 252.57L1161.91 219.18C1161.8 218.82 1161.55 218.264 1161.35 217.943L1159.33 214.698Z" fill="#A5AFC5"/>
<path d="M1158.54 214.783L1140.04 220.467C1139.9 220.511 1139.76 220.707 1139.77 220.856L1139.9 223.991C1139.91 224.209 1139.92 224.431 1139.93 224.595C1139.95 224.595 1139.97 224.592 1140 224.585L1160.81 218.174C1160.84 218.166 1160.86 218.158 1160.88 218.152C1160.78 217.982 1160.66 217.784 1160.56 217.626L1158.9 214.964C1158.84 214.861 1158.68 214.783 1158.54 214.783Z" fill="#E8EBF0"/>
<path d="M1163.12 220.958L1139.81 228.137L1149.29 258.908L1172.6 251.729L1163.12 220.958Z" fill="#334163"/>
<path opacity="0.3" d="M1163.12 220.958L1139.81 228.137L1149.29 258.908L1172.6 251.729L1163.12 220.958Z" fill="#0E9983"/>
<path opacity="0.3" d="M1159.42 229.398C1158.97 229.535 1158.58 229.838 1158.74 230.669L1158.73 230.67C1159 233.15 1157.49 235.554 1155.01 236.316C1152.54 237.078 1149.93 235.943 1148.76 233.74L1148.76 233.744C1148.42 232.97 1147.92 232.939 1147.48 233.076L1141.79 234.828L1149.2 258.869L1172.5 251.691L1165.09 227.65L1159.42 229.398Z" fill="#0E9983"/>
<path opacity="0.07" d="M1169.65 242.157L1146.34 249.336L1148.32 255.753L1171.63 248.574L1169.65 242.157Z" fill="white"/>
<path opacity="0.04" d="M1158.01 245.746L1146.36 249.336L1148.34 255.754L1159.99 252.164L1158.01 245.746Z" fill="white"/>
<path d="M966.728 94.3867C966.119 94.3867 965.123 94.3867 964.513 94.3867H864.403C863.793 94.3867 863.296 94.8854 863.297 95.4947L863.433 210.222C863.433 210.831 863.933 211.329 864.541 211.329L950.994 211.33C951.603 211.33 952.371 211.749 952.701 212.261L953.164 212.982C953.494 213.495 954.261 213.914 954.87 213.914H976.374C976.982 213.914 977.75 213.496 978.079 212.982L978.542 212.261C978.872 211.75 979.64 211.33 980.249 211.33H1066.84C1067.45 211.33 1067.95 210.831 1067.95 210.222V95.4947C1067.95 94.8865 1067.45 94.3867 1066.84 94.3867H966.728Z" fill="#405684"/>
<g opacity="0.3">
<g opacity="0.3">
<g opacity="0.3">
<path opacity="0.3" d="M955.769 97.7096C955.769 97.4049 955.52 97.1562 955.215 97.1562H866.618C866.313 97.1562 866.064 97.4049 866.064 97.7096V208.008C866.064 208.313 866.313 208.562 866.618 208.562H955.215C955.52 208.562 955.769 208.313 955.769 208.008V97.7096Z" fill="#334163"/>
</g>
<g opacity="0.3">
<path opacity="0.3" d="M976.026 97.1562C975.721 97.1562 975.473 97.4049 975.473 97.7096V208.008C975.473 208.313 975.721 208.562 976.026 208.562H1064.62C1064.93 208.562 1065.18 208.313 1065.18 208.008V97.7096C1065.18 97.4049 1064.93 97.1562 1064.62 97.1562H976.026Z" fill="#334163"/>
</g>
</g>
</g>
<path d="M965.623 96.5342V204.523C976.516 189.384 1002.39 184.163 1032.34 181.552V73.5625C1002.39 76.1728 976.515 81.3955 965.623 96.5342Z" fill="url(#paint5_linear)"/>
<path opacity="0.3" d="M874.803 88.3821V196.538C897.396 193.925 938.952 192.726 961.393 204.27V96.1159C938.951 84.5689 897.395 85.7708 874.803 88.3821Z" fill="white"/>
<path opacity="0.2" d="M871.779 95.7051V204.059C878.959 201.933 924.98 195.705 958.438 204.06V95.7051C924.98 87.3503 878.959 93.5787 871.779 95.7051Z" fill="white"/>
<path opacity="0.2" d="M1056.44 88.3821V196.538C1033.85 193.926 992.294 192.726 969.852 204.27V96.1159C992.293 84.5689 1033.85 85.7708 1056.44 88.3821Z" fill="white"/>
<path opacity="0.2" d="M1059.47 95.7051V204.06C1052.29 201.934 1006.27 195.705 972.811 204.06V95.7051C1006.27 87.3503 1052.29 93.5787 1059.47 95.7051Z" fill="white"/>
<path opacity="0.1" d="M1061.01 96.5332H870.24V204.522H1061.01V96.5332Z" fill="white"/>
<path opacity="0.5" d="M1050.53 81.0197C1046.04 81.3044 1040.08 80.9196 1031.96 80.4031C1003.56 78.5972 985.041 85.1515 967.469 96.2304V204.522C985.04 193.443 1003.56 186.889 1031.96 188.695C1040.08 189.21 1046.04 189.595 1050.53 189.312V81.0197Z" fill="white"/>
<path d="M879.924 79.7715V187.817C895.806 187.817 942.295 187.818 965.622 204.525V96.4778C942.295 79.7714 895.806 79.7715 879.924 79.7715Z" fill="url(#paint6_linear)"/>
<path d="M879.924 79.9395V187.985C895.806 187.985 942.295 187.985 965.622 204.693V96.6458C942.295 79.9394 895.806 79.9395 879.924 79.9395Z" fill="url(#paint7_linear)"/>
<path opacity="0.2" d="M1066.84 94.3996H1056.44V88.3937C1054.59 88.1797 1052.61 87.9773 1050.53 87.7896V81.0341C1046.11 81.3146 1040.26 80.9445 1032.34 80.4406V73.5742C1003.85 76.0559 979.068 80.9076 967.339 94.3996H966.729C966.119 94.3996 965.123 94.3996 964.514 94.3996H962.416C938.27 79.7933 895.11 79.7807 879.923 79.7807V87.8612C878.132 88.0288 876.414 88.2071 874.803 88.3937V94.3996H864.403C863.793 94.3996 863.296 94.8983 863.297 95.5066L863.433 210.235C863.433 210.844 863.933 211.342 864.541 211.342H950.994C951.603 211.342 952.371 211.762 952.701 212.273L953.164 212.995C953.494 213.508 954.261 213.926 954.87 213.926H976.374C976.982 213.926 977.75 213.509 978.079 212.995L978.542 212.273C978.872 211.763 979.64 211.342 980.249 211.342H1066.84C1067.45 211.342 1067.95 210.844 1067.95 210.235V95.5077C1067.95 94.8973 1067.45 94.3996 1066.84 94.3996Z" fill="#405684"/>
<path opacity="0.7" d="M1106.35 244.545L1106.19 244.472L1139.17 172.7L1142.69 157.347C1142.86 156.604 1142.63 156.499 1142.18 157.112L1132.82 169.778L1099.83 241.55L1099.67 241.478L1094 253.814L1094.16 253.885L1093.29 255.775C1092.82 256.814 1093.27 258.056 1094.31 258.532L1096.89 259.719C1097.93 260.196 1099.17 259.736 1099.65 258.697L1100.52 256.805L1100.68 256.878L1106.35 244.545Z" fill="#334163"/>
<path opacity="0.7" d="M1106.35 244.545L1106.19 244.472L1139.17 172.7L1142.69 157.347C1142.86 156.604 1142.63 156.499 1142.18 157.112L1132.82 169.778L1099.83 241.55L1099.67 241.478L1094 253.814L1094.16 253.885L1093.29 255.775C1092.82 256.814 1093.27 258.056 1094.31 258.532L1096.89 259.719C1097.93 260.196 1099.17 259.736 1099.65 258.697L1100.52 256.805L1100.68 256.878L1106.35 244.545Z" fill="#4F648E"/>
<path d="M1142.69 157.347C1142.86 156.604 1142.63 156.499 1142.18 157.112L1139.49 160.746C1139.92 160.23 1140.4 159.872 1141.08 160.183C1141.75 160.492 1141.8 161.083 1141.69 161.738L1142.69 157.347Z" fill="#212A3F"/>
<g opacity="0.6">
<g opacity="0.6">
<g opacity="0.6">
<path opacity="0.6" d="M1105.74 245.853L1099.06 242.785L1098.84 243.263L1105.52 246.331L1105.74 245.853Z" fill="#334163"/>
</g>
<g opacity="0.6">
<path opacity="0.6" d="M1101.54 254.732L1094.86 251.664L1094.64 252.143L1101.32 255.211L1101.54 254.732Z" fill="#334163"/>
</g>
<g opacity="0.6">
<path opacity="0.6" d="M1102.86 252.223L1096.19 249.156L1095.97 249.635L1102.64 252.702L1102.86 252.223Z" fill="#334163"/>
</g>
<g opacity="0.6">
<path opacity="0.6" d="M1103.97 249.647L1097.29 246.58L1097.07 247.059L1103.75 250.126L1103.97 249.647Z" fill="#334163"/>
</g>
</g>
</g>
<path opacity="0.3" d="M1106.19 244.471L1139.17 172.699L1139.19 172.631C1139.22 172.219 1139.36 171.67 1139.13 171.567C1138.71 171.371 1138.11 172.546 1137.57 172.301C1136.77 171.931 1137.32 170.733 1136.42 170.319C1135.52 169.905 1134.96 171.098 1134.16 170.731C1133.62 170.484 1134.13 169.268 1133.7 169.071C1133.48 168.968 1133.14 169.428 1132.86 169.722L1132.81 169.778L1099.83 241.55L1106.19 244.471Z" fill="#FFAA00"/>
<path opacity="0.3" d="M1094.16 253.885L1093.29 255.775C1092.82 256.813 1093.27 258.055 1094.31 258.532L1096.89 259.719C1097.93 260.196 1099.17 259.736 1099.65 258.696L1100.52 256.805L1094.16 253.885Z" fill="#D51E3C"/>
<path opacity="0.4" d="M1101.47 242.302L1104.68 243.778L1137.54 172.275C1136.8 171.883 1137.3 170.724 1136.42 170.32C1135.59 169.939 1135.05 170.91 1134.34 170.776L1101.47 242.302Z" fill="#FFB94A"/>
<path opacity="0.3" d="M1100.68 256.88L1094.01 253.814L1099.67 241.479L1106.35 244.545L1100.68 256.88Z" fill="url(#paint8_linear)"/>
</g>
<defs>
<linearGradient id="paint0_linear" x1="1089.48" y1="179.562" x2="1097.25" y2="180.519" gradientUnits="userSpaceOnUse">
<stop stop-color="#D51E3C"/>
<stop offset="0.1068" stop-color="#C3203E" stop-opacity="0.8138"/>
<stop offset="0.3208" stop-color="#932642" stop-opacity="0.4405"/>
<stop offset="0.4587" stop-color="#712A45" stop-opacity="0.2"/>
<stop offset="0.7229" stop-color="#5E496E" stop-opacity="0.5904"/>
<stop offset="1" stop-color="#4B6696"/>
</linearGradient>
<linearGradient id="paint1_linear" x1="1096.02" y1="123.927" x2="1104.4" y2="124.959" gradientUnits="userSpaceOnUse">
<stop stop-color="#D51E3C"/>
<stop offset="0.1068" stop-color="#C3203E" stop-opacity="0.8138"/>
<stop offset="0.3208" stop-color="#932642" stop-opacity="0.4405"/>
<stop offset="0.4587" stop-color="#712A45" stop-opacity="0.2"/>
<stop offset="0.7229" stop-color="#5E496E" stop-opacity="0.5904"/>
<stop offset="1" stop-color="#4B6696"/>
</linearGradient>
<linearGradient id="paint2_linear" x1="1089.47" y1="179.56" x2="1097.24" y2="180.517" gradientUnits="userSpaceOnUse">
<stop offset="0.6193" stop-color="#D51E3C" stop-opacity="0"/>
<stop offset="1" stop-color="#D51E3C" stop-opacity="0.5"/>
</linearGradient>
<linearGradient id="paint3_linear" x1="1096.01" y1="123.927" x2="1104.39" y2="124.959" gradientUnits="userSpaceOnUse">
<stop offset="0.6193" stop-color="#D51E3C" stop-opacity="0"/>
<stop offset="1" stop-color="#D51E3C" stop-opacity="0.5"/>
</linearGradient>
<linearGradient id="paint4_linear" x1="1087.46" y1="218.862" x2="1089.68" y2="219.136" gradientUnits="userSpaceOnUse">
<stop offset="0.0688" stop-color="#4B6696"/>
<stop offset="0.1332" stop-color="#5D76A1" stop-opacity="0.9719"/>
<stop offset="0.2632" stop-color="#8E9FBD" stop-opacity="0.9152"/>
<stop offset="0.4452" stop-color="#DAE0E9" stop-opacity="0.8359"/>
<stop offset="0.5275" stop-color="white" stop-opacity="0.8"/>
<stop offset="0.637" stop-color="#CCD2DE" stop-opacity="0.8503"/>
<stop offset="0.8623" stop-color="#68799E" stop-opacity="0.9536"/>
<stop offset="0.9633" stop-color="#405684"/>
</linearGradient>
<linearGradient id="paint5_linear" x1="965.623" y1="139.043" x2="1032.34" y2="139.043" gradientUnits="userSpaceOnUse">
<stop stop-color="white"/>
<stop offset="0.0441" stop-color="white" stop-opacity="0.9824"/>
<stop offset="1" stop-color="white" stop-opacity="0.6"/>
</linearGradient>
<linearGradient id="paint6_linear" x1="879.924" y1="142.148" x2="965.622" y2="142.148" gradientUnits="userSpaceOnUse">
<stop stop-color="white" stop-opacity="0"/>
<stop offset="0.6055" stop-color="white" stop-opacity="0.5"/>
<stop offset="1" stop-color="#405684"/>
</linearGradient>
<linearGradient id="paint7_linear" x1="879.924" y1="142.316" x2="965.622" y2="142.316" gradientUnits="userSpaceOnUse">
<stop stop-color="white" stop-opacity="0.4"/>
<stop offset="0.4633" stop-color="white" stop-opacity="0.6"/>
<stop offset="1" stop-color="white" stop-opacity="0.5"/>
</linearGradient>
<linearGradient id="paint8_linear" x1="1096.84" y1="247.645" x2="1103.51" y2="250.713" gradientUnits="userSpaceOnUse">
<stop stop-color="#4B6696" stop-opacity="0"/>
<stop offset="0.5" stop-color="white" stop-opacity="0.5"/>
<stop offset="1" stop-color="#4B6696" stop-opacity="0.3"/>
</linearGradient>
</defs>
</svg>
