<svg width="1211" height="680" viewBox="0 0 1211 680" fill="none" xmlns="http://www.w3.org/2000/svg">
<mask id="mask0" mask-type="alpha" maskUnits="userSpaceOnUse" x="0" y="0" width="1211" height="680">
<path d="M1210 0H0.00195312V680H1210V0Z" fill="#334163"/>
</mask>
<g mask="url(#mask0)">
<path opacity="0.2" d="M899.697 0C1071.08 0.0241951 1210 138.963 1210 310.348V0H899.697Z" fill="url(#paint0_radial)"/>
<path opacity="0.7" d="M983.589 101.549C892.139 101.549 818.002 175.147 818.002 265.934H1149.17C1149.18 175.145 1075.04 101.549 983.589 101.549Z" fill="url(#paint1_radial)"/>
<path opacity="0.3" d="M1038.31 234.139C1038.28 233.809 1038 233.538 1037.67 233.538H1035.52C1034.86 233.538 1034.32 232.997 1034.32 232.335V228.443V226.036C1034.32 225.373 1034.86 224.832 1035.52 224.832H1037.06C1037.73 224.832 1038.27 224.29 1038.27 223.628V222.304C1038.27 221.642 1037.73 221.102 1037.06 221.102H930.107C929.445 221.102 928.904 221.642 928.904 222.304V223.628C928.904 224.29 929.445 224.832 930.107 224.832H931.654C932.315 224.832 932.858 225.373 932.858 226.036V228.443V232.335C932.858 232.997 932.315 233.538 931.654 233.538H929.507C929.175 233.538 928.887 233.809 928.868 234.139L927.972 246.157C927.951 246.488 928.206 246.758 928.538 246.758H1038.64C1038.97 246.758 1039.22 246.488 1039.2 246.157L1038.31 234.139Z" fill="url(#paint2_linear)"/>
<path d="M1038.31 234.138C1038.28 233.808 1038 233.537 1037.67 233.537H1035.52C1034.86 233.537 1034.32 232.996 1034.32 232.334V228.442C1034.32 227.781 1033.77 227.239 1033.11 227.239H1031.79C1031.13 227.239 1030.59 227.781 1030.59 228.442V232.334C1030.59 232.996 1030.04 233.537 1029.38 233.537H1024.66C1024 233.537 1023.46 232.996 1023.46 232.334V228.442C1023.46 227.781 1022.92 227.239 1022.25 227.239H1020.93C1020.27 227.239 1019.73 227.781 1019.73 228.442V232.334C1019.73 232.996 1019.18 233.537 1018.52 233.537H1013.8C1013.14 233.537 1012.6 232.996 1012.6 232.334V228.442C1012.6 227.781 1012.06 227.238 1011.39 227.238H1010.07C1009.41 227.238 1008.87 227.781 1008.87 228.442V232.334C1008.87 232.996 1008.33 233.537 1007.66 233.537H1002.94C1002.28 233.537 1001.74 232.996 1001.74 232.334V228.442C1001.74 227.781 1001.2 227.239 1000.54 227.239H999.214C998.55 227.239 998.009 227.781 998.009 228.442V232.334C998.009 232.996 997.468 233.537 996.805 233.537H992.085C991.423 233.537 990.881 232.996 990.881 232.334V228.442C990.881 227.781 990.339 227.239 989.677 227.239H988.354C987.692 227.239 987.151 227.781 987.151 228.442V232.334C987.151 232.996 986.609 233.537 985.947 233.537H983.587H981.226C980.564 233.537 980.022 232.996 980.022 232.334V228.442C980.022 227.781 979.481 227.239 978.819 227.239H977.496C976.834 227.239 976.292 227.781 976.292 228.442V232.334C976.292 232.996 975.75 233.537 975.088 233.537H970.367C969.705 233.537 969.164 232.996 969.164 232.334V228.442C969.164 227.781 968.622 227.239 967.96 227.239H966.637C965.974 227.239 965.433 227.781 965.433 228.442V232.334C965.433 232.996 964.892 233.537 964.229 233.537H959.508C958.846 233.537 958.303 232.996 958.303 232.334V228.442C958.303 227.781 957.762 227.238 957.1 227.238H955.779C955.116 227.238 954.574 227.781 954.574 228.442V232.334C954.574 232.996 954.033 233.537 953.371 233.537H948.651C947.988 233.537 947.447 232.996 947.447 232.334V228.442C947.447 227.781 946.905 227.239 946.243 227.239H944.919C944.257 227.239 943.716 227.781 943.716 228.442V232.334C943.716 232.996 943.175 233.537 942.513 233.537H937.791C937.129 233.537 936.588 232.996 936.588 232.334V228.442C936.588 227.781 936.046 227.239 935.384 227.239H934.061C933.399 227.239 932.858 227.781 932.858 228.442V232.334C932.858 232.996 932.315 233.537 931.654 233.537H929.507C929.175 233.537 928.887 233.808 928.868 234.138L927.972 246.156C927.951 246.487 928.206 246.757 928.538 246.757H983.587H1038.64C1038.97 246.757 1039.22 246.487 1039.2 246.156L1038.31 234.138Z" fill="url(#paint3_linear)"/>
<path d="M1038.27 223.628C1038.27 224.29 1037.73 224.832 1037.06 224.832H930.108C929.446 224.832 928.904 224.29 928.904 223.628V222.304C928.904 221.642 929.446 221.102 930.108 221.102H1037.06C1037.73 221.102 1038.27 221.642 1038.27 222.304V223.628Z" fill="url(#paint4_linear)"/>
<path d="M1038.27 223.628C1038.27 224.29 1037.73 224.832 1037.06 224.832H930.108C929.446 224.832 928.904 224.29 928.904 223.628V222.304C928.904 221.642 929.446 221.102 930.108 221.102H1037.06C1037.73 221.102 1038.27 221.642 1038.27 222.304V223.628Z" fill="url(#paint5_linear)"/>
<path d="M1049.01 233.97C1048.77 233.578 1048.19 233.26 1047.73 233.26H1044.89C1044.43 233.26 1044.08 233.635 1044.12 234.092L1045.65 251.913C1045.69 252.372 1045.35 252.746 1044.89 252.746H922.285C921.827 252.746 921.482 252.372 921.521 251.913L923.051 234.092C923.089 233.635 922.747 233.26 922.286 233.26H919.444C918.985 233.26 918.409 233.578 918.167 233.97L902.426 259.243V265.933H1064.75V259.243L1049.01 233.97Z" fill="#27334C"/>
<path opacity="0.5" d="M1049.01 233.97C1048.77 233.578 1048.19 233.26 1047.73 233.26H1044.89C1044.43 233.26 1044.08 233.635 1044.12 234.092L1045.65 251.913C1045.69 252.372 1045.35 252.746 1044.89 252.746H922.285C921.827 252.746 921.482 252.372 921.521 251.913L923.051 234.092C923.089 233.635 922.747 233.26 922.286 233.26H919.444C918.985 233.26 918.409 233.578 918.167 233.97L902.426 259.243V265.933H1064.75V259.243L1049.01 233.97Z" fill="#334163"/>
<path d="M1049.01 233.969L1055.97 258.177C1056.14 258.762 1055.78 259.242 1055.17 259.242H912.006C911.394 259.242 911.034 258.762 911.201 258.177L918.165 233.969L902.424 259.242V265.932H1064.75V259.242L1049.01 233.969Z" fill="url(#paint6_linear)"/>
<path opacity="0.4" d="M1045.53 252.374L1055.87 258.908C1056 258.717 1056.05 258.464 1055.97 258.181L1049.01 233.974H1049.01C1048.76 233.582 1048.19 233.264 1047.73 233.264H1044.89C1044.42 233.264 1044.08 233.639 1044.12 234.096L1045.65 251.917C1045.66 252.09 1045.61 252.242 1045.53 252.374Z" fill="#334163"/>
<path opacity="0.4" d="M921.639 252.374C921.559 252.242 921.506 252.09 921.52 251.917L923.051 234.096C923.089 233.639 922.747 233.264 922.286 233.264H919.444C918.985 233.264 918.409 233.582 918.166 233.974L911.203 258.181C911.123 258.464 911.17 258.717 911.303 258.908L921.639 252.374Z" fill="#334163"/>
<path opacity="0.5" d="M994.09 252.748H973.084L975.812 259.244H991.36L994.09 252.748Z" fill="#27334C"/>
<path d="M985.96 234.077C985.863 233.628 985.41 233.26 984.949 233.26H982.227C981.768 233.26 981.314 233.628 981.217 234.077L975.863 259.242V265.933H991.316V259.242L985.96 234.077Z" fill="url(#paint7_linear)"/>
<path opacity="0.1" d="M975.861 259.246H991.314L988.054 245.667C986.899 240.858 985.81 235.014 983.59 235.014C981.368 235.014 980.279 240.859 979.124 245.667L975.861 259.246Z" fill="url(#paint8_linear)"/>
<path opacity="0.15" d="M976.839 216.35C976.03 214.128 974.899 212.052 973.842 209.943C973.381 209.022 972.058 204.675 970.513 205.94C966.381 209.325 963.653 215.307 963.767 220.648C963.8 222.254 964.154 224.122 964.916 225.554C966.213 227.988 968.816 230.311 971.761 230.179C977.145 229.941 978.715 224.131 977.791 219.653C977.556 218.514 977.23 217.417 976.839 216.35Z" fill="#4B669D"/>
<path opacity="0.15" d="M996.654 205.938C995.109 204.673 993.785 209.02 993.325 209.941C992.267 212.051 991.136 214.126 990.327 216.348C989.936 217.417 989.61 218.512 989.376 219.65C988.451 224.128 990.022 229.937 995.407 230.176C998.351 230.308 1000.95 227.985 1002.25 225.551C1003.01 224.119 1003.37 222.251 1003.4 220.645C1003.51 215.305 1000.78 209.323 996.654 205.938Z" fill="#4B669D"/>
<path opacity="0.15" d="M990.758 221.657C990.692 225.755 987.782 231.212 983 229.728C981.723 229.332 980.012 228.365 979.119 227.337C977.191 225.113 976.485 222.003 976.415 219.1C976.377 217.54 976.564 215.932 976.977 214.425C977.832 211.32 979.248 208.573 981.597 206.377C982.261 205.754 982.597 205.33 983.193 205.994C983.72 206.581 983.855 207.385 984.122 208.107C985.24 211.11 988.14 212.761 989.434 215.629C990.31 217.573 990.791 219.634 990.758 221.657Z" fill="#4B669D"/>
<path opacity="0.4" d="M931.707 218.893C930.751 217.385 929.412 216.174 928.098 214.949C926.311 213.282 923.896 211.468 923.5 208.911C923.428 208.447 923.536 207.879 923.203 207.539C922.856 207.184 922.329 207.26 921.935 207.474C917.636 209.807 916.911 215.743 917.636 220.086C918.329 224.231 920.51 227.996 924.31 229.993C927.617 231.73 931.861 231.218 932.946 227.209C933.777 224.147 933.399 221.567 931.707 218.893Z" fill="#4B669D"/>
<path opacity="0.2" d="M928.081 226.075C927.314 224.717 925.861 223.688 924.505 222.98C923.739 222.586 921.943 221.561 921.752 220.458C921.729 220.32 921.729 220.179 921.763 220.036C921.971 219.148 922.572 219.849 923.175 219.755C923.666 219.677 923.775 219.356 923.49 218.964C922.611 217.763 920.484 217.74 919.626 218.89C917.989 221.07 919.34 224.386 920.898 226.167C921.847 227.253 922.984 228.163 924.249 228.85C925.426 229.49 926.9 230.17 928.276 229.924C929.912 229.627 928.533 226.877 928.081 226.075Z" fill="#00B4FF"/>
<path opacity="0.2" d="M930.048 220.916C929.755 220.281 929.368 219.694 928.93 219.15C928.008 218.004 926.795 217.082 925.524 216.351C925.205 216.168 924.879 215.998 924.549 215.836C923.342 215.253 922.137 214.633 921.061 213.828C920.756 213.599 920.458 213.355 920.18 213.09C919.879 212.806 919.676 212.438 919.403 212.133C919.242 211.951 919.069 211.677 918.818 211.867C918.414 212.174 918.292 212.714 918.218 213.187C918.059 214.158 918.018 215.101 918.302 216.052C918.364 216.263 918.451 216.879 918.749 216.875C919.073 216.871 918.991 215.743 919.005 215.531C919.018 215.349 919.051 214.964 919.277 214.916C919.506 214.868 919.803 215.189 919.936 215.33C921.612 217.086 923.733 218.306 925.662 219.746C927.518 221.126 928.97 222.757 930.017 224.83C930.101 225.001 930.317 225.823 930.593 225.5C930.733 225.332 930.729 224.952 930.734 224.739C930.783 223.434 930.595 222.113 930.048 220.916Z" fill="#FFF064"/>
<path opacity="0.1" d="M930.229 222.851C928.942 220.498 927.406 218.712 925.055 217.382C923.692 216.612 921.934 215.886 920.962 214.585C920.678 214.203 920.522 213.699 919.945 213.95C919.191 214.282 918.887 215.398 918.623 216.096C917.868 218.084 917.939 220.398 918.536 222.419C918.944 223.797 919.622 225.112 920.601 226.171C920.797 226.383 921.941 227.628 922.259 227.44C922.447 227.327 921.948 226.634 921.511 226.074C920.445 224.711 919.748 223.109 919.683 221.358C919.654 220.574 919.8 219.799 920.238 219.133C920.588 218.601 920.934 218.773 921.456 219.071C922.596 219.722 923.743 220.381 924.723 221.256C925.93 222.335 926.948 223.631 927.577 225.126C928.051 226.254 928.673 228.249 927.303 229.078C926.71 229.436 925.843 229.063 925.238 228.943C924.433 228.776 924.79 229.363 925.258 229.634C926.063 230.097 926.973 230.345 927.895 230.404C928.755 230.46 929.827 230.379 930.427 229.679C932.015 227.827 931.274 224.766 930.229 222.851Z" fill="white"/>
<path opacity="0.2" d="M931.559 223.143C931.058 220.794 929.495 218.751 927.539 217.406C926.171 216.463 924.671 215.603 923.531 214.378C922.175 212.918 921.76 211.312 921.797 209.354C921.816 208.35 922.361 206.38 920.735 207.295C918.786 208.388 917.261 210.101 916.486 212.204C915.617 214.556 916.194 216.989 916.996 219.281C917.087 219.543 917.623 221.056 918.125 220.559C918.409 220.277 918.019 219.271 917.971 218.908C917.864 218.109 917.727 216.458 918.45 215.872C919.035 215.392 920.013 215.764 920.614 216.032C922.616 216.923 924.557 218.29 926.147 219.914C927.805 221.556 931.303 225.727 929.53 229.324C929.432 229.522 929.392 229.71 929.429 229.796C929.468 229.881 929.591 229.86 929.825 229.64C931.523 228.044 932.03 225.364 931.559 223.143Z" fill="#D51E3C"/>
<path opacity="0.4" d="M1045.23 207.475C1044.84 207.261 1044.31 207.183 1043.97 207.539C1043.63 207.881 1043.74 208.447 1043.67 208.911C1043.27 211.47 1040.86 213.282 1039.07 214.949C1037.76 216.174 1036.42 217.385 1035.46 218.893C1033.77 221.566 1033.39 224.146 1034.22 227.209C1035.31 231.219 1039.55 231.73 1042.86 229.993C1046.66 227.997 1048.84 224.233 1049.53 220.087C1050.26 215.743 1049.53 209.806 1045.23 207.475Z" fill="#4B669D"/>
<path opacity="0.2" d="M1047.54 218.89C1046.69 217.74 1044.56 217.763 1043.68 218.964C1043.39 219.356 1043.5 219.677 1044 219.755C1044.6 219.849 1045.2 219.148 1045.41 220.036C1045.44 220.179 1045.44 220.32 1045.42 220.458C1045.23 221.561 1043.43 222.586 1042.66 222.98C1041.31 223.688 1039.86 224.717 1039.09 226.075C1038.64 226.877 1037.26 229.627 1038.89 229.922C1040.27 230.17 1041.74 229.489 1042.92 228.849C1044.19 228.162 1045.32 227.252 1046.27 226.166C1047.83 224.386 1049.18 221.069 1047.54 218.89Z" fill="#00B4FF"/>
<path opacity="0.2" d="M1048.95 213.187C1048.88 212.713 1048.75 212.174 1048.35 211.867C1048.1 211.677 1047.93 211.951 1047.77 212.133C1047.49 212.438 1047.29 212.806 1046.99 213.09C1046.71 213.355 1046.41 213.599 1046.11 213.828C1045.03 214.633 1043.83 215.252 1042.62 215.836C1042.29 215.998 1041.96 216.168 1041.64 216.351C1040.37 217.082 1039.16 218.004 1038.24 219.15C1037.8 219.694 1037.41 220.281 1037.12 220.916C1036.57 222.113 1036.38 223.435 1036.43 224.741C1036.44 224.952 1036.44 225.332 1036.58 225.501C1036.85 225.824 1037.07 225.003 1037.15 224.831C1038.2 222.758 1039.65 221.127 1041.5 219.747C1043.43 218.306 1045.56 217.088 1047.23 215.331C1047.37 215.19 1047.66 214.869 1047.89 214.917C1048.12 214.965 1048.15 215.351 1048.16 215.533C1048.18 215.744 1048.1 216.872 1048.42 216.876C1048.72 216.88 1048.8 216.265 1048.87 216.053C1049.15 215.101 1049.11 214.158 1048.95 213.187Z" fill="#FFF064"/>
<path opacity="0.1" d="M1048.55 216.093C1048.29 215.396 1047.98 214.28 1047.23 213.948C1046.65 213.697 1046.5 214.202 1046.21 214.583C1045.24 215.885 1043.48 216.61 1042.12 217.38C1039.77 218.709 1038.23 220.496 1036.95 222.849C1035.9 224.765 1035.16 227.825 1036.75 229.675C1037.35 230.375 1038.42 230.456 1039.28 230.4C1040.2 230.339 1041.11 230.093 1041.92 229.629C1042.38 229.359 1042.74 228.772 1041.94 228.938C1041.33 229.059 1040.46 229.432 1039.87 229.074C1038.5 228.246 1039.12 226.25 1039.6 225.122C1040.23 223.626 1041.24 222.33 1042.45 221.252C1043.43 220.377 1044.58 219.718 1045.72 219.067C1046.24 218.768 1046.58 218.596 1046.94 219.129C1047.37 219.795 1047.52 220.57 1047.49 221.354C1047.43 223.104 1046.73 224.707 1045.66 226.07C1045.23 226.631 1044.73 227.323 1044.92 227.435C1045.23 227.625 1046.38 226.38 1046.57 226.167C1047.55 225.107 1048.23 223.793 1048.64 222.414C1049.23 220.396 1049.3 218.082 1048.55 216.093Z" fill="white"/>
<path opacity="0.2" d="M1050.68 212.203C1049.91 210.1 1048.38 208.389 1046.43 207.294C1044.81 206.38 1045.35 208.349 1045.37 209.354C1045.41 211.313 1045 212.918 1043.64 214.377C1042.5 215.603 1041 216.463 1039.63 217.405C1037.67 218.751 1036.11 220.794 1035.61 223.143C1035.14 225.363 1035.65 228.044 1037.34 229.638C1037.58 229.856 1037.7 229.878 1037.74 229.793C1037.78 229.708 1037.74 229.519 1037.64 229.322C1035.87 225.725 1039.36 221.553 1041.02 219.912C1042.61 218.287 1044.55 216.92 1046.56 216.03C1047.16 215.763 1048.13 215.391 1048.72 215.869C1049.44 216.456 1049.3 218.107 1049.2 218.906C1049.15 219.269 1048.76 220.274 1049.04 220.556C1049.55 221.052 1050.08 219.54 1050.17 219.278C1050.97 216.989 1051.55 214.556 1050.68 212.203Z" fill="#D51E3C"/>
<path opacity="0.3" d="M943.577 222.255C942.629 217.3 937.428 213.616 937.173 208.27C937.138 207.518 937.364 206.294 936.43 206.05C935.407 205.785 934.189 207.111 933.538 207.708C930.367 210.609 928.522 215.111 928.636 219.395C928.7 221.761 929.27 224.155 930.419 226.23C931.68 228.508 933.906 230.307 936.512 230.677C939.236 231.066 942.097 229.45 943.076 226.785C943.546 225.505 943.835 223.607 943.577 222.255Z" fill="#4B669D"/>
<path opacity="0.2" d="M941.184 228.034C940.841 227.195 939.826 227.449 939.133 227.277C938.496 227.121 938.012 226.681 937.55 226.241C936.41 225.162 935.387 223.923 934.604 222.56C934.208 221.874 933.797 221.069 933.903 220.254C934.041 219.208 935.093 218.848 936 219.132C937.321 219.545 938.355 220.807 938.811 222.065C938.872 222.236 938.836 222.552 938.988 222.673C939.196 222.839 939.275 222.618 939.297 222.445C939.353 221.98 939.228 221.485 939.09 221.043C938.709 219.811 937.765 218.465 936.606 217.852C935.422 217.165 933.985 217.206 932.843 217.949C931.402 218.883 930.928 220.733 931.082 222.349C931.179 223.32 931.466 224.195 931.822 224.999C932.044 225.499 932.326 225.993 932.624 226.451C933.625 227.999 935.121 229.347 936.861 229.995C938.203 230.49 939.944 230.469 940.916 229.26C941.197 228.913 941.345 228.427 941.184 228.034Z" fill="#00B4FF"/>
<path opacity="0.2" d="M938.801 215.599C936.717 212.975 934.705 210.776 934.685 207.219C934.677 205.839 933.658 206.389 932.84 206.993C931.114 208.267 930.17 210.117 929.659 212.188C929.625 212.337 929.551 212.509 929.564 212.666C929.588 212.982 929.795 212.764 929.858 212.621C930.082 212.114 930.517 211.481 931.015 211.214C931.182 211.121 931.33 211.084 931.458 211.09C931.837 211.102 932.068 211.47 932.322 211.853C934.342 214.893 937.827 216.632 939.839 219.708C940.549 220.791 941.082 222.056 941.197 223.358C941.227 223.522 941.148 224.114 941.399 224.124C941.626 224.134 941.671 223.522 941.69 223.37C942.034 220.394 940.591 217.847 938.801 215.599ZM931.954 211.03C931.95 211.031 931.95 211.03 931.948 211.03C932.023 210.985 932.115 210.93 932.053 210.993C932.011 211.023 932.017 211.017 931.954 211.03Z" fill="#D51E3C"/>
<path opacity="0.1" d="M941.242 225.096C940.846 223.777 940.2 222.616 939.367 221.519C938.576 220.535 937.669 219.686 936.829 218.969C934.898 217.318 933.409 215.114 932.371 212.807C932.165 212.355 931.905 211.257 931.199 211.622C930.624 211.92 930.321 212.957 930.099 213.516C929.022 216.22 928.594 219.446 929.72 222.205C930.169 223.303 930.892 224.235 931.567 225.203C932.676 226.795 933.914 228.282 935.561 229.339C936.628 230.022 937.962 230.57 939.245 230.3C941.611 229.8 941.725 226.982 941.242 225.096ZM938.263 228.99C937.603 229.269 936.906 228.984 936.309 228.686C936.299 228.68 936.289 228.675 936.277 228.67C935.398 228.227 934.645 227.629 934.05 226.834C933.506 226.098 933.064 225.293 932.65 224.479C932.252 223.697 931.827 222.914 931.495 222.102C931.027 220.967 930.792 219.732 930.788 218.508C930.785 217.75 930.885 216.929 931.129 216.207C931.172 216.085 931.322 215.695 931.474 215.681C931.685 215.664 931.683 216.277 931.709 216.427C931.943 217.941 932.815 219.468 933.757 220.653C934.477 221.56 935.215 222.395 935.922 223.145C936.606 223.879 937.27 224.59 937.895 225.267C938.514 225.913 938.875 226.4 939.037 226.89C939.291 227.669 939.087 228.643 938.263 228.99Z" fill="white"/>
<path opacity="0.2" d="M942.391 222.355C941.737 219.891 939.879 217.784 938.055 216.089C936.148 214.316 934.045 212.704 932.677 210.443C932.433 210.044 932.287 209.509 931.727 209.77C930.596 210.294 929.837 211.688 929.686 212.884C929.618 213.426 929.612 214.078 929.801 214.594C929.869 214.78 930.065 215.172 930.325 215.032C930.579 214.895 930.634 214.116 930.712 213.861C930.796 213.589 930.945 213.092 931.317 213.144C931.591 213.181 931.757 213.745 931.908 213.938C934.121 216.745 937.714 218.018 939.903 220.865C941.295 222.681 941.817 225.05 941.348 227.289C941.308 227.479 940.95 228.306 941.445 228.243C941.75 228.202 942.004 227.322 942.104 227.075C942.722 225.562 942.803 223.905 942.391 222.355Z" fill="#FFF064"/>
<path opacity="0.3" d="M1033.63 207.708C1032.98 207.111 1031.76 205.785 1030.74 206.05C1029.81 206.294 1030.03 207.518 1030 208.27C1029.74 213.616 1024.54 217.301 1023.59 222.255C1023.33 223.607 1023.62 225.507 1024.09 226.785C1025.07 229.448 1027.93 231.064 1030.66 230.677C1033.26 230.307 1035.49 228.508 1036.75 226.23C1037.9 224.155 1038.47 221.761 1038.53 219.395C1038.65 215.11 1036.8 210.609 1033.63 207.708Z" fill="#4B669D"/>
<path opacity="0.2" d="M1034.33 217.949C1033.19 217.206 1031.75 217.165 1030.57 217.852C1029.41 218.465 1028.46 219.811 1028.08 221.043C1027.94 221.484 1027.82 221.98 1027.88 222.445C1027.9 222.618 1027.98 222.839 1028.18 222.673C1028.34 222.554 1028.3 222.236 1028.36 222.065C1028.82 220.807 1029.85 219.547 1031.17 219.132C1032.08 218.848 1033.13 219.207 1033.27 220.254C1033.37 221.069 1032.96 221.874 1032.57 222.56C1031.78 223.923 1030.76 225.163 1029.62 226.241C1029.16 226.681 1028.68 227.121 1028.04 227.277C1027.35 227.448 1026.33 227.195 1025.99 228.034C1025.83 228.427 1025.97 228.913 1026.25 229.259C1027.22 230.468 1028.97 230.489 1030.31 229.994C1032.05 229.346 1033.54 227.998 1034.54 226.45C1034.84 225.992 1035.12 225.499 1035.35 224.998C1035.7 224.194 1035.99 223.319 1036.09 222.348C1036.24 220.733 1035.77 218.883 1034.33 217.949Z" fill="#00B4FF"/>
<path opacity="0.2" d="M1037.51 212.188C1037 210.118 1036.06 208.268 1034.33 206.993C1033.51 206.389 1032.5 205.839 1032.49 207.219C1032.47 210.776 1030.45 212.974 1028.37 215.599C1026.58 217.847 1025.14 220.394 1025.48 223.371C1025.5 223.523 1025.55 224.134 1025.77 224.126C1026.02 224.114 1025.95 223.523 1025.98 223.359C1026.09 222.057 1026.62 220.793 1027.33 219.709C1029.35 216.633 1032.83 214.894 1034.85 211.854C1035.1 211.47 1035.34 211.102 1035.72 211.091C1035.84 211.086 1035.99 211.122 1036.16 211.215C1036.66 211.481 1037.09 212.115 1037.31 212.622C1037.38 212.765 1037.58 212.983 1037.61 212.667C1037.62 212.509 1037.55 212.336 1037.51 212.188ZM1035.22 211.03C1035.16 211.017 1035.16 211.023 1035.12 210.993C1035.06 210.93 1035.15 210.985 1035.23 211.03C1035.22 211.03 1035.22 211.031 1035.22 211.03Z" fill="#D51E3C"/>
<path opacity="0.1" d="M1037.07 213.518C1036.85 212.959 1036.54 211.922 1035.97 211.624C1035.26 211.259 1035 212.357 1034.8 212.809C1033.76 215.116 1032.27 217.319 1030.34 218.971C1029.5 219.687 1028.59 220.537 1027.8 221.521C1026.97 222.616 1026.32 223.778 1025.93 225.098C1025.44 226.984 1025.56 229.802 1027.92 230.303C1029.21 230.573 1030.54 230.025 1031.61 229.342C1033.25 228.285 1034.49 226.797 1035.6 225.206C1036.28 224.238 1037 223.306 1037.45 222.208C1038.57 219.448 1038.15 216.221 1037.07 213.518ZM1035.67 222.103C1035.34 222.914 1034.91 223.698 1034.52 224.48C1034.1 225.294 1033.66 226.099 1033.12 226.834C1032.52 227.63 1031.77 228.227 1030.89 228.671C1030.88 228.676 1030.87 228.681 1030.86 228.687C1030.26 228.986 1029.57 229.27 1028.91 228.991C1028.08 228.643 1027.88 227.67 1028.13 226.89C1028.29 226.4 1028.66 225.913 1029.27 225.267C1029.9 224.59 1030.56 223.879 1031.25 223.144C1031.95 222.395 1032.69 221.559 1033.41 220.653C1034.35 219.469 1035.23 217.941 1035.46 216.426C1035.48 216.277 1035.48 215.663 1035.69 215.681C1035.85 215.694 1036 216.084 1036.04 216.207C1036.28 216.929 1036.38 217.751 1036.38 218.508C1036.38 219.733 1036.14 220.968 1035.67 222.103Z" fill="white"/>
<path opacity="0.2" d="M1037.49 212.883C1037.34 211.689 1036.58 210.294 1035.45 209.77C1034.88 209.509 1034.74 210.044 1034.5 210.442C1033.13 212.704 1031.02 214.315 1029.12 216.089C1027.29 217.784 1025.43 219.892 1024.78 222.354C1024.37 223.905 1024.45 225.563 1025.07 227.075C1025.17 227.322 1025.42 228.202 1025.73 228.243C1026.22 228.306 1025.87 227.478 1025.83 227.289C1025.36 225.049 1025.88 222.68 1027.27 220.865C1029.46 218.018 1033.05 216.744 1035.27 213.937C1035.42 213.744 1035.58 213.181 1035.86 213.144C1036.23 213.091 1036.38 213.588 1036.46 213.861C1036.54 214.115 1036.59 214.894 1036.85 215.032C1037.11 215.173 1037.31 214.78 1037.37 214.594C1037.56 214.078 1037.55 213.426 1037.49 212.883Z" fill="#FFF064"/>
<path opacity="0.25" d="M954.507 221.154C954.14 218.737 953.013 216.432 951.787 214.272C950.424 211.872 948.78 209.847 948.591 206.985C948.559 206.512 948.638 205.984 948.148 205.746C947.049 205.215 945.557 206.565 944.781 207.194C942.845 208.761 941.407 211.04 940.516 213.346C938.908 217.507 939.382 221.987 941.429 225.91C942.54 228.04 944.565 229.576 946.837 230.265C950.345 231.328 953.408 228.581 954.298 225.306C954.683 223.892 954.715 222.505 954.507 221.154Z" fill="#4B669D"/>
<path opacity="0.2" d="M950.553 226.929C950.471 226.233 950.375 224.985 949.781 224.523C949.496 224.303 949.195 224.376 948.919 224.571C948.527 224.849 948.172 224.972 947.758 224.648C947.067 224.11 946.594 223.481 946.21 222.699C945.802 221.872 945.624 220.949 945.747 220.028C945.846 219.294 946.388 218.782 947.167 219.028C947.848 219.242 948.353 220.039 948.532 220.696C948.611 220.984 948.754 221.428 949.015 220.982C949.376 220.36 949.065 219.282 948.848 218.658C948.585 217.891 948.135 217.148 947.481 216.652C945.318 215.022 942.859 216.917 942.251 219.131C941.679 221.21 942.091 223.352 942.882 225.314C942.89 225.336 942.899 225.354 942.906 225.374C943.753 227.436 945.336 229.435 947.521 230.149C948.861 230.587 949.762 230.065 950.224 229.153C950.537 228.533 950.645 227.731 950.553 226.929Z" fill="#00B4FF"/>
<path opacity="0.1" d="M950.059 215.985C948.71 214.363 947.246 212.56 947.102 210.365C947.05 209.583 946.303 209.106 945.555 209.349C942.663 210.287 941.667 213.762 941.453 216.474C941.352 217.769 941.366 219.071 941.496 220.365C941.6 221.394 941.678 222.749 942.456 223.523C943.313 224.379 942.842 221.996 942.825 221.623C942.737 219.685 943.246 217.657 944.409 216.085C944.643 215.773 945 215.45 945.429 215.624C945.74 215.751 945.915 216.299 946.077 216.568C947.849 219.484 951.728 222.235 951.406 226.028C951.241 227.981 949.433 229.702 947.434 228.907C947.2 228.814 946.699 228.482 946.433 228.632C946.07 228.836 946.512 229.141 946.735 229.3C948.062 230.248 950.152 230.604 951.564 229.644C953.139 228.572 953.961 226.783 954.059 224.909C954.242 221.381 952.195 218.556 950.059 215.985Z" fill="white"/>
<path opacity="0.2" d="M951.359 216.877C950.456 215.71 949.425 214.708 948.363 213.69C947.421 212.787 946.558 211.79 946.199 210.51C946.058 210.005 946.114 209.392 945.489 209.32C944.994 209.262 944.422 209.554 944.018 209.801C943.111 210.354 942.334 211.204 941.774 212.1C940.896 213.508 940.291 215.29 940.23 216.957C940.204 217.664 940.341 218.368 940.548 219.039C940.644 219.353 940.764 219.676 940.921 219.965C941.175 220.432 941.385 220.51 941.343 219.908C941.228 218.251 941.713 216.602 942.466 215.137C942.782 214.524 943.502 213.35 944.252 213.186C944.689 213.09 944.678 213.438 944.864 213.762C945.893 215.58 947.83 216.555 949.328 217.912C951.45 219.838 953.266 222.923 952.411 225.873C952.3 226.25 952.01 226.649 952.009 227.054C952.007 227.808 952.731 226.859 952.879 226.65C953.397 225.926 953.683 224.989 953.822 224.12C954.257 221.43 952.952 218.943 951.359 216.877Z" fill="#FFF064"/>
<path opacity="0.2" d="M949.441 212.104C948.181 210.399 946.553 208.738 945.786 206.729C945.659 206.39 945.629 206.012 945.165 206.01C944.702 206.005 944.213 206.458 943.851 206.716C940.751 208.917 938.573 214.284 940.18 217.964C940.397 218.46 940.866 218.839 940.874 218.065C940.884 217.148 941.084 216.151 941.439 215.187C941.748 214.34 942.167 213.53 942.694 212.799C943.061 212.29 943.875 211.125 944.535 210.986C945.134 210.86 945.14 211.63 945.231 212.08C945.403 212.953 945.753 213.655 946.188 214.428C947.278 216.362 948.977 217.842 950.349 219.56C951.296 220.742 952.042 222.147 952.33 223.639C952.472 224.383 952.498 225.151 952.341 225.891C952.279 226.187 951.907 226.658 951.991 226.962C952.227 227.824 952.914 226.712 953.078 226.449C953.356 226.001 953.5 225.498 953.621 224.977C953.85 224.003 954.058 222.885 954.035 221.889C953.954 218.242 951.517 214.921 949.441 212.104Z" fill="#D51E3C"/>
<path opacity="0.25" d="M1026.65 213.346C1025.76 211.04 1024.32 208.761 1022.38 207.194C1021.61 206.566 1020.12 205.215 1019.02 205.746C1018.53 205.983 1018.61 206.511 1018.58 206.985C1018.39 209.847 1016.74 211.872 1015.38 214.272C1014.15 216.431 1013.03 218.737 1012.66 221.154C1012.45 222.506 1012.49 223.893 1012.87 225.305C1013.76 228.58 1016.82 231.327 1020.33 230.263C1022.6 229.575 1024.63 228.038 1025.74 225.909C1027.79 221.987 1028.26 217.506 1026.65 213.346Z" fill="#4B669D"/>
<path opacity="0.2" d="M1024.92 219.131C1024.31 216.917 1021.85 215.022 1019.69 216.652C1019.03 217.147 1018.59 217.89 1018.32 218.658C1018.11 219.282 1017.79 220.36 1018.16 220.982C1018.42 221.428 1018.56 220.984 1018.64 220.696C1018.82 220.039 1019.32 219.242 1020 219.028C1020.78 218.782 1021.32 219.294 1021.42 220.028C1021.55 220.949 1021.37 221.872 1020.96 222.699C1020.58 223.481 1020.1 224.109 1019.41 224.648C1019 224.972 1018.64 224.849 1018.25 224.571C1017.98 224.376 1017.67 224.303 1017.39 224.523C1016.8 224.985 1016.7 226.233 1016.62 226.929C1016.52 227.732 1016.64 228.533 1016.95 229.153C1017.41 230.065 1018.31 230.587 1019.65 230.149C1021.84 229.435 1023.42 227.437 1024.26 225.374C1024.27 225.354 1024.28 225.336 1024.29 225.314C1025.08 223.352 1025.49 221.21 1024.92 219.131Z" fill="#00B4FF"/>
<path opacity="0.1" d="M1025.72 216.474C1025.5 213.762 1024.51 210.287 1021.62 209.349C1020.87 209.106 1020.12 209.583 1020.07 210.365C1019.92 212.56 1018.46 214.363 1017.11 215.985C1014.97 218.555 1012.93 221.379 1013.11 224.907C1013.21 226.78 1014.03 228.57 1015.61 229.641C1017.02 230.602 1019.11 230.247 1020.44 229.298C1020.66 229.139 1021.1 228.834 1020.74 228.63C1020.47 228.48 1019.97 228.812 1019.74 228.905C1017.74 229.701 1015.93 227.979 1015.76 226.026C1015.44 222.232 1019.32 219.482 1021.09 216.566C1021.26 216.297 1021.43 215.75 1021.74 215.622C1022.17 215.448 1022.53 215.771 1022.76 216.082C1023.93 217.655 1024.43 219.683 1024.35 221.621C1024.33 221.994 1023.86 224.376 1024.71 223.521C1025.49 222.748 1025.57 221.392 1025.68 220.362C1025.81 219.071 1025.82 217.769 1025.72 216.474Z" fill="white"/>
<path opacity="0.2" d="M1025.4 212.1C1024.84 211.203 1024.06 210.353 1023.16 209.801C1022.75 209.554 1022.18 209.263 1021.69 209.32C1021.06 209.392 1021.12 210.005 1020.97 210.51C1020.62 211.79 1019.75 212.787 1018.81 213.69C1017.75 214.708 1016.72 215.709 1015.82 216.877C1014.22 218.942 1012.92 221.429 1013.35 224.119C1013.49 224.987 1013.78 225.924 1014.29 226.649C1014.44 226.857 1015.17 227.807 1015.16 227.052C1015.16 226.648 1014.87 226.247 1014.76 225.871C1013.91 222.922 1015.72 219.838 1017.84 217.911C1019.34 216.552 1021.28 215.577 1022.31 213.761C1022.49 213.437 1022.48 213.09 1022.92 213.185C1023.67 213.348 1024.39 214.523 1024.71 215.136C1025.46 216.6 1025.94 218.249 1025.83 219.906C1025.79 220.509 1026 220.431 1026.25 219.964C1026.41 219.675 1026.53 219.352 1026.63 219.038C1026.83 218.368 1026.97 217.663 1026.94 216.956C1026.88 215.29 1026.28 213.508 1025.4 212.1Z" fill="#FFF064"/>
<path opacity="0.2" d="M1023.32 206.716C1022.96 206.459 1022.47 206.005 1022 206.01C1021.54 206.012 1021.51 206.391 1021.38 206.729C1020.62 208.738 1018.99 210.399 1017.73 212.104C1015.65 214.919 1013.21 218.241 1013.13 221.888C1013.11 222.884 1013.32 224.002 1013.55 224.976C1013.67 225.497 1013.81 226 1014.09 226.448C1014.25 226.711 1014.94 227.823 1015.18 226.961C1015.26 226.658 1014.89 226.186 1014.82 225.89C1014.67 225.15 1014.69 224.381 1014.84 223.638C1015.12 222.145 1015.87 220.742 1016.82 219.559C1018.19 217.841 1019.89 216.361 1020.98 214.427C1021.42 213.654 1021.76 212.952 1021.94 212.079C1022.03 211.629 1022.03 210.858 1022.63 210.985C1023.29 211.124 1024.11 212.289 1024.47 212.798C1025 213.529 1025.42 214.34 1025.73 215.186C1026.08 216.149 1026.28 217.147 1026.29 218.064C1026.3 218.838 1026.77 218.459 1026.99 217.963C1028.6 214.284 1026.42 208.917 1023.32 206.716Z" fill="#D51E3C"/>
<path opacity="0.2" d="M963.732 213.04C962.934 211.522 962.06 209.946 961.49 208.323C961.132 207.306 960.304 205.044 958.864 205.959C958.253 206.349 957.741 207.397 957.292 207.968C954.144 211.96 950.898 217.122 952.244 222.413C952.878 224.903 954.102 227.269 956.212 228.806C958.393 230.395 961.312 230.808 963.518 229.1C965.526 227.547 966.781 224.594 966.704 222.051C966.614 218.976 965.155 215.756 963.732 213.04Z" fill="#4B669D"/>
<path opacity="0.1" d="M964.778 219.51C964.477 217.746 963.783 216.047 962.809 214.538C962.165 213.535 961.381 212.683 960.507 211.866C959.923 211.319 959.338 210.637 958.58 210.324C957.96 210.069 957.366 210.542 956.956 210.948C956.473 211.424 955.975 211.919 955.591 212.473C954.736 213.702 954.075 215.034 953.608 216.449C953.346 217.242 953.156 218.06 953.034 218.885C952.754 220.773 952.889 222.765 953.679 224.526C954.289 225.889 955.258 226.822 956.464 227.692C956.706 227.865 957.179 228.342 957.52 228.201C957.988 228.01 957.543 227.439 957.341 227.211C955.99 225.694 955.447 223.626 955.43 221.649C955.413 219.633 955.934 217.831 956.972 216.095C957.202 215.71 957.397 215.263 957.781 215.001C958.385 214.594 959.027 215.273 959.394 215.694C959.952 216.331 960.484 216.972 960.955 217.674C961.97 219.19 962.795 220.911 963.042 222.724C963.162 223.608 963.18 224.525 963.132 225.429C963.104 226 963.048 226.599 962.886 227.15C962.825 227.358 962.452 228.01 962.957 227.968C963.236 227.945 963.497 227.543 963.632 227.336C963.798 227.077 963.933 226.803 964.045 226.519C964.901 224.356 965.168 221.797 964.778 219.51Z" fill="white"/>
<path opacity="0.2" d="M964.626 218.408C963.849 216.397 962.362 214.722 960.804 213.274C960.003 212.53 959.105 211.726 958.476 210.824C958.027 210.178 957.722 208.675 956.692 208.885C956.062 209.012 955.554 209.533 955.159 210.008C954.324 211.01 953.702 212.182 953.293 213.419C953.06 214.13 952.3 216.264 952.855 216.89C953.147 216.645 953.162 216.242 953.314 215.911C953.899 214.647 954.903 212.317 956.391 211.892C956.968 211.726 956.884 212.245 957.032 212.694C957.582 214.381 958.845 215.363 960.18 216.431C961.892 217.798 963.623 219.219 964.21 221.432C964.271 221.663 964.303 222.351 964.527 222.476C965.044 222.759 965.087 221.885 965.112 221.575C965.204 220.495 965.015 219.415 964.626 218.408Z" fill="#FFF064"/>
<path opacity="0.2" d="M963.551 216.214C962.881 215.196 962.012 214.329 961.296 213.346C960.503 212.26 959.794 211.117 959.152 209.938C958.626 208.976 958.119 207.972 957.163 207.366C956.233 206.776 955.858 207.621 955.523 208.243C954.296 210.509 952.165 212.095 951.681 214.759C951.249 217.139 951.048 220.099 952.214 222.32C952.442 222.75 952.713 222.989 952.703 222.338C952.683 221.25 952.478 220.219 952.592 219.12C952.625 218.806 952.668 218.488 952.721 218.171C953.145 215.631 954.17 212.619 956.175 210.878C956.616 210.497 956.853 210.417 957.012 211.006C957.166 211.574 957.44 212.087 957.763 212.571C958.531 213.731 959.465 214.784 960.532 215.678C961.495 216.485 962.591 217.124 963.524 217.968C963.777 218.199 964.272 218.75 964.36 218.184C964.462 217.54 963.884 216.722 963.551 216.214Z" fill="#D51E3C"/>
<path opacity="0.2" d="M1009.88 207.968C1009.43 207.397 1008.92 206.349 1008.31 205.959C1006.87 205.044 1006.04 207.306 1005.68 208.323C1005.11 209.946 1004.24 211.522 1003.44 213.04C1002.01 215.756 1000.56 218.976 1000.46 222.05C1000.39 224.593 1001.64 227.545 1003.65 229.099C1005.86 230.807 1008.78 230.394 1010.96 228.805C1013.07 227.268 1014.29 224.902 1014.93 222.412C1016.27 217.122 1013.03 211.96 1009.88 207.968Z" fill="#4B669D"/>
<path opacity="0.1" d="M1014.14 218.885C1014.02 218.06 1013.83 217.242 1013.57 216.449C1013.1 215.034 1012.44 213.702 1011.58 212.473C1011.2 211.919 1010.7 211.424 1010.22 210.948C1009.81 210.543 1009.21 210.069 1008.59 210.324C1007.84 210.636 1007.25 211.318 1006.67 211.866C1005.79 212.683 1005.01 213.535 1004.36 214.537C1003.39 216.047 1002.7 217.747 1002.4 219.51C1002.01 221.797 1002.27 224.355 1003.13 226.518C1003.24 226.802 1003.37 227.076 1003.54 227.335C1003.68 227.543 1003.94 227.944 1004.22 227.967C1004.72 228.009 1004.35 227.356 1004.29 227.148C1004.13 226.598 1004.07 225.999 1004.04 225.428C1003.99 224.524 1004.01 223.606 1004.13 222.723C1004.38 220.909 1005.2 219.189 1006.22 217.673C1006.69 216.971 1007.22 216.33 1007.78 215.693C1008.15 215.272 1008.79 214.593 1009.39 215C1009.78 215.262 1009.97 215.71 1010.2 216.094C1011.24 217.828 1011.76 219.631 1011.74 221.648C1011.73 223.623 1011.18 225.692 1009.83 227.209C1009.63 227.438 1009.18 228.009 1009.65 228.2C1009.99 228.341 1010.47 227.864 1010.71 227.691C1011.91 226.822 1012.88 225.888 1013.49 224.525C1014.29 222.765 1014.42 220.773 1014.14 218.885Z" fill="white"/>
<path opacity="0.2" d="M1013.87 213.419C1013.47 212.181 1012.84 211.01 1012.01 210.008C1011.61 209.533 1011.11 209.013 1010.47 208.885C1009.45 208.676 1009.14 210.177 1008.69 210.824C1008.06 211.726 1007.16 212.53 1006.36 213.274C1004.8 214.721 1003.32 216.397 1002.54 218.408C1002.15 219.415 1001.96 220.494 1002.05 221.575C1002.08 221.884 1002.12 222.758 1002.64 222.475C1002.86 222.351 1002.89 221.662 1002.96 221.432C1003.54 219.219 1005.27 217.799 1006.99 216.431C1008.32 215.362 1009.58 214.381 1010.13 212.694C1010.28 212.246 1010.2 211.726 1010.77 211.892C1012.26 212.317 1013.27 214.647 1013.85 215.91C1014 216.242 1014.02 216.645 1014.31 216.89C1014.87 216.264 1014.11 214.13 1013.87 213.419Z" fill="#FFF064"/>
<path opacity="0.2" d="M1015.49 214.759C1015.01 212.095 1012.88 210.509 1011.65 208.243C1011.31 207.621 1010.94 206.776 1010.01 207.366C1009.06 207.972 1008.55 208.976 1008.02 209.938C1007.38 211.117 1006.67 212.261 1005.88 213.346C1005.16 214.329 1004.29 215.196 1003.62 216.214C1003.29 216.721 1002.71 217.539 1002.81 218.183C1002.9 218.749 1003.39 218.198 1003.65 217.967C1004.58 217.122 1005.68 216.483 1006.64 215.676C1007.71 214.783 1008.64 213.73 1009.41 212.57C1009.73 212.085 1010.01 211.573 1010.16 211.005C1010.32 210.416 1010.56 210.496 1011 210.877C1013.01 212.618 1014.03 215.63 1014.45 218.17C1014.51 218.487 1014.55 218.805 1014.58 219.119C1014.69 220.218 1014.49 221.249 1014.47 222.337C1014.46 222.988 1014.73 222.749 1014.96 222.319C1016.13 220.099 1015.93 217.139 1015.49 214.759Z" fill="#D51E3C"/>
<path opacity="0.2" d="M973.378 222.352C972.877 221.877 972.157 221.959 971.594 221.604C971.065 221.27 970.852 220.646 970.756 220.057C970.683 219.613 970.482 218.302 971.304 218.465C971.5 218.505 971.616 218.835 971.827 218.794C972.063 218.75 972.047 218.387 972.021 218.216C971.907 217.488 971.353 216.737 970.72 216.372C969.813 215.85 968.619 215.93 967.838 216.644C966.576 217.795 966.235 220.097 966.349 221.704C966.431 222.856 966.491 224.024 966.832 225.136C967.411 227.019 968.743 229.328 970.851 229.731C973.261 230.192 974.312 226.81 974.263 224.949C974.24 224.117 974.001 222.943 973.378 222.352Z" fill="#00B4FF"/>
<path opacity="0.1" d="M974.627 215.751C973.373 213.465 971.739 210.469 969.306 209.405C968.009 208.837 967.295 211.082 966.797 212.022C966.337 212.886 965.901 213.818 965.554 214.736C965.004 216.188 964.528 217.703 964.634 219.298C964.777 221.44 964.957 223.752 966.041 225.645C966.602 226.631 967.418 227.597 968.351 228.208C969.33 228.847 969.121 227.562 968.75 227.054C967.256 225.003 967.029 221.558 967.456 219.117C967.639 218.075 968.511 213.864 970.318 215.248C971.133 215.873 971.897 216.576 972.554 217.381C974.016 219.171 975.56 221.268 975.399 223.754C975.386 223.968 975.222 225.533 975.684 224.598C976.116 223.725 976.283 222.705 976.267 221.641C976.233 219.56 975.491 217.326 974.627 215.751Z" fill="white"/>
<path opacity="0.2" d="M973.013 213.997C972.081 213.188 971.284 212.302 970.49 211.344C970.253 211.058 970.041 210.746 969.781 210.482C969.531 210.226 969.389 210.005 969.011 210.038C968.758 210.062 968.55 210.21 968.381 210.398C968.002 210.807 967.815 211.368 967.518 211.838C966.714 213.113 965.99 214.308 965.57 215.796C965.396 216.422 965.225 217.064 965.174 217.715C965.16 217.906 965.082 218.34 965.216 218.501C965.47 218.801 965.501 218.299 965.517 218.122C965.686 216.287 966.737 214.449 967.97 213.196C968.14 213.023 968.523 212.572 968.771 212.546C969.074 212.518 969.233 212.984 969.332 213.21C969.491 213.567 969.679 213.873 969.95 214.154C970.571 214.797 971.401 215.148 972.138 215.609C973.033 216.161 973.861 216.924 974.496 217.788C975.146 218.673 975.645 219.697 975.813 220.804C975.836 220.958 975.763 221.575 976.108 221.338C976.336 221.182 976.252 220.482 976.247 220.242C976.225 219.006 975.822 217.75 975.305 216.642C974.79 215.541 973.898 214.766 973.013 213.997Z" fill="#FFF064"/>
<path opacity="0.2" d="M975.514 215.711C975.185 214.943 974.759 214.215 974.273 213.537C972.991 211.749 971.368 210.215 970.182 208.361C969.824 207.798 969.433 206.841 968.668 206.773C967.561 206.68 966.9 208.281 966.47 209.062C965.395 211.007 964.622 213.017 964.517 215.262C964.473 216.175 964.432 217.101 964.563 218.009C964.601 218.277 964.825 219.759 965.242 219.74C965.576 219.724 965.363 218.893 965.355 218.653C965.291 217.064 965.824 215.509 966.601 214.144C966.952 213.522 968.056 211.454 968.968 211.444C969.605 211.436 970.016 212.478 970.32 212.939C971.436 214.644 973.633 214.971 974.89 216.471C975.27 216.921 975.427 217.652 975.999 217.909C976.269 217.323 975.748 216.262 975.514 215.711Z" fill="#D51E3C"/>
<path opacity="0.2" d="M999.331 216.645C998.548 215.929 997.357 215.85 996.45 216.373C995.815 216.738 995.263 217.489 995.148 218.216C995.121 218.387 995.106 218.751 995.342 218.794C995.552 218.835 995.669 218.506 995.864 218.466C996.686 218.303 996.487 219.613 996.412 220.057C996.315 220.645 996.105 221.271 995.576 221.605C995.011 221.959 994.291 221.877 993.789 222.352C993.168 222.943 992.929 224.119 992.906 224.95C992.856 226.811 993.909 230.193 996.318 229.731C998.426 229.33 999.757 227.02 1000.34 225.136C1000.68 224.025 1000.74 222.857 1000.82 221.704C1000.93 220.097 1000.59 217.796 999.331 216.645Z" fill="#00B4FF"/>
<path opacity="0.1" d="M1001.62 214.736C1001.27 213.819 1000.83 212.886 1000.37 212.022C999.874 211.081 999.159 208.837 997.864 209.405C995.43 210.469 993.794 213.465 992.542 215.751C991.677 217.327 990.937 219.562 990.902 221.641C990.885 222.705 991.053 223.725 991.484 224.598C991.945 225.534 991.782 223.969 991.768 223.754C991.608 221.269 993.152 219.171 994.613 217.381C995.271 216.576 996.033 215.873 996.85 215.248C998.658 213.864 999.528 218.075 999.711 219.117C1000.14 221.558 999.912 225.004 998.418 227.054C998.048 227.562 997.839 228.847 998.816 228.208C999.749 227.597 1000.57 226.631 1001.13 225.645C1002.21 223.752 1002.39 221.44 1002.53 219.298C1002.64 217.703 1002.17 216.188 1001.62 214.736Z" fill="white"/>
<path opacity="0.2" d="M1002 217.717C1001.95 217.064 1001.78 216.423 1001.61 215.798C1001.18 214.308 1000.46 213.115 999.655 211.839C999.359 211.37 999.171 210.809 998.795 210.4C998.624 210.212 998.417 210.064 998.165 210.04C997.785 210.008 997.642 210.228 997.393 210.484C997.134 210.748 996.921 211.061 996.684 211.346C995.89 212.303 995.094 213.189 994.161 213.999C993.276 214.766 992.385 215.543 991.873 216.643C991.357 217.751 990.951 219.006 990.931 220.243C990.927 220.483 990.842 221.184 991.07 221.339C991.416 221.575 991.342 220.957 991.366 220.804C991.531 219.697 992.03 218.674 992.68 217.789C993.318 216.925 994.145 216.162 995.038 215.609C995.777 215.15 996.606 214.798 997.229 214.155C997.499 213.873 997.687 213.568 997.845 213.21C997.944 212.985 998.102 212.519 998.407 212.547C998.656 212.571 999.038 213.024 999.206 213.197C1000.44 214.451 1001.49 216.288 1001.66 218.123C1001.68 218.3 1001.71 218.8 1001.96 218.502C1002.09 218.342 1002.01 217.907 1002 217.717Z" fill="#FFF064"/>
<path opacity="0.2" d="M1002.66 215.261C1002.55 213.018 1001.78 211.007 1000.7 209.061C1000.27 208.282 999.611 206.681 998.504 206.773C997.738 206.841 997.35 207.798 996.991 208.36C995.807 210.215 994.182 211.749 992.901 213.537C992.415 214.214 991.989 214.943 991.661 215.711C991.427 216.262 990.906 217.323 991.175 217.906C991.747 217.649 991.906 216.917 992.283 216.467C993.541 214.968 995.736 214.641 996.855 212.936C997.157 212.474 997.569 211.434 998.207 211.441C999.119 211.451 1000.22 213.519 1000.57 214.14C1001.35 215.505 1001.88 217.062 1001.82 218.65C1001.81 218.891 1001.6 219.721 1001.93 219.737C1002.35 219.757 1002.57 218.275 1002.61 218.005C1002.74 217.1 1002.7 216.175 1002.66 215.261Z" fill="#D51E3C"/>
<path opacity="0.2" d="M963.009 224.302C962.57 223.855 962.399 224.214 962.238 224.654C962.099 225.029 961.97 225.464 961.688 225.511C961.117 225.611 960.771 224.784 960.588 224.407C960.132 223.468 959.792 222.299 959.716 221.257C959.666 220.548 959.472 219.252 960.309 218.861C960.459 218.792 960.584 218.774 960.69 218.793C961.043 218.861 961.169 219.354 961.147 219.74C961.133 219.996 961.012 220.386 961.071 220.633C961.17 221.049 961.414 220.873 961.546 220.547C962.031 219.347 961.842 217.588 960.736 216.76C959.706 215.989 958.367 215.776 957.286 216.578C955.916 217.592 955.533 219.403 955.526 220.992C955.516 222.901 956.028 224.703 956.848 226.422C957.587 227.972 959.027 229.97 961.045 229.747C962.197 229.619 962.828 228.718 963.115 227.7C963.343 226.89 963.669 224.978 963.009 224.302Z" fill="#00B4FF"/>
<path opacity="0.2" d="M1009.88 216.58C1008.8 215.778 1007.46 215.991 1006.43 216.762C1005.33 217.59 1005.14 219.349 1005.63 220.549C1005.76 220.875 1006 221.051 1006.1 220.635C1006.16 220.388 1006.04 219.999 1006.02 219.742C1006 219.356 1006.13 218.863 1006.48 218.795C1006.59 218.775 1006.71 218.794 1006.86 218.863C1007.7 219.256 1007.5 220.55 1007.45 221.259C1007.38 222.3 1007.04 223.47 1006.58 224.409C1006.4 224.786 1006.05 225.613 1005.48 225.513C1005.2 225.466 1005.07 225.03 1004.93 224.656C1004.77 224.216 1004.6 223.856 1004.16 224.304C1003.5 224.979 1003.83 226.892 1004.06 227.702C1004.34 228.72 1004.97 229.62 1006.13 229.749C1008.14 229.972 1009.59 227.974 1010.32 226.424C1011.14 224.704 1011.66 222.902 1011.65 220.994C1011.64 219.404 1011.26 217.594 1009.88 216.58Z" fill="#00B4FF"/>
<path opacity="0.2" d="M987.619 222.86C987.509 222.158 987.334 221.467 987.07 220.819C986.453 219.311 985.598 217.992 985.163 216.396C984.901 215.436 983.884 216.159 983.466 216.639C982.635 217.589 982.1 219.039 982.027 220.354C981.99 221.061 982.119 221.717 981.811 222.375C981.464 222.436 981.337 222.191 981.058 222.47C980.385 223.149 980.558 224.386 980.694 225.261C980.737 225.54 980.797 225.816 980.874 226.077C981.287 227.507 981.984 228.876 983.348 229.375C984.531 229.808 986.243 229.252 986.947 228.036C987.806 226.552 987.881 224.549 987.619 222.86Z" fill="#00B4FF"/>
<path opacity="0.1" d="M985.522 210.798C985.371 210.572 985.111 210.314 984.836 210.311C984.441 210.302 984.188 210.835 983.948 211.113C983.053 212.145 981.927 212.899 981.065 213.976C978.566 217.095 976.944 221.812 979.089 225.672C979.299 226.054 980.28 227.284 980.54 226.349C980.613 226.088 980.19 225.074 980.149 224.75C980.062 224.047 980.044 223.354 980.088 222.676C980.28 219.661 981.786 217.3 983.546 215.115C983.853 214.731 984.575 213.806 985.111 213.832C986.124 213.884 987.026 216.152 987.289 217.044C987.332 217.189 987.489 218.485 987.745 218.285C987.953 218.124 987.966 217.161 987.979 216.936C988.116 214.427 986.785 212.695 985.522 210.798Z" fill="white"/>
<path opacity="0.2" d="M987.531 211.521C986.796 210.538 984.429 207.72 983.254 209.506C982.856 210.112 982.515 210.742 982.046 211.288C980.619 212.956 978.789 214.683 978.471 217.088C978.412 217.522 978.258 218.911 978.767 219.13C979.166 219.303 978.962 218.829 978.943 218.602C978.908 218.17 978.993 217.76 979.141 217.356C979.57 216.189 980.469 215.38 981.336 214.613C981.78 214.219 982.235 213.835 982.636 213.386C983.028 212.947 983.445 211.987 984.182 212.079C984.893 212.166 985.944 213.193 986.424 213.689C987.444 214.742 988.328 216.346 988.544 217.803C988.678 218.705 988.604 219.631 988.462 220.528C988.424 220.775 988.098 221.357 988.247 221.587C988.488 221.964 988.883 221.271 989.036 221.032C989.524 220.262 989.835 219.328 989.943 218.373C990.223 215.888 988.98 213.454 987.531 211.521Z" fill="#FFF064"/>
<path opacity="0.2" d="M990.226 215.779C990.226 215.312 990.156 214.845 990.003 214.403C989.019 211.569 986.725 209.62 985.342 207.025C985.152 206.67 985.037 206.288 984.57 206.301C984.027 206.318 983.634 206.779 983.285 207.142C982.782 207.663 982.3 208.208 981.828 208.752C980.075 210.771 978.171 213.195 978.164 216.007C978.164 216.236 978.187 216.587 978.373 216.726C978.708 216.375 978.835 215.632 979.076 215.192C979.402 214.599 979.778 214.025 980.213 213.503C980.738 212.868 981.374 212.348 982.03 211.853C982.534 211.475 983.141 210.868 983.802 210.809C984.384 210.755 984.974 211.569 985.343 211.907C985.896 212.416 986.315 213.046 986.862 213.559C987.406 214.068 988.022 214.498 988.549 215.028C988.897 215.382 989.21 215.776 989.404 216.237C989.484 216.426 989.749 217.493 990.048 217.144C990.256 216.901 990.226 216.09 990.226 215.779Z" fill="#D51E3C"/>
<path opacity="0.05" d="M978.267 129.166C987.906 129.166 995.72 121.351 995.72 111.712C995.72 102.072 987.906 94.2578 978.267 94.2578C968.627 94.2578 960.812 102.072 960.812 111.712C960.812 121.351 968.627 129.166 978.267 129.166Z" fill="#4B6696"/>
<path opacity="0.02" d="M1134.62 285.519C1144.26 285.519 1152.08 277.705 1152.08 268.065C1152.08 258.426 1144.26 250.611 1134.62 250.611C1124.98 250.611 1117.17 258.426 1117.17 268.065C1117.17 277.705 1124.98 285.519 1134.62 285.519Z" fill="#4B6696"/>
<path opacity="0.02" d="M821.911 285.519C831.551 285.519 839.365 277.705 839.365 268.065C839.365 258.426 831.551 250.611 821.911 250.611C812.271 250.611 804.457 258.426 804.457 268.065C804.457 277.705 812.271 285.519 821.911 285.519Z" fill="#4B6696"/>
<path opacity="0.03" d="M867.708 174.961C877.347 174.961 885.162 167.146 885.162 157.507C885.162 147.867 877.347 140.053 867.708 140.053C858.068 140.053 850.254 147.867 850.254 157.507C850.254 167.146 858.068 174.961 867.708 174.961Z" fill="#4B6696"/>
<path opacity="0.07" d="M1088.82 174.959C1098.46 174.959 1106.28 167.145 1106.28 157.506C1106.28 147.867 1098.46 140.053 1088.82 140.053C1079.19 140.053 1071.37 147.867 1071.37 157.506C1071.37 167.145 1079.19 174.959 1088.82 174.959Z" fill="#4B6696"/>
<path opacity="0.04" d="M917.802 141.328C927.441 141.328 935.256 133.513 935.256 123.874C935.256 114.234 927.441 106.42 917.802 106.42C908.162 106.42 900.348 114.234 900.348 123.874C900.348 133.513 908.162 141.328 917.802 141.328Z" fill="#4B6696"/>
<path opacity="0.05" d="M1122.46 225.052C1132.1 225.052 1139.91 217.239 1139.91 207.599C1139.91 197.96 1132.1 190.146 1122.46 190.146C1112.82 190.146 1105 197.96 1105 207.599C1105 217.239 1112.82 225.052 1122.46 225.052Z" fill="#4B6696"/>
<path opacity="0.02" d="M833.552 226.316C843.191 226.316 851.006 218.502 851.006 208.862C851.006 199.223 843.191 191.408 833.552 191.408C823.912 191.408 816.098 199.223 816.098 208.862C816.098 218.502 823.912 226.316 833.552 226.316Z" fill="#4B6696"/>
<path opacity="0.07" d="M1037.47 140.806C1047.11 140.806 1054.92 132.992 1054.92 123.352C1054.92 113.713 1047.11 105.898 1037.47 105.898C1027.83 105.898 1020.01 113.713 1020.01 123.352C1020.01 132.992 1027.83 140.806 1037.47 140.806Z" fill="#4B6696"/>
<path opacity="0.05" d="M978.265 54.3106C992.994 54.3106 1004.93 42.3705 1004.93 27.6417C1004.93 12.9128 992.994 0.972656 978.265 0.972656C963.536 0.972656 951.596 12.9128 951.596 27.6417C951.596 42.3705 963.536 54.3106 978.265 54.3106Z" fill="url(#paint9_linear)"/>
<path opacity="0.02" d="M1217.17 293.219C1231.9 293.219 1243.84 281.279 1243.84 266.55C1243.84 251.821 1231.9 239.881 1217.17 239.881C1202.45 239.881 1190.51 251.821 1190.51 266.55C1190.51 281.279 1202.45 293.219 1217.17 293.219Z" fill="url(#paint10_linear)"/>
<path opacity="0.02" d="M739.357 293.219C754.085 293.219 766.025 281.279 766.025 266.55C766.025 251.821 754.085 239.881 739.357 239.881C724.628 239.881 712.688 251.821 712.688 266.55C712.688 281.279 724.628 293.219 739.357 293.219Z" fill="#4B6696"/>
<path opacity="0.04" d="M809.333 124.285C824.062 124.285 836.002 112.345 836.002 97.6163C836.002 82.8874 824.062 70.9473 809.333 70.9473C794.604 70.9473 782.664 82.8874 782.664 97.6163C782.664 112.345 794.604 124.285 809.333 124.285Z" fill="#4B6696"/>
<path opacity="0.05" d="M1147.2 124.285C1161.93 124.285 1173.87 112.345 1173.87 97.6163C1173.87 82.8874 1161.93 70.9473 1147.2 70.9473C1132.47 70.9473 1120.53 82.8874 1120.53 97.6163C1120.53 112.345 1132.47 124.285 1147.2 124.285Z" fill="url(#paint11_linear)"/>
<path opacity="0.03" d="M885.876 72.8966C900.605 72.8966 912.545 60.9565 912.545 46.2276C912.545 31.4987 900.605 19.5586 885.876 19.5586C871.147 19.5586 859.207 31.4987 859.207 46.2276C859.207 60.9565 871.147 72.8966 885.876 72.8966Z" fill="#4B6696"/>
<path opacity="0.03" d="M1198.59 200.83C1213.32 200.83 1225.26 188.89 1225.26 174.161C1225.26 159.432 1213.32 147.492 1198.59 147.492C1183.86 147.492 1171.92 159.432 1171.92 174.161C1171.92 188.89 1183.86 200.83 1198.59 200.83Z" fill="url(#paint12_linear)"/>
<path opacity="0.03" d="M757.144 202.756C771.872 202.756 783.813 190.816 783.813 176.087C783.813 161.358 771.872 149.418 757.144 149.418C742.415 149.418 730.475 161.358 730.475 176.087C730.475 190.816 742.415 202.756 757.144 202.756Z" fill="#4B6696"/>
<path opacity="0.05" d="M1068.73 72.0978C1083.46 72.0978 1095.4 60.1577 1095.4 45.4288C1095.4 30.6999 1083.46 18.7598 1068.73 18.7598C1054 18.7598 1042.06 30.6999 1042.06 45.4288C1042.06 60.1577 1054 72.0978 1068.73 72.0978Z" fill="url(#paint13_linear)"/>
<path opacity="0.08" d="M940.163 97.9977C952.125 97.9977 961.822 88.3006 961.822 76.3387C961.822 64.3767 952.125 54.6797 940.163 54.6797C928.201 54.6797 918.504 64.3767 918.504 76.3387C918.504 88.3006 928.201 97.9977 940.163 97.9977Z" fill="#4B6696"/>
<path opacity="0.05" d="M1168.64 249.941C1180.6 249.941 1190.3 240.244 1190.3 228.283C1190.3 216.322 1180.6 206.625 1168.64 206.625C1156.68 206.625 1146.98 216.322 1146.98 228.283C1146.98 240.244 1156.68 249.941 1168.64 249.941Z" fill="#4B6696"/>
<path opacity="0.04" d="M828.866 141.076C838.826 147.698 841.529 161.143 834.906 171.103C828.281 181.064 814.838 183.769 804.879 177.145C794.918 170.521 792.213 157.078 798.838 147.117C805.459 137.156 818.904 134.451 828.866 141.076Z" fill="#4B6696"/>
<path opacity="0.1" d="M1085.87 126.65C1097.83 126.65 1107.53 116.953 1107.53 104.992C1107.53 93.0306 1097.83 83.334 1085.87 83.334C1073.91 83.334 1064.21 93.0306 1064.21 104.992C1064.21 116.953 1073.91 126.65 1085.87 126.65Z" fill="#4B6696"/>
<path opacity="0.06" d="M869.583 127.595C881.545 127.595 891.242 117.898 891.242 105.936C891.242 93.9744 881.545 84.2773 869.583 84.2773C857.621 84.2773 847.924 93.9744 847.924 105.936C847.924 117.898 857.621 127.595 869.583 127.595Z" fill="#4B6696"/>
<path opacity="0.07" d="M1139.04 179.361C1151 179.361 1160.7 169.664 1160.7 157.703C1160.7 145.742 1151 136.045 1139.04 136.045C1127.08 136.045 1117.38 145.742 1117.38 157.703C1117.38 169.664 1127.08 179.361 1139.04 179.361Z" fill="#4B6696"/>
<path opacity="0.02" d="M787.889 251.605C799.851 251.605 809.548 241.908 809.548 229.946C809.548 217.984 799.851 208.287 787.889 208.287C775.928 208.287 766.23 217.984 766.23 229.946C766.23 241.908 775.928 251.605 787.889 251.605Z" fill="#4B6696"/>
<path opacity="0.1" d="M1015.03 97.6715C1027 97.6715 1036.69 87.9744 1036.69 76.0125C1036.69 64.0506 1027 54.3535 1015.03 54.3535C1003.07 54.3535 993.375 64.0506 993.375 76.0125C993.375 87.9744 1003.07 97.6715 1015.03 97.6715Z" fill="#4B6696"/>
<path opacity="0.05" d="M953.001 154.779C960.933 154.779 967.363 148.349 967.363 140.417C967.363 132.485 960.933 126.055 953.001 126.055C945.069 126.055 938.639 132.485 938.639 140.417C938.639 148.349 945.069 154.779 953.001 154.779Z" fill="#4B6696"/>
<path opacity="0.05" d="M1104.51 255.536C1112.44 255.536 1118.87 249.106 1118.87 241.174C1118.87 233.243 1112.44 226.812 1104.51 226.812C1096.58 226.812 1090.15 233.243 1090.15 241.174C1090.15 249.106 1096.58 255.536 1104.51 255.536Z" fill="#4B6696"/>
<path opacity="0.03" d="M871.243 209.665C879.175 209.665 885.605 203.235 885.605 195.303C885.605 187.371 879.175 180.941 871.243 180.941C863.311 180.941 856.881 187.371 856.881 195.303C856.881 203.235 863.311 209.665 871.243 209.665Z" fill="#4B6696"/>
<path opacity="0.05" d="M1061.58 167.37C1057.19 173.974 1048.27 175.767 1041.67 171.376C1035.06 166.983 1033.27 158.069 1037.66 151.465C1042.05 144.858 1050.97 143.065 1057.57 147.457C1064.18 151.85 1065.97 160.764 1061.58 167.37Z" fill="#4B6696"/>
<path opacity="0.04" d="M906.198 174.406C914.13 174.406 920.56 167.976 920.56 160.044C920.56 152.112 914.13 145.682 906.198 145.682C898.266 145.682 891.836 152.112 891.836 160.044C891.836 167.976 898.266 174.406 906.198 174.406Z" fill="#4B6696"/>
<path opacity="0.05" d="M1084.88 208.732C1092.81 208.732 1099.24 202.302 1099.24 194.37C1099.24 186.438 1092.81 180.008 1084.88 180.008C1076.95 180.008 1070.52 186.438 1070.52 194.37C1070.52 202.302 1076.95 208.732 1084.88 208.732Z" fill="#4B6696"/>
<path opacity="0.02" d="M852.025 256.638C859.958 256.638 866.388 250.208 866.388 242.275C866.388 234.343 859.958 227.912 852.025 227.912C844.093 227.912 837.662 234.343 837.662 242.275C837.662 250.208 844.093 256.638 852.025 256.638Z" fill="#4B6696"/>
<path opacity="0.05" d="M1002.65 154.562C1010.58 154.562 1017.01 148.132 1017.01 140.2C1017.01 132.268 1010.58 125.838 1002.65 125.838C994.715 125.838 988.285 132.268 988.285 140.2C988.285 148.132 994.715 154.562 1002.65 154.562Z" fill="#4B6696"/>
<path opacity="0.02" d="M1118.49 53.4606C1133.13 63.1926 1152.88 59.2206 1162.61 44.5856C1172.34 29.9506 1168.37 10.2006 1153.73 0.469607C1139.1 -9.26339 1119.35 -5.29142 1109.62 9.34558C1099.89 23.9776 1103.86 43.7296 1118.49 53.4606Z" fill="url(#paint14_linear)"/>
<path opacity="0.02" d="M1232.09 130.748C1246.64 120.892 1250.44 101.108 1240.58 86.558C1230.72 72.009 1210.94 68.21 1196.39 78.068C1181.84 87.93 1178.04 107.714 1187.9 122.261C1197.76 136.809 1217.54 140.61 1232.09 130.748Z" fill="url(#paint15_linear)"/>
<path opacity="0.02" d="M1026.04 15.6385C1043.3 18.9545 1059.98 7.65153 1063.29 -9.60647C1066.61 -26.8675 1055.31 -43.5435 1038.05 -46.8575C1020.79 -50.1755 1004.11 -38.8725 1000.8 -21.6135C997.48 -4.35549 1008.78 12.3245 1026.04 15.6385Z" fill="url(#paint16_linear)"/>
</g>
<defs>
<radialGradient id="paint0_radial" cx="0" cy="0" r="1" gradientUnits="userSpaceOnUse" gradientTransform="translate(898.878 307.689) scale(456.22)">
<stop offset="0.618394" stop-color="#334163"/>
<stop offset="0.8032" stop-color="#D51E3C" stop-opacity="0.8"/>
<stop offset="0.9495" stop-color="#FF9827"/>
</radialGradient>
<radialGradient id="paint1_radial" cx="0" cy="0" r="1" gradientUnits="userSpaceOnUse" gradientTransform="translate(983.589 266.334) scale(166.561 165.353)">
<stop stop-color="#212A3F"/>
<stop offset="1" stop-color="#334163" stop-opacity="0.7"/>
</radialGradient>
<linearGradient id="paint2_linear" x1="927.972" y1="233.93" x2="1039.2" y2="233.93" gradientUnits="userSpaceOnUse">
<stop stop-color="#212A3F" stop-opacity="0.8"/>
<stop offset="0.5" stop-color="#212A3F"/>
<stop offset="1" stop-color="#212A3F" stop-opacity="0.8"/>
</linearGradient>
<linearGradient id="paint3_linear" x1="927.972" y1="236.997" x2="1039.2" y2="236.997" gradientUnits="userSpaceOnUse">
<stop stop-color="#36456B" stop-opacity="0.8"/>
<stop offset="0.5" stop-color="#4B6696" stop-opacity="0.87"/>
<stop offset="1" stop-color="#36456B" stop-opacity="0.8"/>
</linearGradient>
<linearGradient id="paint4_linear" x1="928.905" y1="222.966" x2="1038.27" y2="222.966" gradientUnits="userSpaceOnUse">
<stop stop-color="#212A3F" stop-opacity="0.8"/>
<stop offset="0.5" stop-color="#334163" stop-opacity="0.6"/>
<stop offset="1" stop-color="#212A3F" stop-opacity="0.8"/>
</linearGradient>
<linearGradient id="paint5_linear" x1="928.905" y1="222.966" x2="1038.27" y2="222.966" gradientUnits="userSpaceOnUse">
<stop stop-color="#212A3F" stop-opacity="0.8"/>
<stop offset="0.5" stop-color="#334163" stop-opacity="0.6"/>
<stop offset="1" stop-color="#212A3F" stop-opacity="0.8"/>
</linearGradient>
<linearGradient id="paint6_linear" x1="902.424" y1="249.951" x2="1064.75" y2="249.951" gradientUnits="userSpaceOnUse">
<stop stop-color="#3A4B74"/>
<stop offset="0.5" stop-color="#425584"/>
<stop offset="1" stop-color="#394972" stop-opacity="0.8"/>
</linearGradient>
<linearGradient id="paint7_linear" x1="983.589" y1="265.933" x2="983.589" y2="233.259" gradientUnits="userSpaceOnUse">
<stop stop-color="#334163"/>
<stop offset="0.2451" stop-color="#303D5D"/>
<stop offset="1" stop-color="#27334C"/>
</linearGradient>
<linearGradient id="paint8_linear" x1="983.587" y1="259.247" x2="983.587" y2="235.014" gradientUnits="userSpaceOnUse">
<stop stop-color="#334163"/>
<stop offset="0.5007" stop-color="#3A4D76" stop-opacity="0.4993"/>
<stop offset="1" stop-color="#405684" stop-opacity="0"/>
</linearGradient>
<linearGradient id="paint9_linear" x1="963.953" y1="21.9867" x2="1453.29" y2="215.32" gradientUnits="userSpaceOnUse">
<stop stop-color="#D51E3C"/>
<stop offset="1" stop-color="#FFF064"/>
</linearGradient>
<linearGradient id="paint10_linear" x1="914.564" y1="146.991" x2="1403.9" y2="340.324" gradientUnits="userSpaceOnUse">
<stop stop-color="#D51E3C"/>
<stop offset="1" stop-color="#FFF064"/>
</linearGradient>
<linearGradient id="paint11_linear" x1="962.849" y1="24.7803" x2="1452.18" y2="218.114" gradientUnits="userSpaceOnUse">
<stop stop-color="#D51E3C"/>
<stop offset="1" stop-color="#FFF064"/>
</linearGradient>
<linearGradient id="paint12_linear" x1="943.629" y1="73.4296" x2="1432.96" y2="266.763" gradientUnits="userSpaceOnUse">
<stop stop-color="#D51E3C"/>
<stop offset="1" stop-color="#FFF064"/>
</linearGradient>
<linearGradient id="paint13_linear" x1="970.089" y1="6.45646" x2="1459.42" y2="199.79" gradientUnits="userSpaceOnUse">
<stop stop-color="#D51E3C"/>
<stop offset="1" stop-color="#FFF064"/>
</linearGradient>
<linearGradient id="paint14_linear" x1="1244.51" y1="334.582" x2="1133.52" y2="19.593" gradientUnits="userSpaceOnUse">
<stop stop-color="#D51E3C"/>
<stop offset="1" stop-color="#FFF064"/>
</linearGradient>
<linearGradient id="paint15_linear" x1="1289.73" y1="318.651" x2="1178.73" y2="3.657" gradientUnits="userSpaceOnUse">
<stop stop-color="#D51E3C"/>
<stop offset="1" stop-color="#FFF064"/>
</linearGradient>
<linearGradient id="paint16_linear" x1="1165.28" y1="362.491" x2="1054.29" y2="47.5119" gradientUnits="userSpaceOnUse">
<stop stop-color="#D51E3C"/>
<stop offset="1" stop-color="#FFF064"/>
</linearGradient>
</defs>
</svg>
