<svg width="1210" height="880" viewBox="0 0 1210 880" fill="none" xmlns="http://www.w3.org/2000/svg">
<mask id="mask0" mask-type="alpha" maskUnits="userSpaceOnUse" x="0" y="0" width="1210" height="880">
<path d="M1210 0H0V880H1210V0Z" fill="#334163"/>
</mask>
<g mask="url(#mask0)">
<path opacity="0.2" d="M899.695 0C1071.08 0.0241951 1210 138.963 1210 310.348V0H899.695Z" fill="url(#paint0_radial)"/>
<path opacity="0.7" d="M983.587 101.549C892.137 101.549 818 175.147 818 265.934H1149.17C1149.17 175.145 1075.04 101.549 983.587 101.549Z" fill="url(#paint1_radial)"/>
<path opacity="0.3" d="M1038.3 234.139C1038.28 233.809 1037.99 233.538 1037.66 233.538H1035.52C1034.85 233.538 1034.31 232.997 1034.31 232.335V228.443V226.036C1034.31 225.373 1034.85 224.832 1035.52 224.832H1037.06C1037.72 224.832 1038.27 224.29 1038.27 223.628V222.304C1038.27 221.642 1037.72 221.102 1037.06 221.102H930.105C929.443 221.102 928.902 221.642 928.902 222.304V223.628C928.902 224.29 929.443 224.832 930.105 224.832H931.652C932.313 224.832 932.856 225.373 932.856 226.036V228.443V232.335C932.856 232.997 932.313 233.538 931.652 233.538H929.505C929.173 233.538 928.885 233.809 928.866 234.139L927.97 246.157C927.949 246.488 928.204 246.758 928.536 246.758H1038.63C1038.96 246.758 1039.22 246.488 1039.2 246.157L1038.3 234.139Z" fill="url(#paint2_linear)"/>
<path d="M1038.3 234.138C1038.28 233.808 1037.99 233.537 1037.66 233.537H1035.52C1034.85 233.537 1034.31 232.996 1034.31 232.334V228.442C1034.31 227.781 1033.77 227.239 1033.11 227.239H1031.79C1031.12 227.239 1030.58 227.781 1030.58 228.442V232.334C1030.58 232.996 1030.04 233.537 1029.38 233.537H1024.66C1024 233.537 1023.45 232.996 1023.45 232.334V228.442C1023.45 227.781 1022.91 227.239 1022.25 227.239H1020.93C1020.27 227.239 1019.72 227.781 1019.72 228.442V232.334C1019.72 232.996 1019.18 233.537 1018.52 233.537H1013.8C1013.14 233.537 1012.6 232.996 1012.6 232.334V228.442C1012.6 227.781 1012.05 227.238 1011.39 227.238H1010.07C1009.41 227.238 1008.87 227.781 1008.87 228.442V232.334C1008.87 232.996 1008.32 233.537 1007.66 233.537H1002.94C1002.28 233.537 1001.74 232.996 1001.74 232.334V228.442C1001.74 227.781 1001.2 227.239 1000.53 227.239H999.212C998.548 227.239 998.007 227.781 998.007 228.442V232.334C998.007 232.996 997.466 233.537 996.803 233.537H992.083C991.421 233.537 990.879 232.996 990.879 232.334V228.442C990.879 227.781 990.337 227.239 989.675 227.239H988.352C987.69 227.239 987.149 227.781 987.149 228.442V232.334C987.149 232.996 986.607 233.537 985.945 233.537H983.585H981.224C980.562 233.537 980.02 232.996 980.02 232.334V228.442C980.02 227.781 979.479 227.239 978.817 227.239H977.494C976.832 227.239 976.29 227.781 976.29 228.442V232.334C976.29 232.996 975.748 233.537 975.086 233.537H970.365C969.703 233.537 969.162 232.996 969.162 232.334V228.442C969.162 227.781 968.62 227.239 967.959 227.239H966.635C965.972 227.239 965.431 227.781 965.431 228.442V232.334C965.431 232.996 964.89 233.537 964.227 233.537H959.506C958.844 233.537 958.301 232.996 958.301 232.334V228.442C958.301 227.781 957.76 227.238 957.098 227.238H955.777C955.114 227.238 954.572 227.781 954.572 228.442V232.334C954.572 232.996 954.031 233.537 953.369 233.537H948.649C947.986 233.537 947.445 232.996 947.445 232.334V228.442C947.445 227.781 946.903 227.239 946.241 227.239H944.918C944.255 227.239 943.714 227.781 943.714 228.442V232.334C943.714 232.996 943.173 233.537 942.511 233.537H937.789C937.127 233.537 936.586 232.996 936.586 232.334V228.442C936.586 227.781 936.044 227.239 935.382 227.239H934.059C933.397 227.239 932.856 227.781 932.856 228.442V232.334C932.856 232.996 932.313 233.537 931.652 233.537H929.505C929.173 233.537 928.885 233.808 928.866 234.138L927.97 246.156C927.949 246.487 928.204 246.757 928.536 246.757H983.585H1038.63C1038.96 246.757 1039.22 246.487 1039.2 246.156L1038.3 234.138Z" fill="url(#paint3_linear)"/>
<path d="M1038.27 223.628C1038.27 224.29 1037.72 224.832 1037.06 224.832H930.106C929.444 224.832 928.902 224.29 928.902 223.628V222.304C928.902 221.642 929.444 221.102 930.106 221.102H1037.06C1037.72 221.102 1038.27 221.642 1038.27 222.304V223.628Z" fill="url(#paint4_linear)"/>
<path d="M1038.27 223.628C1038.27 224.29 1037.72 224.832 1037.06 224.832H930.106C929.444 224.832 928.902 224.29 928.902 223.628V222.304C928.902 221.642 929.444 221.102 930.106 221.102H1037.06C1037.72 221.102 1038.27 221.642 1038.27 222.304V223.628Z" fill="url(#paint5_linear)"/>
<path d="M1049.01 233.97C1048.76 233.578 1048.19 233.26 1047.73 233.26H1044.89C1044.42 233.26 1044.08 233.635 1044.12 234.092L1045.65 251.913C1045.69 252.372 1045.35 252.746 1044.89 252.746H922.283C921.825 252.746 921.48 252.372 921.519 251.913L923.049 234.092C923.087 233.635 922.745 233.26 922.284 233.26H919.442C918.983 233.26 918.408 233.578 918.165 233.97L902.424 259.243V265.933H1064.75V259.243L1049.01 233.97Z" fill="#27334C"/>
<path opacity="0.5" d="M1049.01 233.97C1048.76 233.578 1048.19 233.26 1047.73 233.26H1044.89C1044.42 233.26 1044.08 233.635 1044.12 234.092L1045.65 251.913C1045.69 252.372 1045.35 252.746 1044.89 252.746H922.283C921.825 252.746 921.48 252.372 921.519 251.913L923.049 234.092C923.087 233.635 922.745 233.26 922.284 233.26H919.442C918.983 233.26 918.408 233.578 918.165 233.97L902.424 259.243V265.933H1064.75V259.243L1049.01 233.97Z" fill="#334163"/>
<path d="M1049.01 233.969L1055.97 258.177C1056.14 258.762 1055.78 259.242 1055.17 259.242H912.004C911.392 259.242 911.032 258.762 911.2 258.177L918.163 233.969L902.422 259.242V265.932H1064.75V259.242L1049.01 233.969Z" fill="url(#paint6_linear)"/>
<path opacity="0.4" d="M1045.53 252.374L1055.87 258.908C1056 258.717 1056.05 258.464 1055.97 258.181L1049 233.974H1049.01C1048.76 233.582 1048.19 233.264 1047.73 233.264H1044.88C1044.42 233.264 1044.08 233.639 1044.12 234.096L1045.65 251.917C1045.66 252.09 1045.61 252.242 1045.53 252.374Z" fill="#334163"/>
<path opacity="0.4" d="M921.637 252.374C921.557 252.242 921.504 252.09 921.518 251.917L923.049 234.096C923.087 233.639 922.745 233.264 922.284 233.264H919.442C918.983 233.264 918.407 233.582 918.164 233.974L911.201 258.181C911.121 258.464 911.168 258.717 911.301 258.908L921.637 252.374Z" fill="#334163"/>
<path opacity="0.5" d="M994.088 252.748H973.082L975.811 259.244H991.358L994.088 252.748Z" fill="#27334C"/>
<path d="M985.958 234.077C985.861 233.628 985.408 233.26 984.947 233.26H982.226C981.766 233.26 981.312 233.628 981.215 234.077L975.861 259.242V265.933H991.314V259.242L985.958 234.077Z" fill="url(#paint7_linear)"/>
<path opacity="0.1" d="M975.859 259.246H991.312L988.052 245.667C986.897 240.858 985.808 235.014 983.588 235.014C981.366 235.014 980.277 240.859 979.122 245.667L975.859 259.246Z" fill="url(#paint8_linear)"/>
<path opacity="0.15" d="M976.837 216.35C976.028 214.128 974.898 212.052 973.841 209.943C973.379 209.022 972.056 204.675 970.511 205.94C966.379 209.325 963.651 215.307 963.765 220.648C963.798 222.254 964.152 224.122 964.914 225.554C966.211 227.988 968.814 230.311 971.759 230.179C977.143 229.941 978.713 224.131 977.789 219.653C977.554 218.514 977.228 217.417 976.837 216.35Z" fill="#4B669D"/>
<path opacity="0.15" d="M996.652 205.938C995.107 204.673 993.783 209.02 993.323 209.941C992.265 212.051 991.135 214.126 990.325 216.348C989.934 217.417 989.608 218.512 989.374 219.65C988.449 224.128 990.02 229.937 995.405 230.176C998.349 230.308 1000.95 227.985 1002.25 225.551C1003.01 224.119 1003.36 222.251 1003.4 220.645C1003.51 215.305 1000.78 209.323 996.652 205.938Z" fill="#4B669D"/>
<path opacity="0.15" d="M990.756 221.657C990.69 225.755 987.78 231.212 982.998 229.728C981.721 229.332 980.01 228.365 979.117 227.337C977.189 225.113 976.483 222.003 976.413 219.1C976.375 217.54 976.562 215.932 976.975 214.425C977.83 211.32 979.246 208.573 981.595 206.377C982.259 205.754 982.595 205.33 983.191 205.994C983.718 206.581 983.853 207.385 984.12 208.107C985.238 211.11 988.138 212.761 989.432 215.629C990.308 217.573 990.79 219.634 990.756 221.657Z" fill="#4B669D"/>
<path opacity="0.4" d="M931.705 218.893C930.749 217.385 929.41 216.174 928.096 214.949C926.309 213.282 923.894 211.468 923.498 208.911C923.426 208.447 923.534 207.879 923.201 207.539C922.854 207.184 922.327 207.26 921.933 207.474C917.634 209.807 916.909 215.743 917.634 220.086C918.327 224.231 920.508 227.996 924.308 229.993C927.615 231.73 931.859 231.218 932.944 227.209C933.775 224.147 933.397 221.567 931.705 218.893Z" fill="#4B669D"/>
<path opacity="0.2" d="M928.079 226.075C927.312 224.717 925.859 223.688 924.503 222.98C923.737 222.586 921.941 221.561 921.75 220.458C921.727 220.32 921.727 220.179 921.761 220.036C921.97 219.148 922.57 219.849 923.173 219.755C923.664 219.677 923.773 219.356 923.488 218.964C922.61 217.763 920.482 217.74 919.624 218.89C917.987 221.07 919.338 224.386 920.896 226.167C921.845 227.253 922.982 228.163 924.247 228.85C925.424 229.49 926.899 230.17 928.274 229.924C929.91 229.627 928.531 226.877 928.079 226.075Z" fill="#00B4FF"/>
<path opacity="0.2" d="M930.046 220.916C929.753 220.281 929.366 219.694 928.928 219.15C928.006 218.004 926.793 217.082 925.522 216.351C925.204 216.168 924.877 215.998 924.547 215.836C923.34 215.253 922.135 214.633 921.059 213.828C920.754 213.599 920.456 213.355 920.178 213.09C919.877 212.806 919.675 212.438 919.401 212.133C919.24 211.951 919.067 211.677 918.816 211.867C918.412 212.174 918.29 212.714 918.216 213.187C918.057 214.158 918.016 215.101 918.3 216.052C918.362 216.263 918.449 216.879 918.747 216.875C919.071 216.871 918.989 215.743 919.003 215.531C919.016 215.349 919.049 214.964 919.275 214.916C919.504 214.868 919.801 215.189 919.934 215.33C921.61 217.086 923.731 218.306 925.66 219.746C927.516 221.126 928.968 222.757 930.015 224.83C930.099 225.001 930.316 225.823 930.591 225.5C930.731 225.332 930.727 224.952 930.733 224.739C930.781 223.434 930.593 222.113 930.046 220.916Z" fill="#FFF064"/>
<path opacity="0.1" d="M930.227 222.851C928.94 220.498 927.404 218.712 925.053 217.382C923.69 216.612 921.932 215.886 920.96 214.585C920.676 214.203 920.52 213.699 919.943 213.95C919.189 214.282 918.885 215.398 918.621 216.096C917.866 218.084 917.937 220.398 918.534 222.419C918.942 223.797 919.62 225.112 920.599 226.171C920.795 226.383 921.94 227.628 922.257 227.44C922.445 227.327 921.946 226.634 921.509 226.074C920.443 224.711 919.746 223.109 919.681 221.358C919.652 220.574 919.798 219.799 920.236 219.133C920.586 218.601 920.932 218.773 921.454 219.071C922.594 219.722 923.741 220.381 924.721 221.256C925.928 222.335 926.946 223.631 927.575 225.126C928.049 226.254 928.671 228.249 927.301 229.078C926.708 229.436 925.841 229.063 925.236 228.943C924.431 228.776 924.788 229.363 925.256 229.634C926.061 230.097 926.971 230.345 927.893 230.404C928.753 230.46 929.825 230.379 930.425 229.679C932.013 227.827 931.272 224.766 930.227 222.851Z" fill="white"/>
<path opacity="0.2" d="M931.557 223.143C931.056 220.794 929.493 218.751 927.537 217.406C926.169 216.463 924.669 215.603 923.529 214.378C922.173 212.918 921.758 211.312 921.796 209.354C921.814 208.35 922.359 206.38 920.733 207.295C918.784 208.388 917.259 210.101 916.484 212.204C915.615 214.556 916.192 216.989 916.994 219.281C917.085 219.543 917.621 221.056 918.123 220.559C918.407 220.277 918.017 219.271 917.969 218.908C917.863 218.109 917.725 216.458 918.448 215.872C919.033 215.392 920.011 215.764 920.612 216.032C922.614 216.923 924.555 218.29 926.146 219.914C927.803 221.556 931.301 225.727 929.528 229.324C929.43 229.522 929.39 229.71 929.427 229.796C929.466 229.881 929.589 229.86 929.823 229.64C931.521 228.044 932.028 225.364 931.557 223.143Z" fill="#D51E3C"/>
<path opacity="0.4" d="M1045.23 207.475C1044.84 207.261 1044.31 207.183 1043.96 207.539C1043.63 207.881 1043.74 208.447 1043.67 208.911C1043.27 211.47 1040.86 213.282 1039.07 214.949C1037.75 216.174 1036.42 217.385 1035.46 218.893C1033.77 221.566 1033.39 224.146 1034.22 227.209C1035.3 231.219 1039.55 231.73 1042.85 229.993C1046.65 227.997 1048.84 224.233 1049.53 220.087C1050.26 215.743 1049.53 209.806 1045.23 207.475Z" fill="#4B669D"/>
<path opacity="0.2" d="M1047.54 218.89C1046.68 217.74 1044.56 217.763 1043.68 218.964C1043.39 219.356 1043.5 219.677 1043.99 219.755C1044.59 219.849 1045.2 219.148 1045.41 220.036C1045.44 220.179 1045.44 220.32 1045.42 220.458C1045.22 221.561 1043.43 222.586 1042.66 222.98C1041.31 223.688 1039.86 224.717 1039.09 226.075C1038.64 226.877 1037.26 229.627 1038.89 229.922C1040.27 230.17 1041.74 229.489 1042.92 228.849C1044.18 228.162 1045.32 227.252 1046.27 226.166C1047.83 224.386 1049.18 221.069 1047.54 218.89Z" fill="#00B4FF"/>
<path opacity="0.2" d="M1048.95 213.187C1048.87 212.713 1048.75 212.174 1048.35 211.867C1048.09 211.677 1047.92 211.951 1047.76 212.133C1047.49 212.438 1047.29 212.806 1046.99 213.09C1046.71 213.355 1046.41 213.599 1046.11 213.828C1045.03 214.633 1043.82 215.252 1042.62 215.836C1042.29 215.998 1041.96 216.168 1041.64 216.351C1040.37 217.082 1039.16 218.004 1038.24 219.15C1037.8 219.694 1037.41 220.281 1037.12 220.916C1036.57 222.113 1036.38 223.435 1036.43 224.741C1036.44 224.952 1036.43 225.332 1036.57 225.501C1036.85 225.824 1037.06 225.003 1037.15 224.831C1038.2 222.758 1039.65 221.127 1041.5 219.747C1043.43 218.306 1045.55 217.088 1047.23 215.331C1047.36 215.19 1047.66 214.869 1047.89 214.917C1048.11 214.965 1048.15 215.351 1048.16 215.533C1048.18 215.744 1048.09 216.872 1048.42 216.876C1048.72 216.88 1048.8 216.265 1048.86 216.053C1049.15 215.101 1049.11 214.158 1048.95 213.187Z" fill="#FFF064"/>
<path opacity="0.1" d="M1048.55 216.093C1048.28 215.396 1047.98 214.28 1047.23 213.948C1046.65 213.697 1046.49 214.202 1046.21 214.583C1045.24 215.885 1043.48 216.61 1042.12 217.38C1039.76 218.709 1038.23 220.496 1036.94 222.849C1035.9 224.765 1035.16 227.825 1036.74 229.675C1037.34 230.375 1038.42 230.456 1039.28 230.4C1040.2 230.339 1041.11 230.093 1041.91 229.629C1042.38 229.359 1042.74 228.772 1041.93 228.938C1041.33 229.059 1040.46 229.432 1039.87 229.074C1038.5 228.246 1039.12 226.25 1039.6 225.122C1040.22 223.626 1041.24 222.33 1042.45 221.252C1043.43 220.377 1044.58 219.718 1045.72 219.067C1046.24 218.768 1046.58 218.596 1046.93 219.129C1047.37 219.795 1047.52 220.57 1047.49 221.354C1047.42 223.104 1046.73 224.707 1045.66 226.07C1045.23 226.631 1044.72 227.323 1044.91 227.435C1045.23 227.625 1046.38 226.38 1046.57 226.167C1047.55 225.107 1048.23 223.793 1048.64 222.414C1049.23 220.396 1049.3 218.082 1048.55 216.093Z" fill="white"/>
<path opacity="0.2" d="M1050.68 212.203C1049.91 210.1 1048.38 208.389 1046.43 207.294C1044.8 206.38 1045.35 208.349 1045.37 209.354C1045.4 211.313 1044.99 212.918 1043.64 214.377C1042.5 215.603 1041 216.463 1039.63 217.405C1037.67 218.751 1036.11 220.794 1035.61 223.143C1035.14 225.363 1035.64 228.044 1037.34 229.638C1037.57 229.856 1037.7 229.878 1037.74 229.793C1037.78 229.708 1037.73 229.519 1037.64 229.322C1035.86 225.725 1039.36 221.553 1041.02 219.912C1042.61 218.287 1044.55 216.92 1046.55 216.03C1047.15 215.763 1048.13 215.391 1048.72 215.869C1049.44 216.456 1049.3 218.107 1049.2 218.906C1049.15 219.269 1048.76 220.274 1049.04 220.556C1049.54 221.052 1050.08 219.54 1050.17 219.278C1050.97 216.989 1051.55 214.556 1050.68 212.203Z" fill="#D51E3C"/>
<path opacity="0.3" d="M943.575 222.255C942.627 217.3 937.426 213.616 937.171 208.27C937.137 207.518 937.362 206.294 936.428 206.05C935.405 205.785 934.187 207.111 933.536 207.708C930.365 210.609 928.52 215.111 928.634 219.395C928.698 221.761 929.268 224.155 930.417 226.23C931.678 228.508 933.905 230.307 936.51 230.677C939.234 231.066 942.095 229.45 943.074 226.785C943.544 225.505 943.833 223.607 943.575 222.255Z" fill="#4B669D"/>
<path opacity="0.2" d="M941.182 228.034C940.839 227.195 939.824 227.449 939.131 227.277C938.494 227.121 938.01 226.681 937.548 226.241C936.408 225.162 935.385 223.923 934.602 222.56C934.206 221.874 933.795 221.069 933.901 220.254C934.039 219.208 935.091 218.848 935.998 219.132C937.319 219.545 938.353 220.807 938.809 222.065C938.87 222.236 938.834 222.552 938.986 222.673C939.194 222.839 939.273 222.618 939.295 222.445C939.351 221.98 939.226 221.485 939.088 221.043C938.707 219.811 937.763 218.465 936.604 217.852C935.421 217.165 933.983 217.206 932.841 217.949C931.4 218.883 930.926 220.733 931.081 222.349C931.177 223.32 931.464 224.195 931.82 224.999C932.042 225.499 932.324 225.993 932.622 226.451C933.623 227.999 935.119 229.347 936.859 229.995C938.201 230.49 939.942 230.469 940.914 229.26C941.195 228.913 941.343 228.427 941.182 228.034Z" fill="#00B4FF"/>
<path opacity="0.2" d="M938.799 215.599C936.715 212.975 934.703 210.776 934.683 207.219C934.675 205.839 933.656 206.389 932.839 206.993C931.112 208.267 930.168 210.117 929.658 212.188C929.623 212.337 929.549 212.509 929.562 212.666C929.587 212.982 929.793 212.764 929.856 212.621C930.08 212.114 930.515 211.481 931.013 211.214C931.18 211.121 931.328 211.084 931.457 211.09C931.835 211.102 932.067 211.47 932.321 211.853C934.34 214.893 937.825 216.632 939.837 219.708C940.547 220.791 941.08 222.056 941.195 223.358C941.225 223.522 941.146 224.114 941.397 224.124C941.624 224.134 941.669 223.522 941.688 223.37C942.032 220.394 940.589 217.847 938.799 215.599ZM931.952 211.03C931.948 211.031 931.948 211.03 931.946 211.03C932.021 210.985 932.113 210.93 932.051 210.993C932.009 211.023 932.016 211.017 931.952 211.03Z" fill="#D51E3C"/>
<path opacity="0.1" d="M941.24 225.096C940.844 223.777 940.198 222.616 939.365 221.519C938.575 220.535 937.667 219.686 936.827 218.969C934.896 217.318 933.407 215.114 932.369 212.807C932.163 212.355 931.903 211.257 931.197 211.622C930.622 211.92 930.319 212.957 930.097 213.516C929.021 216.22 928.592 219.446 929.718 222.205C930.167 223.303 930.89 224.235 931.565 225.203C932.674 226.795 933.912 228.282 935.559 229.339C936.626 230.022 937.96 230.57 939.243 230.3C941.609 229.8 941.723 226.982 941.24 225.096ZM938.261 228.99C937.601 229.269 936.904 228.984 936.307 228.686C936.298 228.68 936.288 228.675 936.275 228.67C935.396 228.227 934.643 227.629 934.048 226.834C933.504 226.098 933.062 225.293 932.648 224.479C932.25 223.697 931.825 222.914 931.493 222.102C931.025 220.967 930.79 219.732 930.786 218.508C930.783 217.75 930.883 216.929 931.127 216.207C931.17 216.085 931.32 215.695 931.472 215.681C931.684 215.664 931.681 216.277 931.707 216.427C931.941 217.941 932.813 219.468 933.755 220.653C934.475 221.56 935.213 222.395 935.92 223.145C936.604 223.879 937.268 224.59 937.894 225.267C938.512 225.913 938.873 226.4 939.035 226.89C939.289 227.669 939.085 228.643 938.261 228.99Z" fill="white"/>
<path opacity="0.2" d="M942.39 222.355C941.735 219.891 939.877 217.784 938.053 216.089C936.146 214.316 934.043 212.704 932.675 210.443C932.431 210.044 932.285 209.509 931.725 209.77C930.594 210.294 929.835 211.688 929.684 212.884C929.616 213.426 929.61 214.078 929.799 214.594C929.867 214.78 930.063 215.172 930.323 215.032C930.577 214.895 930.632 214.116 930.71 213.861C930.794 213.589 930.943 213.092 931.315 213.144C931.589 213.181 931.755 213.745 931.906 213.938C934.119 216.745 937.712 218.018 939.901 220.865C941.293 222.681 941.815 225.05 941.346 227.289C941.306 227.479 940.948 228.306 941.443 228.243C941.748 228.202 942.002 227.322 942.102 227.075C942.72 225.562 942.801 223.905 942.39 222.355Z" fill="#FFF064"/>
<path opacity="0.3" d="M1033.63 207.708C1032.98 207.111 1031.76 205.785 1030.74 206.05C1029.8 206.294 1030.03 207.518 1029.99 208.27C1029.74 213.616 1024.54 217.301 1023.59 222.255C1023.33 223.607 1023.62 225.507 1024.09 226.785C1025.07 229.448 1027.93 231.064 1030.66 230.677C1033.26 230.307 1035.49 228.508 1036.75 226.23C1037.9 224.155 1038.47 221.761 1038.53 219.395C1038.65 215.11 1036.8 210.609 1033.63 207.708Z" fill="#4B669D"/>
<path opacity="0.2" d="M1034.33 217.949C1033.19 217.206 1031.75 217.165 1030.56 217.852C1029.4 218.465 1028.46 219.811 1028.08 221.043C1027.94 221.484 1027.82 221.98 1027.87 222.445C1027.9 222.618 1027.97 222.839 1028.18 222.673C1028.33 222.554 1028.3 222.236 1028.36 222.065C1028.81 220.807 1029.85 219.547 1031.17 219.132C1032.07 218.848 1033.13 219.207 1033.27 220.254C1033.37 221.069 1032.96 221.874 1032.57 222.56C1031.78 223.923 1030.76 225.163 1029.62 226.241C1029.16 226.681 1028.67 227.121 1028.04 227.277C1027.34 227.448 1026.33 227.195 1025.99 228.034C1025.82 228.427 1025.97 228.913 1026.25 229.259C1027.22 230.468 1028.96 230.489 1030.31 229.994C1032.05 229.346 1033.54 227.998 1034.54 226.45C1034.84 225.992 1035.12 225.499 1035.35 224.998C1035.7 224.194 1035.99 223.319 1036.09 222.348C1036.24 220.733 1035.77 218.883 1034.33 217.949Z" fill="#00B4FF"/>
<path opacity="0.2" d="M1037.51 212.188C1037 210.118 1036.05 208.268 1034.33 206.993C1033.51 206.389 1032.49 205.839 1032.48 207.219C1032.47 210.776 1030.45 212.974 1028.37 215.599C1026.58 217.847 1025.14 220.394 1025.48 223.371C1025.5 223.523 1025.55 224.134 1025.77 224.126C1026.02 224.114 1025.94 223.523 1025.97 223.359C1026.09 222.057 1026.62 220.793 1027.33 219.709C1029.34 216.633 1032.83 214.894 1034.85 211.854C1035.1 211.47 1035.34 211.102 1035.71 211.091C1035.84 211.086 1035.99 211.122 1036.16 211.215C1036.66 211.481 1037.09 212.115 1037.31 212.622C1037.38 212.765 1037.58 212.983 1037.61 212.667C1037.62 212.509 1037.55 212.336 1037.51 212.188ZM1035.22 211.03C1035.15 211.017 1035.16 211.023 1035.12 210.993C1035.05 210.93 1035.14 210.985 1035.22 211.03C1035.22 211.03 1035.22 211.031 1035.22 211.03Z" fill="#D51E3C"/>
<path opacity="0.1" d="M1037.07 213.518C1036.85 212.959 1036.54 211.922 1035.97 211.624C1035.26 211.259 1035 212.357 1034.8 212.809C1033.76 215.116 1032.27 217.319 1030.34 218.971C1029.5 219.687 1028.59 220.537 1027.8 221.521C1026.96 222.616 1026.32 223.778 1025.93 225.098C1025.44 226.984 1025.56 229.802 1027.92 230.303C1029.21 230.573 1030.54 230.025 1031.61 229.342C1033.25 228.285 1034.49 226.797 1035.6 225.206C1036.27 224.238 1037 223.306 1037.45 222.208C1038.57 219.448 1038.14 216.221 1037.07 213.518ZM1035.67 222.103C1035.34 222.914 1034.91 223.698 1034.52 224.48C1034.1 225.294 1033.66 226.099 1033.12 226.834C1032.52 227.63 1031.77 228.227 1030.89 228.671C1030.88 228.676 1030.87 228.681 1030.86 228.687C1030.26 228.986 1029.56 229.27 1028.9 228.991C1028.08 228.643 1027.88 227.67 1028.13 226.89C1028.29 226.4 1028.65 225.913 1029.27 225.267C1029.9 224.59 1030.56 223.879 1031.24 223.144C1031.95 222.395 1032.69 221.559 1033.41 220.653C1034.35 219.469 1035.22 217.941 1035.46 216.426C1035.48 216.277 1035.48 215.663 1035.69 215.681C1035.85 215.694 1035.99 216.084 1036.04 216.207C1036.28 216.929 1036.38 217.751 1036.38 218.508C1036.37 219.733 1036.14 220.968 1035.67 222.103Z" fill="white"/>
<path opacity="0.2" d="M1037.48 212.883C1037.33 211.689 1036.58 210.294 1035.44 209.77C1034.88 209.509 1034.74 210.044 1034.49 210.442C1033.13 212.704 1031.02 214.315 1029.11 216.089C1027.29 217.784 1025.43 219.892 1024.78 222.354C1024.37 223.905 1024.45 225.563 1025.07 227.075C1025.17 227.322 1025.42 228.202 1025.73 228.243C1026.22 228.306 1025.86 227.478 1025.83 227.289C1025.36 225.049 1025.88 222.68 1027.27 220.865C1029.46 218.018 1033.05 216.744 1035.27 213.937C1035.42 213.744 1035.58 213.181 1035.86 213.144C1036.23 213.091 1036.38 213.588 1036.46 213.861C1036.54 214.115 1036.59 214.894 1036.85 215.032C1037.11 215.173 1037.3 214.78 1037.37 214.594C1037.56 214.078 1037.55 213.426 1037.48 212.883Z" fill="#FFF064"/>
<path opacity="0.25" d="M954.505 221.154C954.138 218.737 953.011 216.432 951.785 214.272C950.422 211.872 948.778 209.847 948.589 206.985C948.557 206.512 948.636 205.984 948.146 205.746C947.047 205.215 945.555 206.565 944.78 207.194C942.843 208.761 941.406 211.04 940.514 213.346C938.906 217.507 939.38 221.987 941.427 225.91C942.538 228.04 944.563 229.576 946.835 230.265C950.343 231.328 953.406 228.581 954.296 225.306C954.681 223.892 954.713 222.505 954.505 221.154Z" fill="#4B669D"/>
<path opacity="0.2" d="M950.551 226.929C950.469 226.233 950.373 224.985 949.779 224.523C949.494 224.303 949.193 224.376 948.918 224.571C948.525 224.849 948.17 224.972 947.756 224.648C947.065 224.11 946.592 223.481 946.208 222.699C945.8 221.872 945.622 220.949 945.745 220.028C945.844 219.294 946.386 218.782 947.165 219.028C947.846 219.242 948.351 220.039 948.53 220.696C948.609 220.984 948.752 221.428 949.013 220.982C949.374 220.36 949.063 219.282 948.847 218.658C948.583 217.891 948.133 217.148 947.479 216.652C945.316 215.022 942.857 216.917 942.249 219.131C941.677 221.21 942.089 223.352 942.881 225.314C942.888 225.336 942.897 225.354 942.904 225.374C943.751 227.436 945.334 229.435 947.519 230.149C948.859 230.587 949.76 230.065 950.222 229.153C950.535 228.533 950.643 227.731 950.551 226.929Z" fill="#00B4FF"/>
<path opacity="0.1" d="M950.057 215.985C948.708 214.363 947.244 212.56 947.1 210.365C947.048 209.583 946.301 209.106 945.553 209.349C942.661 210.287 941.665 213.762 941.451 216.474C941.35 217.769 941.364 219.071 941.494 220.365C941.599 221.394 941.676 222.749 942.454 223.523C943.311 224.379 942.84 221.996 942.823 221.623C942.735 219.685 943.244 217.657 944.407 216.085C944.641 215.773 944.998 215.45 945.427 215.624C945.738 215.751 945.913 216.299 946.075 216.568C947.847 219.484 951.726 222.235 951.404 226.028C951.239 227.981 949.431 229.702 947.433 228.907C947.199 228.814 946.697 228.482 946.431 228.632C946.068 228.836 946.51 229.141 946.733 229.3C948.06 230.248 950.15 230.604 951.562 229.644C953.137 228.572 953.959 226.783 954.057 224.909C954.24 221.381 952.193 218.556 950.057 215.985Z" fill="white"/>
<path opacity="0.2" d="M951.357 216.877C950.454 215.71 949.423 214.708 948.361 213.69C947.419 212.787 946.556 211.79 946.197 210.51C946.056 210.005 946.112 209.392 945.487 209.32C944.992 209.262 944.42 209.554 944.016 209.801C943.109 210.354 942.332 211.204 941.772 212.1C940.894 213.508 940.289 215.29 940.228 216.957C940.202 217.664 940.339 218.368 940.546 219.039C940.643 219.353 940.762 219.676 940.919 219.965C941.173 220.432 941.383 220.51 941.341 219.908C941.226 218.251 941.711 216.602 942.464 215.137C942.78 214.524 943.5 213.35 944.25 213.186C944.687 213.09 944.676 213.438 944.862 213.762C945.891 215.58 947.829 216.555 949.326 217.912C951.448 219.838 953.264 222.923 952.409 225.873C952.298 226.25 952.008 226.649 952.007 227.054C952.006 227.808 952.729 226.859 952.877 226.65C953.395 225.926 953.681 224.989 953.82 224.12C954.255 221.43 952.951 218.943 951.357 216.877Z" fill="#FFF064"/>
<path opacity="0.2" d="M949.439 212.104C948.179 210.399 946.551 208.738 945.784 206.729C945.657 206.39 945.627 206.012 945.163 206.01C944.7 206.005 944.211 206.458 943.849 206.716C940.749 208.917 938.571 214.284 940.178 217.964C940.395 218.46 940.864 218.839 940.872 218.065C940.882 217.148 941.082 216.151 941.437 215.187C941.746 214.34 942.165 213.53 942.692 212.799C943.059 212.29 943.873 211.125 944.533 210.986C945.132 210.86 945.138 211.63 945.229 212.08C945.401 212.953 945.751 213.655 946.186 214.428C947.276 216.362 948.975 217.842 950.347 219.56C951.294 220.742 952.04 222.147 952.328 223.639C952.47 224.383 952.496 225.151 952.339 225.891C952.277 226.187 951.905 226.658 951.989 226.962C952.225 227.824 952.912 226.712 953.076 226.449C953.354 226.001 953.498 225.498 953.619 224.977C953.848 224.003 954.056 222.885 954.033 221.889C953.952 218.242 951.515 214.921 949.439 212.104Z" fill="#D51E3C"/>
<path opacity="0.25" d="M1026.65 213.346C1025.76 211.04 1024.32 208.761 1022.38 207.194C1021.61 206.566 1020.12 205.215 1019.02 205.746C1018.53 205.983 1018.61 206.511 1018.57 206.985C1018.38 209.847 1016.74 211.872 1015.38 214.272C1014.15 216.431 1013.02 218.737 1012.66 221.154C1012.45 222.506 1012.48 223.893 1012.87 225.305C1013.76 228.58 1016.82 231.327 1020.33 230.263C1022.6 229.575 1024.62 228.038 1025.73 225.909C1027.78 221.987 1028.26 217.506 1026.65 213.346Z" fill="#4B669D"/>
<path opacity="0.2" d="M1024.92 219.131C1024.31 216.917 1021.85 215.022 1019.69 216.652C1019.03 217.147 1018.59 217.89 1018.32 218.658C1018.1 219.282 1017.79 220.36 1018.15 220.982C1018.41 221.428 1018.56 220.984 1018.64 220.696C1018.81 220.039 1019.32 219.242 1020 219.028C1020.78 218.782 1021.32 219.294 1021.42 220.028C1021.54 220.949 1021.37 221.872 1020.96 222.699C1020.58 223.481 1020.1 224.109 1019.41 224.648C1019 224.972 1018.64 224.849 1018.25 224.571C1017.97 224.376 1017.67 224.303 1017.39 224.523C1016.79 224.985 1016.7 226.233 1016.62 226.929C1016.52 227.732 1016.63 228.533 1016.95 229.153C1017.41 230.065 1018.31 230.587 1019.65 230.149C1021.83 229.435 1023.42 227.437 1024.26 225.374C1024.27 225.354 1024.28 225.336 1024.29 225.314C1025.08 223.352 1025.49 221.21 1024.92 219.131Z" fill="#00B4FF"/>
<path opacity="0.1" d="M1025.72 216.474C1025.5 213.762 1024.51 210.287 1021.62 209.349C1020.87 209.106 1020.12 209.583 1020.07 210.365C1019.92 212.56 1018.46 214.363 1017.11 215.985C1014.97 218.555 1012.93 221.379 1013.11 224.907C1013.21 226.78 1014.03 228.57 1015.61 229.641C1017.02 230.602 1019.11 230.247 1020.44 229.298C1020.66 229.139 1021.1 228.834 1020.74 228.63C1020.47 228.48 1019.97 228.812 1019.73 228.905C1017.74 229.701 1015.93 227.979 1015.76 226.026C1015.44 222.232 1019.32 219.482 1021.09 216.566C1021.25 216.297 1021.43 215.75 1021.74 215.622C1022.17 215.448 1022.53 215.771 1022.76 216.082C1023.92 217.655 1024.43 219.683 1024.34 221.621C1024.33 221.994 1023.86 224.376 1024.71 223.521C1025.49 222.748 1025.57 221.392 1025.67 220.362C1025.8 219.071 1025.82 217.769 1025.72 216.474Z" fill="white"/>
<path opacity="0.2" d="M1025.4 212.1C1024.84 211.203 1024.06 210.353 1023.15 209.801C1022.75 209.554 1022.18 209.263 1021.68 209.32C1021.06 209.392 1021.11 210.005 1020.97 210.51C1020.61 211.79 1019.75 212.787 1018.81 213.69C1017.75 214.708 1016.71 215.709 1015.81 216.877C1014.22 218.942 1012.92 221.429 1013.35 224.119C1013.49 224.987 1013.77 225.924 1014.29 226.649C1014.44 226.857 1015.16 227.807 1015.16 227.052C1015.16 226.648 1014.87 226.247 1014.76 225.871C1013.9 222.922 1015.72 219.838 1017.84 217.911C1019.34 216.552 1021.28 215.577 1022.31 213.761C1022.49 213.437 1022.48 213.09 1022.92 213.185C1023.67 213.348 1024.39 214.523 1024.71 215.136C1025.46 216.6 1025.94 218.249 1025.83 219.906C1025.79 220.509 1026 220.431 1026.25 219.964C1026.41 219.675 1026.53 219.352 1026.62 219.038C1026.83 218.368 1026.97 217.663 1026.94 216.956C1026.88 215.29 1026.27 213.508 1025.4 212.1Z" fill="#FFF064"/>
<path opacity="0.2" d="M1023.32 206.716C1022.96 206.459 1022.47 206.005 1022 206.01C1021.54 206.012 1021.51 206.391 1021.38 206.729C1020.62 208.738 1018.99 210.399 1017.73 212.104C1015.65 214.919 1013.21 218.241 1013.13 221.888C1013.11 222.884 1013.31 224.002 1013.54 224.976C1013.66 225.497 1013.81 226 1014.09 226.448C1014.25 226.711 1014.94 227.823 1015.17 226.961C1015.26 226.658 1014.88 226.186 1014.82 225.89C1014.67 225.15 1014.69 224.381 1014.84 223.638C1015.12 222.145 1015.87 220.742 1016.82 219.559C1018.19 217.841 1019.89 216.361 1020.98 214.427C1021.41 213.654 1021.76 212.952 1021.94 212.079C1022.02 211.629 1022.03 210.858 1022.63 210.985C1023.29 211.124 1024.1 212.289 1024.47 212.798C1025 213.529 1025.42 214.34 1025.73 215.186C1026.08 216.149 1026.28 217.147 1026.29 218.064C1026.3 218.838 1026.77 218.459 1026.99 217.963C1028.6 214.284 1026.42 208.917 1023.32 206.716Z" fill="#D51E3C"/>
<path opacity="0.2" d="M963.73 213.04C962.932 211.522 962.058 209.946 961.488 208.323C961.13 207.306 960.303 205.044 958.862 205.959C958.251 206.349 957.739 207.397 957.29 207.968C954.142 211.96 950.896 217.122 952.242 222.413C952.876 224.903 954.1 227.269 956.21 228.806C958.392 230.395 961.31 230.808 963.516 229.1C965.524 227.547 966.779 224.594 966.702 222.051C966.612 218.976 965.153 215.756 963.73 213.04Z" fill="#4B669D"/>
<path opacity="0.1" d="M964.776 219.51C964.475 217.746 963.781 216.047 962.807 214.538C962.163 213.535 961.379 212.683 960.505 211.866C959.921 211.319 959.336 210.637 958.578 210.324C957.958 210.069 957.364 210.542 956.954 210.948C956.471 211.424 955.973 211.919 955.589 212.473C954.734 213.702 954.073 215.034 953.606 216.449C953.344 217.242 953.154 218.06 953.032 218.885C952.752 220.773 952.887 222.765 953.677 224.526C954.287 225.889 955.256 226.822 956.462 227.692C956.704 227.865 957.177 228.342 957.518 228.201C957.986 228.01 957.541 227.439 957.339 227.211C955.988 225.694 955.445 223.626 955.428 221.649C955.411 219.633 955.932 217.831 956.97 216.095C957.201 215.71 957.395 215.263 957.779 215.001C958.383 214.594 959.025 215.273 959.392 215.694C959.95 216.331 960.482 216.972 960.953 217.674C961.968 219.19 962.793 220.911 963.04 222.724C963.16 223.608 963.178 224.525 963.13 225.429C963.102 226 963.046 226.599 962.884 227.15C962.823 227.358 962.45 228.01 962.955 227.968C963.234 227.945 963.495 227.543 963.63 227.336C963.796 227.077 963.931 226.803 964.043 226.519C964.899 224.356 965.166 221.797 964.776 219.51Z" fill="white"/>
<path opacity="0.2" d="M964.624 218.408C963.847 216.397 962.36 214.722 960.802 213.274C960.001 212.53 959.103 211.726 958.474 210.824C958.025 210.178 957.72 208.675 956.69 208.885C956.06 209.012 955.552 209.533 955.157 210.008C954.322 211.01 953.7 212.182 953.291 213.419C953.058 214.13 952.298 216.264 952.853 216.89C953.145 216.645 953.16 216.242 953.312 215.911C953.897 214.647 954.901 212.317 956.389 211.892C956.966 211.726 956.882 212.245 957.03 212.694C957.58 214.381 958.843 215.363 960.179 216.431C961.89 217.798 963.621 219.219 964.208 221.432C964.269 221.663 964.301 222.351 964.525 222.476C965.042 222.759 965.085 221.885 965.11 221.575C965.202 220.495 965.013 219.415 964.624 218.408Z" fill="#FFF064"/>
<path opacity="0.2" d="M963.549 216.214C962.879 215.196 962.01 214.329 961.294 213.346C960.501 212.26 959.792 211.117 959.15 209.938C958.624 208.976 958.117 207.972 957.161 207.366C956.231 206.776 955.856 207.621 955.521 208.243C954.294 210.509 952.163 212.095 951.679 214.759C951.247 217.139 951.046 220.099 952.212 222.32C952.44 222.75 952.711 222.989 952.701 222.338C952.681 221.25 952.476 220.219 952.59 219.12C952.623 218.806 952.666 218.488 952.719 218.171C953.143 215.631 954.168 212.619 956.173 210.878C956.614 210.497 956.851 210.417 957.01 211.006C957.164 211.574 957.438 212.087 957.761 212.571C958.529 213.731 959.463 214.784 960.53 215.678C961.493 216.485 962.589 217.124 963.522 217.968C963.775 218.199 964.27 218.75 964.358 218.184C964.46 217.54 963.882 216.722 963.549 216.214Z" fill="#D51E3C"/>
<path opacity="0.2" d="M1009.88 207.968C1009.43 207.397 1008.92 206.349 1008.3 205.959C1006.86 205.044 1006.04 207.306 1005.68 208.323C1005.11 209.946 1004.23 211.522 1003.44 213.04C1002.01 215.756 1000.56 218.976 1000.46 222.05C1000.39 224.593 1001.64 227.545 1003.65 229.099C1005.85 230.807 1008.78 230.394 1010.96 228.805C1013.07 227.268 1014.29 224.902 1014.92 222.412C1016.27 217.122 1013.02 211.96 1009.88 207.968Z" fill="#4B669D"/>
<path opacity="0.1" d="M1014.14 218.885C1014.02 218.06 1013.83 217.242 1013.56 216.449C1013.1 215.034 1012.43 213.702 1011.58 212.473C1011.2 211.919 1010.7 211.424 1010.22 210.948C1009.81 210.543 1009.21 210.069 1008.59 210.324C1007.83 210.636 1007.25 211.318 1006.66 211.866C1005.79 212.683 1005.01 213.535 1004.36 214.537C1003.39 216.047 1002.69 217.747 1002.39 219.51C1002 221.797 1002.27 224.355 1003.13 226.518C1003.24 226.802 1003.37 227.076 1003.54 227.335C1003.67 227.543 1003.93 227.944 1004.21 227.967C1004.72 228.009 1004.35 227.356 1004.28 227.148C1004.12 226.598 1004.07 225.999 1004.04 225.428C1003.99 224.524 1004.01 223.606 1004.13 222.723C1004.38 220.909 1005.2 219.189 1006.22 217.673C1006.69 216.971 1007.22 216.33 1007.78 215.693C1008.14 215.272 1008.79 214.593 1009.39 215C1009.78 215.262 1009.97 215.71 1010.2 216.094C1011.24 217.828 1011.76 219.631 1011.74 221.648C1011.72 223.623 1011.18 225.692 1009.83 227.209C1009.63 227.438 1009.18 228.009 1009.65 228.2C1009.99 228.341 1010.46 227.864 1010.71 227.691C1011.91 226.822 1012.88 225.888 1013.49 224.525C1014.28 222.765 1014.42 220.773 1014.14 218.885Z" fill="white"/>
<path opacity="0.2" d="M1013.87 213.419C1013.46 212.181 1012.84 211.01 1012.01 210.008C1011.61 209.533 1011.1 209.013 1010.47 208.885C1009.44 208.676 1009.14 210.177 1008.69 210.824C1008.06 211.726 1007.16 212.53 1006.36 213.274C1004.8 214.721 1003.32 216.397 1002.54 218.408C1002.15 219.415 1001.96 220.494 1002.05 221.575C1002.08 221.884 1002.12 222.758 1002.64 222.475C1002.86 222.351 1002.89 221.662 1002.95 221.432C1003.54 219.219 1005.27 217.799 1006.98 216.431C1008.32 215.362 1009.58 214.381 1010.13 212.694C1010.28 212.246 1010.2 211.726 1010.77 211.892C1012.26 212.317 1013.27 214.647 1013.85 215.91C1014 216.242 1014.02 216.645 1014.31 216.89C1014.86 216.264 1014.11 214.13 1013.87 213.419Z" fill="#FFF064"/>
<path opacity="0.2" d="M1015.49 214.759C1015.01 212.095 1012.88 210.509 1011.65 208.243C1011.31 207.621 1010.94 206.776 1010.01 207.366C1009.05 207.972 1008.55 208.976 1008.02 209.938C1007.38 211.117 1006.67 212.261 1005.88 213.346C1005.16 214.329 1004.29 215.196 1003.62 216.214C1003.29 216.721 1002.71 217.539 1002.81 218.183C1002.9 218.749 1003.39 218.198 1003.65 217.967C1004.58 217.122 1005.68 216.483 1006.64 215.676C1007.71 214.783 1008.64 213.73 1009.41 212.57C1009.73 212.085 1010 211.573 1010.16 211.005C1010.32 210.416 1010.55 210.496 1010.99 210.877C1013 212.618 1014.03 215.63 1014.45 218.17C1014.5 218.487 1014.55 218.805 1014.58 219.119C1014.69 220.218 1014.49 221.249 1014.47 222.337C1014.46 222.988 1014.73 222.749 1014.96 222.319C1016.12 220.099 1015.92 217.139 1015.49 214.759Z" fill="#D51E3C"/>
<path opacity="0.2" d="M973.376 222.352C972.875 221.877 972.155 221.959 971.592 221.604C971.063 221.27 970.85 220.646 970.754 220.057C970.681 219.613 970.481 218.302 971.302 218.465C971.498 218.505 971.614 218.835 971.825 218.794C972.061 218.75 972.045 218.387 972.019 218.216C971.905 217.488 971.351 216.737 970.718 216.372C969.811 215.85 968.617 215.93 967.836 216.644C966.574 217.795 966.233 220.097 966.347 221.704C966.429 222.856 966.489 224.024 966.83 225.136C967.409 227.019 968.741 229.328 970.849 229.731C973.259 230.192 974.31 226.81 974.262 224.949C974.238 224.117 973.999 222.943 973.376 222.352Z" fill="#00B4FF"/>
<path opacity="0.1" d="M974.625 215.751C973.371 213.465 971.737 210.469 969.304 209.405C968.007 208.837 967.293 211.082 966.795 212.022C966.335 212.886 965.899 213.818 965.552 214.736C965.002 216.188 964.526 217.703 964.632 219.298C964.775 221.44 964.955 223.752 966.039 225.645C966.6 226.631 967.416 227.597 968.349 228.208C969.328 228.847 969.119 227.562 968.748 227.054C967.254 225.003 967.027 221.558 967.454 219.117C967.637 218.075 968.509 213.864 970.316 215.248C971.131 215.873 971.895 216.576 972.553 217.381C974.014 219.171 975.558 221.268 975.397 223.754C975.384 223.968 975.22 225.533 975.682 224.598C976.114 223.725 976.281 222.705 976.265 221.641C976.231 219.56 975.489 217.326 974.625 215.751Z" fill="white"/>
<path opacity="0.2" d="M973.011 213.997C972.079 213.188 971.282 212.302 970.488 211.344C970.251 211.058 970.039 210.746 969.779 210.482C969.529 210.226 969.387 210.005 969.009 210.038C968.756 210.062 968.548 210.21 968.379 210.398C968 210.807 967.813 211.368 967.516 211.838C966.712 213.113 965.988 214.308 965.568 215.796C965.394 216.422 965.223 217.064 965.172 217.715C965.158 217.906 965.08 218.34 965.214 218.501C965.468 218.801 965.499 218.299 965.515 218.122C965.685 216.287 966.735 214.449 967.968 213.196C968.138 213.023 968.521 212.572 968.769 212.546C969.072 212.518 969.232 212.984 969.33 213.21C969.489 213.567 969.677 213.873 969.948 214.154C970.569 214.797 971.399 215.148 972.136 215.609C973.031 216.161 973.859 216.924 974.494 217.788C975.144 218.673 975.643 219.697 975.811 220.804C975.834 220.958 975.761 221.575 976.106 221.338C976.334 221.182 976.25 220.482 976.245 220.242C976.223 219.006 975.82 217.75 975.303 216.642C974.788 215.541 973.897 214.766 973.011 213.997Z" fill="#FFF064"/>
<path opacity="0.2" d="M975.512 215.711C975.183 214.943 974.757 214.215 974.271 213.537C972.99 211.749 971.366 210.215 970.18 208.361C969.822 207.798 969.431 206.841 968.666 206.773C967.559 206.68 966.898 208.281 966.468 209.062C965.393 211.007 964.62 213.017 964.515 215.262C964.471 216.175 964.43 217.101 964.561 218.009C964.599 218.277 964.823 219.759 965.24 219.74C965.574 219.724 965.361 218.893 965.353 218.653C965.289 217.064 965.822 215.509 966.599 214.144C966.95 213.522 968.054 211.454 968.966 211.444C969.603 211.436 970.014 212.478 970.318 212.939C971.435 214.644 973.631 214.971 974.888 216.471C975.268 216.921 975.425 217.652 975.998 217.909C976.267 217.323 975.746 216.262 975.512 215.711Z" fill="#D51E3C"/>
<path opacity="0.2" d="M999.329 216.645C998.546 215.929 997.355 215.85 996.448 216.373C995.813 216.738 995.261 217.489 995.146 218.216C995.119 218.387 995.105 218.751 995.34 218.794C995.55 218.835 995.667 218.506 995.862 218.466C996.684 218.303 996.485 219.613 996.41 220.057C996.313 220.645 996.103 221.271 995.574 221.605C995.009 221.959 994.289 221.877 993.787 222.352C993.166 222.943 992.927 224.119 992.904 224.95C992.854 226.811 993.907 230.193 996.316 229.731C998.424 229.33 999.755 227.02 1000.33 225.136C1000.68 224.025 1000.74 222.857 1000.82 221.704C1000.93 220.097 1000.59 217.796 999.329 216.645Z" fill="#00B4FF"/>
<path opacity="0.1" d="M1001.61 214.736C1001.26 213.819 1000.83 212.886 1000.37 212.022C999.872 211.081 999.157 208.837 997.862 209.405C995.428 210.469 993.792 213.465 992.54 215.751C991.675 217.327 990.935 219.562 990.9 221.641C990.883 222.705 991.051 223.725 991.482 224.598C991.943 225.534 991.78 223.969 991.766 223.754C991.606 221.269 993.15 219.171 994.611 217.381C995.27 216.576 996.032 215.873 996.848 215.248C998.656 213.864 999.526 218.075 999.709 219.117C1000.14 221.558 999.91 225.004 998.416 227.054C998.046 227.562 997.837 228.847 998.814 228.208C999.747 227.597 1000.56 226.631 1001.13 225.645C1002.21 223.752 1002.39 221.44 1002.53 219.298C1002.64 217.703 1002.16 216.188 1001.61 214.736Z" fill="white"/>
<path opacity="0.2" d="M1002 217.717C1001.94 217.064 1001.78 216.423 1001.6 215.798C1001.18 214.308 1000.46 213.115 999.653 211.839C999.357 211.37 999.169 210.809 998.793 210.4C998.622 210.212 998.415 210.064 998.163 210.04C997.783 210.008 997.64 210.228 997.391 210.484C997.132 210.748 996.919 211.061 996.682 211.346C995.888 212.303 995.092 213.189 994.159 213.999C993.274 214.766 992.383 215.543 991.871 216.643C991.355 217.751 990.949 219.006 990.929 220.243C990.925 220.483 990.84 221.184 991.068 221.339C991.414 221.575 991.341 220.957 991.364 220.804C991.529 219.697 992.028 218.674 992.678 217.789C993.316 216.925 994.143 216.162 995.036 215.609C995.775 215.15 996.604 214.798 997.227 214.155C997.497 213.873 997.685 213.568 997.843 213.21C997.942 212.985 998.1 212.519 998.405 212.547C998.654 212.571 999.036 213.024 999.204 213.197C1000.44 214.451 1001.49 216.288 1001.66 218.123C1001.68 218.3 1001.71 218.8 1001.96 218.502C1002.09 218.342 1002.01 217.907 1002 217.717Z" fill="#FFF064"/>
<path opacity="0.2" d="M1002.65 215.261C1002.55 213.018 1001.78 211.007 1000.7 209.061C1000.27 208.282 999.609 206.681 998.502 206.773C997.736 206.841 997.348 207.798 996.989 208.36C995.805 210.215 994.18 211.749 992.899 213.537C992.413 214.214 991.987 214.943 991.659 215.711C991.425 216.262 990.904 217.323 991.173 217.906C991.745 217.649 991.904 216.917 992.281 216.467C993.539 214.968 995.734 214.641 996.853 212.936C997.155 212.474 997.567 211.434 998.205 211.441C999.117 211.451 1000.22 213.519 1000.57 214.14C1001.35 215.505 1001.88 217.062 1001.82 218.65C1001.81 218.891 1001.6 219.721 1001.93 219.737C1002.35 219.757 1002.57 218.275 1002.61 218.005C1002.74 217.1 1002.7 216.175 1002.65 215.261Z" fill="#D51E3C"/>
<path opacity="0.2" d="M963.007 224.302C962.568 223.855 962.397 224.214 962.236 224.654C962.097 225.029 961.968 225.464 961.686 225.511C961.115 225.611 960.769 224.784 960.586 224.407C960.13 223.468 959.79 222.299 959.714 221.257C959.664 220.548 959.47 219.252 960.307 218.861C960.457 218.792 960.582 218.774 960.688 218.793C961.042 218.861 961.167 219.354 961.145 219.74C961.131 219.996 961.01 220.386 961.069 220.633C961.168 221.049 961.412 220.873 961.544 220.547C962.029 219.347 961.84 217.588 960.734 216.76C959.704 215.989 958.365 215.776 957.284 216.578C955.914 217.592 955.531 219.403 955.524 220.992C955.514 222.901 956.026 224.703 956.846 226.422C957.585 227.972 959.025 229.97 961.043 229.747C962.195 229.619 962.826 228.718 963.113 227.7C963.341 226.89 963.667 224.978 963.007 224.302Z" fill="#00B4FF"/>
<path opacity="0.2" d="M1009.88 216.58C1008.8 215.778 1007.46 215.991 1006.43 216.762C1005.33 217.59 1005.14 219.349 1005.62 220.549C1005.75 220.875 1006 221.051 1006.1 220.635C1006.16 220.388 1006.04 219.999 1006.02 219.742C1006 219.356 1006.13 218.863 1006.48 218.795C1006.59 218.775 1006.71 218.794 1006.86 218.863C1007.7 219.256 1007.5 220.55 1007.45 221.259C1007.38 222.3 1007.04 223.47 1006.58 224.409C1006.4 224.786 1006.05 225.613 1005.48 225.513C1005.2 225.466 1005.07 225.03 1004.93 224.656C1004.77 224.216 1004.6 223.856 1004.16 224.304C1003.5 224.979 1003.83 226.892 1004.06 227.702C1004.34 228.72 1004.97 229.62 1006.13 229.749C1008.14 229.972 1009.58 227.974 1010.32 226.424C1011.14 224.704 1011.65 222.902 1011.65 220.994C1011.64 219.404 1011.25 217.594 1009.88 216.58Z" fill="#00B4FF"/>
<path opacity="0.2" d="M987.617 222.86C987.507 222.158 987.332 221.467 987.068 220.819C986.451 219.311 985.596 217.992 985.161 216.396C984.899 215.436 983.882 216.159 983.464 216.639C982.634 217.589 982.098 219.039 982.025 220.354C981.988 221.061 982.117 221.717 981.809 222.375C981.462 222.436 981.335 222.191 981.056 222.47C980.383 223.149 980.556 224.386 980.693 225.261C980.735 225.54 980.795 225.816 980.872 226.077C981.285 227.507 981.982 228.876 983.346 229.375C984.529 229.808 986.242 229.252 986.945 228.036C987.804 226.552 987.879 224.549 987.617 222.86Z" fill="#00B4FF"/>
<path opacity="0.1" d="M985.52 210.798C985.369 210.572 985.109 210.314 984.834 210.311C984.439 210.302 984.186 210.835 983.946 211.113C983.051 212.145 981.925 212.899 981.063 213.976C978.564 217.095 976.942 221.812 979.087 225.672C979.297 226.054 980.278 227.284 980.538 226.349C980.611 226.088 980.188 225.074 980.147 224.75C980.06 224.047 980.042 223.354 980.086 222.676C980.278 219.661 981.784 217.3 983.544 215.115C983.851 214.731 984.574 213.806 985.109 213.832C986.122 213.884 987.024 216.152 987.288 217.044C987.33 217.189 987.487 218.485 987.743 218.285C987.951 218.124 987.964 217.161 987.977 216.936C988.114 214.427 986.783 212.695 985.52 210.798Z" fill="white"/>
<path opacity="0.2" d="M987.529 211.521C986.794 210.538 984.427 207.72 983.253 209.506C982.854 210.112 982.513 210.742 982.044 211.288C980.617 212.956 978.787 214.683 978.469 217.088C978.41 217.522 978.256 218.911 978.765 219.13C979.164 219.303 978.96 218.829 978.941 218.602C978.906 218.17 978.991 217.76 979.139 217.356C979.568 216.189 980.467 215.38 981.334 214.613C981.778 214.219 982.233 213.835 982.634 213.386C983.026 212.947 983.443 211.987 984.18 212.079C984.891 212.166 985.942 213.193 986.422 213.689C987.442 214.742 988.326 216.346 988.542 217.803C988.676 218.705 988.602 219.631 988.46 220.528C988.422 220.775 988.096 221.357 988.245 221.587C988.486 221.964 988.881 221.271 989.034 221.032C989.522 220.262 989.833 219.328 989.941 218.373C990.221 215.888 988.978 213.454 987.529 211.521Z" fill="#FFF064"/>
<path opacity="0.2" d="M990.224 215.779C990.224 215.312 990.154 214.845 990.001 214.403C989.017 211.569 986.723 209.62 985.34 207.025C985.15 206.67 985.035 206.288 984.568 206.301C984.025 206.318 983.632 206.779 983.283 207.142C982.781 207.663 982.298 208.208 981.826 208.752C980.073 210.771 978.169 213.195 978.162 216.007C978.162 216.236 978.185 216.587 978.371 216.726C978.706 216.375 978.833 215.632 979.074 215.192C979.4 214.599 979.776 214.025 980.211 213.503C980.736 212.868 981.372 212.348 982.029 211.853C982.532 211.475 983.139 210.868 983.8 210.809C984.382 210.755 984.972 211.569 985.341 211.907C985.894 212.416 986.313 213.046 986.86 213.559C987.404 214.068 988.02 214.498 988.547 215.028C988.895 215.382 989.208 215.776 989.402 216.237C989.482 216.426 989.747 217.493 990.046 217.144C990.254 216.901 990.224 216.09 990.224 215.779Z" fill="#D51E3C"/>
<path opacity="0.05" d="M978.265 129.166C987.904 129.166 995.719 121.351 995.719 111.712C995.719 102.072 987.904 94.2578 978.265 94.2578C968.625 94.2578 960.811 102.072 960.811 111.712C960.811 121.351 968.625 129.166 978.265 129.166Z" fill="#4B6696"/>
<path opacity="0.02" d="M1134.62 285.519C1144.26 285.519 1152.07 277.705 1152.07 268.065C1152.07 258.426 1144.26 250.611 1134.62 250.611C1124.98 250.611 1117.17 258.426 1117.17 268.065C1117.17 277.705 1124.98 285.519 1134.62 285.519Z" fill="#4B6696"/>
<path opacity="0.02" d="M821.909 285.519C831.549 285.519 839.363 277.705 839.363 268.065C839.363 258.426 831.549 250.611 821.909 250.611C812.27 250.611 804.455 258.426 804.455 268.065C804.455 277.705 812.27 285.519 821.909 285.519Z" fill="#4B6696"/>
<path opacity="0.03" d="M867.706 174.961C877.346 174.961 885.16 167.146 885.16 157.507C885.16 147.867 877.346 140.053 867.706 140.053C858.066 140.053 850.252 147.867 850.252 157.507C850.252 167.146 858.066 174.961 867.706 174.961Z" fill="#4B6696"/>
<path opacity="0.07" d="M1088.82 174.959C1098.46 174.959 1106.28 167.145 1106.28 157.506C1106.28 147.867 1098.46 140.053 1088.82 140.053C1079.18 140.053 1071.37 147.867 1071.37 157.506C1071.37 167.145 1079.18 174.959 1088.82 174.959Z" fill="#4B6696"/>
<path opacity="0.04" d="M917.8 141.328C927.439 141.328 935.254 133.513 935.254 123.874C935.254 114.234 927.439 106.42 917.8 106.42C908.16 106.42 900.346 114.234 900.346 123.874C900.346 133.513 908.16 141.328 917.8 141.328Z" fill="#4B6696"/>
<path opacity="0.05" d="M1122.45 225.052C1132.09 225.052 1139.91 217.239 1139.91 207.599C1139.91 197.96 1132.09 190.146 1122.45 190.146C1112.82 190.146 1105 197.96 1105 207.599C1105 217.239 1112.82 225.052 1122.45 225.052Z" fill="#4B6696"/>
<path opacity="0.02" d="M833.55 226.316C843.189 226.316 851.004 218.502 851.004 208.862C851.004 199.223 843.189 191.408 833.55 191.408C823.91 191.408 816.096 199.223 816.096 208.862C816.096 218.502 823.91 226.316 833.55 226.316Z" fill="#4B6696"/>
<path opacity="0.07" d="M1037.47 140.806C1047.11 140.806 1054.92 132.992 1054.92 123.352C1054.92 113.713 1047.11 105.898 1037.47 105.898C1027.83 105.898 1020.01 113.713 1020.01 123.352C1020.01 132.992 1027.83 140.806 1037.47 140.806Z" fill="#4B6696"/>
<path opacity="0.05" d="M978.263 54.3106C992.992 54.3106 1004.93 42.3705 1004.93 27.6417C1004.93 12.9128 992.992 0.972656 978.263 0.972656C963.534 0.972656 951.594 12.9128 951.594 27.6417C951.594 42.3705 963.534 54.3106 978.263 54.3106Z" fill="url(#paint9_linear)"/>
<path opacity="0.02" d="M1217.17 293.219C1231.9 293.219 1243.84 281.279 1243.84 266.55C1243.84 251.821 1231.9 239.881 1217.17 239.881C1202.44 239.881 1190.5 251.821 1190.5 266.55C1190.5 281.279 1202.44 293.219 1217.17 293.219Z" fill="url(#paint10_linear)"/>
<path opacity="0.02" d="M739.355 293.219C754.083 293.219 766.024 281.279 766.024 266.55C766.024 251.821 754.083 239.881 739.355 239.881C724.626 239.881 712.686 251.821 712.686 266.55C712.686 281.279 724.626 293.219 739.355 293.219Z" fill="#4B6696"/>
<path opacity="0.04" d="M809.331 124.285C824.06 124.285 836 112.345 836 97.6163C836 82.8874 824.06 70.9473 809.331 70.9473C794.602 70.9473 782.662 82.8874 782.662 97.6163C782.662 112.345 794.602 124.285 809.331 124.285Z" fill="#4B6696"/>
<path opacity="0.05" d="M1147.2 124.285C1161.93 124.285 1173.87 112.345 1173.87 97.6163C1173.87 82.8874 1161.93 70.9473 1147.2 70.9473C1132.47 70.9473 1120.53 82.8874 1120.53 97.6163C1120.53 112.345 1132.47 124.285 1147.2 124.285Z" fill="url(#paint11_linear)"/>
<path opacity="0.03" d="M885.874 72.8966C900.603 72.8966 912.543 60.9565 912.543 46.2276C912.543 31.4987 900.603 19.5586 885.874 19.5586C871.145 19.5586 859.205 31.4987 859.205 46.2276C859.205 60.9565 871.145 72.8966 885.874 72.8966Z" fill="#4B6696"/>
<path opacity="0.03" d="M1198.59 200.83C1213.31 200.83 1225.25 188.89 1225.25 174.161C1225.25 159.432 1213.31 147.492 1198.59 147.492C1183.86 147.492 1171.92 159.432 1171.92 174.161C1171.92 188.89 1183.86 200.83 1198.59 200.83Z" fill="url(#paint12_linear)"/>
<path opacity="0.03" d="M757.142 202.756C771.871 202.756 783.811 190.816 783.811 176.087C783.811 161.358 771.871 149.418 757.142 149.418C742.413 149.418 730.473 161.358 730.473 176.087C730.473 190.816 742.413 202.756 757.142 202.756Z" fill="#4B6696"/>
<path opacity="0.05" d="M1068.73 72.0978C1083.45 72.0978 1095.39 60.1577 1095.39 45.4288C1095.39 30.6999 1083.45 18.7598 1068.73 18.7598C1054 18.7598 1042.06 30.6999 1042.06 45.4288C1042.06 60.1577 1054 72.0978 1068.73 72.0978Z" fill="url(#paint13_linear)"/>
<path opacity="0.08" d="M940.161 97.9977C952.123 97.9977 961.82 88.3006 961.82 76.3387C961.82 64.3767 952.123 54.6797 940.161 54.6797C928.199 54.6797 918.502 64.3767 918.502 76.3387C918.502 88.3006 928.199 97.9977 940.161 97.9977Z" fill="#4B6696"/>
<path opacity="0.05" d="M1168.64 249.941C1180.6 249.941 1190.3 240.244 1190.3 228.283C1190.3 216.322 1180.6 206.625 1168.64 206.625C1156.68 206.625 1146.98 216.322 1146.98 228.283C1146.98 240.244 1156.68 249.941 1168.64 249.941Z" fill="#4B6696"/>
<path opacity="0.04" d="M828.864 141.076C838.824 147.698 841.527 161.143 834.904 171.103C828.279 181.064 814.836 183.769 804.877 177.145C794.916 170.521 792.211 157.078 798.836 147.117C805.457 137.156 818.902 134.451 828.864 141.076Z" fill="#4B6696"/>
<path opacity="0.1" d="M1085.87 126.65C1097.83 126.65 1107.53 116.953 1107.53 104.992C1107.53 93.0306 1097.83 83.334 1085.87 83.334C1073.91 83.334 1064.21 93.0306 1064.21 104.992C1064.21 116.953 1073.91 126.65 1085.87 126.65Z" fill="#4B6696"/>
<path opacity="0.06" d="M869.581 127.595C881.543 127.595 891.24 117.898 891.24 105.936C891.24 93.9744 881.543 84.2773 869.581 84.2773C857.619 84.2773 847.922 93.9744 847.922 105.936C847.922 117.898 857.619 127.595 869.581 127.595Z" fill="#4B6696"/>
<path opacity="0.07" d="M1139.04 179.361C1151 179.361 1160.7 169.664 1160.7 157.703C1160.7 145.742 1151 136.045 1139.04 136.045C1127.08 136.045 1117.38 145.742 1117.38 157.703C1117.38 169.664 1127.08 179.361 1139.04 179.361Z" fill="#4B6696"/>
<path opacity="0.02" d="M787.888 251.605C799.849 251.605 809.547 241.908 809.547 229.946C809.547 217.984 799.849 208.287 787.888 208.287C775.926 208.287 766.229 217.984 766.229 229.946C766.229 241.908 775.926 251.605 787.888 251.605Z" fill="#4B6696"/>
<path opacity="0.1" d="M1015.03 97.6715C1026.99 97.6715 1036.69 87.9744 1036.69 76.0125C1036.69 64.0506 1026.99 54.3535 1015.03 54.3535C1003.07 54.3535 993.373 64.0506 993.373 76.0125C993.373 87.9744 1003.07 97.6715 1015.03 97.6715Z" fill="#4B6696"/>
<path opacity="0.05" d="M952.999 154.779C960.931 154.779 967.361 148.349 967.361 140.417C967.361 132.485 960.931 126.055 952.999 126.055C945.067 126.055 938.637 132.485 938.637 140.417C938.637 148.349 945.067 154.779 952.999 154.779Z" fill="#4B6696"/>
<path opacity="0.05" d="M1104.51 255.536C1112.44 255.536 1118.87 249.106 1118.87 241.174C1118.87 233.243 1112.44 226.812 1104.51 226.812C1096.57 226.812 1090.14 233.243 1090.14 241.174C1090.14 249.106 1096.57 255.536 1104.51 255.536Z" fill="#4B6696"/>
<path opacity="0.03" d="M871.241 209.665C879.173 209.665 885.603 203.235 885.603 195.303C885.603 187.371 879.173 180.941 871.241 180.941C863.309 180.941 856.879 187.371 856.879 195.303C856.879 203.235 863.309 209.665 871.241 209.665Z" fill="#4B6696"/>
<path opacity="0.05" d="M1061.58 167.37C1057.18 173.974 1048.27 175.767 1041.67 171.376C1035.06 166.983 1033.27 158.069 1037.66 151.465C1042.05 144.858 1050.97 143.065 1057.57 147.457C1064.18 151.85 1065.97 160.764 1061.58 167.37Z" fill="#4B6696"/>
<path opacity="0.04" d="M906.196 174.406C914.128 174.406 920.558 167.976 920.558 160.044C920.558 152.112 914.128 145.682 906.196 145.682C898.264 145.682 891.834 152.112 891.834 160.044C891.834 167.976 898.264 174.406 906.196 174.406Z" fill="#4B6696"/>
<path opacity="0.05" d="M1084.88 208.732C1092.81 208.732 1099.24 202.302 1099.24 194.37C1099.24 186.438 1092.81 180.008 1084.88 180.008C1076.95 180.008 1070.52 186.438 1070.52 194.37C1070.52 202.302 1076.95 208.732 1084.88 208.732Z" fill="#4B6696"/>
<path opacity="0.02" d="M852.023 256.638C859.956 256.638 866.386 250.208 866.386 242.275C866.386 234.343 859.956 227.912 852.023 227.912C844.091 227.912 837.66 234.343 837.66 242.275C837.66 250.208 844.091 256.638 852.023 256.638Z" fill="#4B6696"/>
<path opacity="0.05" d="M1002.65 154.562C1010.58 154.562 1017.01 148.132 1017.01 140.2C1017.01 132.268 1010.58 125.838 1002.65 125.838C994.713 125.838 988.283 132.268 988.283 140.2C988.283 148.132 994.713 154.562 1002.65 154.562Z" fill="#4B6696"/>
<path opacity="0.02" d="M1118.49 53.4606C1133.13 63.1926 1152.88 59.2206 1162.61 44.5856C1172.34 29.9506 1168.37 10.2006 1153.73 0.469607C1139.1 -9.26339 1119.35 -5.29142 1109.62 9.34558C1099.88 23.9776 1103.86 43.7296 1118.49 53.4606Z" fill="url(#paint14_linear)"/>
<path opacity="0.02" d="M1232.08 130.748C1246.63 120.892 1250.44 101.108 1240.58 86.558C1230.72 72.009 1210.93 68.21 1196.38 78.068C1181.84 87.93 1178.04 107.714 1187.89 122.261C1197.76 136.809 1217.54 140.61 1232.08 130.748Z" fill="url(#paint15_linear)"/>
<path opacity="0.02" d="M1026.04 15.6385C1043.3 18.9545 1059.98 7.65153 1063.29 -9.60647C1066.61 -26.8675 1055.31 -43.5435 1038.05 -46.8575C1020.79 -50.1755 1004.11 -38.8725 1000.79 -21.6135C997.478 -4.35549 1008.78 12.3245 1026.04 15.6385Z" fill="url(#paint16_linear)"/>
</g>
<defs>
<radialGradient id="paint0_radial" cx="0" cy="0" r="1" gradientUnits="userSpaceOnUse" gradientTransform="translate(898.877 307.689) scale(456.22)">
<stop offset="0.618394" stop-color="#334163"/>
<stop offset="0.8032" stop-color="#D51E3C" stop-opacity="0.8"/>
<stop offset="0.9495" stop-color="#FF9827"/>
</radialGradient>
<radialGradient id="paint1_radial" cx="0" cy="0" r="1" gradientUnits="userSpaceOnUse" gradientTransform="translate(983.587 266.334) scale(166.561 165.353)">
<stop stop-color="#212A3F"/>
<stop offset="1" stop-color="#334163" stop-opacity="0.7"/>
</radialGradient>
<linearGradient id="paint2_linear" x1="927.97" y1="233.93" x2="1039.2" y2="233.93" gradientUnits="userSpaceOnUse">
<stop stop-color="#212A3F" stop-opacity="0.8"/>
<stop offset="0.5" stop-color="#212A3F"/>
<stop offset="1" stop-color="#212A3F" stop-opacity="0.8"/>
</linearGradient>
<linearGradient id="paint3_linear" x1="927.97" y1="236.997" x2="1039.2" y2="236.997" gradientUnits="userSpaceOnUse">
<stop stop-color="#36456B" stop-opacity="0.8"/>
<stop offset="0.5" stop-color="#4B6696" stop-opacity="0.87"/>
<stop offset="1" stop-color="#36456B" stop-opacity="0.8"/>
</linearGradient>
<linearGradient id="paint4_linear" x1="928.903" y1="222.966" x2="1038.27" y2="222.966" gradientUnits="userSpaceOnUse">
<stop stop-color="#212A3F" stop-opacity="0.8"/>
<stop offset="0.5" stop-color="#334163" stop-opacity="0.6"/>
<stop offset="1" stop-color="#212A3F" stop-opacity="0.8"/>
</linearGradient>
<linearGradient id="paint5_linear" x1="928.903" y1="222.966" x2="1038.27" y2="222.966" gradientUnits="userSpaceOnUse">
<stop stop-color="#212A3F" stop-opacity="0.8"/>
<stop offset="0.5" stop-color="#334163" stop-opacity="0.6"/>
<stop offset="1" stop-color="#212A3F" stop-opacity="0.8"/>
</linearGradient>
<linearGradient id="paint6_linear" x1="902.422" y1="249.951" x2="1064.75" y2="249.951" gradientUnits="userSpaceOnUse">
<stop stop-color="#3A4B74"/>
<stop offset="0.5" stop-color="#425584"/>
<stop offset="1" stop-color="#394972" stop-opacity="0.8"/>
</linearGradient>
<linearGradient id="paint7_linear" x1="983.587" y1="265.933" x2="983.587" y2="233.259" gradientUnits="userSpaceOnUse">
<stop stop-color="#334163"/>
<stop offset="0.2451" stop-color="#303D5D"/>
<stop offset="1" stop-color="#27334C"/>
</linearGradient>
<linearGradient id="paint8_linear" x1="983.585" y1="259.247" x2="983.585" y2="235.014" gradientUnits="userSpaceOnUse">
<stop stop-color="#334163"/>
<stop offset="0.5007" stop-color="#3A4D76" stop-opacity="0.4993"/>
<stop offset="1" stop-color="#405684" stop-opacity="0"/>
</linearGradient>
<linearGradient id="paint9_linear" x1="963.951" y1="21.9867" x2="1453.28" y2="215.32" gradientUnits="userSpaceOnUse">
<stop stop-color="#D51E3C"/>
<stop offset="1" stop-color="#FFF064"/>
</linearGradient>
<linearGradient id="paint10_linear" x1="914.562" y1="146.991" x2="1403.9" y2="340.324" gradientUnits="userSpaceOnUse">
<stop stop-color="#D51E3C"/>
<stop offset="1" stop-color="#FFF064"/>
</linearGradient>
<linearGradient id="paint11_linear" x1="962.847" y1="24.7803" x2="1452.18" y2="218.114" gradientUnits="userSpaceOnUse">
<stop stop-color="#D51E3C"/>
<stop offset="1" stop-color="#FFF064"/>
</linearGradient>
<linearGradient id="paint12_linear" x1="943.627" y1="73.4296" x2="1432.96" y2="266.763" gradientUnits="userSpaceOnUse">
<stop stop-color="#D51E3C"/>
<stop offset="1" stop-color="#FFF064"/>
</linearGradient>
<linearGradient id="paint13_linear" x1="970.087" y1="6.45646" x2="1459.42" y2="199.79" gradientUnits="userSpaceOnUse">
<stop stop-color="#D51E3C"/>
<stop offset="1" stop-color="#FFF064"/>
</linearGradient>
<linearGradient id="paint14_linear" x1="1244.51" y1="334.582" x2="1133.52" y2="19.593" gradientUnits="userSpaceOnUse">
<stop stop-color="#D51E3C"/>
<stop offset="1" stop-color="#FFF064"/>
</linearGradient>
<linearGradient id="paint15_linear" x1="1289.73" y1="318.651" x2="1178.73" y2="3.657" gradientUnits="userSpaceOnUse">
<stop stop-color="#D51E3C"/>
<stop offset="1" stop-color="#FFF064"/>
</linearGradient>
<linearGradient id="paint16_linear" x1="1165.28" y1="362.491" x2="1054.29" y2="47.5119" gradientUnits="userSpaceOnUse">
<stop stop-color="#D51E3C"/>
<stop offset="1" stop-color="#FFF064"/>
</linearGradient>
</defs>
</svg>
