<svg width="334" height="173" viewBox="0 0 334 173" fill="none" xmlns="http://www.w3.org/2000/svg">
<path fill-rule="evenodd" clip-rule="evenodd" d="M152.82 120.085L164.487 89.6698H168.912L181.293 120.085H176.715L173.197 110.868H160.389L157.09 120.085H152.82ZM161.571 107.595H171.933L168.762 99.1644C167.806 96.6028 167.083 94.4864 166.581 92.815C166.162 94.7966 165.604 96.745 164.902 98.6694L161.571 107.595ZM187.672 89.6698H206.659V120.085H202.624V93.2397H191.707V108.906C191.707 112.092 191.558 114.419 191.26 115.9C190.963 117.387 190.333 118.534 189.377 119.361C188.422 120.183 187.203 120.593 185.738 120.593C184.846 120.593 183.775 120.408 182.532 120.041L183.254 116.473C183.912 116.813 184.479 116.983 184.946 116.983C185.853 116.983 186.538 116.641 186.992 115.954C187.445 115.267 187.67 113.655 187.67 111.106V89.6698H187.672ZM213.215 120.085V89.6698H219.247L226.441 111.198C227.107 113.202 227.587 114.702 227.892 115.701C228.239 114.597 228.784 112.969 229.521 110.822L236.842 89.668H242.229V120.083H238.364V94.6396L229.484 120.083H225.861L217.081 94.1724V120.083H213.215V120.085ZM245.35 120.085L257.017 89.6698H261.442L273.825 120.085H269.245L265.726 110.868H252.919L249.62 120.085H245.35ZM254.101 107.595H264.465L261.292 99.1644C260.335 96.6028 259.613 94.4864 259.111 92.815C258.692 94.7966 258.134 96.745 257.434 98.6694L254.101 107.595ZM281.428 120.085H285.463V93.2397H295.488V89.6698H271.404V93.2397H281.43V120.085H281.428ZM299.854 89.6698H303.891V102.627H311.133C315.883 102.627 319.006 103.506 320.505 105.268C322.001 107.024 322.751 109.019 322.751 111.25C322.751 113.607 321.949 115.668 320.343 117.439C318.743 119.201 315.768 120.087 311.415 120.087H299.854V89.6698ZM303.891 116.645H311.225C313.746 116.645 315.578 116.22 316.712 115.372C317.851 114.521 318.42 113.163 318.42 111.293C318.42 110.026 318.073 108.956 317.386 108.099C316.699 107.242 315.807 106.698 314.717 106.463C313.633 106.23 311.814 106.11 309.265 106.11H303.893V116.645H303.891ZM326.402 89.6698H330.439V120.085H326.402V89.6698Z" fill="#1A1A18"/>
<path fill-rule="evenodd" clip-rule="evenodd" d="M153.432 126.847H161.51V136.822H162.761V141.709H161.154V138.429H152.029V141.709H150.422V136.822H151.449C152.83 134.944 153.491 131.619 153.432 126.847ZM155.061 128.476C154.917 132.236 154.335 135.018 153.322 136.824H159.547V128.476H155.061ZM172.479 136.977C171.749 137.599 171.047 138.033 170.373 138.29C169.699 138.547 168.979 138.674 168.205 138.674C166.934 138.674 165.954 138.364 165.27 137.743C164.585 137.127 164.244 136.333 164.244 135.37C164.244 134.805 164.373 134.288 164.63 133.819C164.892 133.352 165.228 132.979 165.645 132.698C166.066 132.415 166.534 132.199 167.06 132.053C167.446 131.952 168.03 131.858 168.807 131.76C170.39 131.573 171.563 131.346 172.309 131.088C172.318 130.818 172.322 130.648 172.322 130.578C172.322 129.782 172.135 129.222 171.762 128.893C171.262 128.452 170.512 128.232 169.524 128.232C168.597 128.232 167.913 128.397 167.476 128.72C167.032 129.045 166.709 129.616 166.499 130.443L164.578 130.175C164.753 129.353 165.04 128.687 165.442 128.181C165.843 127.676 166.423 127.289 167.182 127.013C167.936 126.742 168.818 126.603 169.815 126.603C170.803 126.603 171.613 126.72 172.233 126.952C172.852 127.187 173.308 127.475 173.598 127.83C173.888 128.184 174.093 128.631 174.211 129.171C174.274 129.505 174.309 130.107 174.309 130.975V133.577C174.309 135.396 174.349 136.545 174.431 137.032C174.508 137.52 174.673 137.985 174.911 138.431H172.859C172.66 138.015 172.534 137.531 172.479 136.977ZM172.323 132.626C171.609 132.916 170.538 133.162 169.11 133.363C168.299 133.479 167.727 133.608 167.391 133.753C167.056 133.898 166.8 134.109 166.617 134.386C166.434 134.665 166.343 134.973 166.343 135.317C166.343 135.832 166.539 136.268 166.938 136.613C167.335 136.96 167.915 137.134 168.678 137.134C169.431 137.134 170.105 136.97 170.696 136.639C171.284 136.31 171.721 135.86 171.995 135.293C172.207 134.851 172.311 134.199 172.311 133.339L172.323 132.626ZM177.391 126.847H180.413L183.473 136.116L186.86 126.847H189.665V138.429H187.702V129.106L184.289 138.429H182.535L179.312 128.659V138.429H177.391V126.847ZM203.69 126.847H205.653V138.429H203.69V126.847ZM192.733 126.847H194.696V131.377H197.175C198.792 131.377 200.035 131.69 200.907 132.318C201.782 132.947 202.216 133.813 202.216 134.918C202.216 135.884 201.852 136.711 201.123 137.398C200.393 138.087 199.23 138.429 197.625 138.429H192.733V126.847ZM194.696 136.822H196.757C197.996 136.822 198.883 136.669 199.413 136.364C199.945 136.059 200.211 135.583 200.211 134.936C200.211 134.436 200.013 133.987 199.623 133.594C199.228 133.202 198.362 133.006 197.019 133.006H194.698V136.822H194.696ZM207.679 126.847H217.052V128.476H213.347V138.429H211.384V128.476H207.679V126.847ZM219.087 142.881L218.864 141.068C219.294 141.182 219.667 141.241 219.986 141.241C220.424 141.241 220.775 141.168 221.034 141.023C221.3 140.878 221.514 140.674 221.682 140.414C221.804 140.216 222.005 139.729 222.28 138.948C222.319 138.839 222.374 138.68 222.456 138.467L218.058 126.849H220.158L222.576 133.536C222.891 134.38 223.17 135.272 223.42 136.209C223.647 135.328 223.915 134.458 224.229 133.603L226.698 126.849H228.659L224.28 138.632C223.808 139.901 223.44 140.77 223.176 141.249C222.827 141.893 222.424 142.364 221.976 142.667C221.521 142.968 220.982 143.118 220.358 143.118C219.975 143.116 219.553 143.037 219.087 142.881ZM235.797 132.639C235.797 130.5 236.392 128.916 237.587 127.885C238.58 127.03 239.796 126.603 241.229 126.603C242.815 126.603 244.117 127.124 245.129 128.166C246.138 129.204 246.642 130.642 246.642 132.476C246.642 133.965 246.418 135.132 245.973 135.982C245.528 136.835 244.876 137.496 244.019 137.969C243.168 138.442 242.233 138.676 241.227 138.676C239.603 138.676 238.296 138.159 237.295 137.119C236.294 136.081 235.797 134.585 235.797 132.639ZM237.805 132.643C237.805 134.122 238.13 135.23 238.776 135.963C239.428 136.7 240.241 137.069 241.227 137.069C242.2 137.069 243.013 136.702 243.661 135.959C244.309 135.221 244.631 134.092 244.631 132.58C244.631 131.152 244.304 130.07 243.654 129.337C243.004 128.6 242.193 128.23 241.227 128.23C240.241 128.23 239.426 128.594 238.776 129.327C238.128 130.061 237.805 131.165 237.805 132.643ZM248.943 142.868V126.847H250.729V128.367C251.15 127.782 251.625 127.337 252.156 127.043C252.685 126.749 253.329 126.602 254.083 126.602C255.073 126.602 255.942 126.855 256.698 127.364C257.453 127.869 258.022 128.587 258.408 129.508C258.792 130.436 258.986 131.448 258.986 132.55C258.986 133.73 258.776 134.794 258.351 135.743C257.928 136.687 257.309 137.413 256.498 137.919C255.689 138.419 254.84 138.674 253.946 138.674C253.292 138.674 252.705 138.536 252.188 138.259C251.667 137.985 251.242 137.638 250.908 137.219V142.868H248.943ZM250.729 132.709C250.729 134.194 251.032 135.289 251.628 136C252.23 136.711 252.962 137.068 253.817 137.068C254.687 137.068 255.431 136.7 256.048 135.961C256.67 135.226 256.978 134.087 256.978 132.543C256.978 131.071 256.678 129.968 256.072 129.237C255.466 128.506 254.744 128.14 253.902 128.14C253.071 128.14 252.332 128.53 251.693 129.307C251.05 130.09 250.729 131.22 250.729 132.709ZM259.837 126.847H269.208V128.476H265.503V138.429H263.54V128.476H259.837V126.847ZM278.398 136.977C277.669 137.599 276.969 138.033 276.293 138.29C275.62 138.547 274.898 138.674 274.125 138.674C272.854 138.674 271.875 138.364 271.19 137.743C270.506 137.127 270.163 136.333 270.163 135.37C270.163 134.805 270.292 134.288 270.549 133.819C270.811 133.352 271.149 132.979 271.565 132.698C271.988 132.415 272.453 132.199 272.98 132.053C273.366 131.952 273.949 131.858 274.727 131.76C276.311 131.573 277.482 131.346 278.23 131.088C278.237 130.818 278.241 130.648 278.241 130.578C278.241 129.782 278.054 129.222 277.681 128.893C277.181 128.452 276.433 128.232 275.443 128.232C274.518 128.232 273.833 128.397 273.395 128.72C272.954 129.045 272.629 129.616 272.418 130.443L270.499 130.175C270.675 129.353 270.959 128.687 271.362 128.181C271.764 127.676 272.344 127.289 273.101 127.013C273.857 126.742 274.739 126.603 275.735 126.603C276.723 126.603 277.532 126.72 278.152 126.952C278.771 127.187 279.227 127.475 279.517 127.83C279.807 128.184 280.012 128.631 280.132 129.171C280.193 129.505 280.228 130.107 280.228 130.975V133.577C280.228 135.396 280.269 136.545 280.35 137.032C280.428 137.52 280.592 137.985 280.83 138.431H278.778C278.583 138.015 278.455 137.531 278.398 136.977ZM278.243 132.626C277.528 132.916 276.457 133.162 275.029 133.363C274.221 133.479 273.646 133.608 273.312 133.753C272.976 133.898 272.721 134.109 272.538 134.386C272.355 134.665 272.263 134.973 272.263 135.317C272.263 135.832 272.459 136.268 272.858 136.613C273.256 136.959 273.835 137.134 274.597 137.134C275.353 137.134 276.025 136.97 276.618 136.639C277.205 136.31 277.641 135.86 277.914 135.293C278.127 134.851 278.232 134.199 278.232 133.339L278.243 132.626ZM284.206 126.847H293.331V138.418H291.368V128.476H286.17V134.238C286.17 135.581 286.127 136.465 286.04 136.896C285.951 137.322 285.713 137.695 285.322 138.013C284.928 138.334 284.361 138.495 283.623 138.495C283.165 138.495 282.637 138.464 282.044 138.408V136.776H282.902C283.309 136.776 283.597 136.735 283.772 136.65C283.948 136.567 284.062 136.434 284.121 136.251C284.177 136.068 284.208 135.477 284.208 134.476V126.847H284.206ZM307.29 126.847H309.253V138.429H307.29V126.847ZM296.333 126.847H298.296V131.377H300.772C302.39 131.377 303.633 131.69 304.507 132.318C305.382 132.947 305.816 133.813 305.816 134.918C305.816 135.884 305.452 136.711 304.721 137.398C303.991 138.087 302.83 138.429 301.225 138.429H296.331V126.847H296.333ZM298.298 136.822H300.359C301.596 136.822 302.484 136.669 303.014 136.364C303.546 136.059 303.81 135.583 303.81 134.936C303.81 134.436 303.615 133.987 303.223 133.594C302.83 133.202 301.962 133.006 300.621 133.006H298.3V136.822H298.298ZM318.979 128.476H314.271V131.4H316.792V132.827H314.271V138.427H312.308V132.827H310.947V131.4H312.308V126.847H318.979V128.476ZM331.467 126.847H333.43V138.429H331.467V126.847ZM320.511 126.847H322.474V131.377H324.951C326.569 131.377 327.812 131.69 328.684 132.318C329.559 132.947 329.993 133.813 329.993 134.918C329.993 135.884 329.629 136.711 328.9 137.398C328.17 138.087 327.007 138.429 325.404 138.429H320.509V126.847H320.511ZM322.474 136.822H324.534C325.773 136.822 326.659 136.669 327.189 136.364C327.721 136.059 327.987 135.583 327.987 134.936C327.987 134.436 327.791 133.987 327.4 133.594C327.005 133.202 326.139 133.006 324.798 133.006H322.476V136.822H322.474Z" fill="#1A1A18"/>
<path fill-rule="evenodd" clip-rule="evenodd" d="M111.588 109.754L97.0273 138.426H126.41L111.588 109.754Z" fill="#D91619"/>
<path fill-rule="evenodd" clip-rule="evenodd" d="M110.313 50.7088L96.5154 0.652344L78.1172 22.7644L110.313 50.7088Z" fill="#01A03B"/>
<path fill-rule="evenodd" clip-rule="evenodd" d="M110.311 50.7088L96.5138 0.652344L91.9316 21.7228L110.311 50.7088Z" fill="#65AF2D"/>
<path fill-rule="evenodd" clip-rule="evenodd" d="M91.9317 21.7228L96.5139 0.652344L78.1211 22.7644L91.9317 21.7228Z" fill="#39A634"/>
<path fill-rule="evenodd" clip-rule="evenodd" d="M111.588 109.754L114.123 132.588L126.411 138.426L111.588 109.754Z" fill="#E54348"/>
<path fill-rule="evenodd" clip-rule="evenodd" d="M114.123 132.59L97.0254 138.428H126.41L114.123 132.59Z" fill="#C81316"/>
<path fill-rule="evenodd" clip-rule="evenodd" d="M86.6719 67.8344L89.948 96.5249L107.279 62.8332C102.399 59.1266 96.9513 56.0683 91.0802 53.793L86.6719 67.8344Z" fill="#DA1A15"/>
<path fill-rule="evenodd" clip-rule="evenodd" d="M66.3543 49.2051C45.2968 49.2051 26.5606 58.6369 14.5488 73.2951L38.0738 76.0986L56.5958 49.8939L86.6733 67.8378L91.0816 53.7926C83.4487 50.834 75.1028 49.2051 66.3543 49.2051Z" fill="#CB1218"/>
<path fill-rule="evenodd" clip-rule="evenodd" d="M38.0766 76.0984L14.548 73.2949C7.62611 81.7516 2.93714 91.946 1.33594 103.073L16.768 93.972L38.0766 76.0984Z" fill="#B71717"/>
<path fill-rule="evenodd" clip-rule="evenodd" d="M16.7679 93.9746L1.33406 103.079C0.931449 105.872 0.722656 108.725 0.722656 111.625C0.722656 114.818 0.975674 117.965 1.46324 121.031L16.7679 121.293V93.9746Z" fill="#A01716"/>
<path fill-rule="evenodd" clip-rule="evenodd" d="M16.7656 121.288L1.46094 121.027C3.66975 134.914 10.6914 147.299 20.8509 156.597L25.9314 151.441L16.7656 121.288Z" fill="#8C1A15"/>
<path fill-rule="evenodd" clip-rule="evenodd" d="M25.9321 151.443L20.8516 156.603C29.1161 164.159 39.4565 169.681 50.9789 172.311L25.9321 151.443Z" fill="#7F1812"/>
<path fill-rule="evenodd" clip-rule="evenodd" d="M25.9336 151.444L50.9785 172.312L54.0035 143.374L48.0827 114.436L25.9336 151.444Z" fill="#B81A18"/>
<path fill-rule="evenodd" clip-rule="evenodd" d="M25.9334 151.444L48.0825 114.436L16.7676 121.291L25.9334 151.444Z" fill="#A91715"/>
<path fill-rule="evenodd" clip-rule="evenodd" d="M48.0804 114.432L16.7637 93.9746V121.289L48.0804 114.432Z" fill="#AE1818"/>
<path fill-rule="evenodd" clip-rule="evenodd" d="M67.0847 140.998L54.0018 143.369L50.9766 172.313L67.0847 140.998Z" fill="#C81316"/>
<path fill-rule="evenodd" clip-rule="evenodd" d="M53.9991 143.375L67.082 141L72.6243 130.22L48.0801 114.436L53.9991 143.375Z" fill="#D91619"/>
<path fill-rule="evenodd" clip-rule="evenodd" d="M89.9514 96.5254L48.0801 114.434L72.6243 130.219L89.9514 96.5254Z" fill="#DE3E40"/>
<path fill-rule="evenodd" clip-rule="evenodd" d="M38.0742 76.0977L48.0823 114.429L89.9516 96.5218L38.0742 76.0977Z" fill="#D72224"/>
<path fill-rule="evenodd" clip-rule="evenodd" d="M16.7676 93.9732L48.0825 114.432L38.078 76.0996L16.7676 93.9732Z" fill="#CB1218"/>
<path fill-rule="evenodd" clip-rule="evenodd" d="M38.0742 76.0984L89.9519 96.5207L86.6737 67.832L38.0742 76.0984Z" fill="#DC3030"/>
<path fill-rule="evenodd" clip-rule="evenodd" d="M38.0625 76.0989L86.6599 67.8325L56.5827 49.8887L38.0625 76.0989Z" fill="#D20E16"/>
</svg>
