<svg width="570" height="176" viewBox="0 0 570 176" fill="none" xmlns="http://www.w3.org/2000/svg">
<path fill-rule="evenodd" clip-rule="evenodd" d="M106.22 72.4907C108.698 72.4907 110.809 70.5058 110.809 67.8495C110.809 65.37 108.698 63.377 106.22 63.377C103.682 63.377 101.562 65.37 101.562 67.8495C101.562 70.5046 103.682 72.4907 106.22 72.4907Z" fill="#D51E3C"/>
<path fill-rule="evenodd" clip-rule="evenodd" d="M33.3055 70.6215L4.04684 100.318L33.1288 161.174L52.3443 171.32L69.6403 159.842C70.0005 159.54 70.4859 159.724 70.9712 159.842L88.0836 171.32L113.17 159.181L136.448 100.318L106.035 69.2893L70.7888 88.0643C70.487 88.2478 70.0017 88.2478 69.6414 88.0643L33.3055 70.6215ZM1.75204 99.3547L32.0985 68.3255C32.4588 67.9664 32.9441 67.9664 33.4306 68.1419L70.1256 85.7109L105.556 66.8179C106.035 66.6343 106.704 66.6343 106.997 67.0014L138.749 99.3547C139.043 99.6576 139.043 100.143 138.926 100.503L115.164 160.386C114.988 160.688 114.796 160.873 114.502 161.048L88.5632 173.606C88.2614 173.79 87.7761 173.79 87.4158 173.606L70.3115 162.38L53.0156 173.606C52.7138 173.79 52.2285 173.966 51.8751 173.606L31.7979 163.041C31.4295 163.041 31.3125 162.858 31.3125 162.497L1.56961 100.678C1.38373 100.318 1.38373 99.6576 1.75204 99.3547Z" fill="#D51E3C"/>
<path fill-rule="evenodd" clip-rule="evenodd" d="M5.37887 98.9948L40.5593 98.6919L32.4598 71.4664L5.37887 98.9948ZM42.2586 100.981L2.71576 101.349C2.41399 101.349 2.04567 101.166 1.75194 100.981C1.38477 100.504 1.38477 99.658 1.75194 99.3551L32.0984 68.3259C32.2831 68.1423 32.4587 68.1423 32.6434 67.9668C33.3054 67.9668 33.9675 68.1423 34.0926 68.8124L43.2224 99.4813C43.2224 99.658 43.2224 99.658 43.2224 99.8347C43.2224 100.504 42.7359 100.981 42.2586 100.981Z" fill="#D51E3C"/>
<path fill-rule="evenodd" clip-rule="evenodd" d="M107.189 68.6291L62.5036 123.199C62.2019 123.744 61.3562 123.744 60.8709 123.384C60.5106 123.081 60.3339 122.537 60.5106 122.052L69.1551 86.7419C69.1551 86.3816 69.3387 86.2566 69.6405 86.0719L105.673 66.8196C106.218 66.519 106.998 66.8196 107.189 67.2981C107.549 67.6653 107.549 68.3262 107.189 68.6291ZM64.0194 117.77L101.561 71.6525L71.3317 87.8882L64.0194 117.77Z" fill="#D51E3C"/>
<path fill-rule="evenodd" clip-rule="evenodd" d="M89.5912 170.65L113.169 159.182L136.446 100.319L106.887 70.3202L96.0579 126.523L89.5912 170.65ZM114.501 161.05L88.5619 173.608C88.2602 173.792 88.0835 173.792 87.8999 173.792C87.2378 173.608 86.7525 173.122 86.9292 172.459C92.2554 136.176 98.0521 103.822 105.012 67.6651C105.012 67.2968 105.189 67.1786 105.372 67.0019C105.858 66.6348 106.513 66.6348 106.998 67.0019L138.75 99.3552C138.927 99.6581 139.044 100.143 138.927 100.504L115.166 160.387C114.988 160.688 114.796 160.873 114.501 161.05Z" fill="#D51E3C"/>
<path fill-rule="evenodd" clip-rule="evenodd" d="M33.3043 162.682C32.7593 163.168 32.0973 163.344 31.6119 163.041C31.1266 162.497 30.9499 161.835 31.3101 161.357L60.6928 121.748C61.1712 121.203 61.8402 121.085 62.3255 121.387C62.5022 121.571 62.8705 121.874 62.8705 122.233L71.3315 160.51C71.4565 161.172 71.1548 161.834 70.4858 162.018C69.8238 162.193 69.3384 161.716 69.1537 161.046L60.9945 125.19L33.3043 162.682Z" fill="#D51E3C"/>
<path fill-rule="evenodd" clip-rule="evenodd" d="M61.5421 123.567C60.8732 123.567 60.335 123.081 60.5129 122.419C60.5129 121.75 61.1749 121.205 61.6603 121.205L94.7283 125.015L137.236 99.171C137.781 98.8107 138.56 98.9955 138.928 99.4808C139.23 100.018 138.928 100.805 138.443 101.166L95.5831 127.363C95.3996 127.363 95.0381 127.547 94.9142 127.547L61.5421 123.567Z" fill="#D51E3C"/>
<path fill-rule="evenodd" clip-rule="evenodd" d="M114.99 159.356C115.35 159.841 115.167 160.687 114.68 161.049C114.143 161.174 113.349 161.048 112.996 160.512L93.8906 126.884C93.5888 126.221 93.7655 125.551 94.4276 125.191C94.9129 124.888 95.583 125.014 95.8848 125.676L114.99 159.356Z" fill="#D51E3C"/>
<path fill-rule="evenodd" clip-rule="evenodd" d="M1.87056 100.982C1.38521 100.504 1.38521 99.8343 1.75238 99.3559C2.04611 98.8108 2.89978 98.6938 3.38513 99.1723L33.7912 124.891L59.3633 121.573L41.2218 100.504C40.7433 100.018 40.9281 99.3559 41.4134 98.8108C41.8919 98.5091 42.5608 98.5091 42.9211 98.9956L62.5049 121.573C62.6885 121.75 62.8732 122.051 62.8732 122.235C62.9914 122.897 62.5049 123.384 61.8429 123.567L33.6145 127.363C33.3059 127.363 32.9456 127.363 32.6438 127.004L1.87056 100.982Z" fill="#D51E3C"/>
<path fill-rule="evenodd" clip-rule="evenodd" d="M33.4288 75.2722C36.0839 75.2722 38.2616 73.2791 38.2616 70.6229C38.2616 67.9667 36.0839 65.8555 33.4288 65.8555C30.7657 65.8555 28.7715 67.9678 28.7715 70.6229C28.7715 73.278 30.7657 75.2722 33.4288 75.2722Z" fill="#D51E3C"/>
<path fill-rule="evenodd" clip-rule="evenodd" d="M136.446 108.285C140.735 108.285 144.244 104.79 144.244 100.503C144.244 96.154 140.735 92.8965 136.446 92.8965C132.276 92.8965 128.766 96.154 128.766 100.503C128.766 104.79 132.276 108.285 136.446 108.285Z" fill="#D51E3C"/>
<path fill-rule="evenodd" clip-rule="evenodd" d="M51.6845 175.484C53.5686 175.484 55.0097 173.969 55.0097 172.284C55.0097 170.475 53.5674 169.143 51.6845 169.143C50.0587 169.143 48.543 170.475 48.543 172.284C48.543 173.967 50.0587 175.484 51.6845 175.484Z" fill="#D51E3C"/>
<path fill-rule="evenodd" clip-rule="evenodd" d="M42.0752 103.159C43.8846 103.159 45.4003 101.651 45.4003 99.8339C45.4003 98.0245 43.8846 96.5156 42.0752 96.5156C40.2588 96.5156 38.75 98.0233 38.75 99.8339C38.75 101.651 40.2588 103.159 42.0752 103.159Z" fill="#D51E3C"/>
<path fill-rule="evenodd" clip-rule="evenodd" d="M61.6581 127.547C64.4979 127.547 66.6825 125.192 66.6825 122.418C66.6825 119.578 64.4979 117.408 61.6581 117.408C58.8768 117.408 56.5234 119.579 56.5234 122.418C56.5234 125.193 58.8768 127.547 61.6581 127.547Z" fill="#D51E3C"/>
<path fill-rule="evenodd" clip-rule="evenodd" d="M94.9102 134.309C99.3828 134.309 103.01 130.69 103.01 126.224C103.01 121.752 99.3828 118.25 94.9102 118.25C90.4376 118.25 86.9277 121.752 86.9277 126.224C86.9277 130.69 90.4376 134.309 94.9102 134.309Z" fill="#D51E3C"/>
<path fill-rule="evenodd" clip-rule="evenodd" d="M4.04782 103.46C5.85727 103.46 7.37298 102.01 7.37298 100.142C7.37298 98.1485 5.85727 96.8164 4.04782 96.8164C2.23837 96.8164 0.722656 98.1485 0.722656 100.142C0.722656 102.01 2.23837 103.46 4.04782 103.46Z" fill="#D51E3C"/>
<path fill-rule="evenodd" clip-rule="evenodd" d="M70.3115 90.3592C72.1221 90.3592 73.6367 88.91 73.6367 87.0409C73.6367 85.2315 72.1209 83.7227 70.3115 83.7227C68.502 83.7227 66.9863 85.2303 66.9863 87.0409C66.9863 88.91 68.502 90.3592 70.3115 90.3592Z" fill="#D51E3C"/>
<path fill-rule="evenodd" clip-rule="evenodd" d="M33.4297 132.013C36.748 132.013 39.2264 129.542 39.2264 126.224C39.2264 123.082 36.7468 120.426 33.4297 120.426C30.2881 120.426 27.625 123.081 27.625 126.224C27.6261 129.542 30.2893 132.013 33.4297 132.013Z" fill="#D51E3C"/>
<path fill-rule="evenodd" clip-rule="evenodd" d="M32.2844 165.339C34.0938 165.339 35.6026 163.831 35.6026 162.02C35.6026 160.203 34.095 158.695 32.2844 158.695C30.4669 158.695 28.9512 160.203 28.9512 162.02C28.9523 163.83 30.4669 165.339 32.2844 165.339Z" fill="#D51E3C"/>
<path fill-rule="evenodd" clip-rule="evenodd" d="M88.086 175.962C89.8966 175.962 91.4042 174.454 91.4042 172.642C91.4042 170.833 89.8966 169.324 88.086 169.324C86.2696 169.324 84.7539 170.832 84.7539 172.642C84.7528 174.453 86.2685 175.962 88.086 175.962Z" fill="#D51E3C"/>
<path fill-rule="evenodd" clip-rule="evenodd" d="M114.017 164.676C116.68 164.676 118.791 162.5 118.791 159.842C118.791 157.187 116.68 155.076 114.017 155.076C111.354 155.076 109.176 157.187 109.176 159.842C109.176 162.499 111.354 164.676 114.017 164.676Z" fill="#D51E3C"/>
<path fill-rule="evenodd" clip-rule="evenodd" d="M31.1289 162.02L32.2832 126.223H34.6377L33.4306 162.02H31.1289Z" fill="#D51E3C"/>
<path fill-rule="evenodd" clip-rule="evenodd" d="M32.9453 126.039L41.7734 99.4798L70.1268 86.5566L70.4871 87.5859L42.4355 100.142L33.7921 126.34L32.9453 126.039Z" fill="#D51E3C"/>
<path fill-rule="evenodd" clip-rule="evenodd" d="M69.8242 160.513L94.7262 126.039L95.3963 126.524L70.671 161.05L69.8242 160.513Z" fill="#D51E3C"/>
<path fill-rule="evenodd" clip-rule="evenodd" d="M119.336 4.63956L70.788 61.8673C70.4862 62.3526 69.6406 62.3526 69.1552 62.0509C68.7949 61.6837 68.7949 61.2052 68.7949 60.8358L76.292 23.8907C76.292 23.3537 76.6523 23.2297 76.961 23.053L118.005 3.00567C118.49 2.64539 119.159 2.82897 119.462 3.49102C119.821 3.97637 119.636 4.33665 119.336 4.63956ZM90.7401 34.8242L113.833 7.47823L78.4687 24.8625L72.0019 56.8577L90.7401 34.8242Z" fill="#0E9983"/>
<path fill-rule="evenodd" clip-rule="evenodd" d="M45.2209 29.5121L67.3359 56.5564L64.3194 39.1124L45.2209 29.5121ZM68.3066 61.3812L40.0782 26.6723C39.7765 26.3705 39.5929 25.8852 39.7765 25.3482C40.0782 24.8629 40.7403 24.6793 41.4092 24.8629L65.8339 37.1206C66.1277 37.2961 66.496 37.6644 66.496 38.1429L70.3065 60.5436C70.4832 60.8373 70.3065 61.3812 69.9978 61.6841C69.454 62.0513 68.7919 62.0513 68.3066 61.3812Z" fill="#0E9983"/>
<path fill-rule="evenodd" clip-rule="evenodd" d="M69.457 62.1686L47.3937 51.9062C47.0919 51.7295 46.7247 51.4209 46.7247 51.0606L39.7795 26.1873C39.5959 25.7088 39.8977 25.0387 40.5598 24.8632C41.1048 24.6796 41.589 24.8632 41.7737 25.2234L70.9727 60.3591C71.333 60.8365 71.333 61.6833 70.671 62.0516C70.3107 62.3522 69.8253 62.3522 69.457 62.1686ZM48.9105 49.9121L65.8381 57.8865L43.5832 31.019L48.9105 49.9121Z" fill="#0E9983"/>
<path fill-rule="evenodd" clip-rule="evenodd" d="M74.9588 57.0425L97.8758 44.6012L113.472 11.5848L74.9588 57.0425ZM99.2079 46.4118L70.4873 62.052C70.1271 62.3538 69.6417 62.3538 69.1552 62.052C68.7949 61.507 68.6767 60.8369 68.9705 60.3596L117.46 3.30743C117.827 2.82896 118.489 2.6454 118.975 3.00568C119.461 3.13075 119.821 3.97636 119.461 4.45483L99.8688 45.9322C99.6852 46.11 99.5682 46.2936 99.2079 46.4118Z" fill="#0E9983"/>
<path fill-rule="evenodd" clip-rule="evenodd" d="M77.4394 27.3347C79.3154 27.3347 80.7645 25.8855 80.7645 24.0164C80.7645 22.207 79.3154 20.7578 77.4394 20.7578C75.6299 20.7578 74.1211 22.207 74.1211 24.0164C74.1211 25.8867 75.6299 27.3347 77.4394 27.3347Z" fill="#0E9983"/>
<path fill-rule="evenodd" clip-rule="evenodd" d="M65.3506 41.6435C67.16 41.6435 68.6757 40.1358 68.6757 38.3252C68.6757 36.4492 67.16 35 65.3506 35C63.5331 35 62.0254 36.4503 62.0254 38.3252C62.0254 40.1358 63.5331 41.6435 65.3506 41.6435Z" fill="#0E9983"/>
<path fill-rule="evenodd" clip-rule="evenodd" d="M86.5674 44.7829C88.4434 44.7829 89.8925 43.2752 89.8925 41.6425C89.8925 39.6495 88.4422 38.1406 86.5674 38.1406C84.751 38.1406 83.2422 39.6483 83.2422 41.6425C83.2422 43.2752 84.7499 44.7829 86.5674 44.7829Z" fill="#0E9983"/>
<path fill-rule="evenodd" clip-rule="evenodd" d="M40.927 29.328C42.7364 29.328 44.2521 27.8788 44.2521 26.0108C44.2521 24.0167 42.7364 22.6914 40.927 22.6914C39.1095 22.6914 37.5938 24.0155 37.5938 26.0108C37.5938 27.8788 39.1095 29.328 40.927 29.328Z" fill="#0E9983"/>
<path fill-rule="evenodd" clip-rule="evenodd" d="M47.882 54.0849C49.758 54.0849 51.2003 52.5691 51.2003 50.7597C51.2003 48.9502 49.758 47.4414 47.882 47.4414C46.0645 47.4414 44.5488 48.9491 44.5488 50.7597C44.5488 52.5703 46.0645 54.0849 47.882 54.0849Z" fill="#0E9983"/>
<path fill-rule="evenodd" clip-rule="evenodd" d="M98.7236 48.7635C100.54 48.7635 102.049 47.2558 102.049 45.4464C102.049 43.6358 100.541 42.127 98.7236 42.127C96.913 42.127 95.3984 43.6346 95.3984 45.4464C95.3984 47.2558 96.9141 48.7635 98.7236 48.7635Z" fill="#0E9983"/>
<path fill-rule="evenodd" clip-rule="evenodd" d="M118.489 7.29464C120.307 7.29464 121.814 5.78695 121.814 3.9775C121.814 2.16117 120.307 0.652344 118.489 0.652344C116.68 0.652344 115.164 2.16002 115.164 3.9775C115.164 5.78581 116.68 7.29464 118.489 7.29464Z" fill="#0E9983"/>
<path fill-rule="evenodd" clip-rule="evenodd" d="M85.4228 42.1283L76.293 24.6787L78.4707 23.5312L87.5995 40.9809L85.4228 42.1283Z" fill="#0E9983"/>
<path fill-rule="evenodd" clip-rule="evenodd" d="M69.3407 65.0105C71.6355 65.0105 73.6377 63.0163 73.6377 60.7215C73.6377 58.1823 71.6367 56.3809 69.3407 56.3809C66.8027 56.3809 64.9863 58.1823 64.9863 60.7215C64.9852 63.0163 66.8027 65.0105 69.3407 65.0105Z" fill="#0E9983"/>
<path fill-rule="evenodd" clip-rule="evenodd" d="M98.5371 45.9325L86.4492 41.9452L86.5674 41.0996L98.8974 45.0868L98.5371 45.9325Z" fill="#0E9983"/>
<path fill-rule="evenodd" clip-rule="evenodd" d="M47.5801 50.3981L65.1709 37.9648L65.6482 38.6269L48.0585 51.2437L47.5801 50.3981Z" fill="#0E9983"/>
<path fill-rule="evenodd" clip-rule="evenodd" d="M218.49 61.2056H208.515L206.153 68.8129H203.012L210.691 45.4484C210.809 44.9699 211.177 44.7852 211.832 44.7852H215.164C215.642 44.7852 215.944 44.9699 216.128 45.4484L223.927 68.8129H220.778L218.49 61.2056ZM217.635 58.5494L214.495 48.9491C214.31 48.4041 214.135 47.742 213.95 47.08H212.986L212.316 48.9491L209.359 58.5494H217.635ZM241.038 51.7292V68.8129H238.074V54.0848H234.389C233.726 54.0848 233.241 54.2019 232.939 54.5621C232.571 54.8651 232.395 55.4089 232.27 56.1961C231.725 60.8373 231.064 63.6782 230.578 65.1859C229.732 67.6655 227.915 68.9965 225.259 68.9965L224.957 66.6339C225.803 66.5169 226.465 66.1566 226.95 65.8537C227.428 65.4934 227.738 65.0092 227.914 64.3391C228.584 62.8372 228.944 60.0582 229.429 55.7095C229.613 54.3854 230.091 53.4148 230.76 52.7527C231.422 52.0907 232.394 51.7292 233.902 51.7292H241.038ZM262.616 51.7292H265.816C266.493 51.7292 266.788 52.0895 266.788 52.8778L267.633 68.8129H264.8L264.131 54.0848H263.645L259.172 65.973C258.989 66.5181 258.635 66.8175 257.958 66.8175H255.67C255.185 66.8175 254.699 66.5169 254.515 65.973L250.168 54.0848H249.682L249.02 68.8129H246.173L247.019 52.8778C247.019 52.0895 247.386 51.7292 248.175 51.7292H251.191C251.853 51.7292 252.162 52.0895 252.338 52.7527L255.848 62.5297C256.15 63.1986 256.334 64.0374 256.635 65.0092H257.18C257.475 63.8607 257.851 63.015 257.851 62.5297L261.469 52.7527C261.652 52.0907 261.953 51.7292 262.616 51.7292ZM272.775 54.2007L272.598 52.0895C275.74 51.5445 278.396 51.4206 280.749 51.4206C282.75 51.4206 284.259 51.7292 285.23 52.568C286.075 53.4136 286.561 54.8639 286.561 56.7399V68.8117H284.258L283.898 65.9719C283.052 66.8164 282.088 67.4865 280.941 68.1416C279.61 68.8117 278.278 68.9953 276.947 68.9953C275.261 68.9953 274.106 68.6281 273.26 67.8479C272.296 67.0011 271.746 65.8537 271.746 64.338V62.5285C271.746 61.2044 272.296 60.1741 273.077 59.395C273.922 58.7249 275.07 58.1799 276.586 58.1799H283.605V56.7388C283.605 55.7084 283.413 54.8628 282.928 54.561C282.383 54.0837 281.426 53.9001 280.272 53.9001C278.579 53.9012 276.101 54.0848 272.775 54.2007ZM274.776 62.8384V64.0385C274.776 64.8256 275.07 65.4946 275.438 65.8549C275.916 66.3333 276.585 66.5181 277.431 66.5181C278.395 66.5181 279.424 66.3333 280.573 65.8549C281.602 65.4946 282.749 64.8256 283.604 64.0385V60.5436H277.071C275.615 60.7203 274.776 61.3812 274.776 62.8384ZM305.307 54.2007H299.194V68.8117H296.17V54.2007H290.064V51.7292H305.307V54.2007ZM311.95 58.3646H315.938C318.424 58.3646 320.118 58.7249 321.08 59.5132C322.103 60.3588 322.588 61.6841 322.588 63.6771C322.588 65.6701 322.102 67.0011 321.08 67.8491C320.292 68.6293 318.601 68.9965 316.423 68.9965C313.281 68.9965 310.987 68.9965 309.169 68.8129H308.992V51.7292H311.95V58.3646ZM328.576 51.7292V68.8129H325.618V51.7292H328.576ZM311.95 66.6339H315.938C317.27 66.6339 318.3 66.5169 318.784 65.973C319.27 65.6701 319.63 64.8245 319.63 63.5016C319.63 62.353 319.27 61.6841 318.784 61.2056C318.299 60.8373 317.27 60.5436 315.938 60.5436H311.95V66.6339ZM349.859 59.8735V60.0582C350.345 60.0582 351.007 60.1764 351.31 60.36C351.971 60.5436 352.339 60.7202 352.824 61.022C353.185 61.5074 353.486 61.8676 353.854 62.1694C354.148 62.7144 354.516 63.1986 354.81 64.0385C355.178 64.8256 355.479 65.4946 355.663 65.9742C355.966 66.6351 356.325 67.4887 356.627 68.814H353.662C353.303 67.6666 353.001 67.0034 352.824 66.6362C352.633 66.1589 352.339 65.6724 351.971 64.8268C351.852 64.1648 351.485 63.6794 351.31 63.5038C351.19 63.2009 350.823 62.8407 350.521 62.532C350.345 62.0535 349.976 61.87 349.676 61.6864C349.316 61.5097 349.014 61.3834 348.647 61.3834C348.161 61.2079 347.866 61.0243 347.323 61.0243H347.197H344.836C344.836 61.8699 345.027 62.3553 345.027 62.7167V68.8151H342.063V51.7315H345.027V56.7422C345.027 57.4031 344.836 58.0663 344.659 58.8534H347.197C347.986 58.8534 348.648 58.7284 349.192 58.3669C349.861 58.0663 350.346 57.5224 350.824 56.8604C351.311 56.0721 351.678 55.4112 351.972 54.748C352.34 54.0871 352.634 53.0556 353.187 51.7315H356.327C355.968 52.5702 355.842 53.0556 355.665 53.4171C355.482 53.7188 355.298 54.2041 355.18 54.748C354.813 55.4112 354.635 55.7119 354.518 56.0721C354.334 56.1972 354.151 56.5586 353.973 57.044C353.663 57.5224 353.487 57.8896 353.304 58.0674C353.186 58.1845 353.002 58.3681 352.634 58.7284C352.34 59.0313 351.972 59.2149 351.854 59.3984C351.486 59.3984 351.192 59.5166 350.824 59.6922C350.521 59.6899 350.16 59.8735 349.859 59.8735ZM360.799 54.2007L360.438 52.0895C363.639 51.5445 366.42 51.4206 368.781 51.4206C370.774 51.4206 372.105 51.7292 373.077 52.568C374.101 53.4136 374.585 54.8639 374.585 56.7399V68.8117H372.105L371.738 65.9719C371.076 66.8164 369.929 67.4865 368.781 68.1416C367.633 68.8117 366.302 68.9953 364.787 68.9953C363.279 68.9953 362.132 68.6281 361.101 67.8479C360.137 67.0011 359.776 65.8537 359.776 64.338V62.5285C359.776 61.2044 360.137 60.1741 360.983 59.395C361.772 58.7249 362.976 58.1799 364.427 58.1799H371.629V56.7388C371.437 55.7084 371.261 54.8628 370.775 54.561C370.29 54.0837 369.451 53.9001 368.112 53.9001C366.419 53.9012 363.94 54.0848 360.799 54.2007ZM362.8 62.8384V64.0385C362.8 64.8256 362.975 65.4946 363.462 65.8549C363.764 66.3333 364.426 66.5181 365.455 66.5181C366.301 66.5181 367.272 66.3333 368.42 65.8549C369.627 65.4946 370.596 64.8256 371.628 64.0385V60.5436H364.976C363.462 60.7203 362.8 61.3812 362.8 62.8384ZM393.993 51.7292V68.8129H391.028V54.0848H387.401C386.556 54.0848 386.077 54.2019 385.709 54.5621C385.399 54.8651 385.223 55.4089 385.047 56.1961C384.561 60.8373 384.075 63.6782 383.414 65.1859C382.56 67.6655 380.868 68.9965 378.087 68.9965L377.726 66.6339C378.757 66.5169 379.426 66.1566 379.904 65.8537C380.206 65.4934 380.566 65.0092 380.868 64.3391C381.413 62.8372 381.897 60.0582 382.382 55.7095C382.559 54.3854 382.869 53.4148 383.531 52.7527C384.377 52.0907 385.399 51.7292 386.738 51.7292H393.993ZM399.673 54.2007L399.312 52.0895C402.512 51.5445 405.301 51.4206 407.655 51.4206C409.648 51.4206 410.98 51.7292 411.952 52.568C412.974 53.4136 413.275 54.8639 413.275 56.7399V68.8117H411.098L410.62 65.9719C409.951 66.8164 408.811 67.4865 407.655 68.1416C406.448 68.8117 405.117 68.9953 403.668 68.9953C402.152 68.9953 400.827 68.6281 399.981 67.8479C399.011 67.0011 398.65 65.8537 398.65 64.338V62.5285C398.65 61.2044 399.011 60.1741 399.849 59.395C400.643 58.7249 401.85 58.1799 403.3 58.1799H410.436V56.7388C410.436 55.7084 410.142 54.8628 409.648 54.561C409.111 54.0837 408.325 53.9001 406.993 53.9001C405.3 53.9012 402.813 54.0848 399.673 54.2007ZM401.666 62.8384V64.0385C401.666 64.8256 401.849 65.4946 402.335 65.8549C402.638 66.3333 403.298 66.5181 404.329 66.5181C405.116 66.5181 406.145 66.3333 407.294 65.8549C408.441 65.4946 409.463 64.8256 410.434 64.0385V60.5436H403.784C402.335 60.7203 401.666 61.3812 401.666 62.8384ZM431.534 66.3333L431.901 68.3264C430.203 68.8129 428.207 69.1731 426.09 69.1731C423.074 69.1731 420.896 68.5099 419.742 67.179C418.594 65.8549 417.931 63.5015 417.931 60.1752C417.931 57.0417 418.594 54.7457 419.742 53.4136C421.073 51.9059 423.074 51.4206 426.09 51.4206C428.208 51.4206 430.086 51.5445 431.534 52.0895L431.049 54.0837C429.542 53.9001 428.091 53.9001 426.577 53.9001C424.583 53.9001 423.074 54.2007 422.22 55.223C421.44 56.0687 421.073 57.8862 421.073 60.1741C421.073 62.7121 421.44 64.338 422.22 65.3672C423.074 66.1555 424.398 66.6328 426.577 66.6328C428.394 66.6339 430.086 66.5181 431.534 66.3333ZM438.846 58.3646H442.841C445.32 58.3646 447.012 58.7249 447.984 59.5132C449.012 60.3588 449.492 61.6841 449.492 63.6771C449.492 65.6701 449.012 67.0011 447.984 67.8491C447.137 68.6293 445.496 68.9965 443.327 68.9965C440.185 68.9965 437.881 68.9965 436.012 68.8129V51.7292H438.845V58.3646H438.846ZM455.658 51.7292V68.8129H452.641V51.7292H455.658ZM438.846 66.6339H442.841C444.165 66.6339 445.195 66.5169 445.681 65.973C446.168 65.6701 446.528 64.8245 446.528 63.5016C446.528 62.353 446.168 61.6841 445.681 61.2056C445.195 60.8373 444.167 60.5436 442.841 60.5436H438.846V66.6339Z" fill="#334163"/>
<path fill-rule="evenodd" clip-rule="evenodd" d="M208.517 151.934H213.651C216.616 151.934 218.61 152.421 219.816 153.384C220.964 154.532 221.449 156.408 221.449 159.056C221.449 160.513 221.449 161.837 221.147 162.683C220.78 163.705 220.125 164.367 219.455 164.854C218.609 165.339 217.822 165.7 216.8 165.7C215.946 165.823 214.615 166.001 213.166 166.001C210.326 166.001 207.847 165.825 205.492 165.7V141.613C208.03 141.43 210.502 141.43 212.805 141.43C215.284 141.43 217.822 141.43 220.302 141.613L219.941 144.093H208.517V151.934ZM278.281 163.83H276.589C276.405 163.463 276.345 163.102 276.279 162.859C276.103 162.381 275.742 161.719 275.263 160.874C274.955 160.028 274.586 159.541 274.411 159.181C274.108 158.878 273.749 158.393 273.262 158.033C272.96 157.547 272.417 157.371 271.931 157.187C271.446 157.069 270.967 156.885 270.298 156.885V156.71C270.6 156.71 271.086 156.525 271.446 156.525C271.748 156.407 272.115 156.407 272.298 156.223C272.6 156.04 272.96 155.863 273.079 155.561C273.447 155.377 273.624 155.076 273.924 154.892C273.924 154.715 274.293 154.414 274.411 153.869C274.778 153.567 274.956 153.266 275.072 152.905C275.263 152.721 275.44 152.236 275.617 151.574C275.742 151.087 276.103 150.61 276.103 150.242C276.279 149.948 276.405 149.404 276.765 148.616H273.749C273.262 150.066 272.777 150.912 272.417 151.749C272.298 152.419 271.748 153.082 271.446 153.744C270.784 154.413 270.298 154.891 269.82 155.193C269.268 155.56 268.481 155.738 267.635 155.738H265.281C265.464 154.892 265.464 154.414 265.464 153.745V148.616H262.5V165.7H265.464V159.725C265.464 159.358 265.464 158.696 265.281 158.033H267.635H267.819C268.304 158.033 268.791 158.033 269.15 158.216C269.636 158.393 269.938 158.511 270.114 158.511C270.482 158.695 270.784 159.056 271.086 159.357C271.446 159.724 271.631 160.027 271.748 160.386C272.115 160.688 272.298 161.048 272.6 161.836C272.96 162.498 273.079 163.167 273.262 163.529C273.447 163.83 273.749 164.676 274.108 165.7H275.742V169.142H278.28V163.83H278.281ZM208.517 154.414V163.345C209.362 163.345 211.18 163.345 213.651 163.345C215.462 163.345 216.801 163.042 217.462 162.499C218.124 161.837 218.492 160.689 218.492 158.879C218.492 157.187 218.124 155.863 217.462 155.194C216.8 154.715 215.461 154.414 213.651 154.414H208.517ZM226.099 151.273L225.923 149.102C229.064 148.432 231.727 148.257 234.089 148.257C236.082 148.257 237.591 148.616 238.378 149.404C239.408 150.242 239.894 151.751 239.894 153.745V165.7H237.591L237.23 162.859C236.385 163.704 235.414 164.492 234.267 165.036C232.943 165.698 231.61 166 230.279 166C228.587 166 227.433 165.522 226.469 164.676C225.615 163.83 225.145 162.683 225.145 161.174V159.357C225.145 158.033 225.615 157.069 226.469 156.223C227.256 155.561 228.278 155.194 229.919 155.194H236.93V153.745C236.93 152.596 236.746 151.934 236.268 151.39C235.717 150.912 234.753 150.728 233.428 150.728C231.727 150.728 229.433 150.913 226.099 151.273ZM228.101 159.843V160.874C228.101 161.719 228.277 162.381 228.763 162.859C229.248 163.168 229.917 163.529 230.764 163.529C231.727 163.529 232.758 163.168 233.905 162.859C234.928 162.381 235.899 161.719 236.929 160.874V157.548H230.396C228.946 157.548 228.101 158.394 228.101 159.843ZM258.153 163.168L258.329 165.154C256.636 165.823 254.702 166 252.524 166C249.684 166 247.507 165.338 246.359 164.014C245.028 162.683 244.543 160.387 244.543 157.187C244.543 153.869 245.028 151.574 246.359 150.242C247.507 148.919 249.684 148.257 252.524 148.257C254.82 148.257 256.636 148.432 258.152 149.102L257.666 150.912C256.151 150.728 254.517 150.728 253.008 150.728C251.015 150.728 249.684 151.273 248.838 152.059C248.049 153.083 247.505 154.714 247.505 157.187C247.505 159.725 248.05 161.359 248.712 162.196C249.501 163.168 251.015 163.529 253.008 163.529C255.005 163.53 256.638 163.53 258.153 163.168ZM281.238 151.273L281.062 149.102C284.262 148.432 286.867 148.257 289.228 148.257C291.213 148.257 292.73 148.616 293.694 149.404C294.548 150.242 295.025 151.751 295.025 153.745V165.7H292.73L292.37 162.859C291.524 163.704 290.552 164.492 289.405 165.036C288.074 165.698 286.743 166 285.418 166C283.725 166 282.571 165.522 281.607 164.676C280.754 163.83 280.275 162.683 280.275 161.174V159.357C280.275 158.033 280.754 157.069 281.607 156.223C282.388 155.561 283.608 155.194 285.051 155.194H292.068V153.745C292.068 152.596 291.885 151.934 291.399 151.39C290.854 150.912 289.891 150.728 288.743 150.728C287.051 150.728 284.564 150.913 281.238 151.273ZM283.239 159.843V160.874C283.239 161.719 283.607 162.381 283.901 162.859C284.387 163.168 285.049 163.529 285.894 163.529C286.866 163.529 287.888 163.168 289.044 162.859C290.066 162.381 291.213 161.719 292.067 160.874V157.548H285.592C284.079 157.548 283.239 158.394 283.239 159.843ZM302.824 148.617L303.191 151.391C304.155 150.426 305.177 149.581 306.516 149.103C307.657 148.433 308.995 148.258 310.143 148.258C312.32 148.258 313.829 148.92 314.615 150.428C315.638 151.935 316.122 154.231 316.122 157.189C316.122 160.514 315.453 162.685 314.489 164.016C313.466 165.34 311.834 166.002 309.655 166.002C307.301 166.002 305.308 165.524 303.307 164.369C303.49 165.34 303.49 166.488 303.49 167.82V172.645H300.526V148.618H302.824V148.617ZM303.493 153.384V162.499C305.847 163.168 307.658 163.529 308.812 163.529C310.505 163.529 311.475 163.042 311.954 162.196C312.623 161.359 312.983 159.725 312.983 157.187C312.983 154.892 312.623 153.266 312.137 152.237C311.475 151.273 310.622 150.729 309.172 150.729C307.658 150.728 305.663 151.751 303.493 153.384ZM336.746 148.617H339.894C340.732 148.617 341.033 149.103 341.033 149.766L341.704 165.701H339.04L338.378 150.913H337.709L333.42 162.86C333.237 163.53 332.751 163.832 332.206 163.832H329.911C329.425 163.832 328.94 163.53 328.763 162.86L324.408 150.913H323.739L323.077 165.701H320.422L321.084 149.766C321.084 149.103 321.451 148.617 322.289 148.617H325.438C325.924 148.617 326.285 148.92 326.402 149.581L330.088 159.358C330.213 160.028 330.582 160.874 330.757 161.837H331.244C331.538 160.689 331.906 159.843 332.081 159.358L335.532 149.581C335.715 148.919 336.202 148.617 336.746 148.617ZM347.015 151.273L346.656 149.102C349.863 148.432 352.636 148.257 355.004 148.257C356.99 148.257 358.507 148.616 359.286 149.404C360.315 150.242 360.801 151.751 360.801 153.745V165.7H358.506L358.146 162.859C357.3 163.704 356.328 164.492 355.004 165.036C353.857 165.698 352.526 166 351.01 166C349.495 166 348.164 165.522 347.325 164.676C346.353 163.83 345.994 162.683 345.994 161.174V159.357C345.994 158.033 346.353 157.069 347.2 156.223C347.988 155.561 349.194 155.194 350.651 155.194H357.846V153.745C357.846 152.596 357.479 151.934 356.993 151.39C356.514 150.912 355.668 150.728 354.338 150.728C352.636 150.728 350.163 150.913 347.015 151.273ZM349.016 159.843V160.874C349.016 161.719 349.193 162.381 349.678 162.859C349.98 163.168 350.65 163.529 351.679 163.529C352.525 163.529 353.488 163.168 354.636 162.859C355.843 162.381 356.812 161.719 357.844 160.874V157.548H351.192C349.679 157.548 349.016 158.394 349.016 159.843ZM378.878 163.168L379.245 165.154C377.553 165.823 375.56 166 373.441 166C370.416 166 368.423 165.338 367.092 164.014C365.937 162.683 365.458 160.387 365.458 157.187C365.458 153.869 365.937 151.574 367.276 150.242C368.423 148.919 370.6 148.257 373.441 148.257C375.56 148.257 377.428 148.432 378.877 149.102L378.575 150.912C376.89 150.728 375.434 150.728 373.925 150.728C371.924 150.728 370.415 151.273 369.629 152.059C368.967 153.083 368.422 154.714 368.422 157.187C368.422 159.725 368.967 161.359 369.629 162.196C370.416 163.168 371.924 163.529 373.925 163.529C375.737 163.53 377.428 163.53 378.878 163.168ZM386.19 155.194H390.185C392.663 155.194 394.54 155.561 395.32 156.408C396.356 157.188 396.835 158.512 396.835 160.513C396.835 162.499 396.356 164.015 395.504 164.677C394.54 165.523 392.841 165.825 390.67 165.825C387.705 165.825 385.227 165.825 383.417 165.701V148.617H386.19V155.194ZM403 148.617V165.701H399.983V148.617H403ZM386.19 163.53H390.185C391.699 163.53 392.539 163.346 393.031 162.86C393.517 162.501 393.877 161.72 393.877 160.513C393.877 159.358 393.693 158.512 393.207 158.217C392.538 157.732 391.699 157.548 390.183 157.548H386.189V163.53H386.19Z" fill="#818285"/>
<path fill-rule="evenodd" clip-rule="evenodd" d="M231.725 128.334L231.063 120.425H205.006V84.085H212.988V114.569H225.142V84.085H233.057V114.569H237.406V128.333H231.725V128.334ZM267.273 120.544H260.321V106.963C260.321 105.816 260.504 104.485 260.623 102.799H260.321C259.961 104.006 259.29 105.33 258.511 106.661L248.711 120.425H242.061V94.3473H248.837V108.286C248.837 109.315 248.711 110.581 248.711 112.088C249.198 110.949 249.867 109.8 250.705 108.653L260.623 94.3462H267.273V120.544ZM293.692 83.5996V93.8631C298.828 94.2303 302.52 95.3754 304.639 97.4877C306.816 99.6586 307.839 102.976 307.839 107.448C307.839 111.915 306.816 115.232 304.639 117.225C302.52 119.403 298.828 120.544 293.692 121.087V130.504H286.74V121.087C281.722 120.542 278.095 119.403 275.917 117.225C273.747 115.232 272.598 111.914 272.598 107.448C272.598 102.977 273.747 99.6586 275.917 97.4877C278.094 95.3754 281.722 94.2303 286.74 93.8631V83.5996H293.692ZM287.048 115.232V99.4808C284.386 99.6575 282.569 100.318 281.605 101.652C280.576 102.799 280.097 104.668 280.097 107.448C280.097 110.098 280.576 112.091 281.605 113.239C282.568 114.444 284.385 115.114 287.048 115.232ZM293.514 99.4808V115.232C296.17 115.114 297.87 114.444 298.826 113.239C300.04 112.091 300.341 110.098 300.341 107.448C300.341 104.668 300.039 102.799 298.826 101.652C297.87 100.32 296.171 99.6586 293.514 99.4808ZM319.631 94.3484L320.293 98.3265C321.265 97.0024 322.773 95.855 324.766 95.0105C326.583 94.2303 328.576 93.6864 330.577 93.6864C336.559 93.6864 339.524 98.5101 339.524 107.625C339.524 112.576 338.728 116.078 337.228 118.071C335.528 120.242 333.049 121.087 329.599 121.087C326.097 121.087 323.265 120.242 320.962 118.549C321.081 120.425 321.081 122.235 321.081 124.228V130.504H313.283V94.3473H319.631V94.3484ZM321.081 102.314V114.268C323.737 114.931 325.739 115.232 326.944 115.232C328.761 115.232 329.908 114.747 330.578 113.908C331.241 112.936 331.534 110.768 331.534 107.625C331.534 104.668 331.241 102.674 330.578 101.468C330.085 100.504 329.063 99.8342 327.43 99.8342C325.738 99.8342 323.619 100.68 321.081 102.314ZM369.261 94.3484V120.427H361.462V99.8342H358.144C357.172 99.8342 356.628 100.018 356.151 100.504C355.841 100.806 355.48 101.468 355.297 102.497C354.635 108.287 353.973 112.274 353.487 114.268C352.34 119.213 348.83 121.389 342.85 120.727L342.063 114.931C343.512 114.57 344.541 114.444 345.203 114.085C345.865 113.606 346.175 113.12 346.534 112.091C347.196 110.098 347.683 106.478 348.161 100.982C348.647 96.7006 351.007 94.3484 355.48 94.3484H369.261ZM376.58 100.32L375.911 95.0105C380.568 94.0467 385.048 93.6864 389.337 93.6864C392.839 93.6864 395.318 94.3485 397.016 95.855C398.826 97.3627 399.496 99.6586 399.496 103.337V120.428H393.514L392.661 116.441C389.999 119.581 386.856 121.09 383.046 121.09C380.567 121.09 378.388 120.428 376.889 119.097C375.431 117.773 374.586 115.903 374.586 113.609V110.954C374.586 108.776 375.248 107.327 376.762 106.12C378.087 104.972 380.088 104.31 382.56 104.31H391.874V103.163C391.697 102.014 391.513 100.985 390.85 100.508C390.365 100.021 389.209 99.8376 387.526 99.8376C384.739 99.8342 381.053 100.018 376.58 100.32ZM382.2 111.427V112.576C382.2 114.268 383.23 115.231 385.225 115.231C387.401 115.231 389.52 114.443 391.875 112.576V109.133H384.739C383.047 109.133 382.2 109.92 382.2 111.427ZM431.051 94.3484V120.427H423.435V109.436H413.643V120.427H405.963V94.3484H413.643V104.006H423.435V94.3484H431.051ZM466.237 114.747V127.849H461.102L460.616 120.425H441.202L440.663 127.849H435.529V114.747H438.846C440.363 110.95 441.334 106.117 441.994 100.806C442.539 96.7006 444.837 94.3484 449.493 94.3484H462.123V114.747H466.237ZM454.996 114.747V99.6586H451.486C449.978 99.6586 449.014 100.504 448.824 102.13C448.344 107.323 447.138 111.613 445.682 114.747H454.996ZM478.39 103.461H482.379C486.852 103.461 490.002 104.123 491.693 105.33C493.325 106.478 494.171 108.772 494.171 112.091C494.171 115.416 493.324 117.587 491.809 118.918C490.175 120.242 487.513 120.727 483.709 120.727C478.389 120.727 474.1 120.727 471.076 120.425H470.893V94.3473H478.389V103.461H478.39ZM505.286 94.3484V120.427H497.487V94.3484H505.286ZM478.39 115.232H482.379C483.894 115.232 485.041 115.114 485.528 114.57C486.005 114.268 486.372 113.239 486.372 111.789C486.372 110.465 486.005 109.434 485.528 109.134C485.041 108.655 483.894 108.288 482.379 108.288H478.39V115.232ZM518.235 94.3484L518.895 98.3265C519.926 97.0024 521.376 95.855 523.377 95.0105C525.244 94.2303 527.238 93.6864 529.234 93.6864C535.215 93.6864 538.178 98.5101 538.178 107.625C538.178 112.576 537.34 116.078 535.699 118.071C534.191 120.242 531.712 121.087 528.21 121.087C524.7 121.087 521.913 120.242 519.56 118.549C519.743 120.425 519.743 122.235 519.743 124.228V130.504H511.938V94.3473H518.235V94.3484ZM519.743 102.314V114.268C522.405 114.931 524.401 115.232 525.548 115.232C527.359 115.232 528.565 114.747 529.235 113.908C529.902 112.936 530.205 110.768 530.205 107.625C530.205 104.668 529.902 102.674 529.235 101.468C528.69 100.504 527.542 99.8342 526.035 99.8342C524.4 99.8342 522.215 100.68 519.743 102.314ZM569.254 94.3484L559.947 120.727C558.616 125.016 556.254 128.033 552.811 129.842C550.272 131.35 546.83 131.652 542.174 130.871L542.835 125.678C546.16 125.862 548.339 125.553 549.67 124.706C550.937 123.861 552.141 122.418 552.938 120.425H551.487C550.156 120.425 549.303 119.88 548.825 118.549L540.483 94.3473H548.642L553.599 111.251C553.959 112.935 554.262 114.267 554.445 115.113H554.923C555.593 113.119 555.953 111.913 556.138 111.251L560.911 94.3473H569.254V94.3484Z" fill="#334163"/>
<path d="M358.624 67.002H355.969V72.49H358.624V67.002Z" fill="#334365"/>
</svg>
