<svg width="329" height="343" viewBox="0 0 329 343" fill="none" xmlns="http://www.w3.org/2000/svg">
<path opacity="0.5" d="M206.38 105.448C207.327 105.639 209.424 108.947 209.989 109.789C211.385 111.872 212.241 114.277 213.349 116.52C215.593 121.081 216.908 124.829 215.821 129.411C217.387 127.833 218.856 126.465 219.839 125.554C227.809 118.139 237.434 112.129 248.331 110.391C258.617 108.746 268.814 108.789 279.178 108.631C282.812 108.574 288.807 106.78 285.667 112.161C280.463 121.078 270.914 128.024 263.004 134.47C260.528 136.486 258 138.464 255.376 140.283C253.662 141.471 251.607 142.013 249.926 143.276C248.918 144.033 245.93 145.847 245.658 147.011C245.183 149.041 247.187 148.892 248.427 149.353C256.703 152.434 262.701 160.208 264.933 168.823C266.108 173.358 260.013 172.217 256.928 172.698C252.115 173.448 247.284 173.262 242.6 171.902C239.857 171.105 235.718 169.329 234.724 173.377C233.768 177.275 235.207 182.172 235.245 186.154C235.276 189.461 234.651 196.357 230.097 194.628C226.457 193.237 222.634 189.256 219.503 187.005C211.492 181.255 208.326 174.181 207.454 165.989C207.102 166.381 206.779 166.82 206.372 167.136C200.803 171.46 188.167 177.666 188.513 174.966C189.301 168.97 188.688 155.059 197.42 151.6C200.901 150.223 204.049 148.219 207.216 146.253C208.39 145.517 209.619 145.008 209.764 143.442C209.887 142.111 209.035 140.797 208.517 139.614C206.514 134.991 204.39 130.423 202.315 125.829C200.601 122.076 201.028 117.87 202.127 114.031C202.549 112.52 203.886 105.352 206.38 105.448Z" fill="#0E9983"/>
<path opacity="0.5" d="M183.987 132.879C187.524 132.216 195.357 129.338 198.856 133.654C202.375 137.939 207.535 140.219 204.82 141.098C202.113 141.936 195.031 143.878 191.59 141.54C188.144 139.183 182.384 133.171 183.987 132.879Z" fill="#0E9983"/>
<g opacity="0.5">
<path opacity="0.5" d="M139.392 256.036C139.28 256.222 139.105 256.397 138.925 256.578C138.019 257.489 137.151 258.437 136.272 259.374C134.128 261.663 131.933 263.924 129.459 265.86C127.027 267.762 124.238 269.432 121.146 269.923C119.542 270.177 117.899 270.081 116.343 269.612C106.665 266.704 96.5667 268.404 99.7527 264.456C102.933 260.513 111.569 250.661 119.147 250.744C122.403 250.783 125.667 251.243 128.864 251.826C131.794 252.36 134.813 252.968 137.577 254.109C138.164 254.351 138.881 254.576 139.294 255.089C139.59 255.461 139.56 255.76 139.392 256.036Z" fill="#F1F2F2"/>
</g>
<g opacity="0.5">
<path opacity="0.5" d="M92.8664 274.832C92.6504 274.668 92.4444 274.528 92.2144 274.43C89.6744 273.308 87.2953 277.194 85.8103 278.806C75.6153 289.889 79.0203 305.724 83.2293 318.779C83.8433 320.699 83.9033 322.792 84.7483 324.642C85.7323 326.798 86.9814 325.944 88.4814 324.552C94.1274 319.315 100.059 311.579 100.819 303.596C101.504 296.405 99.1513 288.797 96.4953 282.207C95.7183 280.286 94.7484 276.329 92.8664 274.832Z" fill="#F1F2F2"/>
</g>
<g opacity="0.5">
<path opacity="0.5" d="M96.2331 273.403C94.6841 270.943 94.5731 268.566 98.4361 266.001C102.183 263.511 107.159 262.408 111.537 261.737C118.858 260.621 125.129 262.913 130.891 267.393C135.719 271.148 140.345 275.174 144.842 279.334C147.446 281.74 152.37 287.292 147.684 289.552C143.94 291.35 138.041 291.382 133.991 292.156C119.064 295.01 109.335 288.173 99.7741 277.647C98.4361 276.17 97.0921 274.774 96.2331 273.403Z" fill="#0E9983"/>
</g>
<g opacity="0.5">
<path opacity="0.5" d="M103.668 124.505C105.453 123.793 104.174 117.917 104.019 116.636C103.617 113.365 102.614 110.032 100.115 107.74C95.041 103.094 91.307 99.5454 89.75 98.5344C88.436 97.6774 88.411 107.309 88.469 108.22C88.764 112.879 91.1931 115.423 94.7111 118.437C96.2681 119.774 97.6781 121.316 99.4101 122.439C100.1 122.889 102.747 124.71 103.522 124.544C103.571 124.535 103.62 124.52 103.668 124.505Z" fill="#0E9983"/>
</g>
<g opacity="0.5">
<path opacity="0.5" d="M29.2154 179.087C21.0174 171.742 12.3584 166.618 8.47539 155.87C5.00439 146.265 6.53033 135.518 7.25933 125.586C8.54533 108.056 22.9214 125.116 27.9854 132.446C32.8104 139.433 36.3224 147.716 35.6624 156.362C35.2544 161.727 34.5814 167.066 33.3394 172.296C33.0984 173.22 31.4004 181.044 29.2154 179.087Z" fill="#0E9983"/>
</g>
<g opacity="0.5">
<path opacity="0.5" d="M31.2586 179.984C28.7976 174.561 25.5676 169.595 24.3676 163.669C22.9416 156.619 28.2116 150.806 31.1776 144.753C31.8346 143.414 34.4386 136.001 36.5736 139.455C39.2396 143.768 45.6746 155.208 43.0686 162.386C40.4516 169.576 32.4616 182.632 31.2586 179.984Z" fill="#F1F2F2"/>
</g>
<path d="M-25.4073 157.662C-25.5733 156.723 -24.8573 156.579 -23.7493 156.278C-22.6883 155.989 -21.6043 155.756 -21.3963 156.704C-21.3963 156.704 -0.0533295 243.825 -0.0523224 243.829C0.389679 245.634 1.08171 245.206 2.03471 243.069L27.0707 186.964C27.4277 186.213 28.2067 186.498 28.9937 186.888C29.7947 187.285 30.6027 187.606 30.2577 188.53L8.49162 246.637C6.99162 250.654 5.19574 257.066 5.65874 264.466C5.89374 266.679 6.22165 268.878 6.59465 270.758C6.68265 271.129 6.75467 271.48 6.81767 271.819C6.87767 272.087 6.93573 272.355 6.99773 272.603C6.99773 272.603 19.2647 322.678 19.2687 322.698C20.2217 326.587 20.7407 328.703 24.5707 320.875C35.7587 297.976 64.6687 238.834 71.9697 224.19C73.6996 220.723 83.6157 204.071 84.7177 200.943C86.5907 195.631 86.0607 193.467 85.7897 189.431C85.6427 187.816 85.4886 186.128 85.3296 184.398C84.4186 176.274 82.0277 172.052 78.8047 168.14L56.2967 142.29L33.4446 120.875C32.9776 120.407 33.3537 119.94 33.8217 119.463C34.8687 118.392 35.3257 118.484 35.6457 118.754L59.1917 138.507C59.1917 138.507 78.1207 159.109 78.1297 159.118C82.2737 163.627 82.6057 158.371 82.2757 152.522C80.0597 129.17 77.6197 103.608 76.0457 87.1486C76.0437 87.1266 76.0417 87.1047 76.0397 87.0826C75.6857 83.3916 75.3777 80.1636 75.1247 77.5196C74.4827 73.0666 73.2686 69.0186 70.2826 66.6886C70.2696 66.6786 70.2617 66.6716 70.2487 66.6616L29.9667 35.2206C29.5547 34.8626 29.8667 34.3136 30.2587 33.7566C30.6277 33.2286 31.1066 32.7656 31.4966 33.0506L71.1936 61.8516C75.5047 64.9766 75.8117 62.8576 76.8267 57.8206L89.1587 -3.34539C89.3317 -4.18939 89.8677 -4.03437 90.2977 -4.00537C90.7287 -3.97637 91.4507 -3.9794 91.3157 -3.1864L80.2317 61.3126C78.9367 68.8496 79.4837 74.2797 80.2317 81.5877C80.3307 82.5407 80.3836 83.3466 80.4076 84.0406L92.0276 182.535C93.0436 191.133 95.0577 192.487 99.5567 186.518C99.5567 186.518 160.739 105.352 160.747 105.339C165.077 99.5936 165.506 95.5826 164.937 90.1936L161.446 57.0596C161.326 55.7956 162.004 55.7466 162.741 55.5946C163.603 55.4166 164.506 55.2846 164.654 56.0486L169.746 87.7127C170.597 92.9877 172.954 90.3066 177.159 85.7696L237.149 21.0357C238.204 19.8976 238.659 20.1476 239.695 20.7366C240.731 21.3256 240.919 21.8576 240.396 22.4526C229.552 34.7936 218.708 47.1346 207.865 59.4746C204.26 63.5786 188.793 80.3306 171.439 102.657C161.39 115.584 150.447 129.992 140.051 143.825C137.908 146.68 139.727 147.239 142.205 146L172.438 130.883C172.442 130.881 172.445 130.879 172.449 130.877C177.364 128.419 181.934 125.594 185.393 120.437C188.703 115.498 193.31 108.627 196.185 104.366C197.272 102.755 197.744 103.106 198.28 103.36C198.816 103.614 199.635 103.878 198.959 105.109L188.797 123.586C186.53 127.71 188.298 128.393 192.738 130.116L236.555 147.125C237.757 147.592 237.164 148.425 236.956 149.132C236.749 149.839 236.598 150.415 234.589 149.723L217.634 143.879C214.474 142.792 214.925 143.961 215.752 146.133C215.753 146.135 215.753 146.136 215.754 146.138C216.906 149.159 218.316 152.867 219.246 155.385C219.667 156.534 218.618 156.575 218.067 156.7C217.516 156.825 216.733 156.957 216.127 155.669L211.257 145.317C210.033 142.716 208.159 140.612 204.345 139.297L190.551 134.542C186.472 133.137 182.772 132.194 177.469 134.945L177.466 134.946L134.818 157.074C134.812 157.077 134.807 157.08 134.802 157.083C126.46 161.411 121.799 169.143 118.267 173.008C104.473 191.61 94.7347 204.952 94.7337 204.953C88.5597 213.276 83.2967 222.116 78.5987 231.343C72.2337 243.848 62.2977 266.404 62.2947 266.411C59.6847 272.027 62.2146 272.372 67.3976 270.601L83.4587 265.134C84.3447 264.808 84.7856 265.911 85.0896 266.998C85.3987 268.097 85.4407 269.143 84.6657 269.518L65.2986 277.855C58.2286 280.901 54.1747 283.883 49.7887 293.31L35.5696 323.893C28.9706 338.084 26.9807 350.161 24.2157 361.189L-1.16634 507.433C-1.19534 507.599 -1.31227 507.736 -1.47127 507.79C-1.52026 507.806 -1.57034 507.813 -1.61934 507.813C-1.73134 507.813 -1.84337 507.771 -1.93037 507.692L-16.6382 494.211C-16.7582 494.102 -16.8113 493.936 -16.7763 493.775C-16.7763 493.775 9.54265 371.791 9.54265 371.79C15.3176 335.759 9.36472 319.881 7.93571 313.277L-25.4073 157.662Z" fill="white"/>
<g opacity="0.5">
<path opacity="0.5" d="M300.346 201.907C300.732 203.896 300.203 205.469 297.046 206.161C293.983 206.833 290.471 206.294 287.457 205.625C282.417 204.503 278.919 201.431 276.306 197.065C274.117 193.407 272.126 189.623 270.255 185.783C269.168 183.562 267.368 178.712 270.984 178.426C273.872 178.203 277.713 179.671 280.541 180.19C290.962 182.103 295.559 189.002 299.116 198.255C299.614 199.552 300.134 200.799 300.346 201.907Z" fill="#0E9983"/>
</g>
<g opacity="0.5">
<path opacity="0.5" d="M32.7172 213.337C29.9442 212.467 28.3192 210.73 29.5972 206.274C30.8362 201.949 33.9093 197.884 36.8083 194.535C41.6593 188.938 47.9202 186.618 55.2132 186.293C61.3232 186.023 67.4552 186.089 73.5772 186.342C77.1202 186.485 84.4703 187.52 82.3663 192.279C80.6803 196.076 76.2103 199.924 73.6273 203.138C64.1113 214.989 52.2702 216.09 38.1642 214.274C36.1882 214.017 34.2602 213.823 32.7172 213.337Z" fill="#0E9983"/>
</g>
<path opacity="0.5" d="M131.697 67.013C132.327 70.53 125.823 76.6399 123.493 78.8729C118.41 83.7449 113.597 82.269 107.3 82.82C105.7 82.96 92.6556 85.025 95.0116 80.995C97.5466 76.649 104.567 65.683 112.021 64.637C117.02 63.935 125.115 63.0539 129.899 65.0369C130.999 65.4929 131.547 66.18 131.697 67.013Z" fill="#0E9983"/>
<path opacity="0.5" d="M92.8254 91.1371C90.9344 88.9501 90.4743 86.632 93.8863 83.537C97.1983 80.534 101.919 78.7101 106.122 77.4001C113.149 75.2131 119.646 76.5311 125.976 80.0741C131.28 83.0441 136.42 86.3101 141.46 89.7281C144.375 91.7051 150.04 96.4251 145.773 99.3431C142.362 101.668 136.571 102.576 132.71 103.939C118.47 108.964 107.894 103.695 96.9344 94.779C95.3994 93.527 93.8724 92.3561 92.8254 91.1371Z" fill="white"/>
<path opacity="0.5" d="M39.4986 72.3769C40.5796 72.1999 41.6856 71.9159 42.8106 71.5049C48.3176 69.4949 52.8806 65.7529 57.8036 62.6809C60.3326 61.1009 61.6416 58.8129 63.9096 57.2069C70.2306 52.7249 67.7156 64.8049 71.3486 66.0309C75.4386 67.4089 78.8386 65.0948 82.3026 63.1228C87.1886 60.3348 92.1066 57.5989 96.9476 54.7289C112.978 45.2289 116.241 25.6978 118.786 8.75083C119.735 2.42383 120.204 -4.08112 120.146 -10.4831C120.026 -24.0791 109.583 -9.39013 105.192 -5.56613C98.0916 0.583872 90.3756 4.05986 84.0796 11.3929C80.0536 16.0769 79.9586 21.6079 78.5936 27.3659C78.1566 29.2299 75.2426 42.3909 73.0366 41.2209C70.8816 40.0769 71.5506 36.9358 71.9806 35.0398C74.7246 22.8338 71.9946 6.59584 60.4466 -0.471157C54.3966 -4.16216 47.7356 -6.69112 41.0736 -9.01712C37.2296 -10.3571 27.8936 -15.6341 23.9746 -12.8401C21.7306 -11.2471 23.0646 -9.98316 23.9426 -8.03616C26.5656 -2.19516 29.9596 2.89288 32.9566 8.54288C37.3226 16.7799 39.9536 25.9949 44.1626 33.9599C46.3176 38.0429 48.6196 39.2938 52.7856 40.4508C55.3206 41.1588 61.9757 42.5499 56.6587 46.3429C51.2197 50.2229 38.8716 42.4678 32.8166 42.9428C24.6446 43.5938 16.9147 47.1909 9.80965 51.0649C7.95766 52.0759 0.878586 54.7698 0.567589 56.8858C0.144592 59.8748 6.06664 61.7089 8.01363 62.6509C14.0006 65.5519 20.4216 67.3979 26.5346 70.0149C30.9476 71.9029 35.0616 73.0789 39.4986 72.3769Z" fill="#0E9983"/>
<path opacity="0.5" d="M54.9628 64.1277C53.6178 61.3477 44.3048 64.2377 42.2598 64.6767C37.0368 65.7737 31.7908 67.8817 28.4028 72.2257C21.5268 81.0347 16.2608 87.5467 14.8138 90.2007C13.5908 92.4307 29.1199 91.1127 30.5609 90.8897C38.0399 89.7507 41.8419 85.4847 46.2749 79.4067C48.2449 76.7107 50.5569 74.2147 52.1549 71.2647C52.7929 70.0977 55.4219 65.5737 55.0549 64.3437C55.0349 64.2757 55.0078 64.1987 54.9628 64.1277Z" fill="white"/>
<path opacity="0.5" d="M70.2898 222.236C69.2668 222.764 66.2088 222.107 65.3208 222.032C62.8968 221.829 60.4768 221.635 58.0528 221.465C53.5088 221.144 48.8868 220.717 44.3238 220.902C39.6338 221.092 35.2817 217.358 32.1737 214.26C30.6117 212.701 29.3278 210.822 27.8918 209.151C26.8228 207.9 23.7048 203.948 26.7288 203.336C29.6048 202.753 32.4738 202.548 35.3398 201.743C39.7638 200.508 44.7208 198.503 49.1248 200.892C51.4358 202.147 53.4537 204.036 55.3927 205.8C59.4217 209.462 63.2139 213.399 66.9399 217.377C68.0259 218.53 69.6457 219.794 70.4447 221.171C70.7667 221.716 70.6558 222.047 70.2898 222.236Z" fill="white"/>
<path opacity="0.5" d="M37.9319 188.752C38.9329 190.673 45.375 188.574 46.793 188.255C50.415 187.435 54.0379 185.935 56.3229 182.875C60.9599 176.661 64.515 172.073 65.472 170.211C66.285 168.642 55.4819 169.702 54.4689 169.871C49.2779 170.727 46.701 173.739 43.72 178.023C42.398 179.919 40.828 181.674 39.765 183.745C39.337 184.568 37.595 187.742 37.869 188.593C37.887 188.647 37.9099 188.697 37.9319 188.752Z" fill="white"/>
<path opacity="0.5" d="M327.619 89.8459C325.196 93.9149 324.824 102.246 321.814 110.471C318.869 118.492 307.526 123.366 300.308 126.57C298.082 127.558 291.782 131.471 290.124 128.477C289.142 126.703 291.057 121.244 291.528 119.382C293.639 111.056 295.696 101.726 303.344 96.7779C309.205 92.9869 315.967 90.8639 322.579 88.8049C325.994 87.7439 330.038 85.7459 327.619 89.8459Z" fill="white"/>
<path opacity="0.5" d="M41.1185 56.8067C36.4525 57.6147 29.8825 62.7516 21.6785 65.8166C13.6705 68.7996 2.58951 63.3566 -4.53949 59.9596C-6.73749 58.9126 -13.8086 56.6727 -12.6146 53.4667C-11.9046 51.5667 -6.51254 49.4686 -4.79254 48.6156C2.90346 44.8026 11.3275 40.2937 20.0615 42.8827C26.7525 44.8667 32.7644 48.6207 38.6304 52.3027C41.6574 54.2047 45.8055 55.9757 41.1185 56.8067Z" fill="white"/>
<path opacity="0.5" d="M256.775 150.901C249.649 145.922 264.289 140.407 267.198 139.338C273.698 136.95 279.896 137.853 286.056 140.847C291.213 143.365 296.245 146.166 301.175 149.117C303.741 150.639 308.444 153.45 305.158 156.34C299.261 161.529 290.779 164.209 283.048 164.737C273.839 165.368 263.818 155.822 256.775 150.901Z" fill="white"/>
<path opacity="0.5" d="M229.096 39.3132C229.057 39.0662 229.01 38.8372 228.916 38.6212C227.933 36.2222 223.82 37.3102 221.773 37.4332C210.955 38.0952 204.401 43.3652 199.879 52.9452C198.258 56.3462 195.871 59.3142 194.232 62.6982C193.293 64.6212 191.091 67.0832 191.145 69.3152C191.232 72.5062 196.421 70.7942 198.568 70.2002C203.144 68.9202 208.216 68.6792 212.433 66.2972C216.83 63.8182 219.577 59.4762 221.988 55.1902C223.592 52.3452 225.557 49.6672 226.777 46.6242C227.5 44.8292 229.399 41.5332 229.096 39.3132Z" fill="#0E9983"/>
<path opacity="0.5" d="M192.218 72.9501C190.442 70.8971 190.009 68.7201 193.212 65.8131C196.322 62.9921 200.758 61.2801 204.703 60.0491C211.301 57.9951 217.405 59.2331 223.351 62.5601C228.328 65.3491 233.159 68.4171 237.889 71.6261C240.629 73.4811 245.949 77.9151 241.94 80.6551C238.737 82.8391 233.3 83.6921 229.669 84.9731C216.3 89.6911 206.365 84.7441 196.075 76.3701C194.634 75.1951 193.2 74.0951 192.218 72.9501Z" fill="white"/>
<path opacity="0.5" d="M297.769 41.0632C297.572 42.4232 294.818 44.9652 294.152 45.7822C292.285 47.9962 290.415 50.2352 288.579 52.4802C285.135 56.6922 281.54 60.8973 278.58 65.4743C275.536 70.1933 268.881 71.8563 263.717 72.7423C261.127 73.1933 258.412 73.1442 255.778 73.3912C253.823 73.5642 247.818 73.8733 249.306 70.4913C250.724 67.2873 252.493 64.3493 253.682 60.9913C255.529 55.8143 256.983 49.5932 262.343 46.9592C265.158 45.5732 268.398 44.9053 271.455 44.2373C277.812 42.8393 284.269 41.8562 290.713 40.9722C292.594 40.7122 294.944 40.0013 296.837 40.1743C297.596 40.2403 297.842 40.5752 297.769 41.0632Z" fill="white"/>
<path opacity="0.5" d="M245.384 16.875C242.405 16.25 239.022 25.181 238.125 27.03C235.824 31.724 234.291 37.037 235.62 42.263C238.317 52.857 240.203 60.841 241.396 63.55C242.39 65.833 250.748 53.036 251.446 51.781C255.089 45.324 254.069 39.82 252.02 32.745C251.107 29.609 250.562 26.338 249.232 23.326C248.717 22.132 246.783 17.395 245.609 16.937C245.541 16.912 245.468 16.887 245.384 16.875Z" fill="white"/>
<path opacity="0.5" d="M205.008 -28.1177C206.022 -26.9487 206.171 -22.7247 206.386 -21.5497C206.9 -18.3277 207.438 -15.0627 208.013 -11.8407C209.077 -5.79872 210.023 0.38629 211.768 6.29929C213.568 12.3793 210.056 19.2993 206.968 24.3953C205.441 26.9493 203.388 29.2373 201.624 31.6803C200.331 33.4863 196.138 38.8613 194.321 35.0943C192.62 31.5193 191.4 27.8343 189.385 24.3583C186.31 18.9533 182.024 13.1273 183.744 6.59531C184.634 3.15631 186.465 -0.101713 188.165 -3.21871C191.686 -9.69471 195.654 -15.9587 199.67 -22.1307C200.858 -23.9437 201.976 -26.4727 203.54 -27.9757C204.167 -28.5747 204.63 -28.5447 205.008 -28.1177Z" fill="white"/>
<path opacity="0.5" d="M138.214 4.45689C135.653 5.61289 138.11 14.0989 138.469 15.9529C139.37 20.6979 141.191 25.4828 145.097 28.6438C153.012 35.0758 158.84 39.9679 161.251 41.3409C163.262 42.4909 162.359 28.4278 162.185 27.1228C161.301 20.3448 157.472 16.8128 152.011 12.6568C149.569 10.8208 147.343 8.66786 144.684 7.16386C143.624 6.55886 139.538 4.07886 138.417 4.38786C138.361 4.39986 138.288 4.41889 138.214 4.45689Z" fill="white"/>
<path opacity="0.5" d="M251.646 211.658C250.987 211.63 250.359 211.158 249.796 210.062C244.403 199.536 237.718 189.272 237.103 176.787C236.825 171.129 238.505 165.6 238.734 159.968C238.801 158.305 238.939 155.6 239.884 154.137C240.812 152.699 242.313 153.292 243.681 153.871C249.327 156.26 254.855 161.828 258.525 166.61C266.087 176.462 263.241 191.308 258.705 201.721C257.748 203.918 254.433 211.776 251.646 211.658Z" fill="white"/>
<path opacity="0.5" d="M257.185 18.2733C254.896 15.4963 248.588 10.0363 250.673 4.88332C252.726 -0.267682 252.225 -5.88868 254.303 -3.93468C256.35 -1.97468 261.478 3.28933 261.093 7.43233C260.698 11.5823 258.217 19.5353 257.185 18.2733Z" fill="#0E9983"/>
<path opacity="0.5" d="M181.665 25.8536C182.02 25.8676 182.373 25.9576 182.72 26.1346C186.234 27.9236 188.495 39.4375 188.283 43.0415C187.944 48.7075 183.815 54.3306 181.253 59.1556C180.587 60.4106 178.551 66.0755 176.682 63.0425C174.196 59.0095 168.202 48.3176 170.646 41.6686C171.941 38.1476 177.082 25.6706 181.665 25.8536Z" fill="white"/>
<path opacity="0.5" d="M73.3489 18.9229C69.6079 14.1859 59.2359 4.93692 62.8569 -3.80808C66.4639 -12.5521 65.8059 -22.1101 69.1949 -18.7901C72.5759 -15.4731 80.9639 -6.53612 80.1879 0.505882C79.3979 7.55688 75.0299 21.0559 73.3489 18.9229Z" fill="white"/>
<path opacity="0.5" d="M214.015 157.53C215.431 163.399 220.995 176.109 214.054 182.631C207.12 189.154 203.725 198.168 202.033 193.741C200.346 189.32 196.457 177.705 200.103 171.585C203.766 165.456 213.378 154.893 214.015 157.53Z" fill="white"/>
<path opacity="0.5" d="M271.931 131.207C270.533 133.567 265.366 131.457 262.384 130.506C255.434 128.288 247.711 126.069 241.869 121.531C237.074 117.805 234.022 113.704 231.446 108.203C230.232 105.612 229.522 102.755 228.52 100.089C227.784 98.0973 225.76 91.8893 229.707 92.5193C233.461 93.1013 237.029 94.1343 240.864 94.4493C246.795 94.9253 253.698 94.7213 257.966 99.5883C260.21 102.143 261.818 105.346 263.382 108.352C266.626 114.589 270.411 120.99 272.05 127.892C272.423 129.463 272.335 130.523 271.931 131.207Z" fill="white"/>
<path opacity="0.5" d="M276.156 99.2976C271.48 100.138 264.908 105.321 256.692 108.451C248.672 111.494 237.533 106.169 230.372 102.847C227.825 101.666 220.736 99.1366 222.208 95.5736C223.143 93.2976 226.976 92.2217 228.911 91.1087C232.022 89.2957 234.978 87.2256 237.731 84.9546C245.566 78.5046 270.602 92.9636 273.647 94.8316C276.701 96.7056 280.849 98.4316 276.156 99.2976Z" fill="#0E9983"/>
<path opacity="0.5" d="M120.767 17.919C120.811 18.025 120.848 18.142 120.878 18.271C121.22 19.733 120.362 22.109 119.918 23.49C118.73 27.189 116.719 30.572 114.764 33.906C111.811 38.942 107.815 43.3501 102.287 45.5411C100.435 46.2931 98.4084 46.692 96.4834 47.289C95.0554 47.737 90.6324 48.912 91.2074 46.165C92.3244 40.824 92.8985 34.951 96.0385 30.318C98.8325 26.193 103.714 24.1491 108.059 22.1061C111.163 20.6471 113.846 18.296 117.199 17.355C118.604 16.958 120.213 16.589 120.767 17.919Z" fill="white"/>
<path opacity="0.5" d="M39.6721 11.9761C37.5131 14.1261 43.2911 21.9471 44.3801 23.7281C47.1351 28.2741 50.8382 32.5201 56.0532 34.2961C66.6152 37.9291 74.4631 40.7852 77.4481 41.2852C79.9541 41.7252 73.5871 27.5671 72.9001 26.2811C69.3731 19.6341 64.1151 17.4422 56.9221 15.2252C53.7361 14.2432 50.6142 12.8732 47.3252 12.3112C46.0092 12.0872 40.8871 11.0841 39.8512 11.8231C39.7981 11.8611 39.7331 11.9141 39.6721 11.9761Z" fill="white"/>
</svg>
