<svg width="312" height="480" viewBox="0 0 312 480" fill="none" xmlns="http://www.w3.org/2000/svg">
<path opacity="0.5" d="M122.081 77.6377C121.134 77.8287 119.037 81.1367 118.472 81.9787C117.076 84.0617 116.22 86.4667 115.112 88.7097C112.868 93.2707 111.553 97.0187 112.64 101.601C111.074 100.023 109.605 98.6547 108.622 97.7437C100.652 90.3287 91.0271 84.3187 80.1301 82.5807C69.8442 80.9357 59.6472 80.9787 49.2832 80.8207C45.6492 80.7637 39.6542 78.9697 42.7942 84.3507C47.9982 93.2677 57.5471 100.214 65.4571 106.66C67.9331 108.676 70.4612 110.654 73.0852 112.473C74.7992 113.661 76.8541 114.203 78.5351 115.466C79.5431 116.223 82.5311 118.037 82.8031 119.201C83.2781 121.231 81.2741 121.082 80.0341 121.543C71.7581 124.624 65.7602 132.398 63.5282 141.013C62.3532 145.548 68.4482 144.407 71.5332 144.888C76.3462 145.638 81.1772 145.452 85.8612 144.092C88.6042 143.295 92.7431 141.519 93.7371 145.567C94.6931 149.465 93.2541 154.362 93.2161 158.344C93.1852 161.651 93.8102 168.547 98.3642 166.818C102.004 165.427 105.827 161.446 108.958 159.195C116.969 153.445 120.135 146.371 121.007 138.179C121.359 138.571 121.682 139.01 122.089 139.326C127.658 143.65 140.294 149.856 139.948 147.156C139.16 141.16 139.773 127.249 131.041 123.79C127.56 122.413 124.412 120.409 121.245 118.443C120.071 117.707 118.842 117.198 118.697 115.632C118.574 114.301 119.426 112.987 119.944 111.804C121.947 107.181 124.071 102.613 126.146 98.0187C127.86 94.2657 127.433 90.0597 126.334 86.2207C125.912 84.7097 124.575 77.5417 122.081 77.6377Z" fill="#0E9983"/>
<path opacity="0.5" d="M144.474 105.068C140.937 104.405 133.104 101.527 129.605 105.843C126.086 110.128 120.926 112.408 123.641 113.287C126.348 114.125 133.43 116.067 136.871 113.729C140.317 111.372 146.077 105.36 144.474 105.068Z" fill="#0E9983"/>
<g opacity="0.5">
<path opacity="0.5" d="M189.069 228.224C189.181 228.41 189.356 228.585 189.536 228.766C190.442 229.677 191.31 230.625 192.189 231.562C194.333 233.851 196.528 236.112 199.002 238.048C201.434 239.95 204.223 241.62 207.315 242.111C208.919 242.365 210.562 242.269 212.118 241.8C221.796 238.892 231.894 240.592 228.708 236.644C225.528 232.701 216.892 222.849 209.314 222.932C206.058 222.971 202.794 223.431 199.597 224.014C196.667 224.548 193.648 225.156 190.884 226.297C190.297 226.539 189.58 226.764 189.167 227.277C188.871 227.649 188.901 227.948 189.069 228.224Z" fill="#F1F2F2"/>
</g>
<g opacity="0.5">
<path opacity="0.5" d="M235.595 247.02C235.811 246.856 236.017 246.716 236.247 246.618C238.787 245.496 241.166 249.382 242.651 250.994C252.846 262.077 249.441 277.912 245.232 290.967C244.618 292.887 244.558 294.98 243.713 296.83C242.729 298.986 241.48 298.132 239.98 296.74C234.334 291.503 228.402 283.767 227.642 275.784C226.957 268.593 229.31 260.985 231.966 254.395C232.743 252.474 233.713 248.517 235.595 247.02Z" fill="#F1F2F2"/>
</g>
<g opacity="0.5">
<path opacity="0.5" d="M232.228 245.59C233.777 243.13 233.888 240.753 230.025 238.188C226.278 235.698 221.302 234.595 216.924 233.924C209.603 232.808 203.332 235.1 197.57 239.58C192.742 243.335 188.116 247.361 183.619 251.521C181.015 253.927 176.091 259.479 180.777 261.739C184.521 263.537 190.42 263.569 194.47 264.343C209.397 267.197 219.126 260.36 228.687 249.834C230.025 248.357 231.369 246.961 232.228 245.59Z" fill="#0E9983"/>
</g>
<g opacity="0.5">
<path opacity="0.5" d="M224.793 96.6929C223.008 95.9809 224.287 90.1049 224.442 88.8239C224.844 85.5529 225.847 82.2199 228.346 79.9279C233.42 75.2819 237.154 71.7329 238.711 70.7219C240.025 69.8649 240.05 79.4969 239.992 80.4079C239.697 85.0669 237.268 87.6109 233.75 90.6249C232.193 91.9619 230.783 93.5039 229.051 94.6269C228.361 95.0769 225.714 96.8979 224.939 96.7319C224.89 96.7229 224.841 96.7079 224.793 96.6929Z" fill="#0E9983"/>
</g>
<g opacity="0.5">
<path opacity="0.5" d="M299.246 151.275C307.444 143.93 316.103 138.806 319.986 128.058C323.457 118.453 321.931 107.706 321.202 97.7744C319.916 80.2443 305.54 97.3043 300.476 104.634C295.651 111.621 292.139 119.904 292.799 128.55C293.207 133.915 293.88 139.254 295.122 144.484C295.363 145.408 297.061 153.232 299.246 151.275Z" fill="#0E9983"/>
</g>
<g opacity="0.5">
<path opacity="0.5" d="M297.202 152.172C299.663 146.749 302.893 141.783 304.093 135.857C305.519 128.807 300.249 122.994 297.283 116.941C296.626 115.602 294.022 108.189 291.887 111.643C289.221 115.956 282.786 127.396 285.392 134.574C288.009 141.764 295.999 154.82 297.202 152.172Z" fill="#F1F2F2"/>
</g>
<path d="M353.868 129.849C354.034 128.91 353.318 128.766 352.21 128.465C351.149 128.176 350.065 127.943 349.857 128.891C349.857 128.891 328.514 216.012 328.513 216.016C328.071 217.821 327.379 217.393 326.426 215.256L301.39 159.151C301.033 158.4 300.254 158.685 299.467 159.075C298.666 159.472 297.858 159.793 298.203 160.717L319.969 218.824C321.469 222.841 323.265 229.253 322.802 236.653C322.567 238.866 322.239 241.065 321.866 242.945C321.778 243.316 321.706 243.667 321.643 244.006C321.583 244.274 321.525 244.542 321.463 244.79C321.463 244.79 309.196 294.865 309.192 294.885C308.239 298.774 307.72 300.89 303.89 293.062C292.702 270.163 263.792 211.021 256.491 196.377C254.761 192.91 244.845 176.258 243.743 173.13C241.87 167.818 242.4 165.654 242.671 161.618C242.818 160.003 242.972 158.315 243.131 156.585C244.042 148.461 246.433 144.239 249.656 140.327L272.164 114.477L295.016 93.0621C295.483 92.5941 295.107 92.1272 294.639 91.6502C293.592 90.5792 293.135 90.6711 292.815 90.9411L269.269 110.694C269.269 110.694 250.34 131.296 250.331 131.305C246.187 135.814 245.855 130.558 246.185 124.709C248.401 101.357 250.841 75.7951 252.415 59.3361C252.417 59.3141 252.419 59.2922 252.421 59.2701C252.775 55.5791 253.083 52.3511 253.336 49.7071C253.978 45.2541 255.192 41.2061 258.178 38.8761C258.191 38.8661 258.199 38.8591 258.212 38.8491L298.494 7.40815C298.906 7.05014 298.594 6.50109 298.202 5.9441C297.833 5.4161 297.354 4.9531 296.964 5.2381L257.267 34.0391C252.956 37.1641 252.649 35.0451 251.634 30.0081L239.302 -31.1579C239.129 -32.0019 238.593 -31.8469 238.163 -31.8179C237.732 -31.7889 237.01 -31.7919 237.145 -30.9989L248.229 33.5001C249.524 41.0371 248.977 46.4672 248.229 53.7752C248.13 54.7282 248.077 55.5341 248.053 56.2281L236.433 154.722C235.417 163.32 233.403 164.674 228.904 158.705C228.904 158.705 167.722 77.5391 167.714 77.5261C163.384 71.7811 162.955 67.7701 163.524 62.3811L167.015 29.2471C167.135 27.9831 166.457 27.9341 165.72 27.7821C164.858 27.6041 163.955 27.4721 163.807 28.2361L158.715 59.9002C157.864 65.1752 155.507 62.4941 151.302 57.9571L91.3123 -6.77685C90.2573 -7.91485 89.8023 -7.66486 88.7663 -7.07586C87.7303 -6.48686 87.5423 -5.95486 88.0653 -5.35986C98.9093 6.98114 109.753 19.3221 120.596 31.6621C124.201 35.7661 139.668 52.5181 157.022 74.8441C167.071 87.7711 178.014 102.179 188.41 116.012C190.553 118.867 188.734 119.426 186.256 118.187L156.023 103.07C156.019 103.068 156.016 103.066 156.012 103.064C151.097 100.606 146.527 97.7812 143.068 92.6242C139.758 87.6852 135.151 80.8141 132.276 76.5531C131.189 74.9421 130.717 75.2931 130.181 75.5471C129.645 75.8011 128.826 76.0651 129.502 77.2962L139.664 95.7731C141.931 99.8971 140.163 100.58 135.723 102.303L91.9063 119.312C90.7043 119.779 91.2973 120.612 91.5053 121.319C91.7123 122.026 91.8633 122.602 93.8723 121.91L110.827 116.066C113.987 114.979 113.536 116.148 112.709 118.32C112.708 118.322 112.708 118.323 112.707 118.325C111.555 121.346 110.145 125.054 109.215 127.572C108.794 128.721 109.843 128.762 110.394 128.887C110.945 129.012 111.728 129.144 112.334 127.856L117.204 117.504C118.428 114.903 120.302 112.799 124.116 111.484L137.91 106.729C141.989 105.324 145.689 104.381 150.992 107.132L150.995 107.133L193.643 129.261C193.649 129.264 193.654 129.267 193.659 129.27C202.001 133.598 206.662 141.33 210.194 145.195C223.988 163.797 233.726 177.139 233.727 177.14C239.901 185.463 245.164 194.303 249.862 203.53C256.227 216.035 266.163 238.591 266.166 238.598C268.776 244.214 266.246 244.559 261.063 242.788L245.002 237.321C244.116 236.995 243.675 238.098 243.371 239.185C243.062 240.284 243.02 241.33 243.795 241.705L263.162 250.042C270.232 253.088 274.286 256.07 278.672 265.497L292.891 296.08C299.49 310.271 301.48 322.348 304.245 333.376L329.627 479.62C329.656 479.786 329.773 479.923 329.932 479.977C329.981 479.993 330.031 480 330.08 480C330.192 480 330.304 479.958 330.391 479.879L345.099 466.398C345.219 466.289 345.272 466.123 345.237 465.962C345.237 465.962 318.918 343.978 318.918 343.977C313.143 307.946 319.096 292.068 320.525 285.464L353.868 129.849Z" fill="white"/>
<g opacity="0.5">
<path opacity="0.5" d="M28.1154 174.096C27.7294 176.085 28.2584 177.658 31.4154 178.35C34.4784 179.022 37.9903 178.483 41.0043 177.814C46.0443 176.692 49.5424 173.62 52.1554 169.254C54.3444 165.596 56.3354 161.812 58.2064 157.972C59.2934 155.751 61.0934 150.901 57.4774 150.615C54.5894 150.392 50.7484 151.86 47.9204 152.379C37.4994 154.292 32.9024 161.191 29.3454 170.444C28.8474 171.741 28.3274 172.988 28.1154 174.096Z" fill="#0E9983"/>
</g>
<g opacity="0.5">
<path opacity="0.5" d="M295.744 185.527C298.517 184.657 300.142 182.92 298.864 178.464C297.625 174.139 294.552 170.074 291.653 166.725C286.802 161.128 280.541 158.808 273.248 158.483C267.138 158.213 261.006 158.279 254.884 158.532C251.341 158.675 243.991 159.71 246.095 164.469C247.781 168.266 252.251 172.114 254.834 175.328C264.35 187.179 276.191 188.28 290.297 186.464C292.273 186.207 294.201 186.013 295.744 185.527Z" fill="#0E9983"/>
</g>
<path opacity="0.5" d="M196.763 39.2024C196.133 42.7194 202.638 48.8294 204.968 51.0624C210.051 55.9344 214.864 54.4584 221.161 55.0094C222.761 55.1494 235.805 57.2144 233.449 53.1844C230.914 48.8384 223.893 37.8724 216.439 36.8264C211.44 36.1244 203.346 35.2434 198.562 37.2264C197.462 37.6824 196.913 38.3694 196.763 39.2024Z" fill="#0E9983"/>
<path opacity="0.5" d="M235.636 63.3265C237.527 61.1395 237.987 58.8215 234.575 55.7265C231.263 52.7235 226.542 50.8995 222.339 49.5895C215.312 47.4025 208.815 48.7205 202.485 52.2635C197.181 55.2335 192.041 58.4995 187.001 61.9175C184.086 63.8945 178.421 68.6145 182.688 71.5325C186.099 73.8575 191.89 74.7655 195.751 76.1285C209.991 81.1535 220.567 75.8845 231.527 66.9685C233.062 65.7165 234.589 64.5455 235.636 63.3265Z" fill="white"/>
<path opacity="0.5" d="M288.962 44.5663C287.881 44.3893 286.775 44.1053 285.65 43.6943C280.143 41.6843 275.58 37.9423 270.657 34.8703C268.128 33.2903 266.819 31.0023 264.551 29.3963C258.23 24.9143 260.745 36.9943 257.112 38.2203C253.022 39.5983 249.622 37.2843 246.158 35.3123C241.272 32.5243 236.354 29.7883 231.513 26.9183C215.483 17.4183 212.22 -2.11272 209.675 -19.0597C208.726 -25.3867 208.257 -31.8917 208.315 -38.2937C208.435 -51.8897 218.878 -37.2007 223.269 -33.3767C230.369 -27.2267 238.085 -23.7507 244.381 -16.4177C248.407 -11.7337 248.502 -6.20267 249.867 -0.444668C250.304 1.41933 253.218 14.5803 255.424 13.4103C257.579 12.2663 256.91 9.12528 256.48 7.22928C253.736 -4.97672 256.466 -21.2147 268.014 -28.2817C274.064 -31.9727 280.725 -34.5017 287.387 -36.8277C291.231 -38.1677 300.567 -43.4447 304.486 -40.6507C306.73 -39.0577 305.396 -37.7937 304.518 -35.8467C301.895 -30.0057 298.501 -24.9177 295.504 -19.2677C291.138 -11.0307 288.507 -1.81567 284.298 6.14933C282.143 10.2323 279.841 11.4833 275.675 12.6403C273.14 13.3483 266.485 14.7393 271.802 18.5323C277.241 22.4123 289.589 14.6573 295.644 15.1323C303.816 15.7833 311.546 19.3803 318.651 23.2543C320.503 24.2653 327.582 26.9593 327.893 29.0753C328.316 32.0643 322.394 33.8983 320.447 34.8403C314.46 37.7413 308.039 39.5873 301.926 42.2043C297.513 44.0923 293.399 45.2683 288.962 44.5663Z" fill="#0E9983"/>
<path opacity="0.5" d="M273.498 36.3162C274.843 33.5362 284.156 36.4262 286.201 36.8652C291.424 37.9622 296.67 40.0702 300.058 44.4142C306.934 53.2232 312.2 59.7352 313.647 62.3892C314.87 64.6192 299.341 63.3012 297.9 63.0782C290.421 61.9392 286.619 57.6732 282.186 51.5952C280.216 48.8992 277.904 46.4032 276.306 43.4532C275.668 42.2862 273.039 37.7622 273.406 36.5322C273.426 36.4642 273.453 36.3872 273.498 36.3162Z" fill="white"/>
<path opacity="0.5" d="M258.171 194.425C259.194 194.953 262.252 194.296 263.14 194.221C265.564 194.018 267.984 193.824 270.408 193.654C274.952 193.333 279.574 192.906 284.137 193.091C288.827 193.281 293.179 189.547 296.287 186.449C297.849 184.89 299.133 183.011 300.569 181.34C301.638 180.089 304.756 176.137 301.732 175.525C298.856 174.942 295.987 174.737 293.121 173.932C288.697 172.697 283.74 170.692 279.336 173.081C277.025 174.336 275.007 176.225 273.068 177.989C269.039 181.651 265.247 185.588 261.521 189.566C260.435 190.719 258.815 191.983 258.016 193.36C257.694 193.905 257.805 194.236 258.171 194.425Z" fill="white"/>
<path opacity="0.5" d="M290.529 160.94C289.528 162.861 283.086 160.762 281.668 160.443C278.046 159.623 274.423 158.123 272.138 155.063C267.501 148.849 263.946 144.261 262.989 142.399C262.176 140.83 272.979 141.89 273.992 142.059C279.183 142.915 281.76 145.927 284.741 150.211C286.063 152.107 287.633 153.862 288.696 155.933C289.124 156.756 290.866 159.93 290.592 160.781C290.574 160.835 290.551 160.885 290.529 160.94Z" fill="white"/>
<path opacity="0.5" d="M0.842064 62.0344C3.26506 66.1034 3.63706 74.4344 6.64706 82.6594C9.59206 90.6804 20.935 95.5544 28.153 98.7584C30.379 99.7464 36.6791 103.659 38.3371 100.665C39.3191 98.8914 37.4041 93.4324 36.9331 91.5704C34.8221 83.2444 32.765 73.9144 25.117 68.9664C19.256 65.1754 12.494 63.0524 5.88204 60.9934C2.46704 59.9324 -1.57694 57.9344 0.842064 62.0344Z" fill="white"/>
<path opacity="0.5" d="M287.342 28.9952C292.008 29.8032 298.578 34.9401 306.782 38.0051C314.79 40.9881 325.871 35.5451 333 32.1481C335.198 31.1011 342.27 28.8611 341.076 25.6551C340.366 23.7551 334.973 21.6571 333.253 20.8041C325.557 16.9911 317.133 12.4822 308.399 15.0712C301.708 17.0552 295.697 20.8091 289.831 24.4911C286.804 26.3931 282.655 28.1642 287.342 28.9952Z" fill="white"/>
<path opacity="0.5" d="M71.6863 123.091C78.8123 118.112 64.1723 112.597 61.2633 111.528C54.7633 109.14 48.5653 110.043 42.4053 113.037C37.2483 115.555 32.2163 118.356 27.2863 121.307C24.7203 122.829 20.0173 125.64 23.3033 128.53C29.2003 133.719 37.6823 136.399 45.4133 136.927C54.6223 137.558 64.6433 128.012 71.6863 123.091Z" fill="white"/>
<path opacity="0.5" d="M99.3645 11.5016C99.4035 11.2546 99.4505 11.0257 99.5445 10.8097C100.527 8.41068 104.64 9.49863 106.687 9.62163C117.505 10.2836 124.06 15.5537 128.582 25.1337C130.203 28.5347 132.59 31.5026 134.229 34.8866C135.168 36.8096 137.37 39.2717 137.316 41.5037C137.229 44.6946 132.04 42.9827 129.893 42.3887C125.317 41.1087 120.245 40.8676 116.028 38.4856C111.631 36.0066 108.884 31.6647 106.473 27.3787C104.869 24.5337 102.904 21.8557 101.684 18.8127C100.961 17.0177 99.0615 13.7216 99.3645 11.5016Z" fill="#0E9983"/>
<path opacity="0.5" d="M136.243 45.1386C138.019 43.0856 138.452 40.9085 135.249 38.0015C132.139 35.1805 127.703 33.4686 123.758 32.2376C117.16 30.1836 111.056 31.4216 105.11 34.7486C100.133 37.5376 95.3018 40.6055 90.5718 43.8145C87.8318 45.6695 82.5117 50.1036 86.5207 52.8436C89.7237 55.0276 95.1607 55.8806 98.7917 57.1616C112.161 61.8796 122.096 56.9325 132.386 48.5585C133.827 47.3836 135.261 46.2836 136.243 45.1386Z" fill="white"/>
<path opacity="0.5" d="M30.6919 13.2517C30.8889 14.6117 33.6429 17.1537 34.3089 17.9707C36.1759 20.1847 38.0459 22.4237 39.8819 24.6687C43.3259 28.8807 46.9209 33.0857 49.8809 37.6627C52.9249 42.3817 59.5799 44.0447 64.7439 44.9307C67.3339 45.3817 70.0489 45.3327 72.6829 45.5797C74.6379 45.7527 80.643 46.0618 79.155 42.6798C77.737 39.4758 75.9679 36.5378 74.7789 33.1798C72.9319 28.0028 71.4779 21.7817 66.1179 19.1477C63.3029 17.7617 60.0629 17.0937 57.0059 16.4257C50.6489 15.0277 44.1919 14.0447 37.7479 13.1607C35.8669 12.9007 33.5169 12.1897 31.6239 12.3627C30.8649 12.4287 30.6189 12.7637 30.6919 13.2517Z" fill="white"/>
<path opacity="0.5" d="M83.0766 -10.9355C86.0556 -11.5605 89.4386 -2.6295 90.3356 -0.780501C92.6366 3.9135 94.1696 9.22647 92.8406 14.4525C90.1436 25.0465 88.2576 33.0305 87.0646 35.7395C86.0706 38.0225 77.7126 25.2255 77.0146 23.9705C73.3716 17.5135 74.3916 12.0095 76.4406 4.93446C77.3536 1.79846 77.8986 -1.47254 79.2286 -4.48454C79.7436 -5.67854 81.6776 -10.4155 82.8516 -10.8735C82.9196 -10.8985 82.9926 -10.9235 83.0766 -10.9355Z" fill="white"/>
<path opacity="0.5" d="M123.453 -55.9292C122.439 -54.7602 122.29 -50.5362 122.075 -49.3612C121.561 -46.1392 121.023 -42.8742 120.448 -39.6522C119.384 -33.6102 118.438 -27.4252 116.693 -21.5122C114.893 -15.4322 118.405 -8.51223 121.493 -3.41623C123.02 -0.862225 125.073 1.42575 126.837 3.86875C128.13 5.67475 132.323 11.0498 134.14 7.28275C135.841 3.70775 137.061 0.022789 139.076 -3.45321C142.151 -8.85821 146.437 -14.6842 144.717 -21.2162C143.827 -24.6552 141.996 -27.9132 140.296 -31.0302C136.775 -37.5062 132.807 -43.7702 128.791 -49.9422C127.603 -51.7552 126.485 -54.2843 124.921 -55.7873C124.294 -56.3863 123.831 -56.3562 123.453 -55.9292Z" fill="white"/>
<path opacity="0.5" d="M190.247 -23.3537C192.808 -22.1977 190.351 -13.7117 189.992 -11.8577C189.091 -7.11269 187.27 -2.32771 183.364 0.833292C175.449 7.26529 169.621 12.1573 167.21 13.5303C165.199 14.6803 166.102 0.617296 166.276 -0.687704C167.16 -7.4657 170.989 -10.9977 176.45 -15.1537C178.892 -16.9897 181.118 -19.1427 183.777 -20.6467C184.837 -21.2517 188.923 -23.7317 190.044 -23.4227C190.1 -23.4107 190.173 -23.3917 190.247 -23.3537Z" fill="white"/>
<path opacity="0.5" d="M76.8153 183.847C77.4743 183.819 78.1023 183.347 78.6653 182.251C84.0583 171.725 90.7433 161.461 91.3583 148.976C91.6363 143.318 89.9563 137.789 89.7273 132.157C89.6603 130.494 89.5223 127.789 88.5773 126.326C87.6493 124.888 86.1483 125.481 84.7803 126.06C79.1343 128.449 73.6063 134.017 69.9363 138.799C62.3743 148.651 65.2203 163.497 69.7563 173.91C70.7133 176.107 74.0283 183.965 76.8153 183.847Z" fill="white"/>
<path opacity="0.5" d="M146.796 -1.95895C146.441 -1.94495 146.088 -1.85494 145.741 -1.67794C142.227 0.111061 139.966 11.625 140.178 15.229C140.517 20.895 144.646 26.5181 147.208 31.3431C147.874 32.5981 149.91 38.263 151.779 35.23C154.265 31.197 160.259 20.5051 157.815 13.8561C156.52 10.3351 151.379 -2.14195 146.796 -1.95895Z" fill="white"/>
<path opacity="0.5" d="M114.446 129.719C113.03 135.588 107.465 148.298 114.406 154.82C121.34 161.343 124.735 170.357 126.427 165.93C128.114 161.509 132.004 149.894 128.358 143.774C124.695 137.645 115.083 127.082 114.446 129.719Z" fill="white"/>
<path opacity="0.5" d="M56.5298 103.397C57.9278 105.757 63.0948 103.647 66.0768 102.696C73.0268 100.478 80.7499 98.2588 86.5919 93.7208C91.3869 89.9948 94.4388 85.8938 97.0148 80.3928C98.2288 77.8018 98.9389 74.9447 99.9409 72.2787C100.677 70.2867 102.701 64.0787 98.7538 64.7087C94.9998 65.2907 91.4319 66.3238 87.5969 66.6388C81.6659 67.1148 74.7629 66.9108 70.4949 71.7778C68.2509 74.3328 66.6429 77.5357 65.0789 80.5417C61.8349 86.7787 58.0498 93.1798 56.4108 100.082C56.0378 101.653 56.1258 102.713 56.5298 103.397Z" fill="white"/>
<path opacity="0.5" d="M52.3045 71.4851C56.9805 72.3251 63.5524 77.5081 71.7684 80.6381C79.7884 83.6811 90.9275 78.3561 98.0885 75.0341C100.635 73.8531 107.725 71.3241 106.253 67.7611C105.318 65.4851 101.484 64.4092 99.5494 63.2962C96.4384 61.4832 93.4824 59.4131 90.7294 57.1421C82.8944 50.6921 57.8594 65.1511 54.8144 67.0191C51.7604 68.8931 47.6115 70.6191 52.3045 71.4851Z" fill="#0E9983"/>
<path opacity="0.5" d="M207.693 -9.89248C207.649 -9.78648 207.613 -9.66949 207.583 -9.54049C207.241 -8.07849 208.098 -5.70249 208.542 -4.32149C209.73 -0.622492 211.742 2.76052 213.697 6.09452C216.65 11.1305 220.645 15.5385 226.173 17.7295C228.025 18.4815 230.053 18.8805 231.978 19.4775C233.406 19.9255 237.829 21.1005 237.254 18.3535C236.137 13.0125 235.562 7.13951 232.422 2.50651C229.628 -1.61849 224.746 -3.66246 220.401 -5.70546C217.297 -7.16446 214.614 -9.5155 211.261 -10.4565C209.856 -10.8535 208.247 -11.2225 207.693 -9.89248Z" fill="white"/>
<path opacity="0.5" d="M288.789 -15.8354C290.948 -13.6854 285.17 -5.86438 284.081 -4.08338C281.326 0.462624 277.623 4.70862 272.408 6.48462C261.846 10.1176 253.998 12.9736 251.013 13.4736C248.507 13.9136 254.874 -0.244398 255.561 -1.5304C259.088 -8.1774 264.346 -10.3694 271.539 -12.5864C274.725 -13.5684 277.847 -14.9384 281.136 -15.5004C282.452 -15.7244 287.574 -16.7274 288.61 -15.9884C288.663 -15.9504 288.728 -15.8974 288.789 -15.8354Z" fill="white"/>
</svg>
